<?xml version="1.0" encoding="UTF-8" standalone="no"?>
<svg
   xmlns:dc="http://purl.org/dc/elements/1.1/"
   xmlns:cc="http://creativecommons.org/ns#"
   xmlns:rdf="http://www.w3.org/1999/02/22-rdf-syntax-ns#"
   xmlns:svg="http://www.w3.org/2000/svg"
   xmlns="http://www.w3.org/2000/svg"
   xmlns:sodipodi="http://sodipodi.sourceforge.net/DTD/sodipodi-0.dtd"
   xmlns:inkscape="http://www.inkscape.org/namespaces/inkscape"
   viewBox="0 0 16 16"
   version="1.1"
   id="svg6"
   sodipodi:docname="folder-github.svg"
   inkscape:version="0.92.4 (unknown)">
  <metadata
     id="metadata10">
    <rdf:RDF>
      <cc:Work
         rdf:about="">
        <dc:format>image/svg+xml</dc:format>
        <dc:type
           rdf:resource="http://purl.org/dc/dcmitype/StillImage" />
        <dc:title></dc:title>
      </cc:Work>
    </rdf:RDF>
  </metadata>
  <sodipodi:namedview
     pagecolor="#ffffff"
     bordercolor="#666666"
     borderopacity="1"
     objecttolerance="10"
     gridtolerance="10"
     guidetolerance="10"
     inkscape:pageopacity="0"
     inkscape:pageshadow="2"
     inkscape:window-width="1366"
     inkscape:window-height="709"
     id="namedview8"
     showgrid="false"
     inkscape:zoom="31.8125"
     inkscape:cx="8"
     inkscape:cy="8"
     inkscape:window-x="0"
     inkscape:window-y="0"
     inkscape:window-maximized="1"
     inkscape:current-layer="svg6" />
  <defs
     id="defs3051">
    <style
       type="text/css"
       id="current-color-scheme">
      .ColorScheme-Text {
        color:#dfdfdf;
      }
      </style>
  </defs>
  <path
     style="opacity:1;vector-effect:none;fill:#dfdfdf;fill-opacity:1;stroke:none;stroke-width:1.10652173;stroke-linecap:butt;stroke-linejoin:miter;stroke-miterlimit:4;stroke-dasharray:none;stroke-dashoffset:0;stroke-opacity:1"
     d="M 8 0 A 8 8 0 0 0 0 8 A 8 8 0 0 0 8 16 A 8 8 0 0 0 16 8 A 8 8 0 0 0 8 0 z M 11.080078 4.0078125 C 11.182489 3.9937485 11.269064 3.9984494 11.339844 4.0214844 C 11.567337 4.5997306 11.587455 5.1223209 11.400391 5.5878906 C 11.799806 6.0228553 12 6.5507845 12 7.1699219 C 12 7.6048776 11.947243 7.9890194 11.84375 8.3242188 C 11.740064 8.6594956 11.607648 8.9267343 11.443359 9.1289062 C 11.278978 9.3310772 11.073303 9.502517 10.828125 9.640625 C 10.582862 9.778826 10.345234 9.8780231 10.115234 9.9394531 C 9.8851396 10.000883 9.6260687 10.047405 9.3378906 10.078125 C 9.6007549 10.30837 9.7304688 10.671591 9.7304688 11.167969 L 9.7304688 12.787109 C 9.7304688 12.803389 9.7382344 12.816711 9.7402344 12.832031 A 6.6563216 6.5721644 0 0 1 8.2832031 13 A 6.6563216 6.5721644 0 0 1 6.8320312 12.835938 C 6.8345613 12.819047 6.8417969 12.805189 6.8417969 12.787109 C 6.8417969 12.771714 6.8402206 12.634007 6.8378906 12.373047 C 6.8355606 12.112002 6.8339844 11.883716 6.8339844 11.689453 L 6.6601562 11.71875 C 6.5489272 11.73942 6.407688 11.748594 6.2382812 11.746094 C 6.0689672 11.743714 5.8948576 11.726739 5.7128906 11.693359 C 5.5308256 11.660218 5.3598709 11.583102 5.203125 11.462891 C 5.0464718 11.342588 4.9368137 11.184582 4.8710938 10.990234 L 4.7949219 10.814453 C 4.7443561 10.696884 4.6634078 10.567022 4.5546875 10.423828 C 4.4459673 10.280537 4.3377994 10.182009 4.2265625 10.130859 L 4.1738281 10.091797 C 4.1384401 10.066167 4.1045727 10.037753 4.0742188 10.001953 C 4.0438648 9.9661601 4.0210364 9.9304312 4.0058594 9.8945312 C 3.9906824 9.8587413 4.0027808 9.8277975 4.0429688 9.8046875 C 4.0834684 9.7816275 4.1594137 9.7695312 4.265625 9.7695312 L 4.4160156 9.7949219 C 4.5171006 9.8154029 4.6418041 9.8761176 4.7910156 9.9785156 C 4.9401265 10.080829 5.0621437 10.213312 5.1582031 10.376953 C 5.2745585 10.586846 5.4156967 10.745433 5.5800781 10.855469 C 5.7443664 10.965505 5.9093747 11.021484 6.0761719 11.021484 C 6.2429769 11.021484 6.3883846 11.007902 6.5097656 10.982422 C 6.6310536 10.956867 6.7434058 10.918307 6.8496094 10.867188 C 6.8951419 10.524272 7.0185253 10.262305 7.2207031 10.078125 C 6.9325251 10.047416 6.6734606 10.000753 6.4433594 9.9394531 C 6.2133589 9.8780241 5.9775922 9.778921 5.7324219 9.640625 C 5.4871509 9.502517 5.2828653 9.329626 5.1210938 9.125 C 4.9593143 8.920289 4.8262503 8.6528698 4.7226562 8.3203125 C 4.6190548 7.9876607 4.5664062 7.6048776 4.5664062 7.1699219 C 4.5664062 6.550691 4.7666006 6.0228471 5.1660156 5.5878906 C 4.9789222 5.1223209 4.9982452 4.5997305 5.2207031 4.0214844 C 5.367305 3.9754513 5.5829156 4.0098853 5.8710938 4.125 C 6.1592719 4.240123 6.3718254 4.3381487 6.5058594 4.4199219 C 6.6398934 4.5016953 6.7472357 4.5707125 6.828125 4.6269531 C 7.2983708 4.4939346 7.7827107 4.4277344 8.2832031 4.4277344 C 8.7837032 4.4277344 9.2699029 4.4939242 9.7402344 4.6269531 L 10.027344 4.4433594 C 10.224395 4.3205158 10.458766 4.2077818 10.726562 4.1054688 C 10.860549 4.0543117 10.977667 4.0218855 11.080078 4.0078125 z "
     id="circle862" />
</svg>
