<?xml version="1.0" encoding="UTF-8" standalone="no"?>
<svg
   xmlns:dc="http://purl.org/dc/elements/1.1/"
   xmlns:cc="http://creativecommons.org/ns#"
   xmlns:rdf="http://www.w3.org/1999/02/22-rdf-syntax-ns#"
   xmlns:svg="http://www.w3.org/2000/svg"
   xmlns="http://www.w3.org/2000/svg"
   xmlns:sodipodi="http://sodipodi.sourceforge.net/DTD/sodipodi-0.dtd"
   xmlns:inkscape="http://www.inkscape.org/namespaces/inkscape"
   viewBox="0 0 16 16"
   version="1.1"
   id="svg6"
   sodipodi:docname="folder-launchpad.svg"
   inkscape:version="0.92.2 5c3e80d, 2017-08-06">
  <metadata
     id="metadata10">
    <rdf:RDF>
      <cc:Work
         rdf:about="">
        <dc:format>image/svg+xml</dc:format>
        <dc:type
           rdf:resource="http://purl.org/dc/dcmitype/StillImage" />
      </cc:Work>
    </rdf:RDF>
  </metadata>
  <sodipodi:namedview
     pagecolor="#ffffff"
     bordercolor="#666666"
     borderopacity="1"
     objecttolerance="10"
     gridtolerance="10"
     guidetolerance="10"
     inkscape:pageopacity="0"
     inkscape:pageshadow="2"
     inkscape:window-width="760"
     inkscape:window-height="480"
     id="namedview8"
     showgrid="false"
     inkscape:zoom="18.264648"
     inkscape:cx="0.66342298"
     inkscape:cy="8"
     inkscape:window-x="0"
     inkscape:window-y="0"
     inkscape:window-maximized="0"
     inkscape:current-layer="svg6" />
  <defs
     id="defs3051">
    <style
       type="text/css"
       id="current-color-scheme">
      .ColorScheme-Text {
        color:#dfdfdf;
      }
      </style>
  </defs>
  <path
     style="fill:#dfdfdf;fill-opacity:1;stroke:none"
     class="ColorScheme-Text"
     d="M 7.4179688 0.15234375 L 1.5058594 3.5214844 L 4.3652344 5.1484375 L 7.4179688 3.4121094 L 7.4179688 0.15234375 z M 8.6503906 0.15234375 L 8.6503906 3.4121094 L 11.701172 5.1523438 L 14.558594 3.5273438 L 8.6503906 0.15234375 z M 8.0332031 4.0371094 L 4.6054688 5.9902344 L 4.6035156 9.8984375 L 8.0292969 11.853516 L 11.457031 9.9023438 L 11.458984 5.9921875 L 8.0332031 4.0371094 z M 0.890625 4.5742188 L 0.88867188 11.310547 L 3.7460938 9.6855469 L 3.7460938 6.2011719 L 0.890625 4.5742188 z M 15.173828 4.5800781 L 12.316406 6.2050781 L 12.316406 9.6894531 L 15.171875 11.316406 L 15.173828 4.5800781 z M 4.3613281 10.736328 L 1.5039062 12.365234 L 7.4160156 15.738281 L 7.4160156 12.478516 L 4.3613281 10.736328 z M 11.697266 10.740234 L 8.6464844 12.478516 L 8.6464844 15.736328 L 14.556641 12.371094 L 11.697266 10.740234 z "
     id="path4" />
</svg>
