<?xml version="1.0" encoding="UTF-8" standalone="no"?>
<svg
   xmlns:dc="http://purl.org/dc/elements/1.1/"
   xmlns:cc="http://creativecommons.org/ns#"
   xmlns:rdf="http://www.w3.org/1999/02/22-rdf-syntax-ns#"
   xmlns:svg="http://www.w3.org/2000/svg"
   xmlns="http://www.w3.org/2000/svg"
   xmlns:sodipodi="http://sodipodi.sourceforge.net/DTD/sodipodi-0.dtd"
   xmlns:inkscape="http://www.inkscape.org/namespaces/inkscape"
   viewBox="0 0 16 16"
   version="1.1"
   id="svg6"
   sodipodi:docname="folder-games.svg"
   inkscape:version="0.92.2 5c3e80d, 2017-08-06">
  <metadata
     id="metadata10">
    <rdf:RDF>
      <cc:Work
         rdf:about="">
        <dc:format>image/svg+xml</dc:format>
        <dc:type
           rdf:resource="http://purl.org/dc/dcmitype/StillImage" />
      </cc:Work>
    </rdf:RDF>
  </metadata>
  <sodipodi:namedview
     pagecolor="#ffffff"
     bordercolor="#666666"
     borderopacity="1"
     objecttolerance="10"
     gridtolerance="10"
     guidetolerance="10"
     inkscape:pageopacity="0"
     inkscape:pageshadow="2"
     inkscape:window-width="1366"
     inkscape:window-height="699"
     id="namedview8"
     showgrid="false"
     inkscape:zoom="19.120804"
     inkscape:cx="-0.66426151"
     inkscape:cy="10.025829"
     inkscape:window-x="0"
     inkscape:window-y="0"
     inkscape:window-maximized="1"
     inkscape:current-layer="svg6" />
  <defs
     id="defs3051">
    <style
       type="text/css"
       id="current-color-scheme">
      .ColorScheme-Text {
        color:#dfdfdf;
      }
      </style>
  </defs>
  <path
     inkscape:connector-curvature="0"
     d="M 3.8272231,2.4063443 C 3.5877845,2.4072908 3.3124199,2.4693494 3.0309801,2.613912 2.0059972,3.1324469 1.0628244,4.8304978 0.55033201,7.0320914 0.11346489,8.9022402 -0.04698112,11.45957 0.2134641,12.488155 c 0.22683113,0.884064 0.61955404,1.275108 1.3168465,1.275108 1.0333808,-0.01699 2.3310589,-1.121768 3.1543849,-2.609423 0.5954858,-0.823505 1.9765537,-1.1979626 3.3075291,-1.1564961 1.3308769,-0.044693 2.7119464,0.3329421 3.3075294,1.1564961 0.823325,1.487655 2.121004,2.592438 3.154386,2.609423 0.697312,0 1.089994,-0.390997 1.316846,-1.275108 0.260445,-1.028585 0.1,-3.5859148 -0.336869,-5.4560636 C 14.921636,4.8304029 13.978453,3.1323805 12.95347,2.613912 c -0.56288,-0.2890197 -1.02775,-0.2805177 -1.439361,0 C 10.993228,2.9709378 9.9077685,3.3536406 7.9922742,3.3552251 6.0767799,3.3571238 4.9913305,2.9709378 4.4704411,2.613912 4.2646145,2.4736484 4.0667611,2.4052815 3.8273224,2.4063443 Z M 4.0722247,5.252987 H 5.0522123 V 6.2018681 H 6.0322107 V 7.1507485 H 5.0522123 v 0.948881 H 4.0722247 V 7.1507485 H 3.0922282 V 6.2018681 h 0.9799965 z m 7.3499573,0 c 0.270621,0 0.489992,0.2124164 0.489992,0.4744403 0,0.2620243 -0.219371,0.4744408 -0.489992,0.4744408 -0.270623,0 -0.489995,-0.2124165 -0.489995,-0.4744408 0,-0.2620239 0.219372,-0.4744403 0.489995,-0.4744403 z m -0.979998,0.9488811 c 0.270621,0 0.490003,0.2124159 0.490003,0.4744402 0,0.2620237 -0.219382,0.4744402 -0.490003,0.4744402 -0.270612,0 -0.4899933,-0.2124165 -0.4899933,-0.4744402 0,-0.2620243 0.2193813,-0.4744402 0.4899933,-0.4744402 z m 1.959955,0 c 0.270612,0 0.489995,0.2124159 0.489995,0.4744402 0,0.2620237 -0.219383,0.4744402 -0.489995,0.4744402 -0.270621,0 -0.490003,-0.2124165 -0.490003,-0.4744402 0,-0.2620243 0.219382,-0.4744402 0.490003,-0.4744402 z m -0.979998,0.9488804 c 0.270622,0 0.489995,0.2124165 0.489995,0.4744408 0,0.2620237 -0.219373,0.4744402 -0.489995,0.4744402 -0.270621,0 -0.489992,-0.2124165 -0.489992,-0.4744402 0,-0.2620243 0.219371,-0.4744408 0.489992,-0.4744408 z"
     id="path7078"
     style="opacity:1;fill:#dfdfdf;fill-opacity:1;stroke-width:0.96825767" />
</svg>
