<?xml version="1.0" encoding="UTF-8" standalone="no"?>
<svg
   xmlns:dc="http://purl.org/dc/elements/1.1/"
   xmlns:cc="http://creativecommons.org/ns#"
   xmlns:rdf="http://www.w3.org/1999/02/22-rdf-syntax-ns#"
   xmlns:svg="http://www.w3.org/2000/svg"
   xmlns="http://www.w3.org/2000/svg"
   xmlns:sodipodi="http://sodipodi.sourceforge.net/DTD/sodipodi-0.dtd"
   xmlns:inkscape="http://www.inkscape.org/namespaces/inkscape"
   viewBox="0 0 16 16"
   version="1.1"
   id="svg6"
   sodipodi:docname="folder-script.svg"
   inkscape:version="0.92.2 5c3e80d, 2017-08-06">
  <metadata
     id="metadata10">
    <rdf:RDF>
      <cc:Work
         rdf:about="">
        <dc:format>image/svg+xml</dc:format>
        <dc:type
           rdf:resource="http://purl.org/dc/dcmitype/StillImage" />
      </cc:Work>
    </rdf:RDF>
  </metadata>
  <sodipodi:namedview
     pagecolor="#ffffff"
     bordercolor="#666666"
     borderopacity="1"
     objecttolerance="10"
     gridtolerance="10"
     guidetolerance="10"
     inkscape:pageopacity="0"
     inkscape:pageshadow="2"
     inkscape:window-width="760"
     inkscape:window-height="480"
     id="namedview8"
     showgrid="false"
     inkscape:zoom="18.264648"
     inkscape:cx="0.66342298"
     inkscape:cy="8"
     inkscape:window-x="0"
     inkscape:window-y="0"
     inkscape:window-maximized="0"
     inkscape:current-layer="svg6" />
  <defs
     id="defs3051">
    <style
       type="text/css"
       id="current-color-scheme">
      .ColorScheme-Text {
        color:#dfdfdf;
      }
      </style>
  </defs>
  <path
     style="fill:#dfdfdf;fill-opacity:1;stroke:none"
     class="ColorScheme-Text"
     d="M 9.5722656 2.4863281 C 9.5041563 2.5139678 9.448512 2.5670523 9.4199219 2.6347656 L 5.0644531 12.9375 C 5.0048179 13.07847 5.0698878 13.241146 5.2109375 13.300781 L 5.9414062 13.609375 C 5.9758569 13.624026 6.0120808 13.630859 6.0488281 13.630859 C 6.0842291 13.630859 6.1208758 13.624871 6.1542969 13.611328 C 6.2224062 13.583688 6.2760182 13.528651 6.3046875 13.460938 L 10.660156 3.1601562 C 10.719712 3.0191858 10.654642 2.8565103 10.513672 2.796875 L 9.7832031 2.4882812 C 9.715569 2.459612 9.6404541 2.4587676 9.5722656 2.4863281 z M 4.5195312 4.3925781 C 4.4493331 4.3824508 4.3737984 4.3994179 4.3125 4.4453125 L 0.18359375 7.5332031 C 0.1136629 7.5854731 0.072265625 7.668426 0.072265625 7.7558594 C 0.072265625 7.8432927 0.1136629 7.9262457 0.18359375 7.9785156 L 4.3125 11.066406 C 4.3622356 11.103708 4.4207811 11.123047 4.4785156 11.123047 C 4.5629395 11.123047 4.6467636 11.084501 4.7011719 11.011719 L 5.1757812 10.376953 C 5.2198147 10.317951 5.2389696 10.244657 5.2285156 10.171875 C 5.2179824 10.099093 5.1779839 10.032315 5.1191406 9.9882812 L 2.1347656 7.7558594 L 5.1191406 5.5234375 C 5.1779839 5.479404 5.2179824 5.4145788 5.2285156 5.3417969 C 5.2389696 5.2690149 5.2198939 5.1937673 5.1757812 5.1347656 L 4.7011719 4.5019531 C 4.6552773 4.4406547 4.5897294 4.4027054 4.5195312 4.3925781 z M 11.207031 4.3925781 C 11.136843 4.4027054 11.069292 4.4406943 11.023438 4.5019531 L 10.548828 5.1347656 C 10.504795 5.1936881 10.48564 5.2690149 10.496094 5.3417969 C 10.506627 5.4144996 10.546546 5.479404 10.605469 5.5234375 L 13.591797 7.7558594 L 10.605469 9.9882812 C 10.546546 10.032315 10.506627 10.099172 10.496094 10.171875 C 10.48564 10.244657 10.504715 10.318031 10.548828 10.376953 L 11.023438 11.011719 C 11.077925 11.084501 11.16167 11.123047 11.246094 11.123047 C 11.303828 11.123047 11.362295 11.103629 11.412109 11.066406 L 15.542969 7.9785156 C 15.6129 7.9262457 15.654297 7.8432927 15.654297 7.7558594 C 15.654297 7.668426 15.6129 7.5854731 15.542969 7.5332031 L 11.412109 4.4453125 C 11.350811 4.3994575 11.277219 4.3824508 11.207031 4.3925781 z "
     id="path4" />
</svg>
