<?xml version="1.0" encoding="UTF-8" standalone="no"?>
<svg
   xmlns:dc="http://purl.org/dc/elements/1.1/"
   xmlns:cc="http://creativecommons.org/ns#"
   xmlns:rdf="http://www.w3.org/1999/02/22-rdf-syntax-ns#"
   xmlns:svg="http://www.w3.org/2000/svg"
   xmlns="http://www.w3.org/2000/svg"
   xmlns:sodipodi="http://sodipodi.sourceforge.net/DTD/sodipodi-0.dtd"
   xmlns:inkscape="http://www.inkscape.org/namespaces/inkscape"
   id="svg6"
   version="1.1"
   viewBox="0 0 16 16"
   sodipodi:docname="folder-steam.svg"
   inkscape:version="0.92.4 (unknown)">
  <sodipodi:namedview
     pagecolor="#ffffff"
     bordercolor="#666666"
     borderopacity="1"
     objecttolerance="10"
     gridtolerance="10"
     guidetolerance="10"
     inkscape:pageopacity="0"
     inkscape:pageshadow="2"
     inkscape:window-width="795"
     inkscape:window-height="480"
     id="namedview8"
     showgrid="false"
     inkscape:zoom="14.75"
     inkscape:cx="8"
     inkscape:cy="8"
     inkscape:window-x="0"
     inkscape:window-y="0"
     inkscape:window-maximized="0"
     inkscape:current-layer="svg6" />
  <metadata
     id="metadata10">
    <rdf:RDF>
      <cc:Work
         rdf:about="">
        <dc:format>image/svg+xml</dc:format>
        <dc:type
           rdf:resource="http://purl.org/dc/dcmitype/StillImage" />
        <dc:title />
      </cc:Work>
    </rdf:RDF>
  </metadata>
  <defs
     id="defs3051">
    <style
       id="current-color-scheme"
       type="text/css">
      .ColorScheme-Text {
        color:#dfdfdf;
      }
      </style>
  </defs>
  <path
     id="path14135"
     d="m 12.360648,2.0645025 c -1.853212,0 -3.3572428,1.5686638 -3.3740555,3.5084582 l -2.102536,3.1600865 c -0.08565,-0.00899 -0.1733068,-0.013167 -0.2612552,-0.013167 -0.4698669,0 -0.9096301,0.1338073 -1.2868099,0.3702317 L 0.19429525,7.1850188 0.35271759,10.495244 4.1617409,11.923701 c 0.2464204,1.188018 1.2563575,2.081459 2.4610604,2.081459 1.3048889,0 2.3822119,-1.049355 2.5069234,-2.384646 L 12.360648,9.1411302 c 1.863281,0 3.37545,-1.5808254 3.37545,-3.5346929 0,-1.9549718 -1.512006,-3.5419914 -3.37545,-3.5419914 z m 0,1.1660882 c 1.248453,0 2.263733,1.0663804 2.263733,2.3758962 0,1.3095724 -1.01528,2.3686118 -2.263733,2.3686118 -1.248453,0 -2.262339,-1.0590394 -2.262339,-2.3686118 0,-1.3095158 1.013886,-2.3758962 2.262339,-2.3758962 z m 0.0098,0.4664281 c -0.997735,0 -1.806538,0.8512285 -1.806538,1.8978019 0,1.046538 0.808803,1.8963506 1.806538,1.8963506 0.997778,0 1.807933,-0.8498126 1.807933,-1.8963506 0,-1.0465734 -0.810155,-1.8978019 -1.807933,-1.8978019 z M 6.6228226,9.4195827 c 1.0270629,0 1.8523944,0.8656633 1.8523944,1.9429933 -7.1e-6,1.077269 -0.8253315,1.942988 -1.8523944,1.942988 -0.7144161,0 -1.3303535,-0.417243 -1.6397844,-1.0349 0.3046852,0.128965 0.6086802,0.256408 0.9129953,0.386265 0.7551637,0.318314 1.6155508,-0.06484 1.9191047,-0.857069 C 8.1186778,11.007777 7.7505341,10.108072 6.9952496,9.7898143 L 6.2226045,9.4662262 c 0.1285821,-0.029095 0.2629486,-0.046651 0.4002181,-0.046651 z"
     style="color:#000000;display:inline;overflow:visible;visibility:visible;fill:#dfdfdf;fill-opacity:1;fill-rule:nonzero;stroke:none;stroke-width:1.62248707;stroke-miterlimit:4;stroke-dasharray:none;stroke-opacity:0.90366971;marker:none;enable-background:accumulate" />
</svg>
