<?xml version="1.0" encoding="UTF-8" standalone="no"?>
<svg
   xmlns:dc="http://purl.org/dc/elements/1.1/"
   xmlns:cc="http://creativecommons.org/ns#"
   xmlns:rdf="http://www.w3.org/1999/02/22-rdf-syntax-ns#"
   xmlns:svg="http://www.w3.org/2000/svg"
   xmlns="http://www.w3.org/2000/svg"
   xmlns:xlink="http://www.w3.org/1999/xlink"
   id="svg8"
   version="1.1"
   width="24"
   viewBox="0 0 24 24"
   height="24">
  <metadata
     id="metadata14">
    <rdf:RDF>
      <cc:Work
         rdf:about="">
        <dc:format>image/svg+xml</dc:format>
        <dc:type
           rdf:resource="http://purl.org/dc/dcmitype/StillImage" />
        <dc:title></dc:title>
      </cc:Work>
    </rdf:RDF>
  </metadata>
  <defs
     id="defs12">
    <linearGradient
       id="linearGradient819">
      <stop
         id="stop815"
         offset="0"
         style="stop-color:#333333;stop-opacity:1;" />
      <stop
         id="stop817"
         offset="1"
         style="stop-color:#474747;stop-opacity:1" />
    </linearGradient>
    <style
       type="text/css"
       id="current-color-scheme">
   .ColorScheme-Text { color:#5c616c; } .ColorScheme-Highlight { color:#5294e2; } .ColorScheme-ButtonBackground { color:#d3dae3; }
  </style>
    <linearGradient
       gradientTransform="rotate(-90,12,12)"
       gradientUnits="userSpaceOnUse"
       y2="12"
       x2="23"
       y1="12"
       x1="1"
       id="linearGradient821"
       xlink:href="#linearGradient819" />
  </defs>
  <path
     d="M 1,12 C 1,18.07513 5.92487,23 12,23 18.07513,23 23,18.07513 23,12 23,5.92487 18.07513,1 12,1 5.92487,1 1,5.92487 1,12 Z"
     id="path2"
     style="fill:url(#linearGradient821);fill-opacity:1" />
  <path
     style="fill:#f9f9f9;fill-opacity:1;fill-rule:evenodd;stroke:none;stroke-width:1.49200892"
     id="Page-1"
     d="m 15.829932,14.483657 c 0,-0.09462 -0.144549,-0.205001 -0.433659,-0.331155 0.02103,-0.07885 0.04071,-0.151123 0.05913,-0.21683 0.01837,-0.06571 0.03156,-0.134041 0.03941,-0.205002 0.0079,-0.07096 0.01575,-0.127473 0.02366,-0.169524 0.0079,-0.04208 0.0092,-0.101184 0.0037,-0.177406 -0.0052,-0.07622 -0.0079,-0.127467 -0.0079,-0.153749 0,-0.02627 -0.0092,-0.08411 -0.02758,-0.173465 -0.01837,-0.08936 -0.02889,-0.143241 -0.03156,-0.161637 -0.0027,-0.01842 -0.01575,-0.0841 -0.03941,-0.19712 -0.02366,-0.113012 -0.0381,-0.18266 -0.04339,-0.208943 -0.05257,-0.252313 -0.176091,-0.523016 -0.370585,-0.812126 -0.194487,-0.289109 -0.38372,-0.486224 -0.567699,-0.591355 0.126159,0.105131 0.275968,0.323274 0.449432,0.654435 0.457315,0.85155 0.599238,1.582195 0.425773,2.191952 -0.05782,0.210256 -0.189234,0.32064 -0.394236,0.331155 -0.16295,0.02103 -0.26414,-0.02758 -0.303558,-0.145869 -0.03941,-0.118272 -0.06045,-0.337723 -0.06308,-0.65837 -0.0026,-0.320652 -0.03286,-0.601869 -0.09068,-0.843668 -0.04731,-0.205002 -0.09856,-0.386348 -0.15375,-0.544044 -0.05519,-0.157697 -0.106444,-0.277278 -0.153755,-0.358752 -0.04731,-0.08148 -0.08804,-0.145869 -0.122208,-0.19318 -0.03417,-0.04731 -0.06833,-0.08673 -0.102503,-0.118272 -0.03417,-0.03156 -0.05388,-0.04993 -0.05913,-0.05519 -0.07359,-0.325901 -0.155069,-0.596609 -0.244427,-0.812126 -0.08936,-0.215515 -0.166896,-0.362698 -0.232598,-0.441546 -0.06571,-0.07884 -0.127473,-0.1655772 -0.185293,-0.2601942 -0.05782,-0.09462 -0.09724,-0.199742 -0.118272,-0.315387 -0.02103,-0.110386 -0.0052,-0.250994 0.04731,-0.421832 0.05257,-0.170837 0.0644,-0.3009367 0.03549,-0.3902939 -0.02899,-0.089362 -0.145924,-0.155069 -0.350931,-0.1971202 -0.07885,-0.015753 -0.195802,-0.063075 -0.350871,-0.1419223 -0.155063,-0.078848 -0.248366,-0.1208994 -0.279903,-0.1261539 -0.04203,-0.00524 -0.07096,-0.073588 -0.08674,-0.205007 -0.01576,-0.1314135 0.0052,-0.265449 0.06308,-0.4021169 0.05782,-0.1366679 0.152436,-0.2076343 0.283844,-0.2128888 0.194494,-0.015752 0.328534,0.063075 0.402123,0.236539 0.0736,0.1734648 0.0841,0.3259013 0.03156,0.4573147 -0.05782,0.099876 -0.06308,0.1695239 -0.01575,0.2089479 0.04731,0.039408 0.126158,0.040717 0.236543,0.00366 0.06833,-0.021039 0.102499,-0.1156448 0.102499,-0.2838499 V 7.7498136 C 13.177748,7.5921174 13.142258,7.4607092 13.097573,7.3555785 13.052883,7.2504477 12.997703,7.170286 12.931996,7.1150934 c -0.06571,-0.055187 -0.127468,-0.094617 -0.185292,-0.1182669 -0.05782,-0.023655 -0.128782,-0.043386 -0.212884,-0.059133 -0.562446,0.042025 -0.796357,0.39423 -0.701741,1.0565517 0,0.078843 -0.0027,0.1182669 -0.0079,0.1182669 -0.04731,-0.047311 -0.124839,-0.074907 -0.232602,-0.082789 -0.107754,-0.0079 -0.194489,-0.00654 -0.260196,0.00366 -0.06571,0.01052 -0.106444,-0.00261 -0.122213,-0.039408 0.0052,-0.2996185 -0.03679,-0.5361575 -0.126154,-0.7096222 -0.08935,-0.1734859 -0.207615,-0.2628481 -0.354797,-0.2681026 -0.141927,-0.00524 -0.250999,0.06702 -0.32722,0.2168296 -0.07622,0.1498093 -0.11958,0.3061866 -0.130094,0.4691372 -0.0052,0.078848 0.0037,0.1760919 0.02758,0.2917368 0.02366,0.1156449 0.05782,0.2142024 0.102498,0.2956777 0.04469,0.081476 0.08542,0.1169532 0.122218,0.1064444 0.05257,-0.015753 0.09462,-0.052565 0.126154,-0.1103852 0.02104,-0.047311 0.0027,-0.068334 -0.05519,-0.06308 -0.03679,0 -0.07753,-0.0381 -0.122214,-0.1143261 -0.04469,-0.07622 -0.06964,-0.1642639 -0.07491,-0.2641402 -0.0052,-0.1156397 0.01842,-0.2128836 0.07096,-0.2917316 0.05257,-0.078848 0.141923,-0.1156449 0.268076,-0.1103853 0.08936,0 0.160324,0.055187 0.212889,0.1655779 0.05257,0.1103852 0.07753,0.2128835 0.07491,0.3075054 -0.0027,0.094617 -0.0065,0.1524364 -0.01183,0.1734595 -0.11564,0.078848 -0.19712,0.1550689 -0.244426,0.2286573 -0.04203,0.06308 -0.114326,0.1248402 -0.216829,0.1852925 -0.102499,0.060453 -0.156378,0.093303 -0.161637,0.098557 -0.06833,0.073593 -0.109071,0.1445547 -0.122212,0.2128886 -0.01314,0.068332 0.0065,0.115645 0.05913,0.141928 0.07359,0.04208 0.139295,0.0933 0.19712,0.15375 0.05782,0.06045 0.09987,0.110385 0.126153,0.14981 0.02627,0.03941 0.07491,0.07358 0.145869,0.102503 0.07096,0.02888 0.164265,0.046 0.279905,0.05124 0.247058,0.01052 0.515135,-0.02889 0.804244,-0.118272 0.01052,-0.0052 0.07096,-0.02366 0.181346,-0.05519 0.110386,-0.03156 0.201062,-0.05913 0.272023,-0.08279 0.07096,-0.02366 0.148496,-0.05782 0.232598,-0.102498 0.08411,-0.04469 0.1393,-0.09068 0.165583,-0.137987 0.04731,-0.07359 0.09987,-0.094612 0.157691,-0.06308 0.02627,0.01575 0.04339,0.0381 0.05124,0.06702 0.0079,0.02889 0,0.06045 -0.02366,0.09462 -0.02366,0.03417 -0.06702,0.05913 -0.130095,0.07491 -0.105131,0.03156 -0.253627,0.08804 -0.445487,0.169519 -0.191866,0.08147 -0.311446,0.132727 -0.358757,0.15375 -0.231285,0.09988 -0.415258,0.160323 -0.551931,0.181351 -0.131414,0.02627 -0.339039,0.02103 -0.622894,-0.01575 -0.05257,-0.01052 -0.07622,-0.0052 -0.07096,0.01575 0.0052,0.02103 0.04993,0.07096 0.134041,0.149809 0.131412,0.120899 0.307504,0.17872 0.528275,0.173465 0.08936,-0.0052 0.183979,-0.02366 0.283851,-0.05519 0.09988,-0.03156 0.194487,-0.06833 0.283849,-0.110386 0.08936,-0.04208 0.177406,-0.08804 0.264141,-0.137981 0.08673,-0.04993 0.165578,-0.09462 0.23654,-0.134041 0.07096,-0.03941 0.135353,-0.07096 0.193174,-0.09462 0.05782,-0.02366 0.103817,-0.03025 0.137981,-0.01973 0.03417,0.01052 0.05651,0.03941 0.06702,0.08673 0,0.01052 -0.0027,0.02235 -0.0079,0.03549 -0.0052,0.01314 -0.01575,0.02627 -0.03156,0.03941 -0.01575,0.01314 -0.03156,0.02496 -0.04731,0.03548 -0.01575,0.01052 -0.0381,0.02366 -0.06702,0.03941 -0.02889,0.01575 -0.05257,0.02758 -0.07096,0.03548 -0.01837,0.0079 -0.04469,0.02103 -0.07885,0.03941 -0.03417,0.01837 -0.05913,0.03025 -0.0749,0.03549 -0.147183,0.07359 -0.324588,0.189233 -0.532223,0.3469292 -0.207629,0.157696 -0.382407,0.270703 -0.524329,0.339042 -0.141928,0.06833 -0.27071,0.07096 -0.386355,0.0079 -0.110369,-0.05784 -0.275947,-0.249694 -0.496722,-0.5755952 -0.11564,-0.162956 -0.181347,-0.220775 -0.197115,-0.173464 -0.0052,0.01575 -0.0079,0.04208 -0.0079,0.07884 0,0.131413 -0.03941,0.2799092 -0.118272,0.4454872 -0.07885,0.165583 -0.156382,0.311446 -0.2325977,0.437605 -0.076217,0.126154 -0.1314137,0.27859 -0.1655837,0.457314 -0.034174,0.17872 -0.00369,0.344297 0.090676,0.496734 -0.1208991,0.03156 -0.2851636,0.268081 -0.4927927,0.709622 -0.2076343,0.441552 -0.3324746,0.812126 -0.374526,1.11175 -0.010517,0.09462 -0.014443,0.275963 -0.011829,0.544044 0.00266,0.268082 -0.011829,0.423145 -0.043388,0.465196 -0.042026,0.126159 -0.118272,0.134041 -0.2286566,0.02366 -0.1682056,-0.162951 -0.2628222,-0.410004 -0.2838505,-0.74116 -0.010517,-0.147182 0,-0.294363 0.03156,-0.441546 0.021034,-0.09988 0.018369,-0.147182 -0.00789,-0.141927 l -0.03156,0.03941 c -0.1892331,0.341675 -0.1629505,0.777957 0.078849,1.308865 0.026271,0.06308 0.091989,0.136668 0.1971205,0.220771 0.1051303,0.0841 0.1682048,0.136668 0.1892331,0.157696 0.1051303,0.120899 0.3784611,0.358752 0.820007,0.713568 0.4415456,0.354811 0.6859716,0.555872 0.7332826,0.603178 0.0841,0.07885 0.130095,0.178719 0.137982,0.299618 0.0079,0.1209 -0.02889,0.233912 -0.110385,0.339042 -0.08148,0.105132 -0.201061,0.165584 -0.358757,0.181352 0.04203,0.07885 0.118272,0.195801 0.228657,0.350871 0.110384,0.155064 0.183974,0.296991 0.22077,0.425772 0.03679,0.128786 0.05519,0.314074 0.05519,0.555872 0.241798,-0.126153 0.260194,-0.367953 0.05518,-0.72539 -0.02103,-0.04203 -0.04862,-0.0841 -0.08279,-0.12616 -0.03417,-0.04203 -0.05913,-0.07359 -0.07491,-0.09462 -0.01575,-0.02103 -0.02103,-0.03679 -0.01575,-0.04731 0.01575,-0.02627 0.04993,-0.05124 0.102498,-0.07491 0.05257,-0.02366 0.105131,-0.01712 0.157696,0.01973 0.241799,0.273336 0.678081,0.367953 1.308861,0.28385 0.699118,-0.07885 1.164309,-0.307505 1.395594,-0.685972 0.120905,-0.199747 0.210262,-0.278596 0.268087,-0.236544 0.06308,0.03156 0.08936,0.16821 0.07884,0.410009 -0.0052,0.131413 -0.06571,0.373206 -0.181346,0.725396 -0.04731,0.120899 -0.06308,0.219457 -0.04731,0.295672 0.01576,0.07622 0.07885,0.116959 0.189233,0.122213 0.01576,-0.09987 0.05388,-0.302245 0.114326,-0.607119 0.06045,-0.304878 0.09593,-0.541422 0.106445,-0.709627 0.01052,-0.110385 -0.0065,-0.303559 -0.05124,-0.579528 -0.04469,-0.275963 -0.06439,-0.530903 -0.05913,-0.764814 0.0052,-0.233917 0.06571,-0.419205 0.181346,-0.555873 0.07885,-0.09462 0.212889,-0.141927 0.402122,-0.141927 0.0052,-0.194494 0.09593,-0.333783 0.272022,-0.417891 0.176092,-0.0841 0.36664,-0.111699 0.571641,-0.08279 0.205008,0.02889 0.362698,0.08805 0.473083,0.177405 z M 10.878329,7.9630007 c 0.01575,-0.089362 0.0092,-0.1682103 -0.01973,-0.2365442 -0.02888,-0.068334 -0.05913,-0.107758 -0.09067,-0.1182722 -0.04731,-0.01052 -0.07096,0.0079 -0.07096,0.055192 0.01052,0.026272 0.02366,0.042077 0.03941,0.047311 0.05257,0 0.07096,0.039408 0.05519,0.1182721 -0.01575,0.1051256 0.0052,0.1576909 0.06308,0.1576909 0.01575,0 0.02366,-0.0079 0.02366,-0.023656 z m 1.900215,-0.126159 c 0,-0.05782 -0.01314,-0.1090716 -0.03941,-0.1537501 -0.02627,-0.044694 -0.05518,-0.077529 -0.08673,-0.098563 -0.03156,-0.021039 -0.05519,-0.028889 -0.07096,-0.023655 -0.07359,0.00524 -0.09199,0.023655 -0.05518,0.055192 0.01052,0.00524 0.02103,0.01052 0.03156,0.015752 0.07359,0.021039 0.1209,0.1024984 0.141928,0.244426 0,0.015753 0.02103,0.010519 0.06308,-0.015753 z m 5.125068,8.9294433 c 0.05782,0.06571 0.08936,0.128781 0.09462,0.189233 0.0052,0.06045 -0.001,0.119586 -0.01973,0.177405 -0.01842,0.05782 -0.05913,0.115646 -0.122213,0.173465 -0.06308,0.05782 -0.12484,0.109072 -0.185287,0.15375 -0.06045,0.04469 -0.1393,0.0933 -0.236544,0.145869 -0.09724,0.05257 -0.180033,0.09593 -0.248367,0.130099 -0.06833,0.03417 -0.152436,0.07491 -0.252313,0.122213 -0.09987,0.04732 -0.170837,0.08147 -0.212889,0.102498 -0.199747,0.09988 -0.424458,0.247054 -0.674139,0.441547 -0.249685,0.194488 -0.448119,0.362698 -0.595301,0.50462 -0.08936,0.08411 -0.268077,0.135355 -0.536157,0.153756 -0.268082,0.01837 -0.501994,-0.01973 -0.701741,-0.114332 -0.09462,-0.04731 -0.172152,-0.109071 -0.232598,-0.185292 -0.06045,-0.07622 -0.103817,-0.143236 -0.1301,-0.201056 -0.02627,-0.05782 -0.0841,-0.109077 -0.173465,-0.153755 -0.08936,-0.04469 -0.212883,-0.06965 -0.37058,-0.07491 -0.231284,-0.0052 -0.572954,-0.0079 -1.025015,-0.0079 -0.09987,0 -0.249679,0.0042 -0.449427,0.01183 -0.199748,0.0079 -0.352184,0.01444 -0.457315,0.01973 -0.231285,0.0052 -0.440227,0.04469 -0.626834,0.118273 -0.186606,0.07359 -0.327214,0.152436 -0.421831,0.236544 -0.09462,0.0841 -0.208948,0.159004 -0.3429887,0.224711 -0.1340408,0.06571 -0.2746491,0.09593 -0.4218316,0.09068 -0.152436,-0.0052 -0.444168,-0.08673 -0.8751993,-0.244426 C 8.255324,18.623155 7.8716078,18.510142 7.535193,18.441808 c -0.099877,-0.02103 -0.2339177,-0.046 -0.4021225,-0.07491 -0.16821,-0.02889 -0.2996185,-0.05257 -0.3942351,-0.07096 -0.094617,-0.01837 -0.1984337,-0.04339 -0.3114454,-0.07491 -0.1130177,-0.03156 -0.2010616,-0.06965 -0.2641405,-0.114327 -0.063077,-0.04469 -0.1077583,-0.09593 -0.1340408,-0.153755 -0.052569,-0.120899 -0.034174,-0.295672 0.055191,-0.524334 0.089362,-0.228658 0.136668,-0.371894 0.1419223,-0.429714 0.00523,-0.08411 -0.00523,-0.189233 -0.03156,-0.315392 C 6.16849,16.557352 6.142193,16.445653 6.115913,16.348409 6.089642,16.251159 6.077813,16.15523 6.080427,16.060613 c 0.00266,-0.09462 0.030249,-0.165577 0.082791,-0.212883 0.073594,-0.06308 0.223398,-0.09988 0.4494274,-0.110385 0.2260302,-0.01052 0.3837213,-0.04208 0.4730836,-0.09462 0.1576954,-0.09462 0.2680808,-0.186601 0.3311554,-0.275963 0.063077,-0.08936 0.094616,-0.223398 0.094616,-0.402117 0,0.149809 0.1392952,-0.236544 0.118272,-0.362703 -0.015754,-0.0841 -0.021034,-0.183974 -0.015754,-0.299613 0.00523,-0.152442 0.03156,-0.28911 0.078849,-0.410009 0.047314,-0.1209 0.1103854,-0.244427 0.1892331,-0.37058 0.078849,-0.12616 0.136668,-0.236545 0.17346,-0.331161 0.042026,-0.110385 0.1117037,-0.299619 0.2089482,-0.5677 0.097244,-0.268081 0.1747783,-0.473083 0.2325977,-0.615006 0.057823,-0.141927 0.136668,-0.302245 0.236544,-0.48097 0.099872,-0.178719 0.2023697,-0.320642 0.3075008,-0.425772 C 9.6193702,10.349447 9.9452662,9.8369498 10.01886,9.5636088 9.9557838,8.9748848 9.9137306,8.1601423 9.8927023,7.1193539 9.8821852,6.6462655 9.9452709,6.2480947 10.081935,5.9248155 10.218603,5.6015415 10.497198,5.326892 10.917716,5.100862 11.122718,4.9904767 11.396055,4.9352841 11.73773,4.9352841 c 0.278595,-0.00524 0.557186,0.030249 0.835776,0.1064444 0.278595,0.076221 0.512507,0.1852924 0.70174,0.3272149 0.299625,0.2207756 0.540104,0.5401035 0.721455,0.9579942 0.181347,0.4178906 0.258881,0.8055525 0.232599,1.1629961 -0.02627,0.4993659 0.05257,1.0618061 0.236539,1.6873311 0.178724,0.593982 0.528276,1.1669322 1.04867,1.7188682 0.289109,0.310132 0.550612,0.738532 0.784529,1.285209 0.233912,0.546677 0.390295,1.048665 0.469137,1.50598 0.04203,0.257567 0.05519,0.479651 0.03941,0.666257 -0.01575,0.186606 -0.04731,0.332474 -0.09462,0.4376 -0.04731,0.10513 0.06833,0.528281 0.141928,0.465201 0.0052,0.162951 0.02627,0.311447 0.06308,0.445488 0.03679,0.13404 0.07491,0.240485 0.114332,0.319332 0.03941,0.07884 0.0933,0.15375 0.161636,0.224711 0.06833,0.07096 0.123527,0.1209 0.165578,0.14981 0.04203,0.02894 0.09856,0.06308 0.169524,0.102503 0.07096,0.03941 0.114326,0.06439 0.130094,0.07491 0.105131,0.06308 0.186607,0.127473 0.244427,0.193179 z" />
</svg>
