<?xml version="1.0" encoding="UTF-8" standalone="no"?>
<svg
   xmlns:dc="http://purl.org/dc/elements/1.1/"
   xmlns:cc="http://creativecommons.org/ns#"
   xmlns:rdf="http://www.w3.org/1999/02/22-rdf-syntax-ns#"
   xmlns:svg="http://www.w3.org/2000/svg"
   xmlns="http://www.w3.org/2000/svg"
   xmlns:xlink="http://www.w3.org/1999/xlink"
   xmlns:sodipodi="http://sodipodi.sourceforge.net/DTD/sodipodi-0.dtd"
   xmlns:inkscape="http://www.inkscape.org/namespaces/inkscape"
   id="svg67"
   version="1.1"
   width="48"
   height="48"
   sodipodi:docname="gwenview.svg"
   inkscape:version="0.92.2 2405546, 2018-03-11">
  <sodipodi:namedview
     pagecolor="#ffffff"
     bordercolor="#666666"
     borderopacity="1"
     objecttolerance="10"
     gridtolerance="10"
     guidetolerance="10"
     inkscape:pageopacity="0"
     inkscape:pageshadow="2"
     inkscape:window-width="1366"
     inkscape:window-height="699"
     id="namedview59"
     showgrid="false"
     inkscape:zoom="10.105229"
     inkscape:cx="18.428369"
     inkscape:cy="24.71141"
     inkscape:window-x="0"
     inkscape:window-y="0"
     inkscape:window-maximized="1"
     inkscape:current-layer="svg67" />
  <metadata
     id="metadata73">
    <rdf:RDF>
      <cc:Work
         rdf:about="">
        <dc:format>image/svg+xml</dc:format>
        <dc:type
           rdf:resource="http://purl.org/dc/dcmitype/StillImage" />
        <dc:title />
      </cc:Work>
    </rdf:RDF>
  </metadata>
  <defs
     id="defs71">
    <linearGradient
       id="linearGradient1049">
      <stop
         id="stop1045"
         offset="0"
         style="stop-color:#ff766a;stop-opacity:1;" />
      <stop
         id="stop1047"
         offset="1"
         style="stop-color:#ff8a80;stop-opacity:1" />
    </linearGradient>
    <linearGradient
       id="linearGradient1041">
      <stop
         id="stop1037"
         offset="0"
         style="stop-color:#d22f7a;stop-opacity:1;" />
      <stop
         id="stop1039"
         offset="1"
         style="stop-color:#da5693;stop-opacity:1" />
    </linearGradient>
    <linearGradient
       gradientTransform="matrix(0.93064999,0,0,0.93065221,1.6196574,1.6113535)"
       gradientUnits="userSpaceOnUse"
       y2="32.394608"
       x2="23.998541"
       y1="41.023708"
       x1="25.350834"
       id="linearGradient1043"
       xlink:href="#linearGradient1041" />
    <linearGradient
       gradientTransform="matrix(0.93064999,0,0,0.93065221,1.6196574,1.6113535)"
       gradientUnits="userSpaceOnUse"
       y2="30.247467"
       x2="24.183382"
       y1="10.758353"
       x1="18.96129"
       id="linearGradient1051"
       xlink:href="#linearGradient1049" />
    <linearGradient
       y2="460.12192"
       x2="609.35425"
       y1="499.79797"
       x1="610.68256"
       gradientTransform="matrix(0.5379898,0,0,0.5379918,-300.08952,-217.3756)"
       gradientUnits="userSpaceOnUse"
       id="linearGradient1058"
       xlink:href="#d" />
    <linearGradient
       gradientTransform="matrix(0.92934185,0,0,0.92934555,14.756991,9.422781)"
       y2="32.394608"
       x2="23.998541"
       y1="41.023708"
       x1="25.350834"
       gradientUnits="userSpaceOnUse"
       id="linearGradient1077"
       xlink:href="#linearGradient1041" />
    <linearGradient
       gradientUnits="userSpaceOnUse"
       y2="54.380257"
       x2="39.1595"
       y1="54.380257"
       x1="15.848533"
       id="linearGradient1088"
       xlink:href="#linearGradient1049"
       gradientTransform="matrix(0.92934199,0,0,0.92934542,3.0591848,-9.8584033)" />
    <linearGradient
       gradientTransform="matrix(0.91046718,0,0,0.93065221,-17.89626,22.089121)"
       gradientUnits="userSpaceOnUse"
       y2="-21.167816"
       x2="48.834454"
       y1="10.052524"
       x1="48.834454"
       id="linearGradient1114"
       xlink:href="#a" />
    <linearGradient
       y2="460.12192"
       x2="609.35425"
       y1="499.79797"
       x1="610.68256"
       gradientTransform="matrix(0.5379898,0,0,0.5379918,-300.08952,-217.37559)"
       gradientUnits="userSpaceOnUse"
       id="linearGradient1132"
       xlink:href="#d" />
  </defs>
  <linearGradient
     gradientTransform="matrix(0.52544443,0,0,0.52544443,-267.44012,-210.14473)"
     y2="427.53772"
     y1="484.80768"
     x2="543.74268"
     x1="543.94849"
     gradientUnits="userSpaceOnUse"
     id="a">
    <stop
       id="stop2"
       stop-color="#86d0fb"
       offset="0" />
    <stop
       id="stop4"
       stop-color="#2794f5"
       offset="1" />
  </linearGradient>
  <linearGradient
     gradientTransform="matrix(0.52544443,0,0,0.52544443,-267.44012,-210.14473)"
     y2="434.36887"
     y1="450.54181"
     x2="522.04028"
     x1="520.21161"
     gradientUnits="userSpaceOnUse"
     id="b">
    <stop
       id="stop7"
       stop-color="#eefefe"
       offset="0" />
    <stop
       id="stop9"
       stop-color="#d6fefe"
       offset="1" />
  </linearGradient>
  <linearGradient
     y2="463.62488"
     y1="484.29376"
     x2="543.25458"
     x1="542.83392"
     gradientUnits="userSpaceOnUse"
     gradientTransform="matrix(0.49848807,-0.09354379,0.08936297,0.52224588,-289.61516,-160.80492)"
     id="c">
    <stop
       id="stop12"
       stop-color="#132e51"
       offset="0" />
    <stop
       id="stop14"
       stop-color="#2767b9"
       offset="1" />
  </linearGradient>
  <linearGradient
     gradientTransform="matrix(0.57889327,0,0,0.57889327,-324.31693,-235.97246)"
     y2="460.12192"
     y1="499.79797"
     x2="609.35425"
     x1="610.68256"
     gradientUnits="userSpaceOnUse"
     id="d">
    <stop
       id="stop17"
       stop-color="#cfd6da"
       offset="0" />
    <stop
       id="stop19"
       stop-color="#f2f7f9"
       offset="1" />
  </linearGradient>
  <linearGradient
     gradientTransform="matrix(0.57044703,-0.09852715,0.09852715,0.57044703,-337.45552,-180.6389)"
     y2="469.36835"
     y1="495.43405"
     x2="609.84625"
     x1="615.83813"
     gradientUnits="userSpaceOnUse"
     id="e">
    <stop
       id="stop22"
       stop-color="#215394"
       offset="0" />
    <stop
       id="stop24"
       stop-color="#388eff"
       offset="1" />
  </linearGradient>
  <linearGradient
     gradientTransform="matrix(0.5379898,0,0,0.5379918,-300.08952,-217.37559)"
     y2="459.90085"
     y1="499.57687"
     x2="609.27734"
     x1="610.60565"
     gradientUnits="userSpaceOnUse"
     id="f">
    <stop
       id="stop27"
       stop-color="#c2c9cc"
       offset="0" />
    <stop
       id="stop29"
       stop-color="#edf3f5"
       offset="1" />
  </linearGradient>
  <linearGradient
     y2="460.12192"
     y1="499.79797"
     x2="609.35425"
     x1="610.68256"
     gradientUnits="userSpaceOnUse"
     gradientTransform="matrix(0.49737732,0,0,0.49286827,-319.94326,-206.45341)"
     id="g">
    <stop
       id="stop32"
       stop-color="#122a49"
       offset="0" />
    <stop
       id="stop34"
       stop-color="#5ca4d4"
       offset="1" />
  </linearGradient>
  <linearGradient
     gradientTransform="matrix(0.52544444,0,0,0.52544444,-259.51094,-223.67613)"
     y2="421.86777"
     y1="470.48056"
     x2="555.29846"
     x1="556.43549"
     gradientUnits="userSpaceOnUse"
     id="h">
    <stop
       id="stop37"
       stop-color="#fe3f3c"
       offset="0" />
    <stop
       id="stop39"
       stop-color="#ff8729"
       offset="1" />
  </linearGradient>
  <linearGradient
     gradientTransform="matrix(0.57044703,-0.09852715,0.09852715,0.57044703,-359.74736,-177.33108)"
     y2="485.02814"
     y1="502.11029"
     x2="610.82434"
     x1="611.29034"
     gradientUnits="userSpaceOnUse"
     id="i">
    <stop
       id="stop42"
       stop-color="#163660"
       offset="0" />
    <stop
       id="stop44"
       stop-color="#1a4275"
       offset="1" />
  </linearGradient>
  <g
     id="g926"
     transform="translate(2.5282467e-6,0.02100637)">
    <rect
       style="opacity:1;vector-effect:none;fill:url(#linearGradient1114);fill-opacity:1;stroke:none;stroke-width:0.20000002;stroke-linecap:butt;stroke-linejoin:miter;stroke-miterlimit:4;stroke-dasharray:none;stroke-dashoffset:0;stroke-opacity:1"
       id="rect1104"
       width="37.784389"
       height="29.78087"
       x="6.8365488"
       y="1.9791296"
       ry="1.0557679"
       rx="1.1865" />
    <ellipse
       ry="3.7137494"
       rx="3.7137403"
       cx="15.400523"
       cy="10.001184"
       transform="rotate(0.36369057)"
       id="circle951"
       style="opacity:0.81099997;fill:#ffff08;fill-opacity:1;stroke-width:0.52544439" />
    <path
       style="fill:url(#linearGradient1051);fill-opacity:1;stroke-width:0.99999994"
       d="M 43.607303,35.063347 39.098452,9.6791115 C 38.942351,8.8001796 37.98984,8.2400492 36.962817,8.4232087 L 3.5938122,14.374218 c -1.0270197,0.183181 -1.7281488,1.038196 -1.5720301,1.917127 l 4.5088503,25.384236 c 0.1561023,0.878932 1.1086127,1.439062 2.1356366,1.255904 l 33.369002,-5.951012 c 1.027025,-0.183159 1.728151,-1.038197 1.572032,-1.917126 z"
       id="path883"
       inkscape:connector-curvature="0" />
    <path
       d="m 29.526429,15.887108 c 2.628567,-0.467865 5.138742,1.283556 5.606627,3.911995 0.467934,2.628432 -1.283699,5.138544 -3.912259,5.606454 -2.628567,0.467866 -5.138739,-1.283556 -5.606624,-3.911998 -0.467933,-2.62843 1.283696,-5.138541 3.912256,-5.606451 z"
       style="fill:#fdc9c9;fill-opacity:1;fill-rule:evenodd;stroke-width:0.99999994;enable-background:new"
       id="path887"
       inkscape:connector-curvature="0" />
    <path
       style="fill:url(#linearGradient1043);fill-opacity:1;stroke-width:0.99999994"
       d="m 5.4034207,35.329524 1.1272103,6.346059 c 0.1561023,0.878933 1.1086127,1.439063 2.1356362,1.255904 L 42.03527,36.980475 c 1.027024,-0.183158 1.728149,-1.038197 1.572031,-1.917128 l -1.127209,-6.346058 z"
       id="path891"
       inkscape:connector-curvature="0" />
    <path
       style="stroke-width:0.99999994"
       d="m 5.4235699,35.442959 -0.1610137,-0.9067 c 0,0 2.4053161,-1.987741 3.1336412,-2.253565 0.7282869,-0.265882 1.6350846,-0.316888 2.5735286,-0.332234 0.938424,-0.01583 2.335744,-0.06011 2.763034,-0.123502 0.427357,-0.06312 1.188696,-0.244728 2.074306,-0.450379 0.885763,-0.204692 2.358282,-0.51037 2.820693,-0.588152 0.461604,-0.08232 1.623614,-0.233407 2.863452,-0.388334 1.239777,-0.154728 2.946147,-0.348078 3.334219,-0.386237 0.388118,-0.03836 0.847914,-0.0633 1.369318,-0.09408 0.521261,-0.03126 1.421321,-0.0985 1.738568,-0.129445 0.317073,-0.03134 1.057276,-0.07529 1.910317,-0.159053 0.853002,-0.08387 2.203306,-0.301277 2.587699,-0.395118 0.384433,-0.09384 1.155579,-0.485547 2.023434,-0.874616 0.867829,-0.388965 1.832299,-0.775435 2.603076,-0.859863 0.770867,-0.08421 5.281374,0.42229 5.281374,0.42229 l 0.160999,0.90662 -32.573709,5.80918 z"
       id="path893"
       inkscape:connector-curvature="0" />
    <g
       transform="matrix(1.0014076,0,0,1.001406,-0.00281526,-0.06398419)"
       id="g886"
       style="stroke-width:0.99859518">
      <ellipse
         style="fill:url(#linearGradient1088);fill-opacity:1;stroke:none;stroke-width:1.15616;stroke-linecap:round;stroke-linejoin:round"
         id="circle1055"
         cy="40.679642"
         cx="28.619822"
         transform="matrix(0.98540957,-0.17019982,0.17019851,0.9854098,0,0)"
         rx="10.293941"
         ry="10.293979" />
      <path
         id="path1069"
         d="m 42.719604,34.199094 c -0.432955,-0.01272 -0.772141,-0.01042 -0.983796,0.0127 -1.693038,0.185449 -3.811418,1.033357 -5.717631,1.887733 -1.906271,0.854602 -3.600811,1.716082 -4.44523,1.922221 -0.844333,0.206123 -3.809497,0.683406 -5.683143,0.867631 -0.159632,0.01568 -0.201967,0.0146 -0.357579,0.02904 a 10.29394,10.29398 0 0 0 1.733441,2.924171 l 17.532251,-3.12565 a 10.29394,10.29398 0 0 0 0.582654,-4.345417 C 44.377909,34.292871 43.40029,34.21909 42.719604,34.199092 Z"
         style="stroke-width:0.998595"
         inkscape:connector-curvature="0" />
      <path
         id="path1063"
         d="m 35.424634,24.925605 a 10.29394,10.29398 0 0 0 -2.051088,0.14521 10.29394,10.29398 0 0 0 -6.467275,3.95698 c 1.589268,2.179558 4.326177,3.392411 7.160652,2.887868 3.052051,-0.543324 5.312934,-2.915192 5.8701,-5.786628 a 10.29394,10.29398 0 0 0 -4.512389,-1.20343 z"
         style="fill:#fdc9c9;fill-opacity:1;fill-rule:evenodd;stroke-width:0.99859512;enable-background:new"
         inkscape:connector-curvature="0" />
      <path
         id="path1075"
         d="M 44.910455,38.388409 27.04422,41.575775 a 10.29394,10.29398 0 0 0 9.834326,3.782726 10.29394,10.29398 0 0 0 8.031909,-6.970092 z"
         style="fill:url(#linearGradient1077);fill-opacity:1;stroke-width:0.99859512"
         inkscape:connector-curvature="0" />
      <ellipse
         transform="matrix(0.98540957,-0.17019982,0.17019851,0.9854098,0,0)"
         cx="28.578417"
         cy="40.560692"
         id="circle63"
         style="fill:none;stroke:url(#f);stroke-width:1.15616;stroke-linecap:round;stroke-linejoin:round"
         rx="10.293941"
         ry="10.293979" />
    </g>
  </g>
</svg>
