<?xml version="1.0" encoding="UTF-8" standalone="no"?>
<svg
   xmlns:dc="http://purl.org/dc/elements/1.1/"
   xmlns:cc="http://creativecommons.org/ns#"
   xmlns:rdf="http://www.w3.org/1999/02/22-rdf-syntax-ns#"
   xmlns:svg="http://www.w3.org/2000/svg"
   xmlns="http://www.w3.org/2000/svg"
   xmlns:xlink="http://www.w3.org/1999/xlink"
   xmlns:sodipodi="http://sodipodi.sourceforge.net/DTD/sodipodi-0.dtd"
   xmlns:inkscape="http://www.inkscape.org/namespaces/inkscape"
   height="24"
   viewBox="0 0 24 24"
   width="24"
   version="1.1"
   id="svg4"
   sodipodi:docname="web-browser-symbolic.svg"
   inkscape:version="0.92.2 2405546, 2018-03-11">
  <metadata
     id="metadata10">
    <rdf:RDF>
      <cc:Work
         rdf:about="">
        <dc:format>image/svg+xml</dc:format>
        <dc:type
           rdf:resource="http://purl.org/dc/dcmitype/StillImage" />
      </cc:Work>
    </rdf:RDF>
  </metadata>
  <defs
     id="defs8">
    <linearGradient
       gradientTransform="translate(-419.00001,-506.71113)"
       gradientUnits="userSpaceOnUse"
       x2="425.21"
       y2="513.95"
       x1="395.91"
       y1="525.26"
       id="a-3">
      <stop
         id="stop2-6"
         stop-color="#da4453" />
      <stop
         id="stop4-7"
         stop-color="#ff7336"
         offset="1" />
    </linearGradient>
    <linearGradient
       gradientUnits="userSpaceOnUse"
       x2="44"
       y2="33.75"
       x1="26.362"
       y1="44.09"
       id="b-3">
      <stop
         id="stop7"
         stop-color="#c0392b" />
      <stop
         id="stop9"
         stop-opacity="0"
         stop-color="#c0392b"
         offset="1" />
    </linearGradient>
    <linearGradient
       gradientUnits="userSpaceOnUse"
       x2="398.82"
       y2="528.52"
       x1="388.57"
       y1="519.85"
       id="c-6">
      <stop
         id="stop12"
         stop-color="#4d4d4d" />
      <stop
         id="stop14-7"
         stop-color="#31363b"
         offset="1" />
    </linearGradient>
    <linearGradient
       gradientUnits="userSpaceOnUse"
       x2="422.73"
       y2="537.95"
       x1="394.57"
       y1="509.8"
       id="d-5">
      <stop
         id="stop17"
         stop-color="#e5e7e8" />
      <stop
         id="stop19"
         stop-color="#dcdee0"
         offset="1" />
    </linearGradient>
    <linearGradient
       gradientTransform="matrix(0.70711,0.70711,-0.70711,0.70711,105.48,-635.29)"
       gradientUnits="userSpaceOnUse"
       x2="427.57"
       x1="389.57"
       id="e-3">
      <stop
         id="stop22"
         stop-color="#fcfcfc" />
      <stop
         id="stop24"
         stop-color="#eff0f1"
         offset="1" />
    </linearGradient>
    <linearGradient
       gradientTransform="translate(-444.75968,-516.38672)"
       x2="799.04"
       gradientUnits="userSpaceOnUse"
       y2="160.66"
       x1="771.7"
       y1="133.33"
       id="f-5"
       xlink:href="#d-5" />
    <linearGradient
       gradientTransform="matrix(0.49677,0,0,0.76923,-191.25657,-404.02657)"
       x2="0"
       gradientUnits="userSpaceOnUse"
       y2="528.8"
       y1="551.8"
       id="g">
      <stop
         id="stop28"
         stop-color="#c6cdd1" />
      <stop
         id="stop30"
         stop-color="#e0e5e7"
         offset="1" />
    </linearGradient>
    <linearGradient
       gradientTransform="matrix(0.61141,0,0,0.76923,-238.90657,-386.33657)"
       x2="0"
       gradientUnits="userSpaceOnUse"
       y2="505.8"
       y1="557.8"
       id="h">
      <stop
         id="stop33"
         stop-color="#42a603" />
      <stop
         id="stop35"
         stop-color="#78da06"
         offset="1" />
    </linearGradient>
    <linearGradient
       gradientTransform="matrix(1.5625 0 0 1.53847-227.95-292.82)"
       gradientUnits="userSpaceOnUse"
       x2="400.57"
       x1="398.57"
       id="i">
      <stop
         id="stop38"
         stop-color="#faae2a" />
      <stop
         id="stop40"
         stop-color="#ffc35a"
         offset="1" />
    </linearGradient>
    <linearGradient
       gradientTransform="matrix(1.5625,0,0,1.53847,-604.39657,-793.87657)"
       x2="400.57"
       gradientUnits="userSpaceOnUse"
       x1="398.57"
       id="j"
       xlink:href="#i" />
    <linearGradient
       gradientTransform="matrix(1.1580635,0,0,1.4383458,-439.42451,-734.17514)"
       gradientUnits="userSpaceOnUse"
       x2="390.65"
       y2="529.73"
       x1="410.5"
       y1="539.88"
       id="k">
      <stop
         id="stop44"
         stop-color="#bcfd93" />
      <stop
         id="stop46"
         stop-color="#fafff5"
         offset="1" />
    </linearGradient>
    <linearGradient
       gradientTransform="matrix(1,0,0,1.0440589,7.9999935,-1.176223)"
       gradientUnits="userSpaceOnUse"
       x2="34.19"
       y2="54.612"
       x1="14.187"
       y1="34.612"
       id="l">
      <stop
         id="stop49"
         stop-color="#383e51" />
      <stop
         id="stop51"
         stop-opacity="0"
         stop-color="#655c6f"
         offset="1" />
    </linearGradient>
    <linearGradient
       gradientTransform="matrix(0.61141,0,0,0.76923,-238.90657,-386.33657)"
       x2="0"
       gradientUnits="userSpaceOnUse"
       y2="505.79999"
       y1="557.79999"
       id="h-7">
      <stop
         id="stop33-5"
         stop-color="#42a603" />
      <stop
         id="stop35-3"
         stop-color="#78da06"
         offset="1" />
    </linearGradient>
    <linearGradient
       gradientTransform="matrix(0.49677,0,0,0.76923,-191.25657,-404.02657)"
       x2="0"
       gradientUnits="userSpaceOnUse"
       y2="528.79999"
       y1="551.79999"
       id="g-5">
      <stop
         id="stop28-6"
         stop-color="#c6cdd1" />
      <stop
         id="stop30-2"
         stop-color="#e0e5e7"
         offset="1" />
    </linearGradient>
    <linearGradient
       gradientTransform="matrix(1.5625,0,0,1.53847,-227.95,-292.82)"
       gradientUnits="userSpaceOnUse"
       x2="400.57001"
       x1="398.57001"
       id="i-9">
      <stop
         id="stop38-1"
         stop-color="#faae2a" />
      <stop
         id="stop40-2"
         stop-color="#ffc35a"
         offset="1" />
    </linearGradient>
    <linearGradient
       gradientTransform="matrix(1.5625,0,0,1.53847,-604.39657,-793.87657)"
       x2="400.57001"
       gradientUnits="userSpaceOnUse"
       x1="398.57001"
       id="j-7"
       xlink:href="#i-9" />
    <linearGradient
       gradientTransform="matrix(1.5625,0,0,1.53847,-227.95,-292.82)"
       gradientUnits="userSpaceOnUse"
       x2="400.57001"
       x1="398.57001"
       id="linearGradient1040">
      <stop
         id="stop1036"
         stop-color="#faae2a" />
      <stop
         id="stop1038"
         stop-color="#ffc35a"
         offset="1" />
    </linearGradient>
    <linearGradient
       gradientTransform="matrix(0.61141,0,0,0.80312143,-229.65001,-403.22242)"
       x2="0"
       gradientUnits="userSpaceOnUse"
       y2="505.79999"
       y1="557.79999"
       id="h-7-6">
      <stop
         id="stop33-5-1"
         stop-color="#42a603" />
      <stop
         id="stop35-3-8"
         stop-color="#78da06"
         offset="1" />
    </linearGradient>
    <linearGradient
       gradientTransform="matrix(0.49677,0,0,0.80312143,-182.00001,-421.69183)"
       x2="0"
       gradientUnits="userSpaceOnUse"
       y2="528.79999"
       y1="551.79999"
       id="g-5-7">
      <stop
         id="stop28-6-9"
         stop-color="#c6cdd1" />
      <stop
         id="stop30-2-2"
         stop-color="#e0e5e7"
         offset="1" />
    </linearGradient>
    <linearGradient
       gradientTransform="matrix(1.5625,0,0,1.53847,-227.95,-292.82)"
       gradientUnits="userSpaceOnUse"
       x2="400.57001"
       x1="398.57001"
       id="i-9-0">
      <stop
         id="stop38-1-2"
         stop-color="#faae2a" />
      <stop
         id="stop40-2-3"
         stop-color="#ffc35a"
         offset="1" />
    </linearGradient>
    <linearGradient
       gradientTransform="matrix(1.5625,0,0,1.6062533,-595.14001,-828.71819)"
       x2="400.57001"
       gradientUnits="userSpaceOnUse"
       x1="398.57001"
       id="j-7-7"
       xlink:href="#i-9-0" />
    <linearGradient
       gradientTransform="matrix(1.5625,0,0,1.53847,-227.95,-292.82)"
       gradientUnits="userSpaceOnUse"
       x2="400.57001"
       x1="398.57001"
       id="linearGradient1181">
      <stop
         id="stop1177"
         stop-color="#faae2a" />
      <stop
         id="stop1179"
         stop-color="#ffc35a"
         offset="1" />
    </linearGradient>
    <linearGradient
       xlink:href="#linearGradient4793"
       id="linearGradient2100"
       x1="24"
       y1="46"
       x2="23.178896"
       y2="14.592526"
       gradientUnits="userSpaceOnUse"
       gradientTransform="matrix(1,0,0,0.99809762,-41.629865,-1.1746768)" />
    <linearGradient
       id="linearGradient4793">
      <stop
         style="stop-color:#54b60f;stop-opacity:1"
         offset="0"
         id="stop4795" />
      <stop
         style="stop-color:#92dc41;stop-opacity:1"
         offset="1"
         id="stop4797" />
    </linearGradient>
    <style
       type="text/css"
       id="current-color-scheme">
      .ColorScheme-Text {
        color:#4d4d4d;
      }
      </style>
  </defs>
  <sodipodi:namedview
     pagecolor="#ffffff"
     bordercolor="#666666"
     borderopacity="1"
     objecttolerance="10"
     gridtolerance="10"
     guidetolerance="10"
     inkscape:pageopacity="0"
     inkscape:pageshadow="2"
     inkscape:window-width="1366"
     inkscape:window-height="695"
     id="namedview6"
     showgrid="false"
     inkscape:zoom="9.8333333"
     inkscape:cx="-6.2542373"
     inkscape:cy="12"
     inkscape:window-x="0"
     inkscape:window-y="0"
     inkscape:window-maximized="1"
     inkscape:current-layer="svg4" />
  <path
     style="color:#000000;font-style:normal;font-variant:normal;font-weight:normal;font-stretch:normal;font-size:medium;line-height:normal;font-family:sans-serif;font-variant-ligatures:normal;font-variant-position:normal;font-variant-caps:normal;font-variant-numeric:normal;font-variant-alternates:normal;font-feature-settings:normal;text-indent:0;text-align:start;text-decoration:none;text-decoration-line:none;text-decoration-style:solid;text-decoration-color:#000000;letter-spacing:normal;word-spacing:normal;text-transform:none;writing-mode:lr-tb;direction:ltr;text-orientation:mixed;dominant-baseline:auto;baseline-shift:baseline;text-anchor:start;white-space:normal;shape-padding:0;clip-rule:nonzero;display:inline;overflow:visible;visibility:visible;opacity:1;isolation:auto;mix-blend-mode:normal;color-interpolation:sRGB;color-interpolation-filters:linearRGB;solid-color:#000000;solid-opacity:1;vector-effect:none;fill:#4d4d4d;fill-opacity:1;fill-rule:nonzero;stroke:none;stroke-width:0.81818199;stroke-linecap:butt;stroke-linejoin:miter;stroke-miterlimit:4;stroke-dasharray:none;stroke-dashoffset:0;stroke-opacity:1;color-rendering:auto;image-rendering:auto;shape-rendering:auto;text-rendering:auto;enable-background:accumulate"
     d="M 11.998047 2.3417969 C 11.657256 2.3417969 11.318127 2.4479032 11.03125 2.6582031 L 11.03125 2.65625 C 10.235096 3.2390942 7.6771903 4.8939658 4.7226562 5.171875 C 3.7698143 5.2610599 3.0186261 6.0769448 3.0019531 7.0410156 L 3.0019531 7.0429688 C 2.9808431 8.4281484 3.066844 11.408802 4.15625 14.410156 C 5.245659 17.411509 7.4605788 20.49978 11.511719 21.59375 L 11.511719 21.595703 L 11.513672 21.595703 C 11.832022 21.681073 12.166025 21.681073 12.484375 21.595703 L 12.486328 21.59375 C 16.537625 20.500711 18.752187 17.411675 19.841797 14.410156 C 20.931139 11.409375 21.018166 8.4296909 20.998047 7.0449219 C 20.985457 6.074513 20.228297 5.2606825 19.275391 5.171875 L 19.273438 5.171875 C 16.32124 4.8936588 13.767726 3.2431651 12.966797 2.6582031 C 12.67992 2.4479033 12.338838 2.3417969 11.998047 2.3417969 z M 11.998047 3.4667969 C 12.106999 3.4667969 12.216071 3.5005339 12.308594 3.5683594 C 13.194027 4.2153089 15.880833 5.983407 19.171875 6.2929688 C 19.56789 6.3295078 19.873706 6.6605514 19.878906 7.0605469 C 19.916956 9.6709374 19.500509 18.535443 12.197266 20.505859 C 12.067562 20.540639 11.930485 20.540639 11.800781 20.505859 C 4.4975372 18.533687 4.0813237 9.6709542 4.1210938 7.0605469 C 4.1279937 6.6605513 4.432093 6.3295069 4.828125 6.2929688 C 8.119167 5.983407 10.803778 4.2153089 11.6875 3.5683594 C 11.78002 3.5005334 11.889095 3.4667969 11.998047 3.4667969 z M 11.998047 4.4511719 C 11.901657 4.4511719 11.80646 4.4790595 11.724609 4.5390625 C 11.497907 4.7050246 11.123279 4.9571986 10.654297 5.234375 C 10.80764 5.279698 10.991519 5.3878844 11.103516 5.3125 C 11.135446 5.29087 11.12738 5.2512773 11.15625 5.1953125 C 11.17917 5.1505205 11.216281 5.1020547 11.238281 5.046875 C 11.302461 5.044835 11.365218 5.0449219 11.429688 5.0449219 C 11.96221 5.0449219 12.481523 5.0969423 12.984375 5.1992188 C 12.963285 5.2547227 12.895946 5.2309795 12.837891 5.2578125 C 12.783441 5.2831155 12.762969 5.3347871 12.705078 5.3457031 C 12.544188 5.3760061 12.410729 5.307398 12.271484 5.3125 C 12.265384 5.372699 12.339582 5.4064163 12.376953 5.4257812 C 12.503157 5.4918983 12.607236 5.4844488 12.785156 5.4804688 C 12.876356 5.4784287 12.980248 5.506998 13.058594 5.453125 C 13.108234 5.41925 13.106887 5.3422469 13.148438 5.3007812 C 13.166147 5.2832313 13.191423 5.2669511 13.220703 5.2519531 C 13.308103 5.2725641 13.392174 5.2947894 13.478516 5.3183594 C 13.463986 5.3779464 13.37038 5.3616476 13.369141 5.4414062 C 13.422751 5.4735983 13.53214 5.4348855 13.597656 5.3828125 C 13.003255 5.0479137 12.540187 4.7339645 12.273438 4.5390625 C 12.191588 4.4790595 12.094433 4.4511719 11.998047 4.4511719 z M 14.337891 5.7695312 C 14.373411 5.8086673 14.421718 5.8394335 14.464844 5.8671875 C 14.538324 5.9145295 14.614495 5.9606899 14.640625 6.0429688 C 14.568675 6.1955061 14.453788 6.0361662 14.339844 6.0351562 C 14.214275 6.0342605 14.032795 6.272639 13.925781 6.078125 C 13.952381 5.9750627 14.065974 5.959168 14.09375 5.8574219 C 14.0693 5.8615019 14.045024 5.8694163 14.021484 5.8789062 C 13.979424 5.8955373 13.939399 5.9183473 13.896484 5.9414062 C 13.840184 5.9717092 13.779948 6.000627 13.712891 6.015625 C 13.651181 6.029195 13.592242 6.0269508 13.537109 6.0429688 C 13.43125 6.0739868 13.356131 6.1520571 13.244141 6.1933594 C 13.200441 6.2093784 13.147052 6.2055001 13.101562 6.2207031 C 12.994753 6.2563121 12.867989 6.3212011 12.757812 6.3808594 C 12.645171 6.4416694 12.517211 6.501832 12.447266 6.5625 C 12.409496 6.595048 12.311055 6.7112339 12.314453 6.7480469 C 12.318553 6.8005929 12.419396 6.8193164 12.421875 6.8730469 C 12.419875 6.9055949 12.364487 6.9761558 12.404297 7.0234375 C 12.440537 7.0664945 12.51294 7.0315316 12.589844 7.0410156 C 12.725023 7.0577486 12.814271 7.1693532 12.917969 7.2265625 C 12.996369 7.2698235 13.112641 7.3228013 13.201172 7.3339844 C 13.322711 7.3491874 13.45804 7.2972953 13.474609 7.3945312 C 13.490679 7.4879922 13.358994 7.5194772 13.349609 7.578125 C 13.415109 7.664443 13.306351 7.7055833 13.306641 7.78125 C 13.306927 7.842469 13.381362 7.9358557 13.447266 7.9414062 C 13.536416 7.9485462 13.668038 7.8545457 13.705078 7.765625 C 13.749098 7.6596752 13.729691 7.5146563 13.810547 7.4375 C 14.222801 7.448826 14.571492 7.2524381 14.544922 6.8300781 C 14.541822 6.7883471 14.518554 6.733343 14.527344 6.6875 C 14.540234 6.619241 14.656243 6.5628814 14.640625 6.4765625 C 14.685045 6.4628905 14.713618 6.4251686 14.736328 6.3847656 C 14.770208 6.3245666 14.796339 6.257077 14.859375 6.234375 C 14.863475 6.232335 14.866294 6.2314988 14.871094 6.2304688 C 14.907114 6.2222988 14.946697 6.2285744 14.986328 6.2402344 C 15.056948 6.2610474 15.132524 6.2967306 15.216797 6.2910156 C 15.259677 6.2879556 15.316284 6.2497384 15.359375 6.2558594 C 15.445865 6.2678994 15.497519 6.3725427 15.5625 6.421875 C 15.61991 6.465748 15.680656 6.4513016 15.695312 6.5097656 C 15.678313 6.6078176 15.609694 6.6131127 15.615234 6.703125 L 15.615234 6.7050781 C 15.621334 6.7859891 15.707985 6.8494125 15.75 6.8574219 C 15.81448 6.8694619 15.906325 6.8333424 15.970703 6.8027344 C 16.040193 6.7698804 16.101408 6.6997225 16.162109 6.6503906 C 16.248809 6.7169146 16.336058 6.7855566 16.419922 6.8554688 C 16.429122 6.8947497 16.43442 6.9311001 16.4375 6.9550781 C 16.44988 7.0505801 16.425917 7.1230372 16.429688 7.2109375 C 16.441038 7.3598425 16.628223 7.3438513 16.720703 7.421875 C 16.748543 7.445546 16.75811 7.5044033 16.78125 7.5351562 C 16.82617 7.5949472 16.881695 7.5963866 16.888672 7.6601562 C 16.905242 7.8126936 16.751142 7.825864 16.765625 7.9960938 C 16.733685 8.0621077 16.653645 8.0584508 16.660156 8.1464844 C 16.670336 8.2859005 16.869348 8.1802656 16.923828 8.2890625 C 16.953298 8.3475255 16.917924 8.389296 16.896484 8.4726562 C 16.965154 8.5542813 16.966793 8.6834201 16.845703 8.6835938 C 16.772113 8.6835938 16.752138 8.6062576 16.677734 8.5878906 C 16.636384 8.5775836 16.578076 8.5797915 16.525391 8.5703125 C 16.480351 8.5621425 16.427426 8.5480707 16.384766 8.5429688 C 16.275551 8.5300108 16.158331 8.562852 16.09375 8.5 C 16.199024 8.3604106 16.337302 8.221776 16.472656 8.1015625 C 16.512876 8.0656475 16.600569 8.0406923 16.580078 7.96875 C 16.504758 7.902736 16.412856 7.9736789 16.341797 8.0136719 C 16.267177 8.0556079 16.177941 8.1164173 16.09375 8.1289062 C 15.947435 8.1505372 15.752364 8.0861105 15.632812 8.1640625 C 15.616333 8.2306895 15.769315 8.2041255 15.748047 8.3046875 C 15.689507 8.3138775 15.634908 8.3202119 15.589844 8.2792969 C 15.548694 8.2423609 15.569589 8.1863464 15.542969 8.1640625 C 15.497639 8.1265145 15.328109 8.1163563 15.251953 8.1289062 C 15.159023 8.1440063 15.077143 8.1999472 15.066406 8.2792969 C 15.178045 8.3315369 15.361845 8.2240669 15.402344 8.3574219 C 15.341134 8.4673303 15.199405 8.5284168 15.21875 8.6757812 C 15.22595 8.7327143 15.293112 8.8079478 15.341797 8.8164062 C 15.390717 8.8245762 15.417568 8.7787141 15.464844 8.7832031 C 15.514894 8.7883031 15.50375 8.8426574 15.5625 8.8339844 C 15.64765 8.7976624 15.695402 8.6780433 15.792969 8.6835938 C 15.910044 8.8254791 15.686657 8.8944471 15.5625 8.9394531 C 15.420893 8.9906731 15.236781 9.0210537 15.128906 9.0664062 C 15.072306 9.0899753 14.858378 9.2943947 14.828125 9.1347656 C 14.806535 9.0196431 14.934138 9.0537312 14.960938 8.9589844 C 14.823996 8.9323544 14.696884 9.0190731 14.572266 9.0664062 C 14.394457 9.1335433 14.093695 9.1736565 14.050781 9.3730469 C 14.042581 9.4129409 14.065703 9.4890254 14.039062 9.515625 C 14.017872 9.537049 13.891369 9.5398218 13.835938 9.5585938 C 13.750578 9.5878767 13.675775 9.6498499 13.623047 9.6640625 C 13.583227 9.6749765 13.525236 9.6739037 13.5 9.6835938 C 13.42971 9.7108438 13.404883 9.8040405 13.324219 9.8671875 C 13.291169 9.8929975 13.217709 9.91148 13.191406 9.9375 C 13.145556 9.98301 13.137457 10.098164 13.056641 10.115234 C 13.005261 10.119234 12.964391 10.078052 12.916016 10.107422 C 12.909916 10.220065 12.957223 10.37244 12.908203 10.486328 C 12.803414 10.571628 12.686788 10.62987 12.552734 10.705078 C 12.478634 10.746798 12.411809 10.759898 12.322266 10.804688 C 12.258716 10.836317 12.201981 10.910078 12.128906 10.953125 C 11.959992 11.052405 11.756512 11.168557 11.757812 11.419922 C 11.758098 11.474312 11.786009 11.534081 11.792969 11.597656 C 11.797069 11.635106 11.788869 11.67202 11.792969 11.712891 C 11.803509 11.805231 11.870449 11.922559 11.792969 11.986328 C 11.673879 11.937548 11.520791 11.920588 11.4375 11.835938 C 11.41468 11.748798 11.485149 11.677037 11.474609 11.597656 C 11.466409 11.533896 11.374512 11.422236 11.322266 11.414062 C 11.268436 11.405862 11.221586 11.461521 11.166016 11.457031 C 11.099896 11.451831 11.03608 11.361389 10.951172 11.351562 C 10.826728 11.337072 10.735488 11.378575 10.597656 11.359375 C 10.464225 11.430485 10.427203 11.557441 10.263672 11.544922 C 10.206052 11.540822 10.152502 11.498045 10.085938 11.484375 C 10.013787 11.469485 9.903247 11.442066 9.828125 11.447266 C 9.677521 11.457446 9.566866 11.56768 9.4375 11.634766 C 9.323352 11.694146 9.1628043 11.767617 9.1289062 11.890625 C 9.1102763 11.956835 9.1250025 12.048094 9.1015625 12.109375 C 9.0859125 12.149675 9.05222 12.186259 9.03125 12.224609 C 8.93208 12.405491 8.8504952 12.646069 8.9257812 12.90625 C 8.9369313 12.94481 9.0355609 13.163054 9.0761719 13.207031 C 9.1218219 13.255901 9.2554242 13.326778 9.3320312 13.328125 C 9.3968113 13.329225 9.4743094 13.296376 9.5371094 13.285156 C 9.6098794 13.272206 9.699487 13.27112 9.765625 13.25 C 9.9569 13.18888 9.9198461 12.930763 10.111328 12.84375 C 10.194948 12.80599 10.292473 12.798566 10.439453 12.791016 C 10.486123 12.830196 10.50645 12.899263 10.5 12.958984 C 10.4948 13.004084 10.452717 13.043133 10.429688 13.107422 C 10.409638 13.163752 10.404626 13.229926 10.384766 13.275391 C 10.358456 13.334881 10.300383 13.381527 10.279297 13.4375 C 10.265477 13.47392 10.275112 13.517915 10.263672 13.550781 C 10.243302 13.608941 10.163089 13.649145 10.199219 13.708984 C 10.388653 13.784194 10.617892 13.690063 10.783203 13.720703 C 10.853003 13.733353 10.999346 13.814512 10.998047 13.921875 C 10.997187 14.002175 10.934481 14.054657 10.925781 14.142578 C 10.915031 14.2531 10.868201 14.389034 10.863281 14.478516 C 10.855081 14.625064 11.078153 14.87701 11.234375 14.875 C 11.402563 14.873 11.500489 14.707295 11.703125 14.794922 C 11.770375 14.823902 11.841765 14.935074 11.916016 14.929688 C 11.977226 14.925588 12.068457 14.816273 12.109375 14.742188 C 12.159215 14.651888 12.161985 14.576787 12.25 14.53125 C 12.34497 14.48218 12.423404 14.504184 12.544922 14.458984 C 12.599172 14.438884 12.64642 14.404864 12.695312 14.371094 C 12.738193 14.341704 12.782461 14.264905 12.835938 14.318359 C 12.906557 14.388749 12.748724 14.428524 12.808594 14.503906 C 12.931318 14.568796 12.995116 14.383686 13.083984 14.380859 C 13.112334 14.379981 13.209318 14.43549 13.259766 14.46875 C 13.328746 14.51395 13.354189 14.577064 13.429688 14.591797 C 13.478198 14.600897 13.554863 14.574684 13.623047 14.583984 C 13.713317 14.596844 13.76753 14.673915 13.835938 14.671875 C 13.919258 14.669875 13.959905 14.577679 14.03125 14.564453 C 14.187411 14.535883 14.245697 14.582317 14.314453 14.679688 C 14.391523 14.693048 14.392342 14.590833 14.462891 14.626953 C 14.424191 14.703883 14.478756 14.738525 14.509766 14.802734 C 14.529826 14.843954 14.524249 14.872765 14.542969 14.890625 C 14.585129 14.930825 14.66859 14.933576 14.730469 14.972656 C 14.795769 15.013676 14.831346 15.087917 14.90625 15.173828 C 14.98332 15.261668 15.113876 15.35491 15.216797 15.361328 C 15.314027 15.367428 15.39032 15.331907 15.470703 15.341797 C 15.653721 15.364247 15.768438 15.456309 15.896484 15.554688 C 15.968014 15.609587 16.033673 15.649085 16.056641 15.714844 C 16.072811 15.760754 16.065544 15.821562 16.083984 15.873047 C 16.123084 15.983048 16.282711 16.036467 16.224609 16.226562 C 16.251209 16.282373 16.308917 16.302776 16.373047 16.341797 C 16.424327 16.373007 16.469842 16.438324 16.525391 16.447266 C 16.561321 16.453366 16.601696 16.43571 16.632812 16.4375 C 18.826417 13.40098 18.993797 9.2153453 18.970703 7.6308594 C 18.966103 7.2769981 18.694091 6.9834969 18.34375 6.9511719 C 16.802996 6.8062466 15.422042 6.2990823 14.337891 5.7695312 z M 6.609375 6.8085938 C 6.298452 6.8683717 5.9801149 6.920525 5.6542969 6.9511719 C 5.3039409 6.9834969 5.0354169 7.2769972 5.0292969 7.6308594 C 4.9941169 9.9401967 5.3632908 17.778727 11.824219 19.523438 C 11.938964 19.554208 12.059083 19.554208 12.173828 19.523438 C 12.465446 19.444758 12.730728 19.340739 12.998047 19.238281 C 12.928677 19.180191 12.853149 19.124843 12.800781 19.095703 C 12.738861 19.061413 12.665093 19.050728 12.597656 19.017578 C 12.453583 18.946958 12.172615 18.796794 12.109375 18.654297 C 12.091055 18.613277 12.095822 18.559467 12.076172 18.513672 C 12.037802 18.423162 11.955835 18.343148 11.898438 18.255859 C 11.789164 18.089302 11.701997 17.880969 11.589844 17.708984 C 11.533134 17.621644 11.482088 17.522691 11.419922 17.453125 C 11.383492 17.412115 11.266917 17.372277 11.251953 17.310547 C 11.232003 17.228817 11.172011 17.117202 11.181641 17.054688 C 11.194441 16.970408 11.357677 16.905036 11.357422 16.828125 C 11.357135 16.762825 11.270285 16.723438 11.251953 16.667969 C 11.207333 16.533022 11.278721 16.454185 11.332031 16.341797 C 11.349641 16.304857 11.366436 16.244027 11.384766 16.216797 C 11.417206 16.168227 11.482196 16.154153 11.525391 16.101562 C 11.549551 16.072073 11.566136 16.012404 11.597656 15.970703 C 11.664896 15.881523 11.773116 15.84807 11.800781 15.767578 C 11.823291 15.701978 11.837007 15.373386 11.810547 15.263672 C 11.795187 15.200102 11.735511 15.146084 11.712891 15.085938 C 11.672881 14.979368 11.664622 14.862939 11.554688 14.865234 C 11.486828 14.866334 11.438131 14.942892 11.394531 14.990234 C 11.384141 15.053194 11.387996 15.121403 11.322266 15.140625 C 11.221656 15.170325 11.183748 15.035517 11.066406 15 C 11.019736 14.98582 10.945227 14.985716 10.916016 14.972656 C 10.830346 14.934296 10.805125 14.810327 10.714844 14.761719 C 10.639314 14.721429 10.573102 14.733815 10.527344 14.671875 C 10.508304 14.629225 10.522668 14.551268 10.517578 14.494141 C 10.420648 14.437511 10.337518 14.225623 10.224609 14.175781 C 10.149799 14.142511 10.036987 14.146974 9.9433594 14.115234 C 9.8993394 14.100344 9.8643604 14.082156 9.8183594 14.072266 C 9.7616594 14.059616 9.7040743 14.057196 9.6601562 14.035156 C 9.4849892 13.948436 9.3907541 13.667818 9.1738281 13.673828 C 9.0813081 13.675828 8.9920461 13.764182 8.9082031 13.763672 C 8.8248631 13.763171 8.6846161 13.696847 8.5800781 13.648438 C 8.4714891 13.598007 8.3512817 13.569143 8.2617188 13.523438 C 8.1893687 13.486497 8.1374488 13.418652 8.0742188 13.390625 C 8.0258088 13.369195 7.9576887 13.366436 7.9179688 13.347656 C 7.8614787 13.320916 7.8008008 13.263689 7.7304688 13.214844 C 7.6637387 13.168724 7.5924637 13.098812 7.5898438 13.039062 C 7.5866437 12.969893 7.6549394 12.910233 7.6621094 12.84375 C 7.6849294 12.633453 7.5273675 12.481667 7.4296875 12.357422 C 7.3573375 12.265082 7.2737549 12.187013 7.2011719 12.101562 C 7.2052719 12.044823 7.2052719 12.035137 7.2011719 11.978516 C 7.1462019 11.925256 7.0971445 11.845405 7.0390625 11.765625 C 6.9865625 11.693695 6.888204 11.615852 6.875 11.535156 C 6.85873 11.435876 6.91277 11.352187 6.875 11.255859 C 6.81205 11.096006 6.5866294 11.165582 6.6152344 11.376953 C 6.6234344 11.435203 6.7056178 11.514506 6.7304688 11.572266 C 6.7559487 11.631146 6.7516506 11.704468 6.7753906 11.775391 C 6.7982106 11.843341 6.866894 11.901962 6.890625 11.978516 C 6.928175 12.099424 6.9283906 12.229113 6.9628906 12.304688 C 6.9932906 12.371828 7.1018585 12.436299 7.0390625 12.517578 C 6.9553425 12.534918 6.927063 12.450964 6.875 12.402344 C 6.84594 12.375314 6.7386622 12.324624 6.7226562 12.261719 C 6.7092563 12.209779 6.7556844 12.139748 6.7402344 12.076172 C 6.7098344 11.951552 6.4579222 11.946604 6.4570312 11.818359 C 6.4565712 11.737859 6.561545 11.728235 6.5625 11.650391 C 6.563186 11.565201 6.4451089 11.492161 6.4199219 11.419922 C 6.3968919 11.353722 6.3953087 11.249415 6.3867188 11.15625 C 6.3785187 11.06881 6.3871475 10.967854 6.3671875 10.900391 C 6.3490375 10.839681 6.2577798 10.757188 6.1992188 10.724609 C 6.1217388 10.681549 6.0594144 10.699769 6.0214844 10.636719 C 5.9885244 10.581619 5.9700406 10.465633 5.9628906 10.40625 C 5.9501006 10.300055 5.9573619 10.18365 5.9511719 10.070312 C 5.9450719 9.9568024 5.9337719 9.8485425 5.9511719 9.7265625 C 5.9949719 9.6411635 6.0764607 9.6002399 6.1210938 9.515625 C 6.1522137 9.456752 6.1562862 9.3829396 6.1914062 9.3203125 C 6.2561862 9.2049658 6.3972705 9.0980792 6.4921875 8.984375 C 6.5945305 8.861886 6.690106 8.7435337 6.75 8.6035156 C 6.7715 8.5538266 6.8266294 8.4456989 6.8183594 8.3847656 C 6.8066794 8.2998756 6.6474962 8.2300094 6.6601562 8.1289062 C 6.6683563 8.0662583 6.7566271 8.0657269 6.7832031 8.0039062 C 6.7968231 7.9719703 6.8098269 7.8838119 6.8105469 7.8457031 C 6.8115129 7.7605061 6.7660031 7.6710495 6.7832031 7.5800781 C 6.7977331 7.5024321 6.9149067 7.4719356 6.8554688 7.3867188 C 6.7965187 7.3023387 6.690246 7.4316461 6.625 7.3769531 C 6.56513 7.3267531 6.6370381 7.264234 6.6425781 7.171875 C 6.6445781 7.135144 6.62111 7.0955597 6.625 7.0683594 C 6.6302 7.0288724 6.70797 6.9620549 6.6875 6.9355469 C 6.66584 6.9081439 6.637545 6.8557364 6.609375 6.8085938 z "
     id="path983" />
</svg>
