<?xml version="1.0" encoding="UTF-8" standalone="no"?>
<svg
   xmlns:dc="http://purl.org/dc/elements/1.1/"
   xmlns:cc="http://creativecommons.org/ns#"
   xmlns:rdf="http://www.w3.org/1999/02/22-rdf-syntax-ns#"
   xmlns:svg="http://www.w3.org/2000/svg"
   xmlns="http://www.w3.org/2000/svg"
   xmlns:xlink="http://www.w3.org/1999/xlink"
   xmlns:sodipodi="http://sodipodi.sourceforge.net/DTD/sodipodi-0.dtd"
   xmlns:inkscape="http://www.inkscape.org/namespaces/inkscape"
   height="48"
   width="48"
   version="1.1"
   id="svg31"
   sodipodi:docname="okular.svg"
   inkscape:version="0.92.2 2405546, 2018-03-11">
  <metadata
     id="metadata37">
    <rdf:RDF>
      <cc:Work
         rdf:about="">
        <dc:format>image/svg+xml</dc:format>
        <dc:type
           rdf:resource="http://purl.org/dc/dcmitype/StillImage" />
      </cc:Work>
    </rdf:RDF>
  </metadata>
  <defs
     id="defs35">
    <linearGradient
       id="linearGradient863">
      <stop
         id="stop859"
         offset="0"
         style="stop-color:#a5a5a5;stop-opacity:1" />
      <stop
         id="stop861"
         offset="1"
         style="stop-color:#dbdbdb;stop-opacity:1" />
    </linearGradient>
    <linearGradient
       id="linearGradient822">
      <stop
         id="stop818"
         offset="0"
         style="stop-color:#0652ff;stop-opacity:1" />
      <stop
         id="stop820"
         offset="1"
         style="stop-color:#1b99ff;stop-opacity:1" />
    </linearGradient>
    <linearGradient
       gradientTransform="matrix(2.4445151,0,0,2.4445151,-974.7584,-1256.4318)"
       gradientUnits="userSpaceOnUse"
       x2="406.56763"
       y2="514.79797"
       y1="532.612"
       id="c-3"
       x1="411.66486">
      <stop
         id="stop12"
         stop-color="#7cbaf8"
         style="stop-color:#2e89fc;stop-opacity:1" />
      <stop
         id="stop14"
         stop-color="#f4fcff"
         offset="1"
         style="stop-color:#42f2ff;stop-opacity:1" />
    </linearGradient>
    <linearGradient
       gradientTransform="matrix(0.3097139,0,0,0.3097139,393.13824,522.33096)"
       gradientUnits="userSpaceOnUse"
       y2="2.4374466"
       x2="26.10714"
       y1="45.762711"
       x1="26.10714"
       id="linearGradient824"
       xlink:href="#linearGradient822" />
    <linearGradient
       gradientUnits="userSpaceOnUse"
       y2="545.22168"
       x2="400.55444"
       y1="517.83185"
       x1="400.55444"
       id="linearGradient865"
       xlink:href="#linearGradient863" />
    <linearGradient
       gradientTransform="translate(55.750001,-1.2929688)"
       gradientUnits="userSpaceOnUse"
       y2="3.2930527"
       x2="-31.749992"
       y1="47.293053"
       x1="-31.749992"
       id="linearGradient891"
       xlink:href="#linearGradient889"
       inkscape:collect="always" />
    <linearGradient
       id="linearGradient889"
       inkscape:collect="always">
      <stop
         id="stop885"
         offset="0"
         style="stop-color:#e63a3a;stop-opacity:1" />
      <stop
         id="stop887"
         offset="1"
         style="stop-color:#fd7171;stop-opacity:1" />
    </linearGradient>
    <linearGradient
       id="e-5"
       gradientUnits="userSpaceOnUse"
       x1="15.122512"
       x2="28.881227"
       xlink:href="#a"
       y1="1024.7061"
       y2="1024.7061"
       gradientTransform="matrix(1.3082617,0,0,1.336809,-4.784133,-1345.8364)" />
    <linearGradient
       id="linearGradient983">
      <stop
         offset="0"
         stop-color="#f6fbff"
         id="stop2-6" />
      <stop
         offset="1"
         stop-color="#eaeff2"
         id="stop4-2" />
    </linearGradient>
  </defs>
  <sodipodi:namedview
     pagecolor="#ffffff"
     bordercolor="#666666"
     borderopacity="1"
     objecttolerance="10"
     gridtolerance="10"
     guidetolerance="10"
     inkscape:pageopacity="0"
     inkscape:pageshadow="2"
     inkscape:window-width="1366"
     inkscape:window-height="699"
     id="namedview33"
     showgrid="false"
     inkscape:zoom="10.145833"
     inkscape:cx="24"
     inkscape:cy="24"
     inkscape:window-x="0"
     inkscape:window-y="0"
     inkscape:window-maximized="1"
     inkscape:current-layer="svg31" />
  <linearGradient
     id="a">
    <stop
       offset="0"
       stop-color="#f6fbff"
       id="stop2" />
    <stop
       offset="1"
       stop-color="#eaeff2"
       id="stop4" />
  </linearGradient>
  <linearGradient
     id="b"
     gradientTransform="matrix(1.0309825,0,0,1,-0.512598,0)"
     gradientUnits="userSpaceOnUse"
     x1="17"
     x2="16.048658"
     y1="1036.3622"
     y2="1010.814">
    <stop
       offset="0"
       stop-color="#e53838"
       id="stop7" />
    <stop
       offset="1"
       stop-color="#f77"
       id="stop9" />
  </linearGradient>
  <linearGradient
     id="c"
     gradientTransform="matrix(0.84231232,0,0,1,5.501145,0)"
     gradientUnits="userSpaceOnUse"
     x1="33.461716"
     x2="34.116894"
     xlink:href="#a"
     y1="1013.622"
     y2="1037.2084" />
  <linearGradient
     id="d"
     gradientUnits="userSpaceOnUse"
     x1="29.136826"
     x2="29.136826"
     y1="1037.0211"
     y2="1010.814">
    <stop
       offset="0"
       stop-color="#e02d2d"
       id="stop13" />
    <stop
       offset="1"
       stop-color="#f75151"
       id="stop15" />
  </linearGradient>
  <linearGradient
     id="e"
     gradientUnits="userSpaceOnUse"
     x1="15.122512"
     x2="28.881227"
     xlink:href="#a"
     y1="1024.706102"
     y2="1024.706102"
     gradientTransform="matrix(1.3082617,0,0,1.336809,44.029426,-1344.4127)" />
  <text
     xml:space="preserve"
     style="font-style:normal;font-weight:normal;font-size:40px;line-height:1.25;font-family:sans-serif;letter-spacing:0px;word-spacing:0px;fill:#000000;fill-opacity:1;stroke:none"
     x="-31.496216"
     y="25.851976"
     id="text879"><tspan
       sodipodi:role="line"
       id="tspan877"
       x="-31.496216"
       y="61.242599" /></text>
  <path
     inkscape:connector-curvature="0"
     style="opacity:1;fill:url(#linearGradient891);fill-opacity:1;stroke:none;stroke-width:3;stroke-linecap:round;stroke-linejoin:miter;stroke-miterlimit:4;stroke-dasharray:none;stroke-opacity:1;paint-order:stroke fill markers"
     d="M 7,2 V 46 H 41 V 16.828125 L 27.585938,3.4140624 26.171875,2 Z"
     id="rect883" />
  <path
     inkscape:connector-curvature="0"
     style="opacity:1;fill:#ec3f3f;fill-opacity:1;stroke:none;stroke-width:3;stroke-linecap:round;stroke-linejoin:miter;stroke-miterlimit:4;stroke-dasharray:none;stroke-opacity:1;paint-order:stroke fill markers"
     d="M 29,2 41,14 V 2 Z"
     id="rect893" />
  <path
     inkscape:connector-curvature="0"
     style="fill:url(#e-5);stroke-width:1.75927317"
     id="path27"
     d="m 32.708746,26.090972 c -0.359804,-0.362142 -1.157777,-0.553974 -2.372057,-0.570283 -0.821966,-0.01337 -1.811289,0.06416 -2.851887,0.213488 -0.46595,-0.274714 -0.94613,-0.573624 -1.323154,-0.933627 -1.014069,-0.967582 -1.86054,-2.310674 -2.388001,-3.787581 0.03437,-0.137959 0.06362,-0.259207 0.09086,-0.382862 0,0 0.571195,-3.315287 0.419993,-4.436067 -0.0208,-0.153734 -0.0336,-0.198383 -0.07406,-0.317893 L 24.16083,15.746476 C 24.005486,15.380324 23.700855,14.992382 23.223254,15.013504 L 22.943173,15.000134 22.935373,15 c -0.532574,0 -0.966641,0.278324 -1.080586,0.694339 -0.346344,1.304725 0.01103,3.256734 0.658667,5.784907 l -0.16578,0.411871 c -0.463731,1.155003 -1.044848,2.318428 -1.557578,3.344696 l -0.06667,0.133681 c -0.539408,1.078672 -1.028852,1.994386 -1.472537,2.770002 l -0.458111,0.247577 c -0.03336,0.01738 -0.818477,0.442216 -1.002632,0.556113 -1.562237,0.953144 -2.597469,2.035158 -2.769221,2.893791 -0.05467,0.273912 -0.01397,0.624556 0.263983,0.786979 l 0.443078,0.227792 C 15.92019,32.950668 16.122872,33 16.330515,33 c 1.112681,0 2.404454,-1.416349 4.183952,-4.589667 2.054568,-0.68351 4.393767,-1.25152 6.443881,-1.564868 1.562341,0.898871 3.483874,1.52316 4.696681,1.52316 0.215339,0 0.400962,-0.02139 0.551811,-0.0615 0.232603,-0.06283 0.428649,-0.198516 0.548169,-0.382327 0.235278,-0.361874 0.283012,-0.860237 0.219128,-1.37063 -0.01904,-0.151327 -0.137434,-0.338614 -0.2655,-0.466412 z m -16.619325,6.049862 c 0.202885,-0.56694 1.006072,-1.687587 2.193619,-2.682039 0.07467,-0.0615 0.258567,-0.237952 0.42698,-0.401444 -1.241861,2.023929 -2.073498,2.830559 -2.620599,3.083483 z M 23.12318,15.589935 c 0.357681,0 0.561124,0.921329 0.57803,1.784908 0.01686,0.863713 -0.180814,1.469822 -0.426019,1.918321 -0.203087,-0.663993 -0.30124,-1.71058 -0.30124,-2.395027 0,0 -0.01493,-1.308202 0.149229,-1.308202 z m -2.098203,11.794533 c 0.249153,-0.455718 0.508379,-0.936301 0.773273,-1.446026 0.645709,-1.247777 1.053504,-2.224049 1.357225,-3.02667 0.60405,1.123054 1.356315,2.077669 2.24065,2.842591 0.110306,0.09491 0.227178,0.191298 0.349929,0.286879 -1.798325,0.363612 -3.352615,0.805829 -4.721077,1.343226 z m 11.338237,-0.102934 c -0.109541,0.06951 -0.423282,0.110955 -0.625105,0.110955 -0.651327,0 -1.457203,-0.304258 -2.586944,-0.799144 0.434068,-0.03342 0.832098,-0.04946 1.18902,-0.04946 0.653298,0 0.846824,0 1.485645,0.163492 0.638828,0.166566 0.646876,0.504779 0.537384,0.574694 z" />
</svg>
