<?xml version="1.0" encoding="UTF-8" standalone="no"?>
<!-- Created with Inkscape (http://www.inkscape.org/) -->

<svg
   xmlns:dc="http://purl.org/dc/elements/1.1/"
   xmlns:cc="http://creativecommons.org/ns#"
   xmlns:rdf="http://www.w3.org/1999/02/22-rdf-syntax-ns#"
   xmlns:svg="http://www.w3.org/2000/svg"
   xmlns="http://www.w3.org/2000/svg"
   xmlns:xlink="http://www.w3.org/1999/xlink"
   xmlns:sodipodi="http://sodipodi.sourceforge.net/DTD/sodipodi-0.dtd"
   xmlns:inkscape="http://www.inkscape.org/namespaces/inkscape"
   width="48"
   height="48"
   viewBox="0 0 12.7 12.7"
   version="1.1"
   id="svg8"
   inkscape:version="0.92.2 2405546, 2018-03-11"
   sodipodi:docname="applications-education.svg">
  <defs
     id="defs2">
    <linearGradient
       id="linearGradient936">
      <stop
         style="stop-color:#8c8c8c;stop-opacity:1"
         offset="0"
         id="stop932" />
      <stop
         style="stop-color:#bcbcbc;stop-opacity:1"
         offset="1"
         id="stop934" />
    </linearGradient>
    <linearGradient
       gradientUnits="userSpaceOnUse"
       y2="-55.66119"
       x2="-26.63039"
       y1="-100.24435"
       x1="-26.63039"
       id="linearGradient4575"
       xlink:href="#linearGradient4573"
       inkscape:collect="always"
       gradientTransform="matrix(0.26458333,0,0,0.26458333,13.493749,-270.27705)" />
    <linearGradient
       id="linearGradient4573"
       inkscape:collect="always">
      <stop
         id="stop4569"
         offset="0"
         style="stop-color:#53e418;stop-opacity:1;" />
      <stop
         id="stop4571"
         offset="1"
         style="stop-color:#80ed54;stop-opacity:1" />
    </linearGradient>
    <linearGradient
       xlink:href="#linearGradient866"
       id="linearGradient892-5-5"
       x1="16.142756"
       y1="25.485395"
       x2="16.142746"
       y2="7.8633742"
       gradientUnits="userSpaceOnUse"
       gradientTransform="matrix(0.28339682,0,0,0.27379123,1.7751959,286.31812)" />
    <linearGradient
       id="linearGradient866">
      <stop
         offset="0"
         stop-color="#e3e3e3"
         id="stop12-3" />
      <stop
         offset="1"
         stop-color="#fffcff"
         id="stop14-5" />
    </linearGradient>
  </defs>
  <sodipodi:namedview
     id="base"
     pagecolor="#ffffff"
     bordercolor="#666666"
     borderopacity="1.0"
     inkscape:pageopacity="0.0"
     inkscape:pageshadow="2"
     inkscape:zoom="10.145833"
     inkscape:cx="24"
     inkscape:cy="24"
     inkscape:document-units="px"
     inkscape:current-layer="layer1"
     showgrid="false"
     units="px"
     inkscape:showpageshadow="false"
     inkscape:window-width="1366"
     inkscape:window-height="699"
     inkscape:window-x="0"
     inkscape:window-y="0"
     inkscape:window-maximized="1" />
  <metadata
     id="metadata5">
    <rdf:RDF>
      <cc:Work
         rdf:about="">
        <dc:format>image/svg+xml</dc:format>
        <dc:type
           rdf:resource="http://purl.org/dc/dcmitype/StillImage" />
        <dc:title></dc:title>
      </cc:Work>
    </rdf:RDF>
  </metadata>
  <g
     inkscape:label="Layer 1"
     inkscape:groupmode="layer"
     id="layer1"
     transform="translate(0,-284.29998)">
    <circle
       id="circle882-9"
       cx="6.3499999"
       cy="-290.64999"
       r="6.0854168"
       style="fill:url(#linearGradient4575);fill-opacity:1;stroke-width:0.26458332"
       transform="scale(1,-1)" />
    <path
       inkscape:connector-curvature="0"
       id="path4140-1"
       d="m 9.1642069,288.15977 c -0.3470886,-0.10895 -0.7285683,-0.15564 -1.0944135,-0.15564 -0.6097474,0 -1.2663922,0.12451 -1.7197949,0.46692 -0.4533997,-0.34241 -1.110045,-0.46692 -1.7197898,-0.46692 -0.6097473,0 -1.2663924,0.12451 -1.7197922,0.46692 v 4.56017 c 0,0.0778 0.078172,0.15564 0.156345,0.15564 0.031269,0 0.046903,-0.0156 0.078175,-0.0156 0.4221281,-0.20233 1.0318697,-0.3424 1.4852721,-0.3424 0.6097448,0 1.2663901,0.12451 1.7197925,0.46691 0.4221281,-0.26458 1.1882202,-0.46691 1.7197922,-0.46691 0.5159351,0 1.0475071,0.0934 1.4852727,0.32684 0.031269,0.0156 0.046903,0.0156 0.078172,0.0156 0.078172,0 0.1563449,-0.0778 0.1563449,-0.15564 v -4.54461 c -0.1876136,-0.14008 -0.3908586,-0.23346 -0.625376,-0.31128 m 0,4.20221 c -0.3439642,-0.10894 -0.7191888,-0.15563 -1.0944135,-0.15563 -0.531572,0 -1.2976641,0.20232 -1.7197922,0.46691 v -3.57966 c 0.4221281,-0.26459 1.1882202,-0.46692 1.7197922,-0.46692 0.3752247,0 0.7504493,0.0467 1.0944135,0.15564 z"
       style="fill:url(#linearGradient892-5-5);fill-opacity:1;stroke-width:0.40746155" />
  </g>
</svg>
