<?xml version="1.0" encoding="UTF-8" standalone="no"?>
<svg
   xmlns:dc="http://purl.org/dc/elements/1.1/"
   xmlns:cc="http://creativecommons.org/ns#"
   xmlns:rdf="http://www.w3.org/1999/02/22-rdf-syntax-ns#"
   xmlns:svg="http://www.w3.org/2000/svg"
   xmlns="http://www.w3.org/2000/svg"
   xmlns:xlink="http://www.w3.org/1999/xlink"
   id="svg12"
   version="1"
   width="48"
   height="48">
  <metadata
     id="metadata18">
    <rdf:RDF>
      <cc:Work
         rdf:about="">
        <dc:format>image/svg+xml</dc:format>
        <dc:type
           rdf:resource="http://purl.org/dc/dcmitype/StillImage" />
        <dc:title></dc:title>
      </cc:Work>
    </rdf:RDF>
  </metadata>
  <defs
     id="defs16">
    <linearGradient
       y2="1007.7176"
       y1="1046.2201"
       x2="36.073566"
       x1="3.3645329"
       gradientUnits="userSpaceOnUse"
       id="linearGradient1025">
      <stop
         id="stop1021"
         stop-color="#235ea2"
         offset="0"
         style="stop-color:#1768c6;stop-opacity:1" />
      <stop
         id="stop1023"
         stop-color="#1992f1"
         offset="1"
         style="stop-color:#349ff3;stop-opacity:1" />
    </linearGradient>
    <linearGradient
       id="linearGradient832">
      <stop
         id="stop828"
         offset="0"
         style="stop-color:#81ce29;stop-opacity:1" />
      <stop
         id="stop830"
         offset="1"
         style="stop-color:#99db4d;stop-opacity:1" />
    </linearGradient>
    <linearGradient
       gradientUnits="userSpaceOnUse"
       y2="-24"
       x2="-4"
       y1="-24"
       x1="-44"
       id="linearGradient834"
       xlink:href="#linearGradient832"
       gradientTransform="matrix(1.0731707,0,0,1.1,2.2926821,2.3999992)" />
    <linearGradient
       id="a"
       gradientUnits="userSpaceOnUse"
       x1="3.3645329"
       x2="36.073566"
       y1="1046.2201"
       y2="1007.7176">
      <stop
         offset="0"
         stop-color="#235ea2"
         id="stop8" />
      <stop
         offset="1"
         stop-color="#1992f1"
         id="stop10" />
    </linearGradient>
    <linearGradient
       id="b"
       gradientUnits="userSpaceOnUse"
       x1="400.57144"
       x2="400.79395"
       y1="545.79791"
       y2="517.62671">
      <stop
         offset="0"
         stop-color="#197ff1"
         id="stop13" />
      <stop
         offset="1"
         stop-color="#21c6fb"
         id="stop15" />
    </linearGradient>
    <linearGradient
       xlink:href="#b-7"
       id="linearGradient1019"
       x1="-44.92683"
       y1="-24"
       x2="-2.0000038"
       y2="-24"
       gradientUnits="userSpaceOnUse" />
    <linearGradient
       y2="517.62671"
       y1="545.79791"
       x2="400.79395"
       x1="400.57144"
       gradientUnits="userSpaceOnUse"
       id="b-7">
      <stop
         id="stop13-5"
         stop-color="#69159f"
         offset="0" />
      <stop
         id="stop15-3"
         stop-color="#b92ff5"
         offset="1" />
    </linearGradient>
  </defs>
  <rect
     id="rect2"
     transform="matrix(0,-1,-1,0,0,0)"
     style="opacity:0.2;stroke-width:1.07317078"
     width="42.926826"
     height="44"
     x="-46"
     y="-46"
     rx="2.1463413"
     ry="2.1463413" />
  <rect
     id="rect4"
     ry="2.1463413"
     rx="2.1463413"
     y="-46"
     x="-44.92683"
     height="44"
     width="42.926826"
     style="fill:url(#linearGradient1019);fill-opacity:1.0;stroke-width:1.07317078"
     transform="matrix(0,-1,-1,0,0,0)" />
  <path
     id="path10"
     d="m 4.2000008,2.0000007 c -1.2188,0 -2.2,0.9572683 -2.2,2.1463414 v 1.0731707 c 0,-1.1890731 0.9812,-2.1463414 2.2,-2.1463414 H 43.800001 c 1.2188,0 2.2,0.9572683 2.2,2.1463414 V 4.1463421 c 0,-1.1890731 -0.9812,-2.1463414 -2.2,-2.1463414 z"
     style="opacity:0.2;fill:#ffffff;stroke-width:1.07317078" />
  <path
     style="fill:#ffffff;fill-opacity:0.851852;stroke-width:1.06770813"
     d="m 29.091286,11.961986 c -4.094325,-0.09475 -8.107025,1.015618 -11.607421,3.251953 -4.642475,2.970559 -7.8537809,7.592012 -9.0429696,13.021485 -1.66804,7.595631 1.096104,13.249107 6.2656256,16.691406 h 2.208984 c -4.434147,-3.626566 -6.372023,-9.452901 -4.953126,-15.923828 0.986021,-4.48489 3.630537,-8.302721 7.462892,-10.751954 3.851779,-2.461613 8.468001,-3.270138 12.99414,-2.269531 l 0.777344,-3.519531 c -1.367379,-0.302289 -2.740694,-0.468415 -4.105469,-0.5 z m -0.953125,4.939453 c -4.290511,0.196628 -8.192415,1.998347 -10.984375,5.072266 -5.863832,6.458409 -5.610624,15.981144 0.59961,22.640625 0.08181,0.111602 0.175941,0.206403 0.261719,0.3125 h 5.433593 c -0.991177,-0.748305 -2.012262,-1.651625 -3.05664,-2.769531 -4.903465,-5.253231 -5.143031,-12.723397 -0.566407,-17.759766 2.143963,-2.355537 5.152705,-3.741574 8.476563,-3.890625 3.409212,-0.157989 6.643991,1.001722 9.11328,3.259766 l 2.433594,-2.66211 C 36.6679,18.194377 32.507557,16.700008 28.138161,16.901439 Z m 1.042969,5.125 c -1.094681,0.01337 -2.194309,0.187309 -3.267578,0.525391 -3.962595,1.253053 -6.745068,4.511893 -7.583984,8.306641 -0.388994,1.759571 -0.342178,3.632062 0.179687,5.470703 l -0.01172,0.0078 c -0.0012,0.0052 0.0175,0.06622 0.02344,0.08984 l -0.0039,-0.002 c 0,0 0.01334,0.03641 0.02344,0.06641 0.01178,0.04711 0.04468,0.155638 0.04883,0.162109 0.34146,1.07054 1.759271,4.735052 6.042969,7.460938 0.475942,0.303415 0.901745,0.55808 1.326172,0.8125 h 9.326175 c -2.456852,-0.614951 -5.355598,-1.710893 -8.718749,-3.853457 -3.372297,-2.146381 -4.36361,-4.922689 -4.533203,-5.488281 -0.169592,-0.565592 -0.007,-0.01823 -0.0059,-0.02344 -0.414154,-1.320081 -0.456592,-2.668302 -0.177734,-3.929687 0.569432,-2.575762 2.459619,-4.788505 5.15039,-5.644531 1.941581,-0.610293 4.01009,-0.4316 5.820313,0.507812 1.804917,0.938228 3.136363,2.527952 3.751952,4.470703 l 3.472656,-0.966797 -0.03516,-0.117187 c -0.901537,-2.862046 -2.865899,-5.199028 -5.52734,-6.587889 -1.664132,-0.864728 -3.476311,-1.289858 -5.30078,-1.267578 z"
     id="path26" />
</svg>
