<?xml version="1.0" encoding="UTF-8" standalone="no"?>
<svg
   xmlns:dc="http://purl.org/dc/elements/1.1/"
   xmlns:cc="http://creativecommons.org/ns#"
   xmlns:rdf="http://www.w3.org/1999/02/22-rdf-syntax-ns#"
   xmlns:svg="http://www.w3.org/2000/svg"
   xmlns="http://www.w3.org/2000/svg"
   xmlns:xlink="http://www.w3.org/1999/xlink"
   height="48"
   width="48"
   version="1.1"
   id="svg25">
  <metadata
     id="metadata31">
    <rdf:RDF>
      <cc:Work
         rdf:about="">
        <dc:format>image/svg+xml</dc:format>
        <dc:type
           rdf:resource="http://purl.org/dc/dcmitype/StillImage" />
        <dc:title></dc:title>
      </cc:Work>
    </rdf:RDF>
  </metadata>
  <defs
     id="defs29">
    <linearGradient
       id="linearGradient848">
      <stop
         style="stop-color:#f77901;stop-opacity:1;"
         offset="0"
         id="stop844" />
      <stop
         style="stop-color:#fead27;stop-opacity:1"
         offset="1"
         id="stop846" />
    </linearGradient>
    <linearGradient
       xlink:href="#linearGradient848"
       id="linearGradient850"
       x1="1.0169487"
       y1="22.966103"
       x2="46"
       y2="22.966103"
       gradientUnits="userSpaceOnUse"
       gradientTransform="translate(-46.983051,1.0508461)" />
  </defs>
  <linearGradient
     id="a">
    <stop
       offset="0"
       stop-color="#333538"
       id="stop2" />
    <stop
       offset="1"
       stop-color="#566069"
       id="stop4" />
  </linearGradient>
  <linearGradient
     id="b"
     gradientUnits="userSpaceOnUse"
     x1="400.95444"
     x2="400.95444"
     xlink:href="#a"
     y1="545.22272"
     y2="517.22266" />
  <linearGradient
     gradientUnits="userSpaceOnUse"
     x1="2.819"
     x2="11.758417"
     xlink:href="#a"
     y1="1044.2982"
     y2="1044.2982"
     id="linearGradient8" />
  <linearGradient
     id="c"
     gradientTransform="matrix(1.250539,0,0,1.4160516,-361.48897,-715.00388)"
     gradientUnits="userSpaceOnUse"
     x1="343.50577"
     x2="343.10593"
     y1="544.4939"
     y2="512.45056">
    <stop
       offset="0"
       stop-color="#e77301"
       id="stop10" />
    <stop
       offset="1"
       stop-color="#fc7b01"
       id="stop12" />
  </linearGradient>
  <circle
     style="opacity:1;fill:url(#linearGradient850);fill-opacity:1;stroke:none;stroke-width:1.625;stroke-miterlimit:4;stroke-dasharray:none;stroke-opacity:1"
     id="path842"
     cx="-22.966103"
     cy="24.016949"
     r="23"
     transform="rotate(-90)" />
  <path
     style="fill:#ffffff;fill-opacity:0.85;stroke-width:1.56997025"
     id="path21"
     d="m 23.476924,9.9576156 c -0.567297,-0.0051 -1.271254,0 -2.165037,0.00846 -3.32567,0.029287 -3.32567,0.029287 -4.096875,0.2375414 -1.576063,0.424117 -3.236709,1.520736 -4.258501,2.720398 -1.126983,1.322241 -1.957859,2.82237 -1.957859,4.627287 v 9.266512 c 0.177888,6.999487 4.258483,8.999663 7.592821,9.173209 h 10.846899 c 4.147862,-0.335171 7.486525,-4.19883 7.592821,-6.983223 v -3.880975 c 0.01362,-3.216103 0.01362,-4.325733 -0.351433,-4.758533 -0.381813,-0.453388 -0.669252,-0.664909 -1.822271,-0.664909 -1.122657,0 -1.525077,0.05091 -1.89388,-0.228874 C 32.497193,19.123076 32.378958,18.813944 32.303042,17.809522 32.04922,14.215946 29.815844,11.33934 26.481507,10.292617 25.663657,10.034469 25.172294,9.9531032 23.469329,9.9411825 m -4.224868,6.5298195 h 4.774796 c 0.957796,0 1.737687,0.771223 1.737687,1.737686 0,0.962105 -0.775566,1.516392 -1.737687,1.516392 h -4.774796 c -0.962121,0 -1.73767,-0.55536 -1.73767,-1.516392 0,-0.962121 0.771207,-1.737686 1.73767,-1.737686 m 0,9.762217 h 9.546355 c 0.962122,0 1.73767,0.559702 1.73767,1.516392 0,0.962121 -0.771206,1.73767 -1.73767,1.73767 h -9.546355 c -0.962121,0 -1.73767,-0.771207 -1.73767,-1.73767 0,-0.957779 0.771207,-1.516392 1.73767,-1.516392 m 0,0" />
</svg>
