<?xml version="1.0" encoding="UTF-8" standalone="no"?>
<svg
   xmlns:dc="http://purl.org/dc/elements/1.1/"
   xmlns:cc="http://creativecommons.org/ns#"
   xmlns:rdf="http://www.w3.org/1999/02/22-rdf-syntax-ns#"
   xmlns:svg="http://www.w3.org/2000/svg"
   xmlns="http://www.w3.org/2000/svg"
   xmlns:xlink="http://www.w3.org/1999/xlink"
   id="svg24"
   version="1.1"
   width="48"
   height="48">
  <metadata
     id="metadata30">
    <rdf:RDF>
      <cc:Work
         rdf:about="">
        <dc:format>image/svg+xml</dc:format>
        <dc:type
           rdf:resource="http://purl.org/dc/dcmitype/StillImage" />
        <dc:title></dc:title>
      </cc:Work>
    </rdf:RDF>
  </metadata>
  <defs
     id="defs28">
    <linearGradient
       gradientTransform="rotate(-90,24,24)"
       gradientUnits="userSpaceOnUse"
       y2="24"
       x2="47.478516"
       y1="24"
       x1="0.52148438"
       id="linearGradient861"
       xlink:href="#a" />
  </defs>
  <linearGradient
     id="a">
    <stop
       id="stop2"
       stop-color="#197cf1"
       offset="0" />
    <stop
       id="stop4"
       stop-color="#20bcfa"
       offset="1" />
  </linearGradient>
  <linearGradient
     gradientTransform="matrix(0.95833333,0,0,0.95833333,-367.54842,-477.97388)"
     y2="508.094220282419"
     y1="529.713948610458"
     xlink:href="#a"
     x2="411.36190136009"
     x1="412.177806483712"
     gradientUnits="userSpaceOnUse"
     id="b" />
  <linearGradient
     gradientTransform="matrix(0.86956523,0,0,0.86956523,-331.27952,-431.47653)"
     y2="500.798051636636"
     y1="546.798098036636"
     x2="408.571346661144"
     x1="408.571346661144"
     gradientUnits="userSpaceOnUse"
     id="c">
    <stop
       id="stop8"
       stop-color="#b3b3b3"
       offset="0" />
    <stop
       id="stop10"
       stop-color="#fff"
       offset="1" />
  </linearGradient>
  <linearGradient
     gradientTransform="matrix(0.95833333,0,0,0.95833333,-367.54842,-477.97388)"
     y2="523.797966"
     y1="523.797966"
     xlink:href="#a"
     x2="432.571428"
     x1="384.571428"
     gradientUnits="userSpaceOnUse"
     id="d" />
  <path
     id="path852"
     d="M 0.52148438,24 C 0.52148437,36.983351 11.016658,47.478516 24,47.478516 36.983342,47.478516 47.478516,36.983351 47.478516,24 47.478516,11.016658 36.983342,0.52148438 24,0.52148438 11.016658,0.52148438 0.52148438,11.016658 0.52148438,24 Z"
     style="color:#000000;font-style:normal;font-variant:normal;font-weight:normal;font-stretch:normal;font-size:medium;line-height:normal;font-family:sans-serif;font-variant-ligatures:normal;font-variant-position:normal;font-variant-caps:normal;font-variant-numeric:normal;font-variant-alternates:normal;font-feature-settings:normal;text-indent:0;text-align:start;text-decoration:none;text-decoration-line:none;text-decoration-style:solid;text-decoration-color:#000000;letter-spacing:normal;word-spacing:normal;text-transform:none;writing-mode:lr-tb;direction:ltr;text-orientation:mixed;dominant-baseline:auto;baseline-shift:baseline;text-anchor:start;white-space:normal;shape-padding:0;clip-rule:nonzero;display:inline;overflow:visible;visibility:visible;opacity:1;isolation:auto;mix-blend-mode:normal;color-interpolation:sRGB;color-interpolation-filters:linearRGB;solid-color:#000000;solid-opacity:1;vector-effect:none;fill:url(#linearGradient861);fill-opacity:1;fill-rule:nonzero;stroke:none;stroke-width:0.95833331;stroke-linecap:butt;stroke-linejoin:miter;stroke-miterlimit:4;stroke-dasharray:none;stroke-dashoffset:0;stroke-opacity:1;color-rendering:auto;image-rendering:auto;shape-rendering:auto;text-rendering:auto;enable-background:accumulate" />
  <rect
     rx="22.041666"
     height="40"
     ry="22.041666"
     width="40"
     x="4"
     y="4"
     id="rect14"
     style="fill:url(#c);stroke-width:0.95833337" />
  <path
     id="path879"
     d="m 21.547845,24.918662 c 0,0 -0.25,-0.433013 -0.25,-0.433013 -2.926622,1.689687 -11.4564886,7.191758 -14.3831108,8.881444 2.9266222,-1.689686 11.9564888,-6.325732 14.8831108,-8.015418 0,0 -0.25,-0.433013 -0.25,-0.433013 z"
     style="fill:#222222;fill-opacity:1;fill-rule:nonzero;stroke:#212121;stroke-width:0.1;stroke-linecap:butt;stroke-linejoin:miter;stroke-miterlimit:4;stroke-dasharray:none;stroke-opacity:1" />
  <path
     d="M 26.365228,24.020333 C 26.304374,23.51556 26.112564,23.055215 25.817713,22.670808 L 27.84202,10.107786 C 27.917441,9.6403496 27.617502,9.1946862 27.156256,9.0881387 l -0.02271,-0.00479 C 26.672307,8.9766654 26.207487,9.2460146 26.070234,9.6991241 L 22.382481,21.877883 c -0.908807,0.456972 -1.539677,1.388481 -1.539677,2.473372 0,1.531838 1.24566,2.778247 2.777422,2.778247 0.28544,0 0.555364,-0.05577 0.814641,-0.135998 l 7.704147,4.003639 c 0.423871,0.220196 0.945616,0.0827 1.205727,-0.317956 l 0.01102,-0.01763 c 0.260187,-0.400497 0.173688,-0.933167 -0.200138,-1.23073 z m -4.116799,0.330587 c 0,-0.756365 0.615624,-1.37197 1.37196,-1.37197 0.757026,0 1.37263,0.615605 1.37263,1.37197 0,0.75691 -0.615604,1.37262 -1.37263,1.37262 -0.756336,0 -1.37196,-0.615623 -1.37196,-1.37262 z"
     id="path18"
     style="fill:url(#b);stroke-width:0.95833331" />
</svg>
