<?xml version="1.0" encoding="UTF-8" standalone="no"?>
<svg
   xmlns:dc="http://purl.org/dc/elements/1.1/"
   xmlns:cc="http://creativecommons.org/ns#"
   xmlns:rdf="http://www.w3.org/1999/02/22-rdf-syntax-ns#"
   xmlns:svg="http://www.w3.org/2000/svg"
   xmlns="http://www.w3.org/2000/svg"
   xmlns:xlink="http://www.w3.org/1999/xlink"
   xmlns:sodipodi="http://sodipodi.sourceforge.net/DTD/sodipodi-0.dtd"
   xmlns:inkscape="http://www.inkscape.org/namespaces/inkscape"
   height="48"
   width="48"
   version="1.1"
   id="svg18"
   sodipodi:docname="bluetooth.svg"
   inkscape:version="0.92.2 2405546, 2018-03-11">
  <metadata
     id="metadata24">
    <rdf:RDF>
      <cc:Work
         rdf:about="">
        <dc:format>image/svg+xml</dc:format>
        <dc:type
           rdf:resource="http://purl.org/dc/dcmitype/StillImage" />
        <dc:title></dc:title>
      </cc:Work>
    </rdf:RDF>
  </metadata>
  <defs
     id="defs22">
    <linearGradient
       inkscape:collect="always"
       id="linearGradient849">
      <stop
         style="stop-color:#05a0de;stop-opacity:1"
         offset="0"
         id="stop845" />
      <stop
         style="stop-color:#2dc0fa;stop-opacity:1"
         offset="1"
         id="stop847" />
    </linearGradient>
    <linearGradient
       inkscape:collect="always"
       xlink:href="#linearGradient849"
       id="linearGradient851"
       x1="24.000002"
       y1="46.000008"
       x2="24.000002"
       y2="2.1595092"
       gradientUnits="userSpaceOnUse" />
  </defs>
  <sodipodi:namedview
     pagecolor="#ffffff"
     bordercolor="#666666"
     borderopacity="1"
     objecttolerance="10"
     gridtolerance="10"
     guidetolerance="10"
     inkscape:pageopacity="0"
     inkscape:pageshadow="2"
     inkscape:window-width="1366"
     inkscape:window-height="701"
     id="namedview20"
     showgrid="false"
     inkscape:zoom="10.1875"
     inkscape:cx="4.7607362"
     inkscape:cy="24"
     inkscape:window-x="0"
     inkscape:window-y="0"
     inkscape:window-maximized="1"
     inkscape:current-layer="svg18" />
  <linearGradient
     id="a">
    <stop
       offset="0"
       stop-color="#197cf1"
       id="stop2" />
    <stop
       offset="1"
       stop-color="#20bcfa"
       id="stop4" />
  </linearGradient>
  <linearGradient
     id="b"
     gradientUnits="userSpaceOnUse"
     x1="487.74164"
     x2="493.5094"
     xlink:href="#a"
     y1="985.34576"
     y2="11.610633" />
  <linearGradient
     id="c"
     gradientUnits="userSpaceOnUse"
     x1="34.902462"
     x2="946.34857"
     xlink:href="#a"
     y1="490.62549"
     y2="490.62549" />
  <linearGradient
     id="d"
     gradientTransform="matrix(1.0621125 0 0 1.0621124 476.71574 529.94298)"
     gradientUnits="userSpaceOnUse"
     x1="34.902462"
     x2="946.34857"
     xlink:href="#a"
     y1="490.62549"
     y2="490.62549" />
  <path
     style="opacity:1;vector-effect:none;fill:url(#linearGradient851);fill-opacity:1;stroke:none;stroke-width:0.2;stroke-linecap:round;stroke-linejoin:miter;stroke-miterlimit:4;stroke-dasharray:none;stroke-dashoffset:0;stroke-opacity:1;paint-order:stroke fill markers"
     d="M 24.000001,1.999993 5.0245301,10.310116 c 0,0 -0.6180797,16.664126 4.3510407,24.672718 4.1454302,6.681072 12.0809802,10.066471 14.6244302,11.017173 2.54346,-0.950702 10.479,-4.336101 14.624428,-11.017173 4.969123,-8.008592 4.351041,-24.672718 4.351041,-24.672718 z"
     id="path1021"
     inkscape:connector-curvature="0" />
  <g
     id="layer2"
     style="display:inline"
     transform="translate(-26.866448,-26.288576)" />
  <g
     id="layer1"
     style="display:inline" />
  <g
     id="layer2-3"
     style="display:inline"
     transform="matrix(0.87848742,0,0,0.88510278,-65.764312,6.3659823)" />
  <g
     id="layer1-6"
     style="display:inline"
     transform="matrix(0.87848742,0,0,0.88510278,-65.764312,6.3659823)" />
  <g
     id="layer2-9"
     style="display:inline;stroke-width:0.99999946"
     transform="matrix(1.003179,0,0,1.0019057,25.701026,5.9776527)" />
  <g
     id="layer1-4"
     style="display:inline;stroke-width:0.99999946"
     transform="matrix(1.003179,0,0,1.0019057,25.701026,5.9776527)" />
  <g
     id="layer2-3-2"
     style="display:inline;stroke-width:0.99999946"
     transform="matrix(0.87848366,0,0,0.88510251,2.9762934,2.6758141)" />
  <g
     id="layer1-6-9"
     style="display:inline;stroke-width:0.99999946"
     transform="matrix(0.87848366,0,0,0.88510251,2.9762934,2.6758141)" />
  <path
     style="fill:#ffffff;fill-opacity:1;stroke-width:0.09764697"
     d="m 23.227353,14.005845 c -0.199506,-0.0189 -0.40592,0.0076 -0.594209,0.08655 -0.376482,0.156094 -0.615999,0.484649 -0.615999,0.845102 v 6.730885 L 18.768613,19.40127 c -0.466303,-0.325417 -1.149871,-0.263433 -1.526925,0.139087 -0.377053,0.402558 -0.305133,0.993676 0.161261,1.319093 l 4.503779,3.142223 -4.503779,3.142224 c -0.466396,0.325417 -0.538317,0.915326 -0.161261,1.317846 0.214617,0.229039 0.528945,0.348472 0.845548,0.348472 0.239803,0 0.480446,-0.06916 0.681377,-0.209386 l 3.248532,-2.265751 v 6.728315 c 0,0.360567 0.239516,0.689197 0.615999,0.84514 0.149511,0.06198 0.31104,0.09146 0.470718,0.09146 0.242468,0 0.482009,-0.06992 0.678472,-0.205607 l 6.810875,-4.71212 c 0.257102,-0.178015 0.406793,-0.446589 0.406793,-0.730998 0,-0.284221 -0.149692,-0.553134 -0.406793,-0.730999 l -5.231647,-3.619729 5.231647,-3.619955 c 0.257102,-0.178016 0.406793,-0.44674 0.406793,-0.731036 0,-0.284221 -0.149692,-0.553172 -0.406793,-0.730999 l -6.810875,-4.712088 c -0.162909,-0.11263 -0.355476,-0.181039 -0.554981,-0.200693 z m 0.961776,2.88393 3.988021,2.759774 -3.988021,2.758563 z m 0,8.701909 3.988021,2.759811 -3.988021,2.758563 z"
     id="path9"
     inkscape:connector-curvature="0" />
</svg>
