<?xml version="1.0" encoding="UTF-8" standalone="no"?>
<!-- Created with Inkscape (http://www.inkscape.org/) -->

<svg
   xmlns:dc="http://purl.org/dc/elements/1.1/"
   xmlns:cc="http://creativecommons.org/ns#"
   xmlns:rdf="http://www.w3.org/1999/02/22-rdf-syntax-ns#"
   xmlns:svg="http://www.w3.org/2000/svg"
   xmlns="http://www.w3.org/2000/svg"
   xmlns:sodipodi="http://sodipodi.sourceforge.net/DTD/sodipodi-0.dtd"
   xmlns:inkscape="http://www.inkscape.org/namespaces/inkscape"
   width="48"
   height="48"
   viewBox="0 0 12.7 12.7"
   version="1.1"
   id="svg8"
   inkscape:version="0.92.2 5c3e80d, 2017-08-06"
   sodipodi:docname="drawing.svg">
  <defs
     id="defs2">
    <linearGradient
       id="a-3"
       gradientTransform="matrix(0.36451391,0,0,0.3865627,-127.94245,85.064634)"
       gradientUnits="userSpaceOnUse"
       x1="368.96432"
       x2="368.96432"
       y1="545.75293"
       y2="517.39703">
      <stop
         offset="0"
         stop-color="#c61423"
         id="stop2-6" />
      <stop
         offset="1"
         stop-color="#ff4c63"
         id="stop4-7" />
    </linearGradient>
  </defs>
  <sodipodi:namedview
     id="base"
     pagecolor="#ffffff"
     bordercolor="#666666"
     borderopacity="1.0"
     inkscape:pageopacity="0.0"
     inkscape:pageshadow="2"
     inkscape:zoom="11.951221"
     inkscape:cx="24"
     inkscape:cy="24"
     inkscape:document-units="mm"
     inkscape:current-layer="layer1"
     showgrid="false"
     units="px"
     inkscape:window-width="1366"
     inkscape:window-height="701"
     inkscape:window-x="0"
     inkscape:window-y="0"
     inkscape:window-maximized="1" />
  <metadata
     id="metadata5">
    <rdf:RDF>
      <cc:Work
         rdf:about="">
        <dc:format>image/svg+xml</dc:format>
        <dc:type
           rdf:resource="http://purl.org/dc/dcmitype/StillImage" />
        <dc:title />
      </cc:Work>
    </rdf:RDF>
  </metadata>
  <g
     inkscape:label="Layer 1"
     inkscape:groupmode="layer"
     id="layer1"
     transform="translate(0,-284.29998)">
    <g
       id="g843"
       transform="translate(0.02634871,0.21078812)">
      <g
         transform="translate(-0.02634873,-0.21077913)"
         id="layer1-5">
        <rect
           rx="0.74759543"
           style="opacity:0.98799995;fill:url(#a-3);stroke-width:0.37379771"
           height="10.847916"
           ry="0.74759543"
           width="11.641666"
           x="0.52916682"
           y="285.22601"
           id="rect7-5" />
        <path
           inkscape:connector-curvature="0"
           id="path868"
           d="m 2.3104534,286.75512 c -0.079922,0 -0.1441772,0.0648 -0.1441772,0.14469 v 7.35614 0.14418 c 0,0.0799 0.064256,0.14469 0.1441772,0.14469 h 0.144694 7.9343986 c 0.07992,0 0.144177,-0.0648 0.144177,-0.14469 v -7.50032 c 0,-0.0799 -0.06425,-0.14469 -0.144177,-0.14469 H 2.4551474 Z m 4.0395467,2.7404 a 1.452966,1.452966 0 0 1 1.4531414,1.45314 1.452966,1.452966 0 0 1 -1.4531414,1.45314 1.452966,1.452966 0 0 1 -1.4531414,-1.45314 1.452966,1.452966 0 0 1 1.4531414,-1.45314 z"
           style="fill:#34495e;fill-opacity:1;stroke:none;stroke-width:0.13030219" />
        <path
           inkscape:connector-curvature="0"
           id="path859"
           d="m 2.730066,287.63465 c -0.1533248,0 -0.2769856,0.13984 -0.2769856,0.31264 v 6.00325 c 0,0.1728 0.1236608,0.31213 0.2769856,0.31213 h 7.2398683 c 0.1533237,0 0.2769857,-0.13933 0.2769857,-0.31213 v -6.00325 c 0,-0.1728 -0.123662,-0.31264 -0.2769857,-0.31264 z m 3.6199341,1.86087 a 1.452966,1.452966 0 0 1 1.4531414,1.45314 1.452966,1.452966 0 0 1 -1.4531414,1.45314 1.452966,1.452966 0 0 1 -1.4531414,-1.45314 1.452966,1.452966 0 0 1 1.4531414,-1.45314 z"
           style="fill:#ffffff;stroke-width:0.46709761" />
        <g
           style="fill:#c81626;fill-opacity:0.98823529;stroke-width:1.08946216"
           id="g916"
           transform="matrix(0.24285684,0,0,0.24285684,2.5637073,285.45123)">
          <g
             transform="matrix(0.6134646,0,0,0.6134646,-178.01914,-297.8473)"
             id="g17"
             style="fill:#c81626;fill-opacity:0.98823529;stroke-width:1.63039148">
            <path
               inkscape:connector-curvature="0"
               d="m 294.90044,506.26511 v 1 4 h 1 v -4 h 4 v -1 z"
               id="path9"
               style="opacity:0.75;fill:#c81626;fill-opacity:0.98823529;stroke-width:1.63039148" />
            <path
               inkscape:connector-curvature="0"
               d="m 294.90044,538.56511 h 1 4 v -1 h -4 v -4 h -1 z"
               id="path11"
               style="opacity:0.75;fill:#c81626;fill-opacity:0.98823529;stroke-width:1.63039148" />
            <path
               inkscape:connector-curvature="0"
               d="m 336.2007,538.06511 v -1 -4 h -1 v 4 h -4 v 1 z"
               id="path13"
               style="opacity:0.75;fill:#c81626;fill-opacity:0.98823529;stroke-width:1.63039148" />
            <path
               inkscape:connector-curvature="0"
               d="m 336.3007,506.56472 h -1 -4 v 1 h 4 v 4 h 1 z"
               id="path15"
               style="opacity:0.75;fill:#c81626;fill-opacity:0.98823529;stroke-width:1.63039148" />
          </g>
        </g>
      </g>
    </g>
  </g>
</svg>
