<?xml version="1.0" encoding="UTF-8" standalone="no"?>
<svg
   xmlns:dc="http://purl.org/dc/elements/1.1/"
   xmlns:cc="http://creativecommons.org/ns#"
   xmlns:rdf="http://www.w3.org/1999/02/22-rdf-syntax-ns#"
   xmlns:svg="http://www.w3.org/2000/svg"
   xmlns="http://www.w3.org/2000/svg"
   id="svg21"
   version="1.1"
   width="48"
   viewBox="0 0 48 48"
   height="48">
  <metadata
     id="metadata27">
    <rdf:RDF>
      <cc:Work
         rdf:about="">
        <dc:format>image/svg+xml</dc:format>
        <dc:type
           rdf:resource="http://purl.org/dc/dcmitype/StillImage" />
        <dc:title></dc:title>
      </cc:Work>
    </rdf:RDF>
  </metadata>
  <defs
     id="defs25" />
  <linearGradient
     gradientTransform="matrix(4.1818183,0,0,4.1818183,-2017.8077,-2244.3185)"
     y2="537.675961"
     y1="547.743591"
     x2="488.111478"
     x1="488.204228"
     gradientUnits="userSpaceOnUse"
     id="a">
    <stop
       id="stop2"
       stop-color="#ffeb96"
       offset="0" />
    <stop
       id="stop4"
       stop-color="#fff1b7"
       offset="1" />
  </linearGradient>
  <circle
     cx="24.042212"
     cy="23.699013"
     r="23"
     id="circle7"
     style="fill:url(#a);stroke-width:4.18181849" />
  <g
     id="g19"
     transform="matrix(4.1818183,0,0,4.1818183,-2053.1031,-2160.3268)">
    <path
       id="path15"
       d="m 499.04677,523.9624 c 0,0.0697 0.78328,0.13891 0.7785,0.20747 -0.10987,1.57513 -1.46142,2.82136 -3.1162,2.82711 -1.64847,0.006 -3.00505,-1.22186 -3.13541,-2.78762 -0.006,-0.0744 0.3045,-0.14957 0.304,-0.2254 l 2.82029,-0.0216 z"
       style="fill:#f7aa86" />
    <path
       id="path17"
       d="m 493.65983,523.64038 h 6.07747 c 0.049,0 0.0884,0.0394 0.0884,0.0884 v 0.38477 c 0,0.049 -0.01,0.20628 -0.01,0.20628 h -6.23426 c 0,0 -0.01,-0.15728 -0.01,-0.20628 v -0.38477 c 0,-0.049 0.0394,-0.0884 0.0884,-0.0884 z"
       style="fill:#f3f3f3" />
  </g>
  <path
     id="path852"
     d="m 37.269144,22.056282 c -0.344238,-0.0051 -0.68185,0.129554 -1.00793,0.367113 -0.362237,0.263901 -0.707504,0.652486 -1.030703,1.102711 -0.422962,0.589202 -0.81057,1.288438 -1.110976,1.894312 L 34.559788,25.709821 35,26 c 0.292084,-0.589091 0.629586,-1.249858 0.978868,-1.813365 0.267654,-0.431815 0.521304,-0.772409 0.762647,-1.008966 0.210726,-0.206548 0.400632,-0.322486 0.578906,-0.365563 0.172346,-0.04164 0.362354,-0.02216 0.586914,0.08961 0.226296,0.112643 0.465382,0.308631 0.720294,0.577102 0.264391,0.278454 0.534401,0.622808 0.803709,0.992589 0.207156,0.284442 0.633492,0.908433 1.07973,1.563728 l 0.04407,-0.02749 c -0.278002,-0.473372 -0.566893,-0.988607 -0.964361,-1.671024 -0.233056,-0.400136 -0.471823,-0.794555 -0.709937,-1.128975 -0.227563,-0.3196 -0.466845,-0.602465 -0.726688,-0.80684 -0.263945,-0.207601 -0.556435,-0.339579 -0.885004,-0.344521 z"
     style="fill:#414141;fill-opacity:1;fill-rule:nonzero;stroke:#414141;stroke-width:0.51800001;stroke-linecap:butt;stroke-linejoin:miter;stroke-miterlimit:4;stroke-dasharray:none;stroke-opacity:1" />
  <path
     id="path848"
     d="m 10.730856,22.056282 c 0.344238,-0.0051 0.68185,0.129554 1.00793,0.367113 0.362237,0.263901 0.707504,0.652486 1.030703,1.102711 0.422962,0.589202 0.81057,1.288438 1.110976,1.894312 L 13.440212,25.709821 13,26 c -0.292084,-0.589091 -0.629586,-1.249858 -0.978868,-1.813365 -0.267654,-0.431815 -0.521304,-0.772409 -0.762647,-1.008966 -0.210726,-0.206548 -0.400632,-0.322486 -0.578906,-0.365563 -0.172346,-0.04164 -0.362354,-0.02216 -0.586914,0.08961 C 9.866369,23.014359 9.627283,23.210347 9.372371,23.478818 9.10798,23.757272 8.83797,24.101626 8.568662,24.471407 8.361506,24.755849 7.93517,25.37984 7.488932,26.035135 l -0.04407,-0.02749 c 0.278002,-0.473372 0.566893,-0.988607 0.964361,-1.671024 0.233056,-0.400136 0.471823,-0.794555 0.709937,-1.128975 0.227563,-0.3196 0.466845,-0.602465 0.726688,-0.80684 0.263945,-0.207601 0.556435,-0.339579 0.885004,-0.344521 z"
     style="fill:#414141;fill-opacity:1;fill-rule:nonzero;stroke:#414141;stroke-width:0.51800001;stroke-linecap:butt;stroke-linejoin:miter;stroke-miterlimit:4;stroke-dasharray:none;stroke-opacity:1" />
</svg>
