<?xml version="1.0" encoding="UTF-8" standalone="no"?>
<svg
   xmlns:dc="http://purl.org/dc/elements/1.1/"
   xmlns:cc="http://creativecommons.org/ns#"
   xmlns:rdf="http://www.w3.org/1999/02/22-rdf-syntax-ns#"
   xmlns:svg="http://www.w3.org/2000/svg"
   xmlns="http://www.w3.org/2000/svg"
   xmlns:xlink="http://www.w3.org/1999/xlink"
   xml:space="preserve"
   enable-background="new 0 0 48 48"
   viewBox="0 0 48 48"
   y="0px"
   x="0px"
   id="图层_1"
   version="1.1"><metadata
     id="metadata23"><rdf:RDF><cc:Work
         rdf:about=""><dc:format>image/svg+xml</dc:format><dc:type
           rdf:resource="http://purl.org/dc/dcmitype/StillImage" /><dc:title></dc:title></cc:Work></rdf:RDF></metadata><defs
     id="defs21"><linearGradient
       id="linearGradient890"><stop
         id="stop886"
         offset="0"
         style="stop-color:#f1f1f1;stop-opacity:1" /><stop
         id="stop888"
         offset="1"
         style="stop-color:#f9f9f9;stop-opacity:1" /></linearGradient><linearGradient
       id="linearGradient882"><stop
         id="stop878"
         offset="0"
         style="stop-color:#ff0000;stop-opacity:1;" /><stop
         id="stop880"
         offset="1"
         style="stop-color:#ff4444;stop-opacity:1" /></linearGradient><linearGradient
       id="linearGradient874"><stop
         id="stop870"
         offset="0"
         style="stop-color:#009bc2;stop-opacity:1" /><stop
         id="stop872"
         offset="1"
         style="stop-color:#00c6f7;stop-opacity:1" /></linearGradient><linearGradient
       gradientUnits="userSpaceOnUse"
       y2="16.503786"
       x2="19.787357"
       y1="6.4365029"
       x1="9.7796459"
       id="linearGradient876"
       xlink:href="#linearGradient874" /><linearGradient
       gradientUnits="userSpaceOnUse"
       y2="27.721615"
       x2="27.181664"
       y1="34.337257"
       x1="33.078217"
       id="linearGradient884"
       xlink:href="#linearGradient882" /><linearGradient
       gradientUnits="userSpaceOnUse"
       y2="2.1219532"
       x2="23.873842"
       y1="44.979816"
       x1="23.873842"
       id="linearGradient892"
       xlink:href="#linearGradient890" /></defs><path
     id="path863"
     d="M 7.7988281 3.8007812 A 28.412282 15.152542 0 0 0 7.140625 4.0507812 C 7.1298015 4.0546909 7.12003 4.0601879 7.109375 4.0644531 A 28.412282 15.152542 0 0 0 6.9101562 4.140625 L 6.9804688 4.140625 C 6.7219305 4.2920775 6.5267436 4.5429391 6.4863281 4.8574219 C 6.1813281 7.2414219 6.0195312 9.7243436 6.0195312 12.277344 C 6.0195312 35.234344 20.432531 44.988281 24.019531 44.988281 C 27.606531 44.988281 42.019531 35.182344 42.019531 12.277344 C 42.019531 9.7243435 41.857734 7.2424219 41.552734 4.8574219 C 41.512319 4.5423076 41.317132 4.2918694 41.058594 4.140625 L 41.130859 4.140625 C 41.138759 4.140625 41.146517 4.1443612 41.154297 4.1445312 A 28.412282 15.152542 0 0 0 40.923828 4.0605469 C 40.916019 4.0574902 40.908289 4.0556012 40.900391 4.0527344 A 28.412282 15.152542 0 0 0 40.193359 3.8007812 L 7.7988281 3.8007812 z "
     style="opacity:1;fill:url(#linearGradient892);fill-opacity:1;stroke:none;stroke-width:1.65300786;stroke-miterlimit:4;stroke-dasharray:none;stroke-opacity:1" /><path
     style="fill:url(#linearGradient876);fill-opacity:1"
     id="path6"
     d="M 29.983,6.452 H 9.877 C 9.403,6.452 9.004,6.78 8.965,7.207 8.816,8.879 8.74,10.576 8.74,12.279 c 0,4.637 0.615,8.683 1.603,12.179 0.175,0.62 1.024,0.833 1.524,0.381 L 30.625,7.854 C 31.196,7.336 30.791,6.452 29.983,6.452 Z" /><path
     style="fill:url(#linearGradient884);fill-opacity:1"
     id="path8"
     d="m 17.076,37.304 c 2.753,3.181 5.44,4.835 6.728,5.17 0.142,0.037 0.288,0.037 0.429,0 2.848,-0.743 12.544,-7.95 14.655,-23.856 0.103,-0.773 -0.938,-1.233 -1.546,-0.682 L 17.153,36.217 c -0.322,0.292 -0.358,0.763 -0.077,1.087 z" /></svg>