<?xml version="1.0" encoding="UTF-8" standalone="no"?>
<svg
   xmlns:dc="http://purl.org/dc/elements/1.1/"
   xmlns:cc="http://creativecommons.org/ns#"
   xmlns:rdf="http://www.w3.org/1999/02/22-rdf-syntax-ns#"
   xmlns:svg="http://www.w3.org/2000/svg"
   xmlns="http://www.w3.org/2000/svg"
   xmlns:xlink="http://www.w3.org/1999/xlink"
   xmlns:sodipodi="http://sodipodi.sourceforge.net/DTD/sodipodi-0.dtd"
   xmlns:inkscape="http://www.inkscape.org/namespaces/inkscape"
   width="48px"
   height="48px"
   viewBox="0 0 48 48"
   version="1.1"
   id="SVGRoot"
   sodipodi:docname="gimp.svg"
   inkscape:version="0.92.2 2405546, 2018-03-11">
  <sodipodi:namedview
     pagecolor="#ffffff"
     bordercolor="#666666"
     borderopacity="1"
     objecttolerance="10"
     gridtolerance="10"
     guidetolerance="10"
     inkscape:pageopacity="0"
     inkscape:pageshadow="2"
     inkscape:window-width="1366"
     inkscape:window-height="699"
     id="namedview48"
     showgrid="false"
     inkscape:zoom="4.9166667"
     inkscape:cx="24"
     inkscape:cy="24"
     inkscape:window-x="0"
     inkscape:window-y="0"
     inkscape:window-maximized="1"
     inkscape:current-layer="SVGRoot" />
  <defs
     id="defs1219">
    <linearGradient
       id="linearGradient1039">
      <stop
         id="stop1035"
         offset="0"
         style="stop-color:#2f2f2f;stop-opacity:1" />
      <stop
         id="stop1037"
         offset="1"
         style="stop-color:#505050;stop-opacity:1" />
    </linearGradient>
    <linearGradient
       id="linearGradient1029">
      <stop
         id="stop1025"
         offset="0"
         style="stop-color:#f00e0e;stop-opacity:1" />
      <stop
         style="stop-color:#cdf621;stop-opacity:1"
         offset="0.51847887"
         id="stop1033" />
      <stop
         id="stop1027"
         offset="1"
         style="stop-color:#62ff0f;stop-opacity:1" />
    </linearGradient>
    <linearGradient
       gradientTransform="translate(-54.711862,-2.2365384)"
       xlink:href="#linearGradient999"
       id="linearGradient993"
       x1="96.067795"
       y1="43.422981"
       x2="57.864403"
       y2="5.2195873"
       gradientUnits="userSpaceOnUse" />
    <linearGradient
       y2="102.25676"
       y1="226.20387"
       x2="41.357147"
       x1="41.749325"
       gradientUnits="userSpaceOnUse"
       gradientTransform="matrix(0.93656781,0,0,0.94442665,143.00429,52.34307)"
       id="linearGradient999">
      <stop
         id="stop995"
         stop-color="#ff5335"
         offset="0"
         style="stop-color:#f00e0e;stop-opacity:1" />
      <stop
         style="stop-color:#cdf621;stop-opacity:1"
         offset="0.48135662"
         stop-color="#ff5335"
         id="stop1065" />
      <stop
         id="stop997"
         stop-color="#ff8f36"
         offset="1"
         style="stop-color:#62ff0f;stop-opacity:1" />
    </linearGradient>
    <linearGradient
       gradientTransform="matrix(1.0012576,0,0,1.0012576,16.523526,10.494495)"
       gradientUnits="userSpaceOnUse"
       y2="28.271175"
       x2="24.761248"
       y1="22.874729"
       x1="22.062117"
       id="linearGradient944-6"
       xlink:href="#linearGradient941" />
    <linearGradient
       id="linearGradient941">
      <stop
         style="stop-color:#aaaaaa;stop-opacity:1"
         offset="0"
         id="stop937" />
      <stop
         id="stop943"
         offset="0.78410405"
         style="stop-color:#2a2a2a;stop-opacity:1" />
      <stop
         style="stop-color:#333333;stop-opacity:1"
         offset="1"
         id="stop939" />
    </linearGradient>
    <linearGradient
       gradientTransform="matrix(1.0012576,0,0,1.0012576,16.327967,10.453449)"
       gradientUnits="userSpaceOnUse"
       y2="28.982126"
       x2="23.616724"
       y1="35.230782"
       x1="27.224386"
       id="linearGradient952-6"
       xlink:href="#linearGradient950" />
    <linearGradient
       id="linearGradient950">
      <stop
         id="stop946"
         offset="0"
         style="stop-color:#999999;stop-opacity:1" />
      <stop
         style="stop-color:#808080;stop-opacity:1"
         offset="0.30666909"
         id="stop1189" />
      <stop
         style="stop-color:#2b2b2b;stop-opacity:1"
         offset="0.75545245"
         id="stop945" />
      <stop
         id="stop948"
         offset="1"
         style="stop-color:#161616;stop-opacity:1" />
    </linearGradient>
    <linearGradient
       gradientTransform="matrix(1.0588369,0,0,1.0593466,-60.329483,-4.6537084)"
       xlink:href="#linearGradient1079"
       id="linearGradient1081"
       x1="93.625732"
       y1="36.782169"
       x2="79.675354"
       y2="36.06308"
       gradientUnits="userSpaceOnUse" />
    <linearGradient
       id="linearGradient1079">
      <stop
         style="stop-color:#262626;stop-opacity:1"
         offset="0"
         id="stop1075" />
      <stop
         style="stop-color:#424242;stop-opacity:1"
         offset="1"
         id="stop1077" />
    </linearGradient>
    <linearGradient
       gradientTransform="matrix(1.0588369,0,0,1.0593466,-60.329483,-4.6537084)"
       xlink:href="#linearGradient1117"
       id="linearGradient1119"
       x1="72.205086"
       y1="33.331169"
       x2="64.267349"
       y2="24.558252"
       gradientUnits="userSpaceOnUse" />
    <linearGradient
       id="linearGradient1117">
      <stop
         style="stop-color:#2f2f2f;stop-opacity:1;"
         offset="0"
         id="stop1113" />
      <stop
         style="stop-color:#515151;stop-opacity:1"
         offset="1"
         id="stop1115" />
    </linearGradient>
    <linearGradient
       gradientUnits="userSpaceOnUse"
       y2="2.0000019"
       x2="2.0000019"
       y1="42.59322"
       x1="42.59322"
       id="linearGradient1031"
       xlink:href="#linearGradient1029" />
    <linearGradient
       gradientUnits="userSpaceOnUse"
       y2="14.645555"
       x2="20.641994"
       y1="32.74725"
       x1="34.05619"
       id="linearGradient1041"
       xlink:href="#linearGradient1039" />
  </defs>
  <metadata
     id="metadata1222">
    <rdf:RDF>
      <cc:Work
         rdf:about="">
        <dc:format>image/svg+xml</dc:format>
        <dc:type
           rdf:resource="http://purl.org/dc/dcmitype/StillImage" />
        <dc:title />
      </cc:Work>
    </rdf:RDF>
  </metadata>
  <rect
     rx="2.869565"
     ry="2.869565"
     y="2.0000019"
     x="2.0000019"
     height="43.999996"
     width="43.999996"
     id="rect1408"
     style="opacity:1;fill:url(#linearGradient1031);fill-opacity:1;stroke:none;stroke-width:0.89189738;stroke-linecap:butt;stroke-linejoin:miter;stroke-miterlimit:4;stroke-dasharray:none;stroke-opacity:1;paint-order:normal" />
  <path
     id="path1412"
     d="M 38.363458,33.116668 A 8.8773329,13.28159 51.253564 0 1 32.21902,43.205512 8.8773329,13.28159 51.253564 0 1 30.572422,44.374936 L 45.999998,35.99527 a 8.7514361,5.8494055 36.253564 0 1 -6.85431,-2.252826 8.7514361,5.8494055 36.253564 0 1 -0.78223,-0.625776 z"
     style="opacity:1;fill:url(#linearGradient944-6);fill-opacity:1;stroke-width:0.35998923" />
  <path
     id="path1414"
     d="m 45.999998,35.945342 -17.314449,9.402369 h -0.002 l -1.146485,0.624982 15.558639,0.02646 c 1.590557,0.0028 2.875525,-1.274684 2.880855,-2.86526 z"
     style="opacity:1;fill:url(#linearGradient952-6);fill-opacity:1;stroke-width:0.35998923" />
  <g
     id="g886"
     transform="matrix(0.90084273,0,0,0.9003025,2.3806765,2.6365558)"
     style="stroke-width:1.11040473">
    <path
       style="fill:url(#linearGradient1041);fill-opacity:1;fill-rule:evenodd;stroke:#ffda36;stroke-width:1.08591473;stroke-opacity:1"
       d="m 13.965542,12.401767 c 0,0 3.416261,5.520089 10.090805,4.7376 C 38.043391,15.496528 39.81175,8.0946847 40.063914,7.0270212 40.316078,5.9593587 40.869367,6.0663294 41.085827,7.0114594 49.575119,47.302266 11.588671,33.19416 9.6321942,26.379067 16.643713,23.641394 14.503302,19.836292 14.503302,19.836292 Z"
       id="path1001"
       inkscape:connector-curvature="0" />
    <path
       style="opacity:0.18539303;fill:none;stroke-width:1.08591473"
       d="m 40.36493,9.3435473 c -0.472077,0.9563157 -1.208402,2.1137037 -2.38327,3.2667037 -2.413848,2.368916 -6.623635,4.711354 -13.800206,5.554273 -4.192845,0.491549 -7.098662,-1.247255 -8.932819,-2.865352 l 0.295174,4.372587 c 0.174727,0.396177 0.543866,1.318734 0.193061,2.658998 -0.377492,1.442221 -1.872019,3.020109 -4.56774,4.361201 0.298055,0.486402 0.59092,0.972845 1.410815,1.623217 1.117023,0.886065 2.640461,1.811466 4.422445,2.605953 3.563969,1.588976 8.089518,2.690582 12.179637,2.380194 4.090121,-0.310385 7.700927,-1.92838 9.91456,-5.840734 2.040661,-3.606642 2.785988,-9.46183 1.268343,-18.1170407 z"
       id="path1003"
       inkscape:connector-curvature="0" />
    <path
       id="path1005"
       d="m 22.102285,20.43829 a 3.9855261,4.0629817 89.999979 1 1 -8.090022,0.748866 3.9855261,4.0629817 89.999979 1 1 8.090022,-0.748866 z"
       style="fill:#333333;fill-opacity:1;fill-rule:evenodd;stroke:#ffcf36;stroke-width:1.0859139;stroke-miterlimit:10;stroke-opacity:1"
       inkscape:connector-curvature="0" />
    <path
       id="path1007"
       d="M 14.188208,22.67918 A 6.0300954,4.2907743 47.132268 1 1 7.6752317,28.271894 6.0300954,4.2907743 47.132268 1 1 14.188208,22.67918 Z"
       style="fill:url(#linearGradient1119);fill-opacity:1;fill-rule:evenodd;stroke:#ffcf36;stroke-width:1.08591473;stroke-miterlimit:10;stroke-opacity:1"
       inkscape:connector-curvature="0" />
    <path
       id="path1009"
       d="M 21.007286,21.132716 A 1.9189569,1.9562504 89.999981 1 1 17.11209,21.49328 1.9189569,1.9562504 89.999981 1 1 21.007286,21.132716 Z"
       style="fill:#fce396;fill-opacity:1;fill-rule:evenodd;stroke:#ffcf36;stroke-width:1.08591485;stroke-miterlimit:10;stroke-opacity:1"
       inkscape:connector-curvature="0" />
    <path
       id="path1011"
       d="m 31.201074,20.031174 a 4.67866,4.7695865 89.999975 1 1 -9.496982,0.879103 4.67866,4.7695865 89.999975 1 1 9.496982,-0.879103 z"
       style="fill:#333333;fill-opacity:1;fill-rule:evenodd;stroke:#ffcf36;stroke-width:1.08591342;stroke-miterlimit:10;stroke-opacity:1"
       inkscape:connector-curvature="0" />
    <path
       id="path1013"
       d="m 29.915646,20.846373 a 2.2526887,2.2964681 89.999981 1 1 -4.572622,0.423272 2.2526887,2.2964681 89.999981 1 1 4.572622,-0.423272 z"
       style="fill:#fce396;fill-opacity:1;fill-rule:evenodd;stroke:#ffcf36;stroke-width:1.08591473;stroke-miterlimit:10;stroke-opacity:1"
       inkscape:connector-curvature="0" />
  </g>
</svg>
