<?xml version="1.0" encoding="UTF-8" standalone="no"?>
<svg
   xmlns:dc="http://purl.org/dc/elements/1.1/"
   xmlns:cc="http://creativecommons.org/ns#"
   xmlns:rdf="http://www.w3.org/1999/02/22-rdf-syntax-ns#"
   xmlns:svg="http://www.w3.org/2000/svg"
   xmlns="http://www.w3.org/2000/svg"
   xmlns:xlink="http://www.w3.org/1999/xlink"
   height="48"
   width="48"
   version="1.1"
   id="svg13">
  <metadata
     id="metadata19">
    <rdf:RDF>
      <cc:Work
         rdf:about="">
        <dc:format>image/svg+xml</dc:format>
        <dc:type
           rdf:resource="http://purl.org/dc/dcmitype/StillImage" />
        <dc:title></dc:title>
      </cc:Work>
    </rdf:RDF>
  </metadata>
  <defs
     id="defs17">
    <linearGradient
       id="a-3"
       gradientTransform="matrix(0.93161886,0,0,1.0102051,-356.63286,-504.32799)"
       gradientUnits="userSpaceOnUse"
       x1="409.57144"
       x2="409.93887"
       y1="542.79797"
       y2="501.2316">
      <stop
         offset="0"
         stop-color="#00a199"
         id="stop2-6" />
      <stop
         offset="1"
         stop-color="#00f89a"
         stop-opacity=".988235"
         id="stop4-7" />
    </linearGradient>
    <linearGradient
       id="b"
       gradientUnits="userSpaceOnUse"
       x1="3.1466999"
       x2="18.771702"
       y1="1041.4948"
       y2="1041.4948"
       gradientTransform="matrix(0.1859203,0,0,0.1859203,12.28728,14.112737)">
      <stop
         offset="0"
         stop-color="#e6f3ff"
         id="stop7" />
      <stop
         offset="1"
         stop-color="#dcffe7"
         id="stop9" />
    </linearGradient>
    <linearGradient
       id="linearGradient840">
      <stop
         style="stop-color:#666666;stop-opacity:1;"
         offset="0"
         id="stop836" />
      <stop
         style="stop-color:#808080;stop-opacity:1"
         offset="1"
         id="stop838" />
    </linearGradient>
    <linearGradient
       y2="507.47299"
       y1="542.79797"
       x2="409.72055"
       x1="409.57144"
       gradientUnits="userSpaceOnUse"
       gradientTransform="matrix(0.93161886,0,0,1.0102051,-356.63286,-504.32799)"
       id="a-3-3">
      <stop
         style="stop-color:#595959;stop-opacity:1"
         id="stop2-6-6"
         stop-color="#00a199"
         offset="0" />
      <stop
         style="stop-color:#808080;stop-opacity:1"
         id="stop4-7-7"
         stop-opacity=".988235"
         stop-color="#00f89a"
         offset="1" />
    </linearGradient>
    <linearGradient
       gradientTransform="matrix(0.1859203,0,0,0.1859203,12.28728,14.112737)"
       y2="1041.4948"
       y1="1041.4948"
       x2="18.771702"
       x1="3.1466999"
       gradientUnits="userSpaceOnUse"
       id="b-3">
      <stop
         id="stop7-6"
         stop-color="#e6f3ff"
         offset="0" />
      <stop
         id="stop9-7"
         stop-color="#dcffe7"
         offset="1" />
    </linearGradient>
    <linearGradient
       xlink:href="#linearGradient840"
       id="linearGradient842"
       x1="25.220337"
       y1="42.706993"
       x2="25.220337"
       y2="6.1435828"
       gradientUnits="userSpaceOnUse" />
  </defs>
  <linearGradient
     id="a"
     gradientUnits="userSpaceOnUse"
     x1="409.537251898256"
     x2="409.537251898256"
     y1="544.227537992278"
     y2="502.9836729252">
    <stop
       offset="0"
       stop-color="#0a80fd"
       id="stop2" />
    <stop
       offset="1"
       stop-color="#56c5fa"
       id="stop4" />
  </linearGradient>
  <path
     style="fill:#34495e;fill-opacity:1;stroke:none;stroke-width:0.75862068"
     d="m 2.7586205,3.5172413 c -0.4203047,0 -0.7586207,0.3383449 -0.7586207,0.7586207 v 38.689655 0.758621 c 0,0.420276 0.338316,0.758621 0.7586207,0.758621 H 3.5172412 45.241379 C 45.661684,44.482759 46,44.144414 46,43.724138 V 4.275862 C 46,3.8555862 45.661684,3.5172413 45.241379,3.5172413 H 3.5172412 Z"
     id="rect4148-2" />
  <g
     id="g873"
     transform="matrix(0.98892453,0,0,0.98892453,62.738697,6.745991)"
     style="fill:#ff5555">
    <circle
       r="1"
       cy="-0.7965467"
       cx="-20.3729"
       id="path4155-0"
       style="opacity:1;fill:#ff5555;fill-opacity:1;stroke:none;stroke-opacity:1" />
    <circle
       r="1"
       cy="-0.7965467"
       cx="-23.75263"
       id="circle858"
       style="opacity:1;fill:#ff5555;fill-opacity:1;stroke:none;stroke-opacity:1" />
    <circle
       r="1"
       cy="-0.86845589"
       cx="-27.204269"
       id="circle860"
       style="opacity:1;fill:#ff5555;fill-opacity:1;stroke:none;stroke-opacity:1" />
    <circle
       style="opacity:1;fill:#ff5555;fill-opacity:1;stroke:none;stroke-opacity:1"
       id="circle856"
       cx="-27.13236"
       cy="-0.7965467"
       r="1" />
  </g>
  <rect
     rx="1.0812595"
     style="fill:url(#linearGradient842);fill-opacity:1;stroke-width:0.65762758"
     height="34.34697"
     ry="1.0812595"
     width="40.99123"
     x="3.5043848"
     y="8.6521521"
     id="rect12-6" />
  <path
     id="path22"
     d="m 35.512072,23.818707 c -0.08107,-0.106152 -0.18685,-0.169368 -0.31811,-0.189453 L 32.422077,23.20517 c -0.151518,-0.484695 -0.35864,-0.979428 -0.62116,-1.484387 0.181645,-0.252482 0.454204,-0.608333 0.817678,-1.067927 0.363475,-0.459595 0.620973,-0.795181 0.772499,-1.007317 0.08088,-0.111183 0.121039,-0.227195 0.121039,-0.348415 0,-0.141301 -0.03513,-0.252293 -0.105981,-0.333168 -0.363473,-0.515186 -1.196581,-1.373393 -2.499326,-2.575183 -0.120849,-0.100949 -0.247274,-0.151329 -0.378348,-0.151329 -0.151518,0 -0.272745,0.04537 -0.363659,0.136098 l -2.150726,1.620853 c -0.41423,-0.212136 -0.86862,-0.398985 -1.363353,-0.56055 l -0.424084,-2.786944 c -0.01,-0.131257 -0.06823,-0.239838 -0.174209,-0.325734 -0.106152,-0.08589 -0.229612,-0.128654 -0.371282,-0.128654 H 22.31861 c -0.292825,0 -0.474654,0.141301 -0.545304,0.424084 -0.131256,0.504773 -0.277764,1.443856 -0.439329,2.817249 -0.474656,0.151708 -0.934065,0.343582 -1.378415,0.575796 l -2.0903,-1.620854 c -0.131256,-0.100949 -0.262521,-0.151329 -0.393781,-0.151329 -0.222174,0 -0.699245,0.360871 -1.431399,1.082985 -0.732155,0.722115 -1.229306,1.264816 -1.492011,1.62829 -0.09092,0.131256 -0.13627,0.24746 -0.13627,0.348415 0,0.121228 0.05038,0.242439 0.151346,0.363475 0.676564,0.818049 1.216847,1.514693 1.620852,2.090486 -0.25248,0.46443 -0.449369,0.929046 -0.590669,1.393473 l -2.817435,0.424085 c -0.110994,0.02026 -0.206931,0.08589 -0.287806,0.197075 -0.08088,0.110994 -0.121211,0.227195 -0.121211,0.348229 v 3.362741 c 0,0.131446 0.04035,0.249876 0.121211,0.355851 0.08088,0.106153 0.18685,0.169558 0.31811,0.18964 l 2.772073,0.409023 c 0.141301,0.494735 0.348228,0.994487 0.620973,1.499262 -0.181644,0.25248 -0.454389,0.608331 -0.817865,1.067926 -0.363473,0.459594 -0.621158,0.795182 -0.772497,1.007316 -0.08088,0.111373 -0.121228,0.227195 -0.121228,0.348415 0,0.131256 0.03532,0.247274 0.10598,0.348228 0.393779,0.545491 1.226889,1.393845 2.499328,2.544878 0.111183,0.111184 0.237419,0.166578 0.378718,0.166578 0.151518,0 0.277766,-0.04537 0.37872,-0.136098 l 2.135853,-1.621038 c 0.41423,0.212134 0.868618,0.398984 1.363353,0.560735 l 0.424085,2.786946 c 0.01017,0.131256 0.06823,0.239836 0.174206,0.325731 0.10598,0.08608 0.229798,0.128655 0.371098,0.128655 h 3.36274 c 0.293196,0 0.474841,-0.141301 0.545676,-0.424084 0.131067,-0.504961 0.277394,-1.443858 0.438959,-2.817252 0.474653,-0.151518 0.934248,-0.34358 1.378412,-0.575795 l 2.090488,1.636098 c 0.141302,0.09073 0.272746,0.136098 0.393779,0.136098 0.221988,0 0.696644,-0.358268 1.423593,-1.075363 0.727319,-0.716909 1.227073,-1.2624 1.499446,-1.636099 0.09092,-0.100949 0.136459,-0.216969 0.136459,-0.348229 0,-0.131256 -0.05038,-0.25787 -0.151518,-0.37872 -0.726949,-0.888698 -1.267232,-1.585341 -1.620854,-2.0903 0.20191,-0.373702 0.398986,-0.83311 0.590855,-1.378414 l 2.802192,-0.423899 c 0.121039,-0.02026 0.22236,-0.08608 0.303049,-0.197261 0.08069,-0.111184 0.120849,-0.22738 0.120849,-0.348415 v -3.362554 c 1.86e-4,-0.131256 -0.03997,-0.249691 -0.121039,-0.355851 z m -8.770045,4.748591 c -0.757255,0.757438 -1.671239,1.136158 -2.741768,1.136158 -1.070529,0 -1.984327,-0.37872 -2.741766,-1.136158 -0.757254,-0.757255 -1.135974,-1.671053 -1.135974,-2.741582 0,-1.070529 0.378534,-1.984327 1.135974,-2.741766 0.757439,-0.757254 1.671423,-1.135974 2.741766,-1.135974 1.070529,0 1.984513,0.37872 2.741768,1.135974 0.757252,0.757439 1.135972,1.671237 1.135972,2.741766 0,1.070529 -0.37872,1.984327 -1.135972,2.741582 z"
     style="fill:url(#b);stroke-width:0.10790659" />
</svg>
