<?xml version="1.0" encoding="UTF-8" standalone="no"?>
<svg
   xmlns:dc="http://purl.org/dc/elements/1.1/"
   xmlns:cc="http://creativecommons.org/ns#"
   xmlns:rdf="http://www.w3.org/1999/02/22-rdf-syntax-ns#"
   xmlns:svg="http://www.w3.org/2000/svg"
   xmlns="http://www.w3.org/2000/svg"
   xmlns:xlink="http://www.w3.org/1999/xlink"
   xmlns:sodipodi="http://sodipodi.sourceforge.net/DTD/sodipodi-0.dtd"
   xmlns:inkscape="http://www.inkscape.org/namespaces/inkscape"
   id="svg30"
   version="1.1"
   width="48"
   height="48"
   sodipodi:docname="gnome-panel-launcher.svg"
   inkscape:version="0.92.2 5c3e80d, 2017-08-06">
  <sodipodi:namedview
     pagecolor="#ffffff"
     bordercolor="#666666"
     borderopacity="1"
     objecttolerance="10"
     gridtolerance="10"
     guidetolerance="10"
     inkscape:pageopacity="0"
     inkscape:pageshadow="2"
     inkscape:window-width="1366"
     inkscape:window-height="701"
     id="namedview29"
     showgrid="false"
     inkscape:zoom="4.9166667"
     inkscape:cx="10.576271"
     inkscape:cy="56.542373"
     inkscape:window-x="0"
     inkscape:window-y="0"
     inkscape:window-maximized="1"
     inkscape:current-layer="svg30" />
  <metadata
     id="metadata36">
    <rdf:RDF>
      <cc:Work
         rdf:about="">
        <dc:format>image/svg+xml</dc:format>
        <dc:type
           rdf:resource="http://purl.org/dc/dcmitype/StillImage" />
        <dc:title></dc:title>
      </cc:Work>
    </rdf:RDF>
  </metadata>
  <defs
     id="defs34">
    <linearGradient
       inkscape:collect="always"
       id="linearGradient840">
      <stop
         style="stop-color:#666666;stop-opacity:1;"
         offset="0"
         id="stop836" />
      <stop
         style="stop-color:#898989;stop-opacity:1"
         offset="1"
         id="stop838" />
    </linearGradient>
    <linearGradient
       y2="507.47299"
       y1="542.79797"
       x2="409.72055"
       x1="409.57144"
       gradientUnits="userSpaceOnUse"
       gradientTransform="matrix(0.93161886,0,0,1.0102051,-356.63286,-504.32799)"
       id="a-3">
      <stop
         style="stop-color:#595959;stop-opacity:1"
         id="stop2-6"
         stop-color="#00a199"
         offset="0" />
      <stop
         style="stop-color:#808080;stop-opacity:1"
         id="stop4-7"
         stop-opacity=".988235"
         stop-color="#00f89a"
         offset="1" />
    </linearGradient>
    <linearGradient
       gradientTransform="matrix(0.1859203,0,0,0.1859203,12.28728,14.112737)"
       y2="1041.4948"
       y1="1041.4948"
       x2="18.771702"
       x1="3.1466999"
       gradientUnits="userSpaceOnUse"
       id="b-3">
      <stop
         id="stop7-6"
         stop-color="#e6f3ff"
         offset="0" />
      <stop
         id="stop9-7"
         stop-color="#dcffe7"
         offset="1" />
    </linearGradient>
    <linearGradient
       inkscape:collect="always"
       xlink:href="#linearGradient840"
       id="linearGradient842"
       x1="25.220337"
       y1="42.706993"
       x2="25.220337"
       y2="10.414769"
       gradientUnits="userSpaceOnUse" />
  </defs>
  <linearGradient
     y2="507.798"
     y1="542.79797"
     x2="409.57144"
     x1="409.57144"
     gradientUnits="userSpaceOnUse"
     gradientTransform="matrix(0.99999992,0,0,0.97650999,-368.9104,-530.03336)"
     id="a">
    <stop
       id="stop2"
       stop-color="#566069"
       offset="0" />
    <stop
       id="stop4"
       stop-color="#6c7884"
       offset="1" />
  </linearGradient>
  <linearGradient
     gradientTransform="matrix(0.65762761,0,0,0.65762761,-205.4389,-360.38348)"
     y2="497.234375569857"
     y1="546.473296635663"
     x2="371.188124314451"
     x1="371.647015773641"
     gradientUnits="userSpaceOnUse"
     id="b">
    <stop
       id="stop7"
       stop-color="#ccc"
       offset="0" />
    <stop
       id="stop9"
       stop-color="#f5f2f5"
       offset="1" />
  </linearGradient>
  <path
     style="fill:#34495e;fill-opacity:1;stroke:none;stroke-width:0.75862068"
     d="m 2.7586205,3.5172413 c -0.4203047,0 -0.7586207,0.3383449 -0.7586207,0.7586207 v 38.689655 0.758621 c 0,0.420276 0.338316,0.758621 0.7586207,0.758621 H 3.5172412 45.241379 C 45.661684,44.482759 46,44.144414 46,43.724138 V 4.275862 C 46,3.8555862 45.661684,3.5172413 45.241379,3.5172413 H 3.5172412 Z"
     id="rect4148-2" />
  <g
     id="g873"
     transform="matrix(0.98892453,0,0,0.98892453,62.738697,6.745991)"
     style="fill:#ff5555">
    <circle
       r="1"
       cy="-0.7965467"
       cx="-20.3729"
       id="path4155-0"
       style="opacity:1;fill:#ff5555;fill-opacity:1;stroke:none;stroke-opacity:1" />
    <circle
       r="1"
       cy="-0.7965467"
       cx="-23.75263"
       id="circle858"
       style="opacity:1;fill:#ff5555;fill-opacity:1;stroke:none;stroke-opacity:1" />
    <circle
       r="1"
       cy="-0.86845589"
       cx="-27.204269"
       id="circle860"
       style="opacity:1;fill:#ff5555;fill-opacity:1;stroke:none;stroke-opacity:1" />
    <circle
       style="opacity:1;fill:#ff5555;fill-opacity:1;stroke:none;stroke-opacity:1"
       id="circle856"
       cx="-27.13236"
       cy="-0.7965467"
       r="1" />
  </g>
  <rect
     id="rect12-6"
     y="8.6521521"
     x="3.5043848"
     width="40.99123"
     ry="1.0812595"
     height="34.34697"
     style="fill:url(#linearGradient842);stroke-width:0.65762758;fill-opacity:1"
     rx="1.0812595" />
  <path
     d="m 31.91942,13.303938 c -5.087315,0 -6.041665,7.432807 -3.179368,7.432807 2.861133,0 8.26731,-7.432807 3.179368,-7.432807 z m -7.836068,1.143552 c -0.08013,-2.82e-4 -0.167254,0.0073 -0.257438,0.01608 -2.882947,0.350123 -1.868291,5.041545 -0.33358,5.129032 1.486053,0.08531 3.111877,-5.136527 0.590018,-5.144685 z m -4.998892,1.73198 c -0.176374,-0.01077 -0.371626,0.02144 -0.589,0.106981 -2.317193,0.914922 -0.351613,4.691704 0.945619,4.437817 1.177411,-0.230065 1.34621,-4.438607 -0.356619,-4.545001 z m -3.782214,3.087747 c -0.201403,-0.0054 -0.418705,0.06132 -0.651106,0.227768 -1.854863,1.331038 0.624078,4.546664 1.715456,4.048103 0.954649,-0.43672 0.345599,-4.226729 -1.064596,-4.275871 z m 10.955148,3.069805 c -4.018876,-0.06623 -9.320512,1.894674 -10.224878,5.833748 -0.978679,4.262425 4.031533,10.176564 9.258628,10.176564 2.571407,0 5.537226,-2.259595 6.092594,-5.121228 0.423738,-2.181856 -4.9872,-1.307462 -4.793055,0.136129 0.233401,1.730692 -1.305046,2.586207 -2.811529,1.47071 -4.795363,-3.551768 7.940234,-5.324105 7.100208,-10.176584 -0.261453,-1.510545 -2.2107,-2.279754 -4.621968,-2.319447 z"
     id="path26"
     style="fill:#ffffff;fill-opacity:0.85204103;stroke-width:0.65762752" />
</svg>
