<?xml version="1.0" encoding="UTF-8" standalone="no"?>
<svg
   xmlns:dc="http://purl.org/dc/elements/1.1/"
   xmlns:cc="http://creativecommons.org/ns#"
   xmlns:rdf="http://www.w3.org/1999/02/22-rdf-syntax-ns#"
   xmlns:svg="http://www.w3.org/2000/svg"
   xmlns="http://www.w3.org/2000/svg"
   xmlns:xlink="http://www.w3.org/1999/xlink"
   xmlns:sodipodi="http://sodipodi.sourceforge.net/DTD/sodipodi-0.dtd"
   xmlns:inkscape="http://www.inkscape.org/namespaces/inkscape"
   height="48"
   viewBox="0 0 48 48"
   width="48"
   version="1.1"
   id="svg29"
   sodipodi:docname="gnome-tweaks.svg"
   inkscape:version="0.92.2 2405546, 2018-03-11">
  <metadata
     id="metadata35">
    <rdf:RDF>
      <cc:Work
         rdf:about="">
        <dc:format>image/svg+xml</dc:format>
        <dc:type
           rdf:resource="http://purl.org/dc/dcmitype/StillImage" />
      </cc:Work>
    </rdf:RDF>
  </metadata>
  <defs
     id="defs33">
    <linearGradient
       id="linearGradient982">
      <stop
         id="stop978"
         offset="0"
         style="stop-color:#59c110;stop-opacity:1" />
      <stop
         id="stop980"
         offset="1"
         style="stop-color:#87d82e;stop-opacity:1" />
    </linearGradient>
    <linearGradient
       id="linearGradient976">
      <stop
         id="stop972"
         offset="0"
         style="stop-color:#ff0f0f;stop-opacity:1" />
      <stop
         id="stop974"
         offset="1"
         style="stop-color:#ff4444;stop-opacity:1" />
    </linearGradient>
    <linearGradient
       id="linearGradient890">
      <stop
         style="stop-color:#f1f1f1;stop-opacity:1"
         offset="0"
         id="stop886" />
      <stop
         style="stop-color:#f9f9f9;stop-opacity:1"
         offset="1"
         id="stop888" />
    </linearGradient>
    <linearGradient
       id="linearGradient882">
      <stop
         style="stop-color:#ff0000;stop-opacity:1;"
         offset="0"
         id="stop878" />
      <stop
         style="stop-color:#ff4444;stop-opacity:1"
         offset="1"
         id="stop880" />
    </linearGradient>
    <linearGradient
       id="linearGradient874">
      <stop
         style="stop-color:#009bc2;stop-opacity:1"
         offset="0"
         id="stop870" />
      <stop
         style="stop-color:#00c6f7;stop-opacity:1"
         offset="1"
         id="stop872" />
    </linearGradient>
    <linearGradient
       xlink:href="#linearGradient874"
       id="linearGradient876"
       x1="9.7796459"
       y1="6.4365029"
       x2="19.787357"
       y2="16.503786"
       gradientUnits="userSpaceOnUse"
       gradientTransform="translate(-1.6466493,-0.19114146)" />
    <linearGradient
       xlink:href="#linearGradient882"
       id="linearGradient884"
       x1="33.078217"
       y1="34.337257"
       x2="27.181664"
       y2="27.721615"
       gradientUnits="userSpaceOnUse"
       gradientTransform="translate(-1.6466493,-0.19114146)" />
    <linearGradient
       xlink:href="#linearGradient890"
       id="linearGradient892"
       x1="23.873842"
       y1="44.979816"
       x2="23.873842"
       y2="2.1219532"
       gradientUnits="userSpaceOnUse"
       gradientTransform="translate(-1.6466493,-0.19114146)" />
    <linearGradient
       gradientTransform="translate(-419.00001,-506.71113)"
       gradientUnits="userSpaceOnUse"
       x2="425.21"
       y2="513.95"
       x1="395.91"
       y1="525.26"
       id="a-3">
      <stop
         id="stop2-6"
         stop-color="#da4453" />
      <stop
         id="stop4-7"
         stop-color="#ff7336"
         offset="1" />
    </linearGradient>
    <linearGradient
       gradientUnits="userSpaceOnUse"
       x2="44"
       y2="33.75"
       x1="26.362"
       y1="44.09"
       id="b-5">
      <stop
         id="stop7-3"
         stop-color="#c0392b" />
      <stop
         id="stop9-5"
         stop-opacity="0"
         stop-color="#c0392b"
         offset="1" />
    </linearGradient>
    <linearGradient
       gradientUnits="userSpaceOnUse"
       x2="398.82"
       y2="528.52"
       x1="388.57"
       y1="519.85"
       id="c-6">
      <stop
         id="stop12-2"
         stop-color="#4d4d4d" />
      <stop
         id="stop14-9"
         stop-color="#31363b"
         offset="1" />
    </linearGradient>
    <linearGradient
       gradientUnits="userSpaceOnUse"
       x2="422.73"
       y2="537.95"
       x1="394.57"
       y1="509.8"
       id="d">
      <stop
         id="stop17"
         stop-color="#e5e7e8" />
      <stop
         id="stop19"
         stop-color="#dcdee0"
         offset="1" />
    </linearGradient>
    <linearGradient
       gradientTransform="matrix(0.70711,0.70711,-0.70711,0.70711,105.48,-635.29)"
       gradientUnits="userSpaceOnUse"
       x2="427.57"
       x1="389.57"
       id="e">
      <stop
         id="stop22"
         stop-color="#fcfcfc" />
      <stop
         id="stop24"
         stop-color="#eff0f1"
         offset="1" />
    </linearGradient>
    <linearGradient
       gradientTransform="translate(-444.75968,-516.38672)"
       x2="799.04"
       gradientUnits="userSpaceOnUse"
       y2="160.66"
       x1="771.7"
       y1="133.33"
       id="f"
       xlink:href="#d" />
    <linearGradient
       gradientTransform="matrix(0.49677,0,0,0.76923,-191.25657,-404.02657)"
       x2="0"
       gradientUnits="userSpaceOnUse"
       y2="528.8"
       y1="551.8"
       id="g">
      <stop
         id="stop28"
         stop-color="#c6cdd1" />
      <stop
         id="stop30"
         stop-color="#e0e5e7"
         offset="1" />
    </linearGradient>
    <linearGradient
       gradientTransform="matrix(0.61141,0,0,0.76923,-238.90657,-386.33657)"
       x2="0"
       gradientUnits="userSpaceOnUse"
       y2="505.8"
       y1="557.8"
       id="h">
      <stop
         id="stop33"
         stop-color="#42a603" />
      <stop
         id="stop35"
         stop-color="#78da06"
         offset="1" />
    </linearGradient>
    <linearGradient
       gradientTransform="matrix(1.5625 0 0 1.53847-227.95-292.82)"
       gradientUnits="userSpaceOnUse"
       x2="400.57"
       x1="398.57"
       id="i">
      <stop
         id="stop38"
         stop-color="#faae2a" />
      <stop
         id="stop40"
         stop-color="#ffc35a"
         offset="1" />
    </linearGradient>
    <linearGradient
       gradientTransform="matrix(1.5625,0,0,1.53847,-604.39657,-793.87657)"
       x2="400.57"
       gradientUnits="userSpaceOnUse"
       x1="398.57"
       id="j"
       xlink:href="#i" />
    <linearGradient
       gradientTransform="matrix(1.1580635,0,0,1.4383458,-439.42451,-734.17514)"
       gradientUnits="userSpaceOnUse"
       x2="390.65"
       y2="529.73"
       x1="410.5"
       y1="539.88"
       id="k">
      <stop
         id="stop44"
         stop-color="#bcfd93" />
      <stop
         id="stop46"
         stop-color="#fafff5"
         offset="1" />
    </linearGradient>
    <linearGradient
       gradientTransform="matrix(1,0,0,1.0440589,7.9999935,-1.176223)"
       gradientUnits="userSpaceOnUse"
       x2="34.19"
       y2="54.612"
       x1="14.187"
       y1="34.612"
       id="l">
      <stop
         id="stop49"
         stop-color="#383e51" />
      <stop
         id="stop51"
         stop-opacity="0"
         stop-color="#655c6f"
         offset="1" />
    </linearGradient>
    <linearGradient
       gradientTransform="matrix(0.61141,0,0,0.76923,-238.90657,-386.33657)"
       x2="0"
       gradientUnits="userSpaceOnUse"
       y2="505.79999"
       y1="557.79999"
       id="h-7">
      <stop
         id="stop33-5"
         stop-color="#42a603" />
      <stop
         id="stop35-3"
         stop-color="#78da06"
         offset="1" />
    </linearGradient>
    <linearGradient
       gradientTransform="matrix(0.49677,0,0,0.76923,-191.25657,-404.02657)"
       x2="0"
       gradientUnits="userSpaceOnUse"
       y2="528.79999"
       y1="551.79999"
       id="g-5">
      <stop
         id="stop28-6"
         stop-color="#c6cdd1" />
      <stop
         id="stop30-2"
         stop-color="#e0e5e7"
         offset="1" />
    </linearGradient>
    <linearGradient
       gradientTransform="matrix(1.5625,0,0,1.53847,-227.95,-292.82)"
       gradientUnits="userSpaceOnUse"
       x2="400.57001"
       x1="398.57001"
       id="i-9">
      <stop
         id="stop38-1"
         stop-color="#faae2a" />
      <stop
         id="stop40-2"
         stop-color="#ffc35a"
         offset="1" />
    </linearGradient>
    <linearGradient
       gradientTransform="matrix(1.5625,0,0,1.53847,-604.39657,-793.87657)"
       x2="400.57001"
       gradientUnits="userSpaceOnUse"
       x1="398.57001"
       id="j-7"
       xlink:href="#i-9" />
    <linearGradient
       gradientTransform="matrix(1.5625,0,0,1.53847,-227.95,-292.82)"
       gradientUnits="userSpaceOnUse"
       x2="400.57001"
       x1="398.57001"
       id="linearGradient1040">
      <stop
         id="stop1036"
         stop-color="#faae2a" />
      <stop
         id="stop1038"
         stop-color="#ffc35a"
         offset="1" />
    </linearGradient>
    <linearGradient
       gradientTransform="matrix(0.61141,0,0,0.80312143,-229.65001,-403.22242)"
       x2="0"
       gradientUnits="userSpaceOnUse"
       y2="505.79999"
       y1="557.79999"
       id="h-7-6">
      <stop
         id="stop33-5-1"
         stop-color="#42a603" />
      <stop
         id="stop35-3-8"
         stop-color="#78da06"
         offset="1" />
    </linearGradient>
    <linearGradient
       gradientTransform="matrix(0.49677,0,0,0.80312143,-182.00001,-421.69183)"
       x2="0"
       gradientUnits="userSpaceOnUse"
       y2="528.79999"
       y1="551.79999"
       id="g-5-7">
      <stop
         id="stop28-6-9"
         stop-color="#c6cdd1" />
      <stop
         id="stop30-2-2"
         stop-color="#e0e5e7"
         offset="1" />
    </linearGradient>
    <linearGradient
       gradientTransform="matrix(1.5625,0,0,1.53847,-227.95,-292.82)"
       gradientUnits="userSpaceOnUse"
       x2="400.57001"
       x1="398.57001"
       id="i-9-0">
      <stop
         id="stop38-1-2"
         stop-color="#faae2a" />
      <stop
         id="stop40-2-3"
         stop-color="#ffc35a"
         offset="1" />
    </linearGradient>
    <linearGradient
       gradientTransform="matrix(1.5625,0,0,1.6062533,-595.14001,-828.71819)"
       x2="400.57001"
       gradientUnits="userSpaceOnUse"
       x1="398.57001"
       id="j-7-7"
       xlink:href="#i-9-0" />
    <linearGradient
       gradientTransform="matrix(1.5625,0,0,1.53847,-227.95,-292.82)"
       gradientUnits="userSpaceOnUse"
       x2="400.57001"
       x1="398.57001"
       id="linearGradient1181">
      <stop
         id="stop1177"
         stop-color="#faae2a" />
      <stop
         id="stop1179"
         stop-color="#ffc35a"
         offset="1" />
    </linearGradient>
    <linearGradient
       xlink:href="#linearGradient4793"
       id="linearGradient2100"
       x1="24"
       y1="46"
       x2="23.178896"
       y2="14.592526"
       gradientUnits="userSpaceOnUse"
       gradientTransform="matrix(1,0,0,0.99809762,-41.629865,-1.1746768)" />
    <linearGradient
       id="linearGradient4793">
      <stop
         style="stop-color:#54b60f;stop-opacity:1"
         offset="0"
         id="stop4795" />
      <stop
         style="stop-color:#92dc41;stop-opacity:1"
         offset="1"
         id="stop4797" />
    </linearGradient>
    <linearGradient
       id="linearGradient1036"
       gradientUnits="userSpaceOnUse"
       x1="350.06647"
       x2="350.06647"
       y1="547.07416"
       y2="499.07401"
       gradientTransform="translate(-483.41898,-513.83194)">
      <stop
         offset="0"
         stop-color="#3889e9"
         id="stop7-36" />
      <stop
         offset="1"
         stop-color="#5ea5fb"
         id="stop9-7" />
    </linearGradient>
    <linearGradient
       inkscape:collect="always"
       xlink:href="#linearGradient982"
       id="linearGradient920"
       x1="24.129076"
       y1="36.972687"
       x2="24.129076"
       y2="10.769164"
       gradientUnits="userSpaceOnUse"
       gradientTransform="matrix(1.6660601,0,0,1.6660601,-15.984797,-15.981597)" />
    <linearGradient
       inkscape:collect="always"
       xlink:href="#b"
       id="linearGradient964"
       gradientUnits="userSpaceOnUse"
       gradientTransform="translate(-527.47933,-508.63728)"
       x1="350.06647"
       y1="547.07416"
       x2="350.06647"
       y2="499.07401" />
    <linearGradient
       y2="499.07401"
       x2="350.06647"
       y1="547.07416"
       x1="350.06647"
       gradientTransform="translate(-484.89861,-508.63728)"
       gradientUnits="userSpaceOnUse"
       id="linearGradient998"
       xlink:href="#b"
       inkscape:collect="always" />
  </defs>
  <sodipodi:namedview
     pagecolor="#ffffff"
     bordercolor="#666666"
     borderopacity="1"
     objecttolerance="10"
     gridtolerance="10"
     guidetolerance="10"
     inkscape:pageopacity="0"
     inkscape:pageshadow="2"
     inkscape:window-width="1366"
     inkscape:window-height="699"
     id="namedview31"
     showgrid="false"
     inkscape:zoom="10.145833"
     inkscape:cx="24"
     inkscape:cy="24"
     inkscape:window-x="0"
     inkscape:window-y="0"
     inkscape:window-maximized="1"
     inkscape:current-layer="svg29" />
  <linearGradient
     id="a"
     gradientUnits="userSpaceOnUse"
     x1="410.445439049232"
     x2="410.445439049232"
     y1="544.123707570166"
     y2="504.2732340244"
     gradientTransform="translate(-431.75787,-500.81495)">
    <stop
       offset="0"
       stop-color="#97a9b1"
       id="stop2" />
    <stop
       offset="1"
       stop-color="#cfdce1"
       id="stop4" />
  </linearGradient>
  <linearGradient
     id="b"
     gradientUnits="userSpaceOnUse"
     x1="350.066473577608"
     x2="350.066473577608"
     y1="547.074134049879"
     y2="499.073994449879"
     gradientTransform="translate(-483.41898,-513.83194)">
    <stop
       offset="0"
       stop-color="#3889e9"
       id="stop7" />
    <stop
       offset="1"
       stop-color="#5ea5fb"
       id="stop9" />
  </linearGradient>
  <linearGradient
     id="c"
     gradientTransform="matrix(0.82536309,0,0,0.82532602,4.19103,4.189914)"
     gradientUnits="userSpaceOnUse"
     x1="23.526918"
     x2="24.064453"
     y1="39.175846"
     y2="8">
    <stop
       offset="0"
       stop-color="#1d1e1e"
       id="stop12"
       style="stop-color:#009ec6;stop-opacity:1" />
    <stop
       offset="1"
       stop-color="#44484c"
       id="stop14"
       style="stop-color:#00c1f1;stop-opacity:1" />
  </linearGradient>
  <circle
     style="fill:url(#linearGradient998)"
     id="circle21"
     r="0"
     cy="14.436691"
     cx="-133.11794" />
  <g
     id="layer2"
     style="display:inline"
     transform="translate(-0.4627692,-8.8392815)" />
  <g
     id="layer1"
     style="display:inline"
     transform="translate(-0.4627692,-8.8392815)" />
  <g
     id="layer2-3"
     style="display:inline"
     transform="matrix(0.87848742,0,0,0.88510278,1.4965758,7.8704785)" />
  <g
     id="layer1-6"
     style="display:inline"
     transform="matrix(0.87848742,0,0,0.88510278,1.4965758,7.8704785)" />
  <path
     style="clip-rule:evenodd;fill:url(#linearGradient920);fill-opacity:1;fill-rule:evenodd;stroke-width:0.93449414"
     d="M 24.088685,1.9996909 C 23.262746,1.9982309 22.43294,2.0407099 21.608743,2.131686 20.970877,2.202094 20.50076,2.75109 20.522227,3.3900751 20.593877,5.430151 19.383677,7.3178577 17.508229,8.0860155 15.709717,8.8206385 13.372211,8.2823527 12.063396,6.8429816 11.630821,6.3688246 10.90687,6.3121281 10.402937,6.7048413 9.0843148,7.7393582 7.8840396,8.9256801 6.8426056,10.225255 c -0.406221,0.505238 -0.345924,1.234989 0.131995,1.66967 1.531316,1.386664 2.0262932,3.594068 1.230761,5.490875 -0.7595,1.808443 -2.638154,2.974099 -4.788011,2.974099 -0.697632,-0.02247 -1.194336,0.44612 -1.270677,1.080373 -0.193486,1.65287 -0.194405,3.336555 -0.0095,5.002863 0.06899,0.621162 0.812063,1.083454 1.442546,1.083454 1.915899,-0.04903 3.752455,1.136284 4.52407,3.013982 0.7691942,1.875215 0.274218,4.059204 -1.230761,5.438704 -0.470699,0.432355 -0.525635,1.154624 -0.128855,1.657394 1.022308,1.302029 2.1952732,2.486055 3.4805174,3.520416 0.50409,0.406188 1.235759,0.352477 1.672732,-0.128855 1.316342,-1.455951 3.671652,-1.994801 5.484748,-1.233825 1.899035,0.794322 3.094112,2.714212 2.977164,4.775738 -0.03819,0.64747 0.437743,1.208966 1.080373,1.28295 0.840696,0.09807 1.684047,0.147252 2.532127,0.147252 0.80501,0 1.613522,-0.04542 2.418562,-0.134981 0.638041,-0.07041 1.107937,-0.618256 1.086518,-1.258385 -0.07386,-2.03893 1.137888,-3.926009 3.010918,-4.692877 1.810611,-0.739495 4.138954,-0.194876 5.447911,1.243034 0.434993,0.473148 1.153776,0.52639 1.66046,0.13498 1.316202,-1.032082 2.51393,-2.214192 3.560315,-3.517351 0.406031,-0.50409 0.348218,-1.238227 -0.131995,-1.672733 -1.531318,-1.386697 -2.029358,-3.592293 -1.233826,-5.48781 0.747902,-1.784369 2.557695,-2.983293 4.502573,-2.983293 l 0.273165,0.0095 c 0.630828,0.05139 1.209564,-0.436469 1.286014,-1.080373 0.193854,-1.654362 0.196352,-3.336555 0.0095,-5.002877 h 0.0031 c -0.06961,-0.618524 -0.791306,-1.080373 -1.41492,-1.080373 -2.016267,0 -3.807458,-1.186242 -4.557825,-3.017063 -0.766555,-1.875231 -0.271925,-4.060413 1.230761,-5.438702 0.473023,-0.432388 0.531607,-1.157692 0.13498,-1.660462 C 40.226088,9.0501926 39.052041,7.8660088 37.771386,6.8401649 37.269888,6.4377475 36.533489,6.4968342 36.098653,6.9783052 34.78723,8.4306238 32.431087,8.9685335 30.610843,8.2090663 28.716423,7.4121987 27.52294,5.4936751 27.639824,3.4333279 27.678324,2.7861253 27.204673,2.2224601 26.559451,2.1473146 25.73747,2.0522296 24.914562,2.0022731 24.088609,1.9999081 Z"
     id="path930"
     inkscape:connector-curvature="0" />
  <circle
     cx="-175.69865"
     cy="14.436691"
     r="0"
     id="circle948"
     style="fill:url(#linearGradient964)" />
  <g
     transform="translate(-43.04349,-8.8392815)"
     style="display:inline"
     id="g950" />
  <g
     transform="translate(-43.04349,-8.8392815)"
     style="display:inline"
     id="g952" />
  <g
     transform="matrix(0.87848742,0,0,0.88510278,-41.084145,7.8704785)"
     style="display:inline"
     id="g958" />
  <g
     transform="matrix(0.87848742,0,0,0.88510278,-41.084145,7.8704785)"
     style="display:inline"
     id="g960" />
  <g
     id="g937"
     style="fill:#ffffff;stroke-width:1.15879464"
     transform="matrix(0.86296566,0,0,0.86296566,1.7741691,8.0324906)">
    <path
       id="path928"
       d="m 33.195389,6.9151178 c 4.821986,0 -0.30186,6.8658962 -3.014,6.8658962 -2.712528,0 -1.807796,-6.8658962 3.014,-6.8658962 z"
       style="clip-rule:evenodd;fill:#ffffff;fill-opacity:1;fill-rule:evenodd;stroke-width:1.08288682"
       inkscape:connector-curvature="0" />
    <path
       id="path926"
       d="m 25.503867,7.77145 c 2.71448,-0.3522113 1.128131,5.24755 -0.316145,5.159393 -1.444855,-0.08815 -2.397391,-4.8072012 0.316145,-5.159393 z"
       style="clip-rule:evenodd;fill:#ffffff;fill-opacity:1;fill-rule:evenodd;stroke-width:1.08288682"
       inkscape:connector-curvature="0" />
    <path
       id="path924"
       d="m 20.955236,9.6283397 c 1.784935,-0.1894534 1.655871,4.2320153 0.509495,4.4657393 -1.221819,0.249687 -3.074153,-3.464472 -0.893149,-4.3644584 0.13626,-0.056256 0.264663,-0.08863 0.383654,-0.1011917 z"
       style="clip-rule:evenodd;fill:#ffffff;fill-opacity:1;fill-rule:evenodd;stroke-width:1.08288682"
       inkscape:connector-curvature="0" />
    <path
       id="path922"
       d="m 17.56679,12.534915 c 1.327407,0.04462 1.902449,3.480814 1.003657,3.876443 -1.027197,0.451949 -3.360331,-2.464477 -1.614433,-3.670818 0.218338,-0.150702 0.42115,-0.212006 0.610776,-0.205625 z"
       style="clip-rule:evenodd;fill:#ffffff;fill-opacity:1;fill-rule:evenodd;stroke-width:1.08288682"
       inkscape:connector-curvature="0" />
    <path
       id="path25"
       d="m 27.538773,14.763171 c 2.245778,0.03803 4.059721,0.776157 4.303076,2.222146 0.781812,4.645416 -11.077214,6.3415 -6.611148,9.741779 1.402915,1.068149 2.835013,0.251198 2.618058,-1.405728 v -0.0031 c -0.181099,-1.382266 4.857405,-2.21798 4.462687,-0.128855 -0.516836,2.739578 -3.276949,4.901598 -5.671968,4.901598 -4.868439,0 -9.536517,-5.661032 -8.624572,-9.741781 0.842032,-3.770889 5.780887,-5.649357 9.523867,-5.586029 z"
       style="clip-rule:evenodd;fill:#ffffff;fill-opacity:1;fill-rule:evenodd;stroke-width:1.08288682"
       inkscape:connector-curvature="0" />
  </g>
</svg>
