<?xml version="1.0" encoding="UTF-8" standalone="no"?>
<svg
   xmlns:dc="http://purl.org/dc/elements/1.1/"
   xmlns:cc="http://creativecommons.org/ns#"
   xmlns:rdf="http://www.w3.org/1999/02/22-rdf-syntax-ns#"
   xmlns:svg="http://www.w3.org/2000/svg"
   xmlns="http://www.w3.org/2000/svg"
   xmlns:sodipodi="http://sodipodi.sourceforge.net/DTD/sodipodi-0.dtd"
   xmlns:inkscape="http://www.inkscape.org/namespaces/inkscape"
   height="48"
   width="48"
   version="1.1"
   id="svg25"
   sodipodi:docname="guake-prefs.svg"
   inkscape:version="0.92.2 5c3e80d, 2017-08-06">
  <metadata
     id="metadata31">
    <rdf:RDF>
      <cc:Work
         rdf:about="">
        <dc:format>image/svg+xml</dc:format>
        <dc:type
           rdf:resource="http://purl.org/dc/dcmitype/StillImage" />
      </cc:Work>
    </rdf:RDF>
  </metadata>
  <defs
     id="defs29" />
  <sodipodi:namedview
     pagecolor="#ffffff"
     bordercolor="#666666"
     borderopacity="1"
     objecttolerance="10"
     gridtolerance="10"
     guidetolerance="10"
     inkscape:pageopacity="0"
     inkscape:pageshadow="2"
     inkscape:window-width="709"
     inkscape:window-height="480"
     id="namedview27"
     showgrid="false"
     inkscape:zoom="4.9166667"
     inkscape:cx="24"
     inkscape:cy="24"
     inkscape:window-x="0"
     inkscape:window-y="0"
     inkscape:window-maximized="0"
     inkscape:current-layer="svg25" />
  <linearGradient
     id="a"
     gradientTransform="matrix(1,0,0,0.97651015,-2.6e-5,11.327455)"
     gradientUnits="userSpaceOnUse"
     x1="409.57144"
     x2="409.57144"
     y1="542.79797"
     y2="507.798">
    <stop
       offset="0"
       stop-color="#2a2c2f"
       id="stop2" />
    <stop
       offset="1"
       stop-color="#424649"
       id="stop4" />
  </linearGradient>
  <g
     id="g11"
     transform="translate(-384.57144,-500.29817)">
    <rect
       style="fill-opacity:0.66666697"
       id="rect7"
       y="508.19766"
       x="386.57144"
       width="44"
       ry="1.562416"
       height="33.201344" />
    <rect
       style="fill:url(#a)"
       id="rect9"
       y="507.19733"
       x="386.57144"
       width="44"
       ry="1.562416"
       height="33.201344" />
  </g>
  <path
     style="clip-rule:evenodd;fill:#76e049;fill-rule:evenodd;stroke-width:0.08823177"
     inkscape:connector-curvature="0"
     id="path21"
     d="m 32.94345,23.000658 c -0.02846,-0.253025 -0.32348,-0.443161 -0.578581,-0.443161 -0.824773,0 -1.556654,-0.484282 -1.863592,-1.233242 -0.313568,-0.767109 -0.111376,-1.661735 0.503303,-2.225581 0.193485,-0.176876 0.216992,-0.472964 0.05472,-0.678638 -0.422131,-0.536053 -0.901926,-1.020268 -1.42579,-1.439921 -0.205138,-0.16462 -0.506115,-0.141715 -0.683995,0.05525 -0.536454,0.594118 -1.500063,0.814928 -2.244669,0.50424 -0.774878,-0.325958 -1.263514,-1.11115 -1.215695,-1.954006 0.01574,-0.264744 -0.177746,-0.49493 -0.441687,-0.525671 -0.672276,-0.07776 -1.350445,-0.08017 -2.024729,-0.0054 -0.260927,0.0288 -0.454412,0.25356 -0.445639,0.514956 0.02933,0.834551 -0.465195,1.606014 -1.232371,1.920251 -0.735699,0.300508 -1.692543,0.08157 -2.227926,-0.507254 -0.176942,-0.193954 -0.47303,-0.217796 -0.679173,-0.05713 -0.539401,0.423203 -1.029979,0.90782 -1.455994,1.439452 -0.166161,0.206679 -0.141715,0.506249 0.05371,0.684063 0.626399,0.567261 0.828658,1.469656 0.503235,2.245606 -0.310687,0.739784 -1.078868,1.216566 -1.958291,1.216566 -0.285373,-0.0092 -0.488636,0.182367 -0.519845,0.441821 -0.07916,0.67616 -0.0801,1.365111 -0.0039,2.046763 0.02826,0.254096 0.332254,0.442558 0.590167,0.442558 0.783718,-0.02003 1.536161,0.465195 1.851805,1.233309 0.314639,0.767109 0.11238,1.661199 -0.503236,2.225514 -0.192547,0.176876 -0.216993,0.472495 -0.05472,0.678169 0.41818,0.532637 0.898042,1.017321 1.42378,1.440457 0.20621,0.16616 0.506249,0.142719 0.685001,-0.05425 0.538463,-0.595591 1.502004,-0.815999 2.243664,-0.504708 0.77682,0.324953 1.265455,1.110078 1.217637,1.953403 -0.01561,0.264878 0.178818,0.495466 0.441687,0.525738 0.343907,0.04012 0.689889,0.06014 1.03681,0.06014 0.329306,0 0.65868,-0.01808 0.987986,-0.05472 0.260994,-0.0288 0.454345,-0.25356 0.445572,-0.515425 -0.0302,-0.834082 0.465195,-1.605545 1.231366,-1.919246 0.740655,-0.302518 1.693481,-0.08111 2.22893,0.507119 0.177948,0.193553 0.47196,0.216926 0.679241,0.05679 0.538397,-0.422199 1.027969,-0.906414 1.455994,-1.439519 0.166093,-0.20621 0.142653,-0.506249 -0.05378,-0.683996 -0.626399,-0.567262 -0.829662,-1.46979 -0.50424,-2.245204 0.305933,-0.72994 1.045583,-1.220048 1.841156,-1.220048 l 0.111309,0.0029 c 0.258047,0.02096 0.495467,-0.177813 0.526743,-0.441218 0.0793,-0.676763 0.08023,-1.365112 0.004,-2.046763 z m -8.929182,4.020392 c -1.65544,0 -3.002,-1.34656 -3.002,-3.002 0,-1.655373 1.34656,-3.002 3.002,-3.002 1.655373,0 3.001933,1.346627 3.001933,3.002 0,1.65544 -1.34656,3.002 -3.001933,3.002 z" />
</svg>
