<?xml version="1.0" encoding="UTF-8" standalone="no"?>
<svg
   xmlns:dc="http://purl.org/dc/elements/1.1/"
   xmlns:cc="http://creativecommons.org/ns#"
   xmlns:rdf="http://www.w3.org/1999/02/22-rdf-syntax-ns#"
   xmlns:svg="http://www.w3.org/2000/svg"
   xmlns="http://www.w3.org/2000/svg"
   xmlns:xlink="http://www.w3.org/1999/xlink"
   xmlns:sodipodi="http://sodipodi.sourceforge.net/DTD/sodipodi-0.dtd"
   xmlns:inkscape="http://www.inkscape.org/namespaces/inkscape"
   xml:space="preserve"
   enable-background="new 0 0 48 48"
   viewBox="0 0 48 48"
   y="0px"
   x="0px"
   id="图层_1"
   version="1.1"
   sodipodi:docname="gufw.svg"
   inkscape:version="0.92.4 (unknown)"><sodipodi:namedview
     pagecolor="#ffffff"
     bordercolor="#666666"
     borderopacity="1"
     objecttolerance="10"
     gridtolerance="10"
     guidetolerance="10"
     inkscape:pageopacity="0"
     inkscape:pageshadow="2"
     inkscape:window-width="1366"
     inkscape:window-height="709"
     id="namedview20"
     showgrid="false"
     inkscape:zoom="10.875"
     inkscape:cx="24"
     inkscape:cy="24"
     inkscape:window-x="0"
     inkscape:window-y="0"
     inkscape:window-maximized="1"
     inkscape:current-layer="图层_1" /><metadata
     id="metadata23"><rdf:RDF><cc:Work
         rdf:about=""><dc:format>image/svg+xml</dc:format><dc:type
           rdf:resource="http://purl.org/dc/dcmitype/StillImage" /><dc:title /></cc:Work></rdf:RDF></metadata><defs
     id="defs21"><linearGradient
       id="linearGradient890"><stop
         id="stop886"
         offset="0"
         style="stop-color:#f1f1f1;stop-opacity:1" /><stop
         id="stop888"
         offset="1"
         style="stop-color:#f9f9f9;stop-opacity:1" /></linearGradient><linearGradient
       id="linearGradient882"><stop
         id="stop878"
         offset="0"
         style="stop-color:#ff0000;stop-opacity:1;" /><stop
         id="stop880"
         offset="1"
         style="stop-color:#ff4444;stop-opacity:1" /></linearGradient><linearGradient
       id="linearGradient874"><stop
         id="stop870"
         offset="0"
         style="stop-color:#009bc2;stop-opacity:1" /><stop
         id="stop872"
         offset="1"
         style="stop-color:#00c6f7;stop-opacity:1" /></linearGradient><linearGradient
       gradientUnits="userSpaceOnUse"
       y2="16.503786"
       x2="19.787357"
       y1="6.4365029"
       x1="9.7796459"
       id="linearGradient876"
       xlink:href="#linearGradient874" /><linearGradient
       gradientUnits="userSpaceOnUse"
       y2="27.721615"
       x2="27.181664"
       y1="34.337257"
       x1="33.078217"
       id="linearGradient884"
       xlink:href="#linearGradient882" /><linearGradient
       gradientUnits="userSpaceOnUse"
       y2="2.1219532"
       x2="23.873842"
       y1="44.979816"
       x1="23.873842"
       id="linearGradient892"
       xlink:href="#linearGradient890" /><linearGradient
       gradientUnits="userSpaceOnUse"
       y2="2.1219532"
       x2="23.873842"
       y1="44.979816"
       x1="23.873842"
       id="linearGradient892-3"
       xlink:href="#linearGradient890" /><linearGradient
       gradientUnits="userSpaceOnUse"
       y2="16.503786"
       x2="19.787357"
       y1="6.4365029"
       x1="9.7796459"
       id="linearGradient876-5"
       xlink:href="#linearGradient874" /><linearGradient
       gradientUnits="userSpaceOnUse"
       y2="27.721615"
       x2="27.181664"
       y1="34.337257"
       x1="33.078217"
       id="linearGradient884-6"
       xlink:href="#linearGradient882" /></defs><g
     id="g830"
     transform="matrix(1.0555556,0,0,1.0682853,-1.3539506,-2.060319)"
     style="stroke-width:0.94170707"><path
       style="opacity:1;fill:url(#linearGradient892-3);fill-opacity:1;stroke:none;stroke-width:1.55664921;stroke-miterlimit:4;stroke-dasharray:none;stroke-opacity:1"
       d="m 7.7988281,3.8007812 a 28.412282,15.152542 0 0 0 -0.6582031,0.25 c -0.010823,0.00391 -0.020595,0.00941 -0.03125,0.013672 A 28.412282,15.152542 0 0 0 6.9101562,4.140625 h 0.070313 C 6.7219305,4.2920775 6.5267436,4.5429391 6.4863281,4.8574219 c -0.305,2.384 -0.4667969,4.8669217 -0.4667969,7.4199221 0,22.957 14.4129998,32.710937 17.9999998,32.710937 3.587,0 18,-9.805937 18,-32.710937 0,-2.5530005 -0.161797,-5.0349221 -0.466797,-7.4199221 -0.04042,-0.3151143 -0.235602,-0.5655525 -0.49414,-0.7167969 h 0.07227 c 0.0079,0 0.01566,0.00374 0.02344,0.00391 A 28.412282,15.152542 0 0 0 40.923835,4.060551 c -0.0078,-0.00306 -0.01554,-0.00495 -0.02344,-0.00781 A 28.412282,15.152542 0 0 0 40.193359,3.8007812 Z"
       id="path863"
       inkscape:connector-curvature="0" /><path
       d="M 29.983,6.452 H 9.877 C 9.403,6.452 9.004,6.78 8.965,7.207 8.816,8.879 8.74,10.576 8.74,12.279 c 0,4.637 0.615,8.683 1.603,12.179 0.175,0.62 1.024,0.833 1.524,0.381 L 30.625,7.854 C 31.196,7.336 30.791,6.452 29.983,6.452 Z"
       id="path6"
       style="fill:url(#linearGradient876-5);fill-opacity:1;stroke-width:0.94170707"
       inkscape:connector-curvature="0" /><path
       d="m 17.076,37.304 c 2.753,3.181 5.44,4.835 6.728,5.17 0.142,0.037 0.288,0.037 0.429,0 2.848,-0.743 12.544,-7.95 14.655,-23.856 0.103,-0.773 -0.938,-1.233 -1.546,-0.682 L 17.153,36.217 c -0.322,0.292 -0.358,0.763 -0.077,1.087 z"
       id="path8"
       style="fill:url(#linearGradient884-6);fill-opacity:1;stroke-width:0.94170707"
       inkscape:connector-curvature="0" /></g></svg>