<?xml version="1.0" encoding="UTF-8" standalone="no"?>
<svg
   xmlns:dc="http://purl.org/dc/elements/1.1/"
   xmlns:cc="http://creativecommons.org/ns#"
   xmlns:rdf="http://www.w3.org/1999/02/22-rdf-syntax-ns#"
   xmlns:svg="http://www.w3.org/2000/svg"
   xmlns="http://www.w3.org/2000/svg"
   xmlns:sodipodi="http://sodipodi.sourceforge.net/DTD/sodipodi-0.dtd"
   xmlns:inkscape="http://www.inkscape.org/namespaces/inkscape"
   height="48"
   width="48"
   version="1.1"
   id="svg141"
   sodipodi:docname="hexedit.svg"
   inkscape:version="0.92.2 5c3e80d, 2017-08-06">
  <metadata
     id="metadata147">
    <rdf:RDF>
      <cc:Work
         rdf:about="">
        <dc:format>image/svg+xml</dc:format>
        <dc:type
           rdf:resource="http://purl.org/dc/dcmitype/StillImage" />
      </cc:Work>
    </rdf:RDF>
  </metadata>
  <defs
     id="defs145" />
  <sodipodi:namedview
     pagecolor="#ffffff"
     bordercolor="#666666"
     borderopacity="1"
     objecttolerance="10"
     gridtolerance="10"
     guidetolerance="10"
     inkscape:pageopacity="0"
     inkscape:pageshadow="2"
     inkscape:window-width="709"
     inkscape:window-height="480"
     id="namedview143"
     showgrid="false"
     inkscape:zoom="4.9166667"
     inkscape:cx="24"
     inkscape:cy="24"
     inkscape:window-x="0"
     inkscape:window-y="0"
     inkscape:window-maximized="0"
     inkscape:current-layer="svg141" />
  <linearGradient
     id="a"
     gradientTransform="matrix(1.0909091,0,0,1.0652838,-37.003895,-35.003639)"
     gradientUnits="userSpaceOnUse"
     x1="409.57144"
     x2="409.57144"
     y1="542.79797"
     y2="507.798">
    <stop
       offset="0"
       stop-color="#2a2c2f"
       id="stop2" />
    <stop
       offset="1"
       stop-color="#424649"
       id="stop4" />
  </linearGradient>
  <g
     style="fill-opacity:0.66666697"
     id="g67"
     transform="matrix(0.91666667,0,0,0.91666667,-350.65122,-455.88371)">
    <rect
       style="fill-opacity:0.66666697"
       id="rect7"
       y="505.94531"
       x="384.71042"
       width="48"
       ry="1.7044539"
       height="36.219646" />
    <g
       style="fill-opacity:0.66666697"
       id="g65">
      <path
         inkscape:connector-curvature="0"
         id="path9"
         d="m 389.41537,516.5459 q 0.55,0 0.835,0.46 0.29,0.455 0.29,1.315 0,0.865 -0.29,1.325 -0.285,0.455 -0.835,0.455 -0.55,0 -0.84,-0.455 -0.285,-0.46 -0.285,-1.325 0,-0.86 0.285,-1.315 0.29,-0.46 0.84,-0.46 z m 0,0.34 q -0.69,0 -0.69,1.435 0,1.445 0.69,1.445 0.69,0 0.69,-1.445 0,-1.435 -0.69,-1.435 z m 0,1.11 q 0.14,0 0.235,0.095 0.095,0.095 0.095,0.23 0,0.14 -0.095,0.235 -0.095,0.095 -0.235,0.095 -0.14,0 -0.235,-0.095 -0.09,-0.095 -0.09,-0.235 0,-0.135 0.09,-0.23 0.095,-0.095 0.235,-0.095 z" />
      <path
         inkscape:connector-curvature="0"
         id="path11"
         d="m 392.16842,518.6559 -0.855,-1.24 h 0.49 l 0.615,0.98 0.62,-0.98 h 0.475 l -0.85,1.22 0.97,1.41 h -0.51 l -0.725,-1.13 -0.73,1.13 h -0.475 z" />
      <path
         inkscape:connector-curvature="0"
         id="path13"
         d="m 399.10452,519.2059 v 0.84 h -0.405 v -0.84 h -1.43 v -0.3 l 1.015,-2.36 0.345,0.15 -0.92,2.18 h 0.995 l 0.035,-0.98 h 0.365 v 0.98 h 0.445 v 0.33 z" />
      <path
         inkscape:connector-curvature="0"
         id="path15"
         d="m 401.69756,516.5459 q 0.325,0 0.55,0.085 0.23,0.08 0.445,0.25 l -0.24,0.28 q -0.31,-0.255 -0.725,-0.255 -0.47,0 -0.765,0.34 -0.29,0.335 -0.29,1.075 0,0.73 0.285,1.075 0.29,0.34 0.765,0.34 0.26,0 0.445,-0.075 0.19,-0.08 0.355,-0.215 l 0.22,0.285 q -0.17,0.165 -0.425,0.27 -0.255,0.1 -0.6,0.1 -0.425,0 -0.765,-0.205 -0.335,-0.21 -0.53,-0.61 -0.195,-0.4 -0.195,-0.965 0,-0.56 0.195,-0.96 0.2,-0.405 0.535,-0.61 0.335,-0.205 0.74,-0.205 z" />
      <path
         inkscape:connector-curvature="0"
         id="path17"
         d="m 407.54866,517.8059 q 0.275,0 0.495,0.12 0.22,0.12 0.35,0.365 0.13,0.24 0.13,0.595 0,0.37 -0.145,0.65 -0.14,0.275 -0.39,0.42 -0.245,0.145 -0.545,0.145 -0.6,0 -0.87,-0.435 -0.27,-0.435 -0.27,-1.245 0,-0.57 0.15,-0.99 0.155,-0.425 0.44,-0.655 0.285,-0.23 0.685,-0.23 0.375,0 0.68,0.205 l -0.16,0.28 q -0.245,-0.145 -0.525,-0.145 -0.395,0 -0.62,0.375 -0.225,0.37 -0.235,1.01 0.16,-0.245 0.365,-0.355 0.205,-0.11 0.465,-0.11 z m -0.105,1.96 q 0.32,0 0.485,-0.225 0.17,-0.23 0.17,-0.64 0,-0.405 -0.16,-0.58 -0.155,-0.175 -0.45,-0.175 -0.24,0 -0.435,0.13 -0.19,0.13 -0.33,0.36 0.01,0.59 0.18,0.86 0.17,0.27 0.54,0.27 z" />
      <path
         inkscape:connector-curvature="0"
         id="path19"
         d="m 411.4867,520.0459 h -1.985 v -0.34 h 0.85 v -2.65 l -0.79,0.475 -0.18,-0.295 1.02,-0.63 h 0.365 v 3.1 h 0.72 z" />
      <path
         inkscape:connector-curvature="0"
         id="path21"
         d="m 416.2428,516.5459 q 0.32,0 0.55,0.125 0.235,0.125 0.36,0.345 0.125,0.22 0.125,0.495 0,0.315 -0.15,0.615 -0.145,0.3 -0.47,0.665 -0.325,0.36 -0.92,0.9 h 1.62 l -0.05,0.355 h -2.045 v -0.34 q 0.68,-0.65 1.005,-1.01 0.325,-0.365 0.45,-0.625 0.125,-0.26 0.125,-0.55 0,-0.29 -0.165,-0.455 -0.16,-0.17 -0.45,-0.17 -0.245,0 -0.41,0.085 -0.165,0.08 -0.335,0.28 l -0.29,-0.22 q 0.21,-0.255 0.46,-0.375 0.25,-0.12 0.59,-0.12 z" />
      <path
         inkscape:connector-curvature="0"
         id="path23"
         d="m 419.39584,516.5459 q 0.55,0 0.835,0.46 0.29,0.455 0.29,1.315 0,0.865 -0.29,1.325 -0.285,0.455 -0.835,0.455 -0.55,0 -0.84,-0.455 -0.285,-0.46 -0.285,-1.325 0,-0.86 0.285,-1.315 0.29,-0.46 0.84,-0.46 z m 0,0.34 q -0.69,0 -0.69,1.435 0,1.445 0.69,1.445 0.69,0 0.69,-1.445 0,-1.435 -0.69,-1.435 z m 0,1.11 q 0.14,0 0.235,0.095 0.095,0.095 0.095,0.23 0,0.14 -0.095,0.235 -0.095,0.095 -0.235,0.095 -0.14,0 -0.235,-0.095 -0.09,-0.095 -0.09,-0.235 0,-0.135 0.09,-0.23 0.095,-0.095 0.235,-0.095 z" />
      <path
         inkscape:connector-curvature="0"
         id="path25"
         d="m 426.08694,519.2059 v 0.84 h -0.405 v -0.84 h -1.43 v -0.3 l 1.015,-2.36 0.345,0.15 -0.92,2.18 h 0.995 l 0.035,-0.98 h 0.365 v 0.98 h 0.445 v 0.33 z" />
      <path
         inkscape:connector-curvature="0"
         id="path27"
         d="m 428.23498,516.5459 q 0.315,0 0.555,0.12 0.24,0.115 0.37,0.315 0.13,0.195 0.13,0.43 0,0.3 -0.195,0.525 -0.195,0.22 -0.48,0.275 0.33,0.025 0.555,0.245 0.23,0.22 0.23,0.6 0,0.295 -0.15,0.535 -0.15,0.235 -0.425,0.375 -0.27,0.135 -0.62,0.135 -0.305,0 -0.59,-0.11 -0.28,-0.115 -0.465,-0.345 l 0.28,-0.23 q 0.14,0.17 0.345,0.26 0.205,0.085 0.42,0.085 0.36,0 0.565,-0.19 0.205,-0.19 0.205,-0.515 0,-0.655 -0.715,-0.655 h -0.29 l 0.05,-0.33 h 0.205 q 0.27,0 0.46,-0.155 0.195,-0.155 0.195,-0.45 0,-0.275 -0.185,-0.43 -0.185,-0.155 -0.47,-0.155 -0.215,0 -0.385,0.08 -0.165,0.075 -0.345,0.24 l -0.225,-0.255 q 0.415,-0.4 0.975,-0.4 z" />
      <path
         inkscape:connector-curvature="0"
         id="path29"
         d="m 389.56037,524.0559 q 0.275,0 0.495,0.12 0.22,0.12 0.35,0.365 0.13,0.24 0.13,0.595 0,0.37 -0.145,0.65 -0.14,0.275 -0.39,0.42 -0.245,0.145 -0.545,0.145 -0.6,0 -0.87,-0.435 -0.27,-0.435 -0.27,-1.245 0,-0.57 0.15,-0.99 0.155,-0.425 0.44,-0.655 0.285,-0.23 0.685,-0.23 0.375,0 0.68,0.205 l -0.16,0.28 q -0.245,-0.145 -0.525,-0.145 -0.395,0 -0.62,0.375 -0.225,0.37 -0.235,1.01 0.16,-0.245 0.365,-0.355 0.205,-0.11 0.465,-0.11 z m -0.105,1.96 q 0.32,0 0.485,-0.225 0.17,-0.23 0.17,-0.64 0,-0.405 -0.16,-0.58 -0.155,-0.175 -0.45,-0.175 -0.24,0 -0.435,0.13 -0.19,0.13 -0.33,0.36 0.01,0.59 0.18,0.86 0.17,0.27 0.54,0.27 z" />
      <path
         inkscape:connector-curvature="0"
         id="path31"
         d="m 393.49842,526.2959 h -1.985 v -0.34 h 0.85 v -2.65 l -0.79,0.475 -0.18,-0.295 1.02,-0.63 h 0.365 v 3.1 h 0.72 z" />
      <path
         inkscape:connector-curvature="0"
         id="path33"
         d="m 399.01452,523.2009 h -1.615 v -0.345 h 2.035 v 0.315 l -1.375,3.17 -0.385,-0.115 z" />
      <path
         inkscape:connector-curvature="0"
         id="path35"
         d="m 401.40756,522.7959 q 0.55,0 0.835,0.46 0.29,0.455 0.29,1.315 0,0.865 -0.29,1.325 -0.285,0.455 -0.835,0.455 -0.55,0 -0.84,-0.455 -0.285,-0.46 -0.285,-1.325 0,-0.86 0.285,-1.315 0.29,-0.46 0.84,-0.46 z m 0,0.34 q -0.69,0 -0.69,1.435 0,1.445 0.69,1.445 0.69,0 0.69,-1.445 0,-1.435 -0.69,-1.435 z m 0,1.11 q 0.14,0 0.235,0.095 0.095,0.095 0.095,0.23 0,0.14 -0.095,0.235 -0.095,0.095 -0.235,0.095 -0.14,0 -0.235,-0.095 -0.09,-0.095 -0.09,-0.235 0,-0.135 0.09,-0.23 0.095,-0.095 0.235,-0.095 z" />
      <path
         inkscape:connector-curvature="0"
         id="path37"
         d="m 407.54866,524.0559 q 0.275,0 0.495,0.12 0.22,0.12 0.35,0.365 0.13,0.24 0.13,0.595 0,0.37 -0.145,0.65 -0.14,0.275 -0.39,0.42 -0.245,0.145 -0.545,0.145 -0.6,0 -0.87,-0.435 -0.27,-0.435 -0.27,-1.245 0,-0.57 0.15,-0.99 0.155,-0.425 0.44,-0.655 0.285,-0.23 0.685,-0.23 0.375,0 0.68,0.205 l -0.16,0.28 q -0.245,-0.145 -0.525,-0.145 -0.395,0 -0.62,0.375 -0.225,0.37 -0.235,1.01 0.16,-0.245 0.365,-0.355 0.205,-0.11 0.465,-0.11 z m -0.105,1.96 q 0.32,0 0.485,-0.225 0.17,-0.23 0.17,-0.64 0,-0.405 -0.16,-0.58 -0.155,-0.175 -0.45,-0.175 -0.24,0 -0.435,0.13 -0.19,0.13 -0.33,0.36 0.01,0.59 0.18,0.86 0.17,0.27 0.54,0.27 z" />
      <path
         inkscape:connector-curvature="0"
         id="path39"
         d="m 410.3467,522.8009 q 0.56,0 0.84,0.35 0.28,0.35 0.28,0.98 0,0.73 -0.185,1.16 -0.185,0.425 -0.57,0.67 -0.385,0.245 -1.075,0.44 l -0.095,-0.315 q 0.735,-0.2 1.11,-0.54 0.375,-0.34 0.38,-0.94 -0.125,0.185 -0.34,0.305 -0.215,0.12 -0.49,0.12 -0.28,0 -0.5,-0.13 -0.22,-0.135 -0.345,-0.385 -0.12,-0.25 -0.12,-0.58 0,-0.36 0.145,-0.615 0.15,-0.255 0.4,-0.385 0.25,-0.135 0.565,-0.135 z m -0.065,1.9 q 0.24,0 0.42,-0.12 0.185,-0.125 0.34,-0.355 0.005,-0.595 -0.16,-0.84 -0.165,-0.245 -0.535,-0.245 -0.335,0 -0.51,0.205 -0.17,0.205 -0.17,0.605 0,0.38 0.16,0.565 0.16,0.185 0.455,0.185 z" />
      <path
         inkscape:connector-curvature="0"
         id="path41"
         d="m 417.0028,523.2009 h -1.615 v -0.345 h 2.035 v 0.315 l -1.375,3.17 -0.385,-0.115 z" />
      <path
         inkscape:connector-curvature="0"
         id="path43"
         d="m 420.09084,525.4559 v 0.84 h -0.405 v -0.84 h -1.43 v -0.3 l 1.015,-2.36 0.345,0.15 -0.92,2.18 h 0.995 l 0.035,-0.98 h 0.365 v 0.98 h 0.445 v 0.33 z" />
      <path
         inkscape:connector-curvature="0"
         id="path45"
         d="m 425.53694,524.0559 q 0.275,0 0.495,0.12 0.22,0.12 0.35,0.365 0.13,0.24 0.13,0.595 0,0.37 -0.145,0.65 -0.14,0.275 -0.39,0.42 -0.245,0.145 -0.545,0.145 -0.6,0 -0.87,-0.435 -0.27,-0.435 -0.27,-1.245 0,-0.57 0.15,-0.99 0.155,-0.425 0.44,-0.655 0.285,-0.23 0.685,-0.23 0.375,0 0.68,0.205 l -0.16,0.28 q -0.245,-0.145 -0.525,-0.145 -0.395,0 -0.62,0.375 -0.225,0.37 -0.235,1.01 0.16,-0.245 0.365,-0.355 0.205,-0.11 0.465,-0.11 z m -0.105,1.96 q 0.32,0 0.485,-0.225 0.17,-0.23 0.17,-0.64 0,-0.405 -0.16,-0.58 -0.155,-0.175 -0.45,-0.175 -0.24,0 -0.435,0.13 -0.19,0.13 -0.33,0.36 0.01,0.59 0.18,0.86 0.17,0.27 0.54,0.27 z" />
      <path
         inkscape:connector-curvature="0"
         id="path47"
         d="m 429.47498,526.2959 h -1.985 v -0.34 h 0.85 v -2.65 l -0.79,0.475 -0.18,-0.295 1.02,-0.63 h 0.365 v 3.1 h 0.72 z" />
      <path
         inkscape:connector-curvature="0"
         id="path49"
         d="m 389.56037,530.3059 q 0.275,0 0.495,0.12 0.22,0.12 0.35,0.365 0.13,0.24 0.13,0.595 0,0.37 -0.145,0.65 -0.14,0.275 -0.39,0.42 -0.245,0.145 -0.545,0.145 -0.6,0 -0.87,-0.435 -0.27,-0.435 -0.27,-1.245 0,-0.57 0.15,-0.99 0.155,-0.425 0.44,-0.655 0.285,-0.23 0.685,-0.23 0.375,0 0.68,0.205 l -0.16,0.28 q -0.245,-0.145 -0.525,-0.145 -0.395,0 -0.62,0.375 -0.225,0.37 -0.235,1.01 0.16,-0.245 0.365,-0.355 0.205,-0.11 0.465,-0.11 z m -0.105,1.96 q 0.32,0 0.485,-0.225 0.17,-0.23 0.17,-0.64 0,-0.405 -0.16,-0.58 -0.155,-0.175 -0.45,-0.175 -0.24,0 -0.435,0.13 -0.19,0.13 -0.33,0.36 0.01,0.59 0.18,0.86 0.17,0.27 0.54,0.27 z" />
      <path
         inkscape:connector-curvature="0"
         id="path51"
         d="m 392.35842,529.0509 q 0.56,0 0.84,0.35 0.28,0.35 0.28,0.98 0,0.73 -0.185,1.16 -0.185,0.425 -0.57,0.67 -0.385,0.245 -1.075,0.44 l -0.095,-0.315 q 0.735,-0.2 1.11,-0.54 0.375,-0.34 0.38,-0.94 -0.125,0.185 -0.34,0.305 -0.215,0.12 -0.49,0.12 -0.28,0 -0.5,-0.13 -0.22,-0.135 -0.345,-0.385 -0.12,-0.25 -0.12,-0.58 0,-0.36 0.145,-0.615 0.15,-0.255 0.4,-0.385 0.25,-0.135 0.565,-0.135 z m -0.065,1.9 q 0.24,0 0.42,-0.12 0.185,-0.125 0.34,-0.355 0.005,-0.595 -0.16,-0.84 -0.165,-0.245 -0.535,-0.245 -0.335,0 -0.51,0.205 -0.17,0.205 -0.17,0.605 0,0.38 0.16,0.565 0.16,0.185 0.455,0.185 z" />
      <path
         inkscape:connector-curvature="0"
         id="path53"
         d="m 398.55452,530.3059 q 0.275,0 0.495,0.12 0.22,0.12 0.35,0.365 0.13,0.24 0.13,0.595 0,0.37 -0.145,0.65 -0.14,0.275 -0.39,0.42 -0.245,0.145 -0.545,0.145 -0.6,0 -0.87,-0.435 -0.27,-0.435 -0.27,-1.245 0,-0.57 0.15,-0.99 0.155,-0.425 0.44,-0.655 0.285,-0.23 0.685,-0.23 0.375,0 0.68,0.205 l -0.16,0.28 q -0.245,-0.145 -0.525,-0.145 -0.395,0 -0.62,0.375 -0.225,0.37 -0.235,1.01 0.16,-0.245 0.365,-0.355 0.205,-0.11 0.465,-0.11 z m -0.105,1.96 q 0.32,0 0.485,-0.225 0.17,-0.23 0.17,-0.64 0,-0.405 -0.16,-0.58 -0.155,-0.175 -0.45,-0.175 -0.24,0 -0.435,0.13 -0.19,0.13 -0.33,0.36 0.01,0.59 0.18,0.86 0.17,0.27 0.54,0.27 z" />
      <path
         inkscape:connector-curvature="0"
         id="path55"
         d="m 402.24256,530.6209 v 0.355 h -1.275 v 1.225 h 1.565 v 0.345 h -1.995 v -3.44 h 1.95 l -0.05,0.35 h -1.47 v 1.165 z" />
      <path
         inkscape:connector-curvature="0"
         id="path57"
         d="m 407.54866,530.3059 q 0.275,0 0.495,0.12 0.22,0.12 0.35,0.365 0.13,0.24 0.13,0.595 0,0.37 -0.145,0.65 -0.14,0.275 -0.39,0.42 -0.245,0.145 -0.545,0.145 -0.6,0 -0.87,-0.435 -0.27,-0.435 -0.27,-1.245 0,-0.57 0.15,-0.99 0.155,-0.425 0.44,-0.655 0.285,-0.23 0.685,-0.23 0.375,0 0.68,0.205 l -0.16,0.28 q -0.245,-0.145 -0.525,-0.145 -0.395,0 -0.62,0.375 -0.225,0.37 -0.235,1.01 0.16,-0.245 0.365,-0.355 0.205,-0.11 0.465,-0.11 z m -0.105,1.96 q 0.32,0 0.485,-0.225 0.17,-0.23 0.17,-0.64 0,-0.405 -0.16,-0.58 -0.155,-0.175 -0.45,-0.175 -0.24,0 -0.435,0.13 -0.19,0.13 -0.33,0.36 0.01,0.59 0.18,0.86 0.17,0.27 0.54,0.27 z" />
      <path
         inkscape:connector-curvature="0"
         id="path59"
         d="m 409.9117,529.4359 v 1.09 q 0.15,-0.085 0.29,-0.115 0.145,-0.035 0.305,-0.035 0.43,0 0.685,0.285 0.255,0.285 0.255,0.795 0,0.34 -0.145,0.6 -0.14,0.26 -0.405,0.405 -0.26,0.14 -0.61,0.14 -0.575,0 -0.995,-0.41 l 0.255,-0.25 q 0.16,0.165 0.34,0.245 0.18,0.075 0.405,0.075 0.345,0 0.53,-0.205 0.19,-0.21 0.19,-0.61 0,-0.395 -0.17,-0.565 -0.165,-0.175 -0.45,-0.175 -0.145,0 -0.26,0.03 -0.115,0.025 -0.28,0.085 h -0.335 v -1.715 h 1.82 l -0.065,0.33 z" />
      <path
         inkscape:connector-curvature="0"
         id="path61"
         d="m 416.2428,529.0459 q 0.32,0 0.55,0.125 0.235,0.125 0.36,0.345 0.125,0.22 0.125,0.495 0,0.315 -0.15,0.615 -0.145,0.3 -0.47,0.665 -0.325,0.36 -0.92,0.9 h 1.62 l -0.05,0.355 h -2.045 v -0.34 q 0.68,-0.65 1.005,-1.01 0.325,-0.365 0.45,-0.625 0.125,-0.26 0.125,-0.55 0,-0.29 -0.165,-0.455 -0.16,-0.17 -0.45,-0.17 -0.245,0 -0.41,0.085 -0.165,0.08 -0.335,0.28 l -0.29,-0.22 q 0.21,-0.255 0.46,-0.375 0.25,-0.12 0.59,-0.12 z" />
      <path
         inkscape:connector-curvature="0"
         id="path63"
         d="m 419.39584,529.0459 q 0.55,0 0.835,0.46 0.29,0.455 0.29,1.315 0,0.865 -0.29,1.325 -0.285,0.455 -0.835,0.455 -0.55,0 -0.84,-0.455 -0.285,-0.46 -0.285,-1.325 0,-0.86 0.285,-1.315 0.29,-0.46 0.84,-0.46 z m 0,0.34 q -0.69,0 -0.69,1.435 0,1.445 0.69,1.445 0.69,0 0.69,-1.445 0,-1.435 -0.69,-1.435 z m 0,1.11 q 0.14,0 0.235,0.095 0.095,0.095 0.095,0.23 0,0.14 -0.095,0.235 -0.095,0.095 -0.235,0.095 -0.14,0 -0.235,-0.095 -0.09,-0.095 -0.09,-0.235 0,-0.135 0.09,-0.23 0.095,-0.095 0.235,-0.095 z" />
    </g>
  </g>
  <g
     id="g129"
     transform="matrix(0.91666667,0,0,0.91666667,-350.65122,-456.88404)">
    <rect
       style="fill:url(#a)"
       id="rect69"
       y="505.94531"
       x="384.71042"
       width="48"
       ry="1.7044539"
       height="36.219646" />
    <g
       style="fill:#00ff00"
       id="g127">
      <path
         inkscape:connector-curvature="0"
         id="path71"
         d="m 389.41537,516.5459 q 0.55,0 0.835,0.46 0.29,0.455 0.29,1.315 0,0.865 -0.29,1.325 -0.285,0.455 -0.835,0.455 -0.55,0 -0.84,-0.455 -0.285,-0.46 -0.285,-1.325 0,-0.86 0.285,-1.315 0.29,-0.46 0.84,-0.46 z m 0,0.34 q -0.69,0 -0.69,1.435 0,1.445 0.69,1.445 0.69,0 0.69,-1.445 0,-1.435 -0.69,-1.435 z m 0,1.11 q 0.14,0 0.235,0.095 0.095,0.095 0.095,0.23 0,0.14 -0.095,0.235 -0.095,0.095 -0.235,0.095 -0.14,0 -0.235,-0.095 -0.09,-0.095 -0.09,-0.235 0,-0.135 0.09,-0.23 0.095,-0.095 0.235,-0.095 z" />
      <path
         inkscape:connector-curvature="0"
         id="path73"
         d="m 392.16842,518.6559 -0.855,-1.24 h 0.49 l 0.615,0.98 0.62,-0.98 h 0.475 l -0.85,1.22 0.97,1.41 h -0.51 l -0.725,-1.13 -0.73,1.13 h -0.475 z" />
      <path
         inkscape:connector-curvature="0"
         id="path75"
         d="m 399.10452,519.2059 v 0.84 h -0.405 v -0.84 h -1.43 v -0.3 l 1.015,-2.36 0.345,0.15 -0.92,2.18 h 0.995 l 0.035,-0.98 h 0.365 v 0.98 h 0.445 v 0.33 z" />
      <path
         inkscape:connector-curvature="0"
         id="path77"
         d="m 401.69756,516.5459 q 0.325,0 0.55,0.085 0.23,0.08 0.445,0.25 l -0.24,0.28 q -0.31,-0.255 -0.725,-0.255 -0.47,0 -0.765,0.34 -0.29,0.335 -0.29,1.075 0,0.73 0.285,1.075 0.29,0.34 0.765,0.34 0.26,0 0.445,-0.075 0.19,-0.08 0.355,-0.215 l 0.22,0.285 q -0.17,0.165 -0.425,0.27 -0.255,0.1 -0.6,0.1 -0.425,0 -0.765,-0.205 -0.335,-0.21 -0.53,-0.61 -0.195,-0.4 -0.195,-0.965 0,-0.56 0.195,-0.96 0.2,-0.405 0.535,-0.61 0.335,-0.205 0.74,-0.205 z" />
      <path
         inkscape:connector-curvature="0"
         id="path79"
         d="m 407.54866,517.8059 q 0.275,0 0.495,0.12 0.22,0.12 0.35,0.365 0.13,0.24 0.13,0.595 0,0.37 -0.145,0.65 -0.14,0.275 -0.39,0.42 -0.245,0.145 -0.545,0.145 -0.6,0 -0.87,-0.435 -0.27,-0.435 -0.27,-1.245 0,-0.57 0.15,-0.99 0.155,-0.425 0.44,-0.655 0.285,-0.23 0.685,-0.23 0.375,0 0.68,0.205 l -0.16,0.28 q -0.245,-0.145 -0.525,-0.145 -0.395,0 -0.62,0.375 -0.225,0.37 -0.235,1.01 0.16,-0.245 0.365,-0.355 0.205,-0.11 0.465,-0.11 z m -0.105,1.96 q 0.32,0 0.485,-0.225 0.17,-0.23 0.17,-0.64 0,-0.405 -0.16,-0.58 -0.155,-0.175 -0.45,-0.175 -0.24,0 -0.435,0.13 -0.19,0.13 -0.33,0.36 0.01,0.59 0.18,0.86 0.17,0.27 0.54,0.27 z" />
      <path
         inkscape:connector-curvature="0"
         id="path81"
         d="m 411.4867,520.0459 h -1.985 v -0.34 h 0.85 v -2.65 l -0.79,0.475 -0.18,-0.295 1.02,-0.63 h 0.365 v 3.1 h 0.72 z" />
      <path
         inkscape:connector-curvature="0"
         id="path83"
         d="m 416.2428,516.5459 q 0.32,0 0.55,0.125 0.235,0.125 0.36,0.345 0.125,0.22 0.125,0.495 0,0.315 -0.15,0.615 -0.145,0.3 -0.47,0.665 -0.325,0.36 -0.92,0.9 h 1.62 l -0.05,0.355 h -2.045 v -0.34 q 0.68,-0.65 1.005,-1.01 0.325,-0.365 0.45,-0.625 0.125,-0.26 0.125,-0.55 0,-0.29 -0.165,-0.455 -0.16,-0.17 -0.45,-0.17 -0.245,0 -0.41,0.085 -0.165,0.08 -0.335,0.28 l -0.29,-0.22 q 0.21,-0.255 0.46,-0.375 0.25,-0.12 0.59,-0.12 z" />
      <path
         inkscape:connector-curvature="0"
         id="path85"
         d="m 419.39584,516.5459 q 0.55,0 0.835,0.46 0.29,0.455 0.29,1.315 0,0.865 -0.29,1.325 -0.285,0.455 -0.835,0.455 -0.55,0 -0.84,-0.455 -0.285,-0.46 -0.285,-1.325 0,-0.86 0.285,-1.315 0.29,-0.46 0.84,-0.46 z m 0,0.34 q -0.69,0 -0.69,1.435 0,1.445 0.69,1.445 0.69,0 0.69,-1.445 0,-1.435 -0.69,-1.435 z m 0,1.11 q 0.14,0 0.235,0.095 0.095,0.095 0.095,0.23 0,0.14 -0.095,0.235 -0.095,0.095 -0.235,0.095 -0.14,0 -0.235,-0.095 -0.09,-0.095 -0.09,-0.235 0,-0.135 0.09,-0.23 0.095,-0.095 0.235,-0.095 z" />
      <path
         inkscape:connector-curvature="0"
         id="path87"
         d="m 426.08694,519.2059 v 0.84 h -0.405 v -0.84 h -1.43 v -0.3 l 1.015,-2.36 0.345,0.15 -0.92,2.18 h 0.995 l 0.035,-0.98 h 0.365 v 0.98 h 0.445 v 0.33 z" />
      <path
         inkscape:connector-curvature="0"
         id="path89"
         d="m 428.23498,516.5459 q 0.315,0 0.555,0.12 0.24,0.115 0.37,0.315 0.13,0.195 0.13,0.43 0,0.3 -0.195,0.525 -0.195,0.22 -0.48,0.275 0.33,0.025 0.555,0.245 0.23,0.22 0.23,0.6 0,0.295 -0.15,0.535 -0.15,0.235 -0.425,0.375 -0.27,0.135 -0.62,0.135 -0.305,0 -0.59,-0.11 -0.28,-0.115 -0.465,-0.345 l 0.28,-0.23 q 0.14,0.17 0.345,0.26 0.205,0.085 0.42,0.085 0.36,0 0.565,-0.19 0.205,-0.19 0.205,-0.515 0,-0.655 -0.715,-0.655 h -0.29 l 0.05,-0.33 h 0.205 q 0.27,0 0.46,-0.155 0.195,-0.155 0.195,-0.45 0,-0.275 -0.185,-0.43 -0.185,-0.155 -0.47,-0.155 -0.215,0 -0.385,0.08 -0.165,0.075 -0.345,0.24 l -0.225,-0.255 q 0.415,-0.4 0.975,-0.4 z" />
      <path
         inkscape:connector-curvature="0"
         id="path91"
         d="m 389.56037,524.0559 q 0.275,0 0.495,0.12 0.22,0.12 0.35,0.365 0.13,0.24 0.13,0.595 0,0.37 -0.145,0.65 -0.14,0.275 -0.39,0.42 -0.245,0.145 -0.545,0.145 -0.6,0 -0.87,-0.435 -0.27,-0.435 -0.27,-1.245 0,-0.57 0.15,-0.99 0.155,-0.425 0.44,-0.655 0.285,-0.23 0.685,-0.23 0.375,0 0.68,0.205 l -0.16,0.28 q -0.245,-0.145 -0.525,-0.145 -0.395,0 -0.62,0.375 -0.225,0.37 -0.235,1.01 0.16,-0.245 0.365,-0.355 0.205,-0.11 0.465,-0.11 z m -0.105,1.96 q 0.32,0 0.485,-0.225 0.17,-0.23 0.17,-0.64 0,-0.405 -0.16,-0.58 -0.155,-0.175 -0.45,-0.175 -0.24,0 -0.435,0.13 -0.19,0.13 -0.33,0.36 0.01,0.59 0.18,0.86 0.17,0.27 0.54,0.27 z" />
      <path
         inkscape:connector-curvature="0"
         id="path93"
         d="m 393.49842,526.2959 h -1.985 v -0.34 h 0.85 v -2.65 l -0.79,0.475 -0.18,-0.295 1.02,-0.63 h 0.365 v 3.1 h 0.72 z" />
      <path
         inkscape:connector-curvature="0"
         id="path95"
         d="m 399.01452,523.2009 h -1.615 v -0.345 h 2.035 v 0.315 l -1.375,3.17 -0.385,-0.115 z" />
      <path
         inkscape:connector-curvature="0"
         id="path97"
         d="m 401.40756,522.7959 q 0.55,0 0.835,0.46 0.29,0.455 0.29,1.315 0,0.865 -0.29,1.325 -0.285,0.455 -0.835,0.455 -0.55,0 -0.84,-0.455 -0.285,-0.46 -0.285,-1.325 0,-0.86 0.285,-1.315 0.29,-0.46 0.84,-0.46 z m 0,0.34 q -0.69,0 -0.69,1.435 0,1.445 0.69,1.445 0.69,0 0.69,-1.445 0,-1.435 -0.69,-1.435 z m 0,1.11 q 0.14,0 0.235,0.095 0.095,0.095 0.095,0.23 0,0.14 -0.095,0.235 -0.095,0.095 -0.235,0.095 -0.14,0 -0.235,-0.095 -0.09,-0.095 -0.09,-0.235 0,-0.135 0.09,-0.23 0.095,-0.095 0.235,-0.095 z" />
      <path
         inkscape:connector-curvature="0"
         id="path99"
         d="m 407.54866,524.0559 q 0.275,0 0.495,0.12 0.22,0.12 0.35,0.365 0.13,0.24 0.13,0.595 0,0.37 -0.145,0.65 -0.14,0.275 -0.39,0.42 -0.245,0.145 -0.545,0.145 -0.6,0 -0.87,-0.435 -0.27,-0.435 -0.27,-1.245 0,-0.57 0.15,-0.99 0.155,-0.425 0.44,-0.655 0.285,-0.23 0.685,-0.23 0.375,0 0.68,0.205 l -0.16,0.28 q -0.245,-0.145 -0.525,-0.145 -0.395,0 -0.62,0.375 -0.225,0.37 -0.235,1.01 0.16,-0.245 0.365,-0.355 0.205,-0.11 0.465,-0.11 z m -0.105,1.96 q 0.32,0 0.485,-0.225 0.17,-0.23 0.17,-0.64 0,-0.405 -0.16,-0.58 -0.155,-0.175 -0.45,-0.175 -0.24,0 -0.435,0.13 -0.19,0.13 -0.33,0.36 0.01,0.59 0.18,0.86 0.17,0.27 0.54,0.27 z" />
      <path
         inkscape:connector-curvature="0"
         id="path101"
         d="m 410.3467,522.8009 q 0.56,0 0.84,0.35 0.28,0.35 0.28,0.98 0,0.73 -0.185,1.16 -0.185,0.425 -0.57,0.67 -0.385,0.245 -1.075,0.44 l -0.095,-0.315 q 0.735,-0.2 1.11,-0.54 0.375,-0.34 0.38,-0.94 -0.125,0.185 -0.34,0.305 -0.215,0.12 -0.49,0.12 -0.28,0 -0.5,-0.13 -0.22,-0.135 -0.345,-0.385 -0.12,-0.25 -0.12,-0.58 0,-0.36 0.145,-0.615 0.15,-0.255 0.4,-0.385 0.25,-0.135 0.565,-0.135 z m -0.065,1.9 q 0.24,0 0.42,-0.12 0.185,-0.125 0.34,-0.355 0.005,-0.595 -0.16,-0.84 -0.165,-0.245 -0.535,-0.245 -0.335,0 -0.51,0.205 -0.17,0.205 -0.17,0.605 0,0.38 0.16,0.565 0.16,0.185 0.455,0.185 z" />
      <path
         inkscape:connector-curvature="0"
         id="path103"
         d="m 417.0028,523.2009 h -1.615 v -0.345 h 2.035 v 0.315 l -1.375,3.17 -0.385,-0.115 z" />
      <path
         inkscape:connector-curvature="0"
         id="path105"
         d="m 420.09084,525.4559 v 0.84 h -0.405 v -0.84 h -1.43 v -0.3 l 1.015,-2.36 0.345,0.15 -0.92,2.18 h 0.995 l 0.035,-0.98 h 0.365 v 0.98 h 0.445 v 0.33 z" />
      <path
         inkscape:connector-curvature="0"
         id="path107"
         d="m 425.53694,524.0559 q 0.275,0 0.495,0.12 0.22,0.12 0.35,0.365 0.13,0.24 0.13,0.595 0,0.37 -0.145,0.65 -0.14,0.275 -0.39,0.42 -0.245,0.145 -0.545,0.145 -0.6,0 -0.87,-0.435 -0.27,-0.435 -0.27,-1.245 0,-0.57 0.15,-0.99 0.155,-0.425 0.44,-0.655 0.285,-0.23 0.685,-0.23 0.375,0 0.68,0.205 l -0.16,0.28 q -0.245,-0.145 -0.525,-0.145 -0.395,0 -0.62,0.375 -0.225,0.37 -0.235,1.01 0.16,-0.245 0.365,-0.355 0.205,-0.11 0.465,-0.11 z m -0.105,1.96 q 0.32,0 0.485,-0.225 0.17,-0.23 0.17,-0.64 0,-0.405 -0.16,-0.58 -0.155,-0.175 -0.45,-0.175 -0.24,0 -0.435,0.13 -0.19,0.13 -0.33,0.36 0.01,0.59 0.18,0.86 0.17,0.27 0.54,0.27 z" />
      <path
         inkscape:connector-curvature="0"
         id="path109"
         d="m 429.47498,526.2959 h -1.985 v -0.34 h 0.85 v -2.65 l -0.79,0.475 -0.18,-0.295 1.02,-0.63 h 0.365 v 3.1 h 0.72 z" />
      <path
         inkscape:connector-curvature="0"
         id="path111"
         d="m 389.56037,530.3059 q 0.275,0 0.495,0.12 0.22,0.12 0.35,0.365 0.13,0.24 0.13,0.595 0,0.37 -0.145,0.65 -0.14,0.275 -0.39,0.42 -0.245,0.145 -0.545,0.145 -0.6,0 -0.87,-0.435 -0.27,-0.435 -0.27,-1.245 0,-0.57 0.15,-0.99 0.155,-0.425 0.44,-0.655 0.285,-0.23 0.685,-0.23 0.375,0 0.68,0.205 l -0.16,0.28 q -0.245,-0.145 -0.525,-0.145 -0.395,0 -0.62,0.375 -0.225,0.37 -0.235,1.01 0.16,-0.245 0.365,-0.355 0.205,-0.11 0.465,-0.11 z m -0.105,1.96 q 0.32,0 0.485,-0.225 0.17,-0.23 0.17,-0.64 0,-0.405 -0.16,-0.58 -0.155,-0.175 -0.45,-0.175 -0.24,0 -0.435,0.13 -0.19,0.13 -0.33,0.36 0.01,0.59 0.18,0.86 0.17,0.27 0.54,0.27 z" />
      <path
         inkscape:connector-curvature="0"
         id="path113"
         d="m 392.35842,529.0509 q 0.56,0 0.84,0.35 0.28,0.35 0.28,0.98 0,0.73 -0.185,1.16 -0.185,0.425 -0.57,0.67 -0.385,0.245 -1.075,0.44 l -0.095,-0.315 q 0.735,-0.2 1.11,-0.54 0.375,-0.34 0.38,-0.94 -0.125,0.185 -0.34,0.305 -0.215,0.12 -0.49,0.12 -0.28,0 -0.5,-0.13 -0.22,-0.135 -0.345,-0.385 -0.12,-0.25 -0.12,-0.58 0,-0.36 0.145,-0.615 0.15,-0.255 0.4,-0.385 0.25,-0.135 0.565,-0.135 z m -0.065,1.9 q 0.24,0 0.42,-0.12 0.185,-0.125 0.34,-0.355 0.005,-0.595 -0.16,-0.84 -0.165,-0.245 -0.535,-0.245 -0.335,0 -0.51,0.205 -0.17,0.205 -0.17,0.605 0,0.38 0.16,0.565 0.16,0.185 0.455,0.185 z" />
      <path
         inkscape:connector-curvature="0"
         id="path115"
         d="m 398.55452,530.3059 q 0.275,0 0.495,0.12 0.22,0.12 0.35,0.365 0.13,0.24 0.13,0.595 0,0.37 -0.145,0.65 -0.14,0.275 -0.39,0.42 -0.245,0.145 -0.545,0.145 -0.6,0 -0.87,-0.435 -0.27,-0.435 -0.27,-1.245 0,-0.57 0.15,-0.99 0.155,-0.425 0.44,-0.655 0.285,-0.23 0.685,-0.23 0.375,0 0.68,0.205 l -0.16,0.28 q -0.245,-0.145 -0.525,-0.145 -0.395,0 -0.62,0.375 -0.225,0.37 -0.235,1.01 0.16,-0.245 0.365,-0.355 0.205,-0.11 0.465,-0.11 z m -0.105,1.96 q 0.32,0 0.485,-0.225 0.17,-0.23 0.17,-0.64 0,-0.405 -0.16,-0.58 -0.155,-0.175 -0.45,-0.175 -0.24,0 -0.435,0.13 -0.19,0.13 -0.33,0.36 0.01,0.59 0.18,0.86 0.17,0.27 0.54,0.27 z" />
      <path
         inkscape:connector-curvature="0"
         id="path117"
         d="m 402.24256,530.6209 v 0.355 h -1.275 v 1.225 h 1.565 v 0.345 h -1.995 v -3.44 h 1.95 l -0.05,0.35 h -1.47 v 1.165 z" />
      <path
         inkscape:connector-curvature="0"
         id="path119"
         d="m 407.54866,530.3059 q 0.275,0 0.495,0.12 0.22,0.12 0.35,0.365 0.13,0.24 0.13,0.595 0,0.37 -0.145,0.65 -0.14,0.275 -0.39,0.42 -0.245,0.145 -0.545,0.145 -0.6,0 -0.87,-0.435 -0.27,-0.435 -0.27,-1.245 0,-0.57 0.15,-0.99 0.155,-0.425 0.44,-0.655 0.285,-0.23 0.685,-0.23 0.375,0 0.68,0.205 l -0.16,0.28 q -0.245,-0.145 -0.525,-0.145 -0.395,0 -0.62,0.375 -0.225,0.37 -0.235,1.01 0.16,-0.245 0.365,-0.355 0.205,-0.11 0.465,-0.11 z m -0.105,1.96 q 0.32,0 0.485,-0.225 0.17,-0.23 0.17,-0.64 0,-0.405 -0.16,-0.58 -0.155,-0.175 -0.45,-0.175 -0.24,0 -0.435,0.13 -0.19,0.13 -0.33,0.36 0.01,0.59 0.18,0.86 0.17,0.27 0.54,0.27 z" />
      <path
         inkscape:connector-curvature="0"
         id="path121"
         d="m 409.9117,529.4359 v 1.09 q 0.15,-0.085 0.29,-0.115 0.145,-0.035 0.305,-0.035 0.43,0 0.685,0.285 0.255,0.285 0.255,0.795 0,0.34 -0.145,0.6 -0.14,0.26 -0.405,0.405 -0.26,0.14 -0.61,0.14 -0.575,0 -0.995,-0.41 l 0.255,-0.25 q 0.16,0.165 0.34,0.245 0.18,0.075 0.405,0.075 0.345,0 0.53,-0.205 0.19,-0.21 0.19,-0.61 0,-0.395 -0.17,-0.565 -0.165,-0.175 -0.45,-0.175 -0.145,0 -0.26,0.03 -0.115,0.025 -0.28,0.085 h -0.335 v -1.715 h 1.82 l -0.065,0.33 z" />
      <path
         inkscape:connector-curvature="0"
         id="path123"
         d="m 416.2428,529.0459 q 0.32,0 0.55,0.125 0.235,0.125 0.36,0.345 0.125,0.22 0.125,0.495 0,0.315 -0.15,0.615 -0.145,0.3 -0.47,0.665 -0.325,0.36 -0.92,0.9 h 1.62 l -0.05,0.355 h -2.045 v -0.34 q 0.68,-0.65 1.005,-1.01 0.325,-0.365 0.45,-0.625 0.125,-0.26 0.125,-0.55 0,-0.29 -0.165,-0.455 -0.16,-0.17 -0.45,-0.17 -0.245,0 -0.41,0.085 -0.165,0.08 -0.335,0.28 l -0.29,-0.22 q 0.21,-0.255 0.46,-0.375 0.25,-0.12 0.59,-0.12 z" />
      <path
         inkscape:connector-curvature="0"
         id="path125"
         d="m 419.39584,529.0459 q 0.55,0 0.835,0.46 0.29,0.455 0.29,1.315 0,0.865 -0.29,1.325 -0.285,0.455 -0.835,0.455 -0.55,0 -0.84,-0.455 -0.285,-0.46 -0.285,-1.325 0,-0.86 0.285,-1.315 0.29,-0.46 0.84,-0.46 z m 0,0.34 q -0.69,0 -0.69,1.435 0,1.445 0.69,1.445 0.69,0 0.69,-1.445 0,-1.435 -0.69,-1.435 z m 0,1.11 q 0.14,0 0.235,0.095 0.095,0.095 0.095,0.23 0,0.14 -0.095,0.235 -0.095,0.095 -0.235,0.095 -0.14,0 -0.235,-0.095 -0.09,-0.095 -0.09,-0.235 0,-0.135 0.09,-0.23 0.095,-0.095 0.235,-0.095 z" />
    </g>
  </g>
</svg>
