<?xml version="1.0" encoding="UTF-8" standalone="no"?>
<svg
   xmlns:dc="http://purl.org/dc/elements/1.1/"
   xmlns:cc="http://creativecommons.org/ns#"
   xmlns:rdf="http://www.w3.org/1999/02/22-rdf-syntax-ns#"
   xmlns:svg="http://www.w3.org/2000/svg"
   xmlns="http://www.w3.org/2000/svg"
   xmlns:xlink="http://www.w3.org/1999/xlink"
   xmlns:sodipodi="http://sodipodi.sourceforge.net/DTD/sodipodi-0.dtd"
   xmlns:inkscape="http://www.inkscape.org/namespaces/inkscape"
   height="48"
   width="48"
   version="1.1"
   id="svg22"
   sodipodi:docname="icon.svg"
   inkscape:version="0.92.2 5c3e80d, 2017-08-06">
  <metadata
     id="metadata28">
    <rdf:RDF>
      <cc:Work
         rdf:about="">
        <dc:format>image/svg+xml</dc:format>
        <dc:type
           rdf:resource="http://purl.org/dc/dcmitype/StillImage" />
      </cc:Work>
    </rdf:RDF>
  </metadata>
  <defs
     id="defs26">
    <linearGradient
       id="linearGradient848">
      <stop
         id="stop844"
         stop-color="#3ec896"
         offset="0"
         style="stop-color:#0bc78c;stop-opacity:1" />
      <stop
         id="stop846"
         stop-color="#66d9af"
         offset="1"
         style="stop-color:#51d4a4;stop-opacity:1" />
    </linearGradient>
  </defs>
  <sodipodi:namedview
     pagecolor="#ffffff"
     bordercolor="#666666"
     borderopacity="1"
     objecttolerance="10"
     gridtolerance="10"
     guidetolerance="10"
     inkscape:pageopacity="0"
     inkscape:pageshadow="2"
     inkscape:window-width="1366"
     inkscape:window-height="701"
     id="namedview24"
     showgrid="false"
     inkscape:zoom="4.9166667"
     inkscape:cx="-18.20339"
     inkscape:cy="24"
     inkscape:window-x="0"
     inkscape:window-y="0"
     inkscape:window-maximized="1"
     inkscape:current-layer="svg22" />
  <linearGradient
     id="a"
     gradientTransform="matrix(0.99999996,0,0,1.2802024,-384.57146,-648.08424)"
     gradientUnits="userSpaceOnUse"
     x1="409.16467"
     x2="409.57144"
     xlink:href="#linearGradient848"
     y1="541.20923"
     y2="507.798" />
  <linearGradient
     id="b">
    <stop
       offset="0"
       stop-color="#3ec896"
       id="stop3" />
    <stop
       offset="1"
       stop-color="#66d9af"
       id="stop5" />
  </linearGradient>
  <clipPath
     id="c">
    <rect
       height="46"
       ry="2.164706"
       width="46"
       x="1.000012"
       y="1.000004"
       id="rect8" />
  </clipPath>
  <linearGradient
     id="d"
     gradientTransform="matrix(1.0454545 0 0 1.3529412 -403.14288 -686.02084)"
     gradientUnits="userSpaceOnUse"
     x1="409.57144"
     x2="409.57144"
     xlink:href="#b"
     y1="542.79797"
     y2="507.798" />
  <rect
     rx="2.164706"
     style="fill:url(#a);stroke-width:1.00000012"
     id="rect14"
     y="2"
     x="2"
     width="44"
     ry="2.164706"
     height="43.526882" />
  <path
     style="clip-rule:evenodd;fill:#ffffff;fill-opacity:0.84693903;fill-rule:evenodd;stroke-width:1.31742203"
     inkscape:connector-curvature="0"
     id="path18"
     d="m 36.582241,22.372662 c -0.04006,-0.352141 -0.455098,-0.616762 -0.81398,-0.616762 -1.160349,0 -2.190006,-0.673993 -2.62183,-1.716343 -0.441148,-1.067618 -0.156696,-2.312701 0.708082,-3.097432 0.272205,-0.246163 0.305275,-0.658234 0.07701,-0.944479 -0.593885,-0.74605 -1.268896,-1.419952 -2.005905,-2.003999 -0.288596,-0.229106 -0.71203,-0.197223 -0.962284,0.07686 -0.754723,0.826864 -2.110386,1.134174 -3.157953,0.701778 -1.090146,-0.453645 -1.77759,-1.546427 -1.710321,-2.719465 0.02211,-0.368459 -0.250058,-0.688819 -0.621394,-0.7316 -0.945801,-0.108176 -1.899891,-0.111592 -2.848512,-0.0079 -0.367099,0.04008 -0.639305,0.352893 -0.626954,0.716683 0.04121,1.16148 -0.654477,2.235155 -1.73379,2.672494 -1.035021,0.418219 -2.381177,0.113527 -3.134392,-0.705968 -0.248931,-0.269928 -0.665481,-0.303121 -0.955505,-0.07948 -0.758867,0.588978 -1.449037,1.263438 -2.048389,2.00334 -0.23376,0.287634 -0.199366,0.704566 0.07562,0.952028 0.88126,0.789479 1.165817,2.04538 0.707989,3.125295 -0.437097,1.029597 -1.517826,1.693148 -2.755056,1.693148 -0.401482,-0.01275 -0.687443,0.253804 -0.731357,0.614896 -0.111423,0.941039 -0.112689,1.899877 -0.0057,2.848558 0.03972,0.353633 0.467427,0.615932 0.830279,0.615932 1.102589,-0.02789 2.161172,0.647427 2.605244,1.716433 0.442656,1.067618 0.1581,2.311961 -0.707989,3.097341 -0.270883,0.246163 -0.305276,0.657585 -0.07701,0.94383 0.588324,0.74129 1.263416,1.415841 2.003061,2.00474 0.290116,0.231246 0.712225,0.198622 0.963712,-0.07549 0.757543,-0.828902 2.113114,-1.135656 3.156526,-0.702416 1.092885,0.452244 1.780328,1.544935 1.713047,2.718622 -0.02198,0.368641 0.251579,0.68956 0.621395,0.731691 0.483841,0.0558 0.970584,0.0837 1.458661,0.0837 0.463284,0 0.926671,-0.02516 1.389966,-0.07618 0.36718,-0.04008 0.639202,-0.352892 0.62685,-0.717331 -0.04247,-1.160831 0.654477,-2.234507 1.732375,-2.671094 1.041996,-0.42102 2.382499,-0.112844 3.135807,0.705774 0.250347,0.269382 0.663972,0.301914 0.955597,0.07903 0.757451,-0.587589 1.446218,-1.261491 2.048389,-2.003431 0.233668,-0.286996 0.20069,-0.704567 -0.07562,-0.951949 -0.881261,-0.789479 -1.167222,-2.045561 -0.709407,-3.124737 0.430409,-1.015886 1.471002,-1.697987 2.590269,-1.697987 l 0.156592,0.0045 c 0.363036,0.02915 0.697054,-0.247472 0.741059,-0.614063 0.11154,-0.941872 0.112921,-1.899879 0.0057,-2.848559 z m -12.562163,5.595341 c -2.328976,0 -4.223409,-1.874064 -4.223409,-4.177996 0,-2.303852 1.894433,-4.177996 4.223409,-4.177996 2.328894,0 4.223317,1.874144 4.223317,4.177996 0,2.303932 -1.894423,4.177996 -4.223317,4.177996 z" />
</svg>
