<?xml version="1.0" encoding="UTF-8" standalone="no"?>
<svg
   xmlns:dc="http://purl.org/dc/elements/1.1/"
   xmlns:cc="http://creativecommons.org/ns#"
   xmlns:rdf="http://www.w3.org/1999/02/22-rdf-syntax-ns#"
   xmlns:svg="http://www.w3.org/2000/svg"
   xmlns="http://www.w3.org/2000/svg"
   xmlns:xlink="http://www.w3.org/1999/xlink"
   xmlns:sodipodi="http://sodipodi.sourceforge.net/DTD/sodipodi-0.dtd"
   xmlns:inkscape="http://www.inkscape.org/namespaces/inkscape"
   width="48"
   height="48"
   viewBox="0 0 48 48"
   version="1.1"
   id="svg102"
   sodipodi:docname="imagewriter.svg"
   inkscape:version="0.92.2 5c3e80d, 2017-08-06">
  <metadata
     id="metadata106">
    <rdf:RDF>
      <cc:Work
         rdf:about="">
        <dc:format>image/svg+xml</dc:format>
        <dc:type
           rdf:resource="http://purl.org/dc/dcmitype/StillImage" />
        <dc:title />
      </cc:Work>
    </rdf:RDF>
  </metadata>
  <sodipodi:namedview
     pagecolor="#ffffff"
     bordercolor="#666666"
     borderopacity="1"
     objecttolerance="10"
     gridtolerance="10"
     guidetolerance="10"
     inkscape:pageopacity="0"
     inkscape:pageshadow="2"
     inkscape:window-width="1366"
     inkscape:window-height="699"
     id="namedview104"
     showgrid="true"
     showguides="true"
     inkscape:zoom="7.9581738"
     inkscape:cx="1.7595078"
     inkscape:cy="21.356856"
     inkscape:window-x="0"
     inkscape:window-y="0"
     inkscape:window-maximized="1"
     inkscape:current-layer="svg102">
    <inkscape:grid
       type="xygrid"
       id="grid1299" />
  </sodipodi:namedview>
  <defs
     id="defs54">
    <linearGradient
       id="a"
       y1="525.26"
       x1="395.91"
       y2="513.95"
       x2="425.21"
       gradientUnits="userSpaceOnUse"
       gradientTransform="translate(-419.00001,-506.71113)">
      <stop
         stop-color="#da4453"
         id="stop2" />
      <stop
         offset="1"
         stop-color="#ff7336"
         id="stop4" />
    </linearGradient>
    <linearGradient
       id="b"
       y1="44.09"
       x1="26.362"
       y2="33.75"
       x2="44"
       gradientUnits="userSpaceOnUse">
      <stop
         stop-color="#c0392b"
         id="stop7" />
      <stop
         offset="1"
         stop-color="#c0392b"
         stop-opacity="0"
         id="stop9" />
    </linearGradient>
    <linearGradient
       id="c"
       y1="519.85"
       x1="388.57"
       y2="528.52"
       x2="398.82"
       gradientUnits="userSpaceOnUse">
      <stop
         stop-color="#4d4d4d"
         id="stop12" />
      <stop
         offset="1"
         stop-color="#31363b"
         id="stop14" />
    </linearGradient>
    <linearGradient
       id="d"
       y1="509.8"
       x1="394.57"
       y2="537.95"
       x2="422.73"
       gradientUnits="userSpaceOnUse">
      <stop
         stop-color="#e5e7e8"
         id="stop17" />
      <stop
         offset="1"
         stop-color="#dcdee0"
         id="stop19" />
    </linearGradient>
    <linearGradient
       id="e"
       x1="389.57"
       x2="427.57"
       gradientUnits="userSpaceOnUse"
       gradientTransform="matrix(0.70711,0.70711,-0.70711,0.70711,105.48,-635.29)">
      <stop
         stop-color="#fcfcfc"
         id="stop22" />
      <stop
         offset="1"
         stop-color="#eff0f1"
         id="stop24" />
    </linearGradient>
    <linearGradient
       xlink:href="#d"
       id="f"
       y1="133.33"
       x1="771.7"
       y2="160.66"
       gradientUnits="userSpaceOnUse"
       x2="799.04"
       gradientTransform="translate(-444.75968,-516.38672)" />
    <linearGradient
       id="g"
       y1="551.8"
       y2="528.8"
       gradientUnits="userSpaceOnUse"
       x2="0"
       gradientTransform="matrix(0.49677,0,0,0.76923,-191.25657,-404.02657)">
      <stop
         stop-color="#c6cdd1"
         id="stop28" />
      <stop
         offset="1"
         stop-color="#e0e5e7"
         id="stop30" />
    </linearGradient>
    <linearGradient
       id="h"
       y1="557.8"
       y2="505.8"
       gradientUnits="userSpaceOnUse"
       x2="0"
       gradientTransform="matrix(0.61141,0,0,0.76923,-238.90657,-386.33657)">
      <stop
         stop-color="#42a603"
         id="stop33" />
      <stop
         offset="1"
         stop-color="#78da06"
         id="stop35" />
    </linearGradient>
    <linearGradient
       id="i"
       x1="398.57"
       x2="400.57"
       gradientUnits="userSpaceOnUse"
       gradientTransform="matrix(1.5625 0 0 1.53847-227.95-292.82)">
      <stop
         stop-color="#faae2a"
         id="stop38" />
      <stop
         offset="1"
         stop-color="#ffc35a"
         id="stop40" />
    </linearGradient>
    <linearGradient
       xlink:href="#i"
       id="j"
       x1="398.57"
       gradientUnits="userSpaceOnUse"
       x2="400.57"
       gradientTransform="matrix(1.5625,0,0,1.53847,-604.39657,-793.87657)" />
    <linearGradient
       id="k"
       y1="539.88"
       x1="410.5"
       y2="529.73"
       x2="390.65"
       gradientUnits="userSpaceOnUse"
       gradientTransform="matrix(1.1580635,0,0,1.4383458,-439.42451,-734.17514)">
      <stop
         stop-color="#bcfd93"
         id="stop44" />
      <stop
         offset="1"
         stop-color="#fafff5"
         id="stop46" />
    </linearGradient>
    <linearGradient
       id="l"
       y1="34.612"
       x1="14.187"
       y2="54.612"
       x2="34.19"
       gradientUnits="userSpaceOnUse"
       gradientTransform="matrix(1,0,0,1.0440589,7.9999935,-1.176223)">
      <stop
         stop-color="#383e51"
         id="stop49" />
      <stop
         offset="1"
         stop-color="#655c6f"
         stop-opacity="0"
         id="stop51" />
    </linearGradient>
    <linearGradient
       id="h-7"
       y1="557.79999"
       y2="505.79999"
       gradientUnits="userSpaceOnUse"
       x2="0"
       gradientTransform="matrix(0.61141,0,0,0.76923,-238.90657,-386.33657)">
      <stop
         stop-color="#42a603"
         id="stop33-5" />
      <stop
         offset="1"
         stop-color="#78da06"
         id="stop35-3" />
    </linearGradient>
    <linearGradient
       id="g-5"
       y1="551.79999"
       y2="528.79999"
       gradientUnits="userSpaceOnUse"
       x2="0"
       gradientTransform="matrix(0.49677,0,0,0.76923,-191.25657,-404.02657)">
      <stop
         stop-color="#c6cdd1"
         id="stop28-6" />
      <stop
         offset="1"
         stop-color="#e0e5e7"
         id="stop30-2" />
    </linearGradient>
    <linearGradient
       id="i-9"
       x1="398.57001"
       x2="400.57001"
       gradientUnits="userSpaceOnUse"
       gradientTransform="matrix(1.5625,0,0,1.53847,-227.95,-292.82)">
      <stop
         stop-color="#faae2a"
         id="stop38-1" />
      <stop
         offset="1"
         stop-color="#ffc35a"
         id="stop40-2" />
    </linearGradient>
    <linearGradient
       xlink:href="#i-9"
       id="j-7"
       x1="398.57001"
       gradientUnits="userSpaceOnUse"
       x2="400.57001"
       gradientTransform="matrix(1.5625,0,0,1.53847,-604.39657,-793.87657)" />
    <linearGradient
       id="linearGradient1040"
       x1="398.57001"
       x2="400.57001"
       gradientUnits="userSpaceOnUse"
       gradientTransform="matrix(1.5625,0,0,1.53847,-227.95,-292.82)">
      <stop
         stop-color="#faae2a"
         id="stop1036" />
      <stop
         offset="1"
         stop-color="#ffc35a"
         id="stop1038" />
    </linearGradient>
    <linearGradient
       id="c-0"
       y1="519.84998"
       x1="388.57001"
       y2="528.52002"
       x2="398.82001"
       gradientUnits="userSpaceOnUse">
      <stop
         stop-color="#4d4d4d"
         id="stop12-9" />
      <stop
         offset="1"
         stop-color="#31363b"
         id="stop14-3" />
    </linearGradient>
    <linearGradient
       id="h-7-6"
       y1="557.79999"
       y2="505.79999"
       gradientUnits="userSpaceOnUse"
       x2="0"
       gradientTransform="matrix(0.61141,0,0,0.80312143,-229.65001,-403.22242)">
      <stop
         stop-color="#42a603"
         id="stop33-5-1" />
      <stop
         offset="1"
         stop-color="#78da06"
         id="stop35-3-8" />
    </linearGradient>
    <linearGradient
       id="g-5-7"
       y1="551.79999"
       y2="528.79999"
       gradientUnits="userSpaceOnUse"
       x2="0"
       gradientTransform="matrix(0.49677,0,0,0.80312143,-182.00001,-421.69183)">
      <stop
         stop-color="#c6cdd1"
         id="stop28-6-9" />
      <stop
         offset="1"
         stop-color="#e0e5e7"
         id="stop30-2-2" />
    </linearGradient>
    <linearGradient
       inkscape:collect="always"
       xlink:href="#i-9-0"
       id="linearGradient915"
       gradientUnits="userSpaceOnUse"
       gradientTransform="matrix(1.5625,0,0,1.6062533,-604.52001,-828.71819)"
       x1="398.57001"
       x2="400.57001" />
    <linearGradient
       id="i-9-0"
       x1="398.57001"
       x2="400.57001"
       gradientUnits="userSpaceOnUse"
       gradientTransform="matrix(1.5625,0,0,1.53847,-227.95,-292.82)">
      <stop
         stop-color="#faae2a"
         id="stop38-1-2" />
      <stop
         offset="1"
         stop-color="#ffc35a"
         id="stop40-2-3" />
    </linearGradient>
    <linearGradient
       xlink:href="#i-9-0"
       id="j-7-7"
       x1="398.57001"
       gradientUnits="userSpaceOnUse"
       x2="400.57001"
       gradientTransform="matrix(1.5625,0,0,1.6062533,-595.14001,-828.71819)" />
    <linearGradient
       id="linearGradient1181"
       x1="398.57001"
       x2="400.57001"
       gradientUnits="userSpaceOnUse"
       gradientTransform="matrix(1.5625,0,0,1.53847,-227.95,-292.82)">
      <stop
         stop-color="#faae2a"
         id="stop1177" />
      <stop
         offset="1"
         stop-color="#ffc35a"
         id="stop1179" />
    </linearGradient>
    <linearGradient
       id="c-0-5"
       y1="519.84998"
       x1="388.57001"
       y2="528.52002"
       x2="398.82001"
       gradientUnits="userSpaceOnUse">
      <stop
         stop-color="#4d4d4d"
         id="stop12-9-9" />
      <stop
         offset="1"
         stop-color="#31363b"
         id="stop14-3-2" />
    </linearGradient>
  </defs>
  <g
     inkscape:groupmode="layer"
     id="layer2"
     inkscape:label="Layer 2"
     style="display:inline" />
  <g
     inkscape:groupmode="layer"
     id="layer1"
     inkscape:label="Layer 1"
     style="display:inline" />
  <path
     d="m 31.999993,20.696811 c -1.659,-0.001 -3,1.404259 -3,3.132176 -0.001,0.180623 0.014,0.360201 0.043,0.538735 0.237,-1.515974 1.49,-2.628941 2.961,-2.631029 1.46,0 2.709,1.096262 2.959,2.597619 0.027,-0.16705 0.042,-0.336187 0.043,-0.505325 0.001,-1.732093 -1.343,-3.132176 -3,-3.132176"
     id="path66"
     inkscape:connector-curvature="0"
     style="opacity:0.1;stroke-width:8.77412796;stroke-opacity:0.55" />
  <path
     d="m 35.999993,23.88119 c 0,1.067028 -0.391,2.133013 -1.174,2.950511 -0.783,0.817498 -1.804,1.225725 -2.826,1.225725 v 1.044059 c 1.277,0 2.555,-0.509501 3.533,-1.531635 0.978,-1.021089 1.467,-2.355396 1.467,-3.68866 z"
     id="path68"
     inkscape:connector-curvature="0"
     style="fill:#95a5a6;stroke-width:8.77412796;stroke-opacity:0.55" />
  <rect
     style="fill:url(#h-7-6);stroke-width:1.02179205"
     id="rect72"
     height="22.969296"
     rx="0"
     y="21.793062"
     x="12.000001"
     width="25" />
  <rect
     style="fill:#46943b;stroke-width:2.86101747;stroke-opacity:0.55"
     id="rect74"
     height="1.0440589"
     rx="0"
     y="43.7183"
     x="12.000001"
     width="25" />
  <rect
     style="fill:url(#g-5-7);stroke-width:1.02179205"
     id="rect76"
     height="18.79306"
     rx="0"
     y="3"
     x="14.000001"
     width="21" />
  <g
     style="fill:#23262c"
     id="g82"
     transform="matrix(1,0,0,1.0440589,-376.57001,-522.99686)">
    <rect
       id="rect78"
       height="6"
       y="506.79999"
       x="393.57001"
       width="6" />
    <rect
       id="rect80"
       height="6"
       y="506.79999"
       x="402.57001"
       width="6" />
  </g>
  <rect
     style="fill:url(#linearGradient915);stroke-width:1.02179205"
     id="rect84"
     height="6.2643533"
     y="6.1321764"
     x="18.000002"
     width="4" />
  <rect
     style="fill:url(#j-7-7);stroke-width:1.02179205"
     id="rect86"
     height="6.2643533"
     y="6.1321764"
     x="27.000002"
     width="4" />
  <g
     style="color:#000000;stroke-width:3;stroke-linejoin:round"
     id="g94"
     transform="matrix(1,0,0,1.0440589,-376.57001,-522.99686)">
    <path
       inkscape:connector-curvature="0"
       style="fill:url(#c-0-5)"
       id="path90"
       d="m 388.94,519.85 c -0.241,1.277 -0.373,2.594 -0.373,3.943 0,1.349 0.132,2.666 0.373,3.943 l 11.627,-1.943 c 1.095,-0.168 2,-0.892 2,-2 0,-1.108 -0.905,-1.832 -2,-2 z" />
    <circle
       style="fill:#27ae60;stroke-linecap:round"
       id="circle92"
       r="1"
       cy="523.79999"
       cx="400.57001" />
  </g>
  <path
     inkscape:connector-curvature="0"
     style="fill:url(#k);stroke-width:1.29061842"
     id="path96"
     d="m 35.833162,33.743313 0.100748,-0.02302 c 0.0278,0.02734 0.02316,0.08199 0.01506,0.130891 -0.01853,0.115076 -0.0637,0.32219 -0.09381,0.419997 l -0.02548,0.08056 c -0.0359,0.120819 -0.0718,0.234449 -0.138967,0.30349 -0.187607,0.212876 -0.488703,0.382601 -0.960035,0.637187 -0.728423,0.395544 -1.908489,0.644379 -3.004017,0.637187 -0.392584,-0.01008 -0.772429,-0.06473 -1.105951,-0.112198 -1.021412,-0.145273 -1.759099,-0.248834 -1.911963,0.90472 -0.193396,1.438344 0.899817,3.200319 0.911397,3.21614 v 0.04747 l -0.0359,0.01008 c 0,0 -1.744044,-0.998213 -1.786891,-1.026979 l -0.05559,-0.0489 -0.04401,-0.05323 c -0.13202,-0.156779 -0.396057,-0.509173 -0.932241,-1.281565 -1.039941,-1.493002 -2.257065,-1.690057 -3.193938,-1.405264 -0.228139,0.06759 -0.519971,0.274725 -0.708736,0.509173 -0.48986,0.599791 -0.434274,1.808002 -0.40648,2.246697 0.03243,0.497668 0.05327,0.535066 0.06253,0.57534 l -0.0058,0.05033 -0.03475,0.0058 -0.01969,-0.01726 -1.430216,-0.86876 -0.05443,-0.290546 c -0.03706,-0.1913 -0.07875,-0.404175 -0.159813,-0.67027 -0.511864,-1.674234 -1.660664,-2.934226 -2.927584,-3.206072 -0.855808,-0.18267 -2.41572,-0.204245 -3.241419,1.733206 -0.345103,0.808351 -0.324258,1.86122 0.05443,2.74868 0.385634,0.907596 1.07584,1.490126 1.891117,1.602316 0.809486,0.109313 1.41747,-0.123699 1.759098,-0.671707 0.343945,-0.553763 0.408796,-1.308894 0.164445,-1.923069 -0.261722,-0.6602 -0.657781,-1.009717 -1.207861,-1.067253 -0.41806,-0.04746 -0.729579,0.169725 -0.840753,0.391231 -0.03243,0.06903 -0.09149,0.197054 -0.09265,0.378286 v 0.0072 c 0,0.494791 0.364789,0.629995 0.438905,0.637185 0.02316,0 0.132019,-0.0043 0.277936,-0.0489 l 0.11928,-0.0489 0.0359,-0.0072 c 0.265196,-0.06041 0.51997,0.133769 0.594087,0.454517 0.01274,0.05898 0.01969,0.117942 0.01969,0.176916 0,0.212876 -0.08686,0.40993 -0.231613,0.530751 l -0.03358,0.02588 c -0.07644,0.06041 -0.145916,0.09349 -0.220032,0.122266 -0.207293,0.08487 -0.391426,0.1237 -0.576716,0.1237 -0.631144,-0.0014 -1.510114,-0.676023 -1.522853,-1.943206 -0.0058,-0.714857 0.282567,-1.366429 0.790957,-1.784987 0.58598,-0.480408 1.598128,-0.644379 2.53616,0.07049 1.155745,0.878828 1.456841,2.59909 1.155745,3.77278 -0.437748,1.698687 -1.671084,2.607721 -3.298163,2.42649 -1.152274,-0.128011 -2.223481,-0.883144 -2.860417,-2.020875 -0.282568,-0.503423 -0.492177,-1.065815 -0.605667,-1.625333 -0.260564,-1.281565 0.0035,-2.643678 0.199186,-3.246344 0.623039,-1.918755 1.815843,-3.568538 3.542516,-4.906198 l 0.108858,-0.08487 c 3.672218,-2.803337 6.270914,-2.689707 8.175928,-2.607722 2.244326,0.09637 4.632254,1.058624 4.966934,1.193827 C 29.987267,28.831368 30,28 30,28 l 0.0093,-0.02877 0.02548,-0.0072 c 0.150549,0.02588 3.374597,0.619925 4.733006,1.603756 0.167919,0.123697 0.2513,0.250271 0.355525,0.384036 0.375213,0.481847 0.872021,2.488339 0.924135,2.905459 l -0.01969,0.04172 c -0.01969,0.0072 -0.06601,0.05179 -0.128546,0.103562 -0.31615,0.274725 -1.057312,0.919103 -2.006924,0.814104 -0.853492,-0.09349 -1.968708,-0.701912 -3.313219,-1.800808 0.05906,0.172601 0.339312,0.996773 0.386793,1.134854 l 0.01737,0.02732 c 0.194554,0.125133 2.062511,1.307457 2.990119,1.284444 0.74811,-0.0187 1.546015,-0.471777 1.865641,-0.710543 z m -0.868547,-2.314298 c 0.02548,-0.943554 -0.570926,-1.740397 -1.331773,-1.773481 -0.368265,-0.01581 -0.719158,0.146712 -0.987828,0.458833 -0.269829,0.312121 -0.423852,0.736433 -0.437748,1.19239 -0.02432,0.943553 0.570925,1.738958 1.330615,1.773479 0.370579,0.01584 0.720314,-0.146712 0.988986,-0.458832 0.26867,-0.312121 0.42385,-0.734994 0.437748,-1.192389" />
  <path
     inkscape:connector-curvature="0"
     style="opacity:0.2;fill:url(#l);fill-rule:evenodd;stroke-width:1.02179205"
     id="path98"
     d="m 33.189993,31.617667 0.008,0.04072 c 0.002,0.0021 0.004,0.0042 0.006,0.0063 0.324,0.34976 0.754,1.806222 0.799,2.108999 l -0.018,0.03028 c -0.017,0.0052 -0.057,0.03654 -0.111,0.07308 -0.081,0.05951 -0.202,0.143036 -0.344,0.228649 l -0.008,0.458342 c 0.099,-0.04907 0.239,-0.103362 0.301,-0.143036 v -0.0021 l 0.086,-0.01879 c 0.024,0.01984 0.021,0.06056 0.014,0.09605 -0.016,0.08353 -0.056,0.234913 -0.082,0.305909 l -0.021,0.05951 c -0.031,0.0877 -0.062,0.170181 -0.121,0.220296 -0.162,0.154521 -0.421,0.27772 -0.828,0.462518 -0.629,0.287116 -1.647,0.466695 -2.594,0.46043 -0.339,-0.0073 -0.667,-0.04594 -0.955,-0.07935 -0.882,-0.10545 -1.52,-0.181666 -1.652,0.654625 -0.167,1.044059 0.778,2.323031 0.787,2.334515 v 0.03445 l -0.031,0.0084 c 0,0 -1.506,-0.724577 -1.543,-0.746502 l -0.047,-0.03445 -0.039,-0.03863 c -0.114,-0.113803 -0.342,-0.369597 -0.805,-0.930257 -0.898,-1.083733 -1.95,-1.227813 -2.76,-1.022134 -0.197,0.04907 -0.448,0.199416 -0.611,0.369597 -0.423,0.435373 -0.374,1.312382 -0.35,1.631864 0.028,0.361245 0.045,0.38839 0.053,0.417624 l -0.004,0.03654 -0.031,0.0042 -0.018,-0.01253 -1.234,-0.630611 -0.047,-0.211944 c -0.032,-0.13886 -0.069,-0.291292 -0.139,-0.485487 -0.442,-1.215285 -1.434,-2.131969 -2.527,-2.328252 -0.739,-0.132595 -2.086,-0.147212 -2.799,1.258091 -0.298,0.586761 -0.28,1.352056 0.047,1.996241 0.333,0.658801 0.928,1.081645 1.633,1.162037 0.699,0.07935 1.225,-0.08874 1.52,-0.487575 0.297,-0.401963 0.352,-0.951138 0.141,-1.396951 -0.226,-0.479223 -0.568,-0.732929 -1.043,-0.774692 -0.361,-0.03341 -0.63,0.123199 -0.727,0.28294 -0.028,0.05011 -0.079,0.143036 -0.08,0.275632 v 0.0042 c 0,0.359156 0.315,0.458342 0.379,0.462518 0.02,0 0.115,-0.0021 0.24,-0.03445 l 0.061,-0.02088 0.043,-0.0167 0.029,-0.0042 c 0.229,-0.04385 0.45,0.0971 0.514,0.329923 0.011,0.04281 0.018,0.08352 0.018,0.126331 0,0.15452 -0.075,0.297556 -0.199,0.385257 l -0.029,0.02088 c -0.066,0.04385 -0.127,0.06682 -0.191,0.0877 -0.179,0.0616 -0.338,0.08979 -0.498,0.08979 -0.545,-10e-4 -1.304,-0.489664 -1.314,-1.40948 -0.005,-0.518897 0.244,-0.9929 0.684,-1.296721 0.506,-0.348716 1.381,-0.467738 2.191,0.05116 0.998,0.63792 1.257,1.886614 0.996,2.738566 -0.378,1.233034 -1.442,1.892879 -2.848,1.762372 -0.493,-0.04594 -0.966,-0.204636 -1.387,-0.453122 l 5.316,4.645018 h 15.984 v -9.163705 z" />
</svg>
