<?xml version="1.0" encoding="UTF-8" standalone="no"?>
<svg
   xmlns:dc="http://purl.org/dc/elements/1.1/"
   xmlns:cc="http://creativecommons.org/ns#"
   xmlns:rdf="http://www.w3.org/1999/02/22-rdf-syntax-ns#"
   xmlns:svg="http://www.w3.org/2000/svg"
   xmlns="http://www.w3.org/2000/svg"
   id="SVGRoot"
   version="1.1"
   viewBox="0 0 48 48"
   height="48px"
   width="48px">
  <defs
     id="defs815" />
  <metadata
     id="metadata818">
    <rdf:RDF>
      <cc:Work
         rdf:about="">
        <dc:format>image/svg+xml</dc:format>
        <dc:type
           rdf:resource="http://purl.org/dc/dcmitype/StillImage" />
        <dc:title></dc:title>
      </cc:Work>
    </rdf:RDF>
  </metadata>
  <rect
     ry="0.85180825"
     y="1.0000005"
     x="10.37034"
     height="46"
     width="27.259319"
     id="rect4159"
     style="opacity:1;fill:#323438;fill-opacity:1;stroke:none;stroke-width:0.85185373;stroke-linecap:round;stroke-linejoin:miter;stroke-miterlimit:4;stroke-dasharray:none;stroke-opacity:0.29943501" />
  <path
     id="rect4157"
     d="M 11.222194,4.4073696 V 40.185227 H 36.777806 V 4.4073696 Z"
     style="opacity:1;fill:#3ecdf6;fill-opacity:1;stroke:none;stroke-width:0.85185373;stroke-opacity:1" />
  <rect
     style="opacity:1;fill:#14284a;fill-opacity:1;stroke:none;stroke-width:0.85185373;stroke-linecap:round;stroke-linejoin:miter;stroke-miterlimit:4;stroke-dasharray:none;stroke-opacity:0.29943501"
     id="rect4163"
     width="25.555613"
     height="3.4073565"
     x="11.222194"
     y="40.185272"
     ry="0" />
  <rect
     y="7.8148293"
     x="12.074049"
     height="3.4073679"
     width="23.851904"
     id="rect4244"
     style="opacity:1;fill:#ffffff;fill-opacity:1;stroke:none;stroke-width:0.85185373;stroke-linecap:round;stroke-linejoin:miter;stroke-miterlimit:4;stroke-dasharray:none;stroke-opacity:0.29943501" />
  <circle
     r="0.85185373"
     cy="9.5185366"
     cx="33.370392"
     id="path4246"
     style="opacity:1;fill:#666666;fill-opacity:1;stroke:none;stroke-width:0.85185373;stroke-linecap:round;stroke-linejoin:miter;stroke-miterlimit:4;stroke-dasharray:none;stroke-opacity:0.29943501" />
  <circle
     r="0.85185373"
     cy="41.888981"
     cx="24"
     id="path4248"
     style="opacity:1;fill:#ffffff;fill-opacity:1;stroke:none;stroke-width:0.85185373;stroke-linecap:round;stroke-linejoin:miter;stroke-miterlimit:4;stroke-dasharray:none;stroke-opacity:0.29943501" />
  <path
     id="path4252"
     d="M 18.888878,42.740788 17.18517,41.888934 18.888878,41.037081 Z"
     style="fill:#ffffff;fill-opacity:1;fill-rule:evenodd;stroke:none;stroke-width:0.85185373px;stroke-linecap:butt;stroke-linejoin:miter;stroke-opacity:1" />
  <rect
     y="41.037125"
     x="29.111122"
     height="1.7037075"
     width="1.7037075"
     id="rect4254"
     style="opacity:1;fill:#ffffff;fill-opacity:1;stroke:none;stroke-width:0.85185373;stroke-linecap:round;stroke-linejoin:miter;stroke-miterlimit:4;stroke-dasharray:none;stroke-opacity:0.29943501" />
  <rect
     y="1.8518542"
     x="21.444439"
     height="1.7037075"
     width="5.1111226"
     id="rect4355"
     style="opacity:1;fill:#4b4e54;fill-opacity:1;stroke:none;stroke-width:0.85185373;stroke-linecap:round;stroke-linejoin:miter;stroke-miterlimit:4;stroke-dasharray:none;stroke-opacity:0.29943501" />
  <path
     style="fill:#d2f3fc;fill-opacity:1;fill-rule:evenodd;stroke:none;stroke-width:1.27097344"
     d="m 28.081211,14.492141 c -0.384297,0.02347 -0.790357,0.13526 -1.216222,0.334419 -0.42583,0.199186 -0.808008,0.448521 -1.148005,0.748699 -0.423746,0.360184 -0.705656,0.716802 -0.843535,1.069808 -0.283252,0.723621 -0.337669,1.358365 -0.166378,1.903361 0.171302,0.544997 0.511459,1.104779 1.023223,1.680415 1.123249,1.268619 2.034733,2.234655 2.733585,2.898299 0.196878,0.416578 0.33233,1.396448 0.407626,2.93823 -0.01955,0.24121 0.0036,0.524925 0.06821,0.851853 0.06453,0.326941 0.135062,0.609892 0.212964,0.846863 0.07791,0.236964 0.199037,0.571597 0.36104,1.006585 0.162002,0.434986 0.275164,0.743859 0.339411,0.92506 0.05411,0.156129 0.09791,0.354386 0.133101,0.593967 0.0352,0.239577 0.08762,0.459044 0.156396,0.658856 0.06879,0.199793 0.180209,0.396065 0.334419,0.590641 0.115349,0.148988 0.227888,0.268351 0.336083,0.356049 0.159063,0.134301 0.392516,0.759796 0.234592,0.574002 0.188401,0.221648 0.290163,0.421644 0.306135,0.59896 0.01598,0.177319 -0.02397,0.406886 -0.119792,0.690467 -0.05544,0.159371 -0.216589,0.365941 -0.485822,0.617262 -0.269245,0.251306 -0.41613,0.454794 -0.440901,0.610606 -0.0153,0.114059 0.02496,0.230955 0.121456,0.351057 0.0965,0.120103 0.212629,0.226533 0.347728,0.319445 0.135107,0.09289 0.285313,0.203994 0.450885,0.332755 0.16564,0.128713 0.288843,0.247886 0.371022,0.357713 0.05444,0.07725 0.147633,0.304365 0.277851,0.682148 0.130215,0.377797 0.291518,0.614243 0.484158,0.708769 0.09355,0.04402 0.202424,0.06098 0.327764,0.04991 0.125325,-0.01109 0.274123,-0.05808 0.447555,-0.138093 0.173387,-0.08004 0.32915,-0.157628 0.465858,-0.234593 0.136736,-0.07693 0.324954,-0.18627 0.564022,-0.327765 0.239078,-0.141469 0.431285,-0.251894 0.57733,-0.331092 0.489258,-0.26989 1.08442,-0.534808 1.785231,-0.79362 0.101586,-0.03752 0.158622,-0.06618 0.249568,-0.101493 v -3.602077 c -0.112409,-0.03323 -0.265236,-0.07247 -0.334419,-0.09983 0.178946,-0.185796 0.264336,-0.386009 0.254557,-0.602287 -0.0097,-0.216294 -0.08404,-0.395793 -0.221283,-0.537401 -0.13723,-0.141628 -0.300062,-0.217184 -0.487485,-0.226274 -0.108543,-0.0088 -0.622347,-4.71e-4 -1.543986,0.02496 -0.921644,0.02545 -1.512425,0.01915 -1.770258,-0.01997 -0.04825,-0.0039 -0.181929,-0.0031 -0.400969,0.0033 -0.219043,0.0065 -0.376767,-0.01602 -0.475841,-0.06656 -0.859548,-0.403535 -1.3536,-0.915763 -1.479098,-1.538993 l -0.0017,-0.08319 c 0.02705,-0.03421 0.08053,0.02199 0.159722,0.168042 0.116018,0.215804 0.257725,0.409212 0.425928,0.580658 0.375174,0.388532 0.752645,0.595808 1.133032,0.620588 0.253277,0.02053 0.340423,-0.07043 0.259549,-0.271195 -0.0052,-0.08542 -0.151726,-0.292536 -0.437574,-0.622253 -0.285849,-0.329715 -0.472334,-0.558707 -0.559029,-0.68714 -0.263703,-0.415924 -0.499142,-1.007091 -0.707105,-1.773585 -0.207955,-0.766478 -0.253101,-1.23265 -0.136429,-1.399237 -0.277695,-0.0896 -0.489547,-0.263088 -0.635564,-0.520762 -0.14603,-0.257674 -0.239398,-0.505239 -0.27785,-0.742045 -0.03847,-0.236806 -0.09626,-0.49849 -0.173034,-0.786966 -0.07674,-0.288485 -0.184239,-0.514179 -0.322772,-0.677157 -0.03875,-0.0456 -0.0631,-0.08143 -0.07321,-0.106482 -0.03031,-0.07531 0.11239,-0.07353 0.427591,0.0066 0.617362,0.17144 1.025018,0.235979 1.222875,0.191334 0.209898,-0.0437 0.36686,-0.183251 0.470849,-0.417609 0.103971,-0.234365 0.201562,-0.558858 0.292824,-0.973309 0.09127,-0.414457 0.189535,-0.745184 0.294489,-0.991611 0.01403,-0.02311 0.03188,-0.06432 0.0549,-0.123119 0.023,-0.05879 0.04213,-0.102267 0.05658,-0.131439 0.01448,-0.0292 0.03236,-0.06814 0.05158,-0.118128 0.01927,-0.05002 0.03149,-0.09013 0.03993,-0.119792 0.0085,-0.02965 0.01601,-0.06194 0.02163,-0.09484 0.0058,-0.03296 0.0057,-0.05972 -0.0017,-0.08152 -0.0073,-0.02187 -0.01719,-0.0402 -0.02828,-0.05324 -0.06292,-0.04761 -0.121226,-0.05958 -0.174698,-0.03661 -0.05346,0.02296 -0.10296,0.07941 -0.149739,0.169705 -0.04677,0.09029 -0.09329,0.197429 -0.139757,0.321109 -0.04645,0.123699 -0.09647,0.262596 -0.151404,0.415944 -0.05493,0.153366 -0.116546,0.302832 -0.183016,0.44922 -0.0665,0.146361 -0.145657,0.291484 -0.236256,0.435908 -0.09062,0.144396 -0.187515,0.267002 -0.292825,0.367696 -0.268261,0.239248 -0.548115,0.354145 -0.838543,0.342738 -0.187437,-0.0091 -0.295763,-0.02435 -0.324436,-0.04492 -0.02864,-0.02049 -0.0048,-0.05247 0.07154,-0.09484 0.390821,-0.253603 0.655009,-0.466112 0.790293,-0.637226 0.147335,-0.170159 0.310926,-0.437589 0.492478,-0.805269 0.03652,-0.07595 0.13078,-0.265706 0.282843,-0.569011 0.152056,-0.303301 0.277234,-0.530521 0.374349,-0.680485 0.06159,-0.08605 0.08817,-0.16228 0.08153,-0.229602 -0.0066,-0.0673 -0.02962,-0.115586 -0.06988,-0.143084 -0.04022,-0.02757 -0.08558,-0.03646 -0.134766,-0.02828 -0.104952,0.02184 -0.147005,0.103443 -0.128111,0.244576 0.01728,0.08638 -0.0027,0.200308 -0.05989,0.344401 -0.05721,0.144069 -0.11829,0.268544 -0.181351,0.372687 -0.06307,0.104148 -0.145935,0.23382 -0.249568,0.389323 -0.103665,0.15547 -0.158796,0.241976 -0.166377,0.25955 -0.264329,0.415623 -0.55599,0.747542 -0.873483,0.994938 -0.148933,0.115414 -0.282511,0.192284 -0.400971,0.231265 -0.118486,0.03894 -0.215368,0.0478 -0.289496,0.02662 -0.07416,-0.0212 -0.17902,-0.03756 -0.314454,-0.05158 -0.135443,-0.01401 -0.27034,-0.0088 -0.405962,0.01664 -0.09292,0.02285 -0.1672,-0.01621 -0.222946,-0.1148 -0.05575,-0.0986 -0.08037,-0.229352 -0.0732,-0.392652 0.001,-0.01206 0.03311,-0.109802 0.0965,-0.292825 0.06341,-0.18303 0.08924,-0.335006 0.07487,-0.457539 -0.01889,-0.141132 0.0012,-0.321035 0.06157,-0.540728 -0.01561,-0.03165 -0.07155,-0.107834 -0.168042,-0.227937 -0.09649,-0.120115 -0.236051,-0.221319 -0.417608,-0.302807 -0.181562,-0.08149 -0.328411,-0.07424 -0.439237,0.01997 -0.162002,0.126465 -0.232559,0.266072 -0.214627,0.419272 0.01796,0.153178 0.09122,0.29801 0.219618,0.435909 0.111809,0.118323 0.235244,0.202153 0.371022,0.249568 0.135774,0.04743 0.225572,0.05043 0.271197,0.01165 0.06616,-0.06745 0.110981,-0.06088 0.134766,0.01997 0.02184,0.104953 0.0087,0.196242 -0.03993,0.271197 -0.03456,0.05185 -0.121559,0.0506 -0.262877,-0.0033 -0.1413,-0.05395 -0.287991,-0.141062 -0.439238,-0.259549 -0.151572,-0.11821 -0.26445,-0.229453 -0.341073,-0.332756 -0.15874,-0.213177 -0.271017,-0.452613 -0.33442,-0.718751 -0.0634,-0.266143 -0.0035,-0.470809 0.178024,-0.613934 0.188074,-0.148635 0.428369,-0.162548 0.722079,-0.0416 0.293688,0.120928 0.595735,0.369931 0.905095,0.747035 0.05834,0.02901 0.122592,0.0025 0.192997,-0.07986 0.07073,-0.08192 0.177481,-0.174061 0.319445,-0.27785 0.141959,-0.103831 0.265801,-0.151851 0.374351,-0.143086 0.0065,-0.0056 -0.03169,-0.05695 -0.114801,-0.154731 -0.815544,-0.721669 -0.896155,-1.404739 -0.242911,-2.049772 0.120905,-0.06912 0.229455,-0.119784 0.3261,-0.151405 0.09664,-0.03163 0.214718,-0.0474 0.354385,-0.04825 0.139672,-8.17e-4 0.292946,0.03985 0.459202,0.123119 0.166237,0.08328 0.348561,0.208134 0.547382,0.376013 l 0.3078,0.362704 c 0.177305,0.208607 0.233927,0.361079 0.171368,0.459202 -0.09784,0.162321 -0.195933,0.243553 -0.296153,0.244575 -0.100242,0.001 -0.167736,-0.0897 -0.201316,-0.274523 -0.07329,-0.218353 -0.246546,-0.396511 -0.520685,-0.534056 -0.274126,-0.137556 -0.524095,-0.09478 -0.7487,0.129775 -0.157433,0.145043 -0.198811,0.333574 -0.126447,0.564021 0.07233,0.230475 0.186333,0.419311 0.344402,0.565683 0.158096,0.146358 0.266801,0.199201 0.324436,0.161387 0.04466,-0.02673 0.20374,-0.07242 0.479168,-0.138094 0.275437,-0.06569 0.471257,-0.129415 0.58565,-0.192998 0.298579,-0.163969 0.512122,-0.206759 0.642218,-0.126447 0.130058,0.08034 0.252794,0.255141 0.367694,0.522426 0.114927,0.267264 0.243539,0.457618 0.385997,0.572339 0.147988,0.121257 0.307717,0.209812 0.479167,0.266204 0.171451,0.05639 0.339514,0.0996 0.504125,0.128112 0.164602,0.02853 0.415673,0.128063 0.753691,0.301143 0.338011,0.173085 0.724826,0.423761 1.159652,0.750364 0.01206,10e-4 0.05579,0.0035 0.131438,0.0066 0.07563,0.0031 0.158974,0.01563 0.251231,0.03826 0.09224,0.02266 0.211484,0.05864 0.356048,0.109809 0.144563,0.05117 0.334324,0.145451 0.569011,0.282843 0.109406,0.06405 0.237934,0.160981 0.356049,0.239584 V 20.69293 c -0.556393,-0.223679 -0.969674,-0.335288 -1.234522,-0.332756 0.317682,-0.05956 0.735073,-0.01461 1.234522,0.116464 v -1.472442 c -0.03046,-0.0041 -0.06306,-0.01313 -0.09317,-0.01664 -1.227229,-0.135928 -2.265111,-0.478298 -3.112926,-1.026549 -0.887575,-0.581838 -1.577567,-1.196454 -2.071402,-1.843465 -0.344211,-0.471008 -0.850266,-0.870821 -1.5157,-1.19792 -0.665442,-0.327092 -1.299032,-0.469637 -1.903361,-0.42759 z m 1.562286,3.405751 c 0.06129,-0.0071 0.1316,0.0022 0.2113,0.02995 0.07968,0.02771 0.150349,0.07803 0.211299,0.14974 l 0.0051,0.04492 c -0.02444,0.0769 -0.04495,0.106058 -0.06157,0.08652 -0.175693,-0.153879 -0.319133,-0.204562 -0.432582,-0.153068 -0.01857,0.0045 -0.038,0.0087 -0.05657,0.01331 -0.07888,-3.22e-4 -0.07576,-0.04238 0.01002,-0.126446 0.01405,-0.02312 0.05182,-0.03777 0.113136,-0.04492 z m -2.214486,2.01317 c 0.03952,0.0085 0.08582,0.0261 0.139756,0.05324 0.107929,0.05424 0.199859,0.145426 0.274523,0.272859 0.01666,0.01953 0.01455,0.03664 -0.0051,0.05324 -0.07174,0.06098 -0.153292,0.01887 -0.244575,-0.12811 -0.06358,-0.114437 -0.127806,-0.143593 -0.192998,-0.08818 -0.02505,0.01013 -0.05742,0.0031 -0.09817,-0.01829 -0.04985,-0.05865 -0.04149,-0.106259 0.02828,-0.143085 0.0251,-0.01013 0.05863,-0.01023 0.09817,-0.0017 z"
     id="Page-1" />
  <path
     style="fill:#d2f3fc;fill-opacity:1;fill-rule:evenodd;stroke-width:0.68331587"
     d="m 14.235293,21.489367 c -0.133681,0.01651 -0.231187,0.111717 -0.236255,0.25123 l -0.113137,3.177813 c -0.884642,-0.230534 -1.789657,-0.281837 -2.663707,-0.121455 v 7.260722 c 2.15301,1.951151 4.794468,3.519733 7.164223,4.171088 2.27191,-2.007813 2.255847,-4.632597 1.059826,-6.871399 l 2.986479,-0.728733 c 0.180841,-0.04411 0.252308,-0.231031 0.159722,-0.419272 -0.0926,-0.188249 -0.31327,-0.305345 -0.494141,-0.261212 l -3.051366,0.745371 c -1.044681,-1.577423 -2.663294,-2.887594 -4.430639,-3.543844 l 0.118129,-3.219409 c 0.0051,-0.139516 -0.08484,-0.282652 -0.214627,-0.367695 -0.0432,-0.0284 -0.09069,-0.04999 -0.141421,-0.06322 -0.05077,-0.01319 -0.09853,-0.01548 -0.143086,-0.01003 z"
     id="path46" />
</svg>
