<?xml version="1.0" encoding="UTF-8" standalone="no"?>
<svg
   xmlns:dc="http://purl.org/dc/elements/1.1/"
   xmlns:cc="http://creativecommons.org/ns#"
   xmlns:rdf="http://www.w3.org/1999/02/22-rdf-syntax-ns#"
   xmlns:svg="http://www.w3.org/2000/svg"
   xmlns="http://www.w3.org/2000/svg"
   xmlns:xlink="http://www.w3.org/1999/xlink"
   xmlns:sodipodi="http://sodipodi.sourceforge.net/DTD/sodipodi-0.dtd"
   xmlns:inkscape="http://www.inkscape.org/namespaces/inkscape"
   width="48px"
   height="48px"
   viewBox="0 0 48 48"
   version="1.1"
   id="SVGRoot"
   sodipodi:docname="kdenlive.svg"
   inkscape:version="0.92.2 2405546, 2018-03-11">
  <sodipodi:namedview
     pagecolor="#ffffff"
     bordercolor="#666666"
     borderopacity="1"
     objecttolerance="10"
     gridtolerance="10"
     guidetolerance="10"
     inkscape:pageopacity="0"
     inkscape:pageshadow="2"
     inkscape:window-width="1366"
     inkscape:window-height="699"
     id="namedview35"
     showgrid="false"
     inkscape:zoom="10.145833"
     inkscape:cx="4.6817252"
     inkscape:cy="24.000001"
     inkscape:window-x="0"
     inkscape:window-y="0"
     inkscape:window-maximized="1"
     inkscape:current-layer="SVGRoot" />
  <defs
     id="defs1738">
    <linearGradient
       inkscape:collect="always"
       id="linearGradient951">
      <stop
         style="stop-color:#d9efff;stop-opacity:1"
         offset="0"
         id="stop947" />
      <stop
         style="stop-color:#ddf4ff;stop-opacity:1"
         offset="1"
         id="stop949" />
    </linearGradient>
    <linearGradient
       id="linearGradient891">
      <stop
         style="stop-color:#0a84ff;stop-opacity:1"
         offset="0"
         id="stop887" />
      <stop
         style="stop-color:#3bc7ff;stop-opacity:1"
         offset="1"
         id="stop889" />
    </linearGradient>
    <linearGradient
       gradientTransform="matrix(0.98936642,0,0,0.98936642,-400.51891,-500.89861)"
       y2="515.00299"
       y1="506.28787"
       x2="433.43347"
       x1="392.23544"
       gradientUnits="userSpaceOnUse"
       id="linearGradient905">
      <stop
         style="stop-color:#fa0606;stop-opacity:1"
         id="stop901"
         stop-color="#db4437"
         offset="0" />
      <stop
         style="stop-color:#fd3434;stop-opacity:1"
         id="stop903"
         stop-color="#fd5757"
         offset="1" />
    </linearGradient>
    <linearGradient
       gradientTransform="matrix(0.98936642,0,0,0.98936642,-400.51891,-500.89861)"
       y2="547.45264"
       y1="513.60431"
       x2="411.88696"
       x1="429.45596"
       gradientUnits="userSpaceOnUse"
       id="linearGradient895">
      <stop
         style="stop-color:#fef800;stop-opacity:1"
         id="stop891"
         stop-color="#ffcd40"
         offset="0" />
      <stop
         style="stop-color:#fcfd2f;stop-opacity:1"
         id="stop893"
         stop-color="#fee145"
         offset="1" />
    </linearGradient>
    <linearGradient
       id="b"
       gradientUnits="userSpaceOnUse"
       x1="408.52402"
       x2="386.44293"
       y1="547.30316"
       y2="502.51505"
       gradientTransform="matrix(0.98936642,0,0,0.98936642,-400.51891,-500.89861)">
      <stop
         offset="0"
         stop-color="#0f9d58"
         id="stop7"
         style="stop-color:#14c600;stop-opacity:1" />
      <stop
         offset="1"
         stop-color="#00d455"
         id="stop9"
         style="stop-color:#71ff2f;stop-opacity:1" />
    </linearGradient>
    <linearGradient
       xlink:href="#a"
       id="linearGradient873"
       gradientUnits="userSpaceOnUse"
       x1="10.071"
       y1="267.10501"
       x2="396.74799"
       y2="267.10501"
       gradientTransform="matrix(-3.7011155e-4,-0.10287018,0.08212957,-4.635795e-4,2.1380763,44.747932)" />
    <linearGradient
       id="a"
       gradientUnits="userSpaceOnUse"
       x1="10.071"
       x2="396.74799"
       y1="267.10501"
       y2="267.10501">
      <stop
         offset="0"
         stop-color="#161719"
         id="stop2" />
      <stop
         offset="1"
         stop-color="#4c535b"
         id="stop4" />
    </linearGradient>
    <linearGradient
       id="b-3"
       gradientUnits="userSpaceOnUse"
       x1="393.17184"
       x2="393.17184"
       y1="515.6828"
       y2="506.30667"
       gradientTransform="matrix(2.1413368,0,0,2.5782126,-840.05925,-1287.1312)"
       spreadMethod="pad">
      <stop
         offset="0"
         stop-color="#3ee818"
         id="stop7-6"
         style="stop-color:#0ab9ff;stop-opacity:1" />
      <stop
         offset="1"
         stop-color="#018dcb"
         id="stop9-7"
         style="stop-color:#09fee7;stop-opacity:1" />
    </linearGradient>
    <linearGradient
       gradientTransform="matrix(1.0356723,0,0,1.015264,-0.85613519,-0.66702569)"
       xlink:href="#linearGradient891"
       id="linearGradient893"
       x1="24.588072"
       y1="41.23737"
       x2="24.010084"
       y2="12.093443"
       gradientUnits="userSpaceOnUse" />
    <linearGradient
       gradientTransform="matrix(1.0356723,0,0,1.015264,28.466246,17.818469)"
       xlink:href="#linearGradient891"
       id="linearGradient893-3"
       x1="24.588072"
       y1="41.23737"
       x2="24.010084"
       y2="12.093443"
       gradientUnits="userSpaceOnUse" />
    <linearGradient
       xlink:href="#a"
       id="linearGradient873-5"
       gradientUnits="userSpaceOnUse"
       x1="10.071"
       y1="267.10501"
       x2="396.74799"
       y2="267.10501"
       gradientTransform="matrix(-3.7011155e-4,-0.10287018,0.08212957,-4.635795e-4,31.460457,63.233427)" />
    <linearGradient
       xlink:href="#a"
       id="linearGradient873-5-6"
       gradientUnits="userSpaceOnUse"
       x1="10.071"
       y1="267.10501"
       x2="396.74799"
       y2="267.10501"
       gradientTransform="matrix(-3.7011155e-4,-0.10287018,0.08212957,-4.635795e-4,2.1380751,45.048609)" />
    <linearGradient
       gradientTransform="matrix(1.0356723,0,0,1.015264,-0.85613592,-0.36634898)"
       xlink:href="#linearGradient891"
       id="linearGradient893-3-1"
       x1="24.588072"
       y1="41.23737"
       x2="24.010084"
       y2="12.093443"
       gradientUnits="userSpaceOnUse" />
    <linearGradient
       inkscape:collect="always"
       xlink:href="#linearGradient864"
       id="linearGradient866"
       x1="-21.585217"
       y1="35.581108"
       x2="-21.585217"
       y2="1.5770005"
       gradientUnits="userSpaceOnUse"
       gradientTransform="matrix(1,0,0,1.1764706,43.199183,2.0919472)" />
    <linearGradient
       inkscape:collect="always"
       id="linearGradient864">
      <stop
         style="stop-color:#16181a;stop-opacity:1"
         offset="0"
         id="stop860" />
      <stop
         style="stop-color:#4b525a;stop-opacity:1"
         offset="1"
         id="stop862" />
    </linearGradient>
    <linearGradient
       inkscape:collect="always"
       xlink:href="#linearGradient951"
       id="linearGradient953"
       x1="24.246407"
       y1="41.396305"
       x2="24.246407"
       y2="6.6036949"
       gradientUnits="userSpaceOnUse" />
  </defs>
  <metadata
     id="metadata1741">
    <rdf:RDF>
      <cc:Work
         rdf:about="">
        <dc:format>image/svg+xml</dc:format>
        <dc:type
           rdf:resource="http://purl.org/dc/dcmitype/StillImage" />
        <dc:title />
      </cc:Work>
    </rdf:RDF>
  </metadata>
  <rect
     style="opacity:1;vector-effect:none;fill:url(#linearGradient866);fill-opacity:1;stroke:none;stroke-width:2.69953847;stroke-linecap:butt;stroke-linejoin:miter;stroke-miterlimit:4;stroke-dasharray:none;stroke-dashoffset:0;stroke-opacity:1;paint-order:stroke fill markers"
     id="rect858"
     width="44"
     height="40"
     x="2.0000007"
     y="3.9999993" />
  <g
     id="g918"
     style="fill:url(#linearGradient953);fill-opacity:1">
    <path
       id="path898"
       d="m 43.275239,6.407393 c 0.348475,-0.0019 0.637617,0.353639 0.639205,0.795158 l 0.01015,2.500484 c 0.0016,0.438124 -0.285945,0.801117 -0.635158,0.803089 l -2.059208,0.0119 c -0.351187,0.0019 -0.639652,-0.357034 -0.641227,-0.795156 l -0.0081,-2.500485 c -0.0016,-0.441519 0.283971,-0.801107 0.635158,-0.80309 z"
       style="fill:url(#linearGradient953);stroke-width:0.09122407;fill-opacity:1.0" />
    <path
       id="path896"
       d="m 38.044285,6.437143 c 0.351186,-0.002 0.637616,0.353639 0.639203,0.795158 l 0.01015,2.500484 c 0.0016,0.438124 -0.284007,0.801107 -0.635193,0.803089 l -2.057185,0.0119 c -0.25582,0.0014 -0.473631,-0.189355 -0.576498,-0.460041 l -0.01214,-3.170718 c 0.100284,-0.273217 0.317277,-0.466522 0.574475,-0.467973 z"
       style="fill:url(#linearGradient953);stroke-width:0.09122407;fill-opacity:1.0" />
    <path
       id="path894"
       d="m 32.813331,6.466893 c 0.08712,-4.92e-4 0.17059,0.02152 0.246781,0.06147 5.85e-4,3.03e-4 0.0014,-3.05e-4 0.0021,0 0.227885,0.120225 0.389212,0.403182 0.3904,0.733687 l 0.0081,2.500485 c 7.89e-4,0.219051 -0.06902,0.419195 -0.184075,0.565135 -0.115054,0.145941 -0.274454,0.236967 -0.44906,0.237953 l -2.055163,0.0119 c -0.08829,4.82e-4 -0.172084,-0.02111 -0.248804,-0.06147 -0.07672,-0.04037 -0.146089,-0.100196 -0.204303,-0.172516 C 30.202845,10.198907 30.129918,9.999448 30.12913,9.780386 L 30.11898,7.279902 c -7.77e-4,-0.22076 0.07072,-0.420028 0.186098,-0.565137 0.05769,-0.07255 0.127877,-0.131711 0.204302,-0.172516 0.07521,-0.03964 0.158299,-0.06297 0.244758,-0.06345 z"
       style="fill:url(#linearGradient953);stroke-width:0.09122407;fill-opacity:1.0" />
    <path
       id="path892"
       d="m 27.582376,6.496643 c 0.08779,-4.95e-4 0.170463,0.02152 0.246782,0.06147 5.88e-4,3.05e-4 0.0014,-3.07e-4 0.0021,0 0.07579,0.03992 0.144687,0.09904 0.20228,0.170532 0.11585,0.143805 0.187326,0.342396 0.18812,0.563155 l 0.0081,2.500483 c 7.77e-4,0.219063 -0.06926,0.419195 -0.184074,0.565137 -0.114805,0.145943 -0.273468,0.236962 -0.449061,0.237953 l -2.05314,0.0119 c -0.08813,5.07e-4 -0.172115,-0.02111 -0.248803,-0.06147 -0.230067,-0.121082 -0.393263,-0.407082 -0.394445,-0.735674 l -0.01015,-2.500484 c -0.0016,-0.439825 0.282496,-0.796403 0.633136,-0.801106 z"
       style="fill:url(#linearGradient953);stroke-width:0.09122407;fill-opacity:1.0" />
    <path
       id="path890"
       d="m 22.349399,6.526393 c 0.08813,-4.98e-4 0.172117,0.02153 0.248804,0.06147 0.0772,0.03997 0.145853,0.0961 0.204303,0.168549 0.116014,0.143804 0.189349,0.344378 0.190143,0.565137 l 0.0081,2.500483 c 3.89e-4,0.109531 -0.01659,0.213598 -0.04854,0.309339 -0.09585,0.287222 -0.322236,0.492259 -0.586611,0.493751 l -2.055155,0.0119 c -0.176077,10e-4 -0.336761,-0.09006 -0.453107,-0.233986 -0.1161,-0.144635 -0.189354,-0.344092 -0.190143,-0.563155 l -0.0081,-2.500483 c -7.76e-4,-0.220759 0.06902,-0.42003 0.184075,-0.565137 0.115381,-0.14511 0.274505,-0.234973 0.451084,-0.23597 z"
       style="fill:url(#linearGradient953);stroke-width:0.09122407;fill-opacity:1.0" />
    <path
       id="path888"
       d="m 17.120468,6.556143 c 6.75e-4,-4e-6 0.0013,1e-6 0.0021,0 0.174895,-9.86e-4 0.332873,0.08622 0.449062,0.23002 0.05809,0.0719 0.106784,0.158436 0.139572,0.253816 0.03279,0.09538 0.05017,0.200942 0.05057,0.311322 l 0.01015,2.4985 c 0.0016,0.438124 -0.285287,0.803097 -0.635159,0.805073 l -2.057184,0.0119 c -0.175745,10e-4 -0.334657,-0.09007 -0.451084,-0.233987 -0.115936,-0.144645 -0.189356,-0.344093 -0.190144,-0.563155 l -0.0081,-2.500483 C 14.429376,7.148388 14.499341,6.949117 14.614227,6.80401 14.729694,6.658898 14.88906,6.569035 15.065311,6.56804 Z"
       style="fill:url(#linearGradient953);stroke-width:0.09122407;fill-opacity:1.0" />
    <path
       id="path886"
       d="m 11.887491,6.585893 c 0.255935,-0.0014 0.473217,0.188501 0.576497,0.460041 l 0.01214,3.172699 c -0.101879,0.271074 -0.319588,0.464552 -0.574475,0.46599 l -2.0551619,0.0119 c -0.353157,0.002 -0.63965,-0.359017 -0.641227,-0.79714 l -0.01015,-2.500486 c -0.0016,-0.441519 0.284025,-0.801096 0.637181,-0.803089 z"
       style="fill:url(#linearGradient953);stroke-width:0.09122407;fill-opacity:1.0" />
    <path
       id="path884"
       d="m 6.6585601,6.613653 c 0.353157,-0.002 0.639637,0.353639 0.641226,0.795158 l 0.0081,2.500484 c 0.0016,0.438123 -0.281345,0.803074 -0.635158,0.805071 l -2.055162,0.0099 c -0.353157,0.0021 -0.639651,-0.356982 -0.641228,-0.795106 l -0.0081,-2.500519 c -0.0015,-0.441519 0.282002,-0.801096 0.63516,-0.80309 z"
       style="fill:url(#linearGradient953);stroke-width:0.09122407;fill-opacity:1.0" />
    <path
       id="path882"
       d="m 43.386493,37.275817 c 0.348477,-0.002 0.637623,0.354125 0.639204,0.793175 l 0.01015,2.500483 c 0.0016,0.440697 -0.285942,0.803101 -0.635158,0.805073 l -2.059244,0.0119 c -0.351187,0.002 -0.639642,-0.356443 -0.641227,-0.797141 l -0.0081,-2.500484 c -0.0016,-0.439053 0.283971,-0.801109 0.635158,-0.80309 z"
       style="fill:url(#linearGradient953);stroke-width:0.09122407;fill-opacity:1.0" />
    <path
       id="path880"
       d="m 38.155539,37.303577 c 0.351186,-0.002 0.637623,0.356109 0.639203,0.795157 l 0.01015,2.500484 c 0.0016,0.440697 -0.283972,0.80309 -0.635158,0.805073 l -2.057186,0.01 c -0.256412,0.0015 -0.473938,-0.190072 -0.576497,-0.462024 l -0.01214,-3.168734 c 0.100305,-0.27266 0.317328,-0.46652 0.574475,-0.467974 z"
       style="fill:url(#linearGradient953);stroke-width:0.09122407;fill-opacity:1.0" />
    <path
       id="path878"
       d="m 32.924585,37.333327 c 0.08712,-4.83e-4 0.17059,0.02141 0.246781,0.06147 5.85e-4,3.05e-4 0.0015,-3.06e-4 0.0021,0 0.07567,0.04004 0.142496,0.099 0.200257,0.170533 0.11619,0.143901 0.189353,0.343629 0.190143,0.563154 l 0.0081,2.500484 c 7.76e-4,0.220348 -0.06903,0.421498 -0.184075,0.567121 -0.115052,0.145623 -0.274453,0.234984 -0.449061,0.235969 l -2.055162,0.0119 c -0.08829,4.82e-4 -0.172085,-0.0213 -0.248804,-0.06147 -0.230157,-0.120508 -0.393255,-0.403164 -0.394445,-0.733687 l -0.01015,-2.502467 c -7.76e-4,-0.219527 0.07072,-0.417942 0.186097,-0.563155 0.115059,-0.144487 0.271946,-0.236965 0.447039,-0.237952 z"
       style="fill:url(#linearGradient953);stroke-width:0.09122407;fill-opacity:1.0" />
    <path
       id="path876"
       d="m 27.691607,37.363077 c 0.08779,-5.08e-4 0.172486,0.02141 0.248805,0.06147 5.88e-4,3.07e-4 0.0015,-3.08e-4 0.0021,0 0.228258,0.120564 0.389216,0.405031 0.3904,0.733687 l 0.0081,2.500484 c 7.77e-4,0.220348 -0.06927,0.421501 -0.184074,0.567121 -0.114805,0.14562 -0.273468,0.234978 -0.449061,0.235969 l -2.05314,0.0119 c -0.08863,5.09e-4 -0.175806,-0.02088 -0.252849,-0.06147 -0.229367,-0.120869 -0.389213,-0.403799 -0.3904,-0.733688 l -0.01015,-2.502466 c -0.0011,-0.329288 0.159193,-0.614889 0.388377,-0.737654 0.07534,-0.03976 0.157652,-0.06297 0.244758,-0.06345 z"
       style="fill:url(#linearGradient953);stroke-width:0.09122407;fill-opacity:1.0" />
    <path
       id="path874"
       d="m 22.460653,37.392827 c 0.08813,-5.07e-4 0.172117,0.02141 0.248804,0.06147 0.07721,0.04009 0.145852,0.09802 0.204303,0.170533 0.116015,0.143913 0.189353,0.34363 0.190143,0.563154 l 0.0081,2.500485 c 3.89e-4,0.110174 -0.01659,0.215461 -0.04854,0.311321 -0.03195,0.09586 -0.07805,0.182988 -0.135528,0.2558 -0.05773,0.07282 -0.127909,0.131491 -0.204302,0.172515 -0.07575,0.04044 -0.159327,0.06296 -0.246781,0.06345 l -2.057185,0.0119 c -0.176072,9.76e-4 -0.33474,-0.08842 -0.451084,-0.232003 -0.05805,-0.07217 -0.106924,-0.158317 -0.139574,-0.253816 -0.03266,-0.09549 -0.05018,-0.201148 -0.05057,-0.311321 l -0.0081,-2.500484 c -7.77e-4,-0.219526 0.06902,-0.419928 0.184074,-0.565139 0.115382,-0.145211 0.274505,-0.234972 0.451084,-0.235969 z"
       style="fill:url(#linearGradient953);stroke-width:0.09122407;fill-opacity:1.0" />
    <path
       id="path872"
       d="m 17.231722,37.422577 c 0.174894,-9.64e-4 0.334894,0.08811 0.451084,0.232005 0.05809,0.07195 0.106784,0.156649 0.139572,0.251833 0.03279,0.09518 0.05018,0.199575 0.05057,0.309337 l 0.01015,2.502468 c 0.0011,0.330522 -0.160305,0.61657 -0.388377,0.739635 -0.07627,0.04102 -0.160351,0.06296 -0.248804,0.06345 l -2.055162,0.0119 c -0.175782,9.75e-4 -0.334696,-0.08842 -0.451121,-0.232013 -0.115935,-0.144324 -0.18935,-0.34479 -0.190144,-0.565138 l -0.0081,-2.500484 c -7.78e-4,-0.219525 0.06918,-0.419928 0.184074,-0.565137 0.115464,-0.145214 0.274835,-0.234976 0.451084,-0.23597 z"
       style="fill:url(#linearGradient953);stroke-width:0.09122407;fill-opacity:1.0" />
    <path
       id="path870"
       d="m 11.998744,37.452317 c 0.255343,-0.0015 0.472909,0.18799 0.576498,0.458058 l 0.01214,3.176666 c -0.1019,0.271257 -0.319614,0.462569 -0.574475,0.464007 l -2.0551619,0.0119 c -0.353157,0.002 -0.639641,-0.356447 -0.641227,-0.797142 l -0.01015,-2.500486 c -0.0016,-0.439068 0.284023,-0.799131 0.63718,-0.801124 z"
       style="fill:url(#linearGradient953);stroke-width:0.09122407;fill-opacity:1.0" />
    <path
       id="path12"
       d="m 6.7698131,37.482067 c 0.353158,-0.002 0.639648,0.354125 0.641227,0.793175 l 0.0081,2.502467 c 0.0016,0.440696 -0.281345,0.801092 -0.635158,0.803089 l -2.055162,0.0119 c -0.353157,0.002 -0.639642,-0.356448 -0.641228,-0.797143 l -0.0081,-2.500508 c -0.0016,-0.43905 0.282002,-0.799113 0.635159,-0.801106 z"
       style="fill:url(#linearGradient953);stroke-width:0.09122407;fill-opacity:1.0" />
  </g>
  <path
     style="opacity:1;fill:url(#linearGradient893-3-1);fill-opacity:1;stroke-width:2.39118409"
     id="path875"
     d="M 3.8763781,11.625442 H 44.123619 v 24.74909 H 3.8763781 Z"
     inkscape:connector-curvature="0" />
  <g
     transform="matrix(0.02595006,-0.01236813,0.01128179,0.02844883,15.765307,20.645909)"
     id="g32"
     style="opacity:0.82999998;fill:#ffffff;stroke-width:0.99245429">
    <path
       d="m 65.459,55.53 -61.277,8.903 44.331,43.222 -10.458,61.028 54.806,-28.82 54.806,28.82 -10.46,-61.028 L 181.538,64.433 120.263,55.53 92.861,0 Z"
       id="path20"
       style="stroke-width:0.99245429"
       inkscape:connector-curvature="0" />
    <path
       d="m 326.207,248.92 -35.937,72.82 -80.344,11.676 58.133,56.669 -13.724,80.028 71.872,-37.792 71.874,37.792 -13.727,-80.028 58.134,-56.669 -80.345,-11.676 z"
       id="path22"
       style="stroke-width:0.99245429"
       inkscape:connector-curvature="0" />
    <path
       d="m 388.514,38.901 -33.748,23.645 38.108,15.658 23.66,33.741 L 432.183,73.829 465.931,50.185 427.823,34.527 404.164,0.786 Z"
       id="path24"
       style="stroke-width:0.99245429"
       inkscape:connector-curvature="0" />
    <path
       d="m 127.18,272.417 23.797,-21.132 -30.637,-8.65 -21.15,-23.821 -8.641,30.652 -23.814,21.135 30.639,8.648 21.148,23.822 z"
       id="path26"
       style="stroke-width:0.99245429"
       inkscape:connector-curvature="0" />
    <path
       d="m 93.353,401.482 43.576,-14.354 -43.576,-14.365 -14.371,-43.576 -14.356,43.576 -43.577,14.365 43.577,14.354 14.356,43.577 z"
       id="path28"
       style="stroke-width:0.99245429"
       inkscape:connector-curvature="0" />
    <path
       d="m 282.801,148.458 -42.652,-16.936 24.228,38.971 -16.927,42.645 38.955,-24.23 42.652,16.936 -24.23,-38.971 16.928,-42.644 z"
       id="path30"
       style="stroke-width:0.99245429"
       inkscape:connector-curvature="0" />
  </g>
</svg>
