<?xml version="1.0" encoding="UTF-8" standalone="no"?>
<svg
   xmlns:dc="http://purl.org/dc/elements/1.1/"
   xmlns:cc="http://creativecommons.org/ns#"
   xmlns:rdf="http://www.w3.org/1999/02/22-rdf-syntax-ns#"
   xmlns:svg="http://www.w3.org/2000/svg"
   xmlns="http://www.w3.org/2000/svg"
   xmlns:xlink="http://www.w3.org/1999/xlink"
   xmlns:sodipodi="http://sodipodi.sourceforge.net/DTD/sodipodi-0.dtd"
   xmlns:inkscape="http://www.inkscape.org/namespaces/inkscape"
   version="1.1"
   id="svg2"
   height="48"
   width="48"
   sodipodi:docname="knetattach.svg"
   inkscape:version="0.92.2 5c3e80d, 2017-08-06">
  <sodipodi:namedview
     pagecolor="#ffffff"
     bordercolor="#666666"
     borderopacity="1"
     objecttolerance="10"
     gridtolerance="10"
     guidetolerance="10"
     inkscape:pageopacity="0"
     inkscape:pageshadow="2"
     inkscape:window-width="1366"
     inkscape:window-height="701"
     id="namedview40"
     showgrid="false"
     inkscape:zoom="4.9166667"
     inkscape:cx="-31.601285"
     inkscape:cy="27.887101"
     inkscape:window-x="0"
     inkscape:window-y="0"
     inkscape:window-maximized="1"
     inkscape:current-layer="svg2" />
  <defs
     id="defs4">
    <linearGradient
       id="linearGradient878">
      <stop
         id="stop874"
         offset="0"
         style="stop-color:#0a2956;stop-opacity:1" />
      <stop
         id="stop876"
         offset="1"
         style="stop-color:#1f80fa;stop-opacity:1" />
    </linearGradient>
    <linearGradient
       id="linearGradient872">
      <stop
         style="stop-color:#267aff;stop-opacity:1"
         offset="0"
         id="stop868" />
      <stop
         style="stop-color:#50c8ff;stop-opacity:1"
         offset="1"
         id="stop870" />
    </linearGradient>
    <linearGradient
       id="linearGradient1462">
      <stop
         id="stop1464"
         offset="0"
         style="stop-color:#000000;stop-opacity:1" />
      <stop
         id="stop1466"
         offset="1"
         style="stop-color:#666666;stop-opacity:1" />
    </linearGradient>
    <linearGradient
       gradientTransform="matrix(0.90909092,0,0,0.90909092,2.1818184,1006.4019)"
       gradientUnits="userSpaceOnUse"
       y2="45.59375"
       x2="24.96875"
       y1="23.90625"
       x1="24.96875"
       id="linearGradient1497"
       xlink:href="#linearGradient1499" />
    <linearGradient
       id="linearGradient1499">
      <stop
         style="stop-color:#0a2956;stop-opacity:1"
         offset="0"
         id="stop1501" />
      <stop
         style="stop-color:#084ba0;stop-opacity:1"
         offset="1"
         id="stop1503" />
    </linearGradient>
    <linearGradient
       gradientTransform="matrix(0.90909092,0,0,0.89606669,2.1818184,1006.7166)"
       gradientUnits="userSpaceOnUse"
       y2="1.8612825"
       x2="25.19068"
       y1="24.223534"
       x1="25.19068"
       id="linearGradient1489"
       xlink:href="#linearGradient1483" />
    <linearGradient
       id="linearGradient1483">
      <stop
         id="stop1485"
         offset="0"
         style="stop-color:#267aff;stop-opacity:1" />
      <stop
         id="stop1487"
         offset="1"
         style="stop-color:#6992d3;stop-opacity:1" />
    </linearGradient>
    <linearGradient
       gradientTransform="matrix(0.90909092,0,0,1.5461141,2.1818179,-560.97577)"
       gradientUnits="userSpaceOnUse"
       y2="1027.844"
       x2="24.40625"
       y1="1027.2728"
       x1="24.40625"
       id="linearGradient1545"
       xlink:href="#linearGradient1539" />
    <linearGradient
       id="linearGradient1539">
      <stop
         id="stop1541"
         offset="0"
         style="stop-color:#000000;stop-opacity:1;" />
      <stop
         id="stop1543"
         offset="1"
         style="stop-color:#000000;stop-opacity:0;" />
    </linearGradient>
    <linearGradient
       gradientUnits="userSpaceOnUse"
       y2="20.5625"
       x2="25.399618"
       y1="20.5625"
       x1="19.55019"
       id="linearGradient1583"
       xlink:href="#linearGradient1577" />
    <linearGradient
       id="linearGradient1577">
      <stop
         id="stop1579"
         offset="0"
         style="stop-color:#b6e500;stop-opacity:1" />
      <stop
         id="stop1581"
         offset="1"
         style="stop-color:#ccff00;stop-opacity:1" />
    </linearGradient>
    <linearGradient
       gradientTransform="translate(4e-7,-1.9191406e-5)"
       xlink:href="#linearGradient1462"
       id="linearGradient1698"
       gradientUnits="userSpaceOnUse"
       x1="22.080658"
       y1="-1052.8413"
       x2="22.080658"
       y2="-1004.7674" />
    <linearGradient
       y2="-1004.7674"
       x2="22.080658"
       y1="-1052.8413"
       x1="22.080658"
       gradientTransform="translate(4e-7,-1.9191406e-5)"
       gradientUnits="userSpaceOnUse"
       id="linearGradient3020"
       xlink:href="#linearGradient1462" />
    <linearGradient
       y2="45.59375"
       x2="24.96875"
       y1="23.90625"
       x1="24.96875"
       gradientTransform="matrix(0.90909092,0,0,0.90909092,2.1818184,1006.4019)"
       gradientUnits="userSpaceOnUse"
       id="linearGradient3022"
       xlink:href="#linearGradient1499" />
    <linearGradient
       y2="1.8612825"
       x2="25.19068"
       y1="24.223534"
       x1="25.19068"
       gradientTransform="matrix(0.90909092,0,0,0.89606669,2.1818184,1006.7166)"
       gradientUnits="userSpaceOnUse"
       id="linearGradient3024"
       xlink:href="#linearGradient1483" />
    <linearGradient
       y2="1027.844"
       x2="24.40625"
       y1="1027.2728"
       x1="24.40625"
       gradientTransform="matrix(0.90909092,0,0,1.5461141,2.1818179,-560.97577)"
       gradientUnits="userSpaceOnUse"
       id="linearGradient3026"
       xlink:href="#linearGradient1539" />
    <linearGradient
       y2="20.5625"
       x2="25.399618"
       y1="20.5625"
       x1="19.55019"
       gradientUnits="userSpaceOnUse"
       id="linearGradient3028"
       xlink:href="#linearGradient1577" />
    <linearGradient
       y2="1027.844"
       x2="24.40625"
       y1="1027.2728"
       x1="24.40625"
       gradientTransform="matrix(0.90909092,0,0,1.5461141,2.1818177,-560.97576)"
       gradientUnits="userSpaceOnUse"
       id="linearGradient3035"
       xlink:href="#linearGradient1539" />
    <linearGradient
       y2="2.7022378"
       x2="25.074917"
       y1="23.065563"
       x1="25.074917"
       gradientTransform="matrix(1.015873,0,0,0.9760028,-0.38095226,1.2144969)"
       gradientUnits="userSpaceOnUse"
       id="linearGradient3040"
       xlink:href="#linearGradient872" />
    <linearGradient
       y2="25.00135"
       x2="25.074917"
       y1="44.581306"
       x1="25.074917"
       gradientTransform="matrix(1.015873,0,0,0.95339803,-0.38095216,0.96936961)"
       gradientUnits="userSpaceOnUse"
       id="linearGradient3044"
       xlink:href="#linearGradient878" />
    <linearGradient
       y2="-1004.7674"
       x2="22.080658"
       y1="-1052.8413"
       x1="22.080658"
       gradientTransform="translate(2.0000001e-7,-2.7882812e-5)"
       gradientUnits="userSpaceOnUse"
       id="linearGradient3052"
       xlink:href="#linearGradient1462" />
  </defs>
  <metadata
     id="metadata7">
    <rdf:RDF>
      <cc:Work
         rdf:about="">
        <dc:format>image/svg+xml</dc:format>
        <dc:type
           rdf:resource="http://purl.org/dc/dcmitype/StillImage" />
        <dc:title />
      </cc:Work>
    </rdf:RDF>
  </metadata>
  <path
     style="fill:url(#linearGradient3044);fill-opacity:1;stroke:none;stroke-width:1"
     d="M 46,24 H 2.0000001 v 18.829668 c 0,0.926919 0.7901317,1.668332 1.7777777,1.668332 H 44.22222 C 45.209869,44.498 46,43.756587 46,42.829668 Z"
     id="path1481-2"
     inkscape:connector-curvature="0" />
  <path
     style="fill:url(#linearGradient3040);fill-opacity:1;stroke:none;stroke-width:1"
     d="m 3.7777778,3.5020001 c -0.987646,0 -1.7777777,0.7589529 -1.7777777,1.7080166 V 24.791002 H 46 V 5.2100167 C 46,4.260953 45.209869,3.5020001 44.22222,3.5020001 Z"
     id="rect1476-0"
     inkscape:connector-curvature="0" />
  <path
     style="fill:#ffffff;fill-opacity:1;stroke-width:0.94788766"
     d="m 29.498419,18.263159 c 0.004,-0.839436 0.0066,-2.120154 0.0066,-2.846086 v -1.320287 h -0.03204 c -0.01764,0 -1.406083,-0.01369 -3.085441,-0.0356 -1.679354,-0.0178 -3.114418,-0.0356 -3.189028,-0.0356 h -0.135643 v 2.244063 c 0,1.234577 0.0011,2.244748 0.0027,2.244748 0.0014,0 1.440859,0.286019 3.198894,0.63543 1.758033,0.349275 3.20346,0.635567 3.212057,0.635841 0.01393,-4.11e-4 0.01601,-0.14253 0.02195,-1.526073 z m -6.985123,-2.047588 c 0.0036,-1.205688 0.0052,-2.192583 0.004,-2.193678 -0.0021,0 -3.824633,-0.04518 -3.945859,-0.04381 h -0.07644 v 1.814693 1.81524 l 0.02219,0.01369 c 0.01736,0.01369 3.960809,0.789187 3.984048,0.793158 0.0034,0 0.0088,-0.991413 0.01191,-2.196964 z M 20.586559,13.51448 c 0.908859,-0.01369 1.715735,-0.0178 1.793056,-0.01917 h 0.140584 V 11.299306 9.1028896 l -0.02712,0.013692 c -0.0149,0 -0.920549,0.1819622 -2.012493,0.3982904 l -1.985367,0.393224 -7.9e-5,1.817705 -1.59e-4,1.817432 h 0.21951 c 0.120829,0 0.963213,-0.01369 1.872076,-0.02465 z m 5.819958,-0.06435 c 1.70068,-0.0178 3.093574,-0.03697 3.095324,-0.03834 0.0018,0 0.0018,-1.284141 7.53e-4,-2.849509 l -0.0027,-2.845949 -2.925122,0.5803896 c -1.608818,0.3190157 -3.056094,0.6059929 -3.216159,0.6376207 l -0.291034,0.058874 -0.0027,2.2463907 -0.0027,2.246118 h 0.125799 c 0.07001,-2.74e-4 1.518091,-0.01506 3.218769,-0.0356 z"
     id="path858-5"
     inkscape:connector-curvature="0" />
  <path
     style="color:#000000;display:inline;overflow:visible;visibility:visible;fill:#ffffff;fill-opacity:1;fill-rule:nonzero;stroke:none;stroke-width:1.39999998;marker:none;enable-background:accumulate"
     d="M 19.4989,28.001877 V 40.496122 L 30.331608,34.249134 Z"
     id="path876"
     inkscape:connector-curvature="0" />
</svg>
