<?xml version="1.0" encoding="UTF-8" standalone="no"?>
<svg
   xmlns:dc="http://purl.org/dc/elements/1.1/"
   xmlns:cc="http://creativecommons.org/ns#"
   xmlns:rdf="http://www.w3.org/1999/02/22-rdf-syntax-ns#"
   xmlns:svg="http://www.w3.org/2000/svg"
   xmlns="http://www.w3.org/2000/svg"
   xmlns:xlink="http://www.w3.org/1999/xlink"
   id="SVGRoot"
   version="1.1"
   viewBox="0 0 48 48"
   height="48px"
   width="48px">
  <defs
     id="defs855">
    <linearGradient
       id="linearGradient1558">
      <stop
         id="stop1554"
         offset="0"
         style="stop-color:#203040;stop-opacity:1;" />
      <stop
         id="stop1556"
         offset="1"
         style="stop-color:#395674;stop-opacity:1" />
    </linearGradient>
    <linearGradient
       gradientUnits="userSpaceOnUse"
       y2="-1.5088551"
       x2="-18.477501"
       y1="40.485661"
       x1="-18.477501"
       id="linearGradient1560"
       xlink:href="#linearGradient1558" />
  </defs>
  <metadata
     id="metadata858">
    <rdf:RDF>
      <cc:Work
         rdf:about="">
        <dc:format>image/svg+xml</dc:format>
        <dc:type
           rdf:resource="http://purl.org/dc/dcmitype/StillImage" />
        <dc:title></dc:title>
      </cc:Work>
    </rdf:RDF>
  </metadata>
  <g
     id="layer1">
    <g
       style="stroke-width:1.03768134"
       transform="matrix(1,0,0,0.9286927,43.540001,2.9012627)"
       id="g1525">
      <rect
         style="opacity:1;fill:url(#linearGradient1560);fill-opacity:1;stroke:none;stroke-width:1.68623221;stroke-miterlimit:4;stroke-dasharray:none;stroke-opacity:1"
         id="rect1470"
         width="44"
         height="36.8125"
         x="-41.540001"
         y="4.3125"
         ry="2.6246572"
         rx="2.4375" />
      <g
         style="stroke-width:1.03768134"
         transform="translate(-44.29,-0.835)"
         id="g1517">
        <g
           style="stroke-width:1.03768134"
           id="g1511">
          <path
             style="fill:#ffffff;stroke-width:1.03768134"
             d="m 7.469,17.594 c 0.813,0.403 1.631,0.607 2.538,0.607 1.215,0 2.118,-0.463 2.118,-1.232 0,-0.328 -0.212,-0.571 -0.477,-0.783 C 11.383,15.974 10.627,15.771 9.816,15.479 8.84,15.099 8.207,14.724 7.914,14.353 7.622,13.981 7.476,13.531 7.476,13.004 c 0,-0.754 0.33,-1.357 0.991,-1.811 0.659,-0.454 1.473,-0.68 2.438,-0.68 0.748,0 1.442,0.126 2.085,0.377 v 1.19 c -0.618,-0.257 -1.403,-0.352 -2.236,-0.352 -0.499,0 -1.174,0.126 -1.486,0.337 -0.312,0.211 -0.534,0.531 -0.534,0.874 0,0.338 0.24,0.59 0.466,0.779 0.225,0.189 0.761,0.49 1.705,0.678 0.981,0.354 1.645,0.72 1.989,1.1 0.344,0.38 0.517,0.849 0.517,1.407 0,0.779 -0.33,1.393 -0.991,1.841 -0.659,0.449 -1.515,0.673 -2.565,0.673 -0.913,0 -1.708,-0.166 -2.387,-0.5 v -1.323 z"
             id="path1509" />
        </g>
        <rect
           style="fill:#ffffff;stroke-width:1.03768134"
           x="10"
           y="9"
           width="1"
           height="12"
           id="rect1513" />
        <rect
           style="fill:#ffffff;stroke-width:1.03768134"
           x="16"
           y="9"
           width="4"
           height="12"
           id="rect1515" />
      </g>
    </g>
  </g>
</svg>
