<?xml version="1.0" encoding="UTF-8" standalone="no"?>
<svg
   xmlns:dc="http://purl.org/dc/elements/1.1/"
   xmlns:cc="http://creativecommons.org/ns#"
   xmlns:rdf="http://www.w3.org/1999/02/22-rdf-syntax-ns#"
   xmlns:svg="http://www.w3.org/2000/svg"
   xmlns="http://www.w3.org/2000/svg"
   xmlns:xlink="http://www.w3.org/1999/xlink"
   width="64"
   height="64"
   id="svg5453"
   version="1.1"
   viewBox="0 0 64 64">
  <defs
     id="defs5455">
    <linearGradient
       id="linearGradient888">
      <stop
         style="stop-color:#20bcfa;stop-opacity:1;"
         offset="0"
         id="stop884" />
      <stop
         style="stop-color:#46c7fc;stop-opacity:1"
         offset="1"
         id="stop886" />
    </linearGradient>
    <linearGradient
       id="linearGradient864">
      <stop
         style="stop-color:#fdf124;stop-opacity:1"
         offset="0"
         id="stop860" />
      <stop
         style="stop-color:#fdf446;stop-opacity:0.99607843"
         offset="1"
         id="stop862" />
    </linearGradient>
    <linearGradient
       xlink:href="#linearGradient864"
       id="linearGradient866"
       x1="13.211061"
       y1="18.742458"
       x2="13.211061"
       y2="9.4583139"
       gradientUnits="userSpaceOnUse" />
    <linearGradient
       gradientTransform="translate(-384.57143,-483.798)"
       xlink:href="#linearGradient888"
       id="linearGradient890"
       x1="416.77542"
       y1="545.77496"
       x2="416.77542"
       y2="501.51627"
       gradientUnits="userSpaceOnUse" />
    <linearGradient
       gradientUnits="userSpaceOnUse"
       id="SVGID_1_"
       y2="44.989601"
       x2="24.0089"
       y1="15.9896"
       x1="24.0089"
       gradientTransform="matrix(1.157625,0,0,1.157625,-80.178591,-0.67264714)">
      <stop
         offset="0"
         style="stop-color:#8ec5ff;stop-opacity:1"
         id="stop22" />
      <stop
         offset="0.97000003"
         style="stop-color:#70bcff;stop-opacity:1"
         id="stop24" />
      <stop
         offset="1"
         style="stop-color:#0f70e6;stop-opacity:1"
         id="stop26" />
    </linearGradient>
    <linearGradient
       xlink:href="#linearGradient888"
       id="linearGradient833"
       x1="32.010437"
       y1="57.89262"
       x2="31.962496"
       y2="15.119835"
       gradientUnits="userSpaceOnUse"
       gradientTransform="translate(-86.779661,-9.7627157)" />
  </defs>
  <metadata
     id="metadata5458">
    <rdf:RDF>
      <cc:Work
         rdf:about="">
        <dc:format>image/svg+xml</dc:format>
        <dc:type
           rdf:resource="http://purl.org/dc/dcmitype/StillImage" />
        <dc:title></dc:title>
      </cc:Work>
    </rdf:RDF>
  </metadata>
  <path
     id="folderTab-3"
     d="M 4,3.33141 C 3.44878,3.39391 3,3.83745 3,4.46603 V 6.73526 52.11987 H 61 V 12.40834 11.27372 9.00449 C 61,7.86987 60,7.86987 60,7.86987 H 58 37 33 C 31,3.33141 27,3.33141 27,3.33141 H 5 Z"
     style="fill:#209efa;fill-opacity:1;fill-rule:evenodd;stroke:none;stroke-width:1.06518328px;stroke-linecap:butt;stroke-linejoin:miter;stroke-opacity:1" />
  <path
     id="folderPaper-6"
     d="m 7,11.27372 h 50 v 36.3077 H 7 Z"
     style="color:#000000;text-decoration:none;text-decoration-line:none;text-decoration-style:solid;text-decoration-color:#000000;white-space:normal;clip-rule:nonzero;display:inline;overflow:visible;visibility:visible;opacity:1;isolation:auto;mix-blend-mode:normal;color-interpolation:sRGB;color-interpolation-filters:linearRGB;solid-color:#000000;solid-opacity:1;fill:#ffffff;fill-opacity:1;fill-rule:nonzero;stroke:none;stroke-width:1.06518328;stroke-linecap:butt;stroke-linejoin:miter;stroke-miterlimit:4;stroke-dasharray:none;stroke-dashoffset:0;stroke-opacity:1;color-rendering:auto;image-rendering:auto;shape-rendering:auto;text-rendering:auto;enable-background:accumulate" />
  <polygon
     transform="matrix(1.6625589,0,0,1.6422598,-5.3984279,-12.913187)"
     style="fill:url(#linearGradient866);fill-opacity:1"
     id="polygon19"
     points="7.008,38.154 7.008,18.824 11.711,9.333 37.934,22.329 37.746,38.166 " />
  <path
     id="folderFront-2"
     d="m 39,13.54295 c 0,0 -4,0 -6,4.53846 H 29 4 2 c 0,0 -0.13198,0.0192 -0.28906,0.0665 -0.046,0.0159 -0.0919,0.0258 -0.13477,0.0487 C 1.30194,18.32124 1,18.58603 1,19.216 v 2.26923 1.13461 38.57693 c 0,0.62854 0.44603,1.13461 1,1.13461 h 60 c 0.55397,0 1,-0.50607 1,-1.13461 v -44.25 -2.26923 c 0,-0.62855 -0.44603,-1.13462 -1,-1.13462 h -1 z"
     style="fill:url(#linearGradient890);fill-opacity:1;fill-rule:evenodd;stroke:none;stroke-width:1.06518328px;stroke-linecap:butt;stroke-linejoin:miter;stroke-opacity:1" />
  <path
     id="folderShadow-9"
     d="m 1,61.1968 c 0,0.62854 0.44603,1.13462 1,1.13462 h 60 c 0.55397,0 1,-0.50608 1,-1.13462 z"
     style="opacity:0.25;fill:#000000;fill-opacity:1;stroke:none;stroke-width:1.06518328" />
  <g
     id="g5"
     style="display:none;opacity:0.5"
     transform="matrix(1.157625,0,0,1.157625,-80.178591,-0.67264714)">
    <polyline
       style="display:inline;opacity:0.4"
       points="48,-0.01 48,47.99 0,47.99 0,-0.01   "
       id="polyline7" />
  </g>
  <rect
     style="opacity:1;fill:#24bdfa;fill-opacity:1;stroke:none;stroke-width:1.49425912;stroke-miterlimit:4;stroke-dasharray:none;stroke-opacity:1"
     id="rect909"
     width="7.5932202"
     height="10.318712"
     x="29.887373"
     y="44.327942" />
  <path
     id="path938"
     d="M 32.002743,24.624702 46.067797,36.546611 44.248873,38.692499 32,28.309255 19.751127,38.692499 17.932203,36.546611 23.559322,31.776742 v -7.15204 h 2.813559 v 4.767112 l 5.624376,-4.767112 h 0.0028 0.0028 z m 11.251494,9.847458 v 15.474576 2.81356 H 34.813559 29.186441 20.745763 V 49.946736 34.47216 h 2.813559 v 15.474576 h 5.627119 v -9.847457 h 5.627118 v 9.847457 h 5.627119 V 34.47216 Z"
     style="color:#000000;text-decoration:none;text-decoration-line:none;text-decoration-style:solid;text-decoration-color:#000000;white-space:normal;clip-rule:nonzero;display:inline;overflow:visible;visibility:visible;opacity:1;isolation:auto;mix-blend-mode:normal;color-interpolation:sRGB;color-interpolation-filters:linearRGB;solid-color:#000000;solid-opacity:1;fill:#ffffff;fill-opacity:1;fill-rule:nonzero;stroke:none;stroke-width:1.40677965;stroke-linecap:butt;stroke-linejoin:miter;stroke-miterlimit:4;stroke-dasharray:none;stroke-dashoffset:0;stroke-opacity:1;color-rendering:auto;image-rendering:auto;shape-rendering:auto;text-rendering:auto;enable-background:accumulate" />
</svg>
