<?xml version="1.0" encoding="UTF-8" standalone="no"?>
<svg
   xmlns:dc="http://purl.org/dc/elements/1.1/"
   xmlns:cc="http://creativecommons.org/ns#"
   xmlns:rdf="http://www.w3.org/1999/02/22-rdf-syntax-ns#"
   xmlns:svg="http://www.w3.org/2000/svg"
   xmlns="http://www.w3.org/2000/svg"
   id="svg8"
   version="1.1"
   viewBox="0 0 12.7 12.7"
   height="48"
   width="48">
  <defs
     id="defs2">
    <linearGradient
       id="a"
       gradientTransform="matrix(0.36451391,0,0,0.3865627,-128.60117,85.117334)"
       gradientUnits="userSpaceOnUse"
       x1="368.96432"
       x2="368.96432"
       y1="545.75293"
       y2="517.39703">
      <stop
         offset="0"
         stop-color="#ff3069"
         id="stop2" />
      <stop
         offset="1"
         stop-color="#ffa548"
         id="stop4" />
    </linearGradient>
  </defs>
  <metadata
     id="metadata5">
    <rdf:RDF>
      <cc:Work
         rdf:about="">
        <dc:format>image/svg+xml</dc:format>
        <dc:type
           rdf:resource="http://purl.org/dc/dcmitype/StillImage" />
        <dc:title></dc:title>
      </cc:Work>
    </rdf:RDF>
  </metadata>
  <g
     transform="translate(0,-284.29998)"
     id="layer1">
    <g
       transform="translate(0.65871388,-0.05269534)"
       id="g849">
      <rect
         rx="0.685296"
         style="opacity:0.98799995;fill:url(#a);stroke-width:0.34264785"
         id="rect7"
         y="285.27872"
         x="-0.12954709"
         width="11.641666"
         ry="0.685296"
         height="10.847917" />
      <path
         id="rect4148-2"
         d="m 1.6519888,286.8076 c -0.079922,0 -0.1442254,0.0648 -0.1442254,0.14471 v 7.35649 0.14422 c 0,0.0799 0.064304,0.14472 0.1442254,0.14472 h 0.1442255 7.9343694 c 0.079922,0 0.1442252,-0.0648 0.1442252,-0.14472 v -7.50071 c 0,-0.0799 -0.064304,-0.14471 -0.1442252,-0.14471 H 1.7962143 Z m 3.4751939,2.25346 h 1.1282071 c 0.077771,0 0.1537475,0.0255 0.227906,0.0763 0.074158,0.0508 0.1251336,0.11098 0.1530855,0.18115 l 0.1122302,0.29189 h 0.4937138 c 0.1557325,0 0.2886152,0.0537 0.398712,0.16097 0.1100966,0.10724 0.1648995,0.23663 0.1648995,0.38837 v 1.92317 c 0,0.15174 -0.054803,0.28113 -0.1648995,0.38838 -0.1102868,0.10743 -0.2429795,0.16096 -0.398712,0.16096 H 4.1407395 c -0.1557329,0 -0.2886154,-0.0537 -0.398712,-0.16096 -0.1100968,-0.10725 -0.1653918,-0.23664 -0.1653918,-0.38838 v -1.92318 c 0,-0.15174 0.055295,-0.28113 0.1653918,-0.38837 0.1100966,-0.10725 0.2429791,-0.16097 0.398712,-0.16097 h 0.4932217 l 0.1122299,-0.29189 c 0.027952,-0.0702 0.078927,-0.13038 0.1530858,-0.18115 0.074159,-0.0508 0.1501344,-0.0763 0.2279058,-0.0763 z m 0.5641035,1.09916 c -0.2717239,0 -0.5043077,0.0938 -0.6974998,0.28205 -0.1930022,0.18806 -0.2894357,0.4146 -0.2894357,0.67929 0,0.26469 0.096243,0.49123 0.2894357,0.67929 0.1931921,0.18806 0.4257759,0.28205 0.6974998,0.28205 0.2717239,0 0.5038156,-0.0938 0.6970078,-0.28205 0.1930019,-0.18806 0.2899278,-0.4146 0.2899278,-0.67929 0,-0.26469 -0.096736,-0.49123 -0.2899278,-0.67929 -0.1931922,-0.18805 -0.4252839,-0.28205 -0.6970078,-0.28205 z m 0,0.34309 c 0.1747475,0 0.3242601,0.0607 0.448428,0.18164 0.1241679,0.12093 0.1860656,0.26624 0.1860656,0.43661 0,0.17019 -0.061898,0.31568 -0.1860656,0.43662 -0.1241679,0.12093 -0.2736805,0.18163 -0.448428,0.18163 -0.1749377,0 -0.3242603,-0.0607 -0.448428,-0.18163 -0.1241679,-0.12094 -0.1860656,-0.26624 -0.1860656,-0.43662 0,-0.17037 0.061898,-0.31568 0.1860656,-0.43661 0.1241677,-0.12094 0.2736803,-0.18164 0.448428,-0.18164 z"
         style="fill:#34495e;fill-opacity:1;stroke:none;stroke-width:0.13030219" />
      <path
         id="path865"
         d="m 2.0713748,287.68722 c -0.153325,0 -0.2771294,0.13978 -0.2771294,0.31257 v 6.00333 c 0,0.1728 0.1238044,0.31208 0.2771294,0.31208 h 7.2398229 c 0.1533236,0 0.2771296,-0.13928 0.2771296,-0.31208 v -6.00333 c 0,-0.17279 -0.123806,-0.31257 -0.2771296,-0.31257 z m 3.0558079,1.37384 h 1.1282071 c 0.077771,0 0.1537475,0.0255 0.227906,0.0763 0.074158,0.0508 0.1251336,0.11098 0.1530855,0.18115 l 0.1122302,0.29189 h 0.4937138 c 0.1557325,0 0.2886152,0.0537 0.398712,0.16097 0.1100966,0.10724 0.1648995,0.23663 0.1648995,0.38837 v 1.92317 c 0,0.15174 -0.054803,0.28113 -0.1648995,0.38838 -0.1102868,0.10743 -0.2429795,0.16096 -0.398712,0.16096 H 4.1407395 c -0.1557329,0 -0.2886154,-0.0537 -0.398712,-0.16096 -0.1100968,-0.10725 -0.1653918,-0.23664 -0.1653918,-0.38838 v -1.92318 c 0,-0.15174 0.055295,-0.28113 0.1653918,-0.38837 0.1100966,-0.10725 0.2429791,-0.16097 0.398712,-0.16097 h 0.4932217 l 0.1122299,-0.29189 c 0.027952,-0.0702 0.078927,-0.13038 0.1530858,-0.18115 0.074159,-0.0508 0.1501344,-0.0763 0.2279058,-0.0763 z m 0.5641035,1.09916 c -0.2717239,0 -0.5043077,0.0938 -0.6974998,0.28205 -0.1930022,0.18806 -0.2894357,0.4146 -0.2894357,0.67929 0,0.26469 0.096243,0.49123 0.2894357,0.67929 0.1931921,0.18806 0.4257759,0.28205 0.6974998,0.28205 0.2717239,0 0.5038156,-0.0938 0.6970078,-0.28205 0.1930019,-0.18806 0.2899278,-0.4146 0.2899278,-0.67929 0,-0.26469 -0.096736,-0.49123 -0.2899278,-0.67929 -0.1931922,-0.18805 -0.4252839,-0.28205 -0.6970078,-0.28205 z m 0,0.34309 c 0.1747475,0 0.3242601,0.0607 0.448428,0.18164 0.1241679,0.12093 0.1860656,0.26624 0.1860656,0.43661 0,0.17019 -0.061898,0.31568 -0.1860656,0.43662 -0.1241679,0.12093 -0.2736805,0.18163 -0.448428,0.18163 -0.1749377,0 -0.3242603,-0.0607 -0.448428,-0.18163 -0.1241679,-0.12094 -0.1860656,-0.26624 -0.1860656,-0.43662 0,-0.17037 0.061898,-0.31568 0.1860656,-0.43661 0.1241677,-0.12094 0.2736803,-0.18164 0.448428,-0.18164 z"
         style="fill:#ffffff;stroke-width:0.46709761" />
      <g
         transform="matrix(0.24285684,0,0,0.24285684,1.9049934,285.50393)"
         id="g916"
         style="fill:#ff4164;fill-opacity:0.98823529;stroke-width:1.08946216">
        <g
           style="fill:#ff4164;fill-opacity:0.98823529;stroke-width:1.63039148"
           id="g17"
           transform="matrix(0.6134646,0,0,0.6134646,-178.01914,-297.8473)">
          <path
             style="opacity:0.75;fill:#ff4164;fill-opacity:0.98823529;stroke-width:1.63039148"
             id="path9"
             d="m 294.90044,506.26511 v 1 4 h 1 v -4 h 4 v -1 z" />
          <path
             style="opacity:0.75;fill:#ff4164;fill-opacity:0.98823529;stroke-width:1.63039148"
             id="path11"
             d="m 294.90044,538.56511 h 1 4 v -1 h -4 v -4 h -1 z" />
          <path
             style="opacity:0.75;fill:#ff4164;fill-opacity:0.98823529;stroke-width:1.63039148"
             id="path13"
             d="m 336.2007,538.06511 v -1 -4 h -1 v 4 h -4 v 1 z" />
          <path
             style="opacity:0.75;fill:#ff4164;fill-opacity:0.98823529;stroke-width:1.63039148"
             id="path15"
             d="m 336.3007,506.56472 h -1 -4 v 1 h 4 v 4 h 1 z" />
        </g>
      </g>
    </g>
  </g>
</svg>
