<?xml version="1.0" encoding="UTF-8" standalone="no"?>
<svg
   xmlns:dc="http://purl.org/dc/elements/1.1/"
   xmlns:cc="http://creativecommons.org/ns#"
   xmlns:rdf="http://www.w3.org/1999/02/22-rdf-syntax-ns#"
   xmlns:svg="http://www.w3.org/2000/svg"
   xmlns="http://www.w3.org/2000/svg"
   xmlns:xlink="http://www.w3.org/1999/xlink"
   xmlns:sodipodi="http://sodipodi.sourceforge.net/DTD/sodipodi-0.dtd"
   xmlns:inkscape="http://www.inkscape.org/namespaces/inkscape"
   height="48"
   width="48"
   version="1"
   id="svg12"
   sodipodi:docname="ktorrent.svg"
   inkscape:version="0.92.2 2405546, 2018-03-11">
  <sodipodi:namedview
     pagecolor="#ffffff"
     bordercolor="#666666"
     borderopacity="1"
     objecttolerance="10"
     gridtolerance="10"
     guidetolerance="10"
     inkscape:pageopacity="0"
     inkscape:pageshadow="2"
     inkscape:window-width="1366"
     inkscape:window-height="699"
     id="namedview23"
     showgrid="false"
     inkscape:zoom="10.145833"
     inkscape:cx="4.6817242"
     inkscape:cy="24"
     inkscape:window-x="0"
     inkscape:window-y="0"
     inkscape:window-maximized="1"
     inkscape:current-layer="svg12" />
  <metadata
     id="metadata18">
    <rdf:RDF>
      <cc:Work
         rdf:about="">
        <dc:format>image/svg+xml</dc:format>
        <dc:type
           rdf:resource="http://purl.org/dc/dcmitype/StillImage" />
        <dc:title />
      </cc:Work>
    </rdf:RDF>
  </metadata>
  <defs
     id="defs16">
    <linearGradient
       id="linearGradient1025"
       gradientUnits="userSpaceOnUse"
       x1="3.3645329"
       x2="36.073566"
       y1="1046.2201"
       y2="1007.7176">
      <stop
         style="stop-color:#1768c6;stop-opacity:1"
         offset="0"
         stop-color="#235ea2"
         id="stop1021" />
      <stop
         style="stop-color:#349ff3;stop-opacity:1"
         offset="1"
         stop-color="#1992f1"
         id="stop1023" />
    </linearGradient>
    <linearGradient
       id="linearGradient832">
      <stop
         style="stop-color:#81ce29;stop-opacity:1"
         offset="0"
         id="stop828" />
      <stop
         style="stop-color:#99db4d;stop-opacity:1"
         offset="1"
         id="stop830" />
    </linearGradient>
    <linearGradient
       gradientTransform="matrix(1.0731707,0,0,1.1,2.2926821,2.3999992)"
       xlink:href="#linearGradient832"
       id="linearGradient834"
       x1="-44"
       y1="-24"
       x2="-4"
       y2="-24"
       gradientUnits="userSpaceOnUse" />
    <linearGradient
       y2="1007.7176"
       y1="1046.2201"
       x2="36.073566"
       x1="3.3645329"
       gradientUnits="userSpaceOnUse"
       id="a">
      <stop
         id="stop8"
         stop-color="#235ea2"
         offset="0" />
      <stop
         id="stop10"
         stop-color="#1992f1"
         offset="1" />
    </linearGradient>
    <linearGradient
       y2="517.62671"
       y1="545.79791"
       x2="400.79395"
       x1="400.57144"
       gradientUnits="userSpaceOnUse"
       id="b">
      <stop
         id="stop13"
         stop-color="#197ff1"
         offset="0" />
      <stop
         id="stop15"
         stop-color="#21c6fb"
         offset="1" />
    </linearGradient>
    <linearGradient
       gradientUnits="userSpaceOnUse"
       y2="-24"
       x2="-2.0000038"
       y1="-24"
       x1="-44.92683"
       id="linearGradient1019"
       xlink:href="#linearGradient1025"
       gradientTransform="matrix(1.0250001,0,0,1,1.1231738,0)" />
    <linearGradient
       gradientUnits="userSpaceOnUse"
       y2="-24"
       x2="-2.0000038"
       y1="-24"
       x1="-44.92683"
       id="linearGradient1019-3"
       xlink:href="#linearGradient1025"
       gradientTransform="matrix(1.0250001,0,0,1,0.0500041,0)" />
  </defs>
  <rect
     transform="matrix(0,-1,-1,0,0,0)"
     style="fill:url(#linearGradient1019-3);fill-opacity:1;stroke-width:1.0731709"
     width="44"
     height="44"
     x="-46"
     y="-46"
     rx="2.1463416"
     ry="2.1463413"
     id="rect4" />
  <path
     style="fill:#ededed;fill-opacity:1;stroke-width:1.06770813"
     d="M 30.470703 18.554688 C 26.376378 18.459937 22.363677 19.570306 18.863281 21.806641 C 14.220806 24.7772 11.009501 29.398651 9.8203125 34.828125 C 8.8557107 39.220561 9.3804787 42.958553 10.988281 46 L 14.144531 46 C 12.84036 42.961637 12.509457 39.391618 13.341797 35.595703 C 14.327818 31.110812 16.972332 27.292983 20.804688 24.84375 C 24.656467 22.382137 29.272689 21.573612 33.798828 22.574219 L 34.576172 19.054688 C 33.208793 18.752399 31.835478 18.586272 30.470703 18.554688 z M 29.517578 23.494141 C 25.227067 23.690769 21.325163 25.492487 18.533203 28.566406 C 14.075766 33.475816 13.163464 40.152898 15.705078 46 L 19.748047 46 C 16.932749 41.105488 17.379713 35.199878 21.205078 30.990234 C 23.349041 28.634697 26.357783 27.24866 29.681641 27.099609 C 33.090853 26.94162 36.325633 28.101331 38.794922 30.359375 L 41.228516 27.697266 C 38.047318 24.787079 33.886974 23.29271 29.517578 23.494141 z M 30.560547 28.619141 C 29.465866 28.632511 28.366238 28.806449 27.292969 29.144531 C 23.330374 30.397584 20.5479 33.656423 19.708984 37.451172 C 19.31999 39.210743 19.366807 41.083234 19.888672 42.921875 L 19.876953 42.929688 C 19.875753 42.934888 19.894451 42.995911 19.900391 43.019531 L 19.896484 43.017578 C 19.896484 43.017578 19.909822 43.053984 19.919922 43.083984 C 19.931702 43.131094 19.9646 43.239623 19.96875 43.246094 C 20.124261 43.733649 20.523861 44.770083 21.294922 46 L 25.857422 46 C 24.134423 44.280987 23.53974 42.603381 23.412109 42.177734 C 23.242517 41.612142 23.40515 42.159507 23.40625 42.154297 C 22.992096 40.834216 22.949658 39.485994 23.228516 38.224609 C 23.797948 35.648847 25.688135 33.436104 28.378906 32.580078 C 30.320487 31.969785 32.388996 32.148479 34.199219 33.087891 C 36.004136 34.026119 37.335583 35.615843 37.951172 37.558594 L 41.423828 36.591797 L 41.388672 36.474609 C 40.487135 33.612562 38.522769 31.27558 35.861328 29.886719 C 34.197196 29.021991 32.385016 28.596861 30.560547 28.619141 z "
     id="path26" />
</svg>
