<?xml version="1.0" encoding="UTF-8" standalone="no"?>
<svg
   xmlns:dc="http://purl.org/dc/elements/1.1/"
   xmlns:cc="http://creativecommons.org/ns#"
   xmlns:rdf="http://www.w3.org/1999/02/22-rdf-syntax-ns#"
   xmlns:svg="http://www.w3.org/2000/svg"
   xmlns="http://www.w3.org/2000/svg"
   xmlns:xlink="http://www.w3.org/1999/xlink"
   xmlns:sodipodi="http://sodipodi.sourceforge.net/DTD/sodipodi-0.dtd"
   xmlns:inkscape="http://www.inkscape.org/namespaces/inkscape"
   height="48"
   width="48"
   version="1.1"
   id="svg30"
   sodipodi:docname="mate-panel-window-list.svg"
   inkscape:version="0.92.2 5c3e80d, 2017-08-06">
  <sodipodi:namedview
     pagecolor="#ffffff"
     bordercolor="#666666"
     borderopacity="1"
     objecttolerance="10"
     gridtolerance="10"
     guidetolerance="10"
     inkscape:pageopacity="0"
     inkscape:pageshadow="2"
     inkscape:window-width="709"
     inkscape:window-height="480"
     id="namedview36"
     showgrid="false"
     inkscape:zoom="4.9166667"
     inkscape:cx="24"
     inkscape:cy="24"
     inkscape:window-x="0"
     inkscape:window-y="0"
     inkscape:window-maximized="0"
     inkscape:current-layer="svg30" />
  <metadata
     id="metadata36">
    <rdf:RDF>
      <cc:Work
         rdf:about="">
        <dc:format>image/svg+xml</dc:format>
        <dc:type
           rdf:resource="http://purl.org/dc/dcmitype/StillImage" />
        <dc:title />
      </cc:Work>
    </rdf:RDF>
  </metadata>
  <defs
     id="defs34">
    <linearGradient
       id="linearGradient840">
      <stop
         id="stop836"
         offset="0"
         style="stop-color:#666666;stop-opacity:1;" />
      <stop
         id="stop838"
         offset="1"
         style="stop-color:#898989;stop-opacity:1" />
    </linearGradient>
    <linearGradient
       id="a-3"
       gradientTransform="matrix(0.93161886,0,0,1.0102051,-356.63286,-504.32799)"
       gradientUnits="userSpaceOnUse"
       x1="409.57144"
       x2="409.72055"
       y1="542.79797"
       y2="507.47299">
      <stop
         offset="0"
         stop-color="#00a199"
         id="stop2-6"
         style="stop-color:#595959;stop-opacity:1" />
      <stop
         offset="1"
         stop-color="#00f89a"
         stop-opacity=".988235"
         id="stop4-7"
         style="stop-color:#808080;stop-opacity:1" />
    </linearGradient>
    <linearGradient
       id="b-3"
       gradientUnits="userSpaceOnUse"
       x1="3.1466999"
       x2="18.771702"
       y1="1041.4948"
       y2="1041.4948"
       gradientTransform="matrix(0.1859203,0,0,0.1859203,12.28728,14.112737)">
      <stop
         offset="0"
         stop-color="#e6f3ff"
         id="stop7-6" />
      <stop
         offset="1"
         stop-color="#dcffe7"
         id="stop9-7" />
    </linearGradient>
    <linearGradient
       gradientUnits="userSpaceOnUse"
       y2="10.414769"
       x2="25.220337"
       y1="42.706993"
       x1="25.220337"
       id="linearGradient842"
       xlink:href="#linearGradient840" />
  </defs>
  <linearGradient
     id="a"
     gradientTransform="matrix(0.99999992,0,0,0.97650999,-368.9104,-530.03336)"
     gradientUnits="userSpaceOnUse"
     x1="409.57144"
     x2="409.57144"
     y1="542.79797"
     y2="507.798">
    <stop
       offset="0"
       stop-color="#566069"
       id="stop2" />
    <stop
       offset="1"
       stop-color="#6c7884"
       id="stop4" />
  </linearGradient>
  <linearGradient
     id="b"
     gradientUnits="userSpaceOnUse"
     x1="371.647015773641"
     x2="371.188124314451"
     y1="546.473296635663"
     y2="497.234375569857"
     gradientTransform="matrix(0.65762761,0,0,0.65762761,-205.4389,-360.38348)">
    <stop
       offset="0"
       stop-color="#ccc"
       id="stop7" />
    <stop
       offset="1"
       stop-color="#f5f2f5"
       id="stop9" />
  </linearGradient>
  <path
     id="rect4148-2"
     d="m 2.7586205,3.5172413 c -0.4203047,0 -0.7586207,0.3383449 -0.7586207,0.7586207 v 38.689655 0.758621 c 0,0.420276 0.338316,0.758621 0.7586207,0.758621 H 3.5172412 45.241379 C 45.661684,44.482759 46,44.144414 46,43.724138 V 4.275862 C 46,3.8555862 45.661684,3.5172413 45.241379,3.5172413 H 3.5172412 Z"
     style="fill:#34495e;fill-opacity:1;stroke:none;stroke-width:0.75862068" />
  <g
     style="fill:#ff5555"
     transform="matrix(0.98892453,0,0,0.98892453,62.738697,6.745991)"
     id="g873">
    <circle
       style="opacity:1;fill:#ff5555;fill-opacity:1;stroke:none;stroke-opacity:1"
       id="path4155-0"
       cx="-20.3729"
       cy="-0.7965467"
       r="1" />
    <circle
       style="opacity:1;fill:#ff5555;fill-opacity:1;stroke:none;stroke-opacity:1"
       id="circle858"
       cx="-23.75263"
       cy="-0.7965467"
       r="1" />
    <circle
       style="opacity:1;fill:#ff5555;fill-opacity:1;stroke:none;stroke-opacity:1"
       id="circle860"
       cx="-27.204269"
       cy="-0.86845589"
       r="1" />
    <circle
       r="1"
       cy="-0.7965467"
       cx="-27.13236"
       id="circle856"
       style="opacity:1;fill:#ff5555;fill-opacity:1;stroke:none;stroke-opacity:1" />
  </g>
  <rect
     rx="1.0812595"
     style="fill:url(#linearGradient842);stroke-width:0.65762758;fill-opacity:1"
     height="34.34697"
     ry="1.0812595"
     width="40.99123"
     x="3.5043848"
     y="8.6521521"
     id="rect12-6" />
  <rect
     style="fill:url(#a-36);stroke-width:0.65762758"
     id="rect852"
     y="-6.5025291"
     x="-64.101685"
     width="43.999996"
     ry="1.5624161"
     height="33.20134"
     rx="1.5624161" />
  <g
     transform="matrix(0.65762761,0,0,0.65762761,-287.20161,-332.72247)"
     id="g860"
     style="fill:#ffffff">
    <circle
       id="circle854"
       r="2.7088671"
       cy="501.34467"
       cx="358.05319"
       style="fill-opacity:0.85204103" />
    <circle
       id="circle856-5"
       r="2.7088671"
       cy="501.40213"
       cx="351.39838"
       style="fill-opacity:0.85204103" />
    <circle
       id="circle858-3"
       r="2.7088671"
       cy="501.46628"
       cx="344.85678"
       style="fill-opacity:0.85204103" />
  </g>
  <path
     style="fill:url(#b-7);stroke-width:0.65762758"
     id="path862"
     d="m -63.998945,22.549726 c -0.03657,0 -0.06724,0.01835 -0.102755,0.02243 V 25.1372 c 0,0.865576 0.696244,1.561819 1.56182,1.561819 h 40.876356 c 0.865576,0 1.56182,-0.696243 1.56182,-1.561819 v -2.587469 z" />
  <circle
     id="circle864"
     r="0"
     cy="-16.306013"
     cx="-131.40062"
     style="fill:url(#c);stroke-width:0.65762758" />
  <path
     id="path866"
     d="m 24.040245,14.187189 c -3.693624,0 -6.970265,1.750327 -9.087138,4.454842 l 1.450683,0.924131 c 1.810446,-2.22354 4.576049,-3.640277 7.658758,-3.640277 5.450733,0 9.875519,4.435447 9.875519,9.901691 0,5.462367 -4.424786,9.897822 -9.875519,9.897822 -3.072039,0 -5.827949,-1.408993 -7.640337,-3.620893 l -1.450681,0.924131 c 2.124626,2.696762 5.390612,4.435448 9.087139,4.435448 6.398136,0 11.587048,-5.212186 11.587048,-11.636508 0,-6.42044 -5.192791,-11.632625 -11.587048,-11.632625 M 12.354282,19.03574 v 13.575914 l 11.773237,-6.855837 m -0.08728,-7.022633 c -2.082937,0 -3.954473,0.905708 -5.253881,2.340878 l 1.50402,0.939653 c 0.965827,-0.958076 2.291419,-1.545717 3.753743,-1.545717 2.958581,0 5.359579,2.424271 5.359579,5.409037 0,2.988638 -2.398097,5.412908 -5.359579,5.412908 -1.488507,0 -2.833493,-0.609944 -3.803202,-1.598076 l -1.450681,0.924131 c 1.299409,1.43517 3.167064,2.340878 5.253883,2.340878 3.917618,0 7.094384,-3.189376 7.094384,-7.113786 0,-3.928291 -3.177727,-7.113787 -7.094384,-7.113787 m -0.0043,0.0043"
     style="fill:#ffffff;fill-opacity:0.85483901;fill-rule:evenodd;stroke-width:0.65762752"
     inkscape:connector-curvature="0" />
</svg>
