<?xml version="1.0" encoding="UTF-8" standalone="no"?>
<svg
   xmlns:dc="http://purl.org/dc/elements/1.1/"
   xmlns:cc="http://creativecommons.org/ns#"
   xmlns:rdf="http://www.w3.org/1999/02/22-rdf-syntax-ns#"
   xmlns:svg="http://www.w3.org/2000/svg"
   xmlns="http://www.w3.org/2000/svg"
   xmlns:xlink="http://www.w3.org/1999/xlink"
   xmlns:sodipodi="http://sodipodi.sourceforge.net/DTD/sodipodi-0.dtd"
   xmlns:inkscape="http://www.inkscape.org/namespaces/inkscape"
   width="48"
   height="48"
   viewBox="0 0 12.7 12.7"
   version="1.1"
   id="svg8"
   sodipodi:docname="openra-ra.svg"
   inkscape:version="0.92.4 (unknown)">
  <sodipodi:namedview
     pagecolor="#ffffff"
     bordercolor="#666666"
     borderopacity="1"
     objecttolerance="10"
     gridtolerance="10"
     guidetolerance="10"
     inkscape:pageopacity="0"
     inkscape:pageshadow="2"
     inkscape:window-width="1366"
     inkscape:window-height="709"
     id="namedview24"
     showgrid="false"
     inkscape:zoom="6.9532167"
     inkscape:cx="-21.695462"
     inkscape:cy="23.703221"
     inkscape:window-x="0"
     inkscape:window-y="0"
     inkscape:window-maximized="1"
     inkscape:current-layer="svg8" />
  <defs
     id="defs2">
    <linearGradient
       id="linearGradient852"
       inkscape:collect="always">
      <stop
         id="stop848"
         offset="0"
         style="stop-color:#d0ac00;stop-opacity:1" />
      <stop
         id="stop850"
         offset="1"
         style="stop-color:#ffd505;stop-opacity:1" />
    </linearGradient>
    <linearGradient
       gradientTransform="matrix(0.26458333,0,0,0.26458333,-12.70001,1.8999998e-7)"
       gradientUnits="userSpaceOnUse"
       y2="24"
       x2="47"
       y1="24"
       x1="1"
       id="linearGradient1113"
       xlink:href="#linearGradient1111" />
    <linearGradient
       id="linearGradient1111">
      <stop
         id="stop1107"
         offset="0"
         style="stop-color:#cccccc;stop-opacity:1;" />
      <stop
         id="stop1109"
         offset="1"
         style="stop-color:#f2f2f2;stop-opacity:1" />
    </linearGradient>
    <linearGradient
       gradientTransform="matrix(0,-0.26458333,-0.26458333,0,12.7,12.70001)"
       y2="47"
       x2="23.628531"
       y1="47"
       x1="46.999989"
       gradientUnits="userSpaceOnUse"
       id="linearGradient1125"
       xlink:href="#linearGradient1119" />
    <linearGradient
       id="linearGradient1119">
      <stop
         id="stop1115"
         offset="0"
         style="stop-color:#ffa400;stop-opacity:1" />
      <stop
         id="stop1117"
         offset="1"
         style="stop-color:#ffe42f;stop-opacity:1" />
    </linearGradient>
    <linearGradient
       gradientUnits="userSpaceOnUse"
       y2="46.681362"
       x2="3.3501468"
       y1="46.681362"
       x1="44.98653"
       id="linearGradient1121"
       xlink:href="#linearGradient1131"
       gradientTransform="matrix(0.26458333,0,0,0.26458333,1.9e-7,10e-6)" />
    <linearGradient
       id="linearGradient1131">
      <stop
         style="stop-color:#ffac06;stop-opacity:1"
         offset="0"
         id="stop1127" />
      <stop
         style="stop-color:#ffe22e;stop-opacity:1"
         offset="1"
         id="stop1129" />
    </linearGradient>
    <linearGradient
       inkscape:collect="always"
       id="linearGradient1299">
      <stop
         style="stop-color:#f2f2f2;stop-opacity:1"
         offset="0"
         id="stop1295" />
      <stop
         style="stop-color:#f9f9f9;stop-opacity:1"
         offset="1"
         id="stop1297" />
    </linearGradient>
    <linearGradient
       inkscape:collect="always"
       xlink:href="#linearGradient1299"
       id="linearGradient1301-3"
       x1="-46.576271"
       y1="24.20339"
       x2="-2.0338986"
       y2="24.20339"
       gradientUnits="userSpaceOnUse"
       gradientTransform="matrix(0.26464514,0,0,0.26463926,0.00287632,-5.5801142e-5)" />
    <linearGradient
       inkscape:collect="always"
       xlink:href="#linearGradient1368-3"
       id="linearGradient1370-5"
       x1="23.791016"
       y1="46.476032"
       x2="23.791016"
       y2="1.0019531"
       gradientUnits="userSpaceOnUse"
       gradientTransform="matrix(0.26459849,0,0,0.26458333,-1.5604509e-5,-8.5869184e-5)" />
    <linearGradient
       inkscape:collect="always"
       id="linearGradient1368-3">
      <stop
         style="stop-color:#ffaf08;stop-opacity:1"
         offset="0"
         id="stop1364-5" />
      <stop
         style="stop-color:#f5d200;stop-opacity:1"
         offset="1"
         id="stop1366-6" />
    </linearGradient>
    <linearGradient
       inkscape:collect="always"
       xlink:href="#linearGradient852"
       id="linearGradient853"
       x1="-1.902972"
       y1="10.746902"
       x2="-3.0989032"
       y2="3.1995406"
       gradientUnits="userSpaceOnUse" />
    <linearGradient
       inkscape:collect="always"
       xlink:href="#linearGradient852"
       id="linearGradient853-3"
       x1="-1.902972"
       y1="10.746902"
       x2="-3.0989032"
       y2="3.1995406"
       gradientUnits="userSpaceOnUse" />
  </defs>
  <metadata
     id="metadata5">
    <rdf:RDF>
      <cc:Work
         rdf:about="">
        <dc:format>image/svg+xml</dc:format>
        <dc:type
           rdf:resource="http://purl.org/dc/dcmitype/StillImage" />
        <dc:title />
      </cc:Work>
    </rdf:RDF>
  </metadata>
  <rect
     transform="rotate(-90)"
     id="rect884-3-2"
     y="0.26458368"
     x="-12.435416"
     width="12.170834"
     ry="6.3499956"
     height="12.170834"
     style="fill:url(#linearGradient1301-3);fill-opacity:1;stroke-width:0.30792442"
     rx="6.349997" />
  <path
     inkscape:connector-curvature="0"
     style="opacity:1;fill:url(#linearGradient1370-5);fill-opacity:1;stroke-width:0.74083316;stroke-opacity:0.55"
     d="m 6.2950511,0.26501418 c -0.1870858,0.002064 -0.3750328,0.0133562 -0.5638223,0.0330729 -0.00206,2.0558e-4 -0.00415,3.175e-4 -0.0062,5.2916e-4 -5.027e-4,5.424e-5 -0.00103,-5.424e-5 -0.00156,0 -0.056941,0.006019 -0.1140219,0.0140441 -0.1710586,0.0217038 -0.055769,0.007234 -0.1116489,0.0145309 -0.1669243,0.0232542 -3.44e-4,5.318e-5 -6.88e-4,-5.318e-5 -0.00103,0 -0.00103,1.6722e-4 -0.00206,3.4396e-4 -0.0031,5.2917e-4 -2.907312,0.46085548 -5.11676652,2.96633279 -5.11676652,6.00738669 0,0.2106115 0.0103095,0.4187481 0.0310076,0.6237345 0.0207002,0.2049865 0.051596,0.4067747 0.0919893,0.6051312 0.0201967,0.099178 0.042768,0.1972234 0.0677,0.2945556 0.0498643,0.1946643 0.10869094,0.3860483 0.17674355,0.5725748 0.0340264,0.093263 0.0701417,0.1849119 0.10852671,0.2759522 9.512e-5,2.257e-4 9.181e-4,2.91e-4 0.001035,5.291e-4 0.0766938,0.1818349 0.16144716,0.3595368 0.25477941,0.5317506 0.14696035,0.2711656 0.31988755,0.5253461 0.50490765,0.7694619 0.05029,0.06635 0.096436,0.135818 0.1493534,0.199988 0,0 0,5.29e-4 0,5.29e-4 0.1237249,0.150012 0.254872,0.294129 0.3922466,0.431498 0.2161913,0.21618 0.4524267,0.410543 0.6992222,0.592212 0.067081,0.04938 0.1308409,0.103215 0.1999993,0.149862 0,0 5.292e-4,0 5.292e-4,0 0.1616752,0.109028 0.3289757,0.210479 0.5012901,0.303857 0,0 5.292e-4,0 5.292e-4,0 0.2585487,0.140082 0.5285885,0.262292 0.8082658,0.364319 0,0 5.292e-4,0 5.292e-4,0 0.093115,0.03396 0.1869625,0.06559 0.2821694,0.09509 0,0 5.292e-4,0 5.292e-4,0 0.09521,0.02948 0.1917117,0.05728 0.2888876,0.08216 0,0 5.292e-4,0 5.292e-4,0 0.1945346,0.04981 0.3926499,0.09028 0.5943132,0.120923 0,0 5.291e-4,0 5.291e-4,0 0.1007417,0.0153 0.2025751,0.02843 0.3049085,0.03876 0,0 5.292e-4,0 5.292e-4,0 0.2047711,0.02064 0.4126783,0.03098 0.6231654,0.03098 1.1995581,0 2.3148221,-0.345324 3.2552849,-0.939994 0.080254,-0.05075 0.1595739,-0.102753 0.2372082,-0.157096 0.00992,-0.0069 0.019582,-0.01421 0.029457,-0.02119 0.070929,-0.05028 0.1406835,-0.101821 0.2093015,-0.155029 0.0093,-0.0072 0.01862,-0.01444 0.02791,-0.0217 0.06529,-0.05124 0.129674,-0.103791 0.192765,-0.157613 0.01582,-0.01348 0.03135,-0.0272 0.04703,-0.04082 0.0565,-0.04921 0.112295,-0.09914 0.166924,-0.150378 0.01851,-0.01734 0.03651,-0.03515 0.05478,-0.05271 0.05044,-0.04851 0.100105,-0.09758 0.148837,-0.147795 0.02387,-0.02458 0.04737,-0.04945 0.0708,-0.07441 0.0372,-0.03965 0.07394,-0.07977 0.110077,-0.120406 0.03411,-0.03836 0.06768,-0.0771 0.100775,-0.116272 0.02929,-0.03467 0.0583,-0.06957 0.08682,-0.104903 0.03082,-0.03818 0.06109,-0.07687 0.09096,-0.115755 0.03268,-0.04256 0.06507,-0.085232 0.09664,-0.1286745 0.02196,-0.030208 0.04321,-0.060871 0.0646,-0.091467 0.03588,-0.051336 0.07111,-0.1030592 0.105426,-0.1555462 0.01994,-0.030492 0.03953,-0.061145 0.05892,-0.091984 0.03001,-0.04776 0.05915,-0.096044 0.08785,-0.144694 0.02266,-0.038361 0.04486,-0.076906 0.06667,-0.1157552 0.02525,-0.04503 0.05029,-0.090173 0.07442,-0.135909 0.02418,-0.045778 0.04727,-0.092101 0.07028,-0.1384927 0.0177,-0.035736 0.0357,-0.071354 0.05271,-0.107487 0.02634,-0.055819 0.05133,-0.1123532 0.07597,-0.168982 0.01424,-0.032823 0.0287,-0.065579 0.04238,-0.098702 0.02649,-0.063949 0.05165,-0.1283848 0.07597,-0.1932699 0.0082,-0.021871 0.01637,-0.04364 0.02429,-0.065629 0.02936,-0.081168 0.05626,-0.162969 0.08217,-0.245463 0.0014,-0.00437 0.0033,-0.00855 0.0047,-0.01292 7.93e-4,-0.00254 0.0013,-0.00521 0.0021,-0.00775 0.02862,-0.092265 0.05535,-0.1852856 0.07959,-0.2790526 2.2e-4,-8.467e-4 2.92e-4,-0.00175 5.3e-4,-0.00259 1.34e-4,-5.291e-4 3.7e-4,-0.00103 5.29e-4,-0.00156 0.253195,-0.982559 0.264763,-2.042854 -0.01757,-3.0964515 C 11.489681,2.0299472 9.007901,0.23500039 6.2950511,0.26501418 Z m 0.053747,0.67644459 c 2.392989,-0.00535 4.5737559,1.58446603 5.2237529,4.01009103 0.12548,0.4682619 0.185529,0.9379894 0.186562,1.3999144 h -0.0016 c 0,0.1052176 -0.0039,0.2094616 -0.0098,0.3131592 -0.0061,0.1077362 -0.01599,0.2149295 -0.02842,0.3214275 -0.0072,0.062033 -0.01451,0.124156 -0.02377,0.1855184 -0.01832,0.1203648 -0.04089,0.2393728 -0.06718,0.3576008 -0.01064,0.048217 -0.02117,0.096461 -0.03308,0.1441772 -0.0296,0.1177174 -0.06447,0.2337718 -0.101809,0.3488159 -0.03182,0.098599 -0.06872,0.1949389 -0.105943,0.2909384 -0.02721,0.069888 -0.05315,0.1401548 -0.0832,0.2087727 -0.03746,0.085778 -0.07974,0.1688179 -0.121447,0.252181 -0.03707,0.07396 -0.07328,0.1485003 -0.113695,0.2206585 -0.04216,0.075366 -0.08824,0.1481116 -0.133849,0.221175 -0.04623,0.074016 -0.09181,0.1484069 -0.141602,0.2201415 -0.04724,0.068088 -0.09807,0.1332093 -0.14832,0.1989545 -0.05613,0.073427 -0.112166,0.1469919 -0.172092,0.2175576 -0.05032,0.05926 -0.103793,0.1155923 -0.156589,0.1725996 -0.06436,0.06947 -0.128763,0.138989 -0.196898,0.205155 -0.05378,0.05227 -0.11048,0.101405 -0.1664072,0.151412 -0.076307,0.06814 -0.1526294,0.136035 -0.2330741,0.199988 -0.050881,0.04054 -0.104225,0.07808 -0.1565887,0.116789 -0.090264,0.06655 -0.1810609,0.132622 -0.275968,0.193786 -0.098347,0.0636 -0.1981306,0.124657 -0.3007739,0.181901 -0.047386,0.02632 -0.095296,0.05149 -0.1436687,0.07648 -0.1053732,0.05466 -0.2126322,0.106725 -0.3219627,0.154513 -0.055708,0.02427 -0.112667,0.04672 -0.1695083,0.06925 -0.092986,0.03692 -0.187216,0.07099 -0.2826864,0.102836 -0.1053401,0.03518 -0.212163,0.06853 -0.3209289,0.09767 l 5.291e-4,0.0021 C 7.302535,11.695399 6.8333396,11.7594 6.3487994,11.7594 4.8506413,11.7594 3.4990123,11.15661 2.5214236,10.179134 2.277024,9.9347681 2.0560015,9.6667975 1.8619921,9.3791864 1.2799642,8.5163535 0.94054855,7.4749543 0.94054855,6.3514642 c 0,-2.5111308 1.69491215,-4.611331 4.00773695,-5.2255207 l 5.291e-4,0.00206 C 5.129697,1.079544 5.3111594,1.0406153 5.4919648,1.0112185 5.5430398,1.0029085 5.593923,0.9968464 5.6449358,0.9900307 5.6946708,0.9836177 5.7441318,0.9764893 5.7942896,0.9714279 5.9765494,0.9530314 6.1615395,0.9435226 6.3488094,0.9435226 Z"
     id="path31-6-9" />
  <path
     sodipodi:type="star"
     style="opacity:1;vector-effect:none;fill:url(#linearGradient853);fill-opacity:1;stroke:none;stroke-width:1.13982368;stroke-linecap:butt;stroke-linejoin:miter;stroke-miterlimit:4;stroke-dasharray:none;stroke-dashoffset:0;stroke-opacity:0.55"
     id="path845"
     sodipodi:sides="5"
     sodipodi:cx="-2.6636353"
     sodipodi:cy="7.2205219"
     sodipodi:r1="4.2802925"
     sodipodi:r2="1.8833287"
     sodipodi:arg1="0.78539816"
     sodipodi:arg2="1.4137167"
     inkscape:flatsided="false"
     inkscape:rounded="0"
     inkscape:randomized="0"
     d="M 0.36298862,10.247146 -2.3690178,9.0806637 -4.6068474,11.03429 -4.3416934,8.0755352 -6.8912303,6.5509367 -3.9953497,5.8888074 -3.3332205,2.9929269 -1.8086219,5.5424638 1.1501333,5.2773098 -0.80349348,7.5151395 Z"
     inkscape:transform-center-x="-6.0761519e-05"
     inkscape:transform-center-y="-0.26559901"
     transform="matrix(0.64194494,0.10172057,-0.10172057,0.64194494,8.7943784,2.0176184)" />
  <path
     transform="matrix(0.32097247,0.05086029,-0.05086029,0.32097247,3.9936154,5.0022503)"
     inkscape:transform-center-y="-0.1327996"
     inkscape:transform-center-x="-3.0329247e-05"
     d="M 0.36298862,10.247146 -2.3690178,9.0806637 -4.6068474,11.03429 -4.3416934,8.0755352 -6.8912303,6.5509367 -3.9953497,5.8888074 -3.3332205,2.9929269 -1.8086219,5.5424638 1.1501333,5.2773098 -0.80349348,7.5151395 Z"
     inkscape:randomized="0"
     inkscape:rounded="0"
     inkscape:flatsided="false"
     sodipodi:arg2="1.4137167"
     sodipodi:arg1="0.78539816"
     sodipodi:r2="1.8833287"
     sodipodi:r1="4.2802925"
     sodipodi:cy="7.2205219"
     sodipodi:cx="-2.6636353"
     sodipodi:sides="5"
     id="path855"
     style="opacity:1;vector-effect:none;fill:url(#linearGradient853);fill-opacity:1;stroke:none;stroke-width:2.27964735;stroke-linecap:butt;stroke-linejoin:miter;stroke-miterlimit:4;stroke-dasharray:none;stroke-dashoffset:0;stroke-opacity:0.55;font-variant-east_asian:normal"
     sodipodi:type="star" />
  <path
     sodipodi:type="star"
     style="opacity:1;vector-effect:none;fill:url(#linearGradient853);fill-opacity:1;stroke:none;stroke-width:2.27964735;stroke-linecap:butt;stroke-linejoin:miter;stroke-miterlimit:4;stroke-dasharray:none;stroke-dashoffset:0;stroke-opacity:0.55;font-variant-east_asian:normal"
     id="path859"
     sodipodi:sides="5"
     sodipodi:cx="-2.6636353"
     sodipodi:cy="7.2205219"
     sodipodi:r1="4.2802925"
     sodipodi:r2="1.8833287"
     sodipodi:arg1="0.78539816"
     sodipodi:arg2="1.4137167"
     inkscape:flatsided="false"
     inkscape:rounded="0"
     inkscape:randomized="0"
     d="M 0.36298862,10.247146 -2.3690178,9.0806637 -4.6068474,11.03429 -4.3416934,8.0755352 -6.8912303,6.5509367 -3.9953497,5.8888074 -3.3332205,2.9929269 -1.8086219,5.5424638 1.1501333,5.2773098 -0.80349348,7.5151395 Z"
     inkscape:transform-center-x="-3.0729247e-05"
     inkscape:transform-center-y="-0.1327996"
     transform="matrix(0.32097247,0.05086029,-0.05086029,0.32097247,11.150819,5.0022503)" />
</svg>
