<?xml version="1.0" encoding="UTF-8" standalone="no"?>
<svg
   xmlns:dc="http://purl.org/dc/elements/1.1/"
   xmlns:cc="http://creativecommons.org/ns#"
   xmlns:rdf="http://www.w3.org/1999/02/22-rdf-syntax-ns#"
   xmlns:svg="http://www.w3.org/2000/svg"
   xmlns="http://www.w3.org/2000/svg"
   xmlns:xlink="http://www.w3.org/1999/xlink"
   xmlns:sodipodi="http://sodipodi.sourceforge.net/DTD/sodipodi-0.dtd"
   xmlns:inkscape="http://www.inkscape.org/namespaces/inkscape"
   height="48"
   width="48"
   version="1.1"
   id="svg43"
   sodipodi:docname="openra-d2k.svg"
   inkscape:version="0.92.4 (unknown)">
  <sodipodi:namedview
     pagecolor="#ffffff"
     bordercolor="#666666"
     borderopacity="1"
     objecttolerance="10"
     gridtolerance="10"
     guidetolerance="10"
     inkscape:pageopacity="0"
     inkscape:pageshadow="2"
     inkscape:window-width="1366"
     inkscape:window-height="709"
     id="namedview34"
     showgrid="false"
     inkscape:object-nodes="false"
     inkscape:zoom="10.145833"
     inkscape:cx="-4.7367731"
     inkscape:cy="24"
     inkscape:window-x="0"
     inkscape:window-y="0"
     inkscape:window-maximized="1"
     inkscape:current-layer="svg43" />
  <metadata
     id="metadata49">
    <rdf:RDF>
      <cc:Work
         rdf:about="">
        <dc:format>image/svg+xml</dc:format>
        <dc:type
           rdf:resource="http://purl.org/dc/dcmitype/StillImage" />
        <dc:title />
      </cc:Work>
    </rdf:RDF>
  </metadata>
  <defs
     id="defs47">
    <linearGradient
       inkscape:collect="always"
       id="linearGradient1154">
      <stop
         style="stop-color:#171717;stop-opacity:1"
         offset="0"
         id="stop1150" />
      <stop
         style="stop-color:#363636;stop-opacity:1"
         offset="1"
         id="stop1152" />
    </linearGradient>
    <linearGradient
       inkscape:collect="always"
       id="linearGradient1146">
      <stop
         style="stop-color:#aaaaaa;stop-opacity:1"
         offset="0"
         id="stop1142" />
      <stop
         style="stop-color:#d1d1d1;stop-opacity:1"
         offset="1"
         id="stop1144" />
    </linearGradient>
    <linearGradient
       gradientTransform="matrix(0,-1.4244,-1.4244,0,199.10159,-119.10908)"
       y2="168.09801"
       x2="-87.755096"
       y1="168.09801"
       x1="-120.0489"
       gradientUnits="userSpaceOnUse"
       id="linearGradient1113">
      <stop
         id="stop1109"
         style="stop-color:#a9a9a9;stop-opacity:1"
         offset="0" />
      <stop
         id="stop1111"
         style="stop-color:#cacaca;stop-opacity:1"
         offset="1" />
    </linearGradient>
    <linearGradient
       id="linearGradient886">
      <stop
         id="stop882"
         stop-color="#dcdfe0"
         offset="0"
         style="stop-color:#ececec;stop-opacity:1" />
      <stop
         style="stop-color:#ffffff;stop-opacity:1"
         id="stop884"
         stop-color="#fefeff"
         offset="1" />
    </linearGradient>
    <linearGradient
       id="linearGradient878">
      <stop
         style="stop-color:#ededed;stop-opacity:1"
         offset="0"
         id="stop874" />
      <stop
         style="stop-color:#adadad;stop-opacity:1"
         offset="1"
         id="stop876" />
    </linearGradient>
    <linearGradient
       xlink:href="#linearGradient878"
       id="linearGradient880"
       x1="23.998451"
       y1="0.50001007"
       x2="23.998451"
       y2="47.363766"
       gradientUnits="userSpaceOnUse"
       gradientTransform="matrix(0.9787234,0,0,0.9787234,-115.6865,6.4942019)" />
    <linearGradient
       id="circle866_1_"
       gradientUnits="userSpaceOnUse"
       x1="-120.0489"
       y1="168.09801"
       x2="-87.755096"
       y2="168.09801"
       gradientTransform="matrix(0,-1.4244,-1.4244,0,199.10159,-119.10908)">
      <stop
         offset="0"
         style="stop-color:#5C5C5C"
         id="stop3" />
      <stop
         offset="1"
         style="stop-color:#AEAEAE"
         id="stop5" />
    </linearGradient>
    <linearGradient
       id="circle882_1_"
       gradientUnits="userSpaceOnUse"
       x1="-68.711502"
       y1="189.1748"
       x2="-68.711502"
       y2="216.8949"
       gradientTransform="matrix(1.475,0,0,1.475,61.006989,-270.95423)">
      <stop
         offset="0"
         style="stop-color:#00FF72"
         id="stop9-3" />
      <stop
         offset="1"
         style="stop-color:#00FFCC"
         id="stop11" />
    </linearGradient>
    <linearGradient
       id="linearGradient1064"
       gradientUnits="userSpaceOnUse"
       x1="400.43274"
       x2="400.78711"
       y1="544.8963"
       y2="518.50586"
       gradientTransform="matrix(1.6041596,0,0,1.6040528,-618.92804,-829.25272)">
      <stop
         style="stop-color:#101010;stop-opacity:1"
         offset="0"
         stop-color="#333"
         id="stop12-3" />
      <stop
         offset="1"
         stop-color="#4d4d4d"
         id="stop14-5"
         style="stop-color:#414141;stop-opacity:1" />
    </linearGradient>
    <linearGradient
       id="b-6"
       gradientUnits="userSpaceOnUse"
       x1="400.57144"
       x2="400.57144"
       y1="545.79797"
       y2="517.79797"
       gradientTransform="matrix(1.5700285,0,0,1.569924,-605.24873,-811.09843)">
      <stop
         offset="0"
         stop-color="#e3e3e3"
         id="stop7-2" />
      <stop
         offset="1"
         stop-color="#fcf9f9"
         id="stop9-9" />
    </linearGradient>
    <linearGradient
       id="a-1"
       gradientUnits="userSpaceOnUse"
       x1="404.88937"
       x2="404.88937"
       y1="546.47644"
       y2="517.4765"
       gradientTransform="matrix(1.5700285,0,0,1.569924,-605.24873,-811.09843)">
      <stop
         offset="0"
         stop-color="#00cafe"
         id="stop2-2" />
      <stop
         offset="1"
         stop-color="#1460f3"
         id="stop4-7" />
    </linearGradient>
    <linearGradient
       id="d-0"
       gradientUnits="userSpaceOnUse"
       x1="400.57144"
       x2="400.57144"
       y1="545.79797"
       y2="517.79797"
       gradientTransform="matrix(1.5700285,0,0,1.569924,-605.24873,-811.09843)">
      <stop
         offset="0"
         stop-color="#d3d3d3"
         id="stop17-9" />
      <stop
         offset="1"
         stop-color="#fcf9f9"
         id="stop19-3" />
    </linearGradient>
    <linearGradient
       inkscape:collect="always"
       xlink:href="#linearGradient1113"
       id="linearGradient919"
       gradientUnits="userSpaceOnUse"
       gradientTransform="matrix(0,-1.4244,-1.4244,0,263.44246,-124.00025)"
       x1="-120.0489"
       y1="168.09801"
       x2="-87.755096"
       y2="168.09801" />
    <linearGradient
       inkscape:collect="always"
       xlink:href="#linearGradient1064"
       id="linearGradient870"
       gradientUnits="userSpaceOnUse"
       gradientTransform="matrix(1.5000043,0,0,1.5000045,-577.12144,-773.96708)"
       x1="400.43274"
       y1="544.8963"
       x2="400.78711"
       y2="518.50586" />
    <linearGradient
       inkscape:collect="always"
       xlink:href="#linearGradient1146"
       id="linearGradient1148"
       x1="24.542095"
       y1="36.073921"
       x2="24.542095"
       y2="12.123202"
       gradientUnits="userSpaceOnUse" />
    <linearGradient
       inkscape:collect="always"
       xlink:href="#linearGradient1154"
       id="linearGradient1156"
       x1="24.443533"
       y1="33.80698"
       x2="24.443533"
       y2="14.488706"
       gradientUnits="userSpaceOnUse" />
  </defs>
  <linearGradient
     id="a"
     gradientUnits="userSpaceOnUse"
     x1="404.88937"
     x2="404.88937"
     y1="546.47644"
     y2="517.4765"
     gradientTransform="matrix(1.5700285,0,0,1.569924,-605.24873,-811.09843)">
    <stop
       offset="0"
       stop-color="#00cafe"
       id="stop2" />
    <stop
       offset="1"
       stop-color="#1460f3"
       id="stop4" />
  </linearGradient>
  <linearGradient
     id="b"
     gradientUnits="userSpaceOnUse"
     x1="400.57144"
     x2="400.57144"
     y1="545.79797"
     y2="517.79797"
     gradientTransform="matrix(1.5700285,0,0,1.569924,-605.24873,-811.09843)">
    <stop
       offset="0"
       stop-color="#e3e3e3"
       id="stop7" />
    <stop
       offset="1"
       stop-color="#fcf9f9"
       id="stop9" />
  </linearGradient>
  <linearGradient
     id="c"
     gradientUnits="userSpaceOnUse"
     x1="400.43274"
     x2="400.78711"
     y1="544.8963"
     y2="518.50586"
     gradientTransform="matrix(1.6041596,0,0,1.6040528,-618.92804,-829.25272)">
    <stop
       style="stop-color:#101010;stop-opacity:1"
       offset="0"
       stop-color="#333"
       id="stop12" />
    <stop
       offset="1"
       stop-color="#4d4d4d"
       id="stop14"
       style="stop-color:#414141;stop-opacity:1" />
  </linearGradient>
  <linearGradient
     id="d"
     gradientUnits="userSpaceOnUse"
     x1="400.57144"
     x2="400.57144"
     y1="545.79797"
     y2="517.79797"
     gradientTransform="matrix(1.5700285,0,0,1.569924,-605.24873,-811.09843)">
    <stop
       offset="0"
       stop-color="#d3d3d3"
       id="stop17" />
    <stop
       offset="1"
       stop-color="#fcf9f9"
       id="stop19" />
  </linearGradient>
  <linearGradient
     id="e">
    <stop
       offset="0"
       stop-color="#dcdfe0"
       id="stop22" />
    <stop
       offset="1"
       stop-color="#fefeff"
       id="stop24" />
  </linearGradient>
  <linearGradient
     id="f"
     gradientUnits="userSpaceOnUse"
     x1="401.65936"
     x2="402.0788"
     xlink:href="#linearGradient886"
     y1="539.15057"
     y2="524.59662"
     gradientTransform="matrix(1.6041596,0,0,1.6040528,-618.92804,-829.25272)" />
  <linearGradient
     id="g"
     gradientUnits="userSpaceOnUse"
     x1="404.94229"
     x2="404.94229"
     xlink:href="#e"
     y1="546.47614"
     y2="517.39441"
     gradientTransform="matrix(1.5700286,0,0,1.5699241,-605.24874,-811.09843)" />
  <circle
     style="fill:url(#b-6);stroke:url(#a-1);stroke-width:1.60410607"
     id="circle31"
     r="0"
     cy="24.064291"
     cx="23.934744" />
  <circle
     style="fill:url(#d-0);stroke-width:1.60410607"
     id="circle33"
     r="0"
     cy="24.064196"
     cx="23.934649" />
  <circle
     style="fill:url(#linearGradient919);stroke-width:1"
     r="23"
     cy="24"
     cx="24"
     id="circle917" />
  <circle
     style="fill:url(#linearGradient870);stroke-width:1.60410607"
     id="circle29"
     cy="24"
     cx="24"
     r="21" />
  <g
     id="g1164"
     transform="matrix(0.99796959,0,0,0.99796959,0.08089091,0.04872984)"
     style="stroke-width:1.00203454">
    <path
       id="path1051"
       d="m 23.966797,11.974609 c -3.241459,0 -6.221094,1.255798 -8.521485,3.503907 -2.248108,2.30039 -3.501953,5.332307 -3.501953,8.521484 0,6.639763 5.383676,12.025391 12.023438,12.025391 6.639763,0 12.025391,-5.385628 12.025391,-12.025391 -10e-7,-6.639763 -5.385628,-12.025391 -12.025391,-12.025391 z"
       style="fill:url(#linearGradient1148);fill-opacity:1;stroke-width:1.00203454"
       inkscape:connector-curvature="0" />
    <path
       id="path905"
       d="m 26.982422,14.117188 c -0.334857,0 -0.558594,0.221783 -0.558594,0.55664 0,0.334858 0.223737,0.558594 0.558594,0.558594 h 0.167969 0.333984 c 0.279048,0 0.559423,-0.223736 0.615234,-0.558594 0,-0.279048 -0.223736,-0.556641 -0.558593,-0.55664 h -0.335938 z m -9.970703,0.07031 c -0.417438,0.29431 -0.816634,0.61834 -1.201172,0.966797 0.08318,0.04624 0.176651,0.07813 0.289062,0.07813 0.334858,0 0.66905,-0.0011 1.003907,0.05469 h 0.113281 c 0.279047,0 0.500829,-0.165433 0.556641,-0.388671 0.05581,-0.334857 -0.166265,-0.614111 -0.445313,-0.669922 -0.10411,-0.01487 -0.211173,-0.02714 -0.316406,-0.04102 z m 8.345703,0.117188 c -0.07238,-0.0043 -0.147035,0.0072 -0.216797,0.03516 -0.390667,0.111619 -0.723738,0.277884 -1.058594,0.445312 -0.279048,0.167429 -0.559674,0.280959 -0.894531,0.392578 -0.06475,0.02591 -0.121237,0.06487 -0.171875,0.111328 -0.07288,-0.01388 -0.14758,-0.01616 -0.21875,-0.002 -0.390667,0.05581 -0.7254,0.113282 -1.171875,0.113282 h -0.335938 c -0.279047,0 -0.55664,0.221783 -0.55664,0.55664 0,0.279048 0.221784,0.558594 0.55664,0.558594 H 21.625 c 0.502285,0 0.948054,2.91e-4 1.394531,-0.111328 0.107399,-0.0179 0.190607,-0.07051 0.261719,-0.134766 0.04246,0.01177 0.08757,0.02344 0.130859,0.02344 0.05581,0 0.112158,-8.51e-4 0.167969,-0.05664 0.390667,-0.111619 0.723737,-0.279838 1.058594,-0.447266 0.279048,-0.167429 0.557721,-0.277052 0.892578,-0.388671 0.279047,-0.11162 0.447557,-0.447515 0.335938,-0.726563 -0.08371,-0.209284 -0.292631,-0.356059 -0.509766,-0.36914 z m 4.201172,0.328124 c -0.217134,-0.0026 -0.426051,0.111026 -0.509766,0.320313 -0.111618,0.279048 2.49e-4,0.614944 0.279297,0.726563 l 0.333984,0.167968 c 0.334856,0.167429 0.725399,0.390334 1.171875,0.501953 h 0.167969 c 0.06138,0 0.120622,-0.0141 0.179688,-0.03711 0.063,0.04461 0.133328,0.07667 0.208984,0.0918 0.390667,0.05581 0.782039,0.111328 1.228516,0.111328 0.226173,0 0.396093,-0.132443 0.486328,-0.318359 -0.255219,-0.298578 -0.525722,-0.583247 -0.808594,-0.855469 -0.233666,-0.004 -0.449861,-0.01607 -0.681641,-0.05469 -0.130587,-0.02176 -0.245928,0.01069 -0.349609,0.06055 -0.03218,-0.01974 -0.06149,-0.04608 -0.09766,-0.06055 -0.334858,-0.111619 -0.66905,-0.277883 -1.003907,-0.445312 -0.167428,-0.05581 -0.279004,-0.112158 -0.390624,-0.167969 -0.06976,-0.0279 -0.142466,-0.04014 -0.214844,-0.04102 z M 18.787109,14.6875 c -0.217133,-0.0026 -0.428003,0.111028 -0.511718,0.320312 -0.111619,0.279048 2.49e-4,0.614944 0.279297,0.726563 l 0.113281,0.05469 c 0.11162,0.05581 0.222365,0.112158 0.333984,0.167969 0.05581,0.05581 0.166845,0.05664 0.222656,0.05664 0.223238,0 0.392288,-0.110746 0.503907,-0.333984 0.111619,-0.279048 -2.49e-4,-0.614944 -0.279297,-0.726563 l -0.335938,-0.167969 -0.111328,-0.05469 c -0.06976,-0.0279 -0.142466,-0.04209 -0.214844,-0.04297 z m -6.019531,4.953125 c -0.141935,0.366022 -0.265421,0.738742 -0.371094,1.117187 h 0.466797 c 0.279048,0 0.501953,-0.223735 0.501953,-0.558593 0.05581,-0.279047 -0.167095,-0.558594 -0.501953,-0.558594 z m 14.550781,0 c -0.279048,0.05581 -0.501953,0.280377 -0.501953,0.615234 0.05581,0.279048 0.278423,0.501954 0.613282,0.501953 h 1.226562 c 0.334858,0 0.557763,-0.222905 0.501953,-0.501953 0.05581,-0.334857 -0.167095,-0.615234 -0.501953,-0.615234 z m 3.164063,0.333984 c -0.224983,0.03663 -0.402613,0.183293 -0.486328,0.392579 -0.05581,0.334858 0.111577,0.612989 0.390625,0.724609 0.502286,0.167427 0.89532,0.335356 1.341797,0.558594 0.502286,0.279048 0.946641,0.502493 1.560546,0.669921 h 0.166016 c 0.223238,0 0.448928,-0.168218 0.560547,-0.447265 0.05581,-0.334858 -0.11353,-0.612991 -0.392578,-0.724609 -0.502286,-0.11162 -0.946101,-0.335355 -1.392578,-0.558594 -0.446476,-0.223239 -0.95167,-0.445852 -1.509766,-0.613282 -0.08371,-0.01395 -0.163288,-0.01412 -0.238281,-0.002 z M 25.580078,20 c -0.07238,-0.0052 -0.145083,0.0052 -0.214844,0.0332 -0.558096,0.167428 -1.061335,0.390043 -1.507812,0.613281 -0.446476,0.167429 -0.892245,0.389213 -1.394531,0.556641 -0.334856,0.11162 -0.504199,0.447515 -0.392579,0.726563 0.11162,0.223237 0.337309,0.390625 0.560547,0.390624 h 0.109375 c 0.613905,-0.167428 1.116023,-0.391996 1.5625,-0.615234 0.446476,-0.223238 0.894199,-0.389212 1.396485,-0.55664 0.334856,-0.11162 0.502244,-0.391706 0.390625,-0.726563 C 26.006134,20.170733 25.797212,20.015697 25.580078,20 Z m -10.970703,0.03125 c -0.201437,0.03663 -0.379177,0.18134 -0.462891,0.390625 -0.05581,0.279048 0.111577,0.558302 0.390625,0.669922 0.558096,0.167428 1.004696,0.390043 1.451172,0.613281 0.446477,0.223238 0.949718,0.447805 1.507813,0.615234 h 0.167968 c 0.223238,0 0.444483,-0.166556 0.388672,-0.333984 0.111619,-0.334858 -0.05494,-0.61299 -0.333984,-0.724609 -0.502286,-0.167428 -0.893367,-0.337309 -1.339844,-0.560547 -0.446476,-0.223239 -0.948595,-0.500541 -1.5625,-0.667969 -0.06976,-0.01395 -0.139885,-0.01412 -0.207031,-0.002 z m 5.007813,1.507812 c -0.334857,-0.05581 -0.559424,0.167097 -0.615235,0.501954 -0.05581,0.334857 0.167096,0.613281 0.501953,0.613281 h 0.669922 0.78125 c 0.279048,-0.05581 0.501953,-0.278424 0.501953,-0.613281 -0.05581,-0.279048 -0.278424,-0.501953 -0.613281,-0.501954 z m 15.736328,0.05664 c -0.279047,-0.05581 -0.556641,0.167095 -0.556641,0.501953 -0.05581,0.279048 0.167096,0.556641 0.501953,0.556641 h 0.613281 c -0.03983,-0.35688 -0.08976,-0.711835 -0.160156,-1.058594 z m -23.306641,3.90625 c 0.04711,0.377061 0.110204,0.749842 0.191406,1.115235 h 0.345703 c 0.334858,0 0.556641,-0.221783 0.556641,-0.556641 0.05581,-0.279048 -0.167096,-0.558594 -0.501953,-0.558594 z m 14.880859,0 c -0.279048,0.05581 -0.503906,0.278423 -0.503906,0.613281 0.05581,0.279048 0.280376,0.501954 0.615234,0.501954 h 0.558594 0.613282 c 0.279047,0 0.558593,-0.222906 0.558593,-0.501954 0.05581,-0.334858 -0.169048,-0.613281 -0.503906,-0.613281 h -0.667969 z m -1.738281,0.300781 c -0.07238,-0.0052 -0.147035,0.0052 -0.216797,0.0332 -0.558096,0.167428 -1.059382,0.391996 -1.505859,0.615234 -0.446476,0.223238 -0.894198,0.389211 -1.396485,0.55664 -0.334856,0.11162 -0.50029,0.447515 -0.388671,0.726563 0.111619,0.223239 0.333402,0.388672 0.55664,0.388672 h 0.22461 c 0.558096,-0.167428 1.059383,-0.38809 1.505859,-0.611328 0.446477,-0.223238 0.837558,-0.391166 1.339844,-0.558594 0.334856,-0.11162 0.502244,-0.445562 0.390625,-0.724609 -0.08371,-0.251142 -0.292633,-0.410085 -0.509766,-0.425782 z m -10.804687,0.08789 c -0.201439,0.03663 -0.379176,0.183292 -0.462891,0.392578 -0.05581,0.279047 0.11353,0.558302 0.392578,0.669922 0.502286,0.111619 0.948055,0.335356 1.394531,0.558594 0.446476,0.223238 0.893076,0.4439 1.451172,0.611328 h 0.167969 c 0.223238,0 0.446142,-0.109915 0.501953,-0.277344 0.111619,-0.334857 -0.05494,-0.614943 -0.333984,-0.726562 -0.502286,-0.167429 -0.893368,-0.333402 -1.339844,-0.556641 -0.446477,-0.279047 -0.950548,-0.504447 -1.564453,-0.671875 -0.06976,-0.01395 -0.139885,-0.01221 -0.207031,0 z m 15.652343,0 c -0.224982,0.03663 -0.402612,0.183292 -0.486328,0.392578 -0.05581,0.334857 0.109625,0.61299 0.388672,0.724609 0.502286,0.167429 0.89532,0.335355 1.341797,0.558594 0.446477,0.223239 0.891954,0.447806 1.505859,0.615235 h 0.166016 c 0.223239,-1e-6 0.447805,-0.169341 0.615234,-0.392579 0.05581,-0.334858 -0.111577,-0.612989 -0.390625,-0.724609 -0.502286,-0.167428 -0.948054,-0.335356 -1.394531,-0.558594 -0.446476,-0.223238 -0.949717,-0.447806 -1.507812,-0.615234 -0.08371,-0.01395 -0.163288,-0.01221 -0.238282,0 z M 19.28125,27.34375 c -0.334858,-0.05581 -0.613281,0.167096 -0.613281,0.501953 -0.05581,0.334858 0.167095,0.615234 0.501953,0.615235 h 0.667969 0.726562 c 0.279048,-0.05581 0.501953,-0.280377 0.501953,-0.615235 -0.05581,-0.279047 -0.278424,-0.501953 -0.613281,-0.501953 z m 15.515625,0.05469 c -0.279048,-0.05581 -0.558594,0.167096 -0.558594,0.501953 -0.05581,0.279048 0.167096,0.560547 0.501953,0.560547 h 0.386719 c 0.134797,-0.336714 0.256914,-0.678371 0.361328,-1.029297 -0.05872,-0.01809 -0.1201,-0.0332 -0.189453,-0.0332 z m -8.595703,4.185546 c -0.279048,0 -0.558011,0.05664 -0.78125,0.05664 -0.334857,0.05581 -0.557764,0.334234 -0.501953,0.613281 0.05581,0.334858 0.278424,0.557764 0.613281,0.501953 0.223239,-0.05581 0.446684,-0.05469 0.669922,-0.05469 0.334858,0 0.669048,0.05551 1.003906,0.111328 h 0.22461 c 0.05581,0.05581 0.112157,0.111328 0.167968,0.111328 0.390667,0.111619 0.669048,0.223196 1.003906,0.390625 0.167429,0.111619 0.390044,0.169631 0.613282,0.28125 0.05581,0.05581 0.166845,0.05469 0.222656,0.05469 0.223239,0 0.446142,-0.1127 0.501953,-0.335938 0.167429,-0.279048 0.0017,-0.614943 -0.277344,-0.726562 -0.167429,-0.111619 -0.391164,-0.165725 -0.558593,-0.277344 -0.334858,-0.167428 -0.725399,-0.392287 -1.171875,-0.503906 h -0.279297 c -0.05581,-0.05581 -0.111038,-0.109375 -0.222656,-0.109375 -0.390668,-0.05581 -0.782039,-0.113282 -1.228516,-0.113282 z m -10.769531,0.05664 c -0.229843,0 -0.401363,0.110604 -0.490235,0.285156 0.25271,0.287608 0.518141,0.561927 0.796875,0.824219 0.317064,-0.01375 0.529297,-0.226709 0.529297,-0.550781 0,-0.279048 -0.223737,-0.558594 -0.558594,-0.558594 z m 2.072265,0.300781 c -0.217135,0.01308 -0.428004,0.159855 -0.511718,0.369141 -0.11162,0.279048 0.05689,0.61299 0.335937,0.724609 0.167428,0.111619 0.391166,0.167677 0.558594,0.279297 0.334858,0.167428 0.723447,0.390334 1.169922,0.501953 h 0.279297 c 0.05581,0.05581 0.111036,0.113282 0.222656,0.113282 0.390667,0.05581 0.782038,0.109374 1.228515,0.109374 0.279048,0 0.558012,0.0023 0.78125,-0.109374 0.334857,-0.05581 0.557763,-0.336188 0.501953,-0.615235 -0.05581,-0.334858 -0.278423,-0.557764 -0.613281,-0.501953 -0.223238,0.05581 -0.446684,0.05664 -0.669922,0.05664 -0.390667,0 -0.723735,-0.05748 -1.058593,-0.113282 h -0.22461 c -0.05581,-0.05581 -0.112157,-0.109375 -0.167968,-0.109375 -0.390668,-0.111619 -0.66905,-0.225149 -1.003907,-0.392578 -0.167429,-0.111619 -0.390043,-0.167678 -0.613281,-0.279297 -0.06976,-0.0279 -0.142466,-0.03757 -0.214844,-0.0332 z m 6.177735,0.214844 c -0.07238,8.71e-4 -0.145082,0.01506 -0.214844,0.04297 l -0.392578,0.222656 c -0.279047,0.111619 -0.388964,0.447515 -0.277344,0.726563 0.111619,0.223238 0.278713,0.333984 0.501953,0.333984 0.05581,0 0.111037,0.0011 0.222656,-0.05469 l 0.392578,-0.224609 c 0.279048,-0.111619 0.388963,-0.445561 0.277344,-0.724609 -0.08371,-0.209286 -0.292632,-0.324882 -0.509765,-0.322266 z m 7.541015,0.767578 c -0.279047,0 -0.55664,0.223736 -0.55664,0.558594 0,0.141788 0.05977,0.281781 0.160156,0.386719 0.363257,-0.253007 0.708499,-0.52782 1.041016,-0.81836 -0.09493,-0.0776 -0.215486,-0.126953 -0.363282,-0.126953 z"
       style="fill:url(#linearGradient1156);fill-opacity:1;stroke-width:1.00203454"
       inkscape:connector-curvature="0" />
  </g>
</svg>
