<?xml version="1.0" encoding="UTF-8" standalone="no"?>
<!-- Generator: Adobe Illustrator 18.1.1, SVG Export Plug-In . SVG Version: 6.00 Build 0)  -->

<svg
   xmlns:dc="http://purl.org/dc/elements/1.1/"
   xmlns:cc="http://creativecommons.org/ns#"
   xmlns:rdf="http://www.w3.org/1999/02/22-rdf-syntax-ns#"
   xmlns:svg="http://www.w3.org/2000/svg"
   xmlns="http://www.w3.org/2000/svg"
   xmlns:xlink="http://www.w3.org/1999/xlink"
   xmlns:sodipodi="http://sodipodi.sourceforge.net/DTD/sodipodi-0.dtd"
   xmlns:inkscape="http://www.inkscape.org/namespaces/inkscape"
   version="1.1"
   id="SVGRoot"
   inkscape:version="0.92.2 2405546, 2018-03-11"
   sodipodi:docname="preferences-desktop-peripherals.svg"
   x="0px"
   y="0px"
   viewBox="-51 53 48 48"
   enable-background="new -51 53 96 96"
   xml:space="preserve"
   width="48"
   height="48"><metadata
   id="metadata19"><rdf:RDF><cc:Work
       rdf:about=""><dc:format>image/svg+xml</dc:format><dc:type
         rdf:resource="http://purl.org/dc/dcmitype/StillImage" /><dc:title></dc:title></cc:Work></rdf:RDF></metadata><defs
   id="defs17"><linearGradient
     inkscape:collect="always"
     xlink:href="#linearGradient881"
     id="linearGradient883"
     x1="23.75"
     y1="44.125"
     x2="23.75"
     y2="10.5"
     gradientUnits="userSpaceOnUse"
     gradientTransform="matrix(1.0047609,0,0,1.0289305,1.2404786,-3.6380586)" /><linearGradient
     inkscape:collect="always"
     id="linearGradient881"><stop
       style="stop-color:#2e3e46;stop-opacity:1;"
       offset="0"
       id="stop877" /><stop
       style="stop-color:#425965;stop-opacity:1"
       offset="1"
       id="stop879" /></linearGradient><linearGradient
     gradientTransform="matrix(0.43650146,0,0,0.43650494,23.518431,-2.1928482)"
     gradientUnits="userSpaceOnUse"
     y2="43.022717"
     x2="35.706829"
     y1="39.531185"
     x1="30.768103"
     id="linearGradient1372-2"
     xlink:href="#linearGradient1370" /><linearGradient
     id="linearGradient1370"><stop
       style="stop-color:#696969;stop-opacity:1"
       offset="0"
       id="stop1366" /><stop
       style="stop-color:#a8a8a8;stop-opacity:1"
       offset="1"
       id="stop1368" /></linearGradient><linearGradient
     gradientTransform="matrix(0.43650271,0,0,0.4365037,17.525029,-15.836754)"
     gradientUnits="userSpaceOnUse"
     y2="46.568394"
     x2="54.367523"
     y1="46.430908"
     x1="48.095524"
     id="linearGradient1364-2"
     xlink:href="#linearGradient1362" /><linearGradient
     id="linearGradient1362"><stop
       style="stop-color:#181818;stop-opacity:1"
       offset="0"
       id="stop1358" /><stop
       style="stop-color:#646464;stop-opacity:1"
       offset="1"
       id="stop1360" /></linearGradient><filter
     style="color-interpolation-filters:sRGB"
     id="filter1128-5-3-0"
     x="-0.059892505"
     width="1.119785"
     y="-0.015006733"
     height="1.0300134"><feGaussianBlur
       stdDeviation="0.08499745"
       id="feGaussianBlur1130-6-5-9" /></filter><linearGradient
     gradientTransform="matrix(0.43650146,0,0,0.43650494,23.518431,-2.1928482)"
     gradientUnits="userSpaceOnUse"
     y2="20.272301"
     x2="51.591782"
     y1="19.516348"
     x1="46.189655"
     id="linearGradient1380-7"
     xlink:href="#linearGradient1378" /><linearGradient
     id="linearGradient1378"><stop
       style="stop-color:#111111;stop-opacity:1"
       offset="0"
       id="stop1374" /><stop
       style="stop-color:#5b5b5b;stop-opacity:1"
       offset="1"
       id="stop1376" /></linearGradient></defs>
<sodipodi:namedview
   inkscape:cy="24"
   inkscape:cx="24"
   inkscape:zoom="10.145833"
   showgrid="false"
   guidetolerance="10"
   gridtolerance="10"
   objecttolerance="10"
   borderopacity="1"
   bordercolor="#666666"
   pagecolor="#ffffff"
   id="namedview30"
   inkscape:current-layer="SVGRoot"
   inkscape:window-maximized="1"
   inkscape:window-y="0"
   inkscape:window-x="0"
   inkscape:window-height="699"
   inkscape:pageshadow="2"
   inkscape:pageopacity="0"
   inkscape:window-width="1366">
	</sodipodi:namedview>
<linearGradient
   id="circle866_1_"
   gradientUnits="userSpaceOnUse"
   x1="-120.0489"
   y1="168.09801"
   x2="-87.755096"
   y2="168.09801"
   gradientTransform="matrix(0,-1.4244,-1.4244,0,213.44245,-72.00025)">
	<stop
   offset="0"
   style="stop-color:#5C5C5C"
   id="stop3" />
	<stop
   offset="1"
   style="stop-color:#AEAEAE"
   id="stop5" />
</linearGradient>

<linearGradient
   id="circle882_1_"
   gradientUnits="userSpaceOnUse"
   x1="-68.711502"
   y1="189.1748"
   x2="-68.711502"
   y2="216.8949"
   gradientTransform="matrix(1.475,0,0,1.475,75.34785,-223.8454)">
	<stop
   offset="0"
   style="stop-color:#00FF72"
   id="stop9" />
	<stop
   offset="1"
   style="stop-color:#00FFCC"
   id="stop11" />
</linearGradient>


<g
   id="g969"
   transform="translate(-52.250001,55.57579)"><g
     id="g955"><rect
       rx="1.5040506"
       height="34"
       ry="1.5040507"
       width="44"
       x="3.2500002"
       y="7.4242587"
       id="rect15"
       style="fill:url(#linearGradient883);fill-opacity:1;stroke-width:1.20513976" /><rect
       rx="1.2566073"
       style="fill:#fafafa;fill-opacity:1;stroke-width:1.02720511"
       id="rect935"
       y="10.221062"
       x="6.1195645"
       width="38.260872"
       ry="1.2566073"
       height="28.406397" /><path
       style="color:#000000;font-style:normal;font-variant:normal;font-weight:normal;font-stretch:normal;font-size:medium;line-height:normal;font-family:sans-serif;font-variant-ligatures:normal;font-variant-position:normal;font-variant-caps:normal;font-variant-numeric:normal;font-variant-alternates:normal;font-feature-settings:normal;text-indent:0;text-align:start;text-decoration:none;text-decoration-line:none;text-decoration-style:solid;text-decoration-color:#000000;letter-spacing:normal;word-spacing:normal;text-transform:none;writing-mode:lr-tb;direction:ltr;text-orientation:mixed;dominant-baseline:auto;baseline-shift:baseline;text-anchor:start;white-space:normal;shape-padding:0;clip-rule:nonzero;display:inline;overflow:visible;visibility:visible;opacity:1;isolation:auto;mix-blend-mode:normal;color-interpolation:sRGB;color-interpolation-filters:linearRGB;solid-color:#000000;solid-opacity:1;vector-effect:none;fill:#0da2e5;fill-opacity:1;fill-rule:nonzero;stroke:none;stroke-width:1;stroke-linecap:round;stroke-linejoin:miter;stroke-miterlimit:4;stroke-dasharray:none;stroke-dashoffset:0;stroke-opacity:1;paint-order:stroke fill markers;color-rendering:auto;image-rendering:auto;shape-rendering:auto;text-rendering:auto;enable-background:accumulate"
       d="m 29.791452,14.187875 c -0.05222,0.0062 -0.08843,0.0185 -0.116341,0.02902 -0.111628,0.04202 -0.12918,0.0699 -0.156965,0.09248 -0.0278,0.02258 -0.04869,0.04263 -0.07017,0.06346 -0.0859,0.08337 -0.183569,0.191795 -0.319473,0.346357 -0.271808,0.309125 -0.674259,0.782124 -1.192945,1.374545 -2.074745,2.369686 -5.991235,6.639859 -10.23606,9.494876 -0.734584,0.494072 -1.070679,0.65986 -1.4681,0.877677 0.0401,-0.05591 0.02987,-0.05644 0.07387,-0.114243 0.364113,-0.478351 0.851381,-1.064894 1.373919,-1.679193 1.045075,-1.228598 2.225346,-2.564283 2.899264,-3.490762 0.168478,-0.231621 0.306632,-0.436766 0.408111,-0.625618 0.10148,-0.188852 0.218311,-0.33188 0.156967,-0.652819 -0.03067,-0.160468 -0.196003,-0.36328 -0.36564,-0.424332 -0.169636,-0.06106 -0.296263,-0.04291 -0.409959,-0.01994 -0.227393,0.04594 -0.442859,0.145968 -0.734971,0.301021 -1.070619,0.568283 -1.799832,0.827049 -2.145824,0.874051 -0.04321,0.0059 -0.01452,0.0036 -0.04247,0.0036 0.03799,-0.143842 0.167323,-0.473529 0.483826,-0.897624 0.352405,-0.472201 0.853803,-1.02072 1.427472,-1.555884 0.309729,-0.288938 0.485143,-0.413722 0.600167,-0.728979 0.02875,-0.07881 0.05665,-0.190342 0.0203,-0.331849 -0.03632,-0.141506 -0.157816,-0.273726 -0.262227,-0.330036 -0.208822,-0.11262 -0.324529,-0.08084 -0.435813,-0.07072 -0.445133,0.04046 -0.980845,0.232537 -1.543812,0.333663 -0.281482,0.05057 -0.554772,0.07747 -0.760825,0.06346 -0.206051,-0.01402 -0.323525,-0.06646 -0.37672,-0.116056 -0.05319,-0.0496 -0.106697,-0.123315 -0.09603,-0.384438 0.01067,-0.261121 0.111519,-0.680456 0.363793,-1.258487 a 0.47279336,0.46427259 0 1 0 -0.867921,-0.366279 c -0.279567,0.640564 -0.423402,1.149229 -0.441355,1.588525 -0.01795,0.439298 0.115981,0.838416 0.391493,1.095282 0.275513,0.256868 0.628014,0.345405 0.962113,0.368119 0.334097,0.02271 0.671129,-0.01792 0.995352,-0.07616 0.211238,-0.03795 0.280658,-0.05995 0.47644,-0.105176 -0.452546,0.450061 -0.899853,0.90745 -1.21326,1.327397 -0.39734,0.532413 -0.682932,0.977784 -0.720199,1.477908 -0.01863,0.250061 0.08484,0.579578 0.339787,0.748926 0.254962,0.169349 0.534943,0.175972 0.829152,0.136004 0.510391,-0.06934 1.251012,-0.399881 2.140285,-0.848664 -0.627765,0.852776 -1.768554,2.15687 -2.801391,3.371082 -0.526367,0.6188 -1.022449,1.211864 -1.407158,1.717273 -0.384709,0.505409 -0.662048,0.858068 -0.768212,1.278435 -0.02655,0.105091 -0.0509,0.233252 0.0073,0.400758 0.05828,0.167506 0.249781,0.326367 0.408114,0.366303 0.316664,0.07987 0.492225,-0.01737 0.740511,-0.121497 0.496577,-0.20823 1.210434,-0.633254 2.299098,-1.365477 3.450953,-2.321067 6.35192,-5.281084 8.568523,-7.69056 -2.786826,4.51979 -3.606793,8.107589 -3.636082,10.581093 -0.03063,2.587046 0.768212,4.031151 0.768212,4.031152 a 0.47280426,0.4642833 0 1 0 0.827306,-0.44972 c 0,0 -0.678485,-1.167167 -0.650026,-3.570552 0.02846,-2.403385 0.792735,-5.997867 3.826289,-10.695336 0.767818,-1.188969 1.329193,-2.051224 1.708165,-2.642099 0.189485,-0.295437 0.332511,-0.523284 0.435812,-0.692712 0.103301,-0.169429 0.157059,-0.233147 0.214214,-0.393505 0.01429,-0.04008 0.06468,-0.06365 0.0203,-0.272008 -0.01109,-0.05209 -0.08995,-0.191524 -0.09049,-0.192218 -5.46e-4,-6.95e-4 -0.226287,-0.157488 -0.22714,-0.157764 -8.53e-4,-2.76e-4 -0.156442,-0.02801 -0.208674,-0.02176 z"
       id="path871"
       inkscape:connector-curvature="0" /></g><g
     transform="matrix(0.9991149,0,0,0.9991149,1.2517715,-2.7816214)"
     id="g1195"
     style="stroke-width:1.00088584"><path
       inkscape:connector-curvature="0"
       style="opacity:1;fill:#000000;fill-opacity:0;stroke:none;stroke-width:0.21636289;stroke-miterlimit:4;stroke-dasharray:none"
       d="M 45.582444,4.3658323 C 45.194393,4.0779111 44.550169,4.1998126 43.712027,4.6320441 l 2.256809,1.5210795 c 0.09882,-0.9600248 -0.04398,-1.5332358 -0.386392,-1.7872913 z"
       id="path1183" /><path
       id="rect1010-3"
       d="M 43.924148,6.0550728 23.584793,33.267062 25.640524,34.803625 45.97988,7.5916348 c 0.294592,-1.921933 -0.531016,-2.232173 -2.055732,-1.536562 z"
       style="opacity:1;fill:url(#linearGradient1372-2);fill-opacity:1;stroke:none;stroke-width:0.19718631;stroke-miterlimit:4;stroke-dasharray:none"
       inkscape:connector-curvature="0" /><path
       id="rect1023-6"
       d="m 23.595102,33.254005 -0.01036,0.01306 c 0,0 -1.297194,2.715499 -0.727834,3.141069 0.569367,0.425575 2.779736,-1.59992 2.779736,-1.59992 l 0.01369,-0.01794 z"
       style="opacity:1;fill:#454545;fill-opacity:1;stroke:none;stroke-width:0.14704102;stroke-miterlimit:4;stroke-dasharray:none"
       inkscape:connector-curvature="0" /><rect
       rx="0.3156524"
       transform="matrix(0.80097825,0.59869345,-0.59868733,0.80098282,0,0)"
       ry="0.31565246"
       y="-3.648483"
       x="38.518856"
       height="16.157982"
       width="3.1439817"
       id="rect1056-0"
       style="opacity:1;fill:url(#linearGradient1364-2);fill-opacity:1;stroke:none;stroke-width:0.16013438;stroke-miterlimit:4;stroke-dasharray:none" /><rect
       rx="0.78844452"
       transform="matrix(0.80097825,0.59869345,-0.59868733,0.80098282,0,0)"
       ry="0.78844446"
       y="5.1550102"
       x="39.269672"
       height="6.1303749"
       width="1.6825123"
       id="rect1078-6"
       style="opacity:1;fill:#e6e6e6;fill-opacity:1;stroke:none;stroke-width:0.15465261;stroke-miterlimit:4;stroke-dasharray:none" /><path
       transform="matrix(0.34962917,0.26133132,-0.26132923,0.34963196,131.22313,23.137012)"
       id="path1088"
       d="m -180.63686,149.33481 c -1.06771,0 -1.92702,0.85931 -1.92702,1.92701 v 10.19008 c 0,0.59451 0.26677,1.12341 0.6873,1.4764 -0.2812,-0.33476 -0.45114,-0.76676 -0.45114,-1.24024 v -10.19007 c 0,-1.06771 0.85932,-1.92702 1.92702,-1.92702 0.47465,0 0.90772,0.17074 1.24282,0.45321 -0.35299,-0.42182 -0.88343,-0.68937 -1.47898,-0.68937 z"
       style="color:#000000;font-style:normal;font-variant:normal;font-weight:normal;font-stretch:normal;font-size:medium;line-height:normal;font-family:sans-serif;font-variant-ligatures:normal;font-variant-position:normal;font-variant-caps:normal;font-variant-numeric:normal;font-variant-alternates:normal;font-feature-settings:normal;text-indent:0;text-align:start;text-decoration:none;text-decoration-line:none;text-decoration-style:solid;text-decoration-color:#000000;letter-spacing:normal;word-spacing:normal;text-transform:none;writing-mode:lr-tb;direction:ltr;text-orientation:mixed;dominant-baseline:auto;baseline-shift:baseline;text-anchor:start;white-space:normal;shape-padding:0;clip-rule:nonzero;display:inline;overflow:visible;visibility:visible;opacity:1;isolation:auto;mix-blend-mode:normal;color-interpolation:sRGB;color-interpolation-filters:linearRGB;solid-color:#000000;solid-opacity:1;vector-effect:none;fill:#4d4c4d;fill-opacity:1;fill-rule:nonzero;stroke:none;stroke-width:1.43824494;stroke-linecap:butt;stroke-linejoin:miter;stroke-miterlimit:4;stroke-dasharray:none;stroke-dashoffset:0;stroke-opacity:1;filter:url(#filter1128-5-3-0);color-rendering:auto;image-rendering:auto;shape-rendering:auto;text-rendering:auto;enable-background:accumulate"
       inkscape:connector-curvature="0" /><path
       id="path1183-2"
       d="m 45.698658,5.8933678 c -0.351645,-0.288543 -0.962977,-0.203511 -1.770895,0.164406 l 2.052117,1.533861 c 0.137004,-0.898136 0.02906,-1.443663 -0.281222,-1.698267 z"
       style="opacity:1;fill:url(#linearGradient1380-7);fill-opacity:1;stroke:none;stroke-width:0.19718631;stroke-miterlimit:4;stroke-dasharray:none"
       inkscape:connector-curvature="0" /></g></g></svg>