<?xml version="1.0" encoding="UTF-8" standalone="no"?>
<svg
   xmlns:dc="http://purl.org/dc/elements/1.1/"
   xmlns:cc="http://creativecommons.org/ns#"
   xmlns:rdf="http://www.w3.org/1999/02/22-rdf-syntax-ns#"
   xmlns:svg="http://www.w3.org/2000/svg"
   xmlns="http://www.w3.org/2000/svg"
   xmlns:xlink="http://www.w3.org/1999/xlink"
   xmlns:sodipodi="http://sodipodi.sourceforge.net/DTD/sodipodi-0.dtd"
   xmlns:inkscape="http://www.inkscape.org/namespaces/inkscape"
   id="svg43"
   version="1.1"
   width="48"
   height="48"
   sodipodi:docname="preferences-desktop-font.svg"
   inkscape:version="0.92.2 2405546, 2018-03-11">
  <sodipodi:namedview
     pagecolor="#ffffff"
     bordercolor="#666666"
     borderopacity="1"
     objecttolerance="10"
     gridtolerance="10"
     guidetolerance="10"
     inkscape:pageopacity="0"
     inkscape:pageshadow="2"
     inkscape:window-width="1366"
     inkscape:window-height="699"
     id="namedview38"
     showgrid="false"
     inkscape:zoom="4.9166667"
     inkscape:cx="24"
     inkscape:cy="24"
     inkscape:window-x="0"
     inkscape:window-y="0"
     inkscape:window-maximized="1"
     inkscape:current-layer="svg43" />
  <metadata
     id="metadata49">
    <rdf:RDF>
      <cc:Work
         rdf:about="">
        <dc:format>image/svg+xml</dc:format>
        <dc:type
           rdf:resource="http://purl.org/dc/dcmitype/StillImage" />
        <dc:title />
      </cc:Work>
    </rdf:RDF>
  </metadata>
  <defs
     id="defs47">
    <linearGradient
       id="linearGradient886">
      <stop
         style="stop-color:#ececec;stop-opacity:1"
         offset="0"
         stop-color="#dcdfe0"
         id="stop882" />
      <stop
         offset="1"
         stop-color="#fefeff"
         id="stop884"
         style="stop-color:#ffffff;stop-opacity:1" />
    </linearGradient>
    <linearGradient
       id="linearGradient878">
      <stop
         id="stop874"
         offset="0"
         style="stop-color:#ededed;stop-opacity:1" />
      <stop
         id="stop876"
         offset="1"
         style="stop-color:#adadad;stop-opacity:1" />
    </linearGradient>
    <linearGradient
       gradientUnits="userSpaceOnUse"
       y2="47.363766"
       x2="23.998451"
       y1="0.50001007"
       x1="23.998451"
       id="linearGradient880"
       xlink:href="#linearGradient878" />
    <linearGradient
       xlink:href="#a-3"
       id="linearGradient991"
       x1="24.049976"
       y1="45.427723"
       x2="23.499022"
       y2="14.205187"
       gradientUnits="userSpaceOnUse"
       gradientTransform="matrix(0.26458333,0,0,0.26458333,0.01815154,284.27625)" />
    <linearGradient
       id="a-3"
       gradientTransform="matrix(1.0749904,0,0,1.1792904,57.227964,-9.7964761)"
       gradientUnits="userSpaceOnUse"
       x1="-74.929466"
       x2="-75.259552"
       y1="52.199436"
       y2="2.3564889">
      <stop
         offset="0"
         stop-color="#ffa400"
         id="stop2-6" />
      <stop
         offset="1"
         stop-color="#fd0"
         id="stop4-7" />
    </linearGradient>
    <linearGradient
       gradientTransform="matrix(0.26458333,0,0,0.26458333,-6.9238017,-2.1224635)"
       xlink:href="#a-3"
       id="linearGradient991-3"
       x1="24.049976"
       y1="45.427723"
       x2="23.499022"
       y2="14.205187"
       gradientUnits="userSpaceOnUse" />
    <linearGradient
       y2="518.13873"
       y1="545.13873"
       x2="399.9939"
       x1="399.9939"
       gradientUnits="userSpaceOnUse"
       id="b-3">
      <stop
         id="stop7-6"
         stop-color="#197ff1"
         offset="0" />
      <stop
         id="stop9-7"
         stop-color="#21c6fb"
         offset="1" />
    </linearGradient>
    <linearGradient
       y2="517.79797"
       y1="545.79797"
       x2="399.57144"
       x1="399.57144"
       gradientUnits="userSpaceOnUse"
       id="a-5">
      <stop
         id="stop2-3"
         stop-color="#3889e9"
         offset="0" />
      <stop
         id="stop4-5"
         stop-color="#5ea5fb"
         offset="1" />
    </linearGradient>
  </defs>
  <linearGradient
     gradientTransform="matrix(1.6041596,0,0,1.6040528,-619.40311,-828.77499)"
     y2="517.476513"
     y1="546.476453"
     x2="404.889375"
     x1="404.889375"
     gradientUnits="userSpaceOnUse"
     id="a">
    <stop
       id="stop2"
       stop-color="#00cafe"
       offset="0" />
    <stop
       id="stop4"
       stop-color="#1460f3"
       offset="1" />
  </linearGradient>
  <linearGradient
     gradientTransform="matrix(1.6041596,0,0,1.6040528,-619.40311,-828.77499)"
     y2="517.797993"
     y1="545.797993"
     x2="400.571445"
     x1="400.571445"
     gradientUnits="userSpaceOnUse"
     id="b">
    <stop
       id="stop7"
       stop-color="#e3e3e3"
       offset="0" />
    <stop
       id="stop9"
       stop-color="#fcf9f9"
       offset="1" />
  </linearGradient>
  <linearGradient
     gradientTransform="matrix(1.642862,0,0,1.6428621,-687.45589,-846.7097)"
     y2="518.50586"
     y1="544.8963"
     x2="400.78711"
     x1="400.43274"
     gradientUnits="userSpaceOnUse"
     id="c">
    <stop
       id="stop12"
       stop-color="#333"
       offset="0"
       style="stop-color:#171717;stop-opacity:1" />
    <stop
       style="stop-color:#4f4f4f;stop-opacity:1"
       id="stop14"
       stop-color="#4d4d4d"
       offset="1" />
  </linearGradient>
  <linearGradient
     gradientTransform="matrix(1.6041596,0,0,1.6040528,-619.40311,-828.77499)"
     y2="517.797993"
     y1="545.797993"
     x2="400.571445"
     x1="400.571445"
     gradientUnits="userSpaceOnUse"
     id="d">
    <stop
       id="stop17"
       stop-color="#d3d3d3"
       offset="0" />
    <stop
       id="stop19"
       stop-color="#fcf9f9"
       offset="1" />
  </linearGradient>
  <linearGradient
     id="e">
    <stop
       id="stop22"
       stop-color="#dcdfe0"
       offset="0" />
    <stop
       id="stop24"
       stop-color="#fefeff"
       offset="1" />
  </linearGradient>
  <linearGradient
     gradientTransform="matrix(1.6041596,0,0,1.6040528,-668.14838,-818.87984)"
     y2="524.59662"
     y1="539.15057"
     xlink:href="#linearGradient886"
     x2="402.0788"
     x1="401.65936"
     gradientUnits="userSpaceOnUse"
     id="f" />
  <linearGradient
     gradientTransform="matrix(1.5700286,0,0,1.5699241,-605.24874,-811.09843)"
     y2="517.394395419478"
     y1="546.476130480766"
     xlink:href="#e"
     x2="404.942300554954"
     x1="404.942300554954"
     gradientUnits="userSpaceOnUse"
     id="g" />
  <circle
     cx="23.458265"
     cy="24.543425"
     r="0"
     id="circle31"
     style="fill:url(#b);stroke:url(#a);stroke-width:1.60410619" />
  <circle
     cx="23.458168"
     cy="24.543327"
     r="0"
     id="circle33"
     style="fill:url(#d);stroke-width:1.60410619" />
  <text
     id="text847"
     y="35.053997"
     x="-38.508972"
     style="font-style:normal;font-variant:normal;font-weight:normal;font-stretch:normal;font-size:40px;line-height:1.25;font-family:'xos4 Terminus';-inkscape-font-specification:'xos4 Terminus';letter-spacing:0px;word-spacing:0px;fill:#000000;fill-opacity:1;stroke:none"
     xml:space="preserve"><tspan
       style="font-style:normal;font-variant:normal;font-weight:normal;font-stretch:normal;font-family:FZYaoTi-M06;-inkscape-font-specification:FZYaoTi-M06"
       y="70.444618"
       x="-38.508972"
       id="tspan845" /></text>
  <text
     id="text851"
     y="52.748913"
     x="-49.085243"
     style="font-style:normal;font-variant:normal;font-weight:normal;font-stretch:normal;font-size:40px;line-height:1.25;font-family:'xos4 Terminus';-inkscape-font-specification:'xos4 Terminus';letter-spacing:0px;word-spacing:0px;fill:#000000;fill-opacity:1;stroke:none"
     xml:space="preserve"><tspan
       y="88.139534"
       x="-49.085243"
       id="tspan849" /></text>
  <g
     id="g18"
     transform="matrix(1.6428584,0,0,1.6428584,-634.08211,-849.66872)"
     style="stroke-width:1.29999995;enable-background:new">
    <circle
       id="circle12"
       r="13.999958"
       cy="531.79791"
       cx="400.57138"
       style="fill:url(#b-3)" />
    <circle
       id="circle14"
       r="13.999958"
       cy="531.79797"
       cx="400.57144"
       style="fill:none" />
    <circle
       id="circle16"
       r="0"
       cy="531.79791"
       cx="400.57138"
       style="fill:url(#a-5)" />
  </g>
  <g
     id="text855-3"
     style="font-style:normal;font-variant:normal;font-weight:normal;font-stretch:normal;font-size:35.30285645px;line-height:1.25;font-family:'xos4 Terminus';-inkscape-font-specification:'xos4 Terminus';letter-spacing:0px;word-spacing:0px;fill:#f9f9f9;fill-opacity:1;stroke:none;stroke-width:1.35879219"
     aria-label="字"
     transform="matrix(0.73594768,0,0,0.73594768,6.3372545,6.3372515)">
    <path
       id="path844"
       style="font-style:normal;font-variant:normal;font-weight:normal;font-stretch:normal;font-family:FZXingKai-S04;-inkscape-font-specification:FZXingKai-S04;fill:#f9f9f9;stroke-width:1.35879219"
       d="m 20.182877,8.6398659 q -0.137902,-0.2758036 0,-0.2758036 0,-0.1379018 0.275804,-0.1379018 3.447544,0.1379018 6.343482,2.4822325 2.206428,0 4.68866,0 4.412857,0.413705 4.688661,3.447544 0.413705,1.103214 -2.620134,1.792723 -1.930625,0.551608 -4.964464,1.792724 1.792723,1.654821 0.275803,3.171741 -0.965312,0.82741 -2.206428,2.758035 0.827411,0.551607 1.654821,1.51692 1.654822,-0.689509 3.86125,1.379018 1.241116,2.206428 -0.689509,2.620134 -0.965312,-0.137902 -1.930625,0.275803 0.413706,7.7225 -3.309642,9.791027 -1.379018,0.965312 -2.206429,0.137901 -0.137902,-0.137901 -0.965312,-0.689508 -0.413706,-0.137902 -0.551608,-0.275804 -2.206428,-0.827411 -3.86125,-2.895937 -0.413705,-0.827411 -0.965312,-1.379018 -0.827411,-0.551607 -1.103214,-2.206429 0.137901,-1.516919 1.241116,-2.482232 1.654821,-1.241116 3.309643,-1.930625 0.82741,-0.275803 1.654821,-0.827411 -0.689509,-0.965312 -0.275804,-3.033839 0.275804,-1.379018 1.241116,-1.379018 1.103215,-0.137901 2.344331,-2.482232 0.137902,-0.413705 0.137902,-0.551607 -0.137902,-0.137902 -0.413706,0 -1.103214,0.827411 -1.930625,1.241116 -1.241116,0.551607 -1.792723,1.103214 -0.965312,0.551608 -2.34433,1.103215 -0.137902,0.137902 -0.275804,0.137902 -0.827411,0.137901 -0.689509,-0.551608 0,-1.103214 0.413706,-2.068526 0.137901,-0.689509 0.551607,-0.827411 0,0 0.137901,0 0.689509,-0.137902 1.792724,-0.689509 3.86125,-2.068527 4.550759,-1.930625 4.412857,-2.206428 6.067678,-4.137053 0.275804,-0.275804 0.137902,-0.413706 -0.137902,-0.137902 -0.551607,0 -3.585447,0.137902 -3.999152,1.241116 -0.137902,1.51692 -0.827411,1.792723 -0.413705,0.137902 -0.965312,0.827411 -0.827411,0.827411 -3.033839,-1.103214 -2.068527,0.827411 -3.723349,0.413705 -2.482232,-0.413705 -3.309642,0.965313 0,1.930625 -0.551608,3.447544 -0.551607,1.103215 -0.965312,2.758036 -0.137902,0.275804 -0.137902,0.551607 -0.413705,1.103214 -0.689509,1.654821 -0.413705,0.413706 -0.965312,-0.275803 -0.827411,-1.241116 -0.965313,-2.620134 0,-0.965312 0.413706,-1.654821 2.34433,-4.274956 1.516919,-6.343482 -0.137902,-0.413706 0.137902,-0.551608 0.275804,-0.137901 0.551607,0.137902 0.275804,0.275804 0.689509,0.965313 0.413705,0.689509 0.551607,0.965312 2.758036,-2.068527 6.343482,-3.585446 0.275804,-0.137902 -0.137902,-0.689509 -0.689508,-0.827411 -1.654821,-2.4822321 z m 6.619286,19.9957581 q 0.137901,-0.413705 -0.137902,-0.551607 -0.137902,-0.137902 -0.551607,0.137902 -1.241116,0.413705 -3.171741,1.654821 -1.930625,1.241117 -3.86125,2.344331 -0.965313,0.82741 -0.137902,1.792723 1.654821,1.51692 3.309643,1.930625 2.758035,0.413705 3.585446,-0.551607 1.379018,-2.482232 1.103214,-5.37817 -0.275803,0 -0.82741,0.137902 -0.551607,0 -0.689509,0 -0.413706,0 -0.551607,-0.137902 0,-0.137902 0.413705,-0.275803 0.827411,-0.413706 1.51692,-1.103215 z"
       inkscape:connector-curvature="0" />
  </g>
  <g
     transform="translate(-79.253434,-4.7676752)"
     id="layer2-5"
     style="display:inline" />
  <g
     transform="translate(-79.253434,-4.7676752)"
     id="layer1-3"
     style="display:inline" />
</svg>
