<?xml version="1.0" encoding="UTF-8" standalone="no"?>
<svg
   xmlns:dc="http://purl.org/dc/elements/1.1/"
   xmlns:cc="http://creativecommons.org/ns#"
   xmlns:rdf="http://www.w3.org/1999/02/22-rdf-syntax-ns#"
   xmlns:svg="http://www.w3.org/2000/svg"
   xmlns="http://www.w3.org/2000/svg"
   xmlns:xlink="http://www.w3.org/1999/xlink"
   xmlns:sodipodi="http://sodipodi.sourceforge.net/DTD/sodipodi-0.dtd"
   xmlns:inkscape="http://www.inkscape.org/namespaces/inkscape"
   id="svg21"
   height="48"
   version="1.1"
   width="48"
   sodipodi:docname="preferences-desktop-baloo.svg"
   inkscape:version="0.92.2 2405546, 2018-03-11">
  <sodipodi:namedview
     pagecolor="#ffffff"
     bordercolor="#666666"
     borderopacity="1"
     objecttolerance="10"
     gridtolerance="10"
     guidetolerance="10"
     inkscape:pageopacity="0"
     inkscape:pageshadow="2"
     inkscape:window-width="1366"
     inkscape:window-height="699"
     id="namedview22"
     showgrid="false"
     inkscape:zoom="7.375"
     inkscape:cx="4.3389832"
     inkscape:cy="15.728814"
     inkscape:window-x="0"
     inkscape:window-y="0"
     inkscape:window-maximized="1"
     inkscape:current-layer="svg21" />
  <defs
     id="defs5455">
    <linearGradient
       id="linearGradient863">
      <stop
         id="stop859"
         offset="0"
         style="stop-color:#a5a5a5;stop-opacity:1" />
      <stop
         id="stop861"
         offset="1"
         style="stop-color:#dbdbdb;stop-opacity:1" />
    </linearGradient>
    <linearGradient
       id="linearGradient822">
      <stop
         id="stop818"
         offset="0"
         style="stop-color:#0652ff;stop-opacity:1" />
      <stop
         id="stop820"
         offset="1"
         style="stop-color:#1b99ff;stop-opacity:1" />
    </linearGradient>
    <linearGradient
       gradientTransform="matrix(2.4445151,0,0,2.4445151,-974.7584,-1256.4318)"
       gradientUnits="userSpaceOnUse"
       x2="406.56763"
       y2="514.79797"
       y1="532.612"
       id="c"
       x1="411.66486">
      <stop
         id="stop12"
         stop-color="#7cbaf8"
         style="stop-color:#2e89fc;stop-opacity:1" />
      <stop
         id="stop14"
         stop-color="#f4fcff"
         offset="1"
         style="stop-color:#42f2ff;stop-opacity:1" />
    </linearGradient>
    <linearGradient
       gradientTransform="matrix(0.48669328,0,0,0.48669328,12.319359,9.1232256)"
       gradientUnits="userSpaceOnUse"
       y2="2.4374466"
       x2="26.10714"
       y1="45.762711"
       x1="26.10714"
       id="linearGradient824"
       xlink:href="#linearGradient822" />
    <linearGradient
       gradientUnits="userSpaceOnUse"
       y2="545.22168"
       x2="400.55444"
       y1="517.83185"
       x1="400.55444"
       id="linearGradient865"
       xlink:href="#linearGradient863" />
    <linearGradient
       inkscape:collect="always"
       xlink:href="#linearGradient863"
       id="linearGradient829"
       gradientUnits="userSpaceOnUse"
       x1="400.55444"
       y1="517.83185"
       x2="400.55444"
       y2="545.22168" />
  </defs>
  <metadata
     id="metadata5458">
    <rdf:RDF>
      <cc:Work
         rdf:about="">
        <dc:format>image/svg+xml</dc:format>
        <dc:type
           rdf:resource="http://purl.org/dc/dcmitype/StillImage" />
        <dc:title />
      </cc:Work>
    </rdf:RDF>
  </metadata>
  <g
     id="g844"
     transform="translate(-4.4649e-6,-3.3772e-6)">
    <g
       style="fill:url(#linearGradient865);fill-opacity:1;stroke-width:0.64168882"
       transform="matrix(1.5454552,0,0,-1.5714286,-595.06511,859.68259)"
       id="g832">
      <path
         style="fill:url(#linearGradient829);fill-opacity:1;stroke-width:0.64168882"
         id="rect4144"
         d="m 389.57138,517.798 v 28 h 21.99999 v -21 l -6.99999,-7 z"
         inkscape:connector-curvature="0" />
      <path
         style="fill:#333333;fill-opacity:1;fill-rule:evenodd;stroke-width:0.64168882"
         id="path4164"
         d="m 411.57137,524.798 -6.99999,-7 v 7 z"
         inkscape:connector-curvature="0" />
    </g>
    <g
       transform="translate(4.4649117e-6)"
       id="g836">
      <path
         inkscape:connector-curvature="0"
         d="m 21.616324,10.096443 a 8.3235872,8.3235862 0 0 0 -8.323575,8.323575 8.3235872,8.3235862 0 0 0 8.323575,8.323606 8.3235872,8.3235862 0 0 0 4.976981,-1.665196 l 6.432863,6.432863 1.681083,-1.681083 -6.432863,-6.432879 a 8.3235872,8.3235862 0 0 0 1.66518,-4.976965 8.3235872,8.3235862 0 0 0 -8.32359,-8.323575 m 0,2.378169 a 5.9454198,5.9454189 0 0 1 5.945421,5.945406 5.9454198,5.9454189 0 0 1 -0.03017,0.59455 5.9454198,5.9454189 0 0 1 -0.959169,2.680087 5.9454198,5.9454189 0 0 1 -1.681428,1.681428 5.9454198,5.9454189 0 0 1 -0.452886,0.269406 5.9454198,5.9454189 0 0 1 -0.05799,0.03489 5.9454198,5.9454189 0 0 1 -0.01257,0.0047 5.9454198,5.9454189 0 0 1 -0.527183,0.243854 5.9454198,5.9454189 0 0 1 -0.517911,0.181155 5.9454198,5.9454189 0 0 1 -0.04416,0.01634 5.9454198,5.9454189 0 0 1 -0.0079,0.0031 5.9454198,5.9454189 0 0 1 -0.541121,0.127757 5.9454198,5.9454189 0 0 1 -0.03017,0.0079 5.9454198,5.9454189 0 0 1 -0.0047,0 5.9454198,5.9454189 0 0 1 -0.436606,0.0605 5.9454198,5.9454189 0 0 1 -0.176502,0.02326 5.9454198,5.9454189 0 0 1 -0.466825,0.01854 5.9454198,5.9454189 0 0 1 -5.945421,-5.945406 5.9454198,5.9454189 0 0 1 0.03017,-0.59455 5.9454198,5.9454189 0 0 1 2.703329,-4.407967 5.9454198,5.9454189 0 0 1 1.056691,-0.538796 5.9454198,5.9454189 0 0 1 2.155215,-0.404109"
         id="path27"
         style="fill:url(#linearGradient824);fill-opacity:1;stroke-width:1.30000007" />
      <path
         inkscape:connector-curvature="0"
         id="path847"
         d="m 19.418445,14.354119 a 4.9686192,4.9686192 0 0 0 -2.375859,5.311476 6.8196733,6.8196733 0 0 1 3.32101,-4.84385 6.8196733,6.8196733 0 0 1 3.036535,-0.896484 4.9686192,4.9686192 0 0 0 -3.981686,0.428858 z"
         style="opacity:1;fill:#1689ff;fill-opacity:1;stroke:none;stroke-width:1.625;stroke-miterlimit:4;stroke-dasharray:none;stroke-opacity:1" />
    </g>
  </g>
</svg>
