<?xml version="1.0" encoding="UTF-8" standalone="no"?>
<!-- Generator: Adobe Illustrator 18.1.1, SVG Export Plug-In . SVG Version: 6.00 Build 0)  -->

<svg
   xmlns:dc="http://purl.org/dc/elements/1.1/"
   xmlns:cc="http://creativecommons.org/ns#"
   xmlns:rdf="http://www.w3.org/1999/02/22-rdf-syntax-ns#"
   xmlns:svg="http://www.w3.org/2000/svg"
   xmlns="http://www.w3.org/2000/svg"
   xmlns:xlink="http://www.w3.org/1999/xlink"
   xmlns:sodipodi="http://sodipodi.sourceforge.net/DTD/sodipodi-0.dtd"
   xmlns:inkscape="http://www.inkscape.org/namespaces/inkscape"
   version="1.1"
   id="SVGRoot"
   inkscape:version="0.92.2 2405546, 2018-03-11"
   sodipodi:docname="preferences-system.svg"
   x="0px"
   y="0px"
   viewBox="-51 53 48 48"
   enable-background="new -51 53 96 96"
   xml:space="preserve"
   width="48"
   height="48"><metadata
   id="metadata19"><rdf:RDF><cc:Work
       rdf:about=""><dc:format>image/svg+xml</dc:format><dc:type
         rdf:resource="http://purl.org/dc/dcmitype/StillImage" /><dc:title></dc:title></cc:Work></rdf:RDF></metadata><defs
   id="defs17"><linearGradient
     id="linearGradient4232"><stop
       style="stop-color:#3889e9;stop-opacity:1"
       offset="0"
       id="stop4234-0" /><stop
       style="stop-color:#5ea5fb;stop-opacity:1"
       offset="1"
       id="stop4236" /></linearGradient><linearGradient
     y2="12.945999"
     y1="364.75723"
     x2="183.32736"
     x1="197.88585"
     gradientUnits="userSpaceOnUse"
     id="a-69"><stop
       style="stop-color:#2b87f2;stop-opacity:1"
       id="stop2-3"
       stop-color="#197cf1"
       offset="0" /><stop
       id="stop4-7-7"
       stop-color="#20bcfa"
       offset="1" /></linearGradient><linearGradient
     xlink:href="#linearGradient923"
     id="linearGradient925"
     x1="24.138405"
     y1="35.79874"
     x2="24.276943"
     y2="6.2055192"
     gradientUnits="userSpaceOnUse"
     gradientTransform="matrix(1.9583333,0,0,1.9583333,0.99997717,-50.916671)" /><linearGradient
     id="linearGradient923"><stop
       style="stop-color:#2f4e6d;stop-opacity:1;"
       offset="0"
       id="stop919" /><stop
       style="stop-color:#3b6289;stop-opacity:1"
       offset="1"
       id="stop921" /></linearGradient><linearGradient
     inkscape:collect="always"
     xlink:href="#linearGradient4627"
     id="linearGradient915"
     gradientUnits="userSpaceOnUse"
     x1="24.414061"
     y1="33.229767"
     x2="24.414061"
     y2="8.2697573" /><linearGradient
     id="linearGradient4627"><stop
       id="stop4623"
       offset="0"
       style="stop-color:#c1cede;stop-opacity:1;" /><stop
       id="stop4625"
       offset="1"
       style="stop-color:#c1e9e4;stop-opacity:1" /></linearGradient><linearGradient
     inkscape:collect="always"
     xlink:href="#linearGradient4627"
     id="linearGradient1029"
     gradientUnits="userSpaceOnUse"
     x1="24.414061"
     y1="33.229767"
     x2="24.414061"
     y2="8.2697573" /><linearGradient
     inkscape:collect="always"
     xlink:href="#linearGradient4627"
     id="linearGradient1031"
     gradientUnits="userSpaceOnUse"
     x1="24.414061"
     y1="33.229767"
     x2="24.414061"
     y2="8.2697573" /></defs>
<sodipodi:namedview
   inkscape:cy="24.000001"
   inkscape:cx="24.000001"
   inkscape:zoom="10.145833"
   showgrid="false"
   guidetolerance="10"
   gridtolerance="10"
   objecttolerance="10"
   borderopacity="1"
   bordercolor="#666666"
   pagecolor="#ffffff"
   id="namedview30"
   inkscape:current-layer="SVGRoot"
   inkscape:window-maximized="1"
   inkscape:window-y="0"
   inkscape:window-x="0"
   inkscape:window-height="699"
   inkscape:pageshadow="2"
   inkscape:pageopacity="0"
   inkscape:window-width="1366">
	</sodipodi:namedview>
<linearGradient
   id="circle866_1_"
   gradientUnits="userSpaceOnUse"
   x1="-120.0489"
   y1="168.09801"
   x2="-87.755096"
   y2="168.09801"
   gradientTransform="matrix(0,-1.4244,-1.4244,0,213.44245,-72.00025)">
	<stop
   offset="0"
   style="stop-color:#5C5C5C"
   id="stop3" />
	<stop
   offset="1"
   style="stop-color:#AEAEAE"
   id="stop5" />
</linearGradient>

<linearGradient
   id="circle882_1_"
   gradientUnits="userSpaceOnUse"
   x1="-68.711502"
   y1="189.1748"
   x2="-68.711502"
   y2="216.8949"
   gradientTransform="matrix(1.475,0,0,1.475,75.34785,-223.8454)">
	<stop
   offset="0"
   style="stop-color:#00FF72"
   id="stop9" />
	<stop
   offset="1"
   style="stop-color:#00FFCC"
   id="stop11" />
</linearGradient>


<g
   id="g923"
   transform="matrix(0.46808511,0,0,0.46808511,-49.468085,76.999999)"
   style="stroke-width:2.13636351"><path
     inkscape:connector-curvature="0"
     style="opacity:1;fill:#999999;fill-opacity:1;stroke:none;stroke-width:5.98181772;stroke-miterlimit:4;stroke-dasharray:none;stroke-opacity:0.55026455"
     d="m 36.249977,21.541662 v 13.708336 3.916666 3.916667 h 23.5 V 39.166664 35.249998 21.541662 Z"
     id="rect4254" /><rect
     style="opacity:1;fill:#4d4d4d;fill-opacity:1;stroke:none;stroke-width:5.98181772;stroke-miterlimit:4;stroke-dasharray:none;stroke-opacity:0.55026455"
     id="rect4173"
     width="94"
     height="70.499992"
     x="1.0000001"
     y="-43.083328" /><rect
     style="opacity:1;fill:#797474;fill-opacity:1;stroke:none;stroke-width:5.98181772;stroke-miterlimit:4;stroke-dasharray:none;stroke-opacity:0.55026455"
     id="rect4295"
     width="43.083332"
     height="1.9582818"
     x="26.458334"
     y="41.124939" /><path
     inkscape:connector-curvature="0"
     style="opacity:0.75;fill:#dfdfdf;fill-opacity:1;fill-rule:evenodd;stroke:none;stroke-width:2.13636351"
     id="path3072"
     d="m 49.958311,23.499996 a 1.9583333,1.9583333 0 0 1 -1.958334,1.958333 1.9583333,1.9583333 0 0 1 -1.958333,-1.958333 1.9583333,1.9583333 0 0 1 1.958333,-1.958334 1.9583333,1.9583333 0 0 1 1.958334,1.958334 z" /><rect
     style="opacity:1;fill:url(#linearGradient925);fill-opacity:1;stroke:none;stroke-width:1.56329;stroke-opacity:1"
     id="rect4228"
     width="83.915375"
     height="58.193047"
     x="6.2498317"
     y="-38.784447"
     ry="0" /><g
     transform="matrix(1.5319421,0,0,1.5319421,10.767666,-40.168102)"
     id="g1013"
     style="fill:#c1cede;fill-opacity:1;stroke-width:1.09090912"><path
       inkscape:connector-curvature="0"
       id="path835-2"
       d="m 34.127668,8.1736566 c -0.443427,0.086298 -0.935449,0.2934132 -1.28776,0.546554 -0.194379,0.1323236 -1.876971,1.6971944 -3.747868,3.4691804 l -3.389482,3.221792 0.127561,0.166842 c 0.07289,0.09205 0.297643,0.310673 0.50417,0.477516 l 0.364461,0.30492 3.596009,-3.405895 c 3.267995,-3.0894686 3.608158,-3.4001414 3.790388,-3.4001414 0.255123,0 0.437353,0.172596 0.437353,0.4142304 0,0.166843 -0.334089,0.500529 -3.596009,3.59575 l -3.602084,3.411648 0.54669,0.517788 0.546691,0.517788 3.614232,-3.423154 c 2.690933,-2.548668 3.650679,-3.423154 3.753943,-3.423154 0.170081,0 0.498095,0.293413 0.498095,0.442996 0,0.05753 -1.506436,1.530352 -3.626381,3.538218 l -3.632455,3.440414 0.50417,0.471762 0.498096,0.477516 3.523117,-3.336856 C 35.494394,14.3641 37.158763,12.741698 37.255953,12.597868 37.839089,11.746394 37.88161,10.578495 37.365291,9.652229 37.128392,9.2379986 36.59385,8.7202106 36.17472,8.501589 35.573361,8.1909162 34.741176,8.0585926 34.127668,8.1736566 Z"
       style="fill:url(#linearGradient1029);fill-opacity:1;stroke:none;stroke-width:0.00644902" /><path
       inkscape:connector-curvature="0"
       id="path837-9"
       d="m 16.329851,8.2369418 c -0.394832,0.074792 -1.245239,0.3394388 -1.245239,0.3854644 0,0.023013 0.850407,0.8457204 1.88912,1.8237648 1.227016,1.156393 1.93164,1.864037 2.004532,2.01362 0.145784,0.299166 0.145784,0.793942 0,1.093108 -0.151859,0.30492 -1.968086,2.007867 -2.265729,2.128684 -0.267271,0.103558 -0.637806,0.109311 -0.984043,0.01726 -0.206528,-0.05753 -0.558839,-0.356699 -2.174614,-1.875544 -1.88912,-1.777738 -1.925566,-1.812258 -1.986309,-1.662674 -0.230825,0.569566 -0.27942,0.891746 -0.27942,1.881296 0,0.874486 0.01822,1.070095 0.13971,1.495832 0.285494,0.98955 0.78359,1.812258 1.561106,2.577434 0.783589,0.782435 1.706889,1.300223 2.842791,1.599389 0.467724,0.126571 0.710697,0.155337 1.524659,0.172596 l 0.971894,0.01726 6.772889,6.409065 c 5.211784,4.930492 6.85793,6.449337 7.113053,6.587414 0.807887,0.419983 1.949863,0.55806 2.75775,0.333685 2.259654,-0.632852 3.340887,-2.939885 2.302175,-4.895973 -0.08504,-0.16109 -0.285494,-0.442996 -0.449501,-0.632852 -0.157933,-0.189856 -3.195103,-3.089468 -6.742518,-6.443584 l -6.450949,-6.098392 -0.01215,-1.064342 c -0.0061,-0.909006 -0.03037,-1.127627 -0.145784,-1.524598 C 22.847618,10.48069 21.304736,8.9848578 19.124048,8.3692654 18.650249,8.2369418 18.449796,8.213929 17.605463,8.1966694 17.070921,8.185163 16.499933,8.2081758 16.329851,8.2369418 Z M 35.008447,28.442181 c 1.415321,0.667371 1.354578,2.542914 -0.115412,3.210285 -0.413056,0.189856 -1.075159,0.184103 -1.530734,-0.01726 -1.251314,-0.546554 -1.506436,-2.065399 -0.485947,-2.939886 0.625657,-0.535047 1.348503,-0.621345 2.132093,-0.25314 z"
       style="fill:url(#linearGradient1031);fill-opacity:1;stroke:none;stroke-width:0.00644902" /><path
       inkscape:connector-curvature="0"
       id="path839-1"
       d="m 18.127856,25.283674 -2.022755,1.915815 -0.850408,0.166843 c -0.467724,0.09205 -0.86863,0.178349 -0.899002,0.195609 -0.06682,0.04603 -3.170805,4.504756 -3.201177,4.60256 -0.01215,0.05178 0.218676,0.316426 0.570988,0.644358 l 0.595285,0.558061 2.399364,-1.495832 c 1.318132,-0.822708 2.429736,-1.530351 2.466182,-1.564871 0.04252,-0.04027 0.145785,-0.43149 0.2369,-0.874486 l 0.170081,-0.805448 2.040978,-1.944582 2.040979,-1.938828 -0.728921,-0.690384 c -0.400907,-0.379711 -0.74107,-0.690384 -0.759293,-0.690384 -0.01822,0 -0.941522,0.86298 -2.059201,1.921569 z"
       style="fill:url(#linearGradient915);fill-opacity:1;stroke:none;stroke-width:0.00644902" /></g></g></svg>