<?xml version="1.0" encoding="UTF-8" standalone="no"?>
<svg
   xmlns:dc="http://purl.org/dc/elements/1.1/"
   xmlns:cc="http://creativecommons.org/ns#"
   xmlns:rdf="http://www.w3.org/1999/02/22-rdf-syntax-ns#"
   xmlns:svg="http://www.w3.org/2000/svg"
   xmlns="http://www.w3.org/2000/svg"
   xmlns:xlink="http://www.w3.org/1999/xlink"
   width="48px"
   height="48px"
   viewBox="0 0 48 48"
   version="1.1"
   id="svg35">
  <metadata
     id="metadata39">
    <rdf:RDF>
      <cc:Work
         rdf:about="">
        <dc:format>image/svg+xml</dc:format>
        <dc:type
           rdf:resource="http://purl.org/dc/dcmitype/StillImage" />
        <dc:title>drive-harddisk-linux-48px</dc:title>
      </cc:Work>
    </rdf:RDF>
  </metadata>
  <!-- Generator: Sketch 39.1 (31720) - http://www.bohemiancoding.com/sketch -->
  <title
     id="title2">drive-harddisk-linux-48px</title>
  <desc
     id="desc4">Created with Sketch.</desc>
  <defs
     id="defs11">
    <linearGradient
       id="linearGradient975">
      <stop
         style="stop-color:#eeeeee;stop-opacity:1"
         offset="0"
         id="stop971" />
      <stop
         style="stop-color:#acacac;stop-opacity:1"
         offset="1"
         id="stop973" />
    </linearGradient>
    <linearGradient
       id="linearGradient937">
      <stop
         style="stop-color:#0cc30c;stop-opacity:1"
         offset="0"
         id="stop933" />
      <stop
         style="stop-color:#44ff44;stop-opacity:1"
         offset="1"
         id="stop935" />
    </linearGradient>
    <linearGradient
       id="linearGradient929">
      <stop
         style="stop-color:#0f0f0f;stop-opacity:1"
         offset="0"
         id="stop925" />
      <stop
         style="stop-color:#464343;stop-opacity:1"
         offset="1"
         id="stop927" />
    </linearGradient>
    <linearGradient
       id="linearGradient833">
      <stop
         style="stop-color:#038c8c;stop-opacity:1;"
         offset="0"
         id="stop829" />
      <stop
         style="stop-color:#05d4d4;stop-opacity:0.99607843"
         offset="1"
         id="stop831" />
    </linearGradient>
    <linearGradient
       x1="24.350383"
       y1="4.0840696"
       x2="24.350383"
       y2="38.43882"
       id="linearGradient-1"
       gradientTransform="scale(0.98561076,1.0145993)"
       gradientUnits="userSpaceOnUse">
      <stop
         stop-color="#9DDA00"
         offset="0%"
         id="stop6" />
      <stop
         stop-color="#73C300"
         offset="100%"
         id="stop8" />
    </linearGradient>
    <linearGradient
       xlink:href="#linearGradient833"
       id="linearGradient835"
       x1="24.458025"
       y1="39.06012"
       x2="24.358725"
       y2="4.4503489"
       gradientUnits="userSpaceOnUse" />
    <linearGradient
       id="c"
       y1="44"
       y2="4"
       x2="0"
       gradientUnits="userSpaceOnUse"
       gradientTransform="matrix(0.56946735,0,0,0.56946735,53.147939,5.5651614)">
      <stop
         stop-color="#2a2c2f"
         id="stop12" />
      <stop
         offset="1"
         stop-color="#424649"
         id="stop14" />
    </linearGradient>
    <linearGradient
       id="a"
       y1="40.366154"
       y2="7.6338482"
       x2="20.663448"
       gradientUnits="userSpaceOnUse"
       gradientTransform="matrix(0.56946735,0,0,0.56946735,53.147939,5.5651614)"
       x1="26.114542">
      <stop
         stop-color="#728790"
         id="stop2"
         style="stop-color:#5e6f77;stop-opacity:1" />
      <stop
         offset="1"
         stop-color="#85969e"
         id="stop4"
         style="stop-color:#a3afb5;stop-opacity:1" />
    </linearGradient>
    <linearGradient
       id="d"
       y1="15"
       x1="15"
       y2="44"
       x2="44"
       gradientUnits="userSpaceOnUse"
       gradientTransform="matrix(0.56946735,0,0,0.56946735,53.147939,5.5651614)">
      <stop
         stop-color="#020303"
         id="stop17" />
      <stop
         offset="1"
         stop-color="#424649"
         stop-opacity="0"
         id="stop19" />
    </linearGradient>
    <linearGradient
       id="b"
       y1="36"
       y2="12"
       x2="0"
       gradientUnits="userSpaceOnUse"
       gradientTransform="matrix(0.56946735,0,0,0.56946735,53.147939,5.5651614)">
      <stop
         stop-color="#06a370"
         id="stop7" />
      <stop
         offset="1"
         stop-color="#22d1b0"
         id="stop9" />
    </linearGradient>
    <linearGradient
       xlink:href="#linearGradient929"
       id="linearGradient931"
       x1="70.946907"
       y1="30.133244"
       x2="64.12722"
       y2="8.1149387"
       gradientUnits="userSpaceOnUse" />
    <linearGradient
       xlink:href="#linearGradient937"
       id="linearGradient939"
       x1="70.135948"
       y1="24.975056"
       x2="65.2024"
       y2="12.446409"
       gradientUnits="userSpaceOnUse" />
    <radialGradient
       xlink:href="#linearGradient975"
       id="radialGradient977"
       cx="81.648209"
       cy="19.4123"
       fx="81.648209"
       fy="19.4123"
       r="5.1977639"
       gradientUnits="userSpaceOnUse" />
    <linearGradient
       y2="533.29797"
       y1="545.29797"
       xlink:href="#f"
       x2="466.82144"
       x1="466.82144"
       gradientUnits="userSpaceOnUse"
       id="b-3" />
    <linearGradient
       id="f">
      <stop
         id="stop21"
         stop-color="#bfc1c1"
         offset="0" />
      <stop
         id="stop23"
         stop-color="#f1f2f3"
         offset="1" />
    </linearGradient>
    <linearGradient
       y2="521.79797"
       y1="533.79797"
       x2="467.07144"
       x1="467.07144"
       gradientUnits="userSpaceOnUse"
       id="c-6">
      <stop
         id="stop10"
         stop-color="#08f"
         offset="0" />
      <stop
         id="stop12-7"
         stop-color="#02c3ff"
         offset="1" />
    </linearGradient>
    <linearGradient
       y2="509.14795"
       y1="531.04791"
       x2="481.24017"
       x1="481.24017"
       gradientUnits="userSpaceOnUse"
       id="d-5">
      <stop
         id="stop15"
         stop-color="#f0a23a"
         offset="0" />
      <stop
         id="stop17-3"
         stop-color="#fde46a"
         offset="1" />
    </linearGradient>
    <linearGradient
       y2="509.798"
       y1="530.79797"
       xlink:href="#f"
       x2="450.88397"
       x1="450.88397"
       gradientUnits="userSpaceOnUse"
       id="e" />
    <linearGradient
       y2="502.798"
       y1="555.79797"
       x2="469.57144"
       x1="469.57144"
       gradientUnits="userSpaceOnUse"
       id="a-5">
      <stop
         id="stop2-6"
         stop-color="#4e4e4f"
         offset="0" />
      <stop
         id="stop4-2"
         stop-color="#3f3f40"
         offset=".49668527" />
      <stop
         id="stop6-9"
         stop-color="#5a5a5c"
         offset="1" />
    </linearGradient>
  </defs>
  <g
     id="g38"
     transform="matrix(0.8037225,0,0,0.8037225,-351.28386,-400.70864)">
    <g
       id="g34"
       style="fill-rule:evenodd">
      <circle
         id="circle26"
         r="5"
         cy="540.29797"
         cx="467.07144"
         style="fill:url(#b-3)" />
      <circle
         id="circle28"
         r="5"
         cy="528.79797"
         cx="467.32144"
         style="fill:url(#c-6)" />
      <circle
         id="circle30"
         r="9.125"
         cy="521.92297"
         cx="481.69644"
         style="fill:url(#d-5)" />
      <circle
         id="circle32"
         r="8.75"
         cy="522.04797"
         cx="451.32144"
         style="fill:url(#e)" />
    </g>
    <path
       id="path36"
       d="m 493.63423,518.79364 c -1.8491,-7.73513 -5.19775,-9.77128 -8.89746,-9.43115 h -6.06622 c -0.0506,-6.25711 -5.17413,-6.93552 -11.48615,-6.93552 -6.31586,0 -11.43578,0.67841 -11.48638,6.93552 0,0 -5.82497,0 -7.84646,0 -3.00502,0 -5.57033,2.96151 -7.11536,9.43115 -2.09327,8.7417 -1.47989,21.43937 2.78063,22.4607 2.63045,0.62874 6.03354,-3.34783 8.74553,-8.5365 l 7.00148,2.61068 c 2.06232,10.05338 4.84842,19.09845 7.92056,19.09845 3.08458,0 5.88324,-9.13266 7.94755,-19.24315 l 6.91458,-2.57811 c 2.7227,5.24462 6.15835,9.28272 8.80695,8.64863 4.26051,-1.02133 4.87401,-13.719 2.78075,-22.4607 z M 482.96747,515.492 c 1.15069,0 2.08047,0.93164 2.08047,2.0814 0,1.14975 -0.92978,2.0814 -2.08047,2.0814 -1.15069,0 -2.0807,-0.93165 -2.0807,-2.0814 0,-1.14976 0.93001,-2.0814 2.0807,-2.0814 z m -12.2753,13.37224 c 0,1.84095 -1.49268,3.33247 -3.33422,3.33247 -1.84002,0 -3.33247,-1.49152 -3.33247,-3.33247 0,-1.84073 1.49245,-3.33341 3.33247,-3.33341 1.84166,1.2e-4 3.33422,1.49268 3.33422,3.33341 z m -12.9373,-5.63373 c 0,0.45494 -0.3691,0.82311 -0.82311,0.82311 h -2.8495 v 2.84856 c 0,0.45495 -0.36909,0.82323 -0.82334,0.82323 h -2.73166 c -0.45413,0 -0.82311,-0.36828 -0.82311,-0.82323 v -2.84856 h -1.85259 -0.99691 c -0.45401,0 -0.82311,-0.36817 -0.82311,-0.82311 v -2.73178 c 0,-0.45494 0.36898,-0.82311 0.82311,-0.82311 h 0.99691 1.85259 v -2.84949 c 0,-0.45495 0.3691,-0.82324 0.82311,-0.82324 h 2.73177 c 0.45425,0 0.82335,0.36829 0.82335,0.82324 v 2.84949 h 2.84949 c 0.45402,0 0.82312,0.36817 0.82312,0.82311 v 2.73178 z m 12.47421,16.74926 c 0,1.58493 -1.28457,2.86927 -2.87113,2.86927 -1.58492,0 -2.86926,-1.28434 -2.86926,-2.86927 0,-0.93257 0.45215,-1.75313 1.14149,-2.27775 0.48112,-0.36631 1.07636,-0.59245 1.72777,-0.59245 0.54278,0 1.04577,0.15914 1.47814,0.42075 0.83219,0.50276 1.39299,1.4073 1.39299,2.44945 z m 8.44705,-16.03375 c -1.15069,0 -2.08059,-0.93258 -2.08059,-2.08233 0,-1.14789 0.93002,-2.08047 2.08059,-2.08047 1.15057,0 2.08047,0.93258 2.08047,2.08047 -1.2e-4,1.14975 -0.9299,2.08233 -2.08047,2.08233 z m 2.21064,2.20994 c 0,-1.14975 0.93001,-2.0814 2.0807,-2.0814 1.15069,0 2.08047,0.93165 2.08047,2.0814 0,1.14975 -0.92978,2.0814 -2.08047,2.0814 -1.15069,0 -2.0807,-0.93165 -2.0807,-2.0814 z m 6.37192,-2.20994 c -0.41423,0 -0.77623,-0.15099 -1.10008,-0.35909 -0.57709,-0.36992 -0.98062,-0.9869 -0.98062,-1.72324 0,-0.73552 0.40353,-1.35146 0.98062,-1.72138 0.32385,-0.20798 0.68585,-0.35897 1.10008,-0.35897 1.15069,0 2.08047,0.93257 2.08047,2.08047 0,1.14963 -0.92978,2.08221 -2.08047,2.08221 z"
       style="fill:url(#a-5)" />
  </g>
</svg>
