<?xml version="1.0" encoding="UTF-8" standalone="no"?>
<svg
   xmlns:dc="http://purl.org/dc/elements/1.1/"
   xmlns:cc="http://creativecommons.org/ns#"
   xmlns:rdf="http://www.w3.org/1999/02/22-rdf-syntax-ns#"
   xmlns:svg="http://www.w3.org/2000/svg"
   xmlns="http://www.w3.org/2000/svg"
   xmlns:xlink="http://www.w3.org/1999/xlink"
   height="48"
   width="48"
   version="1.1"
   id="svg13">
  <metadata
     id="metadata19">
    <rdf:RDF>
      <cc:Work
         rdf:about="">
        <dc:format>image/svg+xml</dc:format>
        <dc:type
           rdf:resource="http://purl.org/dc/dcmitype/StillImage" />
        <dc:title></dc:title>
      </cc:Work>
    </rdf:RDF>
  </metadata>
  <defs
     id="defs17">
    <linearGradient
       id="linearGradient1052">
      <stop
         style="stop-color:#e3e3e3;stop-opacity:1"
         offset="0"
         id="stop1048" />
      <stop
         style="stop-color:#ececec;stop-opacity:0.94527364"
         offset="1"
         id="stop1050" />
    </linearGradient>
    <linearGradient
       id="a-3"
       gradientTransform="matrix(0.93161886,0,0,1.0102051,-356.63286,-504.32799)"
       gradientUnits="userSpaceOnUse"
       x1="409.57144"
       x2="409.93887"
       y1="542.79797"
       y2="501.2316">
      <stop
         offset="0"
         stop-color="#00a199"
         id="stop2-6" />
      <stop
         offset="1"
         stop-color="#00f89a"
         stop-opacity=".988235"
         id="stop4-7" />
    </linearGradient>
    <linearGradient
       id="b"
       gradientUnits="userSpaceOnUse"
       x1="3.1466999"
       x2="18.771702"
       y1="1041.4948"
       y2="1041.4948"
       gradientTransform="matrix(0.1859203,0,0,0.1859203,12.28728,14.112737)">
      <stop
         offset="0"
         stop-color="#e6f3ff"
         id="stop7" />
      <stop
         offset="1"
         stop-color="#dcffe7"
         id="stop9" />
    </linearGradient>
    <linearGradient
       id="linearGradient840">
      <stop
         style="stop-color:#666666;stop-opacity:1;"
         offset="0"
         id="stop836" />
      <stop
         style="stop-color:#808080;stop-opacity:1"
         offset="1"
         id="stop838" />
    </linearGradient>
    <linearGradient
       y2="507.47299"
       y1="542.79797"
       x2="409.72055"
       x1="409.57144"
       gradientUnits="userSpaceOnUse"
       gradientTransform="matrix(0.93161886,0,0,1.0102051,-356.63286,-504.32799)"
       id="a-3-3">
      <stop
         style="stop-color:#595959;stop-opacity:1"
         id="stop2-6-6"
         stop-color="#00a199"
         offset="0" />
      <stop
         style="stop-color:#808080;stop-opacity:1"
         id="stop4-7-7"
         stop-opacity=".988235"
         stop-color="#00f89a"
         offset="1" />
    </linearGradient>
    <linearGradient
       gradientTransform="matrix(0.1859203,0,0,0.1859203,12.28728,14.112737)"
       y2="1041.4948"
       y1="1041.4948"
       x2="18.771702"
       x1="3.1466999"
       gradientUnits="userSpaceOnUse"
       id="b-3">
      <stop
         id="stop7-6"
         stop-color="#e6f3ff"
         offset="0" />
      <stop
         id="stop9-7"
         stop-color="#dcffe7"
         offset="1" />
    </linearGradient>
    <linearGradient
       xlink:href="#linearGradient840"
       id="linearGradient842"
       x1="25.220337"
       y1="42.706993"
       x2="25.220337"
       y2="6.1435828"
       gradientUnits="userSpaceOnUse" />
    <linearGradient
       xlink:href="#linearGradient1052"
       id="linearGradient1054"
       x1="24.40678"
       y1="43.525425"
       x2="24.813559"
       y2="8.7457628"
       gradientUnits="userSpaceOnUse" />
    <linearGradient
       xlink:href="#linearGradient1052"
       id="linearGradient1081"
       gradientUnits="userSpaceOnUse"
       x1="24.40678"
       y1="43.525425"
       x2="24.813559"
       y2="8.7457628"
       gradientTransform="matrix(0.5336415,0,0,0.5336415,5.4976894,16.480739)" />
  </defs>
  <linearGradient
     id="a"
     gradientUnits="userSpaceOnUse"
     x1="409.537251898256"
     x2="409.537251898256"
     y1="544.227537992278"
     y2="502.9836729252">
    <stop
       offset="0"
       stop-color="#0a80fd"
       id="stop2" />
    <stop
       offset="1"
       stop-color="#56c5fa"
       id="stop4" />
  </linearGradient>
  <g
     id="g1230"
     transform="matrix(0.73540909,0,0,0.73540909,9.8226674,3.2731201)"
     style="stroke-width:1.35978746">
    <path
       id="rect4148-2"
       d="m 2.7586205,3.5172413 c -0.4203047,0 -0.7586207,0.3383449 -0.7586207,0.7586207 v 38.689655 0.758621 c 0,0.420276 0.338316,0.758621 0.7586207,0.758621 H 3.5172412 45.241379 C 45.661684,44.482759 46,44.144414 46,43.724138 V 4.275862 C 46,3.8555862 45.661684,3.5172413 45.241379,3.5172413 H 3.5172412 Z"
       style="fill:#34495e;fill-opacity:1;stroke:none;stroke-width:1.03156292" />
    <rect
       id="rect12-6"
       y="8.6521521"
       x="3.5043848"
       width="40.99123"
       ry="1.4702832"
       height="34.34697"
       style="fill:url(#linearGradient1054);fill-opacity:1;stroke-width:0.8942337"
       rx="1.4702832" />
  </g>
  <g
     id="g1234"
     transform="matrix(1.1293184,0,0,1.0362802,-3.0654296,0.46254541)"
     style="stroke-width:0.92438573">
    <path
       style="fill:#1a1a1a;fill-opacity:1;stroke:none;stroke-width:0.70125806"
       d="m 6.9698038,18.357685 c -0.224292,0 -0.4048315,0.180555 -0.4048315,0.404831 v 20.646406 0.404832 c 0,0.224276 0.1805395,0.404831 0.4048315,0.404831 H 7.3746353 29.640367 c 0.224292,0 0.404831,-0.180555 0.404831,-0.404831 V 18.762516 c 0,-0.224276 -0.180539,-0.404831 -0.404831,-0.404831 H 7.3746353 Z"
       id="path1058" />
    <rect
       rx="0.95744431"
       style="fill:url(#linearGradient1081);fill-opacity:1;stroke-width:0.60790151"
       height="18.328968"
       ry="1.0434046"
       width="21.874622"
       x="7.3677745"
       y="21.097887"
       id="rect1070" />
  </g>
  <g
     style="stroke-width:0.80696297"
     transform="matrix(1.2392143,0,0,1.2392143,-7.3692299,-3.821346)"
     id="g857">
    <path
       style="fill:#e3e3e3;fill-opacity:1;stroke-width:0.62582886"
       d="m 26.578482,12.338591 a 0.56627089,0.56647672 0 0 0 -0.406966,0.318617 l -1.698643,3.39852 a 0.56627089,0.56647672 0 0 0 0.336188,0.778827 l 1.415538,0.477918 a 0.56627089,0.56647672 0 0 0 0.176938,0.03537 h 0.566217 a 0.56627089,0.56647672 0 0 0 0.176945,-0.03537 l 1.41553,-0.477918 a 0.56627089,0.56647672 0 0 0 0.336196,-0.778827 l -1.698643,-3.39852 a 0.56627089,0.56647672 0 0 0 -0.566216,-0.318617 0.56627089,0.56647672 0 0 0 -0.05304,0 z m -3.662695,5.380996 a 0.56627089,0.56647672 0 0 0 -0.159251,0.05306 l -3.397285,1.69926 a 0.56627089,0.56647672 0 0 0 0,1.02664 l 3.397285,1.69926 a 0.56627089,0.56647672 0 0 0 0.778543,-0.336311 l 0.477744,-1.416052 a 0.56627089,0.56647672 0 0 0 0.03536,-0.17701 V 19.702019 A 0.56627089,0.56647672 0 0 0 24.012823,19.52501 L 23.535079,18.108953 A 0.56627089,0.56647672 0 0 0 22.915787,17.71954 Z m 7.378474,0 A 0.56627089,0.56647672 0 0 0 29.834211,18.109 l -0.477736,1.416052 a 0.56627089,0.56647672 0 0 0 -0.03536,0.177002 v 0.566423 a 0.56627089,0.56647672 0 0 0 0.03536,0.177001 l 0.477736,1.416053 a 0.56627089,0.56647672 0 0 0 0.778551,0.33631 l 3.397286,-1.69926 a 0.56627089,0.56647672 0 0 0 0,-1.026631 l -3.397286,-1.699261 a 0.56627089,0.56647672 0 0 0 -0.318501,-0.05306 z m -3.627306,0.265506 c -1.087787,0 -1.981748,0.894294 -1.981748,1.982475 0,1.088174 0.893961,1.982468 1.981748,1.982468 1.087778,0 1.981747,-0.894294 1.981747,-1.982468 0,-1.088181 -0.893969,-1.982475 -1.981747,-1.982475 z m -0.318494,4.637563 a 0.56627089,0.56647672 0 0 0 -0.123862,0.03537 l -1.415538,0.477918 a 0.56627089,0.56647672 0 0 0 -0.336188,0.778826 l 1.698643,3.398521 a 0.56627089,0.56647672 0 0 0 1.026266,0 l 1.698643,-3.398521 a 0.56627089,0.56647672 0 0 0 -0.336196,-0.778826 l -1.41553,-0.477918 a 0.56627089,0.56647672 0 0 0 -0.176945,-0.03537 h -0.566217 a 0.56627089,0.56647672 0 0 0 -0.05304,0 z"
       id="path969" />
    <g
       style="stroke-width:0.80696297"
       transform="translate(-6.0789496,1.8058326)"
       id="g1207">
      <path
         id="path971"
         d="m 32.763599,11.099181 -1.698643,3.39852 1.415531,0.477918 h 0.566217 l 1.415538,-0.477918 z m -3.680397,5.380995 -3.397286,1.69926 3.397286,1.69926 0.477744,-1.416052 v -0.566423 z m 7.360787,0 -0.477744,1.416045 v 0.566423 l 0.477744,1.416052 3.397285,-1.69926 z m -3.963502,4.90307 -1.415531,0.477918 1.698643,3.39852 1.698643,-3.39852 -1.415538,-0.477918 z"
         style="fill:#1a1a1a;stroke-width:0.62582886" />
      <ellipse
         id="circle973"
         cy="18.154472"
         cx="32.745899"
         style="fill:#f67400;stroke-width:0.62582886"
         rx="1.4155358"
         ry="1.4160503" />
    </g>
  </g>
</svg>
