<?xml version="1.0" encoding="UTF-8" standalone="no"?>
<svg
   xmlns:dc="http://purl.org/dc/elements/1.1/"
   xmlns:cc="http://creativecommons.org/ns#"
   xmlns:rdf="http://www.w3.org/1999/02/22-rdf-syntax-ns#"
   xmlns:svg="http://www.w3.org/2000/svg"
   xmlns="http://www.w3.org/2000/svg"
   xmlns:xlink="http://www.w3.org/1999/xlink"
   xmlns:sodipodi="http://sodipodi.sourceforge.net/DTD/sodipodi-0.dtd"
   xmlns:inkscape="http://www.inkscape.org/namespaces/inkscape"
   id="svg32"
   version="1.1"
   height="48"
   width="48"
   sodipodi:docname="qbittorrent.svg"
   inkscape:version="0.92.2 2405546, 2018-03-11">
  <sodipodi:namedview
     pagecolor="#ffffff"
     bordercolor="#666666"
     borderopacity="1"
     objecttolerance="10"
     gridtolerance="10"
     guidetolerance="10"
     inkscape:pageopacity="0"
     inkscape:pageshadow="2"
     inkscape:window-width="1366"
     inkscape:window-height="699"
     id="namedview38"
     showgrid="false"
     inkscape:zoom="4.9166667"
     inkscape:cx="-15.864407"
     inkscape:cy="24"
     inkscape:window-x="0"
     inkscape:window-y="0"
     inkscape:window-maximized="1"
     inkscape:current-layer="svg32" />
  <metadata
     id="metadata36">
    <rdf:RDF>
      <cc:Work
         rdf:about="">
        <dc:format>image/svg+xml</dc:format>
        <dc:type
           rdf:resource="http://purl.org/dc/dcmitype/StillImage" />
        <dc:title />
      </cc:Work>
    </rdf:RDF>
  </metadata>
  <defs
     id="defs18">
    <linearGradient
       id="linearGradient949">
      <stop
         id="stop945"
         offset="0"
         style="stop-color:#1c90e5;stop-opacity:1" />
      <stop
         id="stop947"
         offset="1"
         style="stop-color:#21b4f6;stop-opacity:1" />
    </linearGradient>
    <linearGradient
       gradientTransform="translate(-56.702165,17.798753)"
       gradientUnits="userSpaceOnUse"
       x2="0"
       y2="4"
       y1="44"
       id="a">
      <stop
         id="stop2"
         stop-color="#7cbaf8" />
      <stop
         id="stop4"
         stop-color="#f4fcff"
         offset="1" />
    </linearGradient>
    <linearGradient
       gradientTransform="matrix(1.02857,0,0,1.2,-82.761928,-2044.3315)"
       x2="0"
       gradientUnits="userSpaceOnUse"
       y2="9"
       y1="39"
       id="b">
      <stop
         id="stop7"
         stop-color="#197cf1" />
      <stop
         id="stop9"
         stop-color="#20bcfa"
         offset="1" />
    </linearGradient>
    <linearGradient
       gradientUnits="userSpaceOnUse"
       x2="42.99"
       y2="30.26"
       x1="25.04"
       y1="13.01"
       id="c">
      <stop
         id="stop12"
         stop-color="#292c2f" />
      <stop
         id="stop14"
         stop-opacity="0"
         stop-color="#292c2f"
         offset="1" />
    </linearGradient>
    <linearGradient
       gradientTransform="translate(4.004,11.830984)"
       gradientUnits="userSpaceOnUse"
       x2="36.06"
       y2="40.44"
       x1="14.59"
       y1="18.26"
       id="d"
       xlink:href="#c" />
    <linearGradient
       id="linearGradient1025"
       gradientUnits="userSpaceOnUse"
       x1="3.3645329"
       x2="36.073566"
       y1="1046.2201"
       y2="1007.7176">
      <stop
         style="stop-color:#1768c6;stop-opacity:1"
         offset="0"
         stop-color="#235ea2"
         id="stop1021" />
      <stop
         style="stop-color:#349ff3;stop-opacity:1"
         offset="1"
         stop-color="#1992f1"
         id="stop1023" />
    </linearGradient>
    <linearGradient
       id="linearGradient832">
      <stop
         style="stop-color:#81ce29;stop-opacity:1"
         offset="0"
         id="stop828" />
      <stop
         style="stop-color:#99db4d;stop-opacity:1"
         offset="1"
         id="stop830" />
    </linearGradient>
    <linearGradient
       gradientTransform="matrix(1.0731707,0,0,1.1,2.2926821,2.3999992)"
       xlink:href="#linearGradient832"
       id="linearGradient834"
       x1="-44"
       y1="-24"
       x2="-4"
       y2="-24"
       gradientUnits="userSpaceOnUse" />
    <linearGradient
       y2="1007.7176"
       y1="1046.2201"
       x2="36.073566"
       x1="3.3645329"
       gradientUnits="userSpaceOnUse"
       id="a-3">
      <stop
         id="stop8"
         stop-color="#235ea2"
         offset="0" />
      <stop
         id="stop10"
         stop-color="#1992f1"
         offset="1" />
    </linearGradient>
    <linearGradient
       y2="517.62671"
       y1="545.79791"
       x2="400.79395"
       x1="400.57144"
       gradientUnits="userSpaceOnUse"
       id="b-6">
      <stop
         id="stop13"
         stop-color="#197ff1"
         offset="0" />
      <stop
         id="stop15"
         stop-color="#21c6fb"
         offset="1" />
    </linearGradient>
    <linearGradient
       gradientTransform="translate(-1.2203386,-0.20339)"
       gradientUnits="userSpaceOnUse"
       y2="-24"
       x2="-2.0000038"
       y1="-24"
       x1="-44.92683"
       id="linearGradient1019"
       xlink:href="#linearGradient1025" />
    <linearGradient
       gradientUnits="userSpaceOnUse"
       y2="-24.203388"
       x2="-3.2203445"
       y1="-24.203388"
       x1="-46.147171"
       id="linearGradient951"
       xlink:href="#linearGradient949"
       gradientTransform="matrix(1.0250001,0,0,1,1.3008534,0.20338821)" />
  </defs>
  <rect
     id="rect4"
     ry="2.1463413"
     rx="2.1463416"
     y="-46"
     x="-46"
     height="44"
     width="44"
     style="fill:url(#linearGradient951);fill-opacity:1;stroke-width:1.0731709"
     transform="matrix(0,-1,-1,0,0,0)" />
  <g
     id="g847"
     transform="matrix(0.85376432,0,0,0.79248768,3.3360077,4.0131925)"
     style="stroke-width:1.2157234">
    <path
       style="color:#000000;fill:#ffffff;fill-opacity:1;fill-rule:evenodd;stroke:#ffffff;stroke-width:0.60786164;stroke-miterlimit:4;stroke-dasharray:none;stroke-opacity:1"
       d="m 25.436869,11.64729 v 22.210443 h 2.466956 v -2.573866 a 8.6343455,7.403481 0 0 0 4.933912,1.339952 8.6343455,7.403481 0 0 0 8.634346,-7.40348 8.6343455,7.403481 0 0 0 -8.634346,-7.403481 8.6343455,7.403481 0 0 0 -4.933912,1.332723 V 11.64729 Z m 7.400868,8.637394 a 6.1673897,4.935654 0 0 1 6.16739,4.935655 6.1673897,4.935654 0 0 1 -6.16739,4.935654 6.1673897,4.935654 0 0 1 -4.933912,-1.98342 v -5.902059 a 6.1673897,4.935654 0 0 1 4.933912,-1.98583 z"
       id="path908"
       inkscape:connector-curvature="0" />
    <path
       style="color:#000000;fill:#004048;fill-opacity:1;fill-rule:evenodd;stroke:#004048;stroke-width:0.60786164;stroke-miterlimit:4;stroke-dasharray:none;stroke-opacity:1"
       d="m 20.502958,16.582945 v 2.573866 a 8.6343455,7.403481 0 0 0 -4.933912,-1.339953 8.6343455,7.403481 0 0 0 -8.6343456,7.403481 8.6343455,7.403481 0 0 0 8.6343456,7.40348 8.6343455,7.403481 0 0 0 4.933912,-1.332723 v 7.502291 h 2.466956 V 16.582945 Z m -4.933912,3.701739 a 6.1673897,4.935654 0 0 1 4.933912,1.983421 v 5.902058 a 6.1673897,4.935654 0 0 1 -4.933912,1.98583 6.1673897,4.935654 0 0 1 -6.16739,-4.935654 6.1673897,4.935654 0 0 1 6.16739,-4.935655 z"
       id="path906"
       inkscape:connector-curvature="0" />
  </g>
</svg>
