<?xml version="1.0" encoding="UTF-8" standalone="no"?>
<svg
   xmlns:dc="http://purl.org/dc/elements/1.1/"
   xmlns:cc="http://creativecommons.org/ns#"
   xmlns:rdf="http://www.w3.org/1999/02/22-rdf-syntax-ns#"
   xmlns:svg="http://www.w3.org/2000/svg"
   xmlns="http://www.w3.org/2000/svg"
   xmlns:xlink="http://www.w3.org/1999/xlink"
   xmlns:sodipodi="http://sodipodi.sourceforge.net/DTD/sodipodi-0.dtd"
   xmlns:inkscape="http://www.inkscape.org/namespaces/inkscape"
   viewBox="0 0 48 48"
   version="1.1"
   id="svg11"
   sodipodi:docname="spectacle.svg"
   inkscape:version="0.92.2 5c3e80d, 2017-08-06">
  <sodipodi:namedview
     pagecolor="#ffffff"
     bordercolor="#666666"
     borderopacity="1"
     objecttolerance="10"
     gridtolerance="10"
     guidetolerance="10"
     inkscape:pageopacity="0"
     inkscape:pageshadow="2"
     inkscape:window-width="1366"
     inkscape:window-height="701"
     id="namedview16"
     showgrid="false"
     inkscape:zoom="4.9166667"
     inkscape:cx="-5.6949153"
     inkscape:cy="24"
     inkscape:window-x="0"
     inkscape:window-y="0"
     inkscape:window-maximized="1"
     inkscape:current-layer="svg11" />
  <metadata
     id="metadata17">
    <rdf:RDF>
      <cc:Work
         rdf:about="">
        <dc:format>image/svg+xml</dc:format>
        <dc:type
           rdf:resource="http://purl.org/dc/dcmitype/StillImage" />
        <dc:title />
      </cc:Work>
    </rdf:RDF>
  </metadata>
  <defs
     id="defs15">
    <linearGradient
       y2="507.8"
       y1="542.8"
       x2="0"
       gradientUnits="userSpaceOnUse"
       gradientTransform="matrix(0.99999207,0,0,1.1764634,-384.54483,-592.4399)"
       id="linearGradient838">
      <stop
         id="stop834"
         stop-color="#42a603"
         offset="0"
         style="stop-color:#4bbc03;stop-opacity:1" />
      <stop
         id="stop836"
         stop-color="#78da06"
         offset="1"
         style="stop-color:#7af811;stop-opacity:1" />
    </linearGradient>
    <linearGradient
       xlink:href="#linearGradient838"
       id="linearGradient832"
       x1="-37.152546"
       y1="47.864407"
       x2="-37.152546"
       y2="9.2203398"
       gradientUnits="userSpaceOnUse"
       gradientTransform="matrix(1,0,0,1.025,61.389832,-5.2559318)" />
  </defs>
  <linearGradient
     id="a"
     gradientTransform="matrix(0.99999207,0,0,1.1764634,-384.54483,-592.4399)"
     gradientUnits="userSpaceOnUse"
     x2="0"
     y1="542.8"
     y2="507.8">
    <stop
       offset="0"
       stop-color="#42a603"
       id="stop2" />
    <stop
       offset="1"
       stop-color="#78da06"
       id="stop4" />
  </linearGradient>
  <rect
     style="opacity:1;fill:url(#linearGradient832);fill-opacity:1;stroke:none;stroke-width:1.5715369;stroke-miterlimit:4;stroke-dasharray:none;stroke-opacity:1"
     id="rect824"
     width="44"
     height="41"
     x="2"
     y="3.5"
     ry="3.020551"
     rx="3.020551" />
  <g
     transform="matrix(0.89989662,0,0,0.89989662,2.4024812,2.402481)"
     id="g923"
     style="stroke-width:0.95612806">
    <path
       style="fill:#34495e;fill-opacity:1;stroke:none;stroke-width:0.54726362"
       d="m 7.9726562,8.5449219 c -0.3171176,0 -0.5722656,0.2571231 -0.5722656,0.5742187 v 29.1894534 0.572265 c 0,0.317096 0.255148,0.574219 0.5722656,0.574219 H 8.5449219 40.027344 c 0.317117,0 0.572265,-0.257123 0.572265,-0.574219 V 9.1191406 c 0,-0.3170956 -0.255148,-0.5742187 -0.572265,-0.5742187 H 8.5449219 Z M 21.761719,17.486328 h 4.476562 c 0.308584,0 0.610047,0.101287 0.904297,0.302734 0.29425,0.201448 0.496512,0.440344 0.607422,0.71875 l 0.445312,1.158204 h 1.958985 c 0.617924,0 1.145183,0.213142 1.582031,0.638672 0.436847,0.425531 0.654297,0.938935 0.654297,1.541015 v 7.630859 c 0,0.602081 -0.21745,1.115486 -0.654297,1.541016 -0.437602,0.426285 -0.964107,0.638672 -1.582031,0.638672 H 17.847656 c -0.617925,0 -1.145184,-0.213141 -1.582031,-0.638672 -0.436848,-0.42553 -0.65625,-0.938935 -0.65625,-1.541016 v -7.630859 c 0,-0.60208 0.219402,-1.115485 0.65625,-1.541015 0.436847,-0.42553 0.964106,-0.638672 1.582031,-0.638672 h 1.957032 L 20.25,18.507812 c 0.110909,-0.278406 0.313172,-0.517302 0.607422,-0.71875 0.29425,-0.201447 0.595712,-0.302734 0.904297,-0.302734 z M 24,21.847656 c -1.078161,0 -2.00102,0.372199 -2.767578,1.119141 -0.765804,0.746187 -1.148438,1.645067 -1.148438,2.695312 0,1.050246 0.381879,1.949126 1.148438,2.695313 0.766558,0.746187 1.689417,1.11914 2.767578,1.11914 1.078161,0 1.999067,-0.372198 2.765625,-1.11914 0.765804,-0.746187 1.150391,-1.645067 1.150391,-2.695313 0,-1.050245 -0.383833,-1.949125 -1.150391,-2.695312 C 25.999067,22.22061 25.078161,21.847656 24,21.847656 Z m 0,1.361328 c 0.693373,0 1.286617,0.240851 1.779297,0.720704 0.49268,0.479854 0.738281,1.056401 0.738281,1.732421 0,0.675266 -0.245601,1.252568 -0.738281,1.732422 -0.49268,0.479853 -1.085924,0.720703 -1.779297,0.720703 -0.694128,0 -1.286618,-0.24085 -1.779297,-0.720703 -0.49268,-0.479854 -0.738281,-1.056401 -0.738281,-1.732422 0,-0.67602 0.245601,-1.252568 0.738281,-1.732421 C 22.713382,23.449835 23.306626,23.208984 24,23.208984 Z"
       id="rect4148-2"
       inkscape:connector-curvature="0" />
    <path
       style="fill:#ffffff;stroke-width:1.96178997"
       d="m 9.6367188,12.035156 c -0.6083713,0 -1.0996094,0.554605 -1.0996094,1.240235 v 23.820312 c 0,0.685647 0.4912381,1.238281 1.0996094,1.238281 H 38.363281 c 0.608366,0 1.09961,-0.552634 1.09961,-1.238281 V 13.275391 c 0,-0.68563 -0.491244,-1.240235 -1.09961,-1.240235 z m 12.1250002,5.451172 h 4.476562 c 0.308584,0 0.610047,0.101287 0.904297,0.302734 0.29425,0.201448 0.496512,0.440344 0.607422,0.71875 l 0.445312,1.158204 h 1.958985 c 0.617924,0 1.145183,0.213142 1.582031,0.638672 0.436847,0.425531 0.654297,0.938935 0.654297,1.541015 v 7.630859 c 0,0.602081 -0.21745,1.115486 -0.654297,1.541016 -0.437602,0.426285 -0.964107,0.638672 -1.582031,0.638672 H 17.847656 c -0.617925,0 -1.145184,-0.213141 -1.582031,-0.638672 -0.436848,-0.42553 -0.65625,-0.938935 -0.65625,-1.541016 v -7.630859 c 0,-0.60208 0.219402,-1.115485 0.65625,-1.541015 0.436847,-0.42553 0.964106,-0.638672 1.582031,-0.638672 h 1.957032 L 20.25,18.507812 c 0.110909,-0.278406 0.313172,-0.517302 0.607422,-0.71875 0.29425,-0.201447 0.595712,-0.302734 0.904297,-0.302734 z M 24,21.847656 c -1.078161,0 -2.00102,0.372199 -2.767578,1.119141 -0.765804,0.746187 -1.148438,1.645067 -1.148438,2.695312 0,1.050246 0.381879,1.949126 1.148438,2.695313 0.766558,0.746187 1.689417,1.11914 2.767578,1.11914 1.078161,0 1.999067,-0.372198 2.765625,-1.11914 0.765804,-0.746187 1.150391,-1.645067 1.150391,-2.695313 0,-1.050245 -0.383833,-1.949125 -1.150391,-2.695312 C 25.999067,22.22061 25.078161,21.847656 24,21.847656 Z m 0,1.361328 c 0.693373,0 1.286617,0.240851 1.779297,0.720704 0.49268,0.479854 0.738281,1.056401 0.738281,1.732421 0,0.675266 -0.245601,1.252568 -0.738281,1.732422 -0.49268,0.479853 -1.085924,0.720703 -1.779297,0.720703 -0.694128,0 -1.286618,-0.24085 -1.779297,-0.720703 -0.49268,-0.479854 -0.738281,-1.056401 -0.738281,-1.732422 0,-0.67602 0.245601,-1.252568 0.738281,-1.732421 C 22.713382,23.449835 23.306626,23.208984 24,23.208984 Z"
       id="path865"
       inkscape:connector-curvature="0" />
  </g>
</svg>
