<?xml version="1.0" encoding="UTF-8" standalone="no"?>
<svg
   xmlns:dc="http://purl.org/dc/elements/1.1/"
   xmlns:cc="http://creativecommons.org/ns#"
   xmlns:rdf="http://www.w3.org/1999/02/22-rdf-syntax-ns#"
   xmlns:svg="http://www.w3.org/2000/svg"
   xmlns="http://www.w3.org/2000/svg"
   xmlns:xlink="http://www.w3.org/1999/xlink"
   xmlns:sodipodi="http://sodipodi.sourceforge.net/DTD/sodipodi-0.dtd"
   xmlns:inkscape="http://www.inkscape.org/namespaces/inkscape"
   id="svg8"
   version="1.1"
   viewBox="0 0 12.7 12.7"
   height="48"
   width="48"
   sodipodi:docname="system-software-install.svg"
   inkscape:version="0.92.2 2405546, 2018-03-11">
  <sodipodi:namedview
     pagecolor="#ffffff"
     bordercolor="#666666"
     borderopacity="1"
     objecttolerance="10"
     gridtolerance="10"
     guidetolerance="10"
     inkscape:pageopacity="0"
     inkscape:pageshadow="2"
     inkscape:window-width="1366"
     inkscape:window-height="699"
     id="namedview25"
     showgrid="false"
     inkscape:zoom="4.9166667"
     inkscape:cx="24"
     inkscape:cy="24"
     inkscape:window-x="0"
     inkscape:window-y="0"
     inkscape:window-maximized="1"
     inkscape:current-layer="svg8" />
  <defs
     id="defs2">
    <linearGradient
       gradientTransform="matrix(0.26458333,0,0,0.26458333,-296.99998,1.9e-7)"
       gradientUnits="userSpaceOnUse"
       y2="24"
       x2="47"
       y1="24"
       x1="1"
       id="linearGradient1113"
       xlink:href="#linearGradient1111" />
    <linearGradient
       id="linearGradient1111">
      <stop
         id="stop1107"
         offset="0"
         style="stop-color:#cccccc;stop-opacity:1;" />
      <stop
         id="stop1109"
         offset="1"
         style="stop-color:#f2f2f2;stop-opacity:1" />
    </linearGradient>
    <linearGradient
       gradientTransform="matrix(0,-0.26458333,-0.26458333,0,12.7,296.99998)"
       y2="47"
       x2="23.628531"
       y1="47"
       x1="46.999989"
       gradientUnits="userSpaceOnUse"
       id="linearGradient1125"
       xlink:href="#linearGradient1119" />
    <linearGradient
       id="linearGradient1119">
      <stop
         id="stop1115"
         offset="0"
         style="stop-color:#1b8ef3;stop-opacity:1;" />
      <stop
         id="stop1117"
         offset="1"
         style="stop-color:#3cccfb;stop-opacity:1" />
    </linearGradient>
    <linearGradient
       gradientUnits="userSpaceOnUse"
       y2="46.681362"
       x2="3.3501468"
       y1="46.681362"
       x1="44.98653"
       id="linearGradient1121"
       xlink:href="#linearGradient1131"
       gradientTransform="matrix(0.26458333,0,0,0.26458333,1.9e-7,284.29998)" />
    <linearGradient
       id="linearGradient1131">
      <stop
         style="stop-color:#1b8df3;stop-opacity:1"
         offset="0"
         id="stop1127" />
      <stop
         style="stop-color:#3dcefb;stop-opacity:1"
         offset="1"
         id="stop1129" />
    </linearGradient>
    <linearGradient
       inkscape:collect="always"
       xlink:href="#linearGradient1299"
       id="linearGradient1301-3"
       x1="-46.576271"
       y1="24.20339"
       x2="-2.0338986"
       y2="24.20339"
       gradientUnits="userSpaceOnUse"
       gradientTransform="matrix(0.26464514,0,0,0.26463926,12.702861,-1.092994e-4)" />
    <linearGradient
       inkscape:collect="always"
       id="linearGradient1299">
      <stop
         style="stop-color:#f2f2f2;stop-opacity:1"
         offset="0"
         id="stop1295" />
      <stop
         style="stop-color:#f9f9f9;stop-opacity:1"
         offset="1"
         id="stop1297" />
    </linearGradient>
    <linearGradient
       inkscape:collect="always"
       xlink:href="#linearGradient1368-3"
       id="linearGradient1370-5"
       x1="23.791016"
       y1="46.476032"
       x2="23.791016"
       y2="1.0019531"
       gradientUnits="userSpaceOnUse"
       gradientTransform="matrix(0.26459849,0,0,-0.26458333,-6.9102768e-5,12.700071)" />
    <linearGradient
       inkscape:collect="always"
       id="linearGradient1368-3">
      <stop
         style="stop-color:#3ccdfb;stop-opacity:1"
         offset="0"
         id="stop1364-5" />
      <stop
         style="stop-color:#1c8ef3;stop-opacity:1"
         offset="1"
         id="stop1366-6" />
    </linearGradient>
  </defs>
  <metadata
     id="metadata5">
    <rdf:RDF>
      <cc:Work
         rdf:about="">
        <dc:format>image/svg+xml</dc:format>
        <dc:type
           rdf:resource="http://purl.org/dc/dcmitype/StillImage" />
        <dc:title></dc:title>
      </cc:Work>
    </rdf:RDF>
  </metadata>
  <g
     id="g882">
    <g
       id="g874">
      <rect
         transform="matrix(0,1,1,0,0,0)"
         id="rect884-3-2"
         y="0.26453018"
         x="0.26456878"
         width="12.170834"
         ry="6.3499956"
         height="12.170834"
         style="fill:url(#linearGradient1301-3);fill-opacity:1;stroke-width:0.30792442"
         rx="6.349997" />
      <path
         inkscape:connector-curvature="0"
         style="opacity:1;fill:url(#linearGradient1370-5);fill-opacity:1;stroke-width:0.74083316;stroke-opacity:0.55"
         d="m 6.2949976,12.434971 c -0.1870858,-0.0021 -0.3750328,-0.01336 -0.5638223,-0.03307 -0.00206,-2.06e-4 -0.00415,-3.18e-4 -0.0062,-5.29e-4 -5.027e-4,-5.4e-5 -0.00103,5.4e-5 -0.00156,0 -0.056941,-0.006 -0.1140219,-0.01404 -0.1710586,-0.0217 -0.055769,-0.0072 -0.1116489,-0.01453 -0.1669243,-0.02325 -3.44e-4,-5.3e-5 -6.88e-4,5.3e-5 -0.00103,0 -0.00103,-1.67e-4 -0.00206,-3.44e-4 -0.0031,-5.29e-4 -2.907312,-0.460856 -5.11676652,-2.9663332 -5.11676652,-6.0073871 0,-0.2106115 0.0103095,-0.4187481 0.0310076,-0.6237345 0.0207002,-0.2049865 0.051596,-0.4067747 0.0919893,-0.6051312 0.0201967,-0.099178 0.042768,-0.1972234 0.0677,-0.2945556 0.0498643,-0.1946643 0.10869094,-0.3860483 0.17674355,-0.5725748 0.0340264,-0.093263 0.0701417,-0.1849119 0.10852671,-0.2759522 9.512e-5,-2.257e-4 9.181e-4,-2.91e-4 0.001035,-5.291e-4 C 0.81823184,3.7941826 0.9029852,3.6164807 0.99631745,3.4442669 1.1432778,3.1731013 1.316205,2.9189208 1.5012251,2.674805 c 0.05029,-0.06635 0.096436,-0.135818 0.1493534,-0.199988 0,0 0,-5.29e-4 0,-5.29e-4 C 1.7743034,2.324276 1.9054505,2.180159 2.0428251,2.04279 2.2590164,1.82661 2.4952518,1.632247 2.7420473,1.450578 2.8091283,1.401198 2.8728882,1.347363 2.9420466,1.300716 c 0,0 5.292e-4,0 5.292e-4,0 0.1616752,-0.109028 0.3289757,-0.210479 0.5012901,-0.303857 0,0 5.292e-4,0 5.292e-4,0 0.2585487,-0.140082 0.5285885,-0.262292 0.8082658,-0.364319 0,0 5.292e-4,0 5.292e-4,0 0.093115,-0.03396 0.1869625,-0.06559 0.2821694,-0.09509 0,0 5.292e-4,0 5.292e-4,0 0.09521,-0.02948 0.1917117,-0.05728 0.2888876,-0.08216 0,0 5.292e-4,0 5.292e-4,0 0.1945346,-0.04981 0.3926499,-0.09028 0.5943132,-0.120923 0,0 5.291e-4,0 5.291e-4,0 0.1007417,-0.0153 0.2025751,-0.02843 0.3049085,-0.03876 0,0 5.292e-4,0 5.292e-4,0 0.2047711,-0.02064 0.4126783,-0.03098 0.6231654,-0.03098 1.1995581,0 2.3148221,0.345324 3.2552849,0.939994 0.080254,0.05075 0.1595739,0.102753 0.2372082,0.157096 0.00992,0.0069 0.019582,0.01421 0.029457,0.02119 0.070929,0.05028 0.140684,0.101821 0.209302,0.155029 0.0093,0.0072 0.01862,0.01444 0.02791,0.0217 0.06529,0.05124 0.129674,0.103791 0.192765,0.157613 0.01582,0.01348 0.03135,0.0272 0.04703,0.04082 0.0565,0.04921 0.112295,0.09914 0.166924,0.150378 0.01851,0.01734 0.03651,0.03515 0.05478,0.05271 0.05044,0.04851 0.100105,0.09758 0.148837,0.147795 0.02387,0.02458 0.04737,0.04945 0.0708,0.07441 0.0372,0.03965 0.07394,0.07977 0.110077,0.120406 0.03411,0.03836 0.06768,0.0771 0.100775,0.116272 0.02929,0.03467 0.0583,0.06957 0.08682,0.104903 0.03082,0.03818 0.06109,0.07687 0.09096,0.115755 0.03268,0.04256 0.06507,0.085232 0.09664,0.1286745 0.02196,0.030208 0.04321,0.060871 0.0646,0.091467 0.03588,0.051336 0.07111,0.1030592 0.105426,0.1555462 0.01994,0.030492 0.03953,0.061145 0.05892,0.091984 0.03001,0.04776 0.05915,0.096044 0.08785,0.144694 0.02266,0.038361 0.04486,0.076906 0.06667,0.1157552 0.02525,0.04503 0.05029,0.090173 0.07442,0.135909 0.02418,0.045778 0.04727,0.092101 0.07028,0.1384927 0.0177,0.035736 0.0357,0.071354 0.05271,0.107487 0.02634,0.055819 0.05133,0.1123532 0.07597,0.168982 0.01424,0.032823 0.0287,0.065579 0.04238,0.098702 0.02649,0.063949 0.05165,0.1283848 0.07597,0.1932699 0.0082,0.021871 0.01637,0.04364 0.02429,0.065629 0.02936,0.081168 0.05626,0.162969 0.08217,0.245463 0.0014,0.00437 0.0033,0.00855 0.0047,0.01292 7.93e-4,0.00254 0.0013,0.00521 0.0021,0.00775 0.02862,0.092265 0.05535,0.1852856 0.07959,0.2790526 2.2e-4,8.467e-4 2.92e-4,0.00175 5.3e-4,0.00259 1.34e-4,5.291e-4 3.7e-4,0.00103 5.29e-4,0.00156 0.253195,0.982559 0.264763,2.042854 -0.01757,3.0964515 -0.736228,2.7469604 -3.2180085,4.5419074 -5.9308584,4.5118934 z m 0.053747,-0.676445 c 2.392989,0.0053 4.5737564,-1.584466 5.2237534,-4.0100908 0.12548,-0.4682619 0.185529,-0.9379894 0.186562,-1.3999144 h -0.0016 c 0,-0.1052176 -0.0039,-0.2094616 -0.0098,-0.3131592 C 11.74156,5.9276254 11.73167,5.8204321 11.71924,5.7139341 11.71204,5.6519011 11.70473,5.5897781 11.69547,5.5284157 11.67715,5.4080509 11.65458,5.2890429 11.62829,5.1708149 11.61765,5.1225979 11.60712,5.0743539 11.59521,5.0266377 11.56561,4.9089203 11.53074,4.7928659 11.493401,4.6778218 c -0.03182,-0.098599 -0.06872,-0.1949389 -0.105943,-0.2909384 -0.02721,-0.069888 -0.05315,-0.1401548 -0.0832,-0.2087727 -0.03746,-0.085778 -0.07974,-0.1688179 -0.121447,-0.252181 -0.03707,-0.07396 -0.07328,-0.1485003 -0.113695,-0.2206585 -0.04216,-0.075366 -0.08824,-0.1481116 -0.133849,-0.221175 -0.04623,-0.074016 -0.09181,-0.1484069 -0.141602,-0.2201415 -0.04724,-0.068088 -0.09807,-0.1332093 -0.14832,-0.1989545 C 10.589215,2.9915732 10.533179,2.9180083 10.473253,2.8474426 10.422933,2.7881826 10.36946,2.7318503 10.316664,2.674843 10.252304,2.605373 10.187901,2.535854 10.119766,2.469688 10.065986,2.417418 10.009286,2.368283 9.9533583,2.318276 9.8770513,2.250136 9.8007289,2.182241 9.7202842,2.118288 9.6694032,2.077748 9.6160592,2.040208 9.5636955,2.001499 9.4734315,1.934949 9.3826346,1.868877 9.2877275,1.807713 9.1893805,1.744113 9.0895969,1.683056 8.9869536,1.625812 8.9395676,1.599492 8.8916576,1.574322 8.8432849,1.549332 8.7379117,1.494672 8.6306527,1.442607 8.5213222,1.394819 8.4656142,1.370549 8.4086552,1.348099 8.3518139,1.325569 8.2588279,1.288649 8.1645979,1.254579 8.0691275,1.222733 7.9637874,1.187553 7.8569645,1.154203 7.7481986,1.125063 l 5.291e-4,-0.0021 C 7.3024815,1.004586 6.8332861,0.940585 6.3487459,0.940585 c -1.4981581,0 -2.8497871,0.60279 -3.8273758,1.580266 C 2.2769705,2.7652169 2.055948,3.0331875 1.8619386,3.3207986 1.2799107,4.1836315 0.94049505,5.2250307 0.94049505,6.3485208 c 0,2.5111308 1.69491215,4.6113312 4.00773695,5.2255212 l 5.291e-4,-0.0021 c 0.1808824,0.04846 0.3623448,0.08739 0.5431502,0.116785 0.051075,0.0083 0.1019582,0.01437 0.152971,0.02119 0.049735,0.0064 0.099196,0.01354 0.1493538,0.0186 0.1822598,0.0184 0.3672499,0.02791 0.5545198,0.02791 z"
         id="path31-6-9" />
      <rect
         y="5.0873694"
         x="5.4112091"
         height="1.2654725"
         width="1.8749022"
         id="rect1139-2-1"
         style="opacity:1;vector-effect:none;fill:#2098f4;fill-opacity:1;stroke:none;stroke-width:0.13229164;stroke-linecap:butt;stroke-linejoin:miter;stroke-miterlimit:4;stroke-dasharray:none;stroke-dashoffset:0;stroke-opacity:1" />
      <rect
         style="opacity:1;vector-effect:none;fill:#3ccdfb;fill-opacity:1;stroke:none;stroke-width:0.13229164;stroke-linecap:butt;stroke-linejoin:miter;stroke-miterlimit:4;stroke-dasharray:none;stroke-dashoffset:0;stroke-opacity:1"
         id="rect1141-6-2"
         width="1.8749022"
         height="1.2654725"
         x="5.4112091"
         y="3.4664149" />
      <path
         inkscape:connector-curvature="0"
         id="rect1145-1-7"
         d="M 3.7605044,6.6428074 6.3488538,9.230713 8.9368164,6.6428074 H 7.8307239 L 6.3488538,8.1250294 4.8665969,6.6428074 Z"
         style="opacity:1;vector-effect:none;fill:#1d90f3;fill-opacity:1;stroke:none;stroke-width:0.13229164;stroke-linecap:butt;stroke-linejoin:miter;stroke-miterlimit:4;stroke-dasharray:none;stroke-dashoffset:0;stroke-opacity:1" />
    </g>
  </g>
</svg>
