<?xml version="1.0" encoding="UTF-8" standalone="no"?>
<svg
   xmlns:dc="http://purl.org/dc/elements/1.1/"
   xmlns:cc="http://creativecommons.org/ns#"
   xmlns:rdf="http://www.w3.org/1999/02/22-rdf-syntax-ns#"
   xmlns:svg="http://www.w3.org/2000/svg"
   xmlns="http://www.w3.org/2000/svg"
   xmlns:xlink="http://www.w3.org/1999/xlink"
   width="48"
   height="48"
   id="svg5453"
   version="1.1">
  <defs
     id="defs5455">
    <linearGradient
       id="linearGradient4627">
      <stop
         id="stop4623"
         offset="0"
         style="stop-color:#c1cede;stop-opacity:1;" />
      <stop
         id="stop4625"
         offset="1"
         style="stop-color:#c1e9e4;stop-opacity:1" />
    </linearGradient>
    <linearGradient
       id="linearGradient923">
      <stop
         style="stop-color:#2f4e6d;stop-opacity:1;"
         offset="0"
         id="stop919" />
      <stop
         style="stop-color:#3b6289;stop-opacity:1"
         offset="1"
         id="stop921" />
    </linearGradient>
    <linearGradient
       id="linearGradient4460">
      <stop
         style="stop-color:#ffffff;stop-opacity:1;"
         offset="0"
         id="stop4462" />
      <stop
         style="stop-color:#ffffff;stop-opacity:0;"
         offset="1"
         id="stop4464" />
    </linearGradient>
    <linearGradient
       id="linearGradient4159">
      <stop
         id="stop4161"
         offset="0"
         style="stop-color:#2a2c2f;stop-opacity:1" />
      <stop
         id="stop4163"
         offset="1"
         style="stop-color:#424649;stop-opacity:1" />
    </linearGradient>
    <linearGradient
       gradientTransform="translate(-384.57143,-499.798)"
       xlink:href="#linearGradient4159"
       id="linearGradient4250"
       x1="409.57144"
       y1="536.79797"
       x2="409.57144"
       y2="503.798"
       gradientUnits="userSpaceOnUse" />
    <linearGradient
       gradientTransform="translate(-418.43459,-475.57396)"
       xlink:href="#linearGradient4460"
       id="linearGradient4476"
       x1="431.57144"
       y1="500.798"
       x2="424.57144"
       y2="505.798"
       gradientUnits="userSpaceOnUse" />
    <linearGradient
       gradientTransform="translate(-418.43459,-475.57396)"
       xlink:href="#linearGradient4460"
       id="linearGradient4510"
       x1="436.57144"
       y1="512.79797"
       x2="427.57144"
       y2="516.79797"
       gradientUnits="userSpaceOnUse" />
    <linearGradient
       gradientTransform="translate(-418.43459,-475.57396)"
       xlink:href="#linearGradient4460"
       id="linearGradient4552"
       x1="377.57144"
       y1="518.79797"
       x2="391.57144"
       y2="520.79797"
       gradientUnits="userSpaceOnUse" />
    <linearGradient
       gradientTransform="translate(-404.12683,-510.46458)"
       xlink:href="#linearGradient4460"
       id="linearGradient4552-6"
       x1="377.57144"
       y1="518.79797"
       x2="391.57144"
       y2="520.79797"
       gradientUnits="userSpaceOnUse" />
    <linearGradient
       gradientTransform="translate(-419.00001,-506.71113)"
       gradientUnits="userSpaceOnUse"
       x2="425.21"
       y2="513.95"
       x1="395.91"
       y1="525.26"
       id="a">
      <stop
         id="stop2"
         stop-color="#da4453" />
      <stop
         id="stop4"
         stop-color="#ff7336"
         offset="1" />
    </linearGradient>
    <linearGradient
       gradientUnits="userSpaceOnUse"
       x2="44"
       y2="33.75"
       x1="26.362"
       y1="44.09"
       id="b">
      <stop
         id="stop7"
         stop-color="#c0392b" />
      <stop
         id="stop9"
         stop-opacity="0"
         stop-color="#c0392b"
         offset="1" />
    </linearGradient>
    <linearGradient
       gradientUnits="userSpaceOnUse"
       x2="398.82"
       y2="528.52"
       x1="388.57"
       y1="519.85"
       id="c">
      <stop
         id="stop12"
         stop-color="#4d4d4d" />
      <stop
         id="stop14"
         stop-color="#31363b"
         offset="1" />
    </linearGradient>
    <linearGradient
       gradientUnits="userSpaceOnUse"
       x2="422.73"
       y2="537.95"
       x1="394.57"
       y1="509.8"
       id="d">
      <stop
         id="stop17"
         stop-color="#e5e7e8" />
      <stop
         id="stop19"
         stop-color="#dcdee0"
         offset="1" />
    </linearGradient>
    <linearGradient
       gradientTransform="matrix(0.70711,0.70711,-0.70711,0.70711,105.48,-635.29)"
       gradientUnits="userSpaceOnUse"
       x2="427.57"
       x1="389.57"
       id="e">
      <stop
         id="stop22"
         stop-color="#fcfcfc" />
      <stop
         id="stop24"
         stop-color="#eff0f1"
         offset="1" />
    </linearGradient>
    <linearGradient
       gradientTransform="translate(-444.75968,-516.38672)"
       x2="799.04"
       gradientUnits="userSpaceOnUse"
       y2="160.66"
       x1="771.7"
       y1="133.33"
       id="f"
       xlink:href="#d" />
    <linearGradient
       gradientTransform="matrix(0.49677,0,0,0.76923,-191.25657,-404.02657)"
       x2="0"
       gradientUnits="userSpaceOnUse"
       y2="528.8"
       y1="551.8"
       id="g">
      <stop
         id="stop28"
         stop-color="#c6cdd1" />
      <stop
         id="stop30"
         stop-color="#e0e5e7"
         offset="1" />
    </linearGradient>
    <linearGradient
       gradientTransform="matrix(0.61141,0,0,0.76923,-238.90657,-386.33657)"
       x2="0"
       gradientUnits="userSpaceOnUse"
       y2="505.8"
       y1="557.8"
       id="h">
      <stop
         id="stop33"
         stop-color="#42a603" />
      <stop
         id="stop35"
         stop-color="#78da06"
         offset="1" />
    </linearGradient>
    <linearGradient
       gradientTransform="matrix(1.5625 0 0 1.53847-227.95-292.82)"
       gradientUnits="userSpaceOnUse"
       x2="400.57"
       x1="398.57"
       id="i">
      <stop
         id="stop38"
         stop-color="#faae2a" />
      <stop
         id="stop40"
         stop-color="#ffc35a"
         offset="1" />
    </linearGradient>
    <linearGradient
       gradientTransform="matrix(1.5625,0,0,1.53847,-604.39657,-793.87657)"
       x2="400.57"
       gradientUnits="userSpaceOnUse"
       x1="398.57"
       id="j"
       xlink:href="#i" />
    <linearGradient
       gradientTransform="matrix(1.1580635,0,0,1.4383458,-439.42451,-734.17514)"
       gradientUnits="userSpaceOnUse"
       x2="390.65"
       y2="529.73"
       x1="410.5"
       y1="539.88"
       id="k">
      <stop
         id="stop44"
         stop-color="#bcfd93" />
      <stop
         id="stop46"
         stop-color="#fafff5"
         offset="1" />
    </linearGradient>
    <linearGradient
       gradientTransform="matrix(1,0,0,1.0440589,7.9999935,-1.176223)"
       gradientUnits="userSpaceOnUse"
       x2="34.19"
       y2="54.612"
       x1="14.187"
       y1="34.612"
       id="l">
      <stop
         id="stop49"
         stop-color="#383e51" />
      <stop
         id="stop51"
         stop-opacity="0"
         stop-color="#655c6f"
         offset="1" />
    </linearGradient>
    <linearGradient
       gradientTransform="matrix(0.61141,0,0,0.76923,-238.90657,-386.33657)"
       x2="0"
       gradientUnits="userSpaceOnUse"
       y2="505.79999"
       y1="557.79999"
       id="h-7">
      <stop
         id="stop33-5"
         stop-color="#42a603" />
      <stop
         id="stop35-3"
         stop-color="#78da06"
         offset="1" />
    </linearGradient>
    <linearGradient
       gradientTransform="matrix(0.49677,0,0,0.76923,-191.25657,-404.02657)"
       x2="0"
       gradientUnits="userSpaceOnUse"
       y2="528.79999"
       y1="551.79999"
       id="g-5">
      <stop
         id="stop28-6"
         stop-color="#c6cdd1" />
      <stop
         id="stop30-2"
         stop-color="#e0e5e7"
         offset="1" />
    </linearGradient>
    <linearGradient
       gradientTransform="matrix(1.5625,0,0,1.53847,-227.95,-292.82)"
       gradientUnits="userSpaceOnUse"
       x2="400.57001"
       x1="398.57001"
       id="i-9">
      <stop
         id="stop38-1"
         stop-color="#faae2a" />
      <stop
         id="stop40-2"
         stop-color="#ffc35a"
         offset="1" />
    </linearGradient>
    <linearGradient
       gradientTransform="matrix(1.5625,0,0,1.53847,-604.39657,-793.87657)"
       x2="400.57001"
       gradientUnits="userSpaceOnUse"
       x1="398.57001"
       id="j-7"
       xlink:href="#i-9" />
    <linearGradient
       gradientTransform="matrix(1.5625,0,0,1.53847,-227.95,-292.82)"
       gradientUnits="userSpaceOnUse"
       x2="400.57001"
       x1="398.57001"
       id="linearGradient1040">
      <stop
         id="stop1036"
         stop-color="#faae2a" />
      <stop
         id="stop1038"
         stop-color="#ffc35a"
         offset="1" />
    </linearGradient>
    <linearGradient
       gradientTransform="matrix(0.61141,0,0,0.80312143,-229.65001,-403.22242)"
       x2="0"
       gradientUnits="userSpaceOnUse"
       y2="505.79999"
       y1="557.79999"
       id="h-7-6">
      <stop
         id="stop33-5-1"
         stop-color="#42a603" />
      <stop
         id="stop35-3-8"
         stop-color="#78da06"
         offset="1" />
    </linearGradient>
    <linearGradient
       gradientTransform="matrix(0.49677,0,0,0.80312143,-182.00001,-421.69183)"
       x2="0"
       gradientUnits="userSpaceOnUse"
       y2="528.79999"
       y1="551.79999"
       id="g-5-7">
      <stop
         id="stop28-6-9"
         stop-color="#c6cdd1" />
      <stop
         id="stop30-2-2"
         stop-color="#e0e5e7"
         offset="1" />
    </linearGradient>
    <linearGradient
       gradientTransform="matrix(1.5625,0,0,1.53847,-227.95,-292.82)"
       gradientUnits="userSpaceOnUse"
       x2="400.57001"
       x1="398.57001"
       id="i-9-0">
      <stop
         id="stop38-1-2"
         stop-color="#faae2a" />
      <stop
         id="stop40-2-3"
         stop-color="#ffc35a"
         offset="1" />
    </linearGradient>
    <linearGradient
       gradientTransform="matrix(1.5625,0,0,1.6062533,-595.14001,-828.71819)"
       x2="400.57001"
       gradientUnits="userSpaceOnUse"
       x1="398.57001"
       id="j-7-7"
       xlink:href="#i-9-0" />
    <linearGradient
       gradientTransform="matrix(1.5625,0,0,1.53847,-227.95,-292.82)"
       gradientUnits="userSpaceOnUse"
       x2="400.57001"
       x1="398.57001"
       id="linearGradient1181">
      <stop
         id="stop1177"
         stop-color="#faae2a" />
      <stop
         id="stop1179"
         stop-color="#ffc35a"
         offset="1" />
    </linearGradient>
    <linearGradient
       y2="32"
       x2="16"
       y1="28"
       x1="16"
       gradientTransform="matrix(1.4957657,0,0,1.4929428,-29.662539,39.016054)"
       gradientUnits="userSpaceOnUse"
       id="linearGradient4580"
       xlink:href="#Shadow" />
    <linearGradient
       id="Shadow">
      <stop
         id="stop4181"
         offset="0"
         style="stop-color:#000000;stop-opacity:1;" />
      <stop
         id="stop4183"
         offset="1"
         style="stop-color:#000000;stop-opacity:0;" />
    </linearGradient>
    <radialGradient
       r="1.5"
       fy="31.14706"
       fx="0.55971527"
       cy="31.14706"
       cx="0.55971527"
       gradientTransform="matrix(-2.9915311,3.6322988e-6,-4.8343067e-6,-3.9811807,-28.697225,176.92328)"
       gradientUnits="userSpaceOnUse"
       id="radialGradient4578"
       xlink:href="#Shadow" />
    <radialGradient
       r="1.5"
       fy="28.5"
       fx="28"
       cy="28.5"
       cx="28"
       gradientTransform="matrix(4.6535452e-7,3.9811817,-2.991531,3.4835705e-7,93.776742,-58.551856)"
       gradientUnits="userSpaceOnUse"
       id="radialGradient4576"
       xlink:href="#Shadow" />
    <linearGradient
       gradientTransform="matrix(1.9428283,0,0,-2.0322109,56.973717,2125.7126)"
       y2="1036.3622"
       x2="14"
       y1="1031.3622"
       x1="10"
       gradientUnits="userSpaceOnUse"
       id="linearGradient4504"
       xlink:href="#Shadow" />
    <linearGradient
       gradientTransform="matrix(1.5864671,0,0,1.4284839,67.469253,-1460.2763)"
       gradientUnits="userSpaceOnUse"
       y2="1036.3622"
       x2="18"
       y1="1032.3622"
       x1="15"
       id="linearGradient4498"
       xlink:href="#Shadow" />
    <radialGradient
       gradientTransform="matrix(0.50000242,0,0,0.50000542,-3.5000529,522.67592)"
       gradientUnits="userSpaceOnUse"
       r="6.0000005"
       fy="1031.3624"
       fx="23.000006"
       cy="1031.3624"
       cx="23.000006"
       id="radialGradient4205"
       xlink:href="#linearGradient4164" />
    <linearGradient
       id="linearGradient4164">
      <stop
         style="stop-color:#000000;stop-opacity:1;"
         offset="0"
         id="stop4166" />
      <stop
         id="stop4170"
         offset="0.66666573"
         style="stop-color:#000000;stop-opacity:1" />
      <stop
         style="stop-color:#000000;stop-opacity:0;"
         offset="1"
         id="stop4168" />
    </linearGradient>
    <radialGradient
       r="6.0000005"
       fy="1031.3624"
       fx="23.000006"
       cy="1031.3624"
       cx="23.000006"
       gradientTransform="matrix(0.50000242,0,0,0.50000542,4.4999471,522.67592)"
       gradientUnits="userSpaceOnUse"
       id="radialGradient4282"
       xlink:href="#linearGradient4164" />
    <radialGradient
       r="6.0000005"
       fy="1031.3624"
       fx="23.000006"
       cy="1031.3624"
       cx="23.000006"
       gradientTransform="matrix(0.50000242,0,0,0.50000542,12.499947,522.67592)"
       gradientUnits="userSpaceOnUse"
       id="radialGradient4290"
       xlink:href="#linearGradient4164" />
    <linearGradient
       xlink:href="#linearGradient923"
       id="linearGradient925"
       x1="24.138405"
       y1="35.79874"
       x2="24.276943"
       y2="6.2055192"
       gradientUnits="userSpaceOnUse" />
    <linearGradient
       gradientUnits="userSpaceOnUse"
       y2="8.2697573"
       x2="24.414061"
       y1="33.229767"
       x1="24.414061"
       id="linearGradient4629"
       xlink:href="#linearGradient4627" />
  </defs>
  <metadata
     id="metadata5458">
    <rdf:RDF>
      <cc:Work
         rdf:about="">
        <dc:format>image/svg+xml</dc:format>
        <dc:type
           rdf:resource="http://purl.org/dc/dcmitype/StillImage" />
        <dc:title></dc:title>
      </cc:Work>
    </rdf:RDF>
  </metadata>
  <path
     id="rect4254"
     d="m 18,37 v 7 2 2 h 12 v -2 -2 -7 z"
     style="opacity:1;fill:#999999;fill-opacity:1;stroke:none;stroke-width:2.79999995;stroke-miterlimit:4;stroke-dasharray:none;stroke-opacity:0.55026455" />
  <rect
     y="4.0000043"
     x="1.1650391e-05"
     height="35.999996"
     width="48"
     id="rect4173"
     style="opacity:1;fill:#4d4d4d;fill-opacity:1;stroke:none;stroke-width:2.79999995;stroke-miterlimit:4;stroke-dasharray:none;stroke-opacity:0.55026455" />
  <rect
     y="46.999973"
     x="13.000011"
     height="0.99997365"
     width="22"
     id="rect4295"
     style="opacity:1;fill:#797474;fill-opacity:1;stroke:none;stroke-width:2.79999995;stroke-miterlimit:4;stroke-dasharray:none;stroke-opacity:0.55026455" />
  <path
     d="m 25,38 a 1,1 0 0 1 -1,1 1,1 0 0 1 -1,-1 1,1 0 0 1 1,-1 1,1 0 0 1 1,1 z"
     id="path3072"
     style="opacity:0.75;fill:#dfdfdf;fill-opacity:1;fill-rule:evenodd;stroke:none" />
  <rect
     ry="0"
     y="6.1951776"
     x="2.6807773"
     height="29.715599"
     width="42.850403"
     id="rect4228"
     style="opacity:1;fill:url(#linearGradient925);fill-opacity:1;stroke:none;stroke-width:0.73175281;stroke-opacity:1" />
  <g
     transform="translate(-118.42173,38.561242)"
     id="layer2"
     style="display:inline" />
  <g
     transform="translate(-118.42173,38.561242)"
     id="layer1"
     style="display:inline" />
  <g
     style="fill:#c1cede;fill-opacity:1"
     id="g1013"
     transform="matrix(0.78226832,0,0,0.78226832,4.9877557,5.4886314)">
    <path
       style="fill:url(#linearGradient4629);fill-opacity:1;stroke:none;stroke-width:0.00591159"
       d="m 34.127668,8.1736566 c -0.443427,0.086298 -0.935449,0.2934132 -1.28776,0.546554 -0.194379,0.1323236 -1.876971,1.6971944 -3.747868,3.4691804 l -3.389482,3.221792 0.127561,0.166842 c 0.07289,0.09205 0.297643,0.310673 0.50417,0.477516 l 0.364461,0.30492 3.596009,-3.405895 c 3.267995,-3.0894686 3.608158,-3.4001414 3.790388,-3.4001414 0.255123,0 0.437353,0.172596 0.437353,0.4142304 0,0.166843 -0.334089,0.500529 -3.596009,3.59575 l -3.602084,3.411648 0.54669,0.517788 0.546691,0.517788 3.614232,-3.423154 c 2.690933,-2.548668 3.650679,-3.423154 3.753943,-3.423154 0.170081,0 0.498095,0.293413 0.498095,0.442996 0,0.05753 -1.506436,1.530352 -3.626381,3.538218 l -3.632455,3.440414 0.50417,0.471762 0.498096,0.477516 3.523117,-3.336856 C 35.494394,14.3641 37.158763,12.741698 37.255953,12.597868 37.839089,11.746394 37.88161,10.578495 37.365291,9.652229 37.128392,9.2379986 36.59385,8.7202106 36.17472,8.501589 35.573361,8.1909162 34.741176,8.0585926 34.127668,8.1736566 Z"
       id="path835-2" />
    <path
       style="fill:url(#linearGradient4629);fill-opacity:1;stroke:none;stroke-width:0.00591159"
       d="m 16.329851,8.2369418 c -0.394832,0.074792 -1.245239,0.3394388 -1.245239,0.3854644 0,0.023013 0.850407,0.8457204 1.88912,1.8237648 1.227016,1.156393 1.93164,1.864037 2.004532,2.01362 0.145784,0.299166 0.145784,0.793942 0,1.093108 -0.151859,0.30492 -1.968086,2.007867 -2.265729,2.128684 -0.267271,0.103558 -0.637806,0.109311 -0.984043,0.01726 -0.206528,-0.05753 -0.558839,-0.356699 -2.174614,-1.875544 -1.88912,-1.777738 -1.925566,-1.812258 -1.986309,-1.662674 -0.230825,0.569566 -0.27942,0.891746 -0.27942,1.881296 0,0.874486 0.01822,1.070095 0.13971,1.495832 0.285494,0.98955 0.78359,1.812258 1.561106,2.577434 0.783589,0.782435 1.706889,1.300223 2.842791,1.599389 0.467724,0.126571 0.710697,0.155337 1.524659,0.172596 l 0.971894,0.01726 6.772889,6.409065 c 5.211784,4.930492 6.85793,6.449337 7.113053,6.587414 0.807887,0.419983 1.949863,0.55806 2.75775,0.333685 2.259654,-0.632852 3.340887,-2.939885 2.302175,-4.895973 -0.08504,-0.16109 -0.285494,-0.442996 -0.449501,-0.632852 -0.157933,-0.189856 -3.195103,-3.089468 -6.742518,-6.443584 l -6.450949,-6.098392 -0.01215,-1.064342 c -0.0061,-0.909006 -0.03037,-1.127627 -0.145784,-1.524598 C 22.847618,10.48069 21.304736,8.9848578 19.124048,8.3692654 18.650249,8.2369418 18.449796,8.213929 17.605463,8.1966694 17.070921,8.185163 16.499933,8.2081758 16.329851,8.2369418 Z M 35.008447,28.442181 c 1.415321,0.667371 1.354578,2.542914 -0.115412,3.210285 -0.413056,0.189856 -1.075159,0.184103 -1.530734,-0.01726 -1.251314,-0.546554 -1.506436,-2.065399 -0.485947,-2.939886 0.625657,-0.535047 1.348503,-0.621345 2.132093,-0.25314 z"
       id="path837-9" />
    <path
       style="fill:url(#linearGradient4629);fill-opacity:1;stroke:none;stroke-width:0.00591159"
       d="m 18.127856,25.283674 -2.022755,1.915815 -0.850408,0.166843 c -0.467724,0.09205 -0.86863,0.178349 -0.899002,0.195609 -0.06682,0.04603 -3.170805,4.504756 -3.201177,4.60256 -0.01215,0.05178 0.218676,0.316426 0.570988,0.644358 l 0.595285,0.558061 2.399364,-1.495832 c 1.318132,-0.822708 2.429736,-1.530351 2.466182,-1.564871 0.04252,-0.04027 0.145785,-0.43149 0.2369,-0.874486 l 0.170081,-0.805448 2.040978,-1.944582 2.040979,-1.938828 -0.728921,-0.690384 c -0.400907,-0.379711 -0.74107,-0.690384 -0.759293,-0.690384 -0.01822,0 -0.941522,0.86298 -2.059201,1.921569 z"
       id="path839-1" />
  </g>
</svg>
