<?xml version="1.0" encoding="UTF-8" standalone="no"?>
<svg
   xmlns:dc="http://purl.org/dc/elements/1.1/"
   xmlns:cc="http://creativecommons.org/ns#"
   xmlns:rdf="http://www.w3.org/1999/02/22-rdf-syntax-ns#"
   xmlns:svg="http://www.w3.org/2000/svg"
   xmlns="http://www.w3.org/2000/svg"
   xmlns:xlink="http://www.w3.org/1999/xlink"
   xmlns:sodipodi="http://sodipodi.sourceforge.net/DTD/sodipodi-0.dtd"
   xmlns:inkscape="http://www.inkscape.org/namespaces/inkscape"
   width="48"
   height="48"
   viewBox="0 0 48 48"
   version="1.1"
   id="svg102"
   sodipodi:docname="tagainijisho.svg"
   inkscape:version="0.92.2 2405546, 2018-03-11">
  <sodipodi:namedview
     pagecolor="#ffffff"
     bordercolor="#666666"
     borderopacity="1"
     objecttolerance="10"
     gridtolerance="10"
     guidetolerance="10"
     inkscape:pageopacity="0"
     inkscape:pageshadow="2"
     inkscape:window-width="1366"
     inkscape:window-height="699"
     id="namedview82"
     showgrid="false"
     inkscape:zoom="10.145833"
     inkscape:cx="24"
     inkscape:cy="24"
     inkscape:window-x="0"
     inkscape:window-y="0"
     inkscape:window-maximized="1"
     inkscape:current-layer="svg102" />
  <metadata
     id="metadata106">
    <rdf:RDF>
      <cc:Work
         rdf:about="">
        <dc:format>image/svg+xml</dc:format>
        <dc:type
           rdf:resource="http://purl.org/dc/dcmitype/StillImage" />
        <dc:title />
      </cc:Work>
    </rdf:RDF>
  </metadata>
  <defs
     id="defs54">
    <linearGradient
       inkscape:collect="always"
       id="linearGradient950">
      <stop
         style="stop-color:#d2d2d2;stop-opacity:1"
         offset="0"
         id="stop946" />
      <stop
         style="stop-color:#ebebeb;stop-opacity:1"
         offset="1"
         id="stop948" />
    </linearGradient>
    <linearGradient
       id="a"
       y1="525.26"
       x1="395.91"
       y2="513.95"
       x2="425.21"
       gradientUnits="userSpaceOnUse"
       gradientTransform="translate(-419.00001,-506.71113)">
      <stop
         stop-color="#da4453"
         id="stop2" />
      <stop
         offset="1"
         stop-color="#ff7336"
         id="stop4" />
    </linearGradient>
    <linearGradient
       id="b"
       y1="44.09"
       x1="26.362"
       y2="33.75"
       x2="44"
       gradientUnits="userSpaceOnUse">
      <stop
         stop-color="#c0392b"
         id="stop7" />
      <stop
         offset="1"
         stop-color="#c0392b"
         stop-opacity="0"
         id="stop9" />
    </linearGradient>
    <linearGradient
       id="c"
       y1="519.85"
       x1="388.57"
       y2="528.52"
       x2="398.82"
       gradientUnits="userSpaceOnUse">
      <stop
         stop-color="#4d4d4d"
         id="stop12" />
      <stop
         offset="1"
         stop-color="#31363b"
         id="stop14" />
    </linearGradient>
    <linearGradient
       id="d"
       y1="509.8"
       x1="394.57"
       y2="537.95"
       x2="422.73"
       gradientUnits="userSpaceOnUse">
      <stop
         stop-color="#e5e7e8"
         id="stop17" />
      <stop
         offset="1"
         stop-color="#dcdee0"
         id="stop19" />
    </linearGradient>
    <linearGradient
       id="e"
       x1="389.57"
       x2="427.57"
       gradientUnits="userSpaceOnUse"
       gradientTransform="matrix(0.70711,0.70711,-0.70711,0.70711,105.48,-635.29)">
      <stop
         stop-color="#fcfcfc"
         id="stop22" />
      <stop
         offset="1"
         stop-color="#eff0f1"
         id="stop24" />
    </linearGradient>
    <linearGradient
       xlink:href="#d"
       id="f"
       y1="133.33"
       x1="771.7"
       y2="160.66"
       gradientUnits="userSpaceOnUse"
       x2="799.04"
       gradientTransform="translate(-444.75968,-516.38672)" />
    <linearGradient
       id="g"
       y1="551.8"
       y2="528.8"
       gradientUnits="userSpaceOnUse"
       x2="0"
       gradientTransform="matrix(0.49677,0,0,0.76923,-191.25657,-404.02657)">
      <stop
         stop-color="#c6cdd1"
         id="stop28" />
      <stop
         offset="1"
         stop-color="#e0e5e7"
         id="stop30" />
    </linearGradient>
    <linearGradient
       id="h"
       y1="557.8"
       y2="505.8"
       gradientUnits="userSpaceOnUse"
       x2="0"
       gradientTransform="matrix(0.61141,0,0,0.76923,-238.90657,-386.33657)">
      <stop
         stop-color="#42a603"
         id="stop33" />
      <stop
         offset="1"
         stop-color="#78da06"
         id="stop35" />
    </linearGradient>
    <linearGradient
       id="i"
       x1="398.57"
       x2="400.57"
       gradientUnits="userSpaceOnUse"
       gradientTransform="matrix(1.5625 0 0 1.53847-227.95-292.82)">
      <stop
         stop-color="#faae2a"
         id="stop38" />
      <stop
         offset="1"
         stop-color="#ffc35a"
         id="stop40" />
    </linearGradient>
    <linearGradient
       xlink:href="#i"
       id="j"
       x1="398.57"
       gradientUnits="userSpaceOnUse"
       x2="400.57"
       gradientTransform="matrix(1.5625,0,0,1.53847,-604.39657,-793.87657)" />
    <linearGradient
       id="k"
       y1="539.88"
       x1="410.5"
       y2="529.73"
       x2="390.65"
       gradientUnits="userSpaceOnUse"
       gradientTransform="matrix(1.1580635,0,0,1.4383458,-439.42451,-734.17514)">
      <stop
         stop-color="#bcfd93"
         id="stop44" />
      <stop
         offset="1"
         stop-color="#fafff5"
         id="stop46" />
    </linearGradient>
    <linearGradient
       id="l"
       y1="34.612"
       x1="14.187"
       y2="54.612"
       x2="34.19"
       gradientUnits="userSpaceOnUse"
       gradientTransform="matrix(1,0,0,1.0440589,7.9999935,-1.176223)">
      <stop
         stop-color="#383e51"
         id="stop49" />
      <stop
         offset="1"
         stop-color="#655c6f"
         stop-opacity="0"
         id="stop51" />
    </linearGradient>
    <linearGradient
       id="h-7"
       y1="557.79999"
       y2="505.79999"
       gradientUnits="userSpaceOnUse"
       x2="0"
       gradientTransform="matrix(0.61141,0,0,0.76923,-238.90657,-386.33657)">
      <stop
         stop-color="#42a603"
         id="stop33-5" />
      <stop
         offset="1"
         stop-color="#78da06"
         id="stop35-3" />
    </linearGradient>
    <linearGradient
       id="g-5"
       y1="551.79999"
       y2="528.79999"
       gradientUnits="userSpaceOnUse"
       x2="0"
       gradientTransform="matrix(0.49677,0,0,0.76923,-191.25657,-404.02657)">
      <stop
         stop-color="#c6cdd1"
         id="stop28-6" />
      <stop
         offset="1"
         stop-color="#e0e5e7"
         id="stop30-2" />
    </linearGradient>
    <linearGradient
       id="i-9"
       x1="398.57001"
       x2="400.57001"
       gradientUnits="userSpaceOnUse"
       gradientTransform="matrix(1.5625,0,0,1.53847,-227.95,-292.82)">
      <stop
         stop-color="#faae2a"
         id="stop38-1" />
      <stop
         offset="1"
         stop-color="#ffc35a"
         id="stop40-2" />
    </linearGradient>
    <linearGradient
       xlink:href="#i-9"
       id="j-7"
       x1="398.57001"
       gradientUnits="userSpaceOnUse"
       x2="400.57001"
       gradientTransform="matrix(1.5625,0,0,1.53847,-604.39657,-793.87657)" />
    <linearGradient
       id="linearGradient1040"
       x1="398.57001"
       x2="400.57001"
       gradientUnits="userSpaceOnUse"
       gradientTransform="matrix(1.5625,0,0,1.53847,-227.95,-292.82)">
      <stop
         stop-color="#faae2a"
         id="stop1036" />
      <stop
         offset="1"
         stop-color="#ffc35a"
         id="stop1038" />
    </linearGradient>
    <linearGradient
       id="c-0"
       y1="519.84998"
       x1="388.57001"
       y2="528.52002"
       x2="398.82001"
       gradientUnits="userSpaceOnUse">
      <stop
         stop-color="#4d4d4d"
         id="stop12-9" />
      <stop
         offset="1"
         stop-color="#31363b"
         id="stop14-3" />
    </linearGradient>
    <linearGradient
       id="h-7-6"
       y1="557.79999"
       y2="505.79999"
       gradientUnits="userSpaceOnUse"
       x2="0"
       gradientTransform="matrix(0.61141,0,0,0.80312143,-229.65001,-403.22242)">
      <stop
         stop-color="#42a603"
         id="stop33-5-1" />
      <stop
         offset="1"
         stop-color="#78da06"
         id="stop35-3-8" />
    </linearGradient>
    <linearGradient
       id="g-5-7"
       y1="551.79999"
       y2="528.79999"
       gradientUnits="userSpaceOnUse"
       x2="0"
       gradientTransform="matrix(0.49677,0,0,0.80312143,-182.00001,-421.69183)">
      <stop
         stop-color="#c6cdd1"
         id="stop28-6-9" />
      <stop
         offset="1"
         stop-color="#e0e5e7"
         id="stop30-2-2" />
    </linearGradient>
    <linearGradient
       id="i-9-0"
       x1="398.57001"
       x2="400.57001"
       gradientUnits="userSpaceOnUse"
       gradientTransform="matrix(1.5625,0,0,1.53847,-227.95,-292.82)">
      <stop
         stop-color="#faae2a"
         id="stop38-1-2" />
      <stop
         offset="1"
         stop-color="#ffc35a"
         id="stop40-2-3" />
    </linearGradient>
    <linearGradient
       xlink:href="#i-9-0"
       id="j-7-7"
       x1="398.57001"
       gradientUnits="userSpaceOnUse"
       x2="400.57001"
       gradientTransform="matrix(1.5625,0,0,1.6062533,-595.14001,-828.71819)" />
    <linearGradient
       id="linearGradient1181"
       x1="398.57001"
       x2="400.57001"
       gradientUnits="userSpaceOnUse"
       gradientTransform="matrix(1.5625,0,0,1.53847,-227.95,-292.82)">
      <stop
         stop-color="#faae2a"
         id="stop1177" />
      <stop
         offset="1"
         stop-color="#ffc35a"
         id="stop1179" />
    </linearGradient>
    <linearGradient
       id="c-0-5"
       y1="519.84998"
       x1="388.57001"
       y2="528.52002"
       x2="398.82001"
       gradientUnits="userSpaceOnUse">
      <stop
         stop-color="#4d4d4d"
         id="stop12-9-9" />
      <stop
         offset="1"
         stop-color="#31363b"
         id="stop14-3-2" />
    </linearGradient>
    <linearGradient
       gradientUnits="userSpaceOnUse"
       y2="56.212254"
       x2="100.77966"
       y1="162.14445"
       x1="97.651306"
       id="linearGradient892-3"
       xlink:href="#0"
       gradientTransform="matrix(1.39536,0,0,1.39536,-40.989357,-29.971837)" />
    <linearGradient
       id="0"
       gradientUnits="userSpaceOnUse"
       x1="400.51001"
       y1="546.07001"
       x2="400.70001"
       y2="517.77002">
      <stop
         stop-color="#197ff1"
         id="stop828" />
      <stop
         offset="1"
         stop-color="#21c6fb"
         id="stop830" />
    </linearGradient>
    <linearGradient
       xlink:href="#0"
       id="linearGradient855-2"
       x1="130.8252"
       y1="113.94272"
       x2="130.24893"
       y2="85.287224"
       gradientUnits="userSpaceOnUse"
       gradientTransform="matrix(0.3498938,0,0,0.34219531,25.633177,-1.079637)" />
    <linearGradient
       inkscape:collect="always"
       xlink:href="#linearGradient950"
       id="linearGradient952"
       x1="23.655031"
       y1="47.112938"
       x2="23.655031"
       y2="1.2813141"
       gradientUnits="userSpaceOnUse" />
    <linearGradient
       inkscape:collect="always"
       xlink:href="#linearGradient980"
       id="linearGradient982"
       x1="60.123203"
       y1="48.591377"
       x2="60.123203"
       y2="14.685832"
       gradientUnits="userSpaceOnUse" />
    <linearGradient
       inkscape:collect="always"
       id="linearGradient980">
      <stop
         style="stop-color:#197ff1;stop-opacity:1"
         offset="0"
         id="stop976" />
      <stop
         style="stop-color:#1fb8f9;stop-opacity:1"
         offset="1"
         id="stop978" />
    </linearGradient>
    <linearGradient
       inkscape:collect="always"
       xlink:href="#linearGradient980"
       id="linearGradient1043"
       gradientUnits="userSpaceOnUse"
       x1="60.123203"
       y1="48.591377"
       x2="60.123203"
       y2="14.685832" />
    <linearGradient
       inkscape:collect="always"
       xlink:href="#linearGradient980"
       id="linearGradient1045"
       gradientUnits="userSpaceOnUse"
       x1="60.123203"
       y1="48.591377"
       x2="60.123203"
       y2="14.685832" />
  </defs>
  <g
     id="layer2"
     style="display:inline" />
  <g
     id="layer1"
     style="display:inline" />
  <g
     id="g841"
     transform="matrix(0.25075522,0,0,0.24523801,35.911472,6.2705967)" />
  <circle
     style="opacity:1;vector-effect:none;fill:url(#linearGradient952);fill-opacity:1;stroke:none;stroke-width:2.69953847;stroke-linecap:butt;stroke-linejoin:miter;stroke-miterlimit:4;stroke-dasharray:none;stroke-dashoffset:0;stroke-opacity:1;paint-order:stroke fill markers"
     id="path929"
     cx="24"
     cy="24"
     r="23" />
  <g
     id="g956"
     transform="matrix(0.69755496,0,0,0.69296053,-19.325437,2.5661028)"
     style="fill:url(#linearGradient982);fill-opacity:1;stroke-width:1.43832338">
    <path
       id="path914"
       d="m 77.005859,25.683594 c -0.230232,0.0016 -0.445111,0.09517 -0.8125,0.236328 -0.384882,0.171098 -3.044765,0.821549 -5.878906,1.4375 -4.828532,1.026586 -5.249147,1.061105 -6.298828,0.582031 -0.594819,-0.273756 -1.329126,-0.445393 -1.539063,-0.376953 -0.52484,0.171098 -0.593534,1.197724 -0.138671,1.642578 0.209934,0.205317 0.838774,2.497909 1.433593,5.132813 0.839746,3.72993 1.25903,4.961156 1.923828,5.611328 l 0.839844,0.855469 0.875,-0.78711 c 1.119659,-1.060806 2.869802,-1.368124 7.103516,-1.402344 1.959406,0 3.639341,-0.137495 3.779297,-0.308593 0.104969,-0.171097 -0.001,-0.718194 -0.210938,-1.197266 -0.349894,-0.718611 -0.244044,-1.334164 0.595703,-3.695313 0.559828,-1.539878 1.363498,-3.354752 1.81836,-3.970703 0.419872,-0.615952 0.700504,-1.299606 0.560547,-1.470703 C 80.951672,27.801558 80.042204,27.186185 79.0625,26.638672 77.816004,25.932894 77.389581,25.68092 77.005859,25.683594 Z m -2.107421,2.699218 c 0.944713,-0.03422 0.97875,0.377872 0.208984,4.621094 l -0.59375,3.146485 -3.324219,0.582031 c -3.848832,0.684391 -3.638603,0.855946 -4.443359,-2.908203 -0.314903,-1.402999 -0.629406,-2.805307 -0.734375,-3.113281 -0.139959,-0.444855 0.524451,-0.68483 3.603515,-1.300782 2.099362,-0.410634 3.95396,-0.822185 4.128907,-0.890625 0.209937,-0.06844 0.699434,-0.136719 1.154297,-0.136719 z"
       style="fill:url(#linearGradient1043);fill-opacity:1;stroke:none;stroke-width:0.04976933"
       inkscape:connector-curvature="0" />
    <path
       id="path916"
       d="m 59.502897,15.17464 c 1.854437,1.847855 1.749469,2.053172 -1.504543,3.456173 -2.099363,0.889708 -2.204331,0.992366 -1.71448,1.642537 0.279915,0.376415 0.489851,1.50566 0.489851,2.498026 0,1.950513 0.244926,2.155831 1.749469,1.300342 1.049682,-0.581732 2.659193,-0.650171 4.163737,-0.136878 0.839744,0.307976 1.08467,0.547513 1.014691,1.129245 -0.104968,0.615951 -0.419872,0.752829 -2.204331,0.992366 -1.154649,0.136878 -2.729171,0.376415 -3.498937,0.513293 l -1.399576,0.239537 -0.104968,1.779415 c -0.104968,1.950514 -0.349894,1.745196 3.149044,2.361148 1.329597,0.205318 2.099365,0.992366 2.484246,2.463806 0.594819,2.326929 -1.154649,2.361149 -3.708874,0.06844 L 56.5288,31.805333 56.318863,36.151212 c -0.139957,2.395368 -0.244925,5.851541 -0.244925,7.665177 0,4.585416 -0.419873,5.304027 -2.064374,3.55883 -1.049681,-1.095024 -1.399575,-2.737562 -1.084671,-5.201368 0.139958,-1.095025 0.349894,-3.764148 0.489852,-5.885759 l 0.209936,-3.901028 -4.758556,4.48276 c -4.163736,3.935246 -5.738258,5.064488 -5.738258,4.24322 0,-0.102659 1.15465,-1.608317 2.589214,-3.319294 2.659193,-3.216634 7.382759,-10.128981 6.927897,-10.128981 -0.139957,0 -1.889426,0.410634 -3.91881,0.923927 -3.673885,0.889708 -5.808237,0.923928 -5.528322,0 0.104968,-0.239536 2.414267,-1.026586 5.213417,-1.813635 l 5.038471,-1.403001 0.104968,-1.984732 c 0.174947,-2.9771 0.209937,-2.9771 -3.114055,-2.018953 -3.079065,0.889708 -4.688577,1.060806 -4.338683,0.479074 0.139958,-0.205317 1.609512,-1.026586 3.254013,-1.847855 1.67949,-0.821269 4.058768,-2.224269 5.248407,-3.113977 1.924416,-1.368781 2.204331,-1.710977 2.029384,-2.429587 -0.384883,-1.368781 1.084671,-1.026586 2.869129,0.71861 z"
       style="fill:url(#linearGradient1045);fill-opacity:1;stroke:none;stroke-width:0.04976933"
       inkscape:connector-curvature="0" />
  </g>
</svg>
