<?xml version="1.0" encoding="UTF-8" standalone="no"?>
<svg
   xmlns:dc="http://purl.org/dc/elements/1.1/"
   xmlns:cc="http://creativecommons.org/ns#"
   xmlns:rdf="http://www.w3.org/1999/02/22-rdf-syntax-ns#"
   xmlns:svg="http://www.w3.org/2000/svg"
   xmlns="http://www.w3.org/2000/svg"
   xmlns:xlink="http://www.w3.org/1999/xlink"
   height="48"
   width="48"
   version="1.1"
   id="svg30">
  <metadata
     id="metadata36">
    <rdf:RDF>
      <cc:Work
         rdf:about="">
        <dc:format>image/svg+xml</dc:format>
        <dc:type
           rdf:resource="http://purl.org/dc/dcmitype/StillImage" />
        <dc:title></dc:title>
      </cc:Work>
    </rdf:RDF>
  </metadata>
  <defs
     id="defs34">
    <linearGradient
       id="linearGradient853">
      <stop
         id="stop849"
         offset="0"
         style="stop-color:#333333;stop-opacity:1;" />
      <stop
         id="stop851"
         offset="1"
         style="stop-color:#4d4d4d;stop-opacity:1" />
    </linearGradient>
    <linearGradient
       id="a-3"
       gradientTransform="matrix(0.93161886,0,0,1.0102051,-356.63286,-504.32799)"
       gradientUnits="userSpaceOnUse"
       x1="409.57144"
       x2="409.72055"
       y1="542.79797"
       y2="507.47299">
      <stop
         offset="0"
         stop-color="#00a199"
         id="stop2-6"
         style="stop-color:#595959;stop-opacity:1" />
      <stop
         offset="1"
         stop-color="#00f89a"
         stop-opacity=".988235"
         id="stop4-7"
         style="stop-color:#808080;stop-opacity:1" />
    </linearGradient>
    <linearGradient
       id="b-3"
       gradientUnits="userSpaceOnUse"
       x1="3.1466999"
       x2="18.771702"
       y1="1041.4948"
       y2="1041.4948"
       gradientTransform="matrix(0.1859203,0,0,0.1859203,12.28728,14.112737)">
      <stop
         offset="0"
         stop-color="#e6f3ff"
         id="stop7-6" />
      <stop
         offset="1"
         stop-color="#dcffe7"
         id="stop9-7" />
    </linearGradient>
    <linearGradient
       gradientUnits="userSpaceOnUse"
       y2="9.3510618"
       x2="23.843369"
       y1="42.910385"
       x1="23.843369"
       id="linearGradient855"
       xlink:href="#linearGradient853" />
  </defs>
  <linearGradient
     id="a"
     gradientTransform="matrix(0.99999992,0,0,0.97650999,-368.9104,-530.03336)"
     gradientUnits="userSpaceOnUse"
     x1="409.57144"
     x2="409.57144"
     y1="542.79797"
     y2="507.798">
    <stop
       offset="0"
       stop-color="#566069"
       id="stop2" />
    <stop
       offset="1"
       stop-color="#6c7884"
       id="stop4" />
  </linearGradient>
  <linearGradient
     id="b"
     gradientUnits="userSpaceOnUse"
     x1="371.647015773641"
     x2="371.188124314451"
     y1="546.473296635663"
     y2="497.234375569857"
     gradientTransform="matrix(0.65762761,0,0,0.65762761,-205.4389,-360.38348)">
    <stop
       offset="0"
       stop-color="#ccc"
       id="stop7" />
    <stop
       offset="1"
       stop-color="#f5f2f5"
       id="stop9" />
  </linearGradient>
  <path
     id="rect4148-2"
     d="m 2.7586205,3.5172413 c -0.4203047,0 -0.7586207,0.3383449 -0.7586207,0.7586207 v 38.689655 0.758621 c 0,0.420276 0.338316,0.758621 0.7586207,0.758621 H 3.5172412 45.241379 C 45.661684,44.482759 46,44.144414 46,43.724138 V 4.275862 C 46,3.8555862 45.661684,3.5172413 45.241379,3.5172413 H 3.5172412 Z"
     style="fill:#34495e;fill-opacity:1;stroke:none;stroke-width:0.75862068" />
  <g
     style="fill:#ff5555"
     transform="matrix(0.98892453,0,0,0.98892453,62.738697,6.745991)"
     id="g873">
    <circle
       style="opacity:1;fill:#ff5555;fill-opacity:1;stroke:none;stroke-opacity:1"
       id="path4155-0"
       cx="-20.3729"
       cy="-0.7965467"
       r="1" />
    <circle
       style="opacity:1;fill:#ff5555;fill-opacity:1;stroke:none;stroke-opacity:1"
       id="circle858"
       cx="-23.75263"
       cy="-0.7965467"
       r="1" />
    <circle
       style="opacity:1;fill:#ff5555;fill-opacity:1;stroke:none;stroke-opacity:1"
       id="circle860"
       cx="-27.204269"
       cy="-0.86845589"
       r="1" />
    <circle
       r="1"
       cy="-0.7965467"
       cx="-27.13236"
       id="circle856"
       style="opacity:1;fill:#ff5555;fill-opacity:1;stroke:none;stroke-opacity:1" />
  </g>
  <rect
     rx="1.0812595"
     style="fill:url(#linearGradient855);stroke-width:0.65762758;fill-opacity:1"
     height="34.34697"
     ry="1.0812595"
     width="40.99123"
     x="3.5043848"
     y="8.6521521"
     id="rect12-6" />
  <g
     id="g867"
     transform="translate(2.2429611,-0.95187397)">
    <path
       d="m 16.29727,19.77454 c -0.0387,-0.0366 -0.0884,-0.0549 -0.14884,-0.0549 H 9.93309 c -0.0604,0 -0.11006,0.0184 -0.14892,0.0549 -0.0389,0.0366 -0.0582,0.0833 -0.0582,0.14023 V 20.305 c 0,0.0568 0.0193,0.10365 0.0582,0.14016 0.0389,0.0365 0.0885,0.0549 0.14892,0.0549 h 6.21534 c 0.0604,0 0.11006,-0.0184 0.14884,-0.0549 0.0389,-0.0365 0.0582,-0.0833 0.0582,-0.14016 v -0.39023 c 7e-5,-0.0569 -0.0193,-0.10363 -0.0582,-0.14023 z"
       id="path11"
       style="fill:#ffffff;stroke-width:0.89073402" />
    <path
       d="m 6.35281,14.00706 c -0.0432,-0.0405 -0.0928,-0.061 -0.14892,-0.061 -0.0561,0 -0.1057,0.0204 -0.14883,0.061 l -0.32375,0.30486 c -0.0432,0.0406 -0.0647,0.0874 -0.0647,0.14023 0,0.0529 0.0215,0.0996 0.0647,0.14023 l 2.54446,2.39597 -2.54446,2.39603 c -0.0432,0.0406 -0.0647,0.0874 -0.0647,0.14016 0,0.0529 0.0215,0.0996 0.0647,0.14023 l 0.32375,0.30478 c 0.0432,0.0406 0.0927,0.0609 0.14883,0.0609 0.0561,0 0.10577,-0.0203 0.14892,-0.0609 l 3.01703,-2.84098 c 0.0432,-0.0406 0.0648,-0.0875 0.0648,-0.14031 0,-0.0528 -0.0216,-0.0996 -0.0648,-0.14022 z"
       id="path13"
       style="fill:#ffffff;stroke-width:0.89073402" />
    <path
       d="m 34.94181,19.77454 c -0.0388,-0.0366 -0.0885,-0.0549 -0.14883,-0.0549 h -6.21535 c -0.0604,0 -0.11005,0.0184 -0.14892,0.0549 -0.0387,0.0366 -0.0582,0.0833 -0.0582,0.14023 V 20.305 c 0,0.0568 0.0193,0.10365 0.0582,0.14016 0.0389,0.0365 0.0885,0.0549 0.14892,0.0549 h 6.21535 c 0.0604,0 0.11005,-0.0184 0.14883,-0.0549 0.0388,-0.0365 0.0582,-0.0833 0.0582,-0.14016 v -0.39023 c 7e-5,-0.0569 -0.0193,-0.10363 -0.0582,-0.14023 z"
       id="path15"
       style="fill:#ffffff;stroke-width:0.89073402" />
    <path
       d="m 24.99736,14.00706 c -0.0432,-0.0405 -0.0928,-0.061 -0.14893,-0.061 -0.056,0 -0.10569,0.0204 -0.14883,0.061 l -0.32374,0.30486 c -0.0432,0.0406 -0.0648,0.0874 -0.0648,0.14023 0,0.0529 0.0215,0.0996 0.0648,0.14023 l 2.54446,2.39597 -2.54446,2.39603 c -0.0432,0.0406 -0.0648,0.0874 -0.0648,0.14016 0,0.0529 0.0215,0.0996 0.0648,0.14023 l 0.32374,0.30478 c 0.0432,0.0406 0.0927,0.0609 0.14883,0.0609 0.0562,0 0.10577,-0.0203 0.14893,-0.0609 l 3.01703,-2.84098 c 0.0432,-0.0406 0.0648,-0.0875 0.0648,-0.14031 0,-0.0528 -0.0215,-0.0996 -0.0648,-0.14022 z"
       id="path17"
       style="fill:#ffffff;stroke-width:0.89073402" />
  </g>
</svg>
