<?xml version="1.0" encoding="UTF-8" standalone="no"?>
<svg
   xmlns:dc="http://purl.org/dc/elements/1.1/"
   xmlns:cc="http://creativecommons.org/ns#"
   xmlns:rdf="http://www.w3.org/1999/02/22-rdf-syntax-ns#"
   xmlns:svg="http://www.w3.org/2000/svg"
   xmlns="http://www.w3.org/2000/svg"
   xmlns:xlink="http://www.w3.org/1999/xlink"
   xmlns:sodipodi="http://sodipodi.sourceforge.net/DTD/sodipodi-0.dtd"
   xmlns:inkscape="http://www.inkscape.org/namespaces/inkscape"
   id="svg12"
   version="1"
   width="48"
   height="48"
   sodipodi:docname="uget.svg"
   inkscape:version="0.92.2 2405546, 2018-03-11">
  <sodipodi:namedview
     pagecolor="#ffffff"
     bordercolor="#666666"
     borderopacity="1"
     objecttolerance="10"
     gridtolerance="10"
     guidetolerance="10"
     inkscape:pageopacity="0"
     inkscape:pageshadow="2"
     inkscape:window-width="1366"
     inkscape:window-height="699"
     id="namedview15"
     showgrid="false"
     inkscape:zoom="11.068182"
     inkscape:cx="24.859309"
     inkscape:cy="23.975537"
     inkscape:window-x="0"
     inkscape:window-y="0"
     inkscape:window-maximized="1"
     inkscape:current-layer="svg12" />
  <metadata
     id="metadata18">
    <rdf:RDF>
      <cc:Work
         rdf:about="">
        <dc:format>image/svg+xml</dc:format>
        <dc:type
           rdf:resource="http://purl.org/dc/dcmitype/StillImage" />
        <dc:title></dc:title>
      </cc:Work>
    </rdf:RDF>
  </metadata>
  <defs
     id="defs16">
    <linearGradient
       id="linearGradient840"
       inkscape:collect="always">
      <stop
         id="stop836"
         offset="0"
         style="stop-color:#7ed020;stop-opacity:1" />
      <stop
         id="stop838"
         offset="1"
         style="stop-color:#a3e851;stop-opacity:1" />
    </linearGradient>
    <linearGradient
       id="linearGradient832">
      <stop
         id="stop828"
         offset="0"
         style="stop-color:#81ce29;stop-opacity:1" />
      <stop
         id="stop830"
         offset="1"
         style="stop-color:#99db4d;stop-opacity:1" />
    </linearGradient>
    <linearGradient
       gradientUnits="userSpaceOnUse"
       y2="-24"
       x2="-4"
       y1="-24"
       x1="-44"
       id="linearGradient834"
       xlink:href="#linearGradient832"
       gradientTransform="matrix(1.0731707,0,0,1.1,2.2926821,2.3999992)" />
    <linearGradient
       id="linearGradient890">
      <stop
         style="stop-color:#91e331;stop-opacity:1"
         offset="0"
         id="stop886" />
      <stop
         style="stop-color:#98db4c;stop-opacity:1"
         offset="1"
         id="stop888" />
    </linearGradient>
    <linearGradient
       id="linearGradient882">
      <stop
         style="stop-color:#ff0000;stop-opacity:1;"
         offset="0"
         id="stop878" />
      <stop
         style="stop-color:#ff4444;stop-opacity:1"
         offset="1"
         id="stop880" />
    </linearGradient>
    <linearGradient
       id="linearGradient874">
      <stop
         style="stop-color:#009bc2;stop-opacity:1"
         offset="0"
         id="stop870" />
      <stop
         style="stop-color:#00c6f7;stop-opacity:1"
         offset="1"
         id="stop872" />
    </linearGradient>
    <linearGradient
       xlink:href="#linearGradient874"
       id="linearGradient876"
       x1="9.7796459"
       y1="6.4365029"
       x2="19.787357"
       y2="16.503786"
       gradientUnits="userSpaceOnUse"
       gradientTransform="translate(-60.83309,-11.377582)" />
    <linearGradient
       xlink:href="#linearGradient882"
       id="linearGradient884"
       x1="33.078217"
       y1="34.337257"
       x2="27.181664"
       y2="27.721615"
       gradientUnits="userSpaceOnUse"
       gradientTransform="translate(-60.83309,-11.377582)" />
    <linearGradient
       xlink:href="#linearGradient840"
       id="linearGradient892"
       x1="23.670452"
       y1="44.483337"
       x2="23.670452"
       y2="11.77158"
       gradientUnits="userSpaceOnUse"
       gradientTransform="matrix(1.076175,0,0,0.97697763,-1.8491783,0.16798035)" />
    <linearGradient
       inkscape:collect="always"
       xlink:href="#linearGradient898"
       id="linearGradient900"
       x1="-36.40678"
       y1="35.984604"
       x2="-36.40678"
       y2="-10.05962"
       gradientUnits="userSpaceOnUse"
       gradientTransform="matrix(0.94767643,0,0,0.97697763,58.887296,11.283006)" />
    <linearGradient
       inkscape:collect="always"
       id="linearGradient898">
      <stop
         style="stop-color:#77c51e;stop-opacity:1"
         offset="0"
         id="stop894" />
      <stop
         style="stop-color:#a3e851;stop-opacity:1"
         offset="1"
         id="stop896" />
    </linearGradient>
    <linearGradient
       xlink:href="#linearGradient840"
       id="linearGradient892-3"
       x1="23.670452"
       y1="44.483337"
       x2="23.670452"
       y2="11.77158"
       gradientUnits="userSpaceOnUse"
       gradientTransform="matrix(1.076175,0,0,0.97697763,-1.8491783,0.16798035)" />
  </defs>
  <g
     id="g868">
    <g
       transform="matrix(0.8964513,0,0,0.94966457,3.344478,1.2325138)"
       id="g848"
       style="stroke-width:1.06208336">
      <path
         inkscape:connector-curvature="0"
         style="color:#000000;font-style:normal;font-variant:normal;font-weight:normal;font-stretch:normal;font-size:medium;line-height:normal;font-family:sans-serif;font-variant-ligatures:normal;font-variant-position:normal;font-variant-caps:normal;font-variant-numeric:normal;font-variant-alternates:normal;font-feature-settings:normal;text-indent:0;text-align:start;text-decoration:none;text-decoration-line:none;text-decoration-style:solid;text-decoration-color:#000000;letter-spacing:normal;word-spacing:normal;text-transform:none;writing-mode:lr-tb;direction:ltr;text-orientation:mixed;dominant-baseline:auto;baseline-shift:baseline;text-anchor:start;white-space:normal;shape-padding:0;clip-rule:nonzero;display:inline;overflow:visible;visibility:visible;opacity:1;isolation:auto;mix-blend-mode:normal;color-interpolation:sRGB;color-interpolation-filters:linearRGB;solid-color:#000000;solid-opacity:1;vector-effect:none;fill:url(#linearGradient900);fill-opacity:1;fill-rule:nonzero;stroke:none;stroke-width:1.98773515;stroke-linecap:butt;stroke-linejoin:miter;stroke-miterlimit:4;stroke-dasharray:none;stroke-dashoffset:0;stroke-opacity:1;color-rendering:auto;image-rendering:auto;shape-rendering:auto;text-rendering:auto;enable-background:accumulate"
         d="M 4.5791431,0.83392543 4.4403236,0.88163125 C 4.1786805,0.96915867 3.9196768,1.0576934 3.6629324,1.1487731 c -0.020432,0.00674 7.733e-4,8.548e-4 -0.012954,0.00576 -0.00237,8.471e-4 -0.00502,0.00107 -0.00739,0.00195 -0.021503,0.00791 -0.036315,0.013961 -0.027766,0.01145 0,0 -0.00189,0 -0.00189,0 0.00483,-0.00147 -0.02444,0.00986 -0.012954,0.00576 -0.075738,0.026076 -0.1523486,0.051848 -0.2276642,0.078236 L 3.4907641,1.9923077 3.3297331,1.3072779 C 2.8219708,1.5773109 2.3516362,2.0876498 2.2524913,2.7880101 1.8836385,5.4053555 1.6898084,8.1285509 1.6898084,10.928218 c 0,12.608376 4.3770416,21.673349 9.3212866,27.553823 2.472122,2.940236 5.081306,5.089449 7.372256,6.516364 2.29095,1.426914 4.182304,2.167669 5.615724,2.167669 1.43538,0 3.328659,-0.745857 5.619424,-2.17721 2.290766,-1.431352 4.898528,-3.584267 7.370405,-6.527814 4.943756,-5.887092 9.321287,-14.951992 9.321287,-27.532832 0,-2.7996672 -0.193846,-5.5218779 -0.562683,-8.1402079 h -0.0019 C 45.646581,2.0873966 45.177725,1.5768258 44.670178,1.3072779 l -0.109206,0.4636833 0.08514,-0.5190193 c -0.08594,-0.028733 -0.172669,-0.057524 -0.25913,-0.085867 l -0.02036,-0.00762 c -0.01219,-0.00371 -0.04072,-0.011323 -0.02407,-0.00576 l -0.0037,-0.00195 C 44.05744,1.0567222 43.774367,0.96579787 43.487475,0.87596185 l -0.131416,-0.0419807 z"
         id="path891" />
      <path
         inkscape:connector-curvature="0"
         style="color:#000000;font-style:normal;font-variant:normal;font-weight:normal;font-stretch:normal;font-size:medium;line-height:normal;font-family:sans-serif;font-variant-ligatures:normal;font-variant-position:normal;font-variant-caps:normal;font-variant-numeric:normal;font-variant-alternates:normal;font-feature-settings:normal;text-indent:0;text-align:start;text-decoration:none;text-decoration-line:none;text-decoration-style:solid;text-decoration-color:#000000;letter-spacing:normal;word-spacing:normal;text-transform:none;writing-mode:lr-tb;direction:ltr;text-orientation:mixed;dominant-baseline:auto;baseline-shift:baseline;text-anchor:start;white-space:normal;shape-padding:0;clip-rule:nonzero;display:inline;overflow:visible;visibility:visible;opacity:1;isolation:auto;mix-blend-mode:normal;color-interpolation:sRGB;color-interpolation-filters:linearRGB;solid-color:#000000;solid-opacity:1;vector-effect:none;fill:#ffffff;fill-opacity:1;fill-rule:nonzero;stroke:none;stroke-width:1.80018556;stroke-linecap:butt;stroke-linejoin:miter;stroke-miterlimit:4;stroke-dasharray:none;stroke-dashoffset:0;stroke-opacity:1;color-rendering:auto;image-rendering:auto;shape-rendering:auto;text-rendering:auto;enable-background:accumulate"
         d="m 6.4115645,3.0206757 -0.1258628,0.04198 c -0.2432192,0.081365 -0.4833206,0.1633074 -0.7218631,0.2480605 -0.030478,0.011209 -0.072952,0.02764 -0.038874,0.015265 -0.06884,0.023703 -0.1369943,0.04853 -0.2054534,0.07251 L 5.4268661,4.0682558 5.2806425,3.448104 C 4.8207882,3.6926576 4.3949925,4.1552628 4.305202,4.78954 3.9711517,7.1599299 3.7943447,9.6271588 3.7943447,12.162668 c 0,11.418733 3.964356,19.627371 8.4420943,24.953001 2.238869,2.662816 4.601515,4.609657 6.676306,5.901938 2.074792,1.292279 3.788185,1.963496 5.086358,1.963496 1.299949,0 3.013584,-0.67483 5.088208,-1.971129 2.074624,-1.296299 4.437658,-3.247574 6.676306,-5.913386 4.477296,-5.331626 8.442095,-13.540125 8.442094,-24.93392 0,-2.5355093 -0.17682,-5.0018465 -0.510857,-7.373128 -0.08965,-0.6345017 -0.515779,-1.0973213 -0.97544,-1.341436 l -0.0981,0.4178868 0.07589,-0.467499 c -0.07738,-0.025868 -0.155383,-0.052713 -0.23322,-0.078234 l -0.02036,-0.00573 c -0.0088,-0.00264 -0.03409,-0.01039 -0.02036,-0.00573 l -0.0037,-0.00191 C 42.16479,3.2218044 41.907442,3.1382547 41.647742,3.0569332 l -0.11846,-0.036255 z"
         id="path910" />
      <path
         inkscape:connector-curvature="0"
         id="path863"
         d="M 6.5437237,3.8812583 A 30.576586,14.803695 0 0 0 5.835382,4.1255027 c -0.011647,0.00381 -0.022166,0.00918 -0.033633,0.013355 a 30.576586,14.803695 0 0 0 -0.2143947,0.074416 h 0.075663 C 5.3847845,4.3612405 5.1747292,4.6063261 5.1312347,4.913569 4.8030013,7.2426837 4.628879,9.6684429 4.628879,12.162667 c 0,22.428475 15.510909,31.957854 19.371149,31.957854 3.860239,0 19.371149,-9.580181 19.371149,-31.957854 0,-2.4942241 -0.174123,-4.9190064 -0.502356,-7.249098 -0.0435,-0.3078593 -0.253549,-0.5525326 -0.531781,-0.7002947 h 0.07777 c 0.0085,0 0.01685,0.00361 0.02523,0.00381 A 30.576586,14.803695 0 0 0 42.192018,4.135038 c -0.0084,-0.00303 -0.01672,-0.00479 -0.02523,-0.00762 A 30.576586,14.803695 0 0 0 41.405895,3.8812583 Z"
         style="opacity:1;fill:url(#linearGradient892-3);fill-opacity:1;stroke:none;stroke-width:1.80018556;stroke-miterlimit:4;stroke-dasharray:none;stroke-opacity:1" />
    </g>
    <path
       inkscape:connector-curvature="0"
       d="m 25.293871,13.205126 c 0,0 -2.737431,0 -3.788667,2.356037 l -2.890897,6.479101 h -2.053075 l 2.628089,-5.890092 h -2.053073 l -2.62809,5.890092 c -0.788427,1.767027 1.264647,1.767027 1.264647,1.767027 h 2.053072 l -1.051234,2.356037 c 0,0 -1.051235,2.356036 1.686194,2.356036 h 8.212293 c 2.737433,0 3.788669,-2.356036 3.788669,-2.356036 l 2.890897,-6.4791 h -4.790505 l -1.051235,2.356036 h 2.737431 l -6.892975,4.712073 -2.688034,-4.712073 h 2.737431 l 2.890898,-6.479101 h 4.106148 L 29.350619,17.9172 h 4.790504 l 1.051235,-2.356037 c 0,0 1.051237,-2.356037 -1.686195,-2.356037 z"
       style="fill:#ffffff;stroke-width:0.78882724"
       id="path8" />
  </g>
</svg>
