<?xml version="1.0" encoding="UTF-8" standalone="no"?>
<svg
   xmlns:dc="http://purl.org/dc/elements/1.1/"
   xmlns:cc="http://creativecommons.org/ns#"
   xmlns:rdf="http://www.w3.org/1999/02/22-rdf-syntax-ns#"
   xmlns:svg="http://www.w3.org/2000/svg"
   xmlns="http://www.w3.org/2000/svg"
   xmlns:xlink="http://www.w3.org/1999/xlink"
   xmlns:sodipodi="http://sodipodi.sourceforge.net/DTD/sodipodi-0.dtd"
   xmlns:inkscape="http://www.inkscape.org/namespaces/inkscape"
   width="48px"
   height="48px"
   viewBox="0 0 48 48"
   version="1.1"
   id="svg15"
   sodipodi:docname="usb-creator.svg"
   inkscape:version="0.92.2 2405546, 2018-03-11">
  <metadata
     id="metadata19">
    <rdf:RDF>
      <cc:Work
         rdf:about="">
        <dc:format>image/svg+xml</dc:format>
        <dc:type
           rdf:resource="http://purl.org/dc/dcmitype/StillImage" />
      </cc:Work>
    </rdf:RDF>
  </metadata>
  <sodipodi:namedview
     pagecolor="#ffffff"
     bordercolor="#666666"
     borderopacity="1"
     objecttolerance="10"
     gridtolerance="10"
     guidetolerance="10"
     inkscape:pageopacity="0"
     inkscape:pageshadow="2"
     inkscape:window-width="1366"
     inkscape:window-height="699"
     id="namedview17"
     showgrid="false"
     inkscape:zoom="4.9166667"
     inkscape:cx="-15.864407"
     inkscape:cy="24"
     inkscape:window-x="0"
     inkscape:window-y="0"
     inkscape:window-maximized="1"
     inkscape:current-layer="svg15" />
  <!-- Generator: Sketch 39.1 (31720) - http://www.bohemiancoding.com/sketch -->
  <title
     id="title2">深度启动盘制作工具-48px</title>
  <desc
     id="desc4">Created with Sketch.</desc>
  <defs
     id="defs6">
    <linearGradient
       inkscape:collect="always"
       id="linearGradient832">
      <stop
         style="stop-color:#e8cb12;stop-opacity:1;"
         offset="0"
         id="stop828" />
      <stop
         style="stop-color:#efd532;stop-opacity:1"
         offset="1"
         id="stop830" />
    </linearGradient>
    <linearGradient
       inkscape:collect="always"
       id="linearGradient847">
      <stop
         style="stop-color:#2e2e2e;stop-opacity:1"
         offset="0"
         id="stop843" />
      <stop
         style="stop-color:#3e3e3e;stop-opacity:1"
         offset="1"
         id="stop845" />
    </linearGradient>
    <linearGradient
       inkscape:collect="always"
       xlink:href="#linearGradient847"
       id="linearGradient849"
       x1="23.329977"
       y1="25.594931"
       x2="38.863068"
       y2="10.340694"
       gradientUnits="userSpaceOnUse" />
    <linearGradient
       inkscape:collect="always"
       xlink:href="#linearGradient832"
       id="linearGradient834"
       x1="7.9322033"
       y1="40.271187"
       x2="22.983051"
       y2="25.220339"
       gradientUnits="userSpaceOnUse" />
  </defs>
  <path
     d="M 24.81436,40.965858 C 20.322073,45.458145 12.333537,44.753045 7.8415203,40.261028 3.350491,35.769999 2.6451356,27.779743 7.1366903,23.288188 l 8.1294517,-8.129451 17.677669,17.67767 z M 10.008956,38.093592 C 7.5902483,35.674884 6.3571839,31.58306 7.4637621,28.569561 l 6.0104079,6.010408 5.480413,5.480413 0.529994,0.529994 c -3.015212,1.105223 -7.061743,-0.08291 -9.475621,-2.496784 z"
     id="Combined-Shape"
     inkscape:connector-curvature="0"
     style="fill:url(#linearGradient834);fill-rule:evenodd;stroke:none;stroke-width:1;fill-opacity:1" />
  <path
     d="m 27.318645,3.1546429 c 0.777454,-0.7774538 2.036863,-0.7785471 2.824461,0.00905 L 44.987264,18.007852 c 0.782453,0.782453 0.781624,2.051888 0.0091,2.82446 L 32.261884,33.566743 14.584215,15.889074 Z"
     id="Rectangle-154"
     inkscape:connector-curvature="0"
     style="fill:url(#linearGradient849);fill-rule:evenodd;stroke:none;stroke-width:1;fill-opacity:1" />
  <path
     d="m 30.140564,5.9895789 1.414213,1.4142135 -5.656854,5.6568546 -1.414214,-1.414214 z m 10.606601,10.6066021 1.414214,1.414213 -5.656854,5.656854 -1.414214,-1.414213 z m -7.778174,-6.363961 1.414213,1.414213 -4.24264,4.242641 -1.414214,-1.414214 z m 3.535534,3.535534 1.414213,1.414213 -4.24264,4.242641 -1.414214,-1.414214 z m -13.435029,4.949747 1.414213,1.414213 -1.414213,1.414214 -1.414214,-1.414214 z m 4.949747,4.949747 1.414214,1.414214 -1.414214,1.414213 -1.414213,-1.414213 z"
     id="path11"
     inkscape:connector-curvature="0"
     style="fill:#ffeb95;fill-rule:evenodd;stroke:none;stroke-width:1" />
</svg>
