<?xml version="1.0" encoding="UTF-8" standalone="no"?>
<svg
   xmlns:dc="http://purl.org/dc/elements/1.1/"
   xmlns:cc="http://creativecommons.org/ns#"
   xmlns:rdf="http://www.w3.org/1999/02/22-rdf-syntax-ns#"
   xmlns:svg="http://www.w3.org/2000/svg"
   xmlns="http://www.w3.org/2000/svg"
   xmlns:xlink="http://www.w3.org/1999/xlink"
   xmlns:sodipodi="http://sodipodi.sourceforge.net/DTD/sodipodi-0.dtd"
   xmlns:inkscape="http://www.inkscape.org/namespaces/inkscape"
   width="48px"
   height="48px"
   viewBox="0 0 48 48"
   version="1.1"
   id="SVGRoot"
   sodipodi:docname="utilities-file-archiver.svg"
   inkscape:version="0.92.2 2405546, 2018-03-11">
  <sodipodi:namedview
     pagecolor="#ffffff"
     bordercolor="#666666"
     borderopacity="1"
     objecttolerance="10"
     gridtolerance="10"
     guidetolerance="10"
     inkscape:pageopacity="0"
     inkscape:pageshadow="2"
     inkscape:window-width="1366"
     inkscape:window-height="699"
     id="namedview25"
     showgrid="false"
     inkscape:zoom="4.9166667"
     inkscape:cx="24"
     inkscape:cy="24"
     inkscape:window-x="0"
     inkscape:window-y="0"
     inkscape:window-maximized="1"
     inkscape:current-layer="SVGRoot" />
  <defs
     id="defs1191">
    <linearGradient
       xlink:href="#linearGradient1168"
       id="linearGradient1170"
       x1="24.4"
       y1="45.27766"
       x2="24.4"
       y2="2.6209366"
       gradientUnits="userSpaceOnUse"
       gradientTransform="matrix(1,0,0,1.0124789,-5.9829712e-8,-0.02713096)" />
    <linearGradient
       id="linearGradient1168">
      <stop
         style="stop-color:#cb9862;stop-opacity:1"
         offset="0"
         id="stop1164" />
      <stop
         style="stop-color:#d7b187;stop-opacity:1"
         offset="1"
         id="stop1166" />
    </linearGradient>
    <linearGradient
       id="b-3-0"
       y1="543.79999"
       y2="503.79999"
       x2="0"
       gradientUnits="userSpaceOnUse"
       gradientTransform="matrix(1.0864499,0,0,1.0864499,-419.89085,-545.3513)">
      <stop
         stop-color="#1d1e1e"
         id="stop7-6-9" />
      <stop
         offset="1"
         stop-color="#44484c"
         id="stop9-7-3" />
    </linearGradient>
    <linearGradient
       xlink:href="#linearGradient986"
       id="linearGradient988"
       x1="23.355932"
       y1="44.883537"
       x2="23.355932"
       y2="2.5784509"
       gradientUnits="userSpaceOnUse"
       gradientTransform="matrix(1,0,0,1.0124718,-58.983051,1.6000122)" />
    <linearGradient
       id="linearGradient986">
      <stop
         style="stop-color:#0cb997;stop-opacity:1"
         offset="0"
         id="stop982" />
      <stop
         style="stop-color:#0edbb3;stop-opacity:1"
         offset="1"
         id="stop984" />
    </linearGradient>
    <linearGradient
       id="b-2-7"
       y1="543.79999"
       y2="503.79999"
       x2="0"
       gradientUnits="userSpaceOnUse"
       gradientTransform="matrix(0.28745653,0,0,0.28745653,-111.09612,-144.29086)">
      <stop
         stop-color="#1d1e1e"
         id="stop7-8-5" />
      <stop
         offset="1"
         stop-color="#44484c"
         id="stop9-9-3" />
    </linearGradient>
    <linearGradient
       id="b-2-7-7"
       y1="543.79999"
       y2="503.79999"
       x2="0"
       gradientUnits="userSpaceOnUse"
       gradientTransform="matrix(0.28745653,0,0,0.28745653,-111.09612,-144.29086)">
      <stop
         stop-color="#1d1e1e"
         id="stop7-8-5-5" />
      <stop
         offset="1"
         stop-color="#44484c"
         id="stop9-9-3-3" />
    </linearGradient>
    <linearGradient
       id="b-2-7-7-2"
       y1="543.79999"
       y2="503.79999"
       x2="0"
       gradientUnits="userSpaceOnUse"
       gradientTransform="matrix(1.0864499,0,0,1.0999999,-478.8739,-550.55279)">
      <stop
         stop-color="#1d1e1e"
         id="stop7-8-5-5-9" />
      <stop
         offset="1"
         stop-color="#44484c"
         id="stop9-9-3-3-1" />
    </linearGradient>
  </defs>
  <metadata
     id="metadata1194">
    <rdf:RDF>
      <cc:Work
         rdf:about="">
        <dc:format>image/svg+xml</dc:format>
        <dc:type
           rdf:resource="http://purl.org/dc/dcmitype/StillImage" />
        <dc:title />
      </cc:Work>
    </rdf:RDF>
  </metadata>
  <rect
     rx="2.1975729"
     style="fill:url(#linearGradient1170);fill-opacity:1;stroke-width:1"
     id="rect9"
     y="2"
     x="2"
     width="44"
     ry="2.1975727"
     height="44" />
  <g
     id="g875"
     transform="translate(58.983054,-1.6271188)">
    <rect
       style="fill:url(#b-2-7-7-2);stroke-width:2.80000043;stroke-opacity:0.55"
       width="8.6915998"
       x="-39.328854"
       y="3.6271188"
       height="44"
       id="rect31-6" />
    <path
       inkscape:connector-curvature="0"
       style="opacity:0.92900002;fill:#ffffff;stroke-width:1"
       d="m -36.36391,4.8490184 c -0.540946,0 -0.976563,0.4410499 -0.976563,0.9887418 v 0.2234543 c 0,0.5476922 0.435617,0.9887422 0.976563,0.9887422 h 2.9375 c 0.540945,0 0.974609,-0.44105 0.974609,-0.9887422 V 5.8377602 c 0,-0.5476919 -0.433664,-0.9887418 -0.974609,-0.9887418 z m -0.0098,3.1817718 c -0.540946,0 -0.976563,0.44105 -0.976563,0.9887418 v 0.2234543 c 0,0.5476918 0.435617,0.9887417 0.976563,0.9887417 h 2.935547 c 0.540945,0 0.976562,-0.4410499 0.976562,-0.9887417 V 9.019532 c 0,-0.5476918 -0.435617,-0.9887418 -0.976562,-0.9887418 z m -0.03126,3.1441998 c -0.540946,0 -0.976563,0.441049 -0.976563,0.988742 v 0.223454 c 10e-7,0.547691 0.435617,0.988741 0.976563,0.988741 h 2.937496 c 0.540946,0 0.976563,-0.44105 0.976563,-0.988741 v -0.223454 c 0,-0.547693 -0.435617,-0.988742 -0.976563,-0.988742 z m 0.05469,3.272735 c -0.540945,0 -0.976562,0.44105 -0.976562,0.988743 v 0.22148 c 0,0.547691 0.435617,0.988741 0.976562,0.988741 h 2.935547 c 0.540946,0 0.976563,-0.44105 0.976563,-0.988741 v -0.22148 c 0,-0.547693 -0.435617,-0.988743 -0.976563,-0.988743 z m 0,3.215389 c -0.540945,0 -0.976562,0.44105 -0.976562,0.988743 v 0.221479 c 0,0.547692 0.435617,0.988742 0.976562,0.988742 h 2.935547 c 0.540946,0 0.976563,-0.44105 0.976563,-0.988742 v -0.221479 c 0,-0.547693 -0.435617,-0.988743 -0.976563,-0.988743 z m 0,3.290534 c -0.540945,0 -0.976562,0.44105 -0.976562,0.988742 v 0.22148 c 0,0.547691 0.435617,0.988741 0.976562,0.988741 h 2.935547 c 0.540946,0 0.976563,-0.44105 0.976563,-0.988741 v -0.22148 c 0,-0.547692 -0.435617,-0.988742 -0.976563,-0.988742 z m 0.326173,3.326128 c -0.428227,0 -0.77539,0.313308 -0.77539,0.700029 V 25.452424 26.368 l -1.197266,3.179794 c -0.134566,0.355703 -0.168321,0.726825 -0.146483,1.093548 -0.08504,0.704782 0.110627,1.425029 0.576172,2.013078 0.604232,0.761851 1.583428,1.216153 2.621093,1.216153 1.037854,0 2.016884,-0.454302 2.621094,-1.216153 0.465518,-0.588006 0.661169,-1.306683 0.576172,-2.011101 0.02215,-0.367264 -0.01172,-0.737483 -0.146483,-1.093548 L -33.092457,26.368 v -0.915576 -0.472619 c 0,-0.386799 -0.347165,-0.700029 -0.775391,-0.700029 z m -0.09375,5.127616 h 2.34375 l 0.402344,1.067841 c 0.03209,0.08515 0.046,0.173417 0.06055,0.261028 -0.04158,0.222387 -0.134173,0.43863 -0.283203,0.626862 -0.621718,0.785921 -2.083273,0.785921 -2.705079,0 -0.149,-0.188234 -0.239697,-0.404394 -0.281249,-0.626862 0.01455,-0.0877 0.02846,-0.175747 0.06055,-0.261028 z"
       id="rect13-7" />
  </g>
</svg>
