<?xml version="1.0" encoding="UTF-8" standalone="no"?>
<svg
   xmlns:dc="http://purl.org/dc/elements/1.1/"
   xmlns:cc="http://creativecommons.org/ns#"
   xmlns:rdf="http://www.w3.org/1999/02/22-rdf-syntax-ns#"
   xmlns:svg="http://www.w3.org/2000/svg"
   xmlns="http://www.w3.org/2000/svg"
   xmlns:xlink="http://www.w3.org/1999/xlink"
   id="SVGRoot"
   version="1.1"
   viewBox="0 0 48 48"
   height="48px"
   width="48px">
  <defs
     id="defs894">
    <linearGradient
       gradientUnits="userSpaceOnUse"
       y2="55.76619"
       x2="-6.615643"
       y1="-2.6240516"
       x1="-98.371735"
       id="linearGradient963"
       xlink:href="#linearGradient961" />
    <linearGradient
       id="linearGradient961">
      <stop
         id="stop957"
         offset="0"
         style="stop-color:#e9e9e9;stop-opacity:1" />
      <stop
         id="stop959"
         offset="1"
         style="stop-color:#ffffff;stop-opacity:1" />
    </linearGradient>
  </defs>
  <metadata
     id="metadata897">
    <rdf:RDF>
      <cc:Work
         rdf:about="">
        <dc:format>image/svg+xml</dc:format>
        <dc:type
           rdf:resource="http://purl.org/dc/dcmitype/StillImage" />
        <dc:title></dc:title>
      </cc:Work>
    </rdf:RDF>
  </metadata>
  <g
     id="layer1">
    <path
       id="path897"
       d="m 3.4742513,4.5341898 c -0.3055322,0 -0.5514644,0.2459531 -0.5514644,0.5514644 v 28.1246838 0.551465 c 0,0.305511 0.2459322,0.551464 0.5514644,0.551464 H 4.0257157 34.356257 c 0.305532,0 0.551465,-0.245954 0.551465,-0.551464 V 5.0856542 c 0,-0.3055113 -0.245933,-0.5514644 -0.551465,-0.5514644 H 4.0257157 Z"
       style="fill:#34495e;fill-opacity:1;stroke:none;stroke-width:0.75862074" />
    <g
       style="fill:#ff5555;stroke-width:1.37564766"
       transform="matrix(0.71887923,0,0,0.71887923,47.075588,6.8812659)"
       id="g907">
      <circle
         style="opacity:1;fill:#ff5555;fill-opacity:1;stroke:none;stroke-width:1.37564766;stroke-opacity:1"
         id="circle899"
         cx="-20.3729"
         cy="-0.7965467"
         r="1" />
      <circle
         style="opacity:1;fill:#ff5555;fill-opacity:1;stroke:none;stroke-width:1.37564766;stroke-opacity:1"
         id="circle901"
         cx="-23.75263"
         cy="-0.7965467"
         r="1" />
      <circle
         style="opacity:1;fill:#ff5555;fill-opacity:1;stroke:none;stroke-width:1.37564766;stroke-opacity:1"
         id="circle903"
         cx="-27.204269"
         cy="-0.86845589"
         r="1" />
      <circle
         r="1"
         cy="-0.7965467"
         cx="-27.13236"
         id="circle905"
         style="opacity:1;fill:#ff5555;fill-opacity:1;stroke:none;stroke-width:1.37564766;stroke-opacity:1" />
    </g>
    <rect
       rx="1.6334354"
       style="fill:#f2f2f2;fill-opacity:1;stroke-width:0.99346393"
       height="24.968353"
       ry="1.6334354"
       width="29.798464"
       x="4.0160217"
       y="8.2670517"
       id="rect909" />
    <path
       style="fill:#34495e;fill-opacity:1;stroke:none;stroke-width:0.75862074"
       d="m 13.643743,13.686733 c -0.305532,0 -0.551465,0.245953 -0.551465,0.551464 v 28.124684 0.551465 c 0,0.305511 0.245933,0.551464 0.551465,0.551464 h 0.551464 30.330541 c 0.305533,0 0.551465,-0.245954 0.551465,-0.551464 V 14.238197 c 0,-0.305511 -0.245932,-0.551464 -0.551465,-0.551464 H 14.195207 Z"
       id="path1002" />
    <g
       id="g1012"
       transform="matrix(0.71887923,0,0,0.71887923,57.24508,16.033809)"
       style="fill:#ff5555;stroke-width:1.37564766">
      <circle
         r="1"
         cy="-0.7965467"
         cx="-20.3729"
         id="circle1004"
         style="opacity:1;fill:#ff5555;fill-opacity:1;stroke:none;stroke-width:1.37564766;stroke-opacity:1" />
      <circle
         r="1"
         cy="-0.7965467"
         cx="-23.75263"
         id="circle1006"
         style="opacity:1;fill:#ff5555;fill-opacity:1;stroke:none;stroke-width:1.37564766;stroke-opacity:1" />
      <circle
         r="1"
         cy="-0.86845589"
         cx="-27.204269"
         id="circle1008"
         style="opacity:1;fill:#ff5555;fill-opacity:1;stroke:none;stroke-width:1.37564766;stroke-opacity:1" />
      <circle
         style="opacity:1;fill:#ff5555;fill-opacity:1;stroke:none;stroke-width:1.37564766;stroke-opacity:1"
         id="circle1010"
         cx="-27.13236"
         cy="-0.7965467"
         r="1" />
    </g>
    <rect
       id="rect1014"
       y="17.419596"
       x="14.185513"
       width="29.798464"
       ry="1.6334354"
       height="24.968353"
       style="fill:url(#linearGradient963);fill-opacity:1;stroke-width:0.99346393"
       rx="1.6334354" />
  </g>
</svg>
