<?xml version="1.0" encoding="UTF-8" standalone="no"?>
<svg
   xmlns:dc="http://purl.org/dc/elements/1.1/"
   xmlns:cc="http://creativecommons.org/ns#"
   xmlns:rdf="http://www.w3.org/1999/02/22-rdf-syntax-ns#"
   xmlns:svg="http://www.w3.org/2000/svg"
   xmlns="http://www.w3.org/2000/svg"
   id="svg13"
   version="1.1"
   width="48"
   height="48">
  <metadata
     id="metadata19">
    <rdf:RDF>
      <cc:Work
         rdf:about="">
        <dc:format>image/svg+xml</dc:format>
        <dc:type
           rdf:resource="http://purl.org/dc/dcmitype/StillImage" />
        <dc:title></dc:title>
      </cc:Work>
    </rdf:RDF>
  </metadata>
  <defs
     id="defs17">
    <linearGradient
       y2="501.2316"
       y1="542.79797"
       x2="409.93887"
       x1="409.57144"
       gradientUnits="userSpaceOnUse"
       gradientTransform="matrix(0.93164067,0,0,1.0102253,-410.94685,-504.33804)"
       id="a-6">
      <stop
         id="stop10"
         stop-color="#197cf1"
         offset="0" />
      <stop
         id="stop12"
         stop-color="#20bcfa"
         offset="1" />
    </linearGradient>
  </defs>
  <linearGradient
     y2="502.9836729252"
     y1="544.227537992278"
     x2="409.537251898256"
     x1="409.537251898256"
     gradientUnits="userSpaceOnUse"
     id="a">
    <stop
       id="stop2"
       stop-color="#0a80fd"
       offset="0" />
    <stop
       id="stop4"
       stop-color="#56c5fa"
       offset="1" />
  </linearGradient>
  <path
     id="rect4148-2"
     d="m 2.7586205,3.5172413 c -0.4203047,0 -0.7586207,0.3383449 -0.7586207,0.7586207 v 38.689655 0.758621 c 0,0.420276 0.338316,0.758621 0.7586207,0.758621 H 3.5172412 45.241379 C 45.661684,44.482759 46,44.144414 46,43.724138 V 4.275862 C 46,3.8555862 45.661684,3.5172413 45.241379,3.5172413 H 3.5172412 Z"
     style="fill:#34495e;fill-opacity:1;stroke:none;stroke-width:0.75862068" />
  <g
     style="fill:#ff5555"
     transform="matrix(0.98892453,0,0,0.98892453,62.738697,6.745991)"
     id="g873">
    <circle
       style="opacity:1;fill:#ff5555;fill-opacity:1;stroke:none;stroke-opacity:1"
       id="path4155-0"
       cx="-20.3729"
       cy="-0.7965467"
       r="1" />
    <circle
       style="opacity:1;fill:#ff5555;fill-opacity:1;stroke:none;stroke-opacity:1"
       id="circle858"
       cx="-23.75263"
       cy="-0.7965467"
       r="1" />
    <circle
       style="opacity:1;fill:#ff5555;fill-opacity:1;stroke:none;stroke-opacity:1"
       id="circle860"
       cx="-27.204269"
       cy="-0.86845589"
       r="1" />
    <circle
       r="1"
       cy="-0.7965467"
       cx="-27.13236"
       id="circle856"
       style="opacity:1;fill:#ff5555;fill-opacity:1;stroke:none;stroke-opacity:1" />
  </g>
  <g
     transform="translate(54.305092)"
     id="g927">
    <rect
       rx="1.6334354"
       style="opacity:1;fill:url(#a-6);stroke:none;stroke-width:1.5677098"
       height="34.347656"
       ry="1.6334354"
       width="40.992188"
       x="-50.801186"
       y="8.6523438"
       id="rect15" />
    <path
       id="path25"
       d="m -30.305092,14.39822 c -5.976884,0 -10.822106,4.845224 -10.822106,10.822107 0,5.976896 4.845222,10.822111 10.822106,10.822111 5.976884,0 10.822107,-4.845215 10.822107,-10.822111 0,-5.976883 -4.845223,-10.822107 -10.822107,-10.822107 z m 0,0.901843 c 4.54411,0 8.374647,3.055387 9.549382,7.223756 -1.0118,2.086946 -2.451519,3.965936 -4.20484,5.484332 -0.842274,0.72941 -1.761869,1.379661 -2.777674,1.837503 -1.015805,0.457843 -2.133115,0.717619 -3.245504,0.653836 -0.83576,-0.04793 -1.661357,-0.280743 -2.393264,-0.686527 1.939686,-1.051052 3.689829,-2.452418 5.122464,-4.130442 0.940352,-1.101422 1.763089,-2.353152 2.079873,-3.766319 0.158393,-0.706582 0.185235,-1.446577 0.0372,-2.155403 -0.148033,-0.708825 -0.475764,-1.384305 -0.971734,-1.911905 -0.484533,-0.515432 -1.120613,-0.880543 -1.802558,-1.068683 -0.681944,-0.188138 -1.407651,-0.202705 -2.103547,-0.07553 -1.39179,0.254351 -2.634406,1.063236 -3.631042,2.067473 -1.756716,1.770113 -2.842737,4.267777 -2.643525,6.753671 0.09961,1.242946 0.516135,2.464311 1.229888,3.486752 0.15932,0.228211 0.334471,0.4456 0.521941,0.651581 -1.039785,0.363893 -2.116397,0.622925 -3.208304,0.76882 -0.937476,-1.514824 -1.479021,-3.300291 -1.479021,-5.212652 0,-5.478811 4.441453,-9.920264 9.920264,-9.920264 z m 0.06313,2.004344 c 0.697355,9.02e-4 1.399449,0.212061 1.955871,0.632417 0.501309,0.378722 0.872764,0.917514 1.083337,1.509458 0.210574,0.591944 0.264614,1.234762 0.19277,1.858922 -0.143691,1.248323 -0.773433,2.393133 -1.534259,3.393182 -1.347139,1.77071 -3.137756,3.187949 -5.129228,4.180043 -0.203843,0.101547 -0.410917,0.198067 -0.61889,0.290844 -0.433329,-0.379202 -0.804739,-0.828974 -1.087847,-1.330222 -0.591563,-1.047391 -0.786644,-2.291586 -0.671872,-3.489002 0.114772,-1.197414 0.525694,-2.351468 1.077701,-3.420237 0.640027,-1.239187 1.512439,-2.412966 2.733709,-3.086554 0.610635,-0.336793 1.301353,-0.539796 1.998708,-0.538851 z m 9.768078,6.587957 c 0.05812,0.434417 0.08906,0.877639 0.08906,1.327963 0,5.478808 -4.441453,9.920268 -9.920264,9.920268 -3.076956,0 -5.826901,-1.400741 -7.646494,-3.599477 1.123104,-0.255086 2.220802,-0.621482 3.273687,-1.087847 0.460434,0.350658 0.96893,0.638256 1.509458,0.845477 1.556617,0.596771 3.323896,0.51042 4.899259,-0.03495 1.575361,-0.545366 2.972352,-1.524248 4.190184,-2.662689 1.450752,-1.356195 2.673928,-2.954694 3.605113,-4.708748 z"
       style="fill:#ffffff;stroke:#ffffff;stroke-width:0.35578215" />
  </g>
</svg>
