<?xml version="1.0" encoding="UTF-8" standalone="no"?>
<svg
   xmlns:dc="http://purl.org/dc/elements/1.1/"
   xmlns:cc="http://creativecommons.org/ns#"
   xmlns:rdf="http://www.w3.org/1999/02/22-rdf-syntax-ns#"
   xmlns:svg="http://www.w3.org/2000/svg"
   xmlns="http://www.w3.org/2000/svg"
   xmlns:xlink="http://www.w3.org/1999/xlink"
   id="svg13"
   version="1.1"
   width="48"
   height="48">
  <metadata
     id="metadata19">
    <rdf:RDF>
      <cc:Work
         rdf:about="">
        <dc:format>image/svg+xml</dc:format>
        <dc:type
           rdf:resource="http://purl.org/dc/dcmitype/StillImage" />
        <dc:title></dc:title>
      </cc:Work>
    </rdf:RDF>
  </metadata>
  <defs
     id="defs17">
    <linearGradient
       y2="501.2316"
       y1="542.79797"
       x2="409.93887"
       x1="409.57144"
       gradientUnits="userSpaceOnUse"
       gradientTransform="matrix(0.93161886,0,0,1.0102051,-356.63286,-504.32799)"
       id="a-3">
      <stop
         id="stop2-6"
         stop-color="#00a199"
         offset="0" />
      <stop
         id="stop4-7"
         stop-opacity=".988235"
         stop-color="#00f89a"
         offset="1" />
    </linearGradient>
    <linearGradient
       gradientTransform="matrix(0.1859203,0,0,0.1859203,12.28728,14.112737)"
       y2="1041.4948"
       y1="1041.4948"
       x2="18.771702"
       x1="3.1466999"
       gradientUnits="userSpaceOnUse"
       id="b">
      <stop
         id="stop7"
         stop-color="#e6f3ff"
         offset="0" />
      <stop
         id="stop9"
         stop-color="#dcffe7"
         offset="1" />
    </linearGradient>
    <linearGradient
       id="linearGradient840">
      <stop
         id="stop836"
         offset="0"
         style="stop-color:#666666;stop-opacity:1;" />
      <stop
         id="stop838"
         offset="1"
         style="stop-color:#808080;stop-opacity:1" />
    </linearGradient>
    <linearGradient
       id="a-3-3"
       gradientTransform="matrix(0.93161886,0,0,1.0102051,-356.63286,-504.32799)"
       gradientUnits="userSpaceOnUse"
       x1="409.57144"
       x2="409.72055"
       y1="542.79797"
       y2="507.47299">
      <stop
         offset="0"
         stop-color="#00a199"
         id="stop2-6-6"
         style="stop-color:#595959;stop-opacity:1" />
      <stop
         offset="1"
         stop-color="#00f89a"
         stop-opacity=".988235"
         id="stop4-7-7"
         style="stop-color:#808080;stop-opacity:1" />
    </linearGradient>
    <linearGradient
       id="b-3"
       gradientUnits="userSpaceOnUse"
       x1="3.1466999"
       x2="18.771702"
       y1="1041.4948"
       y2="1041.4948"
       gradientTransform="matrix(0.1859203,0,0,0.1859203,12.28728,14.112737)">
      <stop
         offset="0"
         stop-color="#e6f3ff"
         id="stop7-6" />
      <stop
         offset="1"
         stop-color="#dcffe7"
         id="stop9-7" />
    </linearGradient>
    <linearGradient
       gradientUnits="userSpaceOnUse"
       y2="6.1435828"
       x2="25.220337"
       y1="42.706993"
       x1="25.220337"
       id="linearGradient842"
       xlink:href="#linearGradient840" />
  </defs>
  <linearGradient
     y2="502.9836729252"
     y1="544.227537992278"
     x2="409.537251898256"
     x1="409.537251898256"
     gradientUnits="userSpaceOnUse"
     id="a">
    <stop
       id="stop2"
       stop-color="#0a80fd"
       offset="0" />
    <stop
       id="stop4"
       stop-color="#56c5fa"
       offset="1" />
  </linearGradient>
  <path
     id="rect4148-2"
     d="m 2.7586205,3.5172413 c -0.4203047,0 -0.7586207,0.3383449 -0.7586207,0.7586207 v 38.689655 0.758621 c 0,0.420276 0.338316,0.758621 0.7586207,0.758621 H 3.5172412 45.241379 C 45.661684,44.482759 46,44.144414 46,43.724138 V 4.275862 C 46,3.8555862 45.661684,3.5172413 45.241379,3.5172413 H 3.5172412 Z"
     style="fill:#34495e;fill-opacity:1;stroke:none;stroke-width:0.75862068" />
  <g
     style="fill:#ff5555"
     transform="matrix(0.98892453,0,0,0.98892453,62.738697,6.745991)"
     id="g873">
    <circle
       style="opacity:1;fill:#ff5555;fill-opacity:1;stroke:none;stroke-opacity:1"
       id="path4155-0"
       cx="-20.3729"
       cy="-0.7965467"
       r="1" />
    <circle
       style="opacity:1;fill:#ff5555;fill-opacity:1;stroke:none;stroke-opacity:1"
       id="circle858"
       cx="-23.75263"
       cy="-0.7965467"
       r="1" />
    <circle
       style="opacity:1;fill:#ff5555;fill-opacity:1;stroke:none;stroke-opacity:1"
       id="circle860"
       cx="-27.204269"
       cy="-0.86845589"
       r="1" />
    <circle
       r="1"
       cy="-0.7965467"
       cx="-27.13236"
       id="circle856"
       style="opacity:1;fill:#ff5555;fill-opacity:1;stroke:none;stroke-opacity:1" />
  </g>
  <rect
     id="rect12-6"
     y="8.6521521"
     x="3.5043848"
     width="40.99123"
     ry="1.0812595"
     height="34.34697"
     style="fill:url(#linearGradient842);fill-opacity:1;stroke-width:0.65762758"
     rx="1.0812595" />
  <path
     style="fill:#ffffff;fill-opacity:0.84693903;stroke-width:0.17320201"
     d="M 34.56989,15.256144 C 34.391213,15.077466 34.17926,14.987766 33.934754,14.987766 H 14.065969 c -0.244506,0 -0.456459,0.08898 -0.635137,0.268378 -0.178677,0.178677 -0.268378,0.390631 -0.268378,0.635137 v 19.868712 c 0,0.244506 0.0897,0.456459 0.268378,0.635137 0.178678,0.178677 0.390631,0.268377 0.635137,0.268377 h 19.868785 c 0.244506,0 0.456459,-0.0897 0.635136,-0.268377 0.178678,-0.178678 0.267655,-0.390631 0.267655,-0.635137 V 15.891281 c 0,-0.244506 -0.08898,-0.45646 -0.267655,-0.635137 z M 23.097498,32.147381 c 0,0.131657 -0.0434,0.240166 -0.126593,0.324803 -0.08464,0.08464 -0.193146,0.127316 -0.324803,0.127316 h -6.773393 c -0.131657,0 -0.240166,-0.0434 -0.324802,-0.127316 -0.08464,-0.08464 -0.127317,-0.192422 -0.127317,-0.324803 V 17.697225 c 0,-0.131657 0.0434,-0.240166 0.127317,-0.324803 0.08464,-0.08464 0.192421,-0.127316 0.324802,-0.127316 h 6.773393 c 0.131657,0 0.240166,0.0434 0.324803,0.127316 0.08464,0.08464 0.126593,0.192422 0.126593,0.324803 z m 9.482852,-5.418845 c 0,0.131657 -0.0434,0.240166 -0.127317,0.324803 -0.08464,0.08464 -0.192422,0.127316 -0.324079,0.127316 h -6.773248 c -0.132381,0 -0.240166,-0.0434 -0.324803,-0.127316 -0.08464,-0.08464 -0.126593,-0.192422 -0.126593,-0.324803 v -9.031311 c 0,-0.131657 0.0434,-0.240166 0.126593,-0.324803 0.08464,-0.08464 0.192422,-0.127316 0.324803,-0.127316 h 6.773248 c 0.131657,0 0.240166,0.0434 0.324079,0.127316 0.08464,0.08464 0.127317,0.192422 0.127317,0.324803 z"
     id="path848" />
</svg>
