<?xml version="1.0" encoding="UTF-8" standalone="no"?>
<svg
   xmlns:dc="http://purl.org/dc/elements/1.1/"
   xmlns:cc="http://creativecommons.org/ns#"
   xmlns:rdf="http://www.w3.org/1999/02/22-rdf-syntax-ns#"
   xmlns:svg="http://www.w3.org/2000/svg"
   xmlns="http://www.w3.org/2000/svg"
   xmlns:xlink="http://www.w3.org/1999/xlink"
   id="svg8"
   version="1.1"
   viewBox="0 0 12.7 12.7"
   height="48"
   width="48">
  <defs
     id="defs2">
    <linearGradient
       id="linearGradient959">
      <stop
         id="stop955"
         offset="0"
         style="stop-color:#cccccc;stop-opacity:1" />
      <stop
         id="stop957"
         offset="1"
         style="stop-color:#ffffff;stop-opacity:1" />
    </linearGradient>
    <linearGradient
       id="linearGradient953">
      <stop
         style="stop-color:#ff1313;stop-opacity:1"
         offset="0"
         id="stop949" />
      <stop
         style="stop-color:#ff2f2f;stop-opacity:1"
         offset="1"
         id="stop951" />
    </linearGradient>
    <linearGradient
       gradientUnits="userSpaceOnUse"
       y2="-1.5088551"
       x2="-18.477501"
       y1="40.485661"
       x1="-18.477501"
       id="linearGradient1560"
       xlink:href="#linearGradient1558"
       gradientTransform="matrix(0.26458333,0,0,0.24571661,11.519959,285.0676)" />
    <linearGradient
       id="linearGradient1558">
      <stop
         id="stop1554"
         offset="0"
         style="stop-color:#203040;stop-opacity:1;" />
      <stop
         id="stop1556"
         offset="1"
         style="stop-color:#395674;stop-opacity:1" />
    </linearGradient>
    <linearGradient
       y2="517.79797"
       y1="545.79797"
       x2="399.57144"
       x1="399.57144"
       gradientUnits="userSpaceOnUse"
       id="e">
      <stop
         id="stop14"
         stop-color="#3889e9"
         offset="0" />
      <stop
         id="stop16"
         stop-color="#5ea5fb"
         offset="1" />
    </linearGradient>
    <linearGradient
       y2="2.052439"
       y1="46.32877"
       x2="24.699699"
       x1="24.670803"
       gradientUnits="userSpaceOnUse"
       id="d"
       gradientTransform="matrix(0.26458333,0,0,0.26458333,-5.2697094,287.4618)">
      <stop
         id="stop9"
         stop-color="#e1e1e1"
         offset="0" />
      <stop
         id="stop11"
         stop-color="#fff"
         offset="1" />
    </linearGradient>
    <linearGradient
       y2="23.999998"
       y1="23.999998"
       xlink:href="#f"
       x2="35"
       x1="23.266666"
       gradientUnits="userSpaceOnUse"
       id="b"
       gradientTransform="matrix(0.26458333,0,0,0.26458333,0,284.29998)" />
    <linearGradient
       y2="516.4751"
       y1="546.92657"
       x2="400.55615"
       x1="400.55615"
       gradientUnits="userSpaceOnUse"
       id="f">
      <stop
         id="stop19"
         stop-color="#2e3e46"
         offset="0" />
      <stop
         id="stop21"
         stop-color="#47606a"
         offset="1" />
    </linearGradient>
    <linearGradient
       y2="23.999998"
       y1="23.999998"
       xlink:href="#f"
       x2="24.733334"
       x1="13"
       gradientUnits="userSpaceOnUse"
       id="a"
       gradientTransform="matrix(0.26458333,0,0,0.26458333,0,284.29998)" />
    <linearGradient
       y2="24.752066"
       y1="24.752066"
       x2="35"
       x1="13"
       gradientUnits="userSpaceOnUse"
       id="c"
       gradientTransform="matrix(0.26458333,0,0,0.26458333,0,284.29998)">
      <stop
         id="stop4"
         stop-color="#ff9300"
         offset="0" />
      <stop
         id="stop6"
         stop-color="#ffd702"
         offset="1" />
    </linearGradient>
    <linearGradient
       xlink:href="#e"
       id="linearGradient892"
       gradientUnits="userSpaceOnUse"
       x1="399.57144"
       y1="545.79797"
       x2="399.57144"
       y2="517.79797" />
    <linearGradient
       y2="517.79797"
       x2="399.57144"
       y1="545.79797"
       x1="399.57144"
       gradientUnits="userSpaceOnUse"
       id="linearGradient937"
       xlink:href="#e" />
    <linearGradient
       gradientUnits="userSpaceOnUse"
       y2="287.73956"
       x2="4.9918051"
       y1="293.57468"
       x1="4.9918051"
       id="linearGradient947"
       xlink:href="#linearGradient953" />
    <linearGradient
       gradientUnits="userSpaceOnUse"
       y2="287.80435"
       x2="7.7081943"
       y1="293.56039"
       x1="7.7081943"
       id="linearGradient961"
       xlink:href="#linearGradient959" />
  </defs>
  <metadata
     id="metadata5">
    <rdf:RDF>
      <cc:Work
         rdf:about="">
        <dc:format>image/svg+xml</dc:format>
        <dc:type
           rdf:resource="http://purl.org/dc/dcmitype/StillImage" />
        <dc:title></dc:title>
      </cc:Work>
    </rdf:RDF>
  </metadata>
  <g
     transform="translate(0,-284.29998)"
     id="layer1">
    <rect
       style="opacity:1;fill:url(#linearGradient1560);fill-opacity:1;stroke:none;stroke-width:0.42994794;stroke-miterlimit:4;stroke-dasharray:none;stroke-opacity:1"
       id="rect1470"
       width="11.641666"
       height="9.0454426"
       x="0.52916682"
       y="286.12726"
       ry="0.6449219"
       rx="0.6449219" />
    <g
       id="g28"
       transform="matrix(0.41042074,0,0,0.41068837,-163.33322,75.366657)">
      <circle
         id="circle24"
         r="0"
         cy="531.79791"
         cx="400.57138"
         style="fill:url(#linearGradient937)" />
      <circle
         id="circle26"
         transform="matrix(1.6374665,0,0,1.6374665,-298.09112,-338.9488)"
         r="0"
         cy="531.79791"
         cx="400.57138"
         style="fill:url(#linearGradient892)" />
    </g>
    <path
       id="path32"
       d="M 9.2604167,293.56039 H 7.7081943 l -1.5522223,-2.32833 2.3283337,-3.4925 h 0.3880554 l -1.74625,2.71639 z"
       style="fill:url(#linearGradient961);stroke-width:0.26458332;fill-opacity:1" />
    <path
       id="path34"
       d="m 3.4395834,287.73956 h 1.5522219 l 1.5522224,2.32833 -2.3283334,3.4925 H 3.8276386 l 1.74625,-2.71639 z"
       style="fill:url(#linearGradient947);stroke-width:0.26458332;fill-opacity:1" />
    <path
       id="path36"
       d="m 6.155972,288.52064 -0.012107,0.0121 c -0.078212,0.004 -0.1540308,0.0151 -0.2304079,0.0243 l 0.5457032,0.8125 c 0.097212,-0.24972 0.3513727,-0.39544 0.6427171,-0.38806 0.064219,0.002 0.1273984,0.0203 0.1940277,0.0364 0.00807,0.002 0.016182,-0.002 0.024254,0 0.088252,0.026 0.1716643,0.0627 0.2546616,0.097 l 0.1940279,-0.30316 c -0.4204427,-0.18868 -0.9024584,-0.29105 -1.4188284,-0.29105 -0.060342,0 -0.1224703,0.009 -0.181901,0.0121 z m 1.9160245,0.46083 -0.1819012,0.29104 c 0.590225,0.35225 0.9822658,0.92543 0.9822658,1.57648 0,1.07157 -1.0424298,1.94027 -2.3283334,1.94027 -1.2859037,0 -2.3283334,-0.8687 -2.3283334,-1.94027 0,-0.46053 0.1979938,-0.88 0.5214496,-1.21268 l -0.3395485,-0.50932 c -0.5884706,0.424 -0.958012,1.03693 -0.958012,1.722 0,1.2859 1.303036,2.32833 2.9104166,2.32833 1.6073806,0 2.9104167,-1.04244 2.9104167,-2.32833 0,-0.76918 -0.4697219,-1.44356 -1.1884202,-1.86752 z"
       style="fill:url(#c);stroke-width:0.26458332" />
  </g>
</svg>
