<?xml version="1.0" encoding="UTF-8" standalone="no"?>
<svg
   xmlns:dc="http://purl.org/dc/elements/1.1/"
   xmlns:cc="http://creativecommons.org/ns#"
   xmlns:rdf="http://www.w3.org/1999/02/22-rdf-syntax-ns#"
   xmlns:svg="http://www.w3.org/2000/svg"
   xmlns="http://www.w3.org/2000/svg"
   xmlns:sodipodi="http://sodipodi.sourceforge.net/DTD/sodipodi-0.dtd"
   xmlns:inkscape="http://www.inkscape.org/namespaces/inkscape"
   height="48"
   width="48"
   version="1.1"
   id="svg11"
   sodipodi:docname="yad.svg"
   inkscape:version="0.92.2 5c3e80d, 2017-08-06">
  <metadata
     id="metadata17">
    <rdf:RDF>
      <cc:Work
         rdf:about="">
        <dc:format>image/svg+xml</dc:format>
        <dc:type
           rdf:resource="http://purl.org/dc/dcmitype/StillImage" />
      </cc:Work>
    </rdf:RDF>
  </metadata>
  <defs
     id="defs15" />
  <sodipodi:namedview
     pagecolor="#ffffff"
     bordercolor="#666666"
     borderopacity="1"
     objecttolerance="10"
     gridtolerance="10"
     guidetolerance="10"
     inkscape:pageopacity="0"
     inkscape:pageshadow="2"
     inkscape:window-width="1366"
     inkscape:window-height="701"
     id="namedview13"
     showgrid="false"
     inkscape:zoom="4.9166667"
     inkscape:cx="24"
     inkscape:cy="24"
     inkscape:window-x="0"
     inkscape:window-y="0"
     inkscape:window-maximized="1"
     inkscape:current-layer="svg11" />
  <linearGradient
     id="a"
     gradientTransform="matrix(1.1131785,0,0,1.4405839,-27.025544,-245.98389)"
     gradientUnits="userSpaceOnUse"
     x1="409.57144"
     x2="409.57144"
     y1="542.79797"
     y2="507.798">
    <stop
       offset="0"
       stop-color="#0bac83"
       id="stop2" />
    <stop
       offset="1"
       stop-color="#10da96"
       id="stop4" />
  </linearGradient>
  <g
     id="g826"
     transform="matrix(0.95578481,0,0,0.95578481,1.0611643,1.0611639)"
     style="stroke-width:1.0462606">
    <rect
       id="rect7"
       y="485.54169"
       x="403.29745"
       width="48.979851"
       transform="matrix(0.93916167,0,0,0.93916167,-377.76152,-455.00215)"
       ry="2.4115617"
       height="48.979847"
       style="fill:url(#a);stroke-width:1.09466124"
       rx="2.4115617" />
    <path
       id="path9"
       transform="matrix(0.70112399,0,0,0.70112399,8.00027,7.999995)"
       d="M 43.183,37.582 31.209,15.429 V 2.232 C 31.209,0.99 30.17,0 28.929,0 H 16.707 C 15.465,0 14.443,0.99 14.443,2.232 V 15.429 L 2.459,37.582 c -0.914,1.689 -0.868,3.74 0.115,5.391 0.983,1.649 2.766,2.668 4.686,2.668 h 31.115 c 1.92,0 3.707,-1.019 4.69,-2.668 0.982,-1.651 1.032,-3.702 0.118,-5.391 z M 24.797,28.314 c 1.073,0 1.942,0.869 1.942,1.942 0,1.072 -0.871,1.942 -1.942,1.942 -1.072,0 -1.942,-0.87 -1.942,-1.942 0,-1.07 0.869,-1.942 1.942,-1.942 z M 19.336,16.637 c 1.073,0 1.942,0.87 1.942,1.943 0,1.072 -0.869,1.942 -1.942,1.942 -1.073,0 -1.942,-0.87 -1.942,-1.942 0.001,-1.073 0.869,-1.943 1.942,-1.943 z m 0,6.78 c 1.738,0 3.148,1.41 3.148,3.147 0,1.738 -1.41,3.147 -3.148,3.147 -1.739,0 -3.148,-1.409 -3.148,-3.147 0,-1.738 1.409,-3.147 3.148,-3.147 z m 18.078,16.145 c -0.404,0.688 -1.143,1.094 -1.938,1.094 H 10.159 C 9.363,40.656 8.625,40.25 8.221,39.562 7.817,38.874 7.806,38.034 8.193,37.336 l 3.043,-5.47 c 0.434,-0.782 1.29,-1.23 2.18,-1.145 4.041,0.385 8.583,3.842 12.642,3.688 2.174,-0.083 4.192,-0.875 6.114,-1.934 1.085,-0.6 2.45,-0.207 3.052,0.877 l 2.219,3.982 c 0.385,0.699 0.375,1.541 -0.029,2.228 z"
       inkscape:connector-curvature="0"
       style="fill:#ffffff;fill-opacity:0.85080602;stroke-width:1.09466124" />
  </g>
</svg>
