<?xml version="1.0" encoding="UTF-8" standalone="no"?>
<svg
   xmlns:dc="http://purl.org/dc/elements/1.1/"
   xmlns:cc="http://creativecommons.org/ns#"
   xmlns:rdf="http://www.w3.org/1999/02/22-rdf-syntax-ns#"
   xmlns:svg="http://www.w3.org/2000/svg"
   xmlns="http://www.w3.org/2000/svg"
   xmlns:xlink="http://www.w3.org/1999/xlink"
   xmlns:sodipodi="http://sodipodi.sourceforge.net/DTD/sodipodi-0.dtd"
   xmlns:inkscape="http://www.inkscape.org/namespaces/inkscape"
   id="svg32"
   version="1.1"
   width="48"
   height="48"
   sodipodi:docname="ibus.svg"
   inkscape:version="0.92.2 2405546, 2018-03-11">
  <sodipodi:namedview
     pagecolor="#ffffff"
     bordercolor="#666666"
     borderopacity="1"
     objecttolerance="10"
     gridtolerance="10"
     guidetolerance="10"
     inkscape:pageopacity="0"
     inkscape:pageshadow="2"
     inkscape:window-width="1366"
     inkscape:window-height="699"
     id="namedview23"
     showgrid="false"
     inkscape:zoom="4.9166667"
     inkscape:cx="24"
     inkscape:cy="24"
     inkscape:window-x="0"
     inkscape:window-y="0"
     inkscape:window-maximized="1"
     inkscape:current-layer="svg32" />
  <metadata
     id="metadata38">
    <rdf:RDF>
      <cc:Work
         rdf:about="">
        <dc:format>image/svg+xml</dc:format>
        <dc:type
           rdf:resource="http://purl.org/dc/dcmitype/StillImage" />
        <dc:title />
      </cc:Work>
    </rdf:RDF>
  </metadata>
  <defs
     id="defs36">
    <linearGradient
       id="linearGradient855">
      <stop
         id="stop851"
         offset="0"
         style="stop-color:#0050de;stop-opacity:1" />
      <stop
         id="stop853"
         offset="1"
         style="stop-color:#1fb3cd;stop-opacity:1" />
    </linearGradient>
    <linearGradient
       gradientTransform="matrix(1,0,0,1.1,69.118646,-7.9999981)"
       gradientUnits="userSpaceOnUse"
       y2="7.7288136"
       x2="-45.35593"
       y1="48.203388"
       x1="-45.35593"
       id="linearGradient857"
       xlink:href="#linearGradient855" />
    <linearGradient
       gradientTransform="matrix(1,0,0,1.1,69.118646,-6.5762692)"
       gradientUnits="userSpaceOnUse"
       y2="7.7288136"
       x2="-45.35593"
       y1="48.203388"
       x1="-45.35593"
       id="linearGradient857-3"
       xlink:href="#linearGradient855" />
  </defs>
  <linearGradient
     id="linearGradient8"
     y2="23.5"
     y1="23.5"
     x2="47"
     x1="0"
     gradientUnits="userSpaceOnUse">
    <stop
       id="stop2"
       stop-color="#a9a3d4"
       offset="0" />
    <stop
       id="stop4"
       stop-color="#87baff"
       offset=".47001833" />
    <stop
       id="stop6"
       stop-color="#89ec85"
       offset="1" />
  </linearGradient>
  <linearGradient
     y2="658.78589"
     y1="663.33796"
     x2="1410.32123"
     x1="359.88744"
     gradientUnits="userSpaceOnUse"
     id="a">
    <stop
       id="stop10"
       stop-color="#4e4e4f"
       offset="0" />
    <stop
       id="stop12"
       stop-color="#3f3f40"
       offset=".49668527" />
    <stop
       id="stop14"
       stop-color="#5a5a5c"
       offset="1" />
  </linearGradient>
  <linearGradient
     y2="278.17999"
     y1="907.84692"
     x2="363.04605"
     x1="366.95877"
     gradientUnits="userSpaceOnUse"
     id="b">
    <stop
       id="stop17"
       stop-color="#363636"
       offset="0" />
    <stop
       id="stop19"
       stop-color="#656567"
       offset="1" />
  </linearGradient>
  <rect
     rx="2.7734976"
     ry="2.7734976"
     y="2"
     x="2"
     height="44"
     width="44"
     id="rect849"
     style="opacity:1;fill:url(#linearGradient857-3);fill-opacity:1;stroke:none;stroke-width:1.36541903;stroke-miterlimit:4;stroke-dasharray:none;stroke-opacity:1" />
  <path
     d="m 31.90573,26.41303 -2.628865,0.01779 -0.03792,-4.932782 2.628865,-0.01778 c 2.903581,-0.01966 5.240751,-2.24423 5.219811,-4.968359 -0.02094,-2.724128 -2.392069,-4.916852 -5.29565,-4.897205 -2.903909,0.01965 -5.240751,2.244229 -5.219811,4.968358 l 0.01895,2.466391 -5.257729,0.03557 -0.01897,-2.46639 c -0.02094,-2.724129 -2.392067,-4.916852 -5.295649,-4.897207 -2.903581,0.01966 -5.240752,2.244229 -5.21981,4.968358 0.02094,2.724129 2.392067,4.916852 5.295649,4.897205 l 2.628865,-0.01778 0.03792,4.932781 -2.628865,0.01779 c -2.903582,0.01966 -5.240753,2.244229 -5.219811,4.968357 0.02094,2.724129 2.392067,4.916852 5.295649,4.897205 2.90391,-0.01966 5.240752,-2.244227 5.21981,-4.968356 l -0.01895,-2.466391 5.25773,-0.03557 0.01892,2.460223 c 1.9e-5,0.0024 -2.95e-4,0.0043 -2.81e-4,0.0062 0.02094,2.724128 2.392068,4.916853 5.29565,4.897206 2.903581,-0.01966 5.240751,-2.244229 5.21981,-4.968358 -0.02094,-2.724128 -2.391735,-4.916237 -5.295321,-4.897207 z m -0.0948,-12.331955 c 1.451791,-0.0097 2.637353,1.08654 2.647824,2.448603 0.01043,1.362065 -1.158115,2.474356 -2.609906,2.484179 l -2.628865,0.01778 -0.01895,-2.46639 c -0.01043,-1.362065 1.158115,-2.474355 2.609906,-2.48418 z m -18.383095,2.590908 c -0.01043,-1.362065 1.158114,-2.474356 2.609904,-2.484179 1.451791,-0.0097 2.637355,1.086538 2.647825,2.448602 l 0.01895,2.466392 -2.628865,0.01778 c -1.451791,0.0097 -2.637357,-1.086847 -2.647824,-2.448603 z m 2.761582,17.246946 c -1.451791,0.0097 -2.637355,-1.086538 -2.647826,-2.448602 -0.01043,-1.362065 1.158115,-2.474356 2.609906,-2.484179 l 2.628865,-0.01779 0.01896,2.466391 c 0.01043,1.362065 -1.158114,2.474354 -2.609905,2.484178 z m 5.200851,-7.434747 -0.03792,-4.932782 5.257731,-0.03557 0.03792,4.932782 z m 10.572338,7.32802 c -1.45179,0.0097 -2.637353,-1.086538 -2.647824,-2.448603 l -0.01895,-2.46639 2.628536,-0.01778 c 1.451791,-0.0097 2.637354,1.086539 2.647824,2.448603 0.01043,1.362064 -1.157786,2.474354 -2.609577,2.484177 z"
     id="path28"
     style="opacity:1;fill:#ffffff;stroke-width:0.41249508"
     inkscape:connector-curvature="0" />
</svg>
