<?xml version="1.0" encoding="UTF-8" standalone="no"?>
<!-- Created with Inkscape (http://www.inkscape.org/) -->

<svg
   xmlns:dc="http://purl.org/dc/elements/1.1/"
   xmlns:cc="http://creativecommons.org/ns#"
   xmlns:rdf="http://www.w3.org/1999/02/22-rdf-syntax-ns#"
   xmlns:svg="http://www.w3.org/2000/svg"
   xmlns="http://www.w3.org/2000/svg"
   xmlns:xlink="http://www.w3.org/1999/xlink"
   xmlns:sodipodi="http://sodipodi.sourceforge.net/DTD/sodipodi-0.dtd"
   xmlns:inkscape="http://www.inkscape.org/namespaces/inkscape"
   width="48"
   height="48"
   viewBox="0 0 12.7 12.7"
   version="1.1"
   id="svg8"
   inkscape:version="0.92.2 2405546, 2018-03-11"
   sodipodi:docname="system-software-update.svg">
  <defs
     id="defs2">
    <linearGradient
       id="linearGradient4232">
      <stop
         style="stop-color:#3889e9;stop-opacity:1"
         offset="0"
         id="stop4234-0" />
      <stop
         style="stop-color:#5ea5fb;stop-opacity:1"
         offset="1"
         id="stop4236" />
    </linearGradient>
    <linearGradient
       y2="12.945999"
       y1="364.75723"
       x2="183.32736"
       x1="197.88585"
       gradientUnits="userSpaceOnUse"
       id="a-69">
      <stop
         style="stop-color:#2b87f2;stop-opacity:1"
         id="stop2-3"
         stop-color="#197cf1"
         offset="0" />
      <stop
         id="stop4-7-7"
         stop-color="#20bcfa"
         offset="1" />
    </linearGradient>
    <linearGradient
       inkscape:collect="always"
       xlink:href="#linearGradient1299"
       id="linearGradient1301"
       x1="-46.576271"
       y1="24.20339"
       x2="-2.0338986"
       y2="24.20339"
       gradientUnits="userSpaceOnUse"
       gradientTransform="matrix(1.0002336,0,0,1.0002114,0.01097825,-2.1142885e-4)" />
    <linearGradient
       inkscape:collect="always"
       id="linearGradient1299">
      <stop
         style="stop-color:#f2f2f2;stop-opacity:1"
         offset="0"
         id="stop1295" />
      <stop
         style="stop-color:#f9f9f9;stop-opacity:1"
         offset="1"
         id="stop1297" />
    </linearGradient>
    <linearGradient
       inkscape:collect="always"
       xlink:href="#linearGradient1368"
       id="linearGradient1370"
       x1="23.791016"
       y1="46.476032"
       x2="23.791016"
       y2="1.0019531"
       gradientUnits="userSpaceOnUse"
       gradientTransform="matrix(1.0000573,0,0,1,-5.9504568e-5,-4.3165884e-4)" />
    <linearGradient
       inkscape:collect="always"
       id="linearGradient1368">
      <stop
         style="stop-color:#42a603;stop-opacity:1"
         offset="0"
         id="stop1364" />
      <stop
         style="stop-color:#78da06;stop-opacity:1"
         offset="1"
         id="stop1366" />
    </linearGradient>
  </defs>
  <sodipodi:namedview
     id="base"
     pagecolor="#ffffff"
     bordercolor="#666666"
     borderopacity="1.0"
     inkscape:pageopacity="0.0"
     inkscape:pageshadow="2"
     inkscape:zoom="10.145833"
     inkscape:cx="24.000001"
     inkscape:cy="24.000001"
     inkscape:document-units="px"
     inkscape:current-layer="layer1"
     showgrid="false"
     units="px"
     inkscape:showpageshadow="false"
     inkscape:window-width="1366"
     inkscape:window-height="699"
     inkscape:window-x="0"
     inkscape:window-y="0"
     inkscape:window-maximized="1" />
  <metadata
     id="metadata5">
    <rdf:RDF>
      <cc:Work
         rdf:about="">
        <dc:format>image/svg+xml</dc:format>
        <dc:type
           rdf:resource="http://purl.org/dc/dcmitype/StillImage" />
        <dc:title></dc:title>
      </cc:Work>
    </rdf:RDF>
  </metadata>
  <g
     inkscape:label="Layer 1"
     inkscape:groupmode="layer"
     id="layer1"
     transform="translate(0,-284.29998)">
    <g
       id="g7474">
      <g
         id="g894"
         transform="matrix(0.26458333,0,0,0.26458333,7.2398137e-8,284.30001)">
        <rect
           transform="rotate(-90)"
           id="rect884-3"
           y="1.0000008"
           x="-46.999893"
           width="46"
           ry="23.999983"
           height="46"
           style="fill:url(#linearGradient1301);fill-opacity:1;stroke-width:1.16380882"
           rx="23.999989" />
        <path
           inkscape:connector-curvature="0"
           style="opacity:1;fill:url(#linearGradient1370);fill-opacity:1;stroke-width:2.79999948;stroke-opacity:0.55"
           d="m 23.792319,1.0015213 c -0.707096,0.0078 -1.417447,0.05048 -2.130982,0.125 -0.0078,7.77e-4 -0.01567,0.0012 -0.02344,0.002 -0.0019,2.05e-4 -0.0039,-2.05e-4 -0.0059,0 -0.215212,0.02275 -0.430949,0.05308 -0.646521,0.08203 -0.21078,0.02734 -0.42198,0.05492 -0.630895,0.08789 -0.0013,2.01e-4 -0.0026,-2.01e-4 -0.0039,0 -0.0039,6.32e-4 -0.0078,0.0013 -0.01172,0.002 C 9.350695,3.0422573 1.0000008,12.511778 1.0000008,24.005525 c 0,0.796012 0.038965,1.58267 0.1171942,2.357422 0.078237,0.774752 0.1950085,1.537416 0.3476762,2.28711 0.076334,0.374846 0.1616428,0.745411 0.255874,1.113281 0.1884634,0.735739 0.4108004,1.45908 0.6680071,2.164062 0.1286037,0.35249 0.2651026,0.69888 0.4101797,1.042969 3.595e-4,8.53e-4 0.00347,0.0011 0.00391,0.002 0.2898662,0.68725 0.610194,1.358879 0.9629458,2.009766 0.5554408,1.024878 1.209024,1.98556 1.9083124,2.908203 0.190071,0.250779 0.3644818,0.513327 0.5644855,0.755859 0,0 0,0.002 0,0.002 0.4676216,0.566974 0.9632958,1.111669 1.4825068,1.630859 0.8171011,0.817058 1.7099591,1.551657 2.6427295,2.238281 0.253533,0.18663 0.494517,0.390105 0.755903,0.566406 0,0 0.002,0 0.002,0 0.611056,0.412077 1.243373,0.795513 1.89464,1.148438 0,0 0.002,0 0.002,0 0.977192,0.529442 1.997815,0.99134 3.054863,1.376953 0,0 0.002,0 0.002,0 0.351931,0.128351 0.70663,0.247912 1.066467,0.359375 0,0 0.002,0 0.002,0 0.359847,0.111429 0.72458,0.216479 1.091859,0.310547 0,0 0.002,0 0.002,0 0.735249,0.188243 1.484031,0.3412 2.246223,0.457031 0,0 0.002,0 0.002,0 0.380756,0.05783 0.765638,0.10744 1.15241,0.146484 0,0 0.002,0 0.002,0 0.773938,0.078 1.559729,0.117095 2.355271,0.117095 4.533763,0 8.748934,-1.305162 12.303439,-3.552734 0.303321,-0.191796 0.603114,-0.38836 0.896535,-0.59375 0.0375,-0.02617 0.07401,-0.0537 0.111335,-0.08008 0.268079,-0.190051 0.531717,-0.384837 0.791061,-0.585938 0.03527,-0.02728 0.07038,-0.05456 0.105475,-0.08203 0.246779,-0.193665 0.490104,-0.392282 0.728558,-0.595703 0.05981,-0.05094 0.118504,-0.102788 0.177744,-0.154297 0.213558,-0.18599 0.424425,-0.374691 0.630895,-0.56836 0.06995,-0.06554 0.137977,-0.132857 0.207043,-0.199218 0.190619,-0.183332 0.378348,-0.368807 0.562532,-0.558594 0.09023,-0.09291 0.179031,-0.186907 0.267594,-0.28125 0.140593,-0.149846 0.279476,-0.301484 0.416039,-0.455078 0.128931,-0.144969 0.255796,-0.291415 0.380882,-0.439453 0.110718,-0.131049 0.220339,-0.262934 0.328144,-0.396485 0.116491,-0.144306 0.230886,-0.290522 0.343769,-0.4375 0.123529,-0.160849 0.245938,-0.322135 0.365255,-0.486328 0.08299,-0.114172 0.163315,-0.230064 0.244155,-0.345703 0.135602,-0.194025 0.268769,-0.389515 0.39846,-0.587891 0.07538,-0.115244 0.149391,-0.231098 0.222669,-0.347656 0.113429,-0.180512 0.223553,-0.363003 0.332051,-0.546875 0.08563,-0.144988 0.169544,-0.290668 0.251967,-0.4375 0.09544,-0.170194 0.190074,-0.340812 0.281267,-0.513672 0.09141,-0.173019 0.178653,-0.348097 0.26564,-0.523437 0.06688,-0.135064 0.134941,-0.269684 0.19923,-0.40625 0.09955,-0.210968 0.193992,-0.424642 0.287126,-0.638672 0.05382,-0.124054 0.108473,-0.247856 0.160165,-0.373047 0.100135,-0.241697 0.195213,-0.485234 0.287125,-0.730469 0.03085,-0.08266 0.06188,-0.164937 0.09181,-0.248047 0.11096,-0.306775 0.212625,-0.615946 0.310564,-0.927734 0.0052,-0.01651 0.01243,-0.0323 0.01758,-0.04883 0.003,-0.0096 0.0048,-0.01968 0.0078,-0.0293 0.108166,-0.348717 0.209209,-0.700292 0.300798,-1.054687 8.29e-4,-0.0032 0.0011,-0.0066 0.002,-0.0098 5.07e-4,-0.002 0.0014,-0.0039 0.002,-0.0059 0.956957,-3.713609 1.000678,-7.721023 -0.06641,-11.703124 C 43.425565,7.6721343 34.04561,0.88808334 23.792319,1.0015213 Z m 0.203137,2.556641 c 9.044368,-0.02022 17.286638,5.988533 19.743318,15.1562497 0.474257,1.769809 0.701214,3.545157 0.705118,5.291015 h -0.0059 c 0,0.397673 -0.01492,0.791666 -0.03711,1.183594 -0.02287,0.407192 -0.06044,0.812332 -0.107428,1.214844 -0.02719,0.234457 -0.05485,0.469251 -0.08985,0.701172 -0.06923,0.454922 -0.154555,0.904716 -0.253921,1.351562 -0.0402,0.182237 -0.08,0.364577 -0.125007,0.544922 -0.111868,0.444916 -0.243686,0.883547 -0.384788,1.318359 -0.120286,0.372659 -0.259722,0.736777 -0.400414,1.09961 -0.102833,0.264144 -0.200868,0.529719 -0.314471,0.789062 -0.141578,0.324202 -0.301382,0.638052 -0.45901,0.953125 -0.140124,0.279533 -0.276973,0.561261 -0.429713,0.833985 -0.159343,0.284848 -0.333504,0.559792 -0.505888,0.835937 -0.17474,0.279747 -0.347006,0.560908 -0.535187,0.832031 -0.178563,0.25734 -0.370656,0.503468 -0.560579,0.751954 -0.212141,0.277521 -0.423937,0.55556 -0.650428,0.822265 -0.190174,0.223974 -0.392289,0.436884 -0.591831,0.652344 -0.243258,0.262567 -0.486665,0.525312 -0.744183,0.775391 -0.203279,0.197565 -0.417563,0.383263 -0.628942,0.572265 -0.288405,0.257531 -0.576867,0.514149 -0.88091,0.75586 -0.192307,0.153209 -0.393921,0.295098 -0.591831,0.441406 -0.341156,0.251529 -0.684325,0.50125 -1.043029,0.732422 -0.371706,0.240382 -0.74884,0.471142 -1.136783,0.6875 -0.179098,0.09949 -0.360173,0.194611 -0.543,0.289062 -0.398261,0.206571 -0.803649,0.403368 -1.216867,0.583985 -0.210549,0.09172 -0.425828,0.176599 -0.640661,0.261718 -0.351443,0.139548 -0.707588,0.268317 -1.068421,0.388672 -0.398136,0.132951 -0.801876,0.259 -1.21296,0.369141 l 0.002,0.0078 c -1.686648,0.447562 -3.459985,0.689453 -5.291318,0.689453 -5.66233,0 -10.770849,-2.278259 -14.4656725,-5.972656 C 8.6060747,37.548623 7.7707139,36.535821 7.0374501,35.448787 4.8376594,32.187686 3.5548287,28.251689 3.5548287,24.005427 c 0,-9.490888 6.4059671,-17.4286527 15.1473523,-19.7499997 l 0.002,0.0078 c 0.68365,-0.183168 1.369492,-0.3303 2.052851,-0.441406 0.193039,-0.03139 0.385354,-0.05432 0.578158,-0.08008 0.187976,-0.02424 0.374914,-0.05118 0.564487,-0.07031 0.688856,-0.06953 1.388031,-0.105469 2.095823,-0.105469 z"
           id="path31-6" />
        <g
           id="g1386">
          <rect
             style="opacity:1;vector-effect:none;fill:#63c605;fill-opacity:1;stroke:none;stroke-width:0.49999994;stroke-linecap:butt;stroke-linejoin:miter;stroke-miterlimit:4;stroke-dasharray:none;stroke-dashoffset:0;stroke-opacity:1"
             id="rect1139-2"
             width="7.0862446"
             height="4.7828884"
             x="20.452015"
             y="-28.771984"
             transform="scale(1,-1)" />
          <rect
             y="-34.898426"
             x="20.452015"
             height="4.7828884"
             width="7.0862446"
             id="rect1141-6"
             style="opacity:1;vector-effect:none;fill:#52b504;fill-opacity:1;stroke:none;stroke-width:0.49999994;stroke-linecap:butt;stroke-linejoin:miter;stroke-miterlimit:4;stroke-dasharray:none;stroke-dashoffset:0;stroke-opacity:1"
             transform="scale(1,-1)" />
          <path
             style="opacity:1;vector-effect:none;fill:#78da06;fill-opacity:1;stroke:none;stroke-width:0.49999994;stroke-linecap:butt;stroke-linejoin:miter;stroke-miterlimit:4;stroke-dasharray:none;stroke-dashoffset:0;stroke-opacity:1"
             d="m 14.213132,22.893163 9.782738,-9.781061 9.781276,9.781061 h -4.180507 l -5.600769,-5.602099 -5.602231,5.602099 z"
             id="rect1145-1"
             inkscape:connector-curvature="0" />
        </g>
      </g>
    </g>
  </g>
</svg>
