<?xml version="1.0" encoding="UTF-8" standalone="no"?>
<svg
   xmlns:dc="http://purl.org/dc/elements/1.1/"
   xmlns:cc="http://creativecommons.org/ns#"
   xmlns:rdf="http://www.w3.org/1999/02/22-rdf-syntax-ns#"
   xmlns:svg="http://www.w3.org/2000/svg"
   xmlns="http://www.w3.org/2000/svg"
   viewBox="0 0 16 16"
   version="1.1"
   id="svg3">
  <metadata
     id="metadata9">
    <rdf:RDF>
      <cc:Work
         rdf:about="">
        <dc:format>image/svg+xml</dc:format>
        <dc:type
           rdf:resource="http://purl.org/dc/dcmitype/StillImage" />
        <dc:title></dc:title>
      </cc:Work>
    </rdf:RDF>
  </metadata>
  <defs
     id="defs7">
    <style
       type="text/css"
       id="current-color-scheme">
      .ColorScheme-Text {
        color:#4d4d4d;
      }
      </style>
  </defs>
  <path
     id="path823"
     d="m 2,2 v 1 3 1 6 1 H 14 V 13 6 5 4 H 9.0078125 l -2,-2 L 7,2.0078125 V 2 H 3 Z M 3,3 H 6.5917969 L 7.59375,4 H 7 V 4.00781 L 6.9921875,4 l -2,2 H 3 Z m 4.6523438,1.1484375 h 0.7011718 c 0.1555078,0 0.28125,0.1370602 0.28125,0.3085937 v 0.078125 c 0,0.1715338 -0.1257422,0.3085938 -0.28125,0.3085938 H 7.6523438 c -0.1555078,0 -0.2812499,-0.13706 -0.28125,-0.3085938 v -0.078125 c -10e-8,-0.1715336 0.1257425,-0.3085937 0.28125,-0.3085937 z m 0.013672,1.0371094 h 0.7011719 c 0.1555078,0 0.28125,0.13706 0.28125,0.3085937 v 0.076172 c 0,0.1715338 -0.1257422,0.3105469 -0.28125,0.3105469 H 7.6660156 c -0.1555077,0 -0.2812499,-0.1390131 -0.28125,-0.3105469 v -0.076172 c 0,-0.1715337 0.125743,-0.3085937 0.2812502,-0.3085937 z m 0,1.0175781 h 0.7011719 c 0.1555078,0 0.28125,0.1390133 0.28125,0.3105469 v 0.076172 c 0,0.1715336 -0.1257422,0.3085937 -0.28125,0.3085937 H 7.6660156 c -0.1555077,0 -0.2812499,-0.1370601 -0.28125,-0.3085937 v -0.076172 c 0,-0.1715336 0.125743,-0.3105469 0.2812502,-0.3105469 z m 0,1.0410156 h 0.7011719 c 0.1555078,0 0.28125,0.1390133 0.28125,0.3105469 v 0.078125 c 0,0.1715337 -0.1257422,0.3085937 -0.28125,0.3085937 H 7.6660156 c -0.1555077,0 -0.2812499,-0.13706 -0.28125,-0.3085937 v -0.078125 c 0,-0.1715336 0.125743,-0.3105469 0.2812502,-0.3105469 z m 0.056641,1.0546875 h 0.5546876 c 0.1106717,0 0.2011718,0.098199 0.2011718,0.2207031 V 8.9589844 L 8.7890625,9.96875 c 0.086635,0.280551 0.044824,0.590296 -0.1113281,0.832031 C 8.5215826,11.042118 8.2682268,11.1875 8,11.1875 7.7318268,11.1875 7.4784205,11.042119 7.3222656,10.800781 7.1661134,10.559046 7.1242775,10.2495 7.2109375,9.96875 L 7.5195312,8.9589844 V 8.5195312 c 0,-0.1225047 0.092453,-0.2207031 0.2031256,-0.2207031 z M 7.6972656,9.7734375 7.5917969,10.111328 c -0.044507,0.144943 -0.021945,0.304999 0.058594,0.429688 0.1607004,0.248883 0.5385436,0.248883 0.6992188,0 0.080529,-0.124689 0.1011666,-0.284944 0.056641,-0.429688 L 8.3027344,9.7734375 Z"
     style="fill:#4d4d4d;fill-opacity:1;stroke:none" />
</svg>
