<?xml version="1.0" encoding="UTF-8" standalone="no"?>
<svg
   xmlns:dc="http://purl.org/dc/elements/1.1/"
   xmlns:cc="http://creativecommons.org/ns#"
   xmlns:rdf="http://www.w3.org/1999/02/22-rdf-syntax-ns#"
   xmlns:svg="http://www.w3.org/2000/svg"
   xmlns="http://www.w3.org/2000/svg"
   id="svg6"
   version="1.1"
   viewBox="0 0 16 16">
  <metadata
     id="metadata10">
    <rdf:RDF>
      <cc:Work
         rdf:about="">
        <dc:format>image/svg+xml</dc:format>
        <dc:type
           rdf:resource="http://purl.org/dc/dcmitype/StillImage" />
        <dc:title></dc:title>
      </cc:Work>
    </rdf:RDF>
  </metadata>
  <defs
     id="defs3051">
    <style
       id="current-color-scheme"
       type="text/css">
      .ColorScheme-Text {
        color:#4d4d4d;
      }
      </style>
  </defs>
  <path
     id="path4"
     d="M 6.6666667,1 A 1.6666667,1.6666667 0 0 0 5,2.6666667 V 3.6666666 H 2.3333333 A 1.3333333,1.3333333 0 0 0 1,5.0000004 v 2.5338539 h 1 c 1,0 1.7994791,0.7994787 1.7994792,1.7994797 0,1 -0.7994792,1.799478 -1.7994792,1.799478 H 1 v 2.533854 A 1.3333333,1.3333333 0 0 0 2.3333333,15 h 2.5338542 v -1 c 0,-1 0.7994791,-1.799479 1.7994792,-1.799479 0.9999999,0 1.799479,0.799479 1.799479,1.799479 v 1 H 11 a 1.3333333,1.3333333 0 0 0 1.333333,-1.333334 V 11 h 1 A 1.6666667,1.6666667 0 0 0 15,9.333334 1.6666667,1.6666667 0 0 0 13.333333,7.666667 h -1 V 5.0000004 C 12.333333,4.26 11.733334,3.6666666 11,3.6666666 H 8.333333 V 2.6666667 A 1.6666667,1.6666667 0 0 0 6.6666667,1 Z"
     class="ColorScheme-Text"
     style="color:#4d4d4d;fill:#4d4d4d;fill-opacity:1;stroke:none;stroke-width:1" />
</svg>
