<?xml version="1.0" encoding="UTF-8" standalone="no"?>
<svg
   xmlns:dc="http://purl.org/dc/elements/1.1/"
   xmlns:cc="http://creativecommons.org/ns#"
   xmlns:rdf="http://www.w3.org/1999/02/22-rdf-syntax-ns#"
   xmlns:svg="http://www.w3.org/2000/svg"
   xmlns="http://www.w3.org/2000/svg"
   id="svg6"
   version="1.1"
   viewBox="0 0 16 16">
  <metadata
     id="metadata10">
    <rdf:RDF>
      <cc:Work
         rdf:about="">
        <dc:format>image/svg+xml</dc:format>
        <dc:type
           rdf:resource="http://purl.org/dc/dcmitype/StillImage" />
        <dc:title></dc:title>
      </cc:Work>
    </rdf:RDF>
  </metadata>
  <defs
     id="defs3051">
    <style
       id="current-color-scheme"
       type="text/css">
      .ColorScheme-Text {
        color:#4d4d4d;
      }
      </style>
  </defs>
  <path
     id="path9330"
     d="M 6.1090413,15.566561 5.9422418,13.573392 A 5.9455554,5.9455554 0 0 1 4.2046308,12.568387 L 2.3917695,13.422379 0.5,10.144759 2.1442214,9.003214 A 5.9455554,5.9455554 0 0 1 2.0534188,8.000034 5.9455554,5.9455554 0 0 1 2.1400052,6.992932 L 0.5001131,5.855709 2.3918826,2.578949 4.1992229,3.429811 A 5.9455554,5.9455554 0 0 1 5.9410577,2.431149 l 0.1675537,-1.99771 h 3.7835315 l 0.1667991,1.993169 a 5.9455554,5.9455554 0 0 1 1.737619,1.005006 l 1.811556,-0.852982 1.89177,3.27676 -1.644757,1.142194 A 5.9455554,5.9455554 0 0 1 13.94701,7.99968 5.9455554,5.9455554 0 0 1 13.85944,9.007181 L 15.5,10.145167 13.608223,13.421911 11.800875,12.571057 a 5.9455554,5.9455554 0 0 1 -1.741503,0.997772 l -0.1664749,1.99771 H 6.1093656 Z m 1.891762,-5.40505 a 2.1620202,2.1620202 0 0 0 2.1620277,-2.16202 2.1620202,2.1620202 0 0 0 -2.1620277,-2.16202 2.1620202,2.1620202 0 0 0 -2.1620126,2.16202 2.1620202,2.1620202 0 0 0 2.1620126,2.16202 z"
     style="opacity:1;fill:#4d4d4d;fill-opacity:1;stroke-width:1.43324983;enable-background:new" />
</svg>
