<?xml version="1.0" encoding="UTF-8" standalone="no"?>
<svg
   xmlns:dc="http://purl.org/dc/elements/1.1/"
   xmlns:cc="http://creativecommons.org/ns#"
   xmlns:rdf="http://www.w3.org/1999/02/22-rdf-syntax-ns#"
   xmlns:svg="http://www.w3.org/2000/svg"
   xmlns="http://www.w3.org/2000/svg"
   xmlns:sodipodi="http://sodipodi.sourceforge.net/DTD/sodipodi-0.dtd"
   xmlns:inkscape="http://www.inkscape.org/namespaces/inkscape"
   viewBox="0 0 16 16"
   version="1.1"
   id="svg6"
   sodipodi:docname="folder-public.svg"
   inkscape:version="0.92.4 (unknown)">
  <metadata
     id="metadata10">
    <rdf:RDF>
      <cc:Work
         rdf:about="">
        <dc:format>image/svg+xml</dc:format>
        <dc:type
           rdf:resource="http://purl.org/dc/dcmitype/StillImage" />
      </cc:Work>
    </rdf:RDF>
  </metadata>
  <sodipodi:namedview
     pagecolor="#ffffff"
     bordercolor="#666666"
     borderopacity="1"
     objecttolerance="10"
     gridtolerance="10"
     guidetolerance="10"
     inkscape:pageopacity="0"
     inkscape:pageshadow="2"
     inkscape:window-width="1366"
     inkscape:window-height="709"
     id="namedview8"
     showgrid="false"
     inkscape:zoom="22.627417"
     inkscape:cx="8.0147851"
     inkscape:cy="8.1718885"
     inkscape:window-x="0"
     inkscape:window-y="0"
     inkscape:window-maximized="1"
     inkscape:current-layer="svg6" />
  <defs
     id="defs3051">
    <style
       type="text/css"
       id="current-color-scheme">
      .ColorScheme-Text {
        color:#4d4d4d;
      }
      </style>
  </defs>
  <path
     style="color:#4d4d4d;opacity:1;fill:#4d4d4d;fill-opacity:1;stroke:none;stroke-width:0.66666669"
     d="M 6.5,2 C 5.115,2 4,3.115 4,4.5 4,5.885 5.115,7 6.5,7 7.885,7 9,5.885 9,4.5 9,3.115 7.885,2 6.5,2 Z"
     id="path822" />
  <path
     style="color:#4d4d4d;opacity:1;fill:#4d4d4d;fill-opacity:1;stroke:none;stroke-width:0.66666669"
     d="m 12,4 c -1.108001,0 -2,0.892 -2,2 0,1.108 0.891999,2 2,2 1.108,0 2,-0.892 2,-2 0,-1.108 -0.892,-2 -2,-2 z"
     id="path820" />
  <path
     style="color:#4d4d4d;opacity:1;fill:#4d4d4d;fill-opacity:1;stroke:none;stroke-width:0.66666669"
     d="M 6.5,8 C 4.0070122,8 2,10.007011 2,12.5 V 13 14 H 2.2753906 3 3.3457031 9.6542969 10.724609 11 V 13 12.5 C 11,10.007011 8.9929876,8 6.5,8 Z"
     id="path818" />
  <path
     style="color:#4d4d4d;opacity:1;fill:#4d4d4d;fill-opacity:1;stroke:none;stroke-width:0.66666669"
     d="M 12 9 C 11.610038 9 11.241951 9.0819079 10.902344 9.21875 C 11.588342 10.136311 12 11.270444 12 12.5 L 12 13 L 14.103516 13 L 14.816406 13 L 15 13 L 15 12.333984 L 15 12 C 15 10.338007 13.661991 9 12 9 z "
     id="path922" />
</svg>
