<?xml version="1.0" encoding="UTF-8" standalone="no"?>
<svg
   xmlns:dc="http://purl.org/dc/elements/1.1/"
   xmlns:cc="http://creativecommons.org/ns#"
   xmlns:rdf="http://www.w3.org/1999/02/22-rdf-syntax-ns#"
   xmlns:svg="http://www.w3.org/2000/svg"
   xmlns="http://www.w3.org/2000/svg"
   id="svg6"
   version="1.1"
   viewBox="0 0 16 16">
  <metadata
     id="metadata10">
    <rdf:RDF>
      <cc:Work
         rdf:about="">
        <dc:format>image/svg+xml</dc:format>
        <dc:type
           rdf:resource="http://purl.org/dc/dcmitype/StillImage" />
        <dc:title></dc:title>
      </cc:Work>
    </rdf:RDF>
  </metadata>
  <defs
     id="defs3051">
    <style
       id="current-color-scheme"
       type="text/css">
      .ColorScheme-Text {
        color:#4d4d4d;
      }
      </style>
  </defs>
  <path
     id="circle4175"
     d="M 4.601912,1 A 1.6990443,1.7500001 0 0 0 2.9028675,2.7500003 1.6990443,1.7500001 0 0 0 4.0355638,4.3974616 V 11.602539 A 1.6990443,1.7500001 0 0 0 2.9028675,13.250002 1.6990443,1.7500001 0 0 0 4.601912,15 1.6990443,1.7500001 0 0 0 6.3009562,13.250002 1.6990443,1.7500001 0 0 0 5.2147182,11.618491 c 0.2158883,-1.39215 1.3709978,-2.451823 2.7852823,-2.451823 2.0301935,0 3.6756325,-1.5621863 3.9157645,-3.5843102 A 1.6990443,1.7500001 0 0 0 13.097132,3.9166675 1.6990443,1.7500001 0 0 0 11.39809,2.1666667 1.6990443,1.7500001 0 0 0 9.6990446,3.9166675 1.6990443,1.7500001 0 0 0 10.785282,5.5481779 c -0.215888,1.392153 -1.370997,2.4518234 -2.7852815,2.4518234 -1.1134873,0 -2.1129693,0.4718437 -2.8317404,1.2281904 V 4.3974616 A 1.6990443,1.7500001 0 0 0 6.3009562,2.7500003 1.6990443,1.7500001 0 0 0 4.601912,1 Z m 0,1.1666667 A 0.5663481,0.58333342 0 0 1 5.1682601,2.7500003 0.5663481,0.58333342 0 0 1 4.601912,3.3333339 0.5663481,0.58333342 0 0 1 4.0355638,2.7500003 0.5663481,0.58333342 0 0 1 4.601912,2.1666667 Z M 11.39809,3.3333339 A 0.5663481,0.58333342 0 0 1 11.964437,3.9166675 0.5663481,0.58333342 0 0 1 11.39809,4.5000009 0.5663481,0.58333342 0 0 1 10.83174,3.9166675 0.5663481,0.58333342 0 0 1 11.39809,3.3333339 Z M 4.601912,12.666666 A 0.5663481,0.58333342 0 0 1 5.1682601,13.250002 0.5663481,0.58333342 0 0 1 4.601912,13.833336 0.5663481,0.58333342 0 0 1 4.0355638,13.250002 0.5663481,0.58333342 0 0 1 4.601912,12.666666 Z"
     style="opacity:1;fill:#4d4d4d;fill-opacity:1;stroke:none;stroke-width:0.08424623;stroke-linecap:square;stroke-linejoin:miter;stroke-miterlimit:4;stroke-dasharray:none;stroke-dashoffset:0;stroke-opacity:1" />
</svg>
