<?xml version="1.0" encoding="UTF-8" standalone="no"?>
<svg
   xmlns:dc="http://purl.org/dc/elements/1.1/"
   xmlns:cc="http://creativecommons.org/ns#"
   xmlns:rdf="http://www.w3.org/1999/02/22-rdf-syntax-ns#"
   xmlns:svg="http://www.w3.org/2000/svg"
   xmlns="http://www.w3.org/2000/svg"
   xmlns:sodipodi="http://sodipodi.sourceforge.net/DTD/sodipodi-0.dtd"
   xmlns:inkscape="http://www.inkscape.org/namespaces/inkscape"
   width="16px"
   height="16px"
   viewBox="0 0 16 16"
   version="1.1"
   id="svg11"
   sodipodi:docname="folder-sounds.svg"
   inkscape:version="0.92.4 (unknown)">
  <metadata
     id="metadata15">
    <rdf:RDF>
      <cc:Work
         rdf:about="">
        <dc:format>image/svg+xml</dc:format>
        <dc:type
           rdf:resource="http://purl.org/dc/dcmitype/StillImage" />
      </cc:Work>
    </rdf:RDF>
  </metadata>
  <sodipodi:namedview
     pagecolor="#ffffff"
     bordercolor="#666666"
     borderopacity="1"
     objecttolerance="10"
     gridtolerance="10"
     guidetolerance="10"
     inkscape:pageopacity="0"
     inkscape:pageshadow="2"
     inkscape:window-width="1366"
     inkscape:window-height="709"
     id="namedview13"
     showgrid="false"
     inkscape:zoom="31.8125"
     inkscape:cx="8"
     inkscape:cy="8"
     inkscape:window-x="0"
     inkscape:window-y="0"
     inkscape:window-maximized="1"
     inkscape:current-layer="svg11" />
  <!-- Generator: Sketch 42 (36781) - http://www.bohemiancoding.com/sketch -->
  <title
     id="title2">folder-music-symbolic</title>
  <desc
     id="desc4">Created with Sketch.</desc>
  <defs
     id="defs6" />
  <path
     inkscape:connector-curvature="0"
     style="fill:#4d4d4d;fill-rule:nonzero;stroke:none;stroke-width:0.99689686"
     d="M 14.402344,1.0035003 5.4023438,1.9976409 C 5.1491108,2.0256 4.9570312,2.2366491 4.9570312,2.4898284 V 4.7261565 11.394125 C 4.5434605,11.160376 4.0384744,11.024984 3.5,11.024984 c -1.3546578,0 -2.5,0.854499 -2.5,1.988281 0,1.133785 1.1453422,1.986329 2.5,1.986329 1.3546579,0 2.5,-0.852545 2.5,-1.986329 0,-0.154958 -0.020141,-0.306186 -0.060547,-0.449218 0.012488,-0.04344 0.017578,-0.08929 0.017578,-0.136719 V 5.4195159 l 8.001953,-0.8828125 v 5.8632806 c -0.41374,-0.234069 -0.920113,-0.36914 -1.458984,-0.36914 -1.354658,0 -2.5,0.854497 -2.5,1.988281 0,1.133783 1.145342,1.986328 2.5,1.986328 1.354657,0 2.5,-0.852545 2.5,-1.986328 0,-0.154415 -0.02041,-0.304692 -0.06055,-0.447266 0.01276,-0.04394 0.01953,-0.08867 0.01953,-0.136718 V 3.7320159 1.4976409 c 0,-0.2961398 -0.260439,-0.52684365 -0.55664,-0.4941406 z m -0.44336,1.0488281 v 1.484375 L 5.9570312,4.4195159 v -1.484375 z"
     id="path836" />
</svg>
