<?xml version="1.0" encoding="UTF-8" standalone="no"?>
<svg
   xmlns:dc="http://purl.org/dc/elements/1.1/"
   xmlns:cc="http://creativecommons.org/ns#"
   xmlns:rdf="http://www.w3.org/1999/02/22-rdf-syntax-ns#"
   xmlns:svg="http://www.w3.org/2000/svg"
   xmlns="http://www.w3.org/2000/svg"
   id="svg6"
   version="1.1"
   viewBox="0 0 16 16">
  <metadata
     id="metadata10">
    <rdf:RDF>
      <cc:Work
         rdf:about="">
        <dc:format>image/svg+xml</dc:format>
        <dc:type
           rdf:resource="http://purl.org/dc/dcmitype/StillImage" />
        <dc:title></dc:title>
      </cc:Work>
    </rdf:RDF>
  </metadata>
  <defs
     id="defs3051">
    <style
       id="current-color-scheme"
       type="text/css">
      .ColorScheme-Text {
        color:#4d4d4d;
      }
      </style>
  </defs>
  <path
     d="m 11.829918,10.460749 c 0,-0.09375 -0.144551,-0.203108 -0.433661,-0.328099 0.02104,-0.07812 0.04072,-0.1497245 0.05914,-0.2148245 0.01837,-0.0651 0.03157,-0.132804 0.03941,-0.203109 0.0079,-0.07031 0.01577,-0.126296 0.02366,-0.167959 0.0079,-0.04169 0.0092,-0.10025 0.0037,-0.175767 -0.0053,-0.07552 -0.0079,-0.12629 -0.0079,-0.1523299 0,-0.026028 -0.0092,-0.083335 -0.02758,-0.1718629 -0.01837,-0.088541 -0.02889,-0.1419186 -0.03156,-0.1601443 -0.0025,-0.018255 -0.01577,-0.083327 -0.03941,-0.1952999 C 11.39198,8.5793852 11.377537,8.5103807 11.37225,8.4843413 11.319672,8.2343586 11.196154,7.9661548 11.001662,7.6797159 10.807173,7.3932766 10.617941,7.1979821 10.433964,7.0938223 c 0.126158,0.1041598 0.275966,0.3202882 0.449431,0.6483902 0.457314,0.8436851 0.599237,1.567582 0.42577,2.171708 -0.05783,0.2083135 -0.189232,0.3176795 -0.394232,0.3280965 -0.16295,0.02085 -0.264141,-0.02732 -0.303559,-0.144523 C 10.571964,9.9803175 10.550914,9.7628915 10.548294,9.4452055 10.545794,9.1275154 10.515424,8.848895 10.457614,8.6093299 10.410355,8.4062209 10.359108,8.2265496 10.303915,8.0703096 10.248714,7.9140704 10.19747,7.7955942 10.15016,7.7148707 10.102847,7.6341477 10.062116,7.5703497 10.027952,7.5234763 9.9937762,7.4765984 9.9596174,7.4375472 9.9254489,7.4062958 9.891273,7.375026 9.8715735,7.3568244 9.8663089,7.3516184 9.7927208,7.0287284 9.7112433,6.7605197 9.6218841,6.5469941 9.5325184,6.3334685 9.4549841,6.187646 9.3892829,6.1095267 9.323571,6.0314069 9.2618105,5.9454772 9.2039908,5.8517346 9.1461711,5.757992 9.1067469,5.6538373 9.0857186,5.5392599 9.0646796,5.4298945 9.0804836,5.2905841 9.1330293,5.1213249 9.1855944,4.9520654 9.1974274,4.8231675 9.1685126,4.7346347 9.1395716,4.646095 9.0226286,4.5809984 8.8176218,4.539336 8.7387738,4.523728 8.6218207,4.4768422 8.466752,4.3987242 8.3116885,4.3206048 8.2183855,4.2789412 8.1868485,4.2737356 8.1448237,4.2685478 8.1158822,4.2008315 8.1001134,4.0706213 8.0843608,3.9404216 8.1053419,3.807624 8.1631923,3.6722187 8.2210119,3.5368129 8.3156285,3.4665016 8.4470368,3.461296 8.6415294,3.445688 8.77557,3.523791 8.8491584,3.69565 c 0.073599,0.1718632 0.084101,0.3228914 0.031558,0.453092 -0.05782,0.098953 -0.063075,0.1679577 -0.015753,0.2070176 0.047311,0.039042 0.1261589,0.040339 0.2365441,0.00366 0.068328,-0.020847 0.102498,-0.1145745 0.102498,-0.2812263 V 3.789135 C 9.1777333,3.632895 9.1422395,3.5027011 9.0975616,3.3985409 9.0528675,3.2943807 8.9976904,3.2149599 8.9319838,3.1602772 8.8662771,3.1056008 8.8045166,3.0665346 8.7466916,3.0431024 8.688872,3.0196681 8.6179108,3.0001156 8.5338082,2.9845166 7.9713637,3.0261528 7.737452,3.3751053 7.8320685,4.0313094 c 0,0.07812 -0.00261,0.1171751 -0.00791,0.1171751 C 7.7768515,4.1016065 7.6993222,4.0742725 7.591559,4.0664645 7.4838065,4.0585945 7.3970715,4.0600245 7.3313649,4.0701345 7.2656579,4.0805545 7.2249205,4.0675445 7.2091518,4.0310925 7.2143889,3.7342389 7.1723625,3.4998849 7.083,3.3280217 6.9936399,3.1561396 6.8753732,3.0676026 6.7281913,3.0623961 6.586264,3.0572083 6.4771925,3.1287993 6.4009716,3.277223 6.3247558,3.4256493 6.2813914,3.5805816 6.2708771,3.7420282 c -0.00524,0.078121 0.00366,0.1744648 0.027581,0.2890422 0.023655,0.1145768 0.05782,0.2122232 0.1024981,0.2929467 0.044693,0.080723 0.085422,0.1158734 0.1222181,0.1054612 0.052565,-0.015608 0.094616,-0.052083 0.1261537,-0.1093654 0.021039,-0.046878 0.00261,-0.0677 -0.055193,-0.062494 -0.036791,0 -0.077529,-0.037745 -0.1222129,-0.1132696 -0.044694,-0.075518 -0.069647,-0.1627472 -0.074907,-0.2617016 -0.00524,-0.1145711 0.018423,-0.2109174 0.070967,-0.2890368 0.052565,-0.078121 0.1419221,-0.1145768 0.2680756,-0.1093658 0.089362,0 0.1603233,0.054677 0.2128887,0.1640485 0.052565,0.1093655 0.077529,0.2109174 0.074906,0.3046654 -0.00262,0.093743 -0.00655,0.1510291 -0.011829,0.1718576 -0.1156385,0.07812 -0.197119,0.153636 -0.2444245,0.2265457 -0.042024,0.062495 -0.1143258,0.1236871 -0.2168293,0.1835809 -0.1024981,0.059892 -0.1563772,0.092441 -0.1616369,0.097647 -0.068328,0.072914 -0.1090715,0.1432197 -0.1222128,0.2109227 -0.013136,0.0677 0.00655,0.1145765 0.059134,0.1406169 0.073588,0.04169 0.1392951,0.092436 0.19712,0.1523296 0.05782,0.059892 0.099871,0.1093667 0.1261537,0.1484265 0.026273,0.039042 0.074906,0.072906 0.1458682,0.1015561 0.070961,0.028622 0.1642642,0.045581 0.2799038,0.050769 0.2470579,0.01042 0.5151337,-0.028622 0.804243,-0.1171805 0.010519,-0.00519 0.07096,-0.023434 0.1813462,-0.054677 0.1103849,-0.03127 0.2010608,-0.058585 0.2720219,-0.082029 0.070961,-0.023434 0.1484954,-0.057289 0.2325979,-0.1015519 0.084108,-0.044283 0.1393002,-0.089838 0.1655829,-0.1367126 0.047309,-0.072906 0.099871,-0.093737 0.1576907,-0.062494 0.026274,0.015608 0.043385,0.037745 0.051236,0.066403 0.00791,0.028622 0,0.059892 -0.023655,0.093743 C 8.8925072,5.076575 8.8491412,5.101297 8.7860688,5.116933 8.6809383,5.148201 8.5324429,5.204166 8.3405827,5.2848843 8.1487161,5.3656073 8.0291357,5.4163855 7.9818249,5.4372152 7.7505406,5.5361682 7.5665671,5.5960578 7.4298941,5.616892 7.2984808,5.64292 7.0908571,5.637732 6.8070023,5.601284 c -0.052565,-0.01042 -0.076214,-0.00519 -0.070962,0.015608 0.00524,0.020841 0.049927,0.070303 0.1340404,0.1484252 0.1314131,0.1197831 0.307505,0.1770685 0.5282752,0.1718629 0.089362,-0.00519 0.1839787,-0.023434 0.2838496,-0.054686 0.099876,-0.03127 0.1944876,-0.0677 0.2838497,-0.1093662 0.089362,-0.04169 0.1774052,-0.087235 0.2641402,-0.1367067 0.086729,-0.049472 0.1655775,-0.093744 0.2365386,-0.1328034 0.070961,-0.039042 0.1353542,-0.070303 0.1931738,-0.093743 0.057825,-0.023434 0.1038172,-0.029973 0.1379814,-0.019552 0.034175,0.01042 0.056512,0.039042 0.067021,0.085929 0,0.01042 -0.00261,0.022138 -0.00791,0.035151 -0.00524,0.013014 -0.015752,0.026028 -0.031558,0.039042 -0.015752,0.013014 -0.031559,0.024731 -0.047311,0.03516 -0.015753,0.01042 -0.0381,0.023434 -0.06702,0.039042 -0.02889,0.015608 -0.052565,0.027326 -0.070962,0.03516 -0.01837,0.00787 -0.044693,0.020841 -0.078848,0.039042 -0.034175,0.018202 -0.059138,0.029973 -0.074902,0.035151 C 8.3392267,5.8069143 8.1618213,5.9214863 7.9541872,6.0777263 7.7465583,6.2339654 7.5717802,6.3459292 7.4298578,6.4136368 7.2879305,6.481337 7.1591496,6.4839396 7.0435049,6.4215107 6.9331205,6.364219 6.7675429,6.1741332 6.5467675,5.8512418 6.431128,5.6897908 6.3654213,5.6325052 6.3496527,5.6793799 c -0.00524,0.015608 -0.00791,0.04169 -0.00791,0.078111 0,0.1301996 -0.039408,0.2773244 -0.1182719,0.4413729 C 6.1446308,6.362917 6.067097,6.5074331 5.9908816,6.6324271 5.9146604,6.7574157 5.8594683,6.9084448 5.8252987,7.0855177 5.7911236,7.2625862 5.8216405,7.4266357 5.9159737,7.5776638 5.7950751,7.6089338 5.6308111,7.8432693 5.4231822,8.2807326 5.2155483,8.7182057 5.0907082,9.0853579 5.048657,9.3822135 5.038137,9.4759535 5.034212,9.6556285 5.036829,9.9212335 5.039439,10.186838 5.025001,10.340468 4.993444,10.382131 4.951419,10.507127 4.8751719,10.514936 4.7647867,10.405561 4.5965806,10.244121 4.501964,9.9993465 4.4809359,9.6712515 c -0.010519,-0.145823 0,-0.291645 0.031558,-0.437468 0.02104,-0.098954 0.01837,-0.1458223 -0.00791,-0.140617 l -0.031558,0.039042 c -0.189233,0.33852 -0.1629505,0.770771 0.078848,1.2967735 0.026274,0.06249 0.09199,0.135408 0.1971199,0.218732 0.1051306,0.08333 0.1682048,0.135407 0.1892331,0.156242 0.1051306,0.11978 0.3784608,0.355439 0.8200063,0.706978 0.4415455,0.351531 0.6859713,0.550738 0.7332822,0.597608 0.084102,0.07812 0.1300945,0.177067 0.1379813,0.29685 0.00791,0.119781 -0.02889,0.231751 -0.1103852,0.335912 -0.08148,0.104157 -0.2010607,0.164053 -0.3587567,0.179675 0.042025,0.07812 0.118272,0.193992 0.2286572,0.347631 0.1103851,0.153629 0.1839733,0.294248 0.2207702,0.421837 0.036791,0.127598 0.055194,0.311174 0.055194,0.550741 0.2417984,-0.12499 0.2601941,-0.364554 0.055188,-0.718691 -0.021039,-0.04164 -0.048618,-0.08333 -0.082789,-0.124996 -0.034175,-0.04164 -0.059134,-0.07291 -0.074903,-0.09374 -0.015753,-0.02085 -0.021039,-0.03645 -0.015753,-0.04688 0.015753,-0.02603 0.049927,-0.05076 0.102498,-0.07421 0.052565,-0.02343 0.1051308,-0.01695 0.157696,0.01954 0.2417984,0.270811 0.6780793,0.364555 1.3088579,0.281227 0.6991178,-0.07812 1.1643083,-0.304665 1.3955924,-0.679636 0.1209033,-0.197902 0.2102624,-0.276022 0.2680867,-0.234359 0.063078,0.03127 0.089358,0.166658 0.078841,0.406224 -0.00535,0.130197 -0.065713,0.36976 -0.1813465,0.718694 -0.047304,0.119784 -0.063079,0.217432 -0.047304,0.292941 0.01575,0.07552 0.078848,0.11588 0.1892324,0.121085 0.015763,-0.09895 0.053874,-0.299454 0.1143267,-0.601511 0.060447,-0.302062 0.09593,-0.536421 0.1064422,-0.703074 0.01052,-0.109364 -0.0065,-0.300756 -0.051234,-0.574175 -0.044699,-0.273415 -0.064391,-0.525999 -0.059142,-0.75775 0.00533,-0.231759 0.065715,-0.415334 0.1813466,-0.550741 0.07885,-0.09375 0.212888,-0.140615 0.402121,-0.140615 0.0053,-0.192695 0.09593,-0.3307 0.272021,-0.414032 0.176094,-0.08333 0.366639,-0.110665 0.571642,-0.08202 0.205006,0.02862 0.362697,0.08723 0.473081,0.175766 z M 6.8783197,4.0003145 c 0.015753,-0.088541 0.00921,-0.1666564 -0.019731,-0.2343595 -0.02889,-0.0677 -0.059134,-0.1067626 -0.090676,-0.1171793 -0.047311,-0.01042 -0.070962,0.00787 -0.070962,0.054687 0.01052,0.026028 0.023656,0.04169 0.039408,0.046878 0.052565,0 0.070962,0.039042 0.055193,0.1171801 -0.015753,0.1041544 0.00524,0.1562347 0.063075,0.1562347 0.015753,0 0.023655,-0.00787 0.023655,-0.023434 z m 1.9002125,-0.124994 c 0,-0.057289 -0.013136,-0.1080641 -0.039408,-0.1523296 -0.026273,-0.044283 -0.055188,-0.076814 -0.08673,-0.097653 -0.031558,-0.020841 -0.055193,-0.028622 -0.070965,-0.023434 -0.073583,0.00519 -0.091984,0.023434 -0.055188,0.054686 0.01052,0.00519 0.021039,0.01042 0.031559,0.015608 0.073594,0.02084 0.1208991,0.101552 0.1419273,0.2421679 0,0.015608 0.021039,0.01042 0.063075,-0.015608 z m 5.1250608,8.8469735 c 0.05783,0.0651 0.08936,0.127591 0.09462,0.187485 0.0053,0.05989 -0.0012,0.118482 -0.01972,0.175766 -0.01842,0.05729 -0.05914,0.114577 -0.122212,0.171864 -0.06308,0.05729 -0.124842,0.108066 -0.185287,0.152328 -0.06046,0.04429 -0.139301,0.09244 -0.236545,0.144524 -0.09724,0.05208 -0.180033,0.09505 -0.248367,0.128895 -0.06833,0.03386 -0.152436,0.07421 -0.252313,0.121086 -0.09987,0.04688 -0.170837,0.08073 -0.212887,0.101554 -0.199747,0.09895 -0.424459,0.24477 -0.67414,0.437465 -0.249685,0.192694 -0.448118,0.359349 -0.595299,0.499962 -0.08936,0.08334 -0.268077,0.134103 -0.536158,0.152334 -0.26808,0.01821 -0.50199,-0.01955 -0.701739,-0.113274 -0.09462,-0.04688 -0.172152,-0.108065 -0.2325984,-0.183583 -0.060447,-0.07551 -0.1038178,-0.141911 -0.1301007,-0.199197 -0.026272,-0.05729 -0.084104,-0.108071 -0.1734634,-0.152338 -0.089356,-0.04429 -0.2128838,-0.069 -0.3705797,-0.07421 -0.2312843,-0.0052 -0.5729537,-0.0079 -1.0250132,-0.0079 -0.099871,0 -0.2496803,0.0041 -0.4494273,0.01172 -0.1997472,0.0079 -0.3521835,0.01431 -0.4573142,0.01955 -0.2312844,0.0052 -0.4402267,0.04429 -0.6268326,0.117181 -0.1866059,0.07292 -0.3272144,0.151031 -0.421831,0.234359 -0.094616,0.08333 -0.2089476,0.157538 -0.3429883,0.222639 -0.1340405,0.06509 -0.2746489,0.09504 -0.4218309,0.08983 C 5.4091271,14.95517 5.117396,14.874408 4.6863646,14.718173 4.2553279,14.561934 3.8716125,14.449965 3.5351979,14.382261 c -0.099877,-0.02082 -0.2339171,-0.04556 -0.4021217,-0.07419 -0.1682105,-0.02862 -0.2996186,-0.05208 -0.3942347,-0.0703 -0.094621,-0.0182 -0.198438,-0.04299 -0.3114501,-0.07422 C 2.314374,14.132281 2.2263308,14.094541 2.1632515,14.05028 2.1001765,14.00599 2.0554931,13.95524 2.0292108,13.897946 c -0.052567,-0.119784 -0.034177,-0.292941 0.055193,-0.519495 0.089362,-0.226544 0.1366678,-0.368455 0.1419224,-0.425742 0.00526,-0.08334 -0.00525,-0.187487 -0.03156,-0.312479 -0.026273,-0.124991 -0.052567,-0.235655 -0.078847,-0.332002 -0.026273,-0.09635 -0.0381,-0.191393 -0.035482,-0.285138 0.00263,-0.09374 0.030247,-0.164051 0.082793,-0.210917 0.07359,-0.06249 0.2233968,-0.09896 0.449427,-0.109367 0.2260294,-0.01042 0.3837205,-0.04169 0.4730828,-0.09375 0.1576956,-0.09374 0.2680805,-0.184876 0.3311547,-0.273414 0.063082,-0.08853 0.094617,-0.221334 0.094617,-0.398405 0,0.148428 0.1392951,-0.234358 0.118272,-0.359351 -0.01575,-0.08333 -0.021037,-0.182275 -0.01575,-0.296845 0.00526,-0.151035 0.031559,-0.2864415 0.078846,-0.4062225 0.047307,-0.11978 0.1103819,-0.242165 0.1892298,-0.367154 C 3.9609585,9.3826705 4.0187772,9.2733045 4.055569,9.1795624 4.0975933,9.0701896 4.1672725,8.8827036 4.2645162,8.6170981 4.3617599,8.3514926 4.4392943,8.1483843 4.4971142,8.0077727 4.5549338,7.8671555 4.6337818,7.7083184 4.7336581,7.5312442 4.8335291,7.3541757 4.9360273,7.2135642 5.041158,7.1094049 5.6193763,6.3646627 5.9452719,5.8568991 6.0188654,5.5860827 5.9557861,5.0027923 5.9137347,4.1955742 5.8927067,3.1643989 5.8821872,2.6956791 5.945277,2.3011858 6.0819397,1.9808922 6.2186075,1.6606039 6.4972026,1.388491 6.91772,1.1645484 7.1227215,1.0551827 7.3960572,1.0004999 7.7377318,1.0004999 c 0.278595,-0.00519 0.5571851,0.02997 0.835775,0.1054613 0.2785952,0.075517 0.5125065,0.1835811 0.7017398,0.3241927 0.2996231,0.2187367 0.5401041,0.5351156 0.7214543,0.9491464 0.1813461,0.4140315 0.2588801,0.7981123 0.2325981,1.152255 -0.02628,0.4947543 0.05257,1.0519994 0.236537,1.6717476 0.178726,0.5884969 0.528277,1.1561541 1.048671,1.7029931 0.289108,0.3072682 0.550612,0.7317111 0.784529,1.2733396 0.23391,0.5416276 0.390293,1.0389793 0.469134,1.4920699 0.04202,0.25519 0.0552,0.4752215 0.0394,0.6601025 -0.01576,0.184884 -0.04731,0.329404 -0.09462,0.43356 -0.04732,0.104161 0.06834,0.523401 0.141927,0.460903 0.0053,0.161448 0.02628,0.308571 0.06308,0.441374 0.0368,0.132805 0.07491,0.238264 0.11433,0.316384 0.03941,0.07811 0.0933,0.152333 0.161636,0.222635 0.06833,0.0703 0.123527,0.119784 0.165578,0.148427 0.04202,0.02867 0.09856,0.06249 0.169526,0.101555 0.07096,0.03904 0.114324,0.06379 0.130093,0.07421 0.10513,0.06249 0.186605,0.126297 0.244425,0.191397 z"
     id="Page-1"
     style="fill:#4d4d4d;fill-opacity:1;fill-rule:evenodd;stroke:none;stroke-width:0.79630345" />
</svg>
