<?xml version="1.0" encoding="UTF-8" standalone="no"?>
<svg
   xmlns:dc="http://purl.org/dc/elements/1.1/"
   xmlns:cc="http://creativecommons.org/ns#"
   xmlns:rdf="http://www.w3.org/1999/02/22-rdf-syntax-ns#"
   xmlns:svg="http://www.w3.org/2000/svg"
   xmlns="http://www.w3.org/2000/svg"
   xmlns:sodipodi="http://sodipodi.sourceforge.net/DTD/sodipodi-0.dtd"
   xmlns:inkscape="http://www.inkscape.org/namespaces/inkscape"
   width="22"
   height="22"
   viewBox="0 0 22 22"
   version="1.1"
   id="svg7"
   sodipodi:docname="configure.svg"
   inkscape:version="0.92.2 5c3e80d, 2017-08-06">
  <metadata
     id="metadata11">
    <rdf:RDF>
      <cc:Work
         rdf:about="">
        <dc:format>image/svg+xml</dc:format>
        <dc:type
           rdf:resource="http://purl.org/dc/dcmitype/StillImage" />
      </cc:Work>
    </rdf:RDF>
  </metadata>
  <sodipodi:namedview
     pagecolor="#ffffff"
     bordercolor="#666666"
     borderopacity="1"
     objecttolerance="10"
     gridtolerance="10"
     guidetolerance="10"
     inkscape:pageopacity="0"
     inkscape:pageshadow="2"
     inkscape:window-width="1366"
     inkscape:window-height="701"
     id="namedview9"
     showgrid="false"
     inkscape:zoom="10.727273"
     inkscape:cx="-7.1779658"
     inkscape:cy="11"
     inkscape:window-x="0"
     inkscape:window-y="0"
     inkscape:window-maximized="1"
     inkscape:current-layer="svg7" />
  <defs
     id="defs3">
    <style
       type="text/css"
       id="current-color-scheme">
   .ColorScheme-Text { color:#dfdfdf; } .ColorScheme-Highlight { color:#5294e2; } .ColorScheme-ButtonBackground { color:#d3dae3; }
  </style>
  </defs>
  <path
     style="color:#dfdfdf;opacity:1;fill:#dfdfdf;fill-opacity:1;stroke-width:1.10000002"
     class="ColorScheme-Text"
     d="M 9.0771477,3.298926 8.9074211,5.327051 A 6.05,6.05 0 0 0 7.139257,6.3497072 l -1.8433593,-0.8679687 -1.925,3.334375 1.6736328,1.1623045 a 6.05,6.05 0 0 0 -0.092382,1.020508 6.05,6.05 0 0 0 0.088086,1.024806 l -1.6693359,1.158007 1.925,3.334374 1.8390624,-0.865819 a 6.05,6.05 0 0 0 1.772461,1.01621 l 0.1654298,2.03457 h 3.8500002 l 0.169727,-2.028125 a 6.05,6.05 0 0 0 1.768163,-1.022655 l 1.84336,0.867967 1.925,-3.334374 -1.673633,-1.162304 a 6.05,6.05 0 0 0 0.09238,-1.020508 6.05,6.05 0 0 0 -0.08809,-1.0248043 l 1.669335,-1.1580089 -1.925,-3.334375 -1.839062,0.8658203 A 6.05,6.05 0 0 0 13.092577,5.3334963 L 12.927147,3.298926 Z m 1.9249993,5.5 a 2.2,2.2 0 0 1 2.2,2.2 2.2,2.2 0 0 1 -2.2,2.2 2.2,2.2 0 0 1 -2.1999993,-2.2 2.2,2.2 0 0 1 2.1999993,-2.2 z"
     id="path5"
     inkscape:connector-curvature="0" />
</svg>
