<?xml version="1.0" encoding="UTF-8" standalone="no"?>
<svg
   xmlns:dc="http://purl.org/dc/elements/1.1/"
   xmlns:cc="http://creativecommons.org/ns#"
   xmlns:rdf="http://www.w3.org/1999/02/22-rdf-syntax-ns#"
   xmlns:svg="http://www.w3.org/2000/svg"
   xmlns="http://www.w3.org/2000/svg"
   xmlns:sodipodi="http://sodipodi.sourceforge.net/DTD/sodipodi-0.dtd"
   xmlns:inkscape="http://www.inkscape.org/namespaces/inkscape"
   viewBox="0 0 22 22"
   version="1.1"
   id="svg6"
   sodipodi:docname="dialog-close.svg"
   inkscape:version="0.92.2 5c3e80d, 2017-08-06">
  <metadata
     id="metadata10">
    <rdf:RDF>
      <cc:Work
         rdf:about="">
        <dc:format>image/svg+xml</dc:format>
        <dc:type
           rdf:resource="http://purl.org/dc/dcmitype/StillImage" />
      </cc:Work>
    </rdf:RDF>
  </metadata>
  <sodipodi:namedview
     pagecolor="#ffffff"
     bordercolor="#666666"
     borderopacity="1"
     objecttolerance="10"
     gridtolerance="10"
     guidetolerance="10"
     inkscape:pageopacity="0"
     inkscape:pageshadow="2"
     inkscape:window-width="1366"
     inkscape:window-height="701"
     id="namedview8"
     showgrid="false"
     inkscape:zoom="10.727273"
     inkscape:cx="16.779661"
     inkscape:cy="11"
     inkscape:window-x="0"
     inkscape:window-y="0"
     inkscape:window-maximized="1"
     inkscape:current-layer="svg6" />
  <defs
     id="defs3051">
    <style
       type="text/css"
       id="current-color-scheme">
      .ColorScheme-Text {
        color:#dfdfdf;
      }
      </style>
  </defs>
  <path
     style="fill:#da4453;fill-opacity:1;stroke-width:1.05826271"
     id="path2-6"
     d="M 18.330902,6.7503768 C 17.573876,5.4533488 16.54692,4.4263895 15.249896,3.6693719 13.952603,2.9123436 12.536376,2.5338983 11.000271,2.5338983 c -1.53597,0 -2.9526017,0.3784453 -4.2496254,1.1354736 C 5.4534864,4.4262625 4.4265303,5.4532112 3.6695041,6.7503768 2.9123436,8.0475317 2.5338983,9.4641645 2.5338983,11 c 0,1.535973 0.3785808,2.952331 1.1354714,4.249623 0.7570251,1.296891 1.7839823,2.323987 3.0811404,3.081005 1.2971592,0.757028 2.7136554,1.135474 4.2496249,1.135474 1.53597,0 2.952602,-0.378446 4.249626,-1.135474 1.297024,-0.756891 2.32398,-1.783977 3.081006,-3.081005 0.756889,-1.297155 1.135335,-2.713787 1.135335,-4.249623 0,-1.5359731 -0.378446,-2.9526059 -1.1352,-4.2496232 z m -3.340248,6.2448192 c 0.139633,0.139489 0.209585,0.305107 0.209585,0.496155 0,0.198351 -0.06995,0.367482 -0.209585,0.506982 l -0.992049,0.992185 c -0.139633,0.139638 -0.308628,0.209452 -0.507119,0.209452 -0.191048,0 -0.356661,-0.06985 -0.496024,-0.209452 L 11.000135,12.995196 9.0048086,14.990518 C 8.8651751,15.130156 8.6998342,15.19997 8.508785,15.19997 c -0.1984909,0 -0.3674859,-0.06985 -0.5071195,-0.209452 L 7.0094818,13.998333 c -0.1396335,-0.1395 -0.2094503,-0.308631 -0.2094503,-0.506982 0,-0.191048 0.069814,-0.356666 0.2094503,-0.496155 L 9.0048086,11 7.0094818,9.0046774 C 6.8698483,8.8651772 6.8000315,8.6996967 6.8000315,8.5086485 c 0,-0.1984877 0.069814,-0.3674817 0.2094503,-0.5071195 L 8.0016655,7.0094818 C 8.1412991,6.869844 8.3102941,6.8000304 8.508785,6.8000304 c 0.1910492,0 0.3563901,0.069845 0.4960236,0.2094514 l 1.9953264,1.9951956 1.995327,-1.9951956 c 0.139363,-0.1396378 0.304976,-0.2094514 0.496024,-0.2094514 0.198491,0 0.367486,0.069845 0.507119,0.2094514 l 0.992049,0.9920472 c 0.139633,0.1396378 0.209585,0.3086318 0.209585,0.5071195 0,0.1910482 -0.06995,0.3565287 -0.209585,0.4960289 L 12.995462,11 Z"
     inkscape:connector-curvature="0" />
</svg>
