<?xml version="1.0" encoding="UTF-8" standalone="no"?>
<svg
   xmlns:dc="http://purl.org/dc/elements/1.1/"
   xmlns:cc="http://creativecommons.org/ns#"
   xmlns:rdf="http://www.w3.org/1999/02/22-rdf-syntax-ns#"
   xmlns:svg="http://www.w3.org/2000/svg"
   xmlns="http://www.w3.org/2000/svg"
   id="svg12"
   version="1.1"
   viewBox="0 0 22 22">
  <metadata
     id="metadata18">
    <rdf:RDF>
      <cc:Work
         rdf:about="">
        <dc:format>image/svg+xml</dc:format>
        <dc:type
           rdf:resource="http://purl.org/dc/dcmitype/StillImage" />
        <dc:title></dc:title>
      </cc:Work>
    </rdf:RDF>
  </metadata>
  <defs
     id="defs16" />
  <path
     d="M 21.227117,8.2692568 C 20.580638,7.674823 21.225317,8.2624868 20.553271,7.6410037 L 13.143695,1.1177175 11.966473,1.4331532 4.6314739,3.3985604 4.2390666,3.5037057 c -0.42875,1.3042292 -0.081902,0.25187 -0.2888487,0.8538539 L 1.1118467,12.720908 c -0.34415135,1.019149 0.00212,0.0077 -0.3389637,1.029044 7.2193677,6.371918 5.4438641,4.808645 7.5405719,6.649948 0.6093441,0.490617 0.1220457,0.08862 0.6145397,0.482382 l 0.332037,-0.08897 0.030185,-0.0081 7.3349994,-1.965407 1.177222,-0.315435 c 0.892554,-2.644934 0.130904,-0.386976 0.216637,-0.64039 L 20.957676,9.1502628 21.094012,8.6931507 C 21.196627,8.3729205 20.646771,10.079514 21.227117,8.2692568 Z M 19.629953,8.1795775 12.144028,10.185425 12.037296,10.149319 11.859939,9.9703751 5.3430707,4.2431648 12.859181,2.229229 Z m 0.258819,0.9659258 -2.888486,8.5385387 -7.3651847,1.973495 2.8884867,-8.538539 z M 11.49079,11.007507 8.6745157,19.332582 1.9501051,13.434516 4.7582912,5.079256 11.190524,10.732087 Z"
     id="path2"
     style="fill:#dfdfdf" />
</svg>
