<?xml version="1.0" encoding="UTF-8" standalone="no"?>
<svg
   xmlns:dc="http://purl.org/dc/elements/1.1/"
   xmlns:cc="http://creativecommons.org/ns#"
   xmlns:rdf="http://www.w3.org/1999/02/22-rdf-syntax-ns#"
   xmlns:svg="http://www.w3.org/2000/svg"
   xmlns="http://www.w3.org/2000/svg"
   viewBox="0 0 22 22"
   version="1.1"
   id="svg6">
  <metadata
     id="metadata12">
    <rdf:RDF>
      <cc:Work
         rdf:about="">
        <dc:format>image/svg+xml</dc:format>
        <dc:type
           rdf:resource="http://purl.org/dc/dcmitype/StillImage" />
        <dc:title></dc:title>
      </cc:Work>
    </rdf:RDF>
  </metadata>
  <defs
     id="defs10" />
  <path
     style="color:#000000;clip-rule:nonzero;display:inline;overflow:visible;visibility:visible;opacity:1;isolation:auto;mix-blend-mode:normal;color-interpolation:sRGB;color-interpolation-filters:linearRGB;solid-color:#000000;solid-opacity:1;fill:#dfdfdf;fill-opacity:1;fill-rule:nonzero;stroke:none;stroke-width:1;stroke-linecap:butt;stroke-linejoin:miter;stroke-miterlimit:4;stroke-dasharray:none;stroke-dashoffset:0;stroke-opacity:1;color-rendering:auto;image-rendering:auto;shape-rendering:auto;text-rendering:auto;enable-background:accumulate"
     d="m 2.000002,3 v 3 1 12 h 2 5.089844 1.910156 8.916016 0.08398 V 9.9999996 7 6 5 h -9 V 4.5 c 0,-0.831 -0.669,-1.5 -1.5,-1.5 h -3.5 -1.5 -1.5 z m 2,4 h 14 v 1 0.9999996 1 V 17 h -7 H 9.089846 4.000002 V 8.9999996 8 Z"
     id="path829" />
  <path
     style="opacity:1;fill:#2fbd48;fill-opacity:1;stroke:none;stroke-opacity:1"
     d="m 8.0000015,8.4388336 -1,1 -2,1.9999994 h 2 v 2 1 1 h 2 v -1 -1 -2 H 11.000001 L 9.0000015,9.4388336 Z"
     id="rect4173-7-3" />
  <path
     id="path913"
     d="m 14.000001,15.438833 -1,-1 -2,-2 h 2 v -2 -0.9999994 -1 h 2 v 1 0.9999994 2 H 17 l -1.999999,2 z"
     style="opacity:1;fill:#2fbd48;fill-opacity:1;stroke:none;stroke-opacity:1" />
</svg>
