<?xml version="1.0" encoding="UTF-8" standalone="no"?>
<svg
   xmlns:dc="http://purl.org/dc/elements/1.1/"
   xmlns:cc="http://creativecommons.org/ns#"
   xmlns:rdf="http://www.w3.org/1999/02/22-rdf-syntax-ns#"
   xmlns:svg="http://www.w3.org/2000/svg"
   xmlns="http://www.w3.org/2000/svg"
   xmlns:sodipodi="http://sodipodi.sourceforge.net/DTD/sodipodi-0.dtd"
   xmlns:inkscape="http://www.inkscape.org/namespaces/inkscape"
   viewBox="0 0 22 22"
   version="1.1"
   id="svg4"
   sodipodi:docname="dialog-cancel.svg"
   inkscape:version="0.92.2 5c3e80d, 2017-08-06">
  <metadata
     id="metadata10">
    <rdf:RDF>
      <cc:Work
         rdf:about="">
        <dc:format>image/svg+xml</dc:format>
        <dc:type
           rdf:resource="http://purl.org/dc/dcmitype/StillImage" />
      </cc:Work>
    </rdf:RDF>
  </metadata>
  <defs
     id="defs8" />
  <sodipodi:namedview
     pagecolor="#ffffff"
     bordercolor="#666666"
     borderopacity="1"
     objecttolerance="10"
     gridtolerance="10"
     guidetolerance="10"
     inkscape:pageopacity="0"
     inkscape:pageshadow="2"
     inkscape:window-width="640"
     inkscape:window-height="480"
     id="namedview6"
     showgrid="false"
     inkscape:zoom="10.727273"
     inkscape:cx="-5.7330508"
     inkscape:cy="11"
     inkscape:current-layer="svg4" />
  <path
     d="m 11.000065,3 c -4.41128,0 -8,3.58875 -8,8 0,4.41125 3.58868,8 7.99996,8 4.41124,0 7.99991,-3.58875 7.99991,-8 0,-4.41125 -3.58867,-8 -7.99987,-8 z m 0,2.70422 c 0.97041,0 1.88051,0.26261 2.6635,0.72012 L 6.424395,13.6635 C 5.966845,12.88054 5.704235,11.9704 5.704235,11 c 0,-2.92013 2.37574,-5.29578 5.29583,-5.29578 z m 0,10.59157 c -0.97043,0 -1.8805,-0.26261 -2.6635,-0.72012 l 7.23917,-7.23916 c 0.45751,0.78298 0.72012,1.69309 0.72012,2.66349 0,2.92013 -2.37575,5.29579 -5.29579,5.29579 z"
     id="path2"
     inkscape:connector-curvature="0"
     style="fill:#da4453" />
</svg>
