<?xml version="1.0" encoding="UTF-8" standalone="no"?>
<svg
   xmlns:dc="http://purl.org/dc/elements/1.1/"
   xmlns:cc="http://creativecommons.org/ns#"
   xmlns:rdf="http://www.w3.org/1999/02/22-rdf-syntax-ns#"
   xmlns:svg="http://www.w3.org/2000/svg"
   xmlns="http://www.w3.org/2000/svg"
   viewBox="0 0 22 22"
   version="1.1"
   id="svg4">
  <metadata
     id="metadata10">
    <rdf:RDF>
      <cc:Work
         rdf:about="">
        <dc:format>image/svg+xml</dc:format>
        <dc:type
           rdf:resource="http://purl.org/dc/dcmitype/StillImage" />
        <dc:title></dc:title>
      </cc:Work>
    </rdf:RDF>
  </metadata>
  <defs
     id="defs8" />
  <path
     d="m 16.820102,4.7702617 c -0.285862,0 -0.530089,0.097806 -0.730053,0.2937217 L 9.059291,11.954604 5.9099506,8.8605729 C 5.7098618,8.6647515 5.4656249,8.5668511 5.179898,8.5668511 c -0.2858619,0 -0.5279288,0.097911 -0.7280176,0.2937218 L 2.9938102,10.287525 C 2.7937213,10.483337 2.6936821,10.720244 2.6936821,11 c 0,0.279632 0.099987,0.516788 0.3001281,0.712475 l 3.879393,3.798573 1.4580702,1.424969 c 0.1999539,0.195821 0.4421557,0.293721 0.7280176,0.293721 0.285727,0 0.5299535,-0.09801 0.7300423,-0.293721 L 11.247404,15.511048 19.006189,7.915885 C 19.206144,7.720074 19.306318,7.4831674 19.306318,7.2034106 19.306453,6.9237784 19.206122,6.6847641 19.006189,6.488953 L 17.548119,5.0639834 C 17.348166,4.868162 17.105829,4.7702617 16.820102,4.7702617 Z"
     id="path2"
     style="fill:#087cff;fill-opacity:1;stroke-width:1.03828967" />
</svg>
