<?xml version="1.0" encoding="UTF-8" standalone="no"?>
<svg
   xmlns:dc="http://purl.org/dc/elements/1.1/"
   xmlns:cc="http://creativecommons.org/ns#"
   xmlns:rdf="http://www.w3.org/1999/02/22-rdf-syntax-ns#"
   xmlns:svg="http://www.w3.org/2000/svg"
   xmlns="http://www.w3.org/2000/svg"
   id="svg5"
   version="1.1"
   viewBox="0 0 22 22">
  <metadata
     id="metadata9">
    <rdf:RDF>
      <cc:Work
         rdf:about="">
        <dc:format>image/svg+xml</dc:format>
        <dc:type
           rdf:resource="http://purl.org/dc/dcmitype/StillImage" />
        <dc:title></dc:title>
      </cc:Work>
    </rdf:RDF>
  </metadata>
  <defs
     id="defs3051">
    <style
       id="current-color-scheme"
       type="text/css">
      .ColorScheme-Text {
        color:#dfdfdf;
      }
      </style>
  </defs>
  <circle
     r="7.5"
     cy="11"
     cx="11"
     id="path818"
     style="opacity:1;fill:#ffffff;fill-opacity:1;stroke:none;stroke-width:1.6445111;stroke-miterlimit:4;stroke-dasharray:none;stroke-opacity:1" />
  <path
     d="m 10.01268,8.9998399 c 0,-0.85486 0.23057,-1.65464 0.62995,-2.34506 0.0968,-0.16701 -0.0492,-0.37339 -0.23623,-0.32553 -2.1564498,0.55378 -3.7161399,2.59185 -3.5159299,4.9639501 0.1894,2.23904 1.99895,4.06661 4.2364599,4.27609 1.55249,0.14539 2.9637,-0.46604 3.91686,-1.50488 0.12867,-0.1405 0.0188,-0.3685 -0.17138,-0.36053 -0.0505,0.002 -0.10161,0.003 -0.15287,0.003 -2.59956,0 -4.70686,-2.1073 -4.70686,-4.7073701 z M 19,10.99999 A 7.9999961,7.9999961 0 0 1 10.99999,19 7.9999961,7.9999961 0 0 1 2.9999999,10.99999 7.9999961,7.9999961 0 0 1 10.99999,3.0000001 7.9999961,7.9999961 0 0 1 19,10.99999 Z"
     id="path2"
     style="fill:#f39800;fill-opacity:1" />
</svg>
