<?xml version="1.0" encoding="UTF-8" standalone="no"?>
<svg
   xmlns:dc="http://purl.org/dc/elements/1.1/"
   xmlns:cc="http://creativecommons.org/ns#"
   xmlns:rdf="http://www.w3.org/1999/02/22-rdf-syntax-ns#"
   xmlns:svg="http://www.w3.org/2000/svg"
   xmlns="http://www.w3.org/2000/svg"
   id="svg6"
   version="1.1"
   viewBox="0 0 22 22">
  <metadata
     id="metadata10">
    <rdf:RDF>
      <cc:Work
         rdf:about="">
        <dc:format>image/svg+xml</dc:format>
        <dc:type
           rdf:resource="http://purl.org/dc/dcmitype/StillImage" />
        <dc:title></dc:title>
      </cc:Work>
    </rdf:RDF>
  </metadata>
  <defs
     id="defs3051">
    <style
       id="current-color-scheme"
       type="text/css">
      .ColorScheme-Text {
        color:#dfdfdf;
      }
      .ColorScheme-Highlight {
        color:#3daee9;
      }
      </style>
  </defs>
  <g
     id="g819">
    <ellipse
       style="opacity:1;fill:#ffffff;fill-opacity:1;stroke:none;stroke-width:1.625;stroke-miterlimit:4;stroke-dasharray:none;stroke-opacity:1"
       id="path814"
       cx="11"
       cy="11"
       rx="7.7838984"
       ry="7.737288" />
    <path
       d="m 15.19013,11.32936 h -0.809 c -0.2047,0 -0.36989,0.16377 -0.37696,0.36565 -0.16801,1.56146 -1.48945,2.77703 -3.09749,2.77703 -1.72099,0 -3.11446,-1.39204 -3.11446,-3.1102 0,-1.70263 1.40334,-3.0862201 3.10176,-3.1102101 v 0.50543 c 0,0.23013 0.16377,0.33318 0.36425,0.23013 l 2.59632,-1.3285 c 0.20048,-0.10307 0.20048,-0.26967 0,-0.37272 L 11.25823,5.9602501 c -0.20048,-0.10305 -0.36425,0 -0.36425,0.22872 v 0.50965 c -2.55962,0.024 -4.65897,2.1050198 -4.65897,4.6660399 0,2.57654 2.09088,4.66602 4.67169,4.66602 2.46786,0 4.48955,-1.91017 4.65895,-4.33283 10e-4,-0.2033 -0.16942,-0.36849 -0.37552,-0.36849 z M 19,11 a 7.9999988,7.9999988 0 0 1 -8,8 7.9999988,7.9999988 0 0 1 -8,-8 7.9999988,7.9999988 0 0 1 8,-8 7.9999988,7.9999988 0 0 1 8,8 z"
       id="path2"
       style="fill:#da4453;fill-opacity:1" />
  </g>
</svg>
