<?xml version="1.0" encoding="UTF-8" standalone="no"?>
<svg
   xmlns:dc="http://purl.org/dc/elements/1.1/"
   xmlns:cc="http://creativecommons.org/ns#"
   xmlns:rdf="http://www.w3.org/1999/02/22-rdf-syntax-ns#"
   xmlns:svg="http://www.w3.org/2000/svg"
   xmlns="http://www.w3.org/2000/svg"
   id="svg6"
   version="1.1"
   viewBox="0 0 22 22">
  <metadata
     id="metadata10">
    <rdf:RDF>
      <cc:Work
         rdf:about="">
        <dc:format>image/svg+xml</dc:format>
        <dc:type
           rdf:resource="http://purl.org/dc/dcmitype/StillImage" />
        <dc:title></dc:title>
      </cc:Work>
    </rdf:RDF>
  </metadata>
  <defs
     id="defs3051">
    <style
       id="current-color-scheme"
       type="text/css">
      .ColorScheme-Text {
        color:#dfdfdf;
      }
      </style>
  </defs>
  <circle
     r="7.5"
     cy="11"
     cx="11"
     id="path818"
     style="opacity:1;fill:#ffffff;fill-opacity:1;stroke:none;stroke-width:1.52021682;stroke-miterlimit:4;stroke-dasharray:none;stroke-opacity:1" />
  <path
     d="M 13.61028,10.25893 H 9.1158803 V 9.1395998 c 0,-0.99985 0.81342,-1.81326 1.8132597,-1.81326 0.81639,0 1.53597,0.54935 1.7499,1.33592 0.0701,0.25773 0.33586,0.40982 0.59364,0.33978 0.25777,-0.0701 0.40988,-0.33588 0.33977,-0.59366 -0.32817,-1.20666 -1.43157,-2.04941 -2.68331,-2.04941 -1.5332397,0 -2.7805997,1.24739 -2.7805997,2.7806 V 10.26931 c -0.2191301,0.046 -0.3842301,0.24067 -0.3842301,0.47329 v 4.23327 c 0,0.26669 0.2169801,0.48367 0.4836701,0.48367 H 13.61028 c 0.26669,0 0.48367,-0.21698 0.48367,-0.48367 V 10.7426 c 0,-0.26672 -0.21698,-0.48367 -0.48367,-0.48367 z M 19,11 c 0,4.41828 -3.58172,8 -8,8 -4.4182798,0 -8.0000002,-3.58172 -8.0000002,-8 0,-4.4182802 3.5817204,-8.0000002 8.0000002,-8.0000002 4.41828,0 8,3.58172 8,8.0000002 z"
     id="path2"
     style="fill:#11b5ff;fill-opacity:1" />
</svg>
