<?xml version="1.0" encoding="UTF-8" standalone="no"?>
<svg
   xmlns:dc="http://purl.org/dc/elements/1.1/"
   xmlns:cc="http://creativecommons.org/ns#"
   xmlns:rdf="http://www.w3.org/1999/02/22-rdf-syntax-ns#"
   xmlns:svg="http://www.w3.org/2000/svg"
   xmlns="http://www.w3.org/2000/svg"
   viewBox="0 0 22 22"
   version="1.1"
   id="svg4">
  <metadata
     id="metadata10">
    <rdf:RDF>
      <cc:Work
         rdf:about="">
        <dc:format>image/svg+xml</dc:format>
        <dc:type
           rdf:resource="http://purl.org/dc/dcmitype/StillImage" />
        <dc:title></dc:title>
      </cc:Work>
    </rdf:RDF>
  </metadata>
  <defs
     id="defs8" />
  <path
     id="rect855"
     d="M 2 7 L 2 9 L 2 13 L 2 15 L 4 15 L 10 15 L 10 13 L 10 12 L 12 12 L 12 13 L 12 15 L 14 15 L 20 15 L 20 13 L 20 7 L 14 7 L 12 7 L 12 9 L 12 10 L 10 10 L 10 7 L 4 7 L 2 7 z M 4 9 L 8 9 L 8 10 L 7 10 L 7 12 L 8 12 L 8 13 L 4 13 L 4 9 z M 14 9 L 18 9 L 18 13 L 14 13 L 14 12 L 15 12 L 15 10 L 14 10 L 14 9 z "
     style="opacity:1;vector-effect:none;fill:#dfdfdf;fill-opacity:1;stroke:none;stroke-width:0.48999998;stroke-linecap:butt;stroke-linejoin:miter;stroke-miterlimit:4;stroke-dasharray:none;stroke-dashoffset:0;stroke-opacity:1" />
</svg>
