<?xml version="1.0" encoding="UTF-8" standalone="no"?>
<svg
   xmlns:dc="http://purl.org/dc/elements/1.1/"
   xmlns:cc="http://creativecommons.org/ns#"
   xmlns:rdf="http://www.w3.org/1999/02/22-rdf-syntax-ns#"
   xmlns:svg="http://www.w3.org/2000/svg"
   xmlns="http://www.w3.org/2000/svg"
   id="svg4"
   version="1.1"
   width="22"
   height="22">
  <metadata
     id="metadata10">
    <rdf:RDF>
      <cc:Work
         rdf:about="">
        <dc:format>image/svg+xml</dc:format>
        <dc:type
           rdf:resource="http://purl.org/dc/dcmitype/StillImage" />
        <dc:title></dc:title>
      </cc:Work>
    </rdf:RDF>
  </metadata>
  <defs
     id="defs8">
    <style
       id="current-color-scheme"
       type="text/css">
      .ColorScheme-Text {
        color:#dfdfdf;
      }
      </style>
    <style
       type="text/css"
       id="current-color-scheme-5">
      .ColorScheme-Text {
        color:#dfdfdf;
      }
      </style>
    <style
       type="text/css"
       id="current-color-scheme-6">
   .ColorScheme-Text { color:#dfdfdf; } .ColorScheme-Highlight { color:#5294e2; } .ColorScheme-ButtonBackground { color:#d3dae3; }
  </style>
  </defs>
  <path
     id="path831"
     d="M 17,3 V 7 H 15 V 5 H 4.9999998 V 17 H 11 v 2 H 2.9999998 V 3 Z"
     style="opacity:1;fill:#dfdfdf;fill-opacity:1;stroke:none;stroke-width:0.28062433;stroke-miterlimit:4;stroke-dasharray:none;stroke-opacity:1" />
  <path
     style="color:#dfdfdf;opacity:1;fill:#dfdfdf;fill-opacity:1;stroke-width:0.57403743"
     class="ColorScheme-Text"
     d="m 13.991837,8.9999998 -0.08899,1.0534252 A 3.172063,3.1424187 0 0 0 12.975784,10.5846 l -0.966488,-0.450828 -1.009293,1.7319 0.8775,0.603711 a 3.172063,3.1424187 0 0 0 -0.04844,0.530059 3.172063,3.1424187 0 0 0 0.04618,0.532293 l -0.875246,0.601478 1.009293,1.731901 0.964236,-0.449713 a 3.172063,3.1424187 0 0 0 0.929315,0.527828 L 13.989577,17 h 2.018585 l 0.08899,-1.053425 a 3.172063,3.1424187 0 0 0 0.927062,-0.531174 l 0.966488,0.450828 1.009293,-1.7319 -0.8775,-0.603711 a 3.172063,3.1424187 0 0 0 0.04844,-0.53006 3.172063,3.1424187 0 0 0 -0.04618,-0.532292 L 19,11.866788 17.990707,10.134886 17.026472,10.5846 A 3.172063,3.1424187 0 0 0 16.09716,10.056773 L 16.01043,8.9999998 Z m 1.009293,2.8567452 a 1.1534774,1.1426977 0 0 1 1.153477,1.142697 1.1534774,1.1426977 0 0 1 -1.153477,1.142698 1.1534774,1.1426977 0 0 1 -1.153478,-1.142698 1.1534774,1.1426977 0 0 1 1.153478,-1.142697 z"
     id="path5" />
</svg>
