<?xml version="1.0" encoding="UTF-8" standalone="no"?>
<svg
   xmlns:dc="http://purl.org/dc/elements/1.1/"
   xmlns:cc="http://creativecommons.org/ns#"
   xmlns:rdf="http://www.w3.org/1999/02/22-rdf-syntax-ns#"
   xmlns:svg="http://www.w3.org/2000/svg"
   xmlns="http://www.w3.org/2000/svg"
   xmlns:sodipodi="http://sodipodi.sourceforge.net/DTD/sodipodi-0.dtd"
   xmlns:inkscape="http://www.inkscape.org/namespaces/inkscape"
   viewBox="0 0 22 22"
   version="1.1"
   id="svg4"
   sodipodi:docname="view-categories.svg"
   inkscape:version="0.92.2 5c3e80d, 2017-08-06">
  <metadata
     id="metadata10">
    <rdf:RDF>
      <cc:Work
         rdf:about="">
        <dc:format>image/svg+xml</dc:format>
        <dc:type
           rdf:resource="http://purl.org/dc/dcmitype/StillImage" />
      </cc:Work>
    </rdf:RDF>
  </metadata>
  <defs
     id="defs8" />
  <sodipodi:namedview
     pagecolor="#ffffff"
     bordercolor="#666666"
     borderopacity="1"
     objecttolerance="10"
     gridtolerance="10"
     guidetolerance="10"
     inkscape:pageopacity="0"
     inkscape:pageshadow="2"
     inkscape:window-width="1366"
     inkscape:window-height="701"
     id="namedview6"
     showgrid="false"
     inkscape:zoom="10.727273"
     inkscape:cx="-7.1779658"
     inkscape:cy="11.17219"
     inkscape:window-x="0"
     inkscape:window-y="0"
     inkscape:window-maximized="1"
     inkscape:current-layer="svg4" />
  <path
     d="m 4.5756968,3.7728814 c -0.4448653,0 -0.8028154,0.3230341 -0.8028154,0.7234165 V 17.503702 c 0,0.400383 0.3579501,0.723417 0.8028154,0.723417 H 17.424303 c 0.444865,0 0.802816,-0.323034 0.802816,-0.723417 V 4.4962979 c 0,-0.4003824 -0.35795,-0.7234165 -0.802816,-0.7234165 z M 5.9960695,5.579661 h 4.1693525 c 0.230319,0 0.418169,0.1860893 0.418169,0.4164085 v 4.1693515 c 0,0.23032 -0.18785,0.41817 -0.418169,0.41817 H 5.9960695 c -0.2303192,0 -0.4164085,-0.18785 -0.4164085,-0.41817 V 5.9960695 c 0,-0.2303192 0.1860893,-0.4164085 0.4164085,-0.4164085 z m 5.8385095,0 h 4.169351 c 0.23032,0 0.416409,0.1860893 0.416409,0.4164085 v 4.1693515 c 0,0.23032 -0.186089,0.41817 -0.416409,0.41817 h -4.169351 c -0.23032,0 -0.41817,-0.18785 -0.41817,-0.41817 V 5.9960695 c 0,-0.2303192 0.18785,-0.4164085 0.41817,-0.4164085 z m 0.416409,0.8345786 v 3.3347733 h 3.334773 V 6.4142396 Z M 5.9960695,11.416409 h 4.1693525 c 0.230319,0 0.418169,0.187399 0.418169,0.418169 v 4.169352 c 0,0.230319 -0.18785,0.416409 -0.418169,0.416409 H 5.9960695 c -0.2303192,0 -0.4164085,-0.18609 -0.4164085,-0.416409 v -4.169352 c 0,-0.230319 0.1860893,-0.418169 0.4164085,-0.418169 z m 5.8385095,0 h 4.169351 c 0.23032,0 0.416851,0.18608 0.416409,0.416408 v 4.169352 c 0,0.230319 -0.187851,0.41817 -0.418171,0.41817 h -2.083794 -2.083795 c -0.23032,0 -0.41817,-0.187851 -0.41817,-0.41817 v -2.083795 -2.083795 c 0,-0.23032 0.18785,-0.41817 0.41817,-0.41817 z m -4.2858082,0.834578 c 0.071729,0.122952 0.1164469,0.2636 0.1164469,0.4164 0,0.460647 -0.3739311,0.834579 -0.8345695,0.834579 -0.1528084,0 -0.2934572,-0.04472 -0.4164086,-0.116447 v 1.06571 c 0.1229514,-0.07173 0.2636002,-0.116446 0.4164086,-0.116446 0.4606384,0 0.8345695,0.37393 0.8345695,0.834568 0,0.152809 -0.044718,0.293458 -0.1164469,0.41641 h 1.0657109 c -0.071729,-0.122952 -0.1164469,-0.263601 -0.1164469,-0.41641 0,-0.460638 0.3739311,-0.834568 0.8345786,-0.834568 0.1527993,0 0.2934481,0.04471 0.4163995,0.116446 v -1.06571 c -0.1229514,0.07173 -0.2636002,0.116447 -0.4163995,0.116447 -0.4606475,0 -0.8345786,-0.373931 -0.8345786,-0.834579 0,-0.1528 0.044718,-0.293449 0.1164469,-0.4164 z m 4.7022172,0 v 0.66166 l 0.66166,-0.66166 z m 1.840295,0 -1.840295,1.840305 v 0.905152 l 2.745456,-2.745456 z m 1.494478,0.589317 -2.745456,2.745457 h 0.905151 l 1.840305,-1.840305 z M 8.0816263,13.083795 A 0.83396682,0.83396682 0 0 1 8.9162049,13.918374 0.83396682,0.83396682 0 0 1 8.0816263,14.752952 0.83396682,0.83396682 0 0 1 7.2470476,13.918374 0.83396682,0.83396682 0 0 1 8.0816263,13.083795 Z M 15.585761,14.9241 14.9241,15.585761 h 0.661661 z"
     id="path2"
     inkscape:connector-curvature="0"
     style="fill:#dfdfdf;stroke-width:0.90338981" />
</svg>
