<?xml version="1.0" encoding="UTF-8" standalone="no"?>
<svg
   xmlns:dc="http://purl.org/dc/elements/1.1/"
   xmlns:cc="http://creativecommons.org/ns#"
   xmlns:rdf="http://www.w3.org/1999/02/22-rdf-syntax-ns#"
   xmlns:svg="http://www.w3.org/2000/svg"
   xmlns="http://www.w3.org/2000/svg"
   xmlns:xlink="http://www.w3.org/1999/xlink"
   viewBox="0 0 64 64"
   version="1.1"
   id="svg5453"
   height="64"
   width="64">
  <defs
     id="defs5455">
    <linearGradient
       id="linearGradient831">
      <stop
         style="stop-color:#20bcfa;stop-opacity:1;"
         offset="0"
         id="stop827" />
      <stop
         style="stop-color:#46c7fc;stop-opacity:1"
         offset="1"
         id="stop829" />
    </linearGradient>
    <linearGradient
       xlink:href="#linearGradient831"
       id="linearGradient833"
       x1="32.010437"
       y1="57.89262"
       x2="31.962496"
       y2="15.119835"
       gradientUnits="userSpaceOnUse"
       gradientTransform="translate(0,-3.8146973e-6)" />
  </defs>
  <metadata
     id="metadata5458">
    <rdf:RDF>
      <cc:Work
         rdf:about="">
        <dc:format>image/svg+xml</dc:format>
        <dc:type
           rdf:resource="http://purl.org/dc/dcmitype/StillImage" />
        <dc:title></dc:title>
      </cc:Work>
    </rdf:RDF>
  </metadata>
  <path
     style="fill:#209efa;fill-opacity:1;fill-rule:evenodd;stroke:none;stroke-width:1px;stroke-linecap:butt;stroke-linejoin:miter;stroke-opacity:1"
     d="M 4,6 C 3.44878,6.05512 3,6.446 3,7 V 9 49 H 61 V 14 13 11 c 0,-1 -1,-1 -1,-1 H 58 37 33 C 31,6 27,6 27,6 H 5 Z"
     id="folderTab-3" />
  <path
     style="color:#000000;text-decoration:none;text-decoration-line:none;text-decoration-style:solid;text-decoration-color:#000000;white-space:normal;clip-rule:nonzero;display:inline;overflow:visible;visibility:visible;opacity:1;isolation:auto;mix-blend-mode:normal;color-interpolation:sRGB;color-interpolation-filters:linearRGB;solid-color:#000000;solid-opacity:1;fill:#fffbec;fill-opacity:1;fill-rule:nonzero;stroke:none;stroke-width:1;stroke-linecap:butt;stroke-linejoin:miter;stroke-miterlimit:4;stroke-dasharray:none;stroke-dashoffset:0;stroke-opacity:1;color-rendering:auto;image-rendering:auto;shape-rendering:auto;text-rendering:auto;enable-background:accumulate"
     d="M 7,13 H 57 V 45 H 7 Z"
     id="folderPaper-6" />
  <path
     style="fill:url(#linearGradient833);fill-opacity:1;fill-rule:evenodd;stroke:none;stroke-width:1px;stroke-linecap:butt;stroke-linejoin:miter;stroke-opacity:1"
     d="m 39,14.999996 c 0,0 -4,0 -6,4 H 29 4 2 c 0,0 -0.1319813,0.01691 -0.2890625,0.05859 -0.045956,0.01404 -0.091922,0.02277 -0.1347656,0.04297 C 1.3019442,19.211394 1,19.444766 1,19.999996 v 2 1 34 c 0,0.55397 0.44603,1 1,1 h 60 c 0.55397,0 1,-0.44603 1,-1 v -39 -2 c 0,-0.55397 -0.44603,-1 -1,-1 h -1 z"
     id="folderFront-2" />
  <path
     style="opacity:0.25;fill:#000000;fill-opacity:1;stroke:none"
     d="m 1,57 c 0,0.55397 0.44603,1 1,1 h 60 c 0.55397,0 1,-0.44603 1,-1 z"
     id="folderShadow-9" />
  <g
     id="g844"
     style="opacity:0.98999999;fill:#b3e5fc;fill-opacity:1;stroke:#b3e5fc;stroke-width:26.21758842;stroke-miterlimit:4;stroke-dasharray:none;stroke-opacity:1"
     transform="matrix(0.03199628,0,0,0.03201296,22.209138,26.70403)">
    <path
       id="path12592"
       d="M 587.572,186.881 C 555.306,111.656 500.476,56.947 424.623,24.596 386.711,8.427 346.992,0.168 305.497,0.168 264.009,0.168 224.583,8.349 186.713,24.596 111.488,56.861 56.415,111.535 24.092,186.881 7.895,224.629 0,264.176 0,305.664 c 0,41.496 7.895,81.371 24.092,119.127 32.323,75.346 87.403,130.348 162.621,162.621 37.877,16.247 77.295,24.42 118.784,24.42 41.489,0 81.214,-8.259 119.12,-24.42 C 500.47,555.06 555.3,500.009 587.573,424.791 603.819,386.914 612,347.16 612,305.664 c 0,-41.488 -8.174,-80.907 -24.428,-118.783 z m -48.848,253.972 c -24.021,41.195 -56.929,73.876 -98.375,98.039 -41.195,24.021 -86.332,36.135 -134.845,36.135 -36.47,0 -71.27,-7.024 -104.4,-21.415 C 167.975,539.228 139.371,520.318 115.443,496.397 91.515,472.469 72.47,443.586 58.229,410.4 44.03,377.335 37.149,342.142 37.149,305.665 c 0,-48.52 11.921,-93.428 35.807,-134.509 23.971,-41.231 56.886,-73.947 98.039,-98.04 41.146,-24.092 85.99,-36.142 134.502,-36.142 48.52,0 93.649,12.121 134.845,36.142 41.446,24.164 74.283,56.879 98.375,98.039 24.092,41.153 36.135,85.99 36.135,134.509 0,48.521 -11.964,93.735 -36.128,135.189 z"
       style="fill:#b3e5fc;fill-opacity:1;stroke:#b3e5fc;stroke-width:26.21758842;stroke-miterlimit:4;stroke-dasharray:none;stroke-opacity:1" />
    <path
       id="path12594"
       d="M 324.906,302.988 V 129.659 c 0,-10.372 -9.037,-18.738 -19.41,-18.738 -9.701,0 -18.403,8.366 -18.403,18.738 v 176.005 c 0,0.336 0.671,1.678 0.671,2.678 -0.671,6.024 1.007,11.043 5.019,15.062 L 392.836,423.45 c 6.695,6.695 19.073,6.695 25.763,0 7.694,-7.695 7.188,-18.86 0,-26.099 z"
       style="fill:#b3e5fc;fill-opacity:1;stroke:#b3e5fc;stroke-width:26.21758842;stroke-miterlimit:4;stroke-dasharray:none;stroke-opacity:1" />
  </g>
</svg>
