<?xml version="1.0" encoding="UTF-8" standalone="no"?>
<svg
   xmlns:dc="http://purl.org/dc/elements/1.1/"
   xmlns:cc="http://creativecommons.org/ns#"
   xmlns:rdf="http://www.w3.org/1999/02/22-rdf-syntax-ns#"
   xmlns:svg="http://www.w3.org/2000/svg"
   xmlns="http://www.w3.org/2000/svg"
   xmlns:xlink="http://www.w3.org/1999/xlink"
   viewBox="0 0 64 64"
   version="1.1"
   id="svg5453"
   height="64"
   width="64">
  <defs
     id="defs5455">
    <linearGradient
       id="linearGradient831">
      <stop
         style="stop-color:#20bcfa;stop-opacity:1;"
         offset="0"
         id="stop827" />
      <stop
         style="stop-color:#46c7fc;stop-opacity:1"
         offset="1"
         id="stop829" />
    </linearGradient>
    <linearGradient
       xlink:href="#linearGradient831"
       id="linearGradient833"
       x1="32.010437"
       y1="57.89262"
       x2="31.962496"
       y2="15.119835"
       gradientUnits="userSpaceOnUse"
       gradientTransform="translate(0,-3.8146973e-6)" />
  </defs>
  <metadata
     id="metadata5458">
    <rdf:RDF>
      <cc:Work
         rdf:about="">
        <dc:format>image/svg+xml</dc:format>
        <dc:type
           rdf:resource="http://purl.org/dc/dcmitype/StillImage" />
        <dc:title></dc:title>
      </cc:Work>
    </rdf:RDF>
  </metadata>
  <path
     style="fill:#209efa;fill-opacity:1;fill-rule:evenodd;stroke:none;stroke-width:1px;stroke-linecap:butt;stroke-linejoin:miter;stroke-opacity:1"
     d="M 4,6 C 3.44878,6.05512 3,6.446 3,7 V 9 49 H 61 V 14 13 11 c 0,-1 -1,-1 -1,-1 H 58 37 33 C 31,6 27,6 27,6 H 5 Z"
     id="folderTab-3" />
  <path
     style="color:#000000;text-decoration:none;text-decoration-line:none;text-decoration-style:solid;text-decoration-color:#000000;white-space:normal;clip-rule:nonzero;display:inline;overflow:visible;visibility:visible;opacity:1;isolation:auto;mix-blend-mode:normal;color-interpolation:sRGB;color-interpolation-filters:linearRGB;solid-color:#000000;solid-opacity:1;fill:#fffbec;fill-opacity:1;fill-rule:nonzero;stroke:none;stroke-width:1;stroke-linecap:butt;stroke-linejoin:miter;stroke-miterlimit:4;stroke-dasharray:none;stroke-dashoffset:0;stroke-opacity:1;color-rendering:auto;image-rendering:auto;shape-rendering:auto;text-rendering:auto;enable-background:accumulate"
     d="M 7,13 H 57 V 45 H 7 Z"
     id="folderPaper-6" />
  <path
     style="fill:url(#linearGradient833);fill-opacity:1;fill-rule:evenodd;stroke:none;stroke-width:1px;stroke-linecap:butt;stroke-linejoin:miter;stroke-opacity:1"
     d="m 39,14.999996 c 0,0 -4,0 -6,4 H 29 4 2 c 0,0 -0.1319813,0.01691 -0.2890625,0.05859 -0.045956,0.01404 -0.091922,0.02277 -0.1347656,0.04297 C 1.3019442,19.211394 1,19.444766 1,19.999996 v 2 1 34 c 0,0.55397 0.44603,1 1,1 h 60 c 0.55397,0 1,-0.44603 1,-1 v -39 -2 c 0,-0.55397 -0.44603,-1 -1,-1 h -1 z"
     id="folderFront-2" />
  <path
     style="opacity:0.25;fill:#000000;fill-opacity:1;stroke:none"
     d="m 1,57 c 0,0.55397 0.44603,1 1,1 h 60 c 0.55397,0 1,-0.44603 1,-1 z"
     id="folderShadow-9" />
  <g
     style="opacity:1;fill:#ffffff"
     transform="matrix(1.6582734,0,0,1.6542568,-911.55004,-739.34843)"
     id="g7080">
    <path
       d="m 564.78,463.02 c -0.24234,0.001 -0.52104,0.0664 -0.80589,0.21875 -1.0374,0.54647 -1.992,2.336 -2.5107,4.6562 -0.44216,1.9709 -0.60455,4.666 -0.34095,5.75 0.22958,0.93169 0.62706,1.3438 1.3328,1.3438 1.0459,-0.0179 2.3593,-1.1822 3.1926,-2.75 0.6027,-0.86787 2.0005,-1.2625 3.3476,-1.2188 1.347,-0.0471 2.7448,0.35088 3.3476,1.2188 0.8333,1.5678 2.1467,2.7321 3.1926,2.75 0.70576,0 1.1032,-0.41206 1.3328,-1.3438 0.2636,-1.084 0.10121,-3.7791 -0.34095,-5.75 -0.51869,-2.3203 -1.4733,-4.1098 -2.5107,-4.6562 -0.5697,-0.30459 -1.0402,-0.29563 -1.4568,0 -0.52719,0.37626 -1.6258,0.77958 -3.5645,0.78125 -1.9387,0.002 -3.0373,-0.40499 -3.5645,-0.78125 -0.20832,-0.14782 -0.40857,-0.21987 -0.65091,-0.21875 z m 0.24797,3 h 0.99186 v 1 h 0.99187 v 1 h -0.99187 v 1 h -0.99186 v -1 h -0.99187 v -1 h 0.99187 z m 7.439,0 c 0.2739,0 0.49593,0.22386 0.49593,0.5 0,0.27614 -0.22203,0.5 -0.49593,0.5 -0.2739,0 -0.49593,-0.22386 -0.49593,-0.5 0,-0.27614 0.22203,-0.5 0.49593,-0.5 z m -0.99187,1 c 0.2739,0 0.49594,0.22386 0.49594,0.5 0,0.27614 -0.22204,0.5 -0.49594,0.5 -0.27389,0 -0.49593,-0.22386 -0.49593,-0.5 0,-0.27614 0.22204,-0.5 0.49593,-0.5 z m 1.9837,0 c 0.27389,0 0.49593,0.22386 0.49593,0.5 0,0.27614 -0.22204,0.5 -0.49593,0.5 -0.2739,0 -0.49594,-0.22386 -0.49594,-0.5 0,-0.27614 0.22204,-0.5 0.49594,-0.5 z m -0.99187,1 c 0.2739,0 0.49593,0.22386 0.49593,0.5 0,0.27614 -0.22203,0.5 -0.49593,0.5 -0.2739,0 -0.49593,-0.22386 -0.49593,-0.5 0,-0.27614 0.22203,-0.5 0.49593,-0.5 z"
       id="path7078"
       style="fill:#b3e5fc;fill-opacity:1" />
  </g>
</svg>
