<?xml version="1.0" encoding="UTF-8" standalone="no"?>
<svg
   xmlns:dc="http://purl.org/dc/elements/1.1/"
   xmlns:cc="http://creativecommons.org/ns#"
   xmlns:rdf="http://www.w3.org/1999/02/22-rdf-syntax-ns#"
   xmlns:svg="http://www.w3.org/2000/svg"
   xmlns="http://www.w3.org/2000/svg"
   xmlns:xlink="http://www.w3.org/1999/xlink"
   viewBox="0 0 64 64"
   version="1.1"
   id="svg5453"
   height="64"
   width="64">
  <defs
     id="defs5455">
    <linearGradient
       id="linearGradient831">
      <stop
         style="stop-color:#20bcfa;stop-opacity:1;"
         offset="0"
         id="stop827" />
      <stop
         style="stop-color:#46c7fc;stop-opacity:1"
         offset="1"
         id="stop829" />
    </linearGradient>
    <linearGradient
       xlink:href="#linearGradient831"
       id="linearGradient833"
       x1="32.010437"
       y1="57.89262"
       x2="31.962496"
       y2="15.119835"
       gradientUnits="userSpaceOnUse"
       gradientTransform="translate(0,-3.8146973e-6)" />
  </defs>
  <metadata
     id="metadata5458">
    <rdf:RDF>
      <cc:Work
         rdf:about="">
        <dc:format>image/svg+xml</dc:format>
        <dc:type
           rdf:resource="http://purl.org/dc/dcmitype/StillImage" />
        <dc:title></dc:title>
      </cc:Work>
    </rdf:RDF>
  </metadata>
  <path
     style="fill:#209efa;fill-opacity:1;fill-rule:evenodd;stroke:none;stroke-width:1px;stroke-linecap:butt;stroke-linejoin:miter;stroke-opacity:1"
     d="M 4,6 C 3.44878,6.05512 3,6.446 3,7 V 9 49 H 61 V 14 13 11 c 0,-1 -1,-1 -1,-1 H 58 37 33 C 31,6 27,6 27,6 H 5 Z"
     id="folderTab-3" />
  <path
     style="color:#000000;text-decoration:none;text-decoration-line:none;text-decoration-style:solid;text-decoration-color:#000000;white-space:normal;clip-rule:nonzero;display:inline;overflow:visible;visibility:visible;opacity:1;isolation:auto;mix-blend-mode:normal;color-interpolation:sRGB;color-interpolation-filters:linearRGB;solid-color:#000000;solid-opacity:1;fill:#fffbec;fill-opacity:1;fill-rule:nonzero;stroke:none;stroke-width:1;stroke-linecap:butt;stroke-linejoin:miter;stroke-miterlimit:4;stroke-dasharray:none;stroke-dashoffset:0;stroke-opacity:1;color-rendering:auto;image-rendering:auto;shape-rendering:auto;text-rendering:auto;enable-background:accumulate"
     d="M 7,13 H 57 V 45 H 7 Z"
     id="folderPaper-6" />
  <path
     style="fill:url(#linearGradient833);fill-opacity:1;fill-rule:evenodd;stroke:none;stroke-width:1px;stroke-linecap:butt;stroke-linejoin:miter;stroke-opacity:1"
     d="m 39,14.999996 c 0,0 -4,0 -6,4 H 29 4 2 c 0,0 -0.1319813,0.01691 -0.2890625,0.05859 -0.045956,0.01404 -0.091922,0.02277 -0.1347656,0.04297 C 1.3019442,19.211394 1,19.444766 1,19.999996 v 2 1 34 c 0,0.55397 0.44603,1 1,1 h 60 c 0.55397,0 1,-0.44603 1,-1 v -39 -2 c 0,-0.55397 -0.44603,-1 -1,-1 h -1 z"
     id="folderFront-2" />
  <path
     style="opacity:0.25;fill:#000000;fill-opacity:1;stroke:none"
     d="m 1,57 c 0,0.55397 0.44603,1 1,1 h 60 c 0.55397,0 1,-0.44603 1,-1 z"
     id="folderShadow-9" />
  <g
     id="g835"
     style="fill:#ffffff;fill-opacity:1"
     transform="matrix(0.10978231,0,0,0.14941474,14.127879,6.8032441)">
    <path
       id="path11426"
       d="m 129.532,225.558 c -0.133,-0.919 -0.625,-1.747 -1.368,-2.303 l -37.7,-28.193 37.7,-28.193 c 0.743,-0.556 1.235,-1.384 1.368,-2.303 0.132,-0.919 -0.105,-1.852 -0.662,-2.597 l -5.989,-8.008 c -1.159,-1.548 -3.351,-1.865 -4.899,-0.706 l -52.157,39.004 c -0.883,0.66 -1.404,1.699 -1.404,2.803 0,1.104 0.521,2.143 1.404,2.803 l 52.157,39.004 c 0.628,0.471 1.364,0.697 2.093,0.697 1.066,0 2.119,-0.484 2.806,-1.403 l 5.989,-8.008 c 0.556,-0.745 0.794,-1.678 0.662,-2.597 z"
       style="fill:#b3e5fc;fill-opacity:1" />
    <path
       id="path11428"
       d="m 259.766,192.259 -52.155,-39.004 c -1.548,-1.158 -3.74,-0.841 -4.898,0.706 l -5.989,8.008 c -0.556,0.744 -0.794,1.678 -0.662,2.597 0.133,0.918 0.624,1.747 1.368,2.303 l 37.699,28.193 -37.699,28.193 c -0.744,0.556 -1.235,1.385 -1.368,2.303 -0.132,0.919 0.105,1.853 0.662,2.597 l 5.989,8.008 c 0.688,0.919 1.74,1.403 2.806,1.403 0.729,0 1.464,-0.227 2.093,-0.697 l 52.155,-39.004 c 0.883,-0.66 1.404,-1.699 1.404,-2.803 0,-1.104 -0.522,-2.143 -1.405,-2.803 z"
       style="fill:#b3e5fc;fill-opacity:1" />
    <path
       id="path11430"
       d="m 196.264,132.436 -9.211,-3.895 c -0.854,-0.362 -1.818,-0.368 -2.679,-0.02 -0.86,0.349 -1.547,1.025 -1.908,1.88 l -55,130.084 c -0.753,1.78 0.08,3.834 1.861,4.587 l 9.211,3.895 c 0.435,0.185 0.899,0.276 1.363,0.276 0.447,0 0.894,-0.086 1.316,-0.257 0.86,-0.349 1.546,-1.025 1.908,-1.88 l 55,-130.084 c 0.752,-1.78 -0.081,-3.833 -1.861,-4.586 z"
       style="fill:#b3e5fc;fill-opacity:1" />
  </g>
</svg>
