<?xml version="1.0" encoding="UTF-8" standalone="no"?>
<svg
   xmlns:dc="http://purl.org/dc/elements/1.1/"
   xmlns:cc="http://creativecommons.org/ns#"
   xmlns:rdf="http://www.w3.org/1999/02/22-rdf-syntax-ns#"
   xmlns:svg="http://www.w3.org/2000/svg"
   xmlns="http://www.w3.org/2000/svg"
   xmlns:xlink="http://www.w3.org/1999/xlink"
   xmlns:sodipodi="http://sodipodi.sourceforge.net/DTD/sodipodi-0.dtd"
   xmlns:inkscape="http://www.inkscape.org/namespaces/inkscape"
   viewBox="0 0 64 64"
   version="1.1"
   id="svg5453"
   height="64"
   width="64"
   sodipodi:docname="folder-html.svg"
   inkscape:version="0.92.2 2405546, 2018-03-11">
  <sodipodi:namedview
     pagecolor="#ffffff"
     bordercolor="#666666"
     borderopacity="1"
     objecttolerance="10"
     gridtolerance="10"
     guidetolerance="10"
     inkscape:pageopacity="0"
     inkscape:pageshadow="2"
     inkscape:window-width="640"
     inkscape:window-height="509"
     id="namedview14"
     showgrid="false"
     inkscape:zoom="3.6875"
     inkscape:cx="20.905693"
     inkscape:cy="32"
     inkscape:window-x="0"
     inkscape:window-y="0"
     inkscape:window-maximized="0"
     inkscape:current-layer="svg5453" />
  <defs
     id="defs5455">
    <linearGradient
       id="linearGradient831">
      <stop
         style="stop-color:#20bcfa;stop-opacity:1;"
         offset="0"
         id="stop827" />
      <stop
         style="stop-color:#46c7fc;stop-opacity:1"
         offset="1"
         id="stop829" />
    </linearGradient>
    <linearGradient
       xlink:href="#linearGradient831"
       id="linearGradient833"
       x1="32.010437"
       y1="57.89262"
       x2="31.962496"
       y2="15.119835"
       gradientUnits="userSpaceOnUse"
       gradientTransform="translate(0,-3.8146973e-6)" />
  </defs>
  <metadata
     id="metadata5458">
    <rdf:RDF>
      <cc:Work
         rdf:about="">
        <dc:format>image/svg+xml</dc:format>
        <dc:type
           rdf:resource="http://purl.org/dc/dcmitype/StillImage" />
        <dc:title />
      </cc:Work>
    </rdf:RDF>
  </metadata>
  <path
     style="fill:#209efa;fill-opacity:1;fill-rule:evenodd;stroke:none;stroke-width:1px;stroke-linecap:butt;stroke-linejoin:miter;stroke-opacity:1"
     d="M 4,6 C 3.44878,6.05512 3,6.446 3,7 V 9 49 H 61 V 14 13 11 c 0,-1 -1,-1 -1,-1 H 58 37 33 C 31,6 27,6 27,6 H 5 Z"
     id="folderTab-3" />
  <path
     style="color:#000000;text-decoration:none;text-decoration-line:none;text-decoration-style:solid;text-decoration-color:#000000;white-space:normal;clip-rule:nonzero;display:inline;overflow:visible;visibility:visible;opacity:1;isolation:auto;mix-blend-mode:normal;color-interpolation:sRGB;color-interpolation-filters:linearRGB;solid-color:#000000;solid-opacity:1;fill:#fffbec;fill-opacity:1;fill-rule:nonzero;stroke:none;stroke-width:1;stroke-linecap:butt;stroke-linejoin:miter;stroke-miterlimit:4;stroke-dasharray:none;stroke-dashoffset:0;stroke-opacity:1;color-rendering:auto;image-rendering:auto;shape-rendering:auto;text-rendering:auto;enable-background:accumulate"
     d="M 7,13 H 57 V 45 H 7 Z"
     id="folderPaper-6" />
  <path
     style="fill:url(#linearGradient833);fill-opacity:1;fill-rule:evenodd;stroke:none;stroke-width:1px;stroke-linecap:butt;stroke-linejoin:miter;stroke-opacity:1"
     d="m 39,14.999996 c 0,0 -4,0 -6,4 H 29 4 2 c 0,0 -0.1319813,0.01691 -0.2890625,0.05859 -0.045956,0.01404 -0.091922,0.02277 -0.1347656,0.04297 C 1.3019442,19.211394 1,19.444766 1,19.999996 v 2 1 34 c 0,0.55397 0.44603,1 1,1 h 60 c 0.55397,0 1,-0.44603 1,-1 v -39 -2 c 0,-0.55397 -0.44603,-1 -1,-1 h -1 z"
     id="folderFront-2" />
  <path
     style="opacity:0.25;fill:#000000;fill-opacity:1;stroke:none"
     d="m 1,57 c 0,0.55397 0.44603,1 1,1 h 60 c 0.55397,0 1,-0.44603 1,-1 z"
     id="folderShadow-9" />
  <path
     style="color:#000000;opacity:1;fill:#b3e5fc;fill-opacity:1;stroke-width:1.15499997"
     id="path26"
     d="m 31.999955,26.949986 c -0.39992,0 -0.80188,0.0329 -1.19109,0.0722 -0.77844,0.0785 -1.51361,0.20881 -2.23781,0.43312 -3.62106,1.12155 -6.49422,3.99473 -7.61579,7.61578 -0.22431,0.72422 -0.35454,1.45938 -0.43313,2.23782 -0.0393,0.38922 -0.0721,0.79117 -0.0721,1.19109 0,0.39992 0.0329,0.80187 0.0721,1.1911 0.0785,0.77843 0.20882,1.51359 0.43313,2.2378 1.12157,3.62106 3.99473,6.49423 7.61579,7.61579 0.7242,0.22431 1.45937,0.35454 2.23781,0.43312 0.38921,0.0393 0.79117,0.0722 1.19109,0.0722 0.39992,0 0.80187,-0.0329 1.1911,-0.0722 0.77842,-0.0785 1.51359,-0.20881 2.23781,-0.43312 0.72332,-0.22499 1.43881,-0.54674 2.09344,-0.90234 2.61891,-1.41917 4.62509,-3.8166 5.52234,-6.71345 0.22431,-0.7242 0.35454,-1.45937 0.43312,-2.2378 0.0393,-0.38923 0.0722,-0.79118 0.0722,-1.1911 0,-0.39868 -0.0328,-0.80282 -0.0722,-1.19109 -0.0785,-0.77844 -0.20881,-1.5136 -0.43312,-2.23782 -0.44863,-1.44841 -1.1895,-2.79422 -2.12953,-3.93421 -0.23538,-0.28522 -0.4967,-0.5328 -0.75797,-0.79407 -1.04383,-1.04382 -2.26272,-1.90755 -3.64547,-2.49047 -0.34546,-0.14612 -0.72115,-0.28454 -1.08281,-0.39703 -0.72422,-0.22431 -1.45939,-0.35454 -2.23781,-0.43312 -0.38923,-0.0393 -0.79118,-0.0722 -1.1911,-0.0722 z m 0,1.155 c 1.74787,0 3.39087,0.42898 4.83656,1.19109 0.0382,0.02 0.0704,0.0517 0.10822,0.0722 0.0292,0.0386 0.0208,0.0799 0.0721,0.10822 0.0378,0.021 0.0728,0.0533 0.10822,0.0722 0.0609,0.0336 0.12088,0.0855 0.10823,0.14437 -0.0167,0.086 -0.15778,0.0813 -0.21657,0.14438 0.008,0.12176 -0.0407,0.0986 -0.0722,0.18046 0.0189,0.0525 0.0638,0.0453 0.0722,0.10823 -0.0105,0.0672 -0.0974,0.0751 -0.0722,0.14437 0.11342,0.0882 0.21775,0.0147 0.32485,0 0.23518,-0.0295 0.4326,0.004 0.5775,-0.10822 -0.0153,-0.0899 0.0706,-0.1155 0.10823,-0.18047 0.0767,0.0538 0.14143,0.12472 0.21656,0.18047 -0.0441,0.0189 -0.14057,0.047 -0.18048,0.0722 -0.0588,0.0399 -0.0772,0.10027 -0.14437,0.14437 -0.0483,0.0336 -0.16616,0.14438 -0.21656,0.14438 -0.0609,0 -0.17247,-0.0507 -0.21657,-0.036 -0.0631,0.0189 -0.0371,0.11919 -0.10822,0.14438 -0.13859,0.0504 -0.38484,-0.1356 -0.43312,0.0722 0.0588,0.11966 0.25594,0.0794 0.36093,0.14437 0.0651,0.042 0.16368,0.25347 0.18048,0.32485 0.0167,0.0588 0.0252,0.26187 0,0.32484 -0.0651,0.16794 -0.23996,0.14858 -0.43313,0.14438 -0.0525,0 -0.0961,0.004 -0.14437,0 -0.32547,-0.021 -0.64708,-0.12472 -0.79407,0.10822 0.0105,0.17844 0.04,0.27778 0,0.43312 -0.0293,0.11331 -0.15068,0.19009 -0.14437,0.28875 0.002,0.0504 0.0958,0.14728 0.10822,0.21657 0.008,0.0378 -0.0169,0.11088 0,0.14437 0.0546,0.1029 0.19215,-0.0167 0.28875,0 0.0924,0.0147 0.18047,0.14979 0.18047,0.25266 0,0.0735 -0.0259,0.21737 -0.0722,0.28875 -0.0924,0.13854 -0.26474,0.1049 -0.39703,0.18047 -0.10915,0.0629 -0.15147,0.21567 -0.21656,0.32485 -0.0693,0.11754 -0.13563,0.1569 -0.10823,0.32483 -0.0945,0.18684 -0.20175,0.30676 -0.39703,0.39704 -0.0567,0.0252 -0.12798,0.0706 -0.18047,0.10822 -0.042,0.0293 -0.0855,0.0772 -0.14437,0.14438 -0.0735,0.0819 -0.17667,0.11748 -0.21656,0.18046 -0.0295,0.0483 -0.004,0.1515 -0.036,0.21657 -0.0462,0.0882 -0.12168,0.16448 -0.18047,0.25266 -0.0273,0.042 -0.079,0.0898 -0.10823,0.14437 -0.0672,0.12176 -0.15697,0.21778 -0.14437,0.32484 0.0105,0.1029 0.13808,0.12628 0.14437,0.21656 0.005,0.0504 -0.0382,0.0898 -0.036,0.14438 0.002,0.0798 0.0298,0.11748 0.036,0.18047 0.0147,0.15535 -0.079,0.21777 -0.10822,0.32484 -0.0147,0.0504 0.0126,0.10458 0,0.14438 -0.0252,0.0777 -0.14227,0.12419 -0.14437,0.21656 -0.002,0.0651 0.10195,0.12424 0.10822,0.21656 0.004,0.0629 -0.0486,0.1217 -0.036,0.18047 0.0231,0.11343 0.23666,0.27276 0.32485,0.36094 0.11969,0.11967 0.23626,0.19887 0.28875,0.32484 0.0441,0.10707 0.0625,0.28116 0.14438,0.36094 0.0609,0.0588 0.17496,0.0835 0.25265,0.14437 0.0735,0.0567 0.17496,0.0835 0.25266,0.14438 0.12809,0.1008 0.30161,0.30345 0.50531,0.28875 0.10707,-0.008 0.20515,-0.0512 0.32484,-0.0722 0.12389,-0.021 0.27105,-0.0847 0.39704,-0.0722 0.0965,0.0105 0.18796,0.0785 0.28875,0.0722 0.105,-0.005 0.24125,-0.0559 0.36094,-0.10823 0.20787,-0.0903 0.52778,-0.26065 0.83015,-0.21656 0.23098,0.0336 0.23534,0.29417 0.39703,0.39704 0.18477,0.0167 0.32223,-0.0357 0.46922,0 0.11134,0.0273 0.24216,0.23668 0.25266,0.32484 0.0105,0.0903 -0.0596,0.15988 -0.0721,0.21656 -0.0293,0.12176 -0.0512,0.28327 -0.0722,0.36094 -0.0167,0.0609 -0.0382,0.11958 -0.036,0.18047 0,0.0546 0.0877,0.18127 0.14437,0.25265 0.0693,0.0882 0.16866,0.15608 0.25265,0.25266 0.15329,0.17633 0.21775,0.41665 0.32485,0.64969 0.0273,0.0588 -0.0252,0.0709 0,0.14438 -0.0462,0.35268 -0.16605,0.58405 -0.39703,0.97452 -0.10915,0.12596 -0.21867,0.27569 -0.21657,0.43313 -0.008,0.37787 0.19728,0.57315 0.18047,0.93843 -0.0378,0.49124 0.002,0.56776 -0.036,0.83017 0.16589,0.084 0.0843,0.33106 0.036,0.50531 -0.0714,0.20781 -0.14058,0.25847 -0.18047,0.39702 0.0862,0.0372 0.15828,0.0465 0.25267,0.036 -1.89126,1.96629 -4.56384,3.17625 -7.5075,3.17625 -1.37792,0 -2.69478,-0.27109 -3.89813,-0.75796 -0.004,-10e-4 0.003,-0.0344 0,-0.036 0.10915,-0.0462 0.31724,0.0811 0.39703,-0.0722 0.04,-0.0735 -0.0525,-0.21527 0,-0.28875 0.0378,-0.0504 0.28324,-0.0958 0.36093,-0.10822 0.11135,-0.0189 0.22576,0.003 0.28875,-0.036 0.0693,-0.0441 0.15698,-0.15859 0.14438,-0.28874 -0.005,-0.0609 -0.0602,-0.0899 -0.10822,-0.14437 -0.0398,-0.0462 -0.009,-0.10238 -0.036,-0.14438 -0.0504,-0.0735 -0.12337,-0.10938 -0.14437,-0.21656 0.15119,-0.0293 0.35912,0.16919 0.5775,0.10822 0.1029,-0.0295 0.27653,-0.22829 0.32484,-0.32485 0.0147,-0.0295 -0.0168,-0.14472 0,-0.18046 0.0189,-0.0399 0.0658,-0.0513 0.0721,-0.0722 0.0147,-0.0567 -0.0126,-0.0728 0,-0.10822 0.0378,-0.10708 0.15356,-0.17498 0.21656,-0.25266 0.0483,-0.0588 0.10028,-0.11959 0.14438,-0.18048 0.0504,-0.0651 0.0749,-0.0877 0.10822,-0.14436 0.0315,-0.19104 -0.11839,-0.33738 -0.0721,-0.50531 0.0504,-0.18894 0.32263,-0.31097 0.50531,-0.39704 0.063,-0.0295 0.12796,-0.0894 0.18046,-0.10822 0.12599,-0.0441 0.27944,-0.0302 0.39704,-0.0721 0.19739,-0.0714 0.26433,-0.28869 0.36094,-0.46921 0.0462,-0.084 0.0998,-0.15569 0.10822,-0.21658 0.008,-0.0546 -0.0105,-0.11744 0,-0.18046 0.0105,-0.0629 0.0194,-0.11123 0.036,-0.18047 0.0231,-0.0903 0.036,-0.26017 0.036,-0.36094 0,-0.084 -0.0339,-0.1049 -0.036,-0.18046 -0.0147,-0.27291 0.0797,-0.28409 0.18047,-0.43313 0.0504,-0.0735 0.0728,-0.20018 0.10822,-0.25265 0.17009,-0.25193 0.45413,-0.37591 0.43313,-0.75797 -0.008,-0.12597 -0.052,-0.39324 -0.14438,-0.43313 -0.0525,-0.0231 -0.17496,-0.007 -0.25265,-0.036 -0.24779,-0.0924 -0.42752,-0.37604 -0.68579,-0.39702 -0.0546,-0.002 -0.0835,0.002 -0.14437,0 -0.1008,-0.002 -0.21146,-0.0958 -0.32484,-0.10822 -0.0714,-0.008 -0.21066,0.021 -0.25266,0 -0.0651,-0.0315 -0.0559,-0.14479 -0.10822,-0.18048 -0.042,-0.0295 -0.11539,-0.0491 -0.18047,-0.0722 -0.1029,-0.0399 -0.16906,-0.0637 -0.28875,-0.0722 -0.0378,-0.002 -0.13851,0.005 -0.18047,0 -0.0651,-0.0105 -0.11958,-0.0706 -0.18047,-0.10822 -0.0755,-0.0462 -0.11284,-0.0793 -0.14437,-0.14438 0.0693,-0.22672 -0.17036,-0.26479 -0.21656,-0.39703 -0.021,-0.0609 0.021,-0.16198 0,-0.21656 -0.0273,-0.0777 -0.0944,-0.11539 -0.18048,-0.18047 -0.15119,-0.11757 -0.28902,-0.22537 -0.50531,-0.25266 -0.0966,-0.0105 -0.20936,0.008 -0.32484,0 -0.12179,-0.008 -0.26856,-0.0755 -0.36094,-0.18046 -0.0882,-0.1029 -0.10279,-0.20439 -0.18047,-0.25267 -0.0735,-0.0462 -0.20226,-0.0602 -0.25265,-0.10822 -0.0231,-0.021 -0.0151,-0.0602 -0.036,-0.10822 -0.0378,-0.0756 -0.11838,-0.0881 -0.0722,-0.18047 -0.084,-0.042 -0.0541,0.0529 -0.14438,0.036 -0.0819,-0.1155 -0.14006,-0.18007 -0.32484,-0.14438 -0.084,0.0167 -0.15396,0.14229 -0.25265,0.14438 -0.0819,0.002 -0.14557,-0.12969 -0.25266,-0.14438 -0.0819,-0.0105 -0.19596,0.0847 -0.25266,0.0722 -0.0903,-0.0168 -0.0986,-0.12579 -0.18047,-0.18047 -0.0609,-0.04 -0.18296,-0.14647 -0.21656,-0.14438 -0.105,0.002 -0.17996,0.22206 -0.32485,0.14438 -0.0714,-0.0903 0.12014,-0.0966 0.036,-0.18046 -0.0629,-0.063 -0.0939,0.002 -0.14438,0.036 -0.0588,0.0398 -0.11538,0.0853 -0.18047,0.10822 -0.14489,0.0546 -0.24755,0.0497 -0.36094,0.10823 -0.105,0.0546 -0.11957,0.14558 -0.18046,0.25266 -0.0483,0.0882 -0.14308,0.21235 -0.21657,0.21656 -0.0882,0.005 -0.17286,-0.11077 -0.25266,-0.14438 -0.24148,-0.105 -0.37802,0.0701 -0.5775,0.0722 -0.18479,0.002 -0.44152,-0.29496 -0.43312,-0.46922 0.006,-0.10707 0.0596,-0.26478 0.0722,-0.39702 0.0105,-0.105 0.10626,-0.19218 0.10822,-0.28876 0.002,-0.12805 -0.20476,-0.23795 -0.28875,-0.25265 -0.19739,-0.0357 -0.4611,0.0882 -0.68578,0 -0.042,-0.0714 0.0831,-0.11123 0.10823,-0.18047 0.0147,-0.0399 -0.0147,-0.0641 0,-0.10823 0.0252,-0.0672 0.11284,-0.10902 0.14437,-0.18047 0.0231,-0.0546 0.0129,-0.14937 0.036,-0.21656 0.0273,-0.0756 0.10185,-0.12588 0.10822,-0.18047 0.008,-0.0714 -0.0518,-0.17038 -0.10822,-0.21655 -0.17429,0.0105 -0.29624,0.0265 -0.39704,0.0721 -0.22677,0.1029 -0.16815,0.39786 -0.39702,0.46923 -0.0777,0.0252 -0.20056,0.0575 -0.28875,0.0721 0.14935,-0.75568 0.38224,-1.47845 0.68577,-2.16562 0.0798,0.0147 0.14727,0.0658 0.21656,0.0722 0.19319,0.0147 0.20134,-0.13259 0.36094,-0.21656 0.16379,0.0231 0.24795,-0.0167 0.39704,0 0.1008,0.0105 0.24505,0.13808 0.32484,0.14438 0.0672,0.002 0.0813,-0.0827 0.14437,-0.0721 0.063,0.0105 0.16998,0.14099 0.18048,0.21657 0.0105,0.0945 -0.0635,0.18378 -0.036,0.28875 0.0987,0.1008 0.29243,0.15778 0.43313,0.21656 0.0924,-0.0756 0.0147,-0.25177 0,-0.36094 -0.002,-0.0483 0.006,-0.10028 0,-0.14438 -0.0105,-0.0755 -0.036,-0.15149 -0.036,-0.21656 0,-0.30019 0.23154,-0.42384 0.43313,-0.5414 0.0861,-0.0504 0.17706,-0.14268 0.25265,-0.18047 0.10707,-0.0526 0.16446,-0.0579 0.25266,-0.10823 0.15957,-0.0903 0.30922,-0.18587 0.43312,-0.28875 0.0567,-0.13643 -0.005,-0.29877 0,-0.43312 0.0567,-0.0357 0.0835,0.005 0.14438,0 0.0966,-0.021 0.12585,-0.162 0.18046,-0.21656 0.0315,-0.0315 0.14263,-0.0407 0.18048,-0.0722 0.0966,-0.0756 0.0964,-0.18297 0.18046,-0.21657 0.0295,-0.0105 0.0981,-0.0235 0.14437,-0.036 0.0631,-0.0167 0.15188,-0.0728 0.25267,-0.10822 0.0651,-0.0231 0.22745,-0.0115 0.25265,-0.036 0.0315,-0.0315 -0.008,-0.16827 0,-0.21656 0.0504,-0.23722 0.40151,-0.24506 0.6136,-0.32485 0.14697,-0.0567 0.30542,-0.17587 0.46921,-0.14438 -0.0315,0.11332 -0.17168,0.08 -0.14438,0.21657 0.0357,0.19103 0.25765,-0.0449 0.32485,-0.0721 0.12809,-0.0546 0.37341,-0.0835 0.5414,-0.14437 0.14699,-0.0524 0.39123,-0.15481 0.25267,-0.32484 -0.1155,-0.008 -0.15188,0.10237 -0.25267,0.14437 -0.0693,0.0105 -0.0856,-0.0319 -0.14437,-0.036 -0.0567,-0.002 -0.0877,0.0465 -0.14438,0.036 -0.0567,-0.0105 -0.13597,-0.1133 -0.14437,-0.18047 -0.0231,-0.17633 0.18128,-0.23078 0.25266,-0.36094 -0.0483,-0.15955 -0.26265,-0.009 -0.39704,-0.0722 0.0147,-0.0945 0.0692,-0.19765 0.18048,-0.21656 0.0903,-0.0147 0.30634,0.0286 0.36094,0.0722 0.0315,0.0273 -0.0121,0.10017 0.036,0.14437 0.0546,0.0483 0.14516,0.0105 0.21656,0 0.0252,-0.11965 -0.16537,-0.0667 -0.14437,-0.14437 0.14278,-0.0924 0.40321,-0.0491 0.5775,-0.0722 0.1008,-0.0147 0.19845,-0.0961 0.28875,-0.14438 0.084,-0.0483 0.16445,-0.11591 0.25265,-0.036 0.0252,0.0861 -0.0602,0.13638 -0.10822,0.18047 -0.16169,0.14275 -0.30714,0.30339 -0.43313,0.46922 0.0777,0.0756 0.19465,0.0215 0.32485,0.036 0.0504,0.006 0.12795,0.0277 0.18046,0.036 0.0631,0.0105 0.13007,-0.0105 0.18048,0 0.0882,0.021 0.0923,0.14437 0.18046,0.14437 0.14279,0 0.15414,-0.11998 0.0722,-0.21656 0.0252,-0.0988 0.0719,-0.18336 0.036,-0.25265 -0.0651,-0.13016 -0.31224,0.0214 -0.32484,-0.14438 -0.008,-0.105 0.1066,-0.13677 0.14437,-0.21656 -0.0168,-0.20153 0.16537,-0.21439 0.14438,-0.39704 -0.0105,-0.0756 -0.0918,-0.0731 -0.14438,-0.14437 -0.0273,-0.0378 -0.0407,-0.11708 -0.0722,-0.14438 -0.10915,-0.0924 -0.31225,-0.0763 -0.32485,-0.25265 -0.006,-0.105 0.0147,-0.1754 0,-0.28875 -0.0147,-0.10707 -0.1242,-0.41212 -0.21656,-0.43312 -0.11759,-0.0252 -0.18415,0.18758 -0.32484,0.25265 -0.0755,0.0357 -0.21107,0.0508 -0.28875,0.036 -0.0504,-0.0105 -0.13807,-0.0478 -0.14437,-0.14437 -0.005,-0.0557 0.0128,-0.0753 0.036,-0.10822 0.005,-0.008 -0.006,-0.0279 0,-0.036 0.91359,-0.26256 1.88947,-0.39703 2.8875,-0.39703 z m -4.29515,0.93844 c -0.10248,0.32814 -0.3991,0.51547 -0.79407,0.50531 -0.0966,0.0924 -0.0559,0.26897 -0.10823,0.39703 -0.0441,0.10707 -0.18166,0.18888 -0.28874,0.18047 -0.0777,-0.005 -0.21656,-0.10696 -0.21656,-0.18047 0,-0.0602 0.0582,-0.12823 0.0721,-0.18047 0.4251,-0.27486 0.87073,-0.51042 1.33547,-0.72187 z m 8.84296,0.36093 c -0.0386,0.007 -0.0742,0.0162 -0.10822,0.036 -0.0798,0.0483 -0.0835,0.12128 -0.14438,0.14437 -0.0861,0.0315 -0.20396,0.0306 -0.21656,0.10823 -0.0105,0.0651 0.0743,0.0856 0.0722,0.14437 -0.0315,0.0777 -0.0915,0.0859 -0.10822,0.18048 0.10706,0.17423 0.37303,0.002 0.50531,-0.036 0.0588,-0.0167 0.11284,0.009 0.14437,-0.036 0.0357,-0.0567 0.009,-0.17289 0.036,-0.25267 0.0295,-0.0882 0.11878,-0.0668 0.10822,-0.14437 -0.008,-0.0777 -0.15856,-0.15697 -0.28875,-0.14438 z m -11.44171,1.33547 c 0.0771,0.093 0.14143,0.22794 0,0.28876 -0.021,0.0105 -0.27446,0.0465 -0.32485,0.036 -0.0156,-0.002 -0.0221,-0.0263 -0.036,-0.036 0.11042,-0.10719 0.24589,-0.18649 0.36094,-0.28876 z m 0.28875,0.36093 c 0.0504,0.002 0.0856,0.10406 0.14437,0.10824 0.0567,0.004 0.14681,-0.0465 0.18047,-0.036 0.0882,0.0231 0.12013,0.18757 0.036,0.25265 -0.0693,0.008 -0.094,-0.0827 -0.14438,-0.0722 -0.14278,0.0252 -0.18166,0.29715 -0.28874,0.28875 -0.1008,-0.0105 -0.17513,-0.21527 -0.0721,-0.28875 0.002,-0.0631 -0.0404,-0.0813 -0.036,-0.14437 0.0315,-0.0399 0.0965,-0.11458 0.18047,-0.10823 z m -0.46923,0.0722 c 0.0295,0 0.0255,-0.0126 0.036,0 -0.0147,0.11123 -0.0583,0.12799 -0.14438,0.18047 -0.14909,0.0903 -0.24045,0.20389 -0.28875,0.39703 -0.0147,0.0567 -0.18126,0.23125 -0.25265,0.21657 -0.1659,-0.0357 0.0705,-0.34876 0.10823,-0.39704 0.042,-0.0525 0.0961,-0.0855 0.14437,-0.14438 0.0483,-0.0588 0.0622,-0.18297 0.10822,-0.21656 0.0504,-0.0357 0.20056,-0.0403 0.28875,-0.036 z m 14.22094,0.28874 c 0.16588,-0.0105 0.24925,0.18798 0.32485,0.28876 0.063,0.0819 0.25803,0.19597 0.36094,0.25265 0.0588,0.0315 0.11538,0.079 0.18046,0.10823 0.0682,0.0303 0.17207,0.0703 0.25266,0.14437 0.0806,0.074 0.14122,0.18549 0.14438,0.25266 0.002,0.0672 -0.0466,0.11749 -0.036,0.18047 0.0728,0.0118 0.11042,-0.0623 0.14437,-0.14438 0.27217,0.38823 0.50395,0.80254 0.72187,1.22719 -0.0442,0.0274 -0.0633,0.0542 -0.0721,0.10822 -0.021,0.11756 0.068,0.26776 -0.10823,0.28875 -0.11122,0.0147 -0.24375,-0.11088 -0.39703,-0.14437 -0.063,-0.0147 -0.16618,0.0167 -0.21657,0 -0.1155,-0.0399 -0.0818,-0.18338 -0.18046,-0.25265 -0.0567,-0.04 -0.19846,-0.0979 -0.28875,-0.10823 -0.0567,-0.005 -0.0856,0.008 -0.14439,0 -0.0714,-0.008 -0.19386,-4.1e-4 -0.25265,-0.036 -0.0567,-0.0357 -0.20186,-0.0961 -0.21656,-0.14436 -0.0231,-0.0777 0.17628,-0.18759 0.18047,-0.25267 0.004,-0.0504 -0.0616,-0.0689 -0.0722,-0.14437 -0.008,-0.0462 0.0105,-0.11492 0,-0.14438 -0.0147,-0.0546 -0.0944,-0.10614 -0.18046,-0.10822 -0.0756,0 -0.15146,0.036 -0.21656,0.036 -0.0924,0.002 -0.28155,-0.0465 -0.39703,-0.036 -0.0693,0.006 -0.11538,0.0319 -0.18047,0.036 -0.18269,0.0147 -0.29034,-0.0105 -0.43313,0 -0.1029,0.005 -0.30043,0.0644 -0.39703,0.10823 -0.0483,0.0231 -0.0813,0.077 -0.14438,0.10822 -0.0293,0.0147 -0.0704,0.0194 -0.10822,0.036 -0.0588,0.0273 -0.15986,0.0937 -0.21656,0.10822 -0.0819,0.021 -0.17575,-0.005 -0.32484,0 -0.10707,0.005 -0.28665,-0.0164 -0.28875,-0.14437 -0.002,-0.19523 0.35663,-0.11088 0.54141,-0.14438 0.0693,-0.0147 0.0964,-0.0961 0.18046,-0.14437 0.04,-0.0231 0.0705,-0.047 0.10823,-0.0722 0.0629,-0.0441 0.16997,-0.13008 0.18047,-0.18047 0.008,-0.0462 -0.0425,-0.11088 -0.036,-0.14437 0.008,-0.0441 0.0877,-0.0877 0.14437,-0.14438 0.0882,-0.0882 0.14347,-0.19598 0.25266,-0.25266 0.0735,-0.0399 0.21906,-0.0497 0.25266,-0.10822 0.008,-0.0672 -0.002,-0.0835 0,-0.14438 0.0462,-0.042 0.0344,-0.0638 0.0721,-0.0722 0.11342,-0.0252 0.22866,0.0424 0.36094,0.036 0.0567,-0.002 0.11958,0.004 0.18047,-0.036 0.0504,-0.0336 0.094,-0.0832 0.14437,-0.10822 0.0546,-0.0295 0.11319,-0.10406 0.18047,-0.10823 z m -13.2464,0.10824 c 0.0278,-0.004 0.0747,0.003 0.10822,0 0.0483,-0.002 0.0918,0 0.14438,0 0.0525,0 0.12337,-0.021 0.14437,0 -0.0336,0.13854 -0.36003,0.0866 -0.46922,0.036 0.002,-0.0263 0.0443,-0.0316 0.0722,-0.036 z m -0.39704,0.25265 c 0.0357,0 0.0705,-0.0147 0.10823,0 -0.0966,0.0819 -0.22904,0.12798 -0.39703,0.18047 -0.0798,0.0252 -0.20186,0.0521 -0.21656,-0.036 -0.0169,-0.10916 0.073,-0.0979 0.14437,-0.10823 0.0924,-0.0105 0.25384,-0.0339 0.36094,-0.036 z m 13.67954,0 c -0.0693,0.0231 -0.1029,0.16158 0,0.18047 0.0483,-0.0293 0.0487,-0.0923 0.036,-0.18047 -0.0273,-0.0293 -0.0151,-0.008 -0.036,0 z m -0.036,0.28875 c -0.0336,0.0105 -0.0728,-0.002 -0.10822,0.036 0.002,0.11756 0.0231,0.18588 0,0.28875 0.0672,0.13016 0.21906,0.0521 0.25265,-0.036 0.04,-0.21833 -0.0436,-0.31604 -0.14437,-0.28875 z m 0.90234,0.5775 c -0.0924,-0.004 -0.16196,0.0286 -0.21656,0.0722 0.0777,0.12597 0.22275,0.14897 0.39704,0.18047 0.0629,-0.0462 0.0428,-0.17288 0.0721,-0.25266 -0.0756,0 -0.12418,0.004 -0.21656,0 z m -18.33562,4.43953 c 0.0738,0.094 0.1535,0.20359 0.25266,0.25266 0.0525,0.0273 0.1133,0.0215 0.18046,0.036 0.0546,0.0105 0.092,0.0554 0.14438,0.0721 0.11134,0.0378 0.27276,0.0323 0.36094,0.0722 0.1344,0.0588 0.20933,0.29374 0.32484,0.36093 0.006,0.0672 -0.021,0.13009 0,0.18048 0.0546,0.0735 0.16444,0.0961 0.25265,0.14437 0.10707,0.0588 0.15188,0.20646 0.25267,0.25265 0.0357,0.0147 0.0898,-0.0168 0.14437,0 0.13858,0.042 0.16905,0.25224 0.28874,0.21657 0.0777,-0.0231 0.0958,-0.141 0.10824,-0.21657 0.0525,-0.0567 0.0985,-0.14437 0.18046,-0.14437 0.13018,-0.002 0.16826,0.1607 0.21656,0.28875 0.0273,0.0714 0.0894,0.14099 0.10822,0.21656 0.0315,0.13016 0.0273,0.49983 0,0.5775 -0.0336,0.0966 -0.17286,0.14769 -0.25265,0.25266 -0.0378,0.0504 -0.079,0.11088 -0.10822,0.14438 -0.0504,0.063 -0.10649,0.0878 -0.14437,0.14437 -0.021,0.0315 -0.0172,0.10028 -0.036,0.14438 -0.0631,0.13434 -0.16082,0.23537 -0.10822,0.39702 0.021,0.0651 0.10822,0.13891 0.10822,0.21657 0,0.0924 -0.20186,0.1158 -0.21656,0.21656 -0.0105,0.0735 0.0853,0.22617 0.10822,0.32485 0.0167,0.0735 0.13636,0.13217 0.18046,0.18046 0.0735,0.0819 0.14937,0.18378 0.21657,0.28875 0.13228,0.20363 0.19468,0.45025 0.32485,0.64969 0.0693,0.1029 0.20645,0.17959 0.25265,0.28875 0.0231,0.0546 -0.021,0.16619 0,0.21656 0.0755,0.17005 0.44351,0.34916 0.6136,0.43313 0.0798,0.04 0.14307,0.0661 0.21656,0.10822 0.11134,0.0631 0.34034,0.19009 0.39702,0.28875 0.0504,0.0882 0.0831,0.29248 0.10823,0.43312 0.0315,0.18475 -0.008,0.34197 0,0.54142 0.006,0.10914 0.036,0.17957 0.036,0.28875 0,0.0378 0.002,0.1066 0,0.14437 -0.002,0.13015 0.0105,0.26478 0,0.39703 -0.006,0.0714 -0.004,0.15568 0,0.21656 0.005,0.0651 0.068,0.0877 0.0721,0.14437 0.004,0.0609 -0.0785,0.1322 -0.0721,0.18048 0.0147,0.13226 0.15527,0.23917 0.18048,0.36094 0.021,0.0966 0.0486,0.31765 0.036,0.43312 -0.008,0.0609 -0.0277,0.14938 -0.036,0.21656 -0.005,0.0525 0.008,0.0961 0,0.14438 -2.87794,-1.84863 -4.80048,-5.06012 -4.80048,-8.73469 0,-0.4711 0.0476,-0.91709 0.10823,-1.37156 z m 3.97031,1.04672 c 0.1008,-0.0462 0.0819,0.13177 0,0.14437 -0.0777,0.0105 -0.0755,-0.10857 0,-0.14437 z"
     inkscape:connector-curvature="0" />
</svg>
