<?xml version="1.0" encoding="UTF-8" standalone="no"?>
<svg
   xmlns:dc="http://purl.org/dc/elements/1.1/"
   xmlns:cc="http://creativecommons.org/ns#"
   xmlns:rdf="http://www.w3.org/1999/02/22-rdf-syntax-ns#"
   xmlns:svg="http://www.w3.org/2000/svg"
   xmlns="http://www.w3.org/2000/svg"
   xmlns:xlink="http://www.w3.org/1999/xlink"
   xmlns:sodipodi="http://sodipodi.sourceforge.net/DTD/sodipodi-0.dtd"
   xmlns:inkscape="http://www.inkscape.org/namespaces/inkscape"
   width="64"
   height="64"
   id="svg5453"
   version="1.1"
   viewBox="0 0 64 64"
   sodipodi:docname="folder-activities.svg"
   inkscape:version="0.92.2 2405546, 2018-03-11">
  <sodipodi:namedview
     pagecolor="#ffffff"
     bordercolor="#666666"
     borderopacity="1"
     objecttolerance="10"
     gridtolerance="10"
     guidetolerance="10"
     inkscape:pageopacity="0"
     inkscape:pageshadow="2"
     inkscape:window-width="796"
     inkscape:window-height="691"
     id="namedview14"
     showgrid="false"
     inkscape:zoom="3.6875"
     inkscape:cx="-7.7288136"
     inkscape:cy="32"
     inkscape:window-x="562"
     inkscape:window-y="0"
     inkscape:window-maximized="0"
     inkscape:current-layer="svg5453" />
  <defs
     id="defs5455">
    <linearGradient
       id="linearGradient831">
      <stop
         id="stop827"
         offset="0"
         style="stop-color:#20bcfa;stop-opacity:1;" />
      <stop
         id="stop829"
         offset="1"
         style="stop-color:#46c7fc;stop-opacity:1" />
    </linearGradient>
    <linearGradient
       gradientTransform="translate(0,-3.8146973e-6)"
       gradientUnits="userSpaceOnUse"
       y2="15.119835"
       x2="31.962496"
       y1="57.89262"
       x1="32.010437"
       id="linearGradient833"
       xlink:href="#linearGradient831" />
  </defs>
  <metadata
     id="metadata5458">
    <rdf:RDF>
      <cc:Work
         rdf:about="">
        <dc:format>image/svg+xml</dc:format>
        <dc:type
           rdf:resource="http://purl.org/dc/dcmitype/StillImage" />
        <dc:title />
      </cc:Work>
    </rdf:RDF>
  </metadata>
  <g
     id="g860">
    <path
       style="fill:#209efa;fill-opacity:1;fill-rule:evenodd;stroke:none;stroke-width:1px;stroke-linecap:butt;stroke-linejoin:miter;stroke-opacity:1"
       d="M 4,6 C 3.44878,6.05512 3,6.446 3,7 V 9 49 H 61 V 14 13 11 c 0,-1 -1,-1 -1,-1 H 58 37 33 C 31,6 27,6 27,6 H 5 Z"
       id="folderTab-3" />
    <path
       style="color:#000000;text-decoration:none;text-decoration-line:none;text-decoration-style:solid;text-decoration-color:#000000;white-space:normal;clip-rule:nonzero;display:inline;overflow:visible;visibility:visible;opacity:1;isolation:auto;mix-blend-mode:normal;color-interpolation:sRGB;color-interpolation-filters:linearRGB;solid-color:#000000;solid-opacity:1;fill:#fffbec;fill-opacity:1;fill-rule:nonzero;stroke:none;stroke-width:1;stroke-linecap:butt;stroke-linejoin:miter;stroke-miterlimit:4;stroke-dasharray:none;stroke-dashoffset:0;stroke-opacity:1;color-rendering:auto;image-rendering:auto;shape-rendering:auto;text-rendering:auto;enable-background:accumulate"
       d="M 7,13 H 57 V 45 H 7 Z"
       id="folderPaper-6" />
    <path
       style="fill:url(#linearGradient833);fill-opacity:1;fill-rule:evenodd;stroke:none;stroke-width:1px;stroke-linecap:butt;stroke-linejoin:miter;stroke-opacity:1"
       d="m 39,14.999996 c 0,0 -4,0 -6,4 H 29 4 2 c 0,0 -0.1319813,0.01691 -0.2890625,0.05859 -0.045956,0.01404 -0.091922,0.02277 -0.1347656,0.04297 C 1.3019442,19.211394 1,19.444766 1,19.999996 v 2 1 34 c 0,0.55397 0.44603,1 1,1 h 60 c 0.55397,0 1,-0.44603 1,-1 v -39 -2 c 0,-0.55397 -0.44603,-1 -1,-1 h -1 z"
       id="folderFront-2" />
    <path
       style="opacity:0.25;fill:#000000;fill-opacity:1;stroke:none"
       d="m 1,57 c 0,0.55397 0.44603,1 1,1 h 60 c 0.55397,0 1,-0.44603 1,-1 z"
       id="folderShadow-9" />
  </g>
  <path
     id="path3023"
     d="m 26.225,27.999996 a 1.5750026,1.5749947 0 0 0 -1.575,1.575 1.5750026,1.5749947 0 0 0 1.575,1.575 1.5750026,1.5749947 0 0 0 1.575,-1.575 1.5750026,1.5749947 0 0 0 -1.575,-1.575 z m 8.925,0 -2.98594,2.98594 4.59375,4.59375 -4.75781,5.41406 3.15,2.75625 7.35,-8.4 z m -11.025,7.35 a 2.6249922,2.625 0 0 0 -2.625,2.625 2.6249922,2.625 0 0 0 2.625,2.625 2.6249922,2.625 0 0 0 2.625,-2.625 2.6249922,2.625 0 0 0 -2.625,-2.625 z m 4.725,7.35 a 3.149992,3.15 0 0 0 -3.15,3.15 3.149992,3.15 0 0 0 3.15,3.15 3.149992,3.15 0 0 0 3.15,-3.15 3.149992,3.15 0 0 0 -3.15,-3.15 z"
     style="color:#000000;display:inline;overflow:visible;visibility:visible;fill:#b3e5fc;fill-opacity:1;fill-rule:nonzero;stroke:none;stroke-width:1.47000003;stroke-linecap:butt;stroke-linejoin:miter;stroke-miterlimit:4;stroke-dasharray:none;stroke-opacity:1;marker:none;enable-background:accumulate"
     inkscape:connector-curvature="0" />
</svg>
