<?xml version="1.0" encoding="UTF-8" standalone="no"?>
<svg
   xmlns:dc="http://purl.org/dc/elements/1.1/"
   xmlns:cc="http://creativecommons.org/ns#"
   xmlns:rdf="http://www.w3.org/1999/02/22-rdf-syntax-ns#"
   xmlns:svg="http://www.w3.org/2000/svg"
   xmlns="http://www.w3.org/2000/svg"
   xmlns:xlink="http://www.w3.org/1999/xlink"
   viewBox="0 0 64 64"
   version="1.1"
   id="svg5453"
   height="64"
   width="64">
  <defs
     id="defs5455">
    <linearGradient
       id="linearGradient831">
      <stop
         style="stop-color:#20bcfa;stop-opacity:1;"
         offset="0"
         id="stop827" />
      <stop
         style="stop-color:#46c7fc;stop-opacity:1"
         offset="1"
         id="stop829" />
    </linearGradient>
    <linearGradient
       xlink:href="#linearGradient831"
       id="linearGradient833"
       x1="32.010437"
       y1="57.89262"
       x2="31.962496"
       y2="15.119835"
       gradientUnits="userSpaceOnUse"
       gradientTransform="translate(0,-3.8146973e-6)" />
  </defs>
  <metadata
     id="metadata5458">
    <rdf:RDF>
      <cc:Work
         rdf:about="">
        <dc:format>image/svg+xml</dc:format>
        <dc:type
           rdf:resource="http://purl.org/dc/dcmitype/StillImage" />
        <dc:title></dc:title>
      </cc:Work>
    </rdf:RDF>
  </metadata>
  <g
     id="g860">
    <path
       id="folderTab-3"
       d="M 4,6 C 3.44878,6.05512 3,6.446 3,7 V 9 49 H 61 V 14 13 11 c 0,-1 -1,-1 -1,-1 H 58 37 33 C 31,6 27,6 27,6 H 5 Z"
       style="fill:#209efa;fill-opacity:1;fill-rule:evenodd;stroke:none;stroke-width:1px;stroke-linecap:butt;stroke-linejoin:miter;stroke-opacity:1" />
    <path
       id="folderPaper-6"
       d="M 7,13 H 57 V 45 H 7 Z"
       style="color:#000000;text-decoration:none;text-decoration-line:none;text-decoration-style:solid;text-decoration-color:#000000;white-space:normal;clip-rule:nonzero;display:inline;overflow:visible;visibility:visible;opacity:1;isolation:auto;mix-blend-mode:normal;color-interpolation:sRGB;color-interpolation-filters:linearRGB;solid-color:#000000;solid-opacity:1;fill:#fffbec;fill-opacity:1;fill-rule:nonzero;stroke:none;stroke-width:1;stroke-linecap:butt;stroke-linejoin:miter;stroke-miterlimit:4;stroke-dasharray:none;stroke-dashoffset:0;stroke-opacity:1;color-rendering:auto;image-rendering:auto;shape-rendering:auto;text-rendering:auto;enable-background:accumulate" />
    <path
       id="folderFront-2"
       d="m 39,14.999996 c 0,0 -4,0 -6,4 H 29 4 2 c 0,0 -0.1319813,0.01691 -0.2890625,0.05859 -0.045956,0.01404 -0.091922,0.02277 -0.1347656,0.04297 C 1.3019442,19.211394 1,19.444766 1,19.999996 v 2 1 34 c 0,0.55397 0.44603,1 1,1 h 60 c 0.55397,0 1,-0.44603 1,-1 v -39 -2 c 0,-0.55397 -0.44603,-1 -1,-1 h -1 z"
       style="fill:url(#linearGradient833);fill-opacity:1;fill-rule:evenodd;stroke:none;stroke-width:1px;stroke-linecap:butt;stroke-linejoin:miter;stroke-opacity:1" />
    <path
       id="folderShadow-9"
       d="m 1,57 c 0,0.55397 0.44603,1 1,1 h 60 c 0.55397,0 1,-0.44603 1,-1 z"
       style="opacity:0.25;fill:#000000;fill-opacity:1;stroke:none" />
  </g>
  <path
     id="path4140"
     d="m 41.871205,27.495351 c -1.21746,-0.39396 -2.55555,-0.56279 -3.8388,-0.56279 -2.13877,0 -4.44204,0.45023 -6.03241,1.68837 -1.59036,-1.23814 -3.89363,-1.68837 -6.03239,-1.68837 -2.13877,0 -4.44204,0.45023 -6.0324,1.68837 v 16.48976 c 0,0.28141 0.2742,0.56281 0.5484,0.56281 0.10968,0 0.16452,-0.0563 0.27421,-0.0563 1.48067,-0.73162 3.61942,-1.23814 5.20979,-1.23814 2.13876,0 4.44203,0.45024 6.0324,1.68837 1.48067,-0.95674 4.16784,-1.68837 6.0324,-1.68837 1.80971,0 3.67427,0.33767 5.20979,1.18186 0.10968,0.0563 0.16452,0.0563 0.2742,0.0563 0.2742,0 0.5484,-0.28139 0.5484,-0.5628 v -16.43349 c -0.65808,-0.50651 -1.37099,-0.84417 -2.19359,-1.12558 m 0,15.19536 c -1.2065,-0.39396 -2.52265,-0.56279 -3.8388,-0.56279 -1.86456,0 -4.55173,0.73162 -6.0324,1.68837 v -12.94418 c 1.48067,-0.95676 4.16784,-1.68839 6.0324,-1.68839 1.31615,0 2.6323,0.16884 3.8388,0.56279 z"
     style="fill:#b3e5fc;fill-opacity:1;stroke-width:1.52775931" />
</svg>
