<?xml version="1.0" encoding="UTF-8" standalone="no"?>
<svg
   xmlns:sketch="http://www.bohemiancoding.com/sketch/ns"
   xmlns:dc="http://purl.org/dc/elements/1.1/"
   xmlns:cc="http://creativecommons.org/ns#"
   xmlns:rdf="http://www.w3.org/1999/02/22-rdf-syntax-ns#"
   xmlns:svg="http://www.w3.org/2000/svg"
   xmlns="http://www.w3.org/2000/svg"
   xmlns:xlink="http://www.w3.org/1999/xlink"
   viewBox="0 0 64 64"
   version="1.1"
   id="svg5453"
   height="64"
   width="64">
  <defs
     id="defs5455">
    <linearGradient
       id="linearGradient831">
      <stop
         style="stop-color:#20bcfa;stop-opacity:1;"
         offset="0"
         id="stop827" />
      <stop
         style="stop-color:#46c7fc;stop-opacity:1"
         offset="1"
         id="stop829" />
    </linearGradient>
    <linearGradient
       xlink:href="#linearGradient831"
       id="linearGradient833"
       x1="32.010437"
       y1="57.89262"
       x2="31.962496"
       y2="15.119835"
       gradientUnits="userSpaceOnUse"
       gradientTransform="translate(0,-3.8146973e-6)" />
  </defs>
  <metadata
     id="metadata5458">
    <rdf:RDF>
      <cc:Work
         rdf:about="">
        <dc:format>image/svg+xml</dc:format>
        <dc:type
           rdf:resource="http://purl.org/dc/dcmitype/StillImage" />
        <dc:title></dc:title>
      </cc:Work>
    </rdf:RDF>
  </metadata>
  <path
     style="fill:#209efa;fill-opacity:1;fill-rule:evenodd;stroke:none;stroke-width:1px;stroke-linecap:butt;stroke-linejoin:miter;stroke-opacity:1"
     d="M 4,6 C 3.44878,6.05512 3,6.446 3,7 V 9 49 H 61 V 14 13 11 c 0,-1 -1,-1 -1,-1 H 58 37 33 C 31,6 27,6 27,6 H 5 Z"
     id="folderTab-3" />
  <path
     style="color:#000000;text-decoration:none;text-decoration-line:none;text-decoration-style:solid;text-decoration-color:#000000;white-space:normal;clip-rule:nonzero;display:inline;overflow:visible;visibility:visible;opacity:1;isolation:auto;mix-blend-mode:normal;color-interpolation:sRGB;color-interpolation-filters:linearRGB;solid-color:#000000;solid-opacity:1;fill:#fffbec;fill-opacity:1;fill-rule:nonzero;stroke:none;stroke-width:1;stroke-linecap:butt;stroke-linejoin:miter;stroke-miterlimit:4;stroke-dasharray:none;stroke-dashoffset:0;stroke-opacity:1;color-rendering:auto;image-rendering:auto;shape-rendering:auto;text-rendering:auto;enable-background:accumulate"
     d="M 7,13 H 57 V 45 H 7 Z"
     id="folderPaper-6" />
  <path
     style="fill:url(#linearGradient833);fill-opacity:1;fill-rule:evenodd;stroke:none;stroke-width:1px;stroke-linecap:butt;stroke-linejoin:miter;stroke-opacity:1"
     d="m 39,14.999996 c 0,0 -4,0 -6,4 H 29 4 2 c 0,0 -0.1319813,0.01691 -0.2890625,0.05859 -0.045956,0.01404 -0.091922,0.02277 -0.1347656,0.04297 C 1.3019442,19.211394 1,19.444766 1,19.999996 v 2 1 34 c 0,0.55397 0.44603,1 1,1 h 60 c 0.55397,0 1,-0.44603 1,-1 v -39 -2 c 0,-0.55397 -0.44603,-1 -1,-1 h -1 z"
     id="folderFront-2" />
  <path
     style="opacity:0.25;fill:#000000;fill-opacity:1;stroke:none"
     d="m 1,57 c 0,0.55397 0.44603,1 1,1 h 60 c 0.55397,0 1,-0.44603 1,-1 z"
     id="folderShadow-9" />
  <path
     style="display:inline;opacity:1;fill:#b3e5fc;fill-opacity:1;stroke:none;stroke-width:0.14416103;enable-background:new"
     sketch:type="MSShapeGroup"
     id="path1074-6"
     d="m 41.075809,44.09136 -3.757868,-4.282213 c 1.060076,-1.335376 1.646395,-2.862731 1.758497,-4.581659 0.07287,-1.117325 -0.07438,-2.200031 -0.441605,-3.247965 -0.367073,-1.048067 -0.895817,-1.965245 -1.586071,-2.751812 -0.690253,-0.786566 -1.530845,-1.429946 -2.522216,-1.930024 -0.991649,-0.500241 -2.046069,-0.786719 -3.163394,-0.859587 -1.117325,-0.07287 -2.200022,0.07424 -3.247955,0.441461 -1.048068,0.367073 -1.965246,0.895818 -2.751812,1.586071 -0.786567,0.690254 -1.429966,1.531133 -1.930044,2.522504 -0.500231,0.991505 -0.786699,2.045781 -0.859567,3.163107 -0.07287,1.117325 0.07425,2.199734 0.441461,3.247955 0.367082,1.047924 0.895836,1.964958 1.58609,2.751524 0.690244,0.78671 1.531133,1.429965 2.522494,1.930187 0.991505,0.500232 2.045781,0.7867 3.163107,0.859568 1.719216,0.112121 3.309641,-0.270867 4.771389,-1.148524 l 3.758637,4.270416 c 0.261874,0.315259 0.603487,0.486628 1.025702,0.514164 0.406248,0.02649 0.7678,-0.09902 1.083794,-0.37659 0.316272,-0.27741 0.48767,-0.619454 0.514164,-1.025702 0.02714,-0.413863 -0.09436,-0.775009 -0.364803,-1.082881 z M 34.292726,38.6406 c -1.094573,0.960546 -2.364513,1.393617 -3.810116,1.29934 -1.44546,-0.09427 -2.648386,-0.688755 -3.608941,-1.783185 -0.960545,-1.094573 -1.393626,-2.364369 -1.299349,-3.809972 0.09427,-1.445459 0.688765,-2.648529 1.783185,-3.60894 1.094429,-0.960555 2.364512,-1.393618 3.809972,-1.29935 1.44546,0.09427 2.648385,0.688755 3.609084,1.783194 0.960555,1.09443 1.393762,2.364522 1.299494,3.809982 -0.09428,1.445603 -0.688899,2.648376 -1.783329,3.608931 z" />
</svg>
