<?xml version="1.0" encoding="UTF-8" standalone="no"?>
<svg
   xmlns:dc="http://purl.org/dc/elements/1.1/"
   xmlns:cc="http://creativecommons.org/ns#"
   xmlns:rdf="http://www.w3.org/1999/02/22-rdf-syntax-ns#"
   xmlns:svg="http://www.w3.org/2000/svg"
   xmlns="http://www.w3.org/2000/svg"
   xmlns:xlink="http://www.w3.org/1999/xlink"
   viewBox="0 0 64 64"
   version="1.1"
   id="svg5453"
   height="64"
   width="64">
  <defs
     id="defs5455">
    <linearGradient
       id="linearGradient831">
      <stop
         style="stop-color:#20bcfa;stop-opacity:1;"
         offset="0"
         id="stop827" />
      <stop
         style="stop-color:#46c7fc;stop-opacity:1"
         offset="1"
         id="stop829" />
    </linearGradient>
    <linearGradient
       xlink:href="#linearGradient831"
       id="linearGradient833"
       x1="32.010437"
       y1="57.89262"
       x2="31.962496"
       y2="15.119835"
       gradientUnits="userSpaceOnUse"
       gradientTransform="translate(0,-3.8146973e-6)" />
  </defs>
  <metadata
     id="metadata5458">
    <rdf:RDF>
      <cc:Work
         rdf:about="">
        <dc:format>image/svg+xml</dc:format>
        <dc:type
           rdf:resource="http://purl.org/dc/dcmitype/StillImage" />
        <dc:title></dc:title>
      </cc:Work>
    </rdf:RDF>
  </metadata>
  <path
     style="fill:#209efa;fill-opacity:1;fill-rule:evenodd;stroke:none;stroke-width:1px;stroke-linecap:butt;stroke-linejoin:miter;stroke-opacity:1"
     d="M 4,6 C 3.44878,6.05512 3,6.446 3,7 V 9 49 H 61 V 14 13 11 c 0,-1 -1,-1 -1,-1 H 58 37 33 C 31,6 27,6 27,6 H 5 Z"
     id="folderTab-3" />
  <path
     style="color:#000000;text-decoration:none;text-decoration-line:none;text-decoration-style:solid;text-decoration-color:#000000;white-space:normal;clip-rule:nonzero;display:inline;overflow:visible;visibility:visible;opacity:1;isolation:auto;mix-blend-mode:normal;color-interpolation:sRGB;color-interpolation-filters:linearRGB;solid-color:#000000;solid-opacity:1;fill:#fffbec;fill-opacity:1;fill-rule:nonzero;stroke:none;stroke-width:1;stroke-linecap:butt;stroke-linejoin:miter;stroke-miterlimit:4;stroke-dasharray:none;stroke-dashoffset:0;stroke-opacity:1;color-rendering:auto;image-rendering:auto;shape-rendering:auto;text-rendering:auto;enable-background:accumulate"
     d="M 7,13 H 57 V 45 H 7 Z"
     id="folderPaper-6" />
  <path
     style="fill:url(#linearGradient833);fill-opacity:1;fill-rule:evenodd;stroke:none;stroke-width:1px;stroke-linecap:butt;stroke-linejoin:miter;stroke-opacity:1"
     d="m 39,14.999996 c 0,0 -4,0 -6,4 H 29 4 2 c 0,0 -0.1319813,0.01691 -0.2890625,0.05859 -0.045956,0.01404 -0.091922,0.02277 -0.1347656,0.04297 C 1.3019442,19.211394 1,19.444766 1,19.999996 v 2 1 34 c 0,0.55397 0.44603,1 1,1 h 60 c 0.55397,0 1,-0.44603 1,-1 v -39 -2 c 0,-0.55397 -0.44603,-1 -1,-1 h -1 z"
     id="folderFront-2" />
  <path
     style="opacity:0.25;fill:#000000;fill-opacity:1;stroke:none"
     d="m 1,57 c 0,0.55397 0.44603,1 1,1 h 60 c 0.55397,0 1,-0.44603 1,-1 z"
     id="folderShadow-9" />
  <path
     id="path14135"
     d="m 38.177735,28.066176 c -2.60466,0 -4.71855,2.21594 -4.74218,4.95615 l -2.95508,4.46403 c -0.12038,-0.0127 -0.24358,-0.0186 -0.36719,-0.0186 -0.66039,0 -1.27847,0.18902 -1.80859,0.523 l -7.22657,-2.69119 0.22266,4.67612 5.35352,2.01788 c 0.34634,1.67823 1.76579,2.94033 3.45898,2.94033 1.834,0 3.34816,-1.48235 3.52344,-3.36862 l 4.54101,-3.50245 c 2.61881,0 4.74414,-2.23312 4.74414,-4.99321 0,-2.76165 -2.1251,-5.00352 -4.74414,-5.00352 z m 0,1.64725 c 1.75468,0 3.18164,1.5064 3.18164,3.35626 0,1.84994 -1.42696,3.34597 -3.18164,3.34597 -1.75468,0 -3.17968,-1.49603 -3.17968,-3.34597 0,-1.84986 1.425,-3.35626 3.17968,-3.35626 z m 0.0137,0.65889 c -1.4023,0 -2.53906,1.20247 -2.53906,2.68089 0,1.47837 1.13676,2.67884 2.53906,2.67884 1.40236,0 2.54102,-1.20047 2.54102,-2.67884 0,-1.47842 -1.13866,-2.68089 -2.54102,-2.68089 z m -8.07812,8.08386 c 1.44352,0 2.60351,1.22286 2.60351,2.74473 -1e-5,1.52178 -1.15999,2.74472 -2.60351,2.74472 -1.0041,0 -1.86979,-0.58941 -2.30469,-1.46193 0.42823,0.18218 0.85549,0.36221 1.2832,0.54565 1.06137,0.44966 2.27063,-0.0916 2.69727,-1.21072 0.42662,-1.11892 -0.0908,-2.38987 -1.15234,-2.83945 l -1.08594,-0.45711 c 0.18072,-0.0411 0.36957,-0.0659 0.5625,-0.0659 z"
     style="color:#000000;display:inline;overflow:visible;visibility:visible;fill:#b3e5fc;fill-opacity:1;fill-rule:nonzero;stroke:none;stroke-width:2.28616834;stroke-miterlimit:4;stroke-dasharray:none;stroke-opacity:0.90366971;marker:none;enable-background:accumulate" />
</svg>
