<?xml version="1.0" encoding="UTF-8" standalone="no"?>
<svg
   xmlns:dc="http://purl.org/dc/elements/1.1/"
   xmlns:cc="http://creativecommons.org/ns#"
   xmlns:rdf="http://www.w3.org/1999/02/22-rdf-syntax-ns#"
   xmlns:svg="http://www.w3.org/2000/svg"
   xmlns="http://www.w3.org/2000/svg"
   xmlns:xlink="http://www.w3.org/1999/xlink"
   viewBox="0 0 64 64"
   version="1.1"
   id="svg5453"
   height="64"
   width="64">
  <defs
     id="defs5455">
    <linearGradient
       id="linearGradient831">
      <stop
         style="stop-color:#20bcfa;stop-opacity:1;"
         offset="0"
         id="stop827" />
      <stop
         style="stop-color:#46c7fc;stop-opacity:1"
         offset="1"
         id="stop829" />
    </linearGradient>
    <linearGradient
       xlink:href="#linearGradient831"
       id="linearGradient833"
       x1="32.010437"
       y1="57.89262"
       x2="31.962496"
       y2="15.119835"
       gradientUnits="userSpaceOnUse"
       gradientTransform="translate(0,-3.8146973e-6)" />
  </defs>
  <metadata
     id="metadata5458">
    <rdf:RDF>
      <cc:Work
         rdf:about="">
        <dc:format>image/svg+xml</dc:format>
        <dc:type
           rdf:resource="http://purl.org/dc/dcmitype/StillImage" />
        <dc:title></dc:title>
      </cc:Work>
    </rdf:RDF>
  </metadata>
  <path
     style="fill:#209efa;fill-opacity:1;fill-rule:evenodd;stroke:none;stroke-width:1px;stroke-linecap:butt;stroke-linejoin:miter;stroke-opacity:1"
     d="M 4,6 C 3.44878,6.05512 3,6.446 3,7 V 9 49 H 61 V 14 13 11 c 0,-1 -1,-1 -1,-1 H 58 37 33 C 31,6 27,6 27,6 H 5 Z"
     id="folderTab-3" />
  <path
     style="color:#000000;text-decoration:none;text-decoration-line:none;text-decoration-style:solid;text-decoration-color:#000000;white-space:normal;clip-rule:nonzero;display:inline;overflow:visible;visibility:visible;opacity:1;isolation:auto;mix-blend-mode:normal;color-interpolation:sRGB;color-interpolation-filters:linearRGB;solid-color:#000000;solid-opacity:1;fill:#fffbec;fill-opacity:1;fill-rule:nonzero;stroke:none;stroke-width:1;stroke-linecap:butt;stroke-linejoin:miter;stroke-miterlimit:4;stroke-dasharray:none;stroke-dashoffset:0;stroke-opacity:1;color-rendering:auto;image-rendering:auto;shape-rendering:auto;text-rendering:auto;enable-background:accumulate"
     d="M 7,13 H 57 V 45 H 7 Z"
     id="folderPaper-6" />
  <path
     style="fill:url(#linearGradient833);fill-opacity:1;fill-rule:evenodd;stroke:none;stroke-width:1px;stroke-linecap:butt;stroke-linejoin:miter;stroke-opacity:1"
     d="m 39,14.999996 c 0,0 -4,0 -6,4 H 29 4 2 c 0,0 -0.1319813,0.01691 -0.2890625,0.05859 -0.045956,0.01404 -0.091922,0.02277 -0.1347656,0.04297 C 1.3019442,19.211394 1,19.444766 1,19.999996 v 2 1 34 c 0,0.55397 0.44603,1 1,1 h 60 c 0.55397,0 1,-0.44603 1,-1 v -39 -2 c 0,-0.55397 -0.44603,-1 -1,-1 h -1 z"
     id="folderFront-2" />
  <path
     style="opacity:0.25;fill:#000000;fill-opacity:1;stroke:none"
     d="m 1,57 c 0,0.55397 0.44603,1 1,1 h 60 c 0.55397,0 1,-0.44603 1,-1 z"
     id="folderShadow-9" />
  <path
     d="m 32.05145,26.694575 q 4.21858,0 7.099582,2.870499 2.880988,2.870499 2.880988,6.934915 0,2.286244 -1.00321,3.784999 -0.977467,1.498755 -2.85526,1.498755 -1.929234,0 -2.880987,-1.854394 -1.260437,1.854394 -3.601241,1.854394 -2.109304,0 -3.549798,-1.447952 -1.440493,-1.473349 -1.440493,-3.734184 0,-2.235429 1.440493,-3.70879 1.440494,-1.473347 3.446899,-1.473347 1.980691,0 3.29257,1.498755 h 0.102886 v -1.143116 h 1.852063 v 6.63009 q 0,0.660464 0.360127,1.193917 0.385841,0.533453 1.157538,0.533453 1.826348,0 1.826348,-3.63258 0,-3.353136 -2.366532,-5.664775 -2.366532,-2.311638 -5.761974,-2.311638 -3.395456,0 -5.761988,2.311638 -2.366518,2.311639 -2.366518,5.664775 0,3.35315 2.366518,5.664788 2.366532,2.311639 5.761988,2.311639 1.826335,0 3.266828,-0.711267 l 0.720254,1.72737 q -1.80062,0.812897 -3.987082,0.812897 -4.270038,0 -7.176753,-2.845104 -2.906716,-2.8705 -2.906716,-6.960322 0,-4.064416 2.906716,-6.934915 2.93243,-2.870499 7.176754,-2.8705 z m -2.392261,12.269471 q 0.926038,0.889093 2.21219,0.889093 1.286165,0 2.186475,-0.889093 0.926025,-0.889093 0.926025,-2.36244 0,-1.473347 -0.926025,-2.36244 -0.90031,-0.889093 -2.186475,-0.889093 -1.286152,0 -2.21219,0.889093 -0.90031,0.889093 -0.90031,2.36244 0,1.473347 0.90031,2.36244 z"
     style="font-style:normal;font-variant:normal;font-weight:normal;font-stretch:normal;font-size:18.52626991px;line-height:125%;font-family:'Product Sans';-inkscape-font-specification:'Product Sans';letter-spacing:0px;word-spacing:0px;fill:#b3e5fc;fill-opacity:1;stroke:none;stroke-width:0.12897822px;stroke-linecap:butt;stroke-linejoin:miter;stroke-opacity:1"
     id="path4252" />
</svg>
