<?xml version="1.0" encoding="UTF-8" standalone="no"?>
<svg
   xmlns:dc="http://purl.org/dc/elements/1.1/"
   xmlns:cc="http://creativecommons.org/ns#"
   xmlns:rdf="http://www.w3.org/1999/02/22-rdf-syntax-ns#"
   xmlns:svg="http://www.w3.org/2000/svg"
   xmlns="http://www.w3.org/2000/svg"
   xmlns:xlink="http://www.w3.org/1999/xlink"
   viewBox="0 0 64 64"
   version="1.1"
   id="svg5453"
   height="64"
   width="64">
  <defs
     id="defs5455">
    <linearGradient
       id="linearGradient831">
      <stop
         style="stop-color:#20bcfa;stop-opacity:1;"
         offset="0"
         id="stop827" />
      <stop
         style="stop-color:#46c7fc;stop-opacity:1"
         offset="1"
         id="stop829" />
    </linearGradient>
    <linearGradient
       xlink:href="#linearGradient831"
       id="linearGradient833"
       x1="32.010437"
       y1="57.89262"
       x2="31.962496"
       y2="15.119835"
       gradientUnits="userSpaceOnUse"
       gradientTransform="translate(0,-3.8146973e-6)" />
  </defs>
  <metadata
     id="metadata5458">
    <rdf:RDF>
      <cc:Work
         rdf:about="">
        <dc:format>image/svg+xml</dc:format>
        <dc:type
           rdf:resource="http://purl.org/dc/dcmitype/StillImage" />
        <dc:title></dc:title>
      </cc:Work>
    </rdf:RDF>
  </metadata>
  <path
     style="fill:#209efa;fill-opacity:1;fill-rule:evenodd;stroke:none;stroke-width:1px;stroke-linecap:butt;stroke-linejoin:miter;stroke-opacity:1"
     d="M 4,6 C 3.44878,6.05512 3,6.446 3,7 V 9 49 H 61 V 14 13 11 c 0,-1 -1,-1 -1,-1 H 58 37 33 C 31,6 27,6 27,6 H 5 Z"
     id="folderTab-3" />
  <path
     style="color:#000000;text-decoration:none;text-decoration-line:none;text-decoration-style:solid;text-decoration-color:#000000;white-space:normal;clip-rule:nonzero;display:inline;overflow:visible;visibility:visible;opacity:1;isolation:auto;mix-blend-mode:normal;color-interpolation:sRGB;color-interpolation-filters:linearRGB;solid-color:#000000;solid-opacity:1;fill:#fffbec;fill-opacity:1;fill-rule:nonzero;stroke:none;stroke-width:1;stroke-linecap:butt;stroke-linejoin:miter;stroke-miterlimit:4;stroke-dasharray:none;stroke-dashoffset:0;stroke-opacity:1;color-rendering:auto;image-rendering:auto;shape-rendering:auto;text-rendering:auto;enable-background:accumulate"
     d="M 7,13 H 57 V 45 H 7 Z"
     id="folderPaper-6" />
  <path
     style="fill:url(#linearGradient833);fill-opacity:1;fill-rule:evenodd;stroke:none;stroke-width:1px;stroke-linecap:butt;stroke-linejoin:miter;stroke-opacity:1"
     d="m 39,14.999996 c 0,0 -4,0 -6,4 H 29 4 2 c 0,0 -0.1319813,0.01691 -0.2890625,0.05859 -0.045956,0.01404 -0.091922,0.02277 -0.1347656,0.04297 C 1.3019442,19.211394 1,19.444766 1,19.999996 v 2 1 34 c 0,0.55397 0.44603,1 1,1 h 60 c 0.55397,0 1,-0.44603 1,-1 v -39 -2 c 0,-0.55397 -0.44603,-1 -1,-1 h -1 z"
     id="folderFront-2" />
  <path
     style="opacity:0.25;fill:#000000;fill-opacity:1;stroke:none"
     d="m 1,57 c 0,0.55397 0.44603,1 1,1 h 60 c 0.55397,0 1,-0.44603 1,-1 z"
     id="folderShadow-9" />
  <path
     id="path4225"
     d="m 32,27.500046 a 7,7 0 0 0 -7,7 7,7 0 0 0 0.0801,1.00195 5,5 0 0 0 -0.0801,-0.002 5,5 0 0 0 -5,5 5,5 0 0 0 5,5 h 13 a 6,6 0 0 0 6,-6 6,6 0 0 0 -5.06836,-5.92187 A 7,7 0 0 0 32,27.499996 Z m 0,1 a 6,6 0 0 1 0.59961,0.0293 6,6 0 0 1 2.78711,1.01953 6,6 0 0 1 0.002,0 6,6 0 0 1 1.31055,1.2207 6,6 0 0 1 0,0.002 6,6 0 0 1 1.21484,2.73243 6,6 0 0 1 0.0859,0.99604 5,5 0 0 1 0.99609,0.0996 5,5 0 0 1 0.48243,0.12305 5,5 0 0 1 0.002,0 5,5 0 0 1 0.46679,0.17187 5,5 0 0 1 0.002,0 5,5 0 0 1 0.44727,0.2168 5,5 0 0 1 0.004,0.002 5,5 0 0 1 0.42187,0.25977 5,5 0 0 1 0.004,0.002 5,5 0 0 1 0.39453,0.30078 5,5 0 0 1 0.002,0.002 5,5 0 0 1 0.36329,0.33789 5,5 0 0 1 0.002,0.002 5,5 0 0 1 0.61914,0.78125 5,5 0 0 1 0.002,0.002 5,5 0 0 1 0.24609,0.43164 5,5 0 0 1 0.002,0.002 5,5 0 0 1 0.20313,0.45312 5,5 0 0 1 0.002,0.002 5,5 0 0 1 0.15625,0.47266 5,5 0 0 1 0,0.002 5,5 0 0 1 0.10937,0.48633 5,5 0 0 1 0,0.002 5,5 0 0 1 0.0605,0.49414 5,5 0 0 1 0.0114,0.35309 5,5 0 0 1 -5,5 h -13 a 4,4 0 0 1 -4,-4 4,4 0 0 1 0.0195,-0.39844 4,4 0 0 1 3.98047,-3.60156 4,4 0 0 1 0.29883,0.0137 4,4 0 0 1 0,0.002 4,4 0 0 1 1.15625,0.26172 6,6 0 0 1 -0.3418,-1.14649 6,6 0 0 1 -0.0742,-0.50781 6,6 0 0 1 -0.0137,-0.11523 6,6 0 0 1 -0.0254,-0.50786 6,6 0 0 1 0.0293,-0.59961 6,6 0 0 1 5.9707,-5.40039 z"
     style="fill:#ffffff;fill-opacity:1;stroke:#b3e5fc;stroke-width:1.20000005;stroke-linecap:butt;stroke-linejoin:round;stroke-miterlimit:4;stroke-dasharray:none;stroke-opacity:1" />
</svg>
