<?xml version="1.0" encoding="UTF-8" standalone="no"?>
<svg
   xmlns:dc="http://purl.org/dc/elements/1.1/"
   xmlns:cc="http://creativecommons.org/ns#"
   xmlns:rdf="http://www.w3.org/1999/02/22-rdf-syntax-ns#"
   xmlns:svg="http://www.w3.org/2000/svg"
   xmlns="http://www.w3.org/2000/svg"
   xmlns:xlink="http://www.w3.org/1999/xlink"
   xmlns:sodipodi="http://sodipodi.sourceforge.net/DTD/sodipodi-0.dtd"
   xmlns:inkscape="http://www.inkscape.org/namespaces/inkscape"
   viewBox="0 0 64 64"
   version="1.1"
   id="svg5453"
   height="64"
   width="64"
   sodipodi:docname="folder-root.svg"
   inkscape:version="0.92.2 2405546, 2018-03-11">
  <sodipodi:namedview
     pagecolor="#ffffff"
     bordercolor="#666666"
     borderopacity="1"
     objecttolerance="10"
     gridtolerance="10"
     guidetolerance="10"
     inkscape:pageopacity="0"
     inkscape:pageshadow="2"
     inkscape:window-width="640"
     inkscape:window-height="509"
     id="namedview14"
     showgrid="false"
     inkscape:zoom="3.8548387"
     inkscape:cx="32"
     inkscape:cy="32"
     inkscape:window-x="0"
     inkscape:window-y="0"
     inkscape:window-maximized="0"
     inkscape:current-layer="svg5453" />
  <defs
     id="defs5455">
    <linearGradient
       id="linearGradient831">
      <stop
         style="stop-color:#20bcfa;stop-opacity:1;"
         offset="0"
         id="stop827" />
      <stop
         style="stop-color:#46c7fc;stop-opacity:1"
         offset="1"
         id="stop829" />
    </linearGradient>
    <linearGradient
       xlink:href="#linearGradient831"
       id="linearGradient833"
       x1="32.010437"
       y1="57.89262"
       x2="31.962496"
       y2="15.119835"
       gradientUnits="userSpaceOnUse"
       gradientTransform="translate(0,-3.8146973e-6)" />
  </defs>
  <metadata
     id="metadata5458">
    <rdf:RDF>
      <cc:Work
         rdf:about="">
        <dc:format>image/svg+xml</dc:format>
        <dc:type
           rdf:resource="http://purl.org/dc/dcmitype/StillImage" />
        <dc:title />
      </cc:Work>
    </rdf:RDF>
  </metadata>
  <path
     style="fill:#209efa;fill-opacity:1;fill-rule:evenodd;stroke:none;stroke-width:1px;stroke-linecap:butt;stroke-linejoin:miter;stroke-opacity:1"
     d="M 4,6 C 3.44878,6.05512 3,6.446 3,7 V 9 49 H 61 V 14 13 11 c 0,-1 -1,-1 -1,-1 H 58 37 33 C 31,6 27,6 27,6 H 5 Z"
     id="folderTab-3" />
  <path
     style="color:#000000;text-decoration:none;text-decoration-line:none;text-decoration-style:solid;text-decoration-color:#000000;white-space:normal;clip-rule:nonzero;display:inline;overflow:visible;visibility:visible;opacity:1;isolation:auto;mix-blend-mode:normal;color-interpolation:sRGB;color-interpolation-filters:linearRGB;solid-color:#000000;solid-opacity:1;fill:#fffbec;fill-opacity:1;fill-rule:nonzero;stroke:none;stroke-width:1;stroke-linecap:butt;stroke-linejoin:miter;stroke-miterlimit:4;stroke-dasharray:none;stroke-dashoffset:0;stroke-opacity:1;color-rendering:auto;image-rendering:auto;shape-rendering:auto;text-rendering:auto;enable-background:accumulate"
     d="M 7,13 H 57 V 45 H 7 Z"
     id="folderPaper-6" />
  <path
     style="fill:url(#linearGradient833);fill-opacity:1;fill-rule:evenodd;stroke:none;stroke-width:1px;stroke-linecap:butt;stroke-linejoin:miter;stroke-opacity:1"
     d="m 39,14.999996 c 0,0 -4,0 -6,4 H 29 4 2 c 0,0 -0.1319813,0.01691 -0.2890625,0.05859 -0.045956,0.01404 -0.091922,0.02277 -0.1347656,0.04297 C 1.3019442,19.211394 1,19.444766 1,19.999996 v 2 1 34 c 0,0.55397 0.44603,1 1,1 h 60 c 0.55397,0 1,-0.44603 1,-1 v -39 -2 c 0,-0.55397 -0.44603,-1 -1,-1 h -1 z"
     id="folderFront-2" />
  <path
     style="opacity:0.25;fill:#000000;fill-opacity:1;stroke:none"
     d="m 1,57 c 0,0.55397 0.44603,1 1,1 h 60 c 0.55397,0 1,-0.44603 1,-1 z"
     id="folderShadow-9" />
  <path
     style="fill:#b3e5fc;fill-opacity:1;fill-rule:evenodd;stroke:none;stroke-width:1.49200904"
     id="Page-1"
     d="m 39.318087,43.245696 c 0,-0.18079 -0.2762,-0.39171 -0.82862,-0.63276 0.0402,-0.15066 0.0778,-0.28876 0.11299,-0.41431 0.0351,-0.12555 0.0603,-0.25612 0.0753,-0.39171 0.0151,-0.1356 0.0301,-0.24357 0.0452,-0.32392 0.0151,-0.0804 0.0176,-0.19334 0.007,-0.33898 -0.01,-0.14564 -0.0151,-0.24356 -0.0151,-0.29378 0,-0.0502 -0.0176,-0.16071 -0.0527,-0.33145 -0.0351,-0.17075 -0.0552,-0.2737 -0.0603,-0.30885 -0.005,-0.0352 -0.0301,-0.1607 -0.0753,-0.37665 -0.0452,-0.21594 -0.0728,-0.34902 -0.0829,-0.39924 -0.10045,-0.48211 -0.33647,-0.99936 -0.7081,-1.55178 -0.37162,-0.55242 -0.7332,-0.92906 -1.08474,-1.12994 0.24106,0.20088 0.52731,0.6177 0.85876,1.25047 0.87382,1.62711 1.145,3.0232 0.81355,4.1883 -0.11048,0.40175 -0.36158,0.61267 -0.75329,0.63276 -0.31136,0.0402 -0.50471,-0.0527 -0.58003,-0.27872 -0.0753,-0.22599 -0.11552,-0.64531 -0.12053,-1.25799 -0.005,-0.61269 -0.0628,-1.15003 -0.17326,-1.61205 -0.0904,-0.39171 -0.18832,-0.73822 -0.29378,-1.03954 -0.10546,-0.30132 -0.20339,-0.52981 -0.29379,-0.68549 -0.0904,-0.15568 -0.16823,-0.27872 -0.23351,-0.36912 -0.0653,-0.0904 -0.13057,-0.16572 -0.19586,-0.22599 -0.0653,-0.0603 -0.10295,-0.0954 -0.11299,-0.10545 -0.14062,-0.62272 -0.2963,-1.13998 -0.46704,-1.55178 -0.17075,-0.4118 -0.3189,-0.69303 -0.44444,-0.84369 -0.12556,-0.15065 -0.24357,-0.31638 -0.35405,-0.49717 -0.11048,-0.18079 -0.18581,-0.38166 -0.22599,-0.60263 -0.0402,-0.21092 -0.01,-0.47959 0.0904,-0.80602 0.10044,-0.32643 0.12305,-0.57502 0.0678,-0.74576 -0.0553,-0.17075 -0.27875,-0.2963 -0.67047,-0.37665 -0.15066,-0.0301 -0.37413,-0.12052 -0.67043,-0.27118 -0.29629,-0.15066 -0.47457,-0.23101 -0.53483,-0.24105 -0.0803,-0.01 -0.1356,-0.14061 -0.16573,-0.39172 -0.0301,-0.2511 0.01,-0.50721 0.12053,-0.76835 0.11048,-0.26114 0.29127,-0.39674 0.54236,-0.40678 0.37163,-0.0301 0.62775,0.12052 0.76836,0.45197 0.14063,0.33145 0.1607,0.62272 0.0603,0.87382 -0.11048,0.19084 -0.12052,0.32392 -0.0301,0.39925 0.0904,0.0753 0.24106,0.0778 0.45198,0.007 0.13056,-0.0402 0.19585,-0.22097 0.19585,-0.54237 v -0.55748 c -0.0502,-0.30132 -0.11802,-0.55241 -0.20339,-0.75329 -0.0854,-0.20088 -0.19083,-0.35405 -0.31638,-0.45951 -0.12555,-0.10545 -0.24356,-0.18079 -0.35405,-0.22598 -0.11048,-0.0452 -0.24607,-0.0829 -0.40677,-0.11299 -1.0747,0.0803 -1.52165,0.75328 -1.34086,2.01882 0,0.15065 -0.005,0.22598 -0.0151,0.22598 -0.0904,-0.0904 -0.23854,-0.14313 -0.44445,-0.15819 -0.20589,-0.0151 -0.37162,-0.0125 -0.49717,0.007 -0.12555,0.0201 -0.203391,-0.005 -0.233521,-0.0753 0.01,-0.5725 -0.0703,-1.02447 -0.24105,-1.35592 -0.17075,-0.33149 -0.39673,-0.50224 -0.67796,-0.51228 -0.27119,-0.01 -0.4796,0.12806 -0.62524,0.41431 -0.14563,0.28625 -0.22849,0.58505 -0.24858,0.89641 -0.01,0.15066 0.007,0.33647 0.0527,0.55744 0.0452,0.22097 0.11048,0.40929 0.19585,0.56497 0.0854,0.15568 0.16322,0.22347 0.23353,0.20339 0.10044,-0.0301 0.18079,-0.10044 0.24105,-0.21092 0.0402,-0.0904 0.005,-0.13057 -0.10546,-0.12053 -0.0703,0 -0.14814,-0.0728 -0.23352,-0.21845 -0.0854,-0.14564 -0.13308,-0.31387 -0.14313,-0.50471 -0.01,-0.22096 0.0352,-0.40677 0.1356,-0.55743 0.10044,-0.15066 0.27118,-0.22097 0.51223,-0.21092 0.17075,0 0.30634,0.10545 0.40678,0.31638 0.10044,0.21092 0.14814,0.40677 0.14313,0.58757 -0.005,0.18079 -0.0125,0.29127 -0.0226,0.33144 -0.22096,0.15066 -0.37665,0.2963 -0.46704,0.43691 -0.0803,0.12053 -0.21845,0.23854 -0.41431,0.35405 -0.19585,0.11551 -0.2988,0.17828 -0.30885,0.18832 -0.13056,0.14062 -0.20841,0.27621 -0.23352,0.40678 -0.0251,0.13057 0.0125,0.22097 0.11299,0.27119 0.14061,0.0804 0.26616,0.17827 0.37665,0.29378 0.11048,0.11551 0.19083,0.21092 0.24105,0.28625 0.0502,0.0753 0.14313,0.14061 0.27872,0.19586 0.13559,0.0552 0.31387,0.0879 0.53483,0.0979 0.472071,0.0201 0.984301,-0.0552 1.536721,-0.22599 0.0201,-0.01 0.13559,-0.0452 0.34651,-0.10545 0.21092,-0.0603 0.38418,-0.11299 0.51977,-0.1582 0.13559,-0.0452 0.28374,-0.11048 0.44444,-0.19585 0.16071,-0.0854 0.26617,-0.17326 0.31639,-0.26366 0.0904,-0.1406 0.19083,-0.18078 0.30131,-0.12052 0.0502,0.0301 0.0829,0.0728 0.0979,0.12806 0.0151,0.0552 0,0.11551 -0.0452,0.18079 -0.0452,0.0653 -0.12806,0.11299 -0.24858,0.14313 -0.20088,0.0603 -0.48462,0.16823 -0.85122,0.32391 -0.36661,0.15568 -0.5951,0.25361 -0.6855,0.29378 -0.44193,0.19084 -0.79346,0.30634 -1.05461,0.34652 -0.2511,0.0502 -0.647821,0.0402 -1.190201,-0.0301 -0.10044,-0.0201 -0.14563,-0.01 -0.13559,0.0301 0.01,0.0402 0.0954,0.13559 0.25612,0.28625 0.2511,0.23101 0.58757,0.34149 1.009411,0.33145 0.17075,-0.01 0.35154,-0.0452 0.54237,-0.10546 0.19084,-0.0603 0.37162,-0.13056 0.54237,-0.21092 0.17075,-0.0804 0.33898,-0.16823 0.50471,-0.26365 0.16572,-0.0954 0.31638,-0.18079 0.45197,-0.25612 0.13559,-0.0753 0.25863,-0.13559 0.36911,-0.18079 0.11049,-0.0452 0.19837,-0.0578 0.26365,-0.0377 0.0653,0.0201 0.10798,0.0753 0.12806,0.16572 0,0.0201 -0.005,0.0427 -0.0151,0.0678 -0.01,0.0251 -0.0301,0.0502 -0.0603,0.0753 -0.0301,0.0251 -0.0603,0.0477 -0.0904,0.0678 -0.0301,0.0201 -0.0728,0.0452 -0.12806,0.0753 -0.0552,0.0301 -0.10044,0.0527 -0.13559,0.0678 -0.0351,0.0151 -0.0854,0.0402 -0.15066,0.0753 -0.0653,0.0351 -0.113,0.0578 -0.14312,0.0678 -0.28123,0.14062 -0.62021,0.36158 -1.01695,0.6629 -0.39673,0.30132 -0.73069,0.51725 -1.00187,0.64783 -0.27119,0.13056 -0.517261,0.13559 -0.738231,0.0151 -0.21092,-0.11049 -0.5273,-0.47708 -0.94915,-1.0998 -0.22096,-0.31137 -0.34651,-0.42185 -0.37664,-0.33145 -0.01,0.0301 -0.0151,0.0804 -0.0151,0.15065 0,0.2511 -0.0753,0.53484 -0.22599,0.85122 -0.15066,0.31639 -0.29881,0.5951 -0.44444,0.83616 -0.14564,0.24105 -0.2511,0.53232 -0.31639,0.87382 -0.0653,0.34149 -0.007,0.65787 0.17326,0.94914 -0.23101,0.0603 -0.54488,0.51224 -0.94161,1.35592 -0.39674,0.8437 -0.63528,1.55178 -0.71563,2.12429 -0.0201,0.18079 -0.0276,0.5273 -0.0226,1.03954 0.005,0.51224 -0.0226,0.80853 -0.0829,0.88888 -0.0803,0.24106 -0.22599,0.25612 -0.43691,0.0452 -0.3214,-0.31136 -0.50219,-0.78342 -0.54237,-1.41618 -0.0201,-0.28123 0,-0.56246 0.0603,-0.84369 0.0402,-0.19084 0.0351,-0.28123 -0.0151,-0.27119 l -0.0603,0.0753 c -0.36158,0.65286 -0.31136,1.48649 0.15066,2.50093 0.0502,0.12052 0.17577,0.26114 0.37665,0.42184 0.20088,0.1607 0.3214,0.26114 0.36158,0.30132 0.20088,0.23101 0.72315,0.68549 1.56684,1.36346 0.84369,0.67796 1.31073,1.06214 1.40113,1.15253 0.1607,0.15066 0.24858,0.34149 0.26365,0.5725 0.0151,0.23101 -0.0552,0.44695 -0.21092,0.64783 -0.15569,0.20088 -0.38418,0.31639 -0.6855,0.34652 0.0803,0.15066 0.22599,0.37413 0.43691,0.67043 0.21092,0.29629 0.35153,0.56748 0.42184,0.81355 0.0703,0.24608 0.10546,0.60012 0.10546,1.06214 0.46202,-0.24105 0.49717,-0.70307 0.10545,-1.38605 -0.0402,-0.0803 -0.0929,-0.1607 -0.15819,-0.24106 -0.0653,-0.0803 -0.11299,-0.1406 -0.14312,-0.18079 -0.0301,-0.0402 -0.0402,-0.0703 -0.0301,-0.0904 0.0301,-0.0502 0.0954,-0.0979 0.19585,-0.14312 0.10044,-0.0452 0.20088,-0.0327 0.30132,0.0377 0.46202,0.52228 1.295651,0.70307 2.500921,0.54237 1.33585,-0.15066 2.22472,-0.58757 2.66665,-1.31073 0.23102,-0.38167 0.40176,-0.53233 0.51225,-0.45198 0.12052,0.0603 0.17074,0.32141 0.15065,0.78343 -0.01,0.2511 -0.12555,0.71311 -0.34651,1.38606 -0.0904,0.23101 -0.12053,0.41933 -0.0904,0.56496 0.0301,0.14564 0.15066,0.22348 0.36158,0.23352 0.0301,-0.19083 0.10295,-0.57752 0.21845,-1.16006 0.11551,-0.58255 0.1833,-1.03453 0.20339,-1.35593 0.0201,-0.21092 -0.0125,-0.58003 -0.0979,-1.10734 -0.0854,-0.5273 -0.12303,-1.01443 -0.11299,-1.46138 0.01,-0.44696 0.12555,-0.801 0.34651,-1.06214 0.15066,-0.1808 0.40678,-0.27119 0.76836,-0.27119 0.01,-0.37163 0.1833,-0.63778 0.51977,-0.79849 0.33647,-0.1607 0.70056,-0.21343 1.09227,-0.15819 0.39172,0.0552 0.69303,0.16824 0.90395,0.33898 z m -9.461341,-12.45943 c 0.0301,-0.17075 0.0176,-0.32141 -0.0377,-0.45198 -0.0552,-0.13057 -0.11299,-0.2059 -0.17326,-0.22599 -0.0904,-0.0201 -0.13559,0.0151 -0.13559,0.10546 0.0201,0.0502 0.0452,0.0804 0.0753,0.0904 0.10044,0 0.13559,0.0753 0.10546,0.22599 -0.0301,0.20087 0.01,0.30131 0.12052,0.30131 0.0301,0 0.0452,-0.0151 0.0452,-0.0452 z m 3.630861,-0.24106 c 0,-0.11048 -0.0251,-0.20841 -0.0753,-0.29378 -0.0502,-0.0854 -0.10545,-0.14814 -0.16572,-0.18833 -0.0603,-0.0402 -0.10546,-0.0552 -0.1356,-0.0452 -0.1406,0.01 -0.17576,0.0452 -0.10545,0.10546 0.0201,0.01 0.0402,0.0201 0.0603,0.0301 0.14062,0.0402 0.23101,0.19585 0.27119,0.46704 0,0.0301 0.0402,0.0201 0.12052,-0.0301 z m 9.79279,17.06205 c 0.11048,0.12555 0.17075,0.24607 0.18079,0.36158 0.01,0.1155 -0.002,0.2285 -0.0377,0.33898 -0.0352,0.11048 -0.11299,0.22097 -0.23352,0.33145 -0.12052,0.11048 -0.23854,0.20841 -0.35404,0.29378 -0.11552,0.0854 -0.26617,0.17828 -0.45198,0.27872 -0.18581,0.10044 -0.344,0.1833 -0.47457,0.24859 -0.13057,0.0653 -0.29127,0.14312 -0.48211,0.23352 -0.19083,0.0904 -0.32643,0.15568 -0.40678,0.19585 -0.38167,0.19084 -0.81104,0.47206 -1.28812,0.84369 -0.47709,0.37162 -0.85625,0.69303 -1.13748,0.96421 -0.17074,0.16071 -0.51223,0.25863 -1.02447,0.29379 -0.51224,0.0351 -0.95919,-0.0377 -1.34086,-0.21846 -0.18079,-0.0904 -0.32894,-0.20841 -0.44444,-0.35405 -0.11551,-0.14563 -0.19837,-0.27369 -0.24859,-0.38417 -0.0502,-0.11049 -0.1607,-0.20842 -0.33145,-0.29379 -0.17074,-0.0854 -0.40677,-0.13309 -0.70809,-0.14313 -0.44193,-0.01 -1.09478,-0.0151 -1.95856,-0.0151 -0.19083,0 -0.47708,0.008 -0.85875,0.0226 -0.38167,0.0151 -0.67294,0.0276 -0.87382,0.0377 -0.441931,0.01 -0.841171,0.0854 -1.197731,0.22599 -0.35656,0.14062 -0.62523,0.29127 -0.80602,0.45198 -0.18079,0.1607 -0.39925,0.30382 -0.65537,0.42937 -0.25612,0.12555 -0.52479,0.1833 -0.80602,0.17326 -0.29127,-0.01 -0.8487,-0.16572 -1.6723,-0.46704 -0.82361,-0.30132 -1.5568,-0.51726 -2.19961,-0.64783 -0.19084,-0.0402 -0.44696,-0.0879 -0.76836,-0.14313 -0.32141,-0.0552 -0.5725,-0.10044 -0.75329,-0.13559 -0.18079,-0.0351 -0.37916,-0.0829 -0.595099,-0.14313 -0.21595,-0.0603 -0.38418,-0.13309 -0.50471,-0.21845 -0.12052,-0.0854 -0.2059,-0.1833 -0.25612,-0.29379 -0.10044,-0.23101 -0.0653,-0.56496 0.10546,-1.00188 0.17075,-0.43691 0.26114,-0.7106 0.27118,-0.82108 0.01,-0.16071 -0.01,-0.36158 -0.0603,-0.60264 -0.0502,-0.24105 -0.10044,-0.45448 -0.15066,-0.64029 -0.0502,-0.18582 -0.0728,-0.36912 -0.0678,-0.54991 0.005,-0.18079 0.0578,-0.31638 0.1582,-0.40677 0.14062,-0.12053 0.42686,-0.19084 0.858749,-0.21092 0.43189,-0.0201 0.7332,-0.0804 0.90395,-0.1808 0.30132,-0.18079 0.51224,-0.35655 0.63276,-0.5273 0.12053,-0.17074 0.18079,-0.42686 0.18079,-0.76835 0,0.28625 0.26616,-0.45198 0.22599,-0.69304 -0.0301,-0.1607 -0.0402,-0.35153 -0.0301,-0.57249 0.01,-0.29128 0.0603,-0.55242 0.15066,-0.78343 0.0904,-0.23101 0.21092,-0.46704 0.36158,-0.70809 0.15066,-0.24106 0.26114,-0.45198 0.33144,-0.63277 0.0803,-0.21092 0.21344,-0.5725 0.39925,-1.08474 0.18581,-0.51224 0.33396,-0.90395 0.44444,-1.17513 0.11048,-0.27119 0.26114,-0.57752 0.45198,-0.91902 0.19083,-0.34149 0.38668,-0.61267 0.58756,-0.81355 1.10484,-1.43629 1.72755,-2.41555 1.86817,-2.93784 -0.12053,-1.12492 -0.20088,-2.6817 -0.24106,-4.6704 -0.0201,-0.90396 0.10045,-1.66477 0.36158,-2.28248 0.26114,-0.6177 0.79347,-1.14249 1.59698,-1.57438 0.39171,-0.21092 0.913991,-0.31638 1.566851,-0.31638 0.53233,-0.01 1.06465,0.0578 1.59697,0.20339 0.53233,0.14564 0.97928,0.35405 1.34086,0.62523 0.57251,0.42185 1.03201,1.03201 1.37853,1.8305 0.34651,0.79849 0.49466,1.53922 0.44444,2.22221 -0.0502,0.95417 0.10044,2.02886 0.45197,3.22409 0.3415,1.13496 1.00941,2.22973 2.00376,3.28435 0.55242,0.59259 1.05209,1.41116 1.49905,2.45573 0.44695,1.04457 0.74576,2.00375 0.89641,2.87757 0.0803,0.49215 0.10546,0.9165 0.0753,1.27306 -0.0301,0.35656 -0.0904,0.63528 -0.18079,0.83615 -0.0904,0.20088 0.13057,1.00942 0.27119,0.88889 0.01,0.31136 0.0502,0.5951 0.12052,0.85122 0.0703,0.25612 0.14313,0.45951 0.21846,0.61017 0.0753,0.15065 0.17828,0.29378 0.30885,0.42937 0.13056,0.13559 0.23603,0.23101 0.31638,0.28625 0.0803,0.0553 0.18832,0.12052 0.32392,0.19586 0.13559,0.0753 0.21845,0.12303 0.24858,0.14312 0.20088,0.12053 0.35656,0.24357 0.46704,0.36912 z"
     inkscape:connector-curvature="0" />
</svg>
