<?xml version="1.0" encoding="UTF-8" standalone="no"?>
<svg
   xmlns:dc="http://purl.org/dc/elements/1.1/"
   xmlns:cc="http://creativecommons.org/ns#"
   xmlns:rdf="http://www.w3.org/1999/02/22-rdf-syntax-ns#"
   xmlns:svg="http://www.w3.org/2000/svg"
   xmlns="http://www.w3.org/2000/svg"
   xmlns:xlink="http://www.w3.org/1999/xlink"
   xmlns:sodipodi="http://sodipodi.sourceforge.net/DTD/sodipodi-0.dtd"
   xmlns:inkscape="http://www.inkscape.org/namespaces/inkscape"
   viewBox="0 0 48 48"
   height="48"
   width="48"
   version="1.1"
   id="svg2"
   sodipodi:docname="user-trash-full.svg"
   inkscape:version="0.92.2 2405546, 2018-03-11">
  <sodipodi:namedview
     pagecolor="#ffffff"
     bordercolor="#666666"
     borderopacity="1"
     objecttolerance="10"
     gridtolerance="10"
     guidetolerance="10"
     inkscape:pageopacity="0"
     inkscape:pageshadow="2"
     inkscape:window-width="1366"
     inkscape:window-height="699"
     id="namedview26"
     showgrid="false"
     inkscape:zoom="2.4583333"
     inkscape:cx="-88.504939"
     inkscape:cy="62.098548"
     inkscape:window-x="0"
     inkscape:window-y="0"
     inkscape:window-maximized="1"
     inkscape:current-layer="svg2"
     inkscape:snap-smooth-nodes="false"
     inkscape:object-nodes="false"
     inkscape:snap-midpoints="false" />
  <metadata
     id="metadata8">
    <rdf:RDF>
      <cc:Work
         rdf:about="">
        <dc:format>image/svg+xml</dc:format>
        <dc:type
           rdf:resource="http://purl.org/dc/dcmitype/StillImage" />
        <dc:title />
      </cc:Work>
    </rdf:RDF>
  </metadata>
  <defs
     id="defs6">
    <linearGradient
       inkscape:collect="always"
       id="linearGradient839">
      <stop
         style="stop-color:#ff2020;stop-opacity:1"
         offset="0"
         id="stop833" />
      <stop
         style="stop-color:#ff5050;stop-opacity:1"
         offset="1"
         id="stop835" />
    </linearGradient>
    <linearGradient
       id="linearGradient860">
      <stop
         id="stop856"
         offset="0"
         style="stop-color:#97bb00;stop-opacity:1;" />
      <stop
         id="stop858"
         offset="1"
         style="stop-color:#97eb23;stop-opacity:1" />
    </linearGradient>
    <linearGradient
       id="linearGradient828">
      <stop
         id="stop824"
         offset="0"
         style="stop-color:#bbbdb7;stop-opacity:1;" />
      <stop
         id="stop826"
         offset="1"
         style="stop-color:#e1e1df;stop-opacity:1" />
    </linearGradient>
    <linearGradient
       id="linearGradient838">
      <stop
         style="stop-color:#d4dadc;stop-opacity:1"
         offset="0"
         id="stop834" />
      <stop
         style="stop-color:#f6f7f8;stop-opacity:1"
         offset="1"
         id="stop836" />
    </linearGradient>
    <linearGradient
       xlink:href="#linearGradient838"
       id="linearGradient840"
       x1="25"
       y1="46"
       x2="25"
       y2="2.4967742"
       gradientUnits="userSpaceOnUse" />
    <linearGradient
       gradientTransform="matrix(0.8564608,0,0,0.8564608,3.4449387,4.2027567)"
       gradientUnits="userSpaceOnUse"
       y2="22.194721"
       x2="23.966173"
       y1="35.311054"
       x1="23.966173"
       id="linearGradient862"
       xlink:href="#linearGradient860" />
    <linearGradient
       gradientUnits="userSpaceOnUse"
       y2="4.0803065"
       x2="25.083408"
       y1="15.789984"
       x1="24.904686"
       id="linearGradient837"
       xlink:href="#linearGradient828"
       gradientTransform="translate(-13.672715,17.149487)" />
    <linearGradient
       inkscape:collect="always"
       xlink:href="#linearGradient839"
       id="linearGradient841"
       x1="24.01103"
       y1="35.380108"
       x2="24.17132"
       y2="23.311045"
       gradientUnits="userSpaceOnUse" />
  </defs>
  <g
     id="g854">
    <g
       style="stroke-width:1.02301717"
       transform="matrix(0.95550763,0,0,1,1.0678169,0)"
       id="g843">
      <path
         inkscape:connector-curvature="0"
         style="fill:url(#linearGradient840);fill-opacity:1;stroke-width:0.76784766"
         d="M 22.126086,45.95212 C 17.31255,45.622129 13.393684,44.307572 11.700444,42.454894 11.097546,41.795229 10.934368,41.441947 10.755703,40.409525 10.262622,37.560277 5.4177925,11.493842 5.2911034,11.008561 4.4236703,7.6859483 7.9630669,4.676568 14.677315,3.0279262 c 1.537654,-0.3775679 3.874088,-0.7514627 5.728138,-0.9166731 1.664652,-0.1483374 5.528327,-0.1483374 7.192977,0 8.122512,0.7237809 14.202845,3.5236063 15.119059,6.9618909 0.176915,0.6639218 0.161836,1.171385 -0.06209,2.089445 -0.242218,0.993071 -5.466341,29.30889 -5.466341,29.628684 0,0.1298 -0.132318,0.500806 -0.294039,0.824446 -0.820704,1.642376 -3.572525,3.097839 -7.288967,3.855203 -2.06854,0.42154 -5.309181,0.630013 -7.479971,0.481198 z"
         id="path3348" />
      <g
         style="stroke-width:1.02301717"
         transform="translate(13.672715,-17.149487)"
         id="g882">
        <path
           inkscape:connector-curvature="0"
           id="path3340-7"
           d="m 8.162777,32.82727 c -5.857753,-0.292017 -11.27078,-1.914334 -13.6083051,-4.078474 -0.593199,-0.549197 -1.06608,-1.332579 -1.064432,-1.763358 0.0028,-0.729052 0.899281,-1.818482 2.1569571,-2.621167 5.382453,-3.435233 16.520771,-4.350022 24.685774,-2.027443 2.82037,0.802273 4.951416,1.895405 6.128612,3.143714 0.795912,0.843987 0.945987,1.379524 0.600094,2.141394 -0.812711,1.790093 -4.431692,3.612696 -8.985243,4.525161 -1.832862,0.367285 -3.577787,0.575816 -5.739657,0.685921 -1.892311,0.09637 -2.13205,0.09605 -4.1738,-0.0057 z"
           style="fill:url(#linearGradient837);fill-opacity:1;stroke-width:0.76784766" />
      </g>
      <g
         style="stroke-width:1.02301717"
         transform="rotate(-0.07818606,-27.479843,234.34587)"
         id="g825">
        <path
           sodipodi:nodetypes="ssscscssscs"
           inkscape:connector-curvature="0"
           id="path3370-3"
           d="m 13.014523,13.381185 c -2.355143,-0.748654 -2.397058,-0.857168 -2.425224,-1.885576 -0.01253,-0.457498 -0.02962,-0.908239 -0.03797,-1.001646 -0.01943,-0.217281 4.759746,-3.6080584 5.100719,-3.6189084 0.140742,-0.00448 0.438985,0.061469 0.662763,0.1465481 l 0.406867,0.1546915 -0.395311,0.4907793 c -1.611465,2.0006254 -2.524905,3.2911475 -2.524905,3.5672205 0,0.178159 0.240098,0.850787 0.533552,1.494729 0.293454,0.643942 0.515053,1.189303 0.492441,1.211914 -0.02261,0.02261 -0.867897,-0.259345 -1.812933,-0.559752 z"
           style="opacity:1;fill:#f9de69;fill-opacity:1;stroke:none;stroke-width:0.19496965;stroke-miterlimit:4;stroke-dasharray:none;stroke-dashoffset:0;stroke-opacity:1" />
        <path
           sodipodi:nodetypes="sssscss"
           inkscape:connector-curvature="0"
           id="path3374-6"
           d="m 35.747451,12.674668 c 0,-0.303687 -0.309605,-0.774306 -1.124021,-1.708599 -1.263065,-1.4489675 -1.2821,-1.3667285 0.368969,-1.5938086 0.722286,-0.099339 0.815191,-0.074846 1.237596,0.3262854 0.820937,0.7795822 2.075098,2.3275362 1.879049,2.4430552 -0.177613,0.142496 -2.4526,1.108271 -2.665276,1.108271 -0.08605,0 0.303683,-0.344681 0.303683,-0.575204 z"
           style="opacity:1;fill:#1ba39c;fill-opacity:0.99607843;stroke:none;stroke-width:0.19496965;stroke-miterlimit:4;stroke-dasharray:none;stroke-dashoffset:0;stroke-opacity:1" />
        <path
           sodipodi:nodetypes="ssssssssssssssss"
           inkscape:connector-curvature="0"
           id="path3361-7"
           d="m 20.069203,14.814461 c -1.715981,-0.197431 -4.787034,-0.767345 -5.232685,-0.865744 -0.41374,-0.09136 -0.517001,-0.425169 -0.926828,-1.4431 -0.271773,-0.675037 -0.494136,-1.29087 -0.494136,-1.368518 0,-0.139001 2.0489,-2.7701291 3.713665,-4.7689595 0.468077,-0.5620043 0.961226,-1.023299 1.095888,-1.0250987 0.348191,-0.00465 6.4904,0.7379626 6.922955,0.8370112 0.240436,0.055056 0.461871,0.3096472 0.668937,0.7690983 0.170239,0.3777393 0.406822,0.7234446 0.525738,0.7682343 0.118917,0.044789 1.078406,-0.09596 2.132197,-0.3127765 1.05379,-0.2168165 2.055159,-0.394212 2.225262,-0.394212 0.38539,0 5.306819,5.0673159 5.306819,5.4641309 0,0.322415 -0.02395,0.616265 -0.440332,0.754011 -0.394703,0.130573 -1.054201,0.389001 -1.958076,0.607923 -3.207277,0.776815 -4.78669,1.068445 -9.078909,1.116735 -2.170172,0.02441 -4.162629,-0.104465 -4.460495,-0.138735 z"
           style="opacity:1;fill:#ffffff;fill-opacity:1;stroke:none;stroke-width:0.19496965;stroke-miterlimit:4;stroke-dasharray:none;stroke-dashoffset:0;stroke-opacity:1" />
      </g>
    </g>
    <path
       style="fill:url(#linearGradient841);fill-opacity:1;stroke:none;stroke-width:0.38655719"
       d="m 21.721664,23.211665 -1.54558,2.834827 2.472935,1.452573 1.350949,-2.389865 0.469402,0.831739 -0.435057,0.761508 h 2.518726 l 1.373854,-2.424973 -0.60679,0.351626 -0.78996,-1.417435 h -4.304734 -0.412154 z m 6.720416,4.380899 -2.472929,1.464285 1.350952,2.401557 h -0.938795 l -0.435053,-0.773098 -1.259359,2.225637 1.373846,2.4364 V 34.64442 h 1.602827 l 2.152365,-3.806822 0.206078,-0.363167 0.04586,-0.09386 -1.625725,-2.788017 z m -10.315328,0.86692 0.606785,0.35157 -0.801409,1.41736 2.152373,3.806895 0.194622,0.363288 0.05724,0.09362 3.171303,-0.04693 V 31.516996 H 20.79431 l 0.469402,-0.831686 h 0.870106 l -1.259372,-2.22582 z"
       id="path3802" />
  </g>
</svg>
