<?xml version="1.0" encoding="UTF-8" standalone="no"?>
<svg
   xmlns:dc="http://purl.org/dc/elements/1.1/"
   xmlns:cc="http://creativecommons.org/ns#"
   xmlns:rdf="http://www.w3.org/1999/02/22-rdf-syntax-ns#"
   xmlns:svg="http://www.w3.org/2000/svg"
   xmlns="http://www.w3.org/2000/svg"
   xmlns:xlink="http://www.w3.org/1999/xlink"
   xmlns:sodipodi="http://sodipodi.sourceforge.net/DTD/sodipodi-0.dtd"
   xmlns:inkscape="http://www.inkscape.org/namespaces/inkscape"
   viewBox="0 0 48 48"
   height="48"
   width="48"
   version="1.1"
   id="svg2"
   sodipodi:docname="user-trash.svg"
   inkscape:version="0.92.2 2405546, 2018-03-11">
  <sodipodi:namedview
     pagecolor="#ffffff"
     bordercolor="#666666"
     borderopacity="1"
     objecttolerance="10"
     gridtolerance="10"
     guidetolerance="10"
     inkscape:pageopacity="0"
     inkscape:pageshadow="2"
     inkscape:window-width="1366"
     inkscape:window-height="699"
     id="namedview21"
     showgrid="false"
     inkscape:zoom="4.9166667"
     inkscape:cx="24"
     inkscape:cy="24"
     inkscape:window-x="0"
     inkscape:window-y="0"
     inkscape:window-maximized="1"
     inkscape:current-layer="svg2" />
  <metadata
     id="metadata8">
    <rdf:RDF>
      <cc:Work
         rdf:about="">
        <dc:format>image/svg+xml</dc:format>
        <dc:type
           rdf:resource="http://purl.org/dc/dcmitype/StillImage" />
        <dc:title />
      </cc:Work>
    </rdf:RDF>
  </metadata>
  <defs
     id="defs6">
    <linearGradient
       id="linearGradient860">
      <stop
         id="stop856"
         offset="0"
         style="stop-color:#97bb00;stop-opacity:1;" />
      <stop
         id="stop858"
         offset="1"
         style="stop-color:#97eb23;stop-opacity:1" />
    </linearGradient>
    <linearGradient
       id="linearGradient828">
      <stop
         id="stop824"
         offset="0"
         style="stop-color:#bbbdb7;stop-opacity:1;" />
      <stop
         id="stop826"
         offset="1"
         style="stop-color:#e1e1df;stop-opacity:1" />
    </linearGradient>
    <linearGradient
       id="linearGradient838">
      <stop
         style="stop-color:#d4dadc;stop-opacity:1"
         offset="0"
         id="stop834" />
      <stop
         style="stop-color:#f6f7f8;stop-opacity:1"
         offset="1"
         id="stop836" />
    </linearGradient>
    <linearGradient
       xlink:href="#linearGradient838"
       id="linearGradient840"
       x1="25"
       y1="46"
       x2="25"
       y2="2.4967742"
       gradientUnits="userSpaceOnUse" />
    <linearGradient
       gradientUnits="userSpaceOnUse"
       y2="4.0040507"
       x2="24.801561"
       y1="15.797154"
       x1="24.780495"
       id="linearGradient830"
       xlink:href="#linearGradient828" />
    <linearGradient
       gradientTransform="matrix(0.8564608,0,0,0.8564608,3.4449387,4.2027567)"
       gradientUnits="userSpaceOnUse"
       y2="22.194721"
       x2="23.966173"
       y1="35.311054"
       x1="23.966173"
       id="linearGradient862"
       xlink:href="#linearGradient860" />
  </defs>
  <g
     id="g847">
    <g
       style="stroke-width:1.02301717"
       transform="matrix(0.95550763,0,0,1,1.0678169,0)"
       id="g841">
      <path
         inkscape:connector-curvature="0"
         style="fill:url(#linearGradient840);fill-opacity:1;stroke-width:0.76784766"
         d="M 22.126086,45.95212 C 17.31255,45.622129 13.393684,44.307572 11.700444,42.454894 11.097546,41.795229 10.934368,41.441947 10.755703,40.409525 10.262622,37.560277 5.4177925,11.493842 5.2911034,11.008561 4.4236703,7.6859483 7.9630669,4.676568 14.677315,3.0279262 c 1.537654,-0.3775679 3.874088,-0.7514627 5.728138,-0.9166731 1.664652,-0.1483374 5.528327,-0.1483374 7.192977,0 8.122512,0.7237809 14.202845,3.5236063 15.119059,6.9618909 0.176915,0.6639218 0.161836,1.171385 -0.06209,2.089445 -0.242218,0.993071 -5.466341,29.30889 -5.466341,29.628684 0,0.1298 -0.132318,0.500806 -0.294039,0.824446 -0.820704,1.642376 -3.572525,3.097839 -7.288967,3.855203 -2.06854,0.42154 -5.309181,0.630013 -7.479971,0.481198 z"
         id="path3348" />
      <path
         inkscape:connector-curvature="0"
         style="fill:url(#linearGradient830);fill-opacity:1;stroke-width:0.76784766"
         d="M 21.835492,15.677784 C 15.977739,15.385767 10.564712,13.763449 8.2271869,11.599309 7.6339881,11.050112 7.1611071,10.26673 7.1627542,9.835951 7.1655377,9.1068997 8.062036,8.0174692 9.3197113,7.2147847 14.702165,3.7795514 25.840483,2.8647627 34.005486,5.1873411 c 2.82037,0.8022731 4.951416,1.8954054 6.128612,3.1437142 0.795912,0.843987 0.945987,1.3795244 0.600094,2.1413937 -0.812711,1.790093 -4.431692,3.612697 -8.985243,4.525162 -1.832862,0.367285 -3.577787,0.575816 -5.739657,0.685921 -1.892311,0.09637 -2.13205,0.09605 -4.1738,-0.0057 z"
         id="path3340" />
    </g>
    <path
       style="fill:url(#linearGradient862);fill-opacity:1;stroke:none;stroke-width:0.38655719"
       d="m 21.721664,23.211665 -1.54558,2.834827 2.472935,1.452573 1.350949,-2.389865 0.469402,0.831739 -0.435057,0.761508 h 2.518726 l 1.373854,-2.424973 -0.60679,0.351626 -0.78996,-1.417435 h -4.304734 -0.412154 z m 6.720416,4.380899 -2.472929,1.464285 1.350952,2.401557 h -0.938795 l -0.435053,-0.773098 -1.259359,2.225637 1.373846,2.4364 V 34.64442 h 1.602827 l 2.152365,-3.806822 0.206078,-0.363167 0.04586,-0.09386 -1.625725,-2.788017 z m -10.315328,0.86692 0.606785,0.35157 -0.801409,1.41736 2.152373,3.806895 0.194622,0.363288 0.05724,0.09362 3.171303,-0.04693 V 31.516996 H 20.79431 l 0.469402,-0.831686 h 0.870106 l -1.259372,-2.22582 z"
       id="path3802"
       inkscape:connector-curvature="0" />
  </g>
</svg>
