<?xml version="1.0" encoding="UTF-8" standalone="no"?>
<svg
   xmlns:dc="http://purl.org/dc/elements/1.1/"
   xmlns:cc="http://creativecommons.org/ns#"
   xmlns:rdf="http://www.w3.org/1999/02/22-rdf-syntax-ns#"
   xmlns:svg="http://www.w3.org/2000/svg"
   xmlns="http://www.w3.org/2000/svg"
   xmlns:xlink="http://www.w3.org/1999/xlink"
   height="64"
   width="64"
   version="1.1"
   id="svg22">
  <metadata
     id="metadata28">
    <rdf:RDF>
      <cc:Work
         rdf:about="">
        <dc:format>image/svg+xml</dc:format>
        <dc:type
           rdf:resource="http://purl.org/dc/dcmitype/StillImage" />
        <dc:title></dc:title>
      </cc:Work>
    </rdf:RDF>
  </metadata>
  <defs
     id="defs26">
    <linearGradient
       id="linearGradient4300">
      <stop
         id="stop4302"
         style="stop-color:#26c281" />
      <stop
         id="stop4304"
         style="stop-color:#3fc380"
         offset="1" />
    </linearGradient>
    <linearGradient
       id="linearGradient4300-2">
      <stop
         id="stop4302-4"
         style="stop-color:#22a7f0" />
      <stop
         id="stop4304-7"
         style="stop-color:#19b5fe"
         offset="1" />
    </linearGradient>
    <linearGradient
       id="linearGradient4300-2-3">
      <stop
         id="stop4302-4-0"
         style="stop-color:#f9b425" />
      <stop
         id="stop4304-1"
         style="stop-color:#f9bf3b"
         offset="1" />
    </linearGradient>
    <linearGradient
       id="linearGradient4300-7">
      <stop
         id="stop4302-8"
         style="stop-color:#e00a5e" />
      <stop
         id="stop4304-6"
         style="stop-color:#f62870"
         offset="1" />
    </linearGradient>
    <linearGradient
       xlink:href="#linearGradient4300-7"
       id="linearGradient1116"
       gradientUnits="userSpaceOnUse"
       gradientTransform="matrix(1.1689295,0,0,1.1689295,-880.99963,-1163.3425)"
       y1="523.79797"
       x2="0"
       y2="516.79797" />
    <linearGradient
       xlink:href="#linearGradient4300-2-3"
       id="linearGradient1118"
       gradientUnits="userSpaceOnUse"
       gradientTransform="matrix(1.1689295,0,0,1.1689295,-880.99963,-1156.3289)"
       y1="523.79797"
       x2="0"
       y2="516.79797" />
    <linearGradient
       xlink:href="#linearGradient4300-2"
       id="linearGradient1120"
       gradientUnits="userSpaceOnUse"
       gradientTransform="matrix(1.1689295,0,0,1.1689295,-880.99963,-1149.3154)"
       y1="523.79797"
       x2="0"
       y2="516.79797" />
    <linearGradient
       xlink:href="#linearGradient4300"
       id="linearGradient1122"
       gradientUnits="userSpaceOnUse"
       gradientTransform="matrix(1.1689295,0,0,1.1689295,-880.99963,-1142.3018)"
       y1="523.79797"
       x2="0"
       y2="516.79797" />
  </defs>
  <linearGradient
     id="a"
     gradientUnits="userSpaceOnUse"
     x1="407.571438"
     x2="407.571438"
     y1="540.797966"
     y2="504.797966"
     gradientTransform="matrix(0.87781775,0,0,0.91583869,-325.32482,-447.71445)">
    <stop
       offset="0"
       stop-color="#63984b"
       id="stop2" />
    <stop
       offset="1"
       stop-color="#8fc278"
       id="stop4" />
  </linearGradient>
  <linearGradient
     id="b"
     gradientUnits="userSpaceOnUse"
     x1="408.57144"
     x2="408.57144"
     y1="535.79797"
     y2="511.79797"
     gradientTransform="matrix(0.87781775,0,0,0.91583869,-323.42651,-447.71445)">
    <stop
       offset="0"
       stop-color="#2a2c2f"
       id="stop7" />
    <stop
       offset="1"
       stop-color="#424649"
       id="stop9" />
  </linearGradient>
  <rect
     rx="1.5"
     style="fill:url(#a);fill-rule:evenodd;stroke-width:0.89662671"
     id="rect12"
     y="14.599065"
     x="7.8697305"
     width="50.913429"
     ry="1.5"
     height="34.801868" />
  <rect
     rx="0.99999595"
     style="fill:url(#b);fill-rule:evenodd;stroke-width:0.89662671"
     id="rect14"
     y="20.094097"
     x="23.81312"
     width="22.823261"
     ry="0.99999595"
     height="23.811806" />
  <path
     style="fill:#e0e0e0;stroke-width:0.86642206"
     id="path16"
     d="m 27.073689,25.14984 v 3.044497 h -1.630223 v 3.044531 h -1.630215 v 1.522257 h 1.630215 v 3.044531 h 1.630223 v 1.522241 h 1.630197 v -3.044506 h 1.630213 v -1.522266 h 3.260437 v 1.522266 h 1.630224 v 1.522265 h 1.630206 v 1.522241 h 1.630214 v 3.044523 h 1.630215 v -1.522266 h 1.630222 v -3.044498 h 1.630223 v -1.522265 h 1.630196 v -1.522266 h 1.630215 V 31.238868 H 45.006036 V 29.716602 H 43.37584 V 28.194337 H 41.745617 V 25.14984 H 40.115395 V 23.627574 H 38.48518 v 3.044522 h -1.630214 v 1.522241 H 35.22476 v 1.522265 h -1.630224 v 1.522266 H 30.334099 V 29.716602 H 28.703886 V 25.14984 Z" />
  <path
     style="fill:#f8c44e;fill-opacity:1;stroke-width:0.89662671"
     id="path18"
     d="M 7.8697299,47.475683 H 58.78316 v 0.917826 H 7.8697299 Z" />
  <rect
     id="rect1086"
     style="fill:#afc0c6;stroke-width:1.16892946"
     height="49.095039"
     y="7.4524808"
     x="6.3857727"
     width="4.6757178" />
  <rect
     id="rect1088"
     style="fill:#96aab5;stroke-width:1.16892946"
     height="49.095039"
     y="7.4524808"
     x="6.3857727"
     width="1.1689295" />
  <path
     d="m 6.3857696,19.141773 c -0.6475869,0 -1.1689295,0.521342 -1.1689295,1.168929 v 2.337859 c 0,0.647587 0.5213426,1.16893 1.1689295,1.16893 h 1.1689295 v -4.675718 z"
     id="path1090"
     style="fill:#afc0c6;stroke-width:1.16892946" />
  <path
     d="m 11.0615,19.141773 v 4.675718 h 4.55928 c 0.0415,0 0.0761,-0.0187 0.116426,-0.02279 v 0.02279 h 1.168929 v -4.675718 h -1.168929 v 0.02279 c -0.04033,-0.0047 -0.07493,-0.02279 -0.116426,-0.02279 z"
     id="path1092"
     style="fill:url(#linearGradient1116);stroke-width:1.16892946" />
  <path
     d="m 6.3857696,26.15535 c -0.6475869,0 -1.1689295,0.521342 -1.1689295,1.168929 v 2.337859 c 0,0.647587 0.5213426,1.16893 1.1689295,1.16893 H 7.5546991 V 26.15535 Z"
     id="path1094"
     style="fill:#afc0c6;stroke-width:1.16892946" />
  <path
     d="m 11.0615,26.15535 v 4.675718 h 4.55928 c 0.0415,0 0.0761,-0.0187 0.116426,-0.02279 v 0.02279 h 1.168929 V 26.15535 h -1.168929 v 0.02279 c -0.04033,-0.0047 -0.07493,-0.02279 -0.116426,-0.02279 z"
     id="path1096"
     style="fill:url(#linearGradient1118);stroke-width:1.16892946" />
  <path
     d="m 6.3857696,33.168927 c -0.6475869,0 -1.1689295,0.521342 -1.1689295,1.168929 v 2.337859 c 0,0.647587 0.5213426,1.16893 1.1689295,1.16893 h 1.1689295 v -4.675718 z"
     id="path1098"
     style="fill:#afc0c6;stroke-width:1.16892946" />
  <path
     d="m 11.0615,33.168927 v 4.675718 h 4.55928 c 0.0415,0 0.0761,-0.0187 0.116426,-0.02279 v 0.02279 h 1.168929 v -4.675718 h -1.168929 v 0.02279 c -0.04033,-0.0047 -0.07493,-0.02279 -0.116426,-0.02279 z"
     id="path1100"
     style="fill:url(#linearGradient1120);stroke-width:1.16892946" />
  <path
     d="m 6.3857696,40.182504 c -0.6475869,0 -1.1689295,0.521342 -1.1689295,1.168929 v 2.337859 c 0,0.647587 0.5213426,1.16893 1.1689295,1.16893 h 1.1689295 v -4.675718 z"
     id="path1102"
     style="fill:#afc0c6;stroke-width:1.16892946" />
  <path
     d="m 11.0615,40.182504 v 4.675718 h 4.55928 c 0.0415,0 0.0761,-0.0187 0.116426,-0.02279 v 0.02279 h 1.168929 v -4.675718 h -1.168929 v 0.02279 c -0.04033,-0.0047 -0.07493,-0.02279 -0.116426,-0.02279 z"
     id="path1104"
     style="fill:url(#linearGradient1122);stroke-width:1.16892946" />
  <rect
     id="rect1106"
     style="opacity:0.44100001;stroke-width:1.16892946"
     height="1.1689295"
     y="43.689297"
     x="11.06149"
     width="5.8446474" />
  <rect
     id="rect1108"
     style="opacity:0.4510002;stroke-width:1.16892946"
     height="1.1689295"
     y="36.67572"
     x="11.06149"
     width="5.8446474" />
  <rect
     id="rect1110"
     style="opacity:0.519;stroke-width:1.16892946"
     height="1.1689295"
     y="29.662142"
     x="11.06149"
     width="5.8446474" />
  <rect
     id="rect1112"
     style="opacity:0.58600003;stroke-width:1.16892946"
     height="1.1689295"
     y="22.648565"
     x="11.06149"
     width="5.8446474" />
  <g
     id="g1271"
     transform="translate(-2.1825287,0.12759187)">
    <rect
       style="fill:#666666;stroke-width:1.04036999"
       id="rect1160"
       y="48.388458"
       x="38.849625"
       height="6.2422199"
       width="4.1614799" />
    <rect
       style="fill:#666666;stroke-width:1.04036999"
       id="rect1162"
       y="48.388458"
       x="44.051476"
       height="6.2422199"
       width="4.1614799" />
    <rect
       style="fill:#666666;stroke-width:1.04036999"
       id="rect1164"
       y="48.388458"
       x="49.253326"
       height="6.2422199"
       width="4.1614799" />
    <rect
       style="fill:#ff9046;fill-opacity:1;stroke-width:1.04036999"
       width="4.1614799"
       height="6.2422199"
       x="38.849625"
       y="47.348091"
       id="rect1168" />
    <rect
       style="fill:#ff9046;fill-opacity:1;stroke-width:1.04036999"
       width="4.1614799"
       height="6.2422199"
       x="44.051472"
       y="47.348091"
       id="rect1170" />
    <rect
       style="fill:#ff9046;fill-opacity:1;stroke-width:1.04036999"
       width="4.1614799"
       height="6.2422199"
       x="49.253326"
       y="47.348091"
       id="rect1172" />
    <rect
       style="opacity:1;fill:#666666;stroke-width:1.04036999"
       width="4.1614799"
       height="6.2422199"
       x="54.455177"
       y="48.388462"
       id="rect1174" />
    <rect
       style="fill:#ff9046;fill-opacity:1;stroke-width:1.04036999"
       width="4.1614799"
       height="6.2422199"
       x="54.455177"
       y="47.348091"
       id="rect1176" />
  </g>
  <path
     d="m 46.388754,15.824832 v 1.3955 h -1.3955 v -1.3955 z m -1.3955,1.3955 v 1.3955 h -1.395501 v -1.3955 z m -1.395501,0 h -1.3955 v -1.3955 h 1.3955 z m -1.3955,0 v 1.3955 h -1.3955 v -1.3955 z m -1.3955,0 h -1.395501 v -1.3955 h 1.395501 z m -1.395501,0 v 1.3955 h -1.3955 v -1.3955 z m -1.3955,0 h -1.395501 v -1.3955 h 1.395501 z m -1.395501,0 v 1.3955 h -1.3955 v -1.3955 z m -1.3955,0 h -1.3955 v -1.3955 h 1.3955 z m -1.3955,0 v 1.3955 H 32.43375 v -1.3955 z m -1.395501,0 h -1.3955 v -1.3955 h 1.3955 z m -1.3955,0 v 1.3955 h -1.395501 v -1.3955 z m -1.395501,0 h -1.3955 v -1.3955 h 1.3955 z m -1.3955,0 v 1.3955 h -1.3955 v -1.3955 z m -1.3955,0 h -1.395501 v -1.3955 h 1.395501 z m -1.395501,0 v 1.3955 h -1.3955 v -1.3955 z"
     id="path1198"
     style="color:#000000;stroke-width:1.39550042" />
</svg>
