<?xml version="1.0" encoding="UTF-8" standalone="no"?>
<svg
   xmlns:dc="http://purl.org/dc/elements/1.1/"
   xmlns:cc="http://creativecommons.org/ns#"
   xmlns:rdf="http://www.w3.org/1999/02/22-rdf-syntax-ns#"
   xmlns:svg="http://www.w3.org/2000/svg"
   xmlns="http://www.w3.org/2000/svg"
   xmlns:xlink="http://www.w3.org/1999/xlink"
   id="SVGRoot"
   version="1.1"
   viewBox="0 0 48 48"
   height="48px"
   width="48px">
  <defs
     id="defs815">
    <linearGradient
       xlink:href="#linearGradient1095"
       id="linearGradient1848"
       x1="23.949154"
       y1="45.355934"
       x2="23.949154"
       y2="3.8644073"
       gradientUnits="userSpaceOnUse"
       gradientTransform="matrix(1.047619,0,0,1.047619,-1.1428572,-1.5690064)" />
    <linearGradient
       id="linearGradient1095">
      <stop
         style="stop-color:#5cc610;stop-opacity:1"
         offset="0"
         id="stop1091" />
      <stop
         style="stop-color:#92dc41;stop-opacity:1"
         offset="1"
         id="stop1093" />
    </linearGradient>
  </defs>
  <metadata
     id="metadata818">
    <rdf:RDF>
      <cc:Work
         rdf:about="">
        <dc:format>image/svg+xml</dc:format>
        <dc:type
           rdf:resource="http://purl.org/dc/dcmitype/StillImage" />
        <dc:title></dc:title>
      </cc:Work>
    </rdf:RDF>
  </metadata>
  <g
     id="layer1">
    <text
       x="622.26996"
       y="3.4715822"
       id="text34"
       style="font-size:13.9637661px;opacity:0.8;stroke-width:1.16364729">
      <tspan
         style="stroke-width:1.16364729"
         x="622.26996"
         y="3.4715822"
         id="tspan32" />
    </text>
    <text
       x="640.03436"
       y="-26.73399"
       id="text38"
       style="font-size:13.9637661px;opacity:0.8;stroke-width:1.16364729">
      <tspan
         style="stroke-width:1.16364729"
         x="640.03436"
         y="-26.73399"
         id="tspan36" />
    </text>
    <text
       x="-450.22568"
       y="-49.033665"
       id="text42"
       style="font-size:13.9637661px;opacity:0.8;stroke-width:1.16364729">
      <tspan
         style="stroke-width:1.16364729"
         x="-450.22568"
         y="-49.033665"
         id="tspan40" />
    </text>
    <text
       x="-1802.2917"
       y="503.71368"
       id="text46"
       style="font-size:13.9637661px;opacity:0.8;stroke-width:1.16364729">
      <tspan
         style="stroke-width:1.16364729"
         x="-1802.2917"
         y="503.71368"
         id="tspan44" />
    </text>
    <text
       x="-365.3429"
       y="-334.70755"
       id="text50"
       style="font-size:13.9637661px;opacity:0.8;stroke-width:1.16364729">
      <tspan
         style="stroke-width:1.16364729"
         x="-365.3429"
         y="-334.70755"
         id="tspan48" />
    </text>
    <text
       x="233.40685"
       y="-641.25104"
       id="text54"
       style="font-size:13.9637661px;opacity:0.8;stroke-width:1.16364729">
      <tspan
         style="stroke-width:1.16364729"
         x="233.40685"
         y="-641.25104"
         id="tspan52" />
    </text>
    <text
       x="251.1712"
       y="-671.4566"
       id="text58"
       style="font-size:13.9637661px;opacity:0.8;stroke-width:1.16364729">
      <tspan
         style="stroke-width:1.16364729"
         x="251.1712"
         y="-671.4566"
         id="tspan56" />
    </text>
    <text
       x="-854.58752"
       y="-676.802"
       id="text62"
       style="font-size:13.9637661px;opacity:0.8;stroke-width:1.16364729">
      <tspan
         style="stroke-width:1.16364729"
         x="-854.58752"
         y="-676.802"
         id="tspan60" />
    </text>
    <text
       x="228.24713"
       y="-879.37561"
       id="text66"
       style="font-size:13.9637661px;opacity:0.8;stroke-width:1.16364729">
      <tspan
         style="stroke-width:1.16364729"
         x="228.24713"
         y="-879.37561"
         id="tspan64" />
    </text>
    <text
       x="1330.0471"
       y="-414.75159"
       id="text70"
       style="font-size:13.9637661px;opacity:0.8;stroke-width:1.16364729">
      <tspan
         style="stroke-width:1.16364729"
         x="1330.0471"
         y="-414.75159"
         id="tspan68" />
    </text>
    <text
       x="1347.8114"
       y="-444.95718"
       id="text74"
       style="font-size:13.9637661px;opacity:0.8;stroke-width:1.16364729">
      <tspan
         style="stroke-width:1.16364729"
         x="1347.8114"
         y="-444.95718"
         id="tspan72" />
    </text>
    <text
       x="242.05264"
       y="-450.30255"
       id="text78"
       style="font-size:13.9637661px;opacity:0.8;stroke-width:1.16364729">
      <tspan
         style="stroke-width:1.16364729"
         x="242.05264"
         y="-450.30255"
         id="tspan76" />
    </text>
    <text
       x="1324.8873"
       y="-652.8761"
       id="text82"
       style="font-size:13.9637661px;opacity:0.8;stroke-width:1.16364729">
      <tspan
         style="stroke-width:1.16364729"
         x="1324.8873"
         y="-652.8761"
         id="tspan80" />
    </text>
    <text
       x="-453.23676"
       y="-485.95706"
       id="text86"
       style="font-size:13.9637661px;opacity:0.8;stroke-width:1.16364729">
      <tspan
         style="stroke-width:1.16364729"
         x="-453.23676"
         y="-485.95706"
         id="tspan84" />
    </text>
    <text
       x="-1805.3026"
       y="66.790352"
       id="text90"
       style="font-size:13.9637661px;opacity:0.8;stroke-width:1.16364729">
      <tspan
         style="stroke-width:1.16364729"
         x="-1805.3026"
         y="66.790352"
         id="tspan88" />
    </text>
    <text
       x="-533.99677"
       y="135.64507"
       id="text94"
       style="font-size:13.9637661px;opacity:0.8;stroke-width:1.16364729">
      <tspan
         style="stroke-width:1.16364729"
         x="-533.99677"
         y="135.64507"
         id="tspan92" />
    </text>
    <text
       x="288.22498"
       y="2.800766"
       id="text98"
       style="font-size:13.9637661px;opacity:0.8;stroke-width:1.16364729">
      <tspan
         style="stroke-width:1.16364729"
         x="288.22498"
         y="2.800766"
         id="tspan96" />
    </text>
    <text
       x="305.98935"
       y="-27.404772"
       id="text102"
       style="font-size:13.9637661px;opacity:0.8;stroke-width:1.16364729">
      <tspan
         style="stroke-width:1.16364729"
         x="305.98935"
         y="-27.404772"
         id="tspan100" />
    </text>
    <text
       x="-799.76941"
       y="-32.750202"
       id="text106"
       style="font-size:13.9637661px;opacity:0.8;stroke-width:1.16364729">
      <tspan
         style="stroke-width:1.16364729"
         x="-799.76941"
         y="-32.750202"
         id="tspan104" />
    </text>
    <text
       x="283.06528"
       y="-235.32372"
       id="text110"
       style="font-size:13.9637661px;opacity:0.8;stroke-width:1.16364729">
      <tspan
         style="stroke-width:1.16364729"
         x="283.06528"
         y="-235.32372"
         id="tspan108" />
    </text>
    <text
       x="-478.88889"
       y="-34.762508"
       id="text114"
       style="font-size:13.9637661px;opacity:0.8;stroke-width:1.16364729">
      <tspan
         style="stroke-width:1.16364729"
         x="-478.88889"
         y="-34.762508"
         id="tspan112" />
    </text>
    <text
       x="-1830.955"
       y="517.98486"
       id="text118"
       style="font-size:13.9637661px;opacity:0.8;stroke-width:1.16364729">
      <tspan
         style="stroke-width:1.16364729"
         x="-1830.955"
         y="517.98486"
         id="tspan116" />
    </text>
    <text
       x="-366.86972"
       y="-673.49438"
       id="text122"
       style="font-size:13.9637661px;opacity:0.8;stroke-width:1.16364729">
      <tspan
         style="stroke-width:1.16364729"
         x="-366.86972"
         y="-673.49438"
         id="tspan120" />
    </text>
    <text
       x="231.87997"
       y="-980.03784"
       id="text126"
       style="font-size:13.9637661px;opacity:0.8;stroke-width:1.16364729">
      <tspan
         style="stroke-width:1.16364729"
         x="231.87997"
         y="-980.03784"
         id="tspan124" />
    </text>
    <text
       x="249.64441"
       y="-1010.2433"
       id="text130"
       style="font-size:13.9637661px;opacity:0.8;stroke-width:1.16364729">
      <tspan
         style="stroke-width:1.16364729"
         x="249.64441"
         y="-1010.2433"
         id="tspan128" />
    </text>
    <text
       x="-856.11444"
       y="-1015.5887"
       id="text134"
       style="font-size:13.9637661px;opacity:0.8;stroke-width:1.16364729">
      <tspan
         style="stroke-width:1.16364729"
         x="-856.11444"
         y="-1015.5887"
         id="tspan132" />
    </text>
    <text
       x="226.72028"
       y="-1218.1624"
       id="text138"
       style="font-size:13.9637661px;opacity:0.8;stroke-width:1.16364729">
      <tspan
         style="stroke-width:1.16364729"
         x="226.72028"
         y="-1218.1624"
         id="tspan136" />
    </text>
    <text
       x="1328.52"
       y="-753.53851"
       id="text142"
       style="font-size:13.9637661px;opacity:0.8;stroke-width:1.16364729">
      <tspan
         style="stroke-width:1.16364729"
         x="1328.52"
         y="-753.53851"
         id="tspan140" />
    </text>
    <text
       x="1346.2844"
       y="-783.74396"
       id="text146"
       style="font-size:13.9637661px;opacity:0.8;stroke-width:1.16364729">
      <tspan
         style="stroke-width:1.16364729"
         x="1346.2844"
         y="-783.74396"
         id="tspan144" />
    </text>
    <text
       x="240.52585"
       y="-789.08936"
       id="text150"
       style="font-size:13.9637661px;opacity:0.8;stroke-width:1.16364729">
      <tspan
         style="stroke-width:1.16364729"
         x="240.52585"
         y="-789.08936"
         id="tspan148" />
    </text>
    <text
       x="1323.3605"
       y="-991.6629"
       id="text154"
       style="font-size:13.9637661px;opacity:0.8;stroke-width:1.16364729">
      <tspan
         style="stroke-width:1.16364729"
         x="1323.3605"
         y="-991.6629"
         id="tspan152" />
    </text>
    <text
       x="-454.76361"
       y="-824.7439"
       id="text158"
       style="font-size:13.9637661px;opacity:0.8;stroke-width:1.16364729">
      <tspan
         style="stroke-width:1.16364729"
         x="-454.76361"
         y="-824.7439"
         id="tspan156" />
    </text>
    <text
       x="-1806.8295"
       y="-271.99646"
       id="text162"
       style="font-size:13.9637661px;opacity:0.8;stroke-width:1.16364729">
      <tspan
         style="stroke-width:1.16364729"
         x="-1806.8295"
         y="-271.99646"
         id="tspan160" />
    </text>
    <text
       x="-535.52362"
       y="-203.14177"
       id="text166"
       style="font-size:13.9637661px;opacity:0.8;stroke-width:1.16364729">
      <tspan
         style="stroke-width:1.16364729"
         x="-535.52362"
         y="-203.14177"
         id="tspan164" />
    </text>
    <text
       x="87.256393"
       y="-24.529959"
       id="text170"
       style="font-size:13.9637661px;opacity:0.8;stroke-width:1.16364729">
      <tspan
         style="stroke-width:1.16364729"
         x="87.256393"
         y="-24.529959"
         id="tspan168" />
    </text>
    <text
       x="105.02084"
       y="-54.735527"
       id="text174"
       style="font-size:13.9637661px;opacity:0.8;stroke-width:1.16364729">
      <tspan
         style="stroke-width:1.16364729"
         x="105.02084"
         y="-54.735527"
         id="tspan172" />
    </text>
    <text
       x="-836.41101"
       y="-198.58679"
       id="text178"
       style="font-size:13.9637661px;opacity:0.8;stroke-width:1.16364729">
      <tspan
         style="stroke-width:1.16364729"
         x="-836.41101"
         y="-198.58679"
         id="tspan176" />
    </text>
    <text
       x="-237.66138"
       y="-505.13025"
       id="text182"
       style="font-size:13.9637661px;opacity:0.8;stroke-width:1.16364729">
      <tspan
         style="stroke-width:1.16364729"
         x="-237.66138"
         y="-505.13025"
         id="tspan180" />
    </text>
    <text
       x="-219.89693"
       y="-535.33582"
       id="text186"
       style="font-size:13.9637661px;opacity:0.8;stroke-width:1.16364729">
      <tspan
         style="stroke-width:1.16364729"
         x="-219.89693"
         y="-535.33582"
         id="tspan184" />
    </text>
    <text
       x="-1325.6555"
       y="-540.68121"
       id="text190"
       style="font-size:13.9637661px;opacity:0.8;stroke-width:1.16364729">
      <tspan
         style="stroke-width:1.16364729"
         x="-1325.6555"
         y="-540.68121"
         id="tspan188" />
    </text>
    <text
       x="-242.82106"
       y="-743.25482"
       id="text194"
       style="font-size:13.9637661px;opacity:0.8;stroke-width:1.16364729">
      <tspan
         style="stroke-width:1.16364729"
         x="-242.82106"
         y="-743.25482"
         id="tspan192" />
    </text>
    <text
       x="858.97882"
       y="-278.6308"
       id="text198"
       style="font-size:13.9637661px;opacity:0.8;stroke-width:1.16364729">
      <tspan
         style="stroke-width:1.16364729"
         x="858.97882"
         y="-278.6308"
         id="tspan196" />
    </text>
    <text
       x="876.74304"
       y="-308.83643"
       id="text202"
       style="font-size:13.9637661px;opacity:0.8;stroke-width:1.16364729">
      <tspan
         style="stroke-width:1.16364729"
         x="876.74304"
         y="-308.83643"
         id="tspan200" />
    </text>
    <text
       x="-229.0155"
       y="-314.18185"
       id="text206"
       style="font-size:13.9637661px;opacity:0.8;stroke-width:1.16364729">
      <tspan
         style="stroke-width:1.16364729"
         x="-229.0155"
         y="-314.18185"
         id="tspan204" />
    </text>
    <text
       x="853.81897"
       y="-516.75537"
       id="text210"
       style="font-size:13.9637661px;opacity:0.8;stroke-width:1.16364729">
      <tspan
         style="stroke-width:1.16364729"
         x="853.81897"
         y="-516.75537"
         id="tspan208" />
    </text>
    <text
       x="-924.30499"
       y="-349.83633"
       id="text214"
       style="font-size:13.9637661px;opacity:0.8;stroke-width:1.16364729">
      <tspan
         style="stroke-width:1.16364729"
         x="-924.30499"
         y="-349.83633"
         id="tspan212" />
    </text>
    <text
       x="-2276.3711"
       y="202.91116"
       id="text218"
       style="font-size:13.9637661px;opacity:0.8;stroke-width:1.16364729">
      <tspan
         style="stroke-width:1.16364729"
         x="-2276.3711"
         y="202.91116"
         id="tspan216" />
    </text>
    <text
       x="-1005.069"
       y="271.76538"
       id="text222"
       style="font-size:13.9637661px;opacity:0.8;stroke-width:1.16364729">
      <tspan
         style="stroke-width:1.16364729"
         x="-1005.069"
         y="271.76538"
         id="tspan220" />
    </text>
    <text
       x="622.26996"
       y="8.8377542"
       id="text226"
       style="font-size:13.9637661px;opacity:0.8;stroke-width:1.16364729">
      <tspan
         style="stroke-width:1.16364729"
         x="622.26996"
         y="8.8377542"
         id="tspan224" />
    </text>
    <text
       x="640.03436"
       y="-21.367819"
       id="text230"
       style="font-size:13.9637661px;opacity:0.8;stroke-width:1.16364729">
      <tspan
         style="stroke-width:1.16364729"
         x="640.03436"
         y="-21.367819"
         id="tspan228" />
    </text>
    <text
       x="-450.22568"
       y="-43.667488"
       id="text234"
       style="font-size:13.9637661px;opacity:0.8;stroke-width:1.16364729">
      <tspan
         style="stroke-width:1.16364729"
         x="-450.22568"
         y="-43.667488"
         id="tspan232" />
    </text>
    <text
       x="-1802.2917"
       y="509.0798"
       id="text238"
       style="font-size:13.9637661px;opacity:0.8;stroke-width:1.16364729">
      <tspan
         style="stroke-width:1.16364729"
         x="-1802.2917"
         y="509.0798"
         id="tspan236" />
    </text>
    <text
       x="-365.3429"
       y="-329.34134"
       id="text242"
       style="font-size:13.9637661px;opacity:0.8;stroke-width:1.16364729">
      <tspan
         style="stroke-width:1.16364729"
         x="-365.3429"
         y="-329.34134"
         id="tspan240" />
    </text>
    <text
       x="233.40685"
       y="-635.88483"
       id="text246"
       style="font-size:13.9637661px;opacity:0.8;stroke-width:1.16364729">
      <tspan
         style="stroke-width:1.16364729"
         x="233.40685"
         y="-635.88483"
         id="tspan244" />
    </text>
    <text
       x="251.1712"
       y="-666.09045"
       id="text250"
       style="font-size:13.9637661px;opacity:0.8;stroke-width:1.16364729">
      <tspan
         style="stroke-width:1.16364729"
         x="251.1712"
         y="-666.09045"
         id="tspan248" />
    </text>
    <text
       x="-854.58752"
       y="-671.43573"
       id="text254"
       style="font-size:13.9637661px;opacity:0.8;stroke-width:1.16364729">
      <tspan
         style="stroke-width:1.16364729"
         x="-854.58752"
         y="-671.43573"
         id="tspan252" />
    </text>
    <text
       x="228.24713"
       y="-874.00934"
       id="text258"
       style="font-size:13.9637661px;opacity:0.8;stroke-width:1.16364729">
      <tspan
         style="stroke-width:1.16364729"
         x="228.24713"
         y="-874.00934"
         id="tspan256" />
    </text>
    <text
       x="1330.0471"
       y="-409.38541"
       id="text262"
       style="font-size:13.9637661px;opacity:0.8;stroke-width:1.16364729">
      <tspan
         style="stroke-width:1.16364729"
         x="1330.0471"
         y="-409.38541"
         id="tspan260" />
    </text>
    <text
       x="1347.8114"
       y="-439.591"
       id="text266"
       style="font-size:13.9637661px;opacity:0.8;stroke-width:1.16364729">
      <tspan
         style="stroke-width:1.16364729"
         x="1347.8114"
         y="-439.591"
         id="tspan264" />
    </text>
    <text
       x="242.05264"
       y="-444.93637"
       id="text270"
       style="font-size:13.9637661px;opacity:0.8;stroke-width:1.16364729">
      <tspan
         style="stroke-width:1.16364729"
         x="242.05264"
         y="-444.93637"
         id="tspan268" />
    </text>
    <text
       x="1324.8873"
       y="-647.50989"
       id="text274"
       style="font-size:13.9637661px;opacity:0.8;stroke-width:1.16364729">
      <tspan
         style="stroke-width:1.16364729"
         x="1324.8873"
         y="-647.50989"
         id="tspan272" />
    </text>
    <text
       x="-453.23676"
       y="-480.59088"
       id="text278"
       style="font-size:13.9637661px;opacity:0.8;stroke-width:1.16364729">
      <tspan
         style="stroke-width:1.16364729"
         x="-453.23676"
         y="-480.59088"
         id="tspan276" />
    </text>
    <text
       x="-1805.3026"
       y="72.156532"
       id="text282"
       style="font-size:13.9637661px;opacity:0.8;stroke-width:1.16364729">
      <tspan
         style="stroke-width:1.16364729"
         x="-1805.3026"
         y="72.156532"
         id="tspan280" />
    </text>
    <text
       x="-533.99677"
       y="141.01114"
       id="text286"
       style="font-size:13.9637661px;opacity:0.8;stroke-width:1.16364729">
      <tspan
         style="stroke-width:1.16364729"
         x="-533.99677"
         y="141.01114"
         id="tspan284" />
    </text>
    <text
       x="288.22498"
       y="8.1670094"
       id="text290"
       style="font-size:13.9637661px;opacity:0.8;stroke-width:1.16364729">
      <tspan
         style="stroke-width:1.16364729"
         x="288.22498"
         y="8.1670094"
         id="tspan288" />
    </text>
    <text
       x="305.98935"
       y="-22.038597"
       id="text294"
       style="font-size:13.9637661px;opacity:0.8;stroke-width:1.16364729">
      <tspan
         style="stroke-width:1.16364729"
         x="305.98935"
         y="-22.038597"
         id="tspan292" />
    </text>
    <text
       x="-799.76941"
       y="-27.383997"
       id="text298"
       style="font-size:13.9637661px;opacity:0.8;stroke-width:1.16364729">
      <tspan
         style="stroke-width:1.16364729"
         x="-799.76941"
         y="-27.383997"
         id="tspan296" />
    </text>
    <text
       x="283.06528"
       y="-229.95752"
       id="text302"
       style="font-size:13.9637661px;opacity:0.8;stroke-width:1.16364729">
      <tspan
         style="stroke-width:1.16364729"
         x="283.06528"
         y="-229.95752"
         id="tspan300" />
    </text>
    <text
       x="-478.88889"
       y="-29.396338"
       id="text306"
       style="font-size:13.9637661px;opacity:0.8;stroke-width:1.16364729">
      <tspan
         style="stroke-width:1.16364729"
         x="-478.88889"
         y="-29.396338"
         id="tspan304" />
    </text>
    <text
       x="-1830.955"
       y="523.35107"
       id="text310"
       style="font-size:13.9637661px;opacity:0.8;stroke-width:1.16364729">
      <tspan
         style="stroke-width:1.16364729"
         x="-1830.955"
         y="523.35107"
         id="tspan308" />
    </text>
    <text
       x="-366.86972"
       y="-668.12817"
       id="text314"
       style="font-size:13.9637661px;opacity:0.8;stroke-width:1.16364729">
      <tspan
         style="stroke-width:1.16364729"
         x="-366.86972"
         y="-668.12817"
         id="tspan312" />
    </text>
    <text
       x="231.87997"
       y="-974.67157"
       id="text318"
       style="font-size:13.9637661px;opacity:0.8;stroke-width:1.16364729">
      <tspan
         style="stroke-width:1.16364729"
         x="231.87997"
         y="-974.67157"
         id="tspan316" />
    </text>
    <text
       x="249.64441"
       y="-1004.8772"
       id="text322"
       style="font-size:13.9637661px;opacity:0.8;stroke-width:1.16364729">
      <tspan
         style="stroke-width:1.16364729"
         x="249.64441"
         y="-1004.8772"
         id="tspan320" />
    </text>
    <text
       x="-856.11444"
       y="-1010.2225"
       id="text326"
       style="font-size:13.9637661px;opacity:0.8;stroke-width:1.16364729">
      <tspan
         style="stroke-width:1.16364729"
         x="-856.11444"
         y="-1010.2225"
         id="tspan324" />
    </text>
    <text
       x="226.72028"
       y="-1212.796"
       id="text330"
       style="font-size:13.9637661px;opacity:0.8;stroke-width:1.16364729">
      <tspan
         style="stroke-width:1.16364729"
         x="226.72028"
         y="-1212.796"
         id="tspan328" />
    </text>
    <text
       x="1328.52"
       y="-748.1723"
       id="text334"
       style="font-size:13.9637661px;opacity:0.8;stroke-width:1.16364729">
      <tspan
         style="stroke-width:1.16364729"
         x="1328.52"
         y="-748.1723"
         id="tspan332" />
    </text>
    <text
       x="1346.2844"
       y="-778.37787"
       id="text338"
       style="font-size:13.9637661px;opacity:0.8;stroke-width:1.16364729">
      <tspan
         style="stroke-width:1.16364729"
         x="1346.2844"
         y="-778.37787"
         id="tspan336" />
    </text>
    <text
       x="240.52585"
       y="-783.72321"
       id="text342"
       style="font-size:13.9637661px;opacity:0.8;stroke-width:1.16364729">
      <tspan
         style="stroke-width:1.16364729"
         x="240.52585"
         y="-783.72321"
         id="tspan340" />
    </text>
    <text
       x="1323.3605"
       y="-986.29669"
       id="text346"
       style="font-size:13.9637661px;opacity:0.8;stroke-width:1.16364729">
      <tspan
         style="stroke-width:1.16364729"
         x="1323.3605"
         y="-986.29669"
         id="tspan344" />
    </text>
    <text
       x="-454.76361"
       y="-819.37769"
       id="text350"
       style="font-size:13.9637661px;opacity:0.8;stroke-width:1.16364729">
      <tspan
         style="stroke-width:1.16364729"
         x="-454.76361"
         y="-819.37769"
         id="tspan348" />
    </text>
    <text
       x="-1806.8295"
       y="-266.63025"
       id="text354"
       style="font-size:13.9637661px;opacity:0.8;stroke-width:1.16364729">
      <tspan
         style="stroke-width:1.16364729"
         x="-1806.8295"
         y="-266.63025"
         id="tspan352" />
    </text>
    <text
       x="-535.52362"
       y="-197.7756"
       id="text358"
       style="font-size:13.9637661px;opacity:0.8;stroke-width:1.16364729">
      <tspan
         style="stroke-width:1.16364729"
         x="-535.52362"
         y="-197.7756"
         id="tspan356" />
    </text>
    <text
       x="87.256393"
       y="-19.163786"
       id="text362"
       style="font-size:13.9637661px;opacity:0.8;stroke-width:1.16364729">
      <tspan
         style="stroke-width:1.16364729"
         x="87.256393"
         y="-19.163786"
         id="tspan360" />
    </text>
    <text
       x="105.02084"
       y="-49.369358"
       id="text366"
       style="font-size:13.9637661px;opacity:0.8;stroke-width:1.16364729">
      <tspan
         style="stroke-width:1.16364729"
         x="105.02084"
         y="-49.369358"
         id="tspan364" />
    </text>
    <text
       x="-836.41101"
       y="-193.2206"
       id="text370"
       style="font-size:13.9637661px;opacity:0.8;stroke-width:1.16364729">
      <tspan
         style="stroke-width:1.16364729"
         x="-836.41101"
         y="-193.2206"
         id="tspan368" />
    </text>
    <text
       x="-237.66138"
       y="-499.76407"
       id="text374"
       style="font-size:13.9637661px;opacity:0.8;stroke-width:1.16364729">
      <tspan
         style="stroke-width:1.16364729"
         x="-237.66138"
         y="-499.76407"
         id="tspan372" />
    </text>
    <text
       x="-219.89693"
       y="-529.9696"
       id="text378"
       style="font-size:13.9637661px;opacity:0.8;stroke-width:1.16364729">
      <tspan
         style="stroke-width:1.16364729"
         x="-219.89693"
         y="-529.9696"
         id="tspan376" />
    </text>
    <text
       x="-1325.6555"
       y="-535.31506"
       id="text382"
       style="font-size:13.9637661px;opacity:0.8;stroke-width:1.16364729">
      <tspan
         style="stroke-width:1.16364729"
         x="-1325.6555"
         y="-535.31506"
         id="tspan380" />
    </text>
    <text
       x="-242.82106"
       y="-737.88861"
       id="text386"
       style="font-size:13.9637661px;opacity:0.8;stroke-width:1.16364729">
      <tspan
         style="stroke-width:1.16364729"
         x="-242.82106"
         y="-737.88861"
         id="tspan384" />
    </text>
    <text
       x="858.97882"
       y="-273.26465"
       id="text390"
       style="font-size:13.9637661px;opacity:0.8;stroke-width:1.16364729">
      <tspan
         style="stroke-width:1.16364729"
         x="858.97882"
         y="-273.26465"
         id="tspan388" />
    </text>
    <text
       x="876.74304"
       y="-303.47025"
       id="text394"
       style="font-size:13.9637661px;opacity:0.8;stroke-width:1.16364729">
      <tspan
         style="stroke-width:1.16364729"
         x="876.74304"
         y="-303.47025"
         id="tspan392" />
    </text>
    <text
       x="-229.0155"
       y="-308.81561"
       id="text398"
       style="font-size:13.9637661px;opacity:0.8;stroke-width:1.16364729">
      <tspan
         style="stroke-width:1.16364729"
         x="-229.0155"
         y="-308.81561"
         id="tspan396" />
    </text>
    <text
       x="853.81897"
       y="-511.38919"
       id="text402"
       style="font-size:13.9637661px;opacity:0.8;stroke-width:1.16364729">
      <tspan
         style="stroke-width:1.16364729"
         x="853.81897"
         y="-511.38919"
         id="tspan400" />
    </text>
    <text
       x="-924.30499"
       y="-344.47012"
       id="text406"
       style="font-size:13.9637661px;opacity:0.8;stroke-width:1.16364729">
      <tspan
         style="stroke-width:1.16364729"
         x="-924.30499"
         y="-344.47012"
         id="tspan404" />
    </text>
    <text
       x="-2276.3711"
       y="208.27727"
       id="text410"
       style="font-size:13.9637661px;opacity:0.8;stroke-width:1.16364729">
      <tspan
         style="stroke-width:1.16364729"
         x="-2276.3711"
         y="208.27727"
         id="tspan408" />
    </text>
    <text
       x="-1005.069"
       y="277.13303"
       id="text414"
       style="font-size:13.9637661px;opacity:0.8;stroke-width:1.16364729">
      <tspan
         style="stroke-width:1.16364729"
         x="-1005.069"
         y="277.13303"
         id="tspan412" />
    </text>
    <text
       style="font-size:13.9637661px;stroke-width:1.16364729"
       x="295.07736"
       y="-272.35446"
       id="text420">
      <tspan
         style="stroke-width:1.16364729"
         x="295.07736"
         y="-272.35446"
         id="tspan416" />
      <tspan
         style="stroke-width:1.16364729"
         x="295.07736"
         y="-260.61594"
         id="tspan418" />
    </text>
    <text
       x="639.96106"
       y="-629.73846"
       id="text424"
       style="font-size:13.9637661px;opacity:0.8;stroke-width:1.16364729">
      <tspan
         style="stroke-width:1.16364729"
         x="639.96106"
         y="-629.73846"
         id="tspan422" />
    </text>
    <text
       x="-712.10504"
       y="-76.991058"
       id="text428"
       style="font-size:13.9637661px;opacity:0.8;stroke-width:1.16364729">
      <tspan
         style="stroke-width:1.16364729"
         x="-712.10504"
         y="-76.991058"
         id="tspan426" />
    </text>
    <text
       x="1179.0118"
       y="-841.03204"
       id="text432"
       style="font-size:13.9637661px;opacity:0.8;stroke-width:1.16364729">
      <tspan
         style="stroke-width:1.16364729"
         x="1179.0118"
         y="-841.03204"
         id="tspan430" />
    </text>
    <text
       x="1196.7762"
       y="-871.23767"
       id="text436"
       style="font-size:13.9637661px;opacity:0.8;stroke-width:1.16364729">
      <tspan
         style="stroke-width:1.16364729"
         x="1196.7762"
         y="-871.23767"
         id="tspan434" />
    </text>
    <text
       x="91.01754"
       y="-876.58307"
       id="text440"
       style="font-size:13.9637661px;opacity:0.8;stroke-width:1.16364729">
      <tspan
         style="stroke-width:1.16364729"
         x="91.01754"
         y="-876.58307"
         id="tspan438" />
    </text>
    <text
       x="1173.8523"
       y="-1079.1565"
       id="text444"
       style="font-size:13.9637661px;opacity:0.8;stroke-width:1.16364729">
      <tspan
         style="stroke-width:1.16364729"
         x="1173.8523"
         y="-1079.1565"
         id="tspan442" />
    </text>
    <circle
       cx="-32.092655"
       cy="-66.955986"
       r="0"
       transform="rotate(-93.688343)"
       id="circle446"
       style="fill:#0044aa;stroke-width:1.16364717" />
    <text
       style="font-size:13.9637661px;stroke-width:1.16364729"
       x="-70.309708"
       y="49.952343"
       id="text450">
      <tspan
         x="-70.309708"
         y="49.952343"
         id="tspan448"
         style="fill:#ffffff;stroke-width:1.16364729" />
    </text>
    <rect
       rx="3.1869071"
       height="43.999996"
       ry="3.1869068"
       width="43.999996"
       x="2.000001"
       y="2.000001"
       id="rect14"
       style="fill:url(#linearGradient1848);fill-opacity:1;fill-rule:evenodd;stroke-width:1.06246042" />
    <path
       d="m 12.853641,11.2613 c -0.882137,0 -1.592342,0.567384 -1.592342,1.273101 v 22.929277 c 0,0.705716 0.710205,1.275022 1.592342,1.275022 h 22.292727 c 0.882137,0 1.592332,-0.569306 1.592332,-1.275022 V 12.534401 c 0,-0.705717 -0.710195,-1.273101 -1.592332,-1.273101 z m 11.022113,4.258975 c 0.750748,0 1.355299,0.60455 1.355299,1.355309 0,0.75076 -0.604551,1.355299 -1.355299,1.355299 -0.750758,0 -1.355307,-0.604539 -1.355307,-1.355299 0,-0.750759 0.60455,-1.355309 1.355307,-1.355309 z m -0.0044,5.421213 h 0.0078 c 0.748415,0 1.351476,0.601185 1.351476,1.349567 v 9.494759 c 0,0.748459 -0.603061,1.351477 -1.351476,1.351477 h -0.0078 c -0.748404,0 -1.351488,-0.603018 -1.351488,-1.351477 v -9.494759 c 0,-0.748382 0.603084,-1.349567 1.351488,-1.349567 z"
       id="path30"
       style="fill:#ffffff;fill-opacity:1;stroke-width:1.11075425" />
    <g
       transform="matrix(1.0882165,0,0,1.0340468,-418.0277,-518.38736)"
       id="g26"
       style="fill:#ffffff;fill-opacity:0.77551;stroke-width:1" />
    <g
       style="fill:#ffffff;fill-opacity:1;stroke-width:1"
       id="g1505"
       transform="matrix(-1.0882165,0,0,-1.0340468,466.0277,566.38736)">
      <path
         id="path1503"
         d="m 422.52101,532.23704 v 0.79641 h 0.79641 v -0.79641 z m 0.79641,0.79641 v 0.79641 h 0.79641 v -0.79641 z m 0,0.79641 h -0.79641 v 0.79641 h 0.79641 z m 0,0.79641 v 0.79641 h 0.79641 v -0.79641 z m 0,0.79641 h -0.79641 v 0.79641 h 0.79641 z m 0,0.79641 v 0.7964 h 0.79641 v -0.7964 z m 0,0.7964 h -0.79641 v 0.79642 h 0.79641 z m 0,0.79642 v 0.79641 h 0.79641 v -0.79641 z m 0,0.79641 h -0.79641 v 0.7964 h 0.79641 z m 0.79641,-14.33537 h -0.79642 v -0.79642 h 0.79642 z m -0.79642,-0.79642 H 422.521 v -0.79641 h 0.79641 z m 0,-0.79641 v -0.7964 h 0.79642 v 0.7964 z m 0,-0.7964 H 422.521 v -0.79641 h 0.79641 z m 0,-0.79641 v -0.79642 h 0.79642 v 0.79642 z m 0,-0.79642 H 422.521 v -0.79641 h 0.79641 z m 0,-0.79641 v -0.7964 h 0.79642 v 0.7964 z m 0,-0.7964 H 422.521 v -0.79642 h 0.79641 z m 0,-0.79642 v -0.79641 h 0.79642 v 0.79641 z m 0,-0.79641 H 422.521 v -0.7964 h 0.79641 z m 0,-0.7964 v -0.79641 h 0.79642 v 0.79641 z m 0,-0.79641 H 422.521 v -0.79642 h 0.79641 z m 0,-0.79642 v -0.7964 h 0.79642 v 0.7964 z m 0,-0.7964 H 422.521 v -0.79641 h 0.79641 z m 0,-0.79641 v -0.79642 h 0.79642 v 0.79642 z m 0,-0.79642 H 422.521 v -0.7964 h 0.79641 z m -35.04203,29.46716 v 0.79641 h 0.79642 v -0.79641 z m 0.79642,0.79641 v 0.79642 h 0.7964 v -0.79642 z m 0.7964,0 h 0.79641 v -0.79641 h -0.79641 z m 0.79641,0 v 0.79642 h 0.79642 v -0.79642 z m 0.79642,0 h 0.7964 v -0.79641 h -0.7964 z m 0.7964,0 v 0.79642 h 0.79641 v -0.79642 z m 0.79641,0 h 0.79642 v -0.79641 h -0.79642 z m 0.79642,0 v 0.79642 h 0.7964 v -0.79642 z m 0.7964,0 h 0.79641 v -0.79641 h -0.79641 z m 0.79641,0 v 0.79642 h 0.79641 v -0.79642 z m 0.79641,0 h 0.79642 v -0.79641 h -0.79642 z m 0.79642,0 v 0.79642 h 0.7964 v -0.79642 z m 0.7964,0 h 0.79641 v -0.79641 h -0.79641 z m 0.79641,0 v 0.79642 h 0.79642 v -0.79642 z m 0.79642,0 h 0.7964 v -0.79641 h -0.7964 z m 0.7964,0 v 0.79642 h 0.79641 v -0.79642 z m 23.09588,-0.79641 -1.59282,1.59283 h 1.59282 z m -3.18564,0 v 0.79641 h -0.79641 v -0.79641 z m -0.79641,0.79641 v 0.79642 h -0.7964 v -0.79642 z m -0.7964,0 h -0.79642 v -0.79641 h 0.79642 z m -0.79642,0 v 0.79642 h -0.79641 v -0.79642 z m -0.79641,0 h -0.7964 v -0.79641 h 0.7964 z m -0.7964,0 v 0.79642 h -0.79642 v -0.79642 z m -0.79642,0 h -0.79641 v -0.79641 h 0.79641 z m -0.79641,0 v 0.79642 h -0.7964 v -0.79642 z m -0.7964,0 h -0.79641 v -0.79641 h 0.79641 z m -0.79641,0 v 0.79642 h -0.79642 v -0.79642 z m -0.79642,0 h -0.7964 v -0.79641 h 0.7964 z m -0.7964,0 v 0.79642 h -0.79641 v -0.79642 z m -0.79641,0 h -0.79642 v -0.79641 h 0.79642 z m -0.79642,0 v 0.79642 h -0.7964 v -0.79642 z m -0.7964,0 h -0.79641 v -0.79641 h 0.79641 z m -0.79641,0 v 0.79642 h -0.79642 v -0.79642 z m -18.31741,-25.76974 v -0.79641 h -0.79641 v 0.79641 z m -0.79641,-0.79641 v -0.79641 h -0.79641 v 0.79641 z m 0,-0.79641 h 0.79641 v -0.79641 h -0.79641 z m 0,-0.79641 v -0.79641 h -0.79641 v 0.79641 z m 0,-0.79641 h 0.79641 v -0.79641 h -0.79641 z m 0,-0.79641 v -0.7964 h -0.79641 v 0.7964 z m 0,-0.7964 h 0.79641 v -0.79642 h -0.79641 z m 0,-0.79642 v -0.79641 h -0.79641 v 0.79641 z m 0,-0.79641 h 0.79641 v -0.7964 h -0.79641 z m -0.79641,14.33537 h 0.79642 v 0.79642 h -0.79642 z m 0.79642,0.79642 h 0.79641 v 0.79641 h -0.79641 z m 0,0.79641 v 0.7964 h -0.79642 v -0.7964 z m 0,0.7964 h 0.79641 v 0.79641 h -0.79641 z m 0,0.79641 v 0.79642 h -0.79642 v -0.79642 z m 0,0.79642 h 0.79641 v 0.79641 h -0.79641 z m 0,0.79641 v 0.7964 h -0.79642 v -0.7964 z m 0,0.7964 h 0.79641 v 0.79642 h -0.79641 z m 0,0.79642 v 0.79641 H 388.2754 V 531.156 Z m 0,0.79641 h 0.79641 v 0.7964 h -0.79641 z m 0,0.7964 v 0.79641 h -0.79642 v -0.79641 z m 0,0.79641 h 0.79641 v 0.79642 h -0.79641 z m 0,0.79642 v 0.7964 h -0.79642 v -0.7964 z m 0,0.7964 h 0.79641 v 0.79641 h -0.79641 z m 0,0.79641 v 0.79642 h -0.79642 v -0.79642 z m 0,0.79642 h 0.79641 v 0.7964 h -0.79641 z m 35.04203,-29.46716 v -0.79641 h -0.79642 v 0.79641 z m -0.79642,-0.79641 v -0.79642 h -0.7964 v 0.79642 z m -0.7964,0 h -0.79641 v 0.79641 h 0.79641 z m -0.79641,0 v -0.79642 h -0.79642 v 0.79642 z m -0.79642,0 h -0.7964 v 0.79641 h 0.7964 z m -0.7964,0 v -0.79642 h -0.79641 v 0.79642 z m -0.79641,0 h -0.79642 v 0.79641 h 0.79642 z m -0.79642,0 v -0.79642 h -0.7964 v 0.79642 z m -0.7964,0 h -0.79641 v 0.79641 h 0.79641 z m -0.79641,0 v -0.79642 h -0.79641 v 0.79642 z m -0.79641,0 h -0.79642 v 0.79641 h 0.79642 z m -0.79642,0 v -0.79642 h -0.7964 v 0.79642 z m -0.7964,0 h -0.79641 v 0.79641 h 0.79641 z m -0.79641,0 v -0.79642 h -0.79642 v 0.79642 z m -0.79642,0 h -0.7964 v 0.79641 h 0.7964 z m -0.7964,0 v -0.79642 h -0.79641 v 0.79642 z m -23.09588,0.79641 1.59282,-1.59283 h -1.59282 z m 3.18564,0 v -0.79641 h 0.79641 v 0.79641 z m 0.79641,-0.79641 v -0.79642 h 0.7964 v 0.79642 z m 0.7964,0 h 0.79642 v 0.79641 h -0.79642 z m 0.79642,0 v -0.79642 h 0.79641 v 0.79642 z m 0.79641,0 h 0.7964 v 0.79641 h -0.7964 z m 0.7964,0 v -0.79642 h 0.79642 v 0.79642 z m 0.79642,0 h 0.79641 v 0.79641 h -0.79641 z m 0.79641,0 v -0.79642 h 0.7964 v 0.79642 z m 0.7964,0 h 0.79641 v 0.79641 h -0.79641 z m 0.79641,0 v -0.79642 h 0.79642 v 0.79642 z m 0.79642,0 h 0.7964 v 0.79641 h -0.7964 z m 0.7964,0 v -0.79642 h 0.79641 v 0.79642 z m 0.79641,0 h 0.79642 v 0.79641 h -0.79642 z m 0.79642,0 v -0.79642 h 0.7964 v 0.79642 z m 0.7964,0 h 0.79641 v 0.79641 h -0.79641 z m 0.79641,0 v -0.79642 h 0.79642 v 0.79642 z"
         style="fill:#ffffff;fill-opacity:1;stroke-width:1" />
    </g>
  </g>
</svg>
