<?xml version="1.0" encoding="UTF-8" standalone="no"?>
<svg
   xmlns:dc="http://purl.org/dc/elements/1.1/"
   xmlns:cc="http://creativecommons.org/ns#"
   xmlns:rdf="http://www.w3.org/1999/02/22-rdf-syntax-ns#"
   xmlns:svg="http://www.w3.org/2000/svg"
   xmlns="http://www.w3.org/2000/svg"
   xmlns:sodipodi="http://sodipodi.sourceforge.net/DTD/sodipodi-0.dtd"
   xmlns:inkscape="http://www.inkscape.org/namespaces/inkscape"
   width="64px"
   height="64px"
   viewBox="0 0 64 64"
   version="1.1"
   id="svg35"
   sodipodi:docname="drive-removable-media.svg"
   inkscape:version="0.92.4 (unknown)">
  <metadata
     id="metadata39">
    <rdf:RDF>
      <cc:Work
         rdf:about="">
        <dc:format>image/svg+xml</dc:format>
        <dc:type
           rdf:resource="http://purl.org/dc/dcmitype/StillImage" />
      </cc:Work>
    </rdf:RDF>
  </metadata>
  <sodipodi:namedview
     pagecolor="#ffffff"
     bordercolor="#666666"
     borderopacity="1"
     objecttolerance="10"
     gridtolerance="10"
     guidetolerance="10"
     inkscape:pageopacity="0"
     inkscape:pageshadow="2"
     inkscape:window-width="1366"
     inkscape:window-height="709"
     id="namedview37"
     showgrid="false"
     inkscape:zoom="7.953125"
     inkscape:cx="32"
     inkscape:cy="32"
     inkscape:window-x="0"
     inkscape:window-y="0"
     inkscape:window-maximized="1"
     inkscape:current-layer="svg35" />
  <!-- Generator: Sketch 39.1 (31720) - http://www.bohemiancoding.com/sketch -->
  <title
     id="title2">drive-removable-media-usb-64px</title>
  <desc
     id="desc4">Created with Sketch.</desc>
  <defs
     id="defs11">
    <linearGradient
       x1="32.345956"
       y1="5.6248555"
       x2="32.345956"
       y2="50.478229"
       id="linearGradient-1"
       gradientTransform="scale(0.98930451,1.0108111)"
       gradientUnits="userSpaceOnUse">
      <stop
         stop-color="#CE85FE"
         offset="0%"
         id="stop6" />
      <stop
         stop-color="#A170FC"
         offset="100%"
         id="stop8" />
    </linearGradient>
  </defs>
  <g
     id="g842">
    <path
       inkscape:connector-curvature="0"
       style="fill:url(#linearGradient-1);fill-rule:evenodd;stroke:none;stroke-width:1"
       id="Rectangle-1"
       d="M 9,6.4973661 C 9,5.6703936 9.6680024,5 10.50435,5 h 42.991299 c 0.83083,0 1.50435,0.6644068 1.50435,1.4973661 L 55,52 H 9 Z" />
    <g
       style="fill:#ffffff;fill-rule:evenodd;stroke:none;stroke-width:1"
       transform="translate(25.333333,10.666667)"
       id="Group">
      <circle
         r="2.5"
         cy="24.833334"
         cx="7.1666665"
         id="Oval" />
      <polygon
         points="7.1666667,0.33333333 4.1666667,5.3333333 10.166667,5.3333333 "
         id="Shape" />
      <circle
         r="1.9906666"
         cy="11.324"
         cx="2.6573334"
         id="circle17" />
      <rect
         height="4"
         width="4"
         y="8.333333"
         x="9.666667"
         id="Rectangle-path" />
      <polygon
         points="6.6666667,25.333333 7.6666667,25.333333 7.6666667,3.3333333 6.6666667,3.3333333 6.6666667,23.074293 "
         id="polygon20" />
      <path
         inkscape:connector-curvature="0"
         id="path22"
         d="m 11.402667,10.132 v 3.217333 c 0,0.533334 -0.06133,0.742667 -0.484,1.145334 L 7.2626667,17.056 v 1.096 l 4.2706663,-3.094667 c 0,0 0.736,-0.441333 0.736,-1.637333 h -0.0027 v -3.289333 h -0.864 z" />
      <path
         inkscape:connector-curvature="0"
         id="path24"
         d="m 3.1826667,13.209333 v 3.153334 c 0,0.522666 0.061333,0.728 0.484,1.122666 l 3.656,2.510667 v 1.074667 L 3.052,18.037333 c 0,0 -0.736,-0.433333 -0.736,-1.604 H 2.32 v -3.222666 h 0.8626667 z" />
    </g>
    <path
       style="fill:#ffffff;fill-rule:evenodd;stroke:none;stroke-width:1"
       inkscape:connector-curvature="0"
       id="Rectangle-3"
       d="M 9,46.504739 C 9,45.673695 9.6680024,45 10.50435,45 h 42.9913 C 54.32648,45 55,45.668315 55,46.504739 V 53 H 9 Z" />
    <path
       style="fill:#dcdddd;fill-rule:evenodd;stroke:none;stroke-width:1"
       inkscape:connector-curvature="0"
       id="path28"
       d="M 9,51.506398 C 9,50.674437 9.6680024,50 10.50435,50 h 42.991299 c 0.830829,0 1.504349,0.676463 1.504349,1.506398 v 5.987204 C 54.999998,58.325563 54.331996,59 53.495649,59 H 10.50435 C 9.6735202,59 9,58.323537 9,57.493602 Z" />
    <path
       style="fill:#4d4d4d;fill-rule:evenodd;stroke:none;stroke-width:1"
       inkscape:connector-curvature="0"
       id="Combined-Shape"
       d="m 36,52.994667 h 1 v 3 h -1 z m 3,0 h 1 v 3 h -1 z m 3,0 h 1 v 3 h -1 z m 3,0 h 1 v 3 h -1 z m 3,0 h 1 v 3 h -1 z m 3,0 h 1 v 3 h -1 z" />
    <path
       style="fill:#4d4d4d;fill-rule:evenodd;stroke:none;stroke-width:1"
       inkscape:connector-curvature="0"
       id="path31"
       d="M 14.5,56 C 15.328427,56 16,55.328427 16,54.5 16,53.671573 15.328427,53 14.5,53 13.671573,53 13,53.671573 13,54.5 c 0,0.828427 0.671573,1.5 1.5,1.5 z" />
  </g>
</svg>
