<?xml version="1.0" encoding="UTF-8" standalone="no"?>
<!-- Created with Inkscape (http://www.inkscape.org/) -->

<svg
   xmlns:dc="http://purl.org/dc/elements/1.1/"
   xmlns:cc="http://creativecommons.org/ns#"
   xmlns:rdf="http://www.w3.org/1999/02/22-rdf-syntax-ns#"
   xmlns:svg="http://www.w3.org/2000/svg"
   xmlns="http://www.w3.org/2000/svg"
   xmlns:xlink="http://www.w3.org/1999/xlink"
   xmlns:sodipodi="http://sodipodi.sourceforge.net/DTD/sodipodi-0.dtd"
   xmlns:inkscape="http://www.inkscape.org/namespaces/inkscape"
   width="64"
   height="64"
   viewBox="0 0 16.933333 16.933334"
   version="1.1"
   id="svg8"
   inkscape:version="0.92.2 2405546, 2018-03-11"
   sodipodi:docname="application-rss.svg">
  <defs
     id="defs2">
    <linearGradient
       id="linearGradient863">
      <stop
         id="stop859"
         offset="0"
         style="stop-color:#a5a5a5;stop-opacity:1" />
      <stop
         id="stop861"
         offset="1"
         style="stop-color:#dbdbdb;stop-opacity:1" />
    </linearGradient>
    <linearGradient
       id="linearGradient822">
      <stop
         id="stop818"
         offset="0"
         style="stop-color:#0652ff;stop-opacity:1" />
      <stop
         id="stop820"
         offset="1"
         style="stop-color:#1b99ff;stop-opacity:1" />
    </linearGradient>
    <linearGradient
       gradientTransform="matrix(2.4445151,0,0,2.4445151,-974.7584,-1256.4318)"
       gradientUnits="userSpaceOnUse"
       x2="406.56763"
       y2="514.79797"
       y1="532.612"
       id="c-3"
       x1="411.66486">
      <stop
         id="stop12"
         stop-color="#7cbaf8"
         style="stop-color:#2e89fc;stop-opacity:1" />
      <stop
         id="stop14"
         stop-color="#f4fcff"
         offset="1"
         style="stop-color:#42f2ff;stop-opacity:1" />
    </linearGradient>
    <linearGradient
       gradientTransform="matrix(0.3097139,0,0,0.3097139,393.13824,522.33096)"
       gradientUnits="userSpaceOnUse"
       y2="2.4374466"
       x2="26.10714"
       y1="45.762711"
       x1="26.10714"
       id="linearGradient824"
       xlink:href="#linearGradient822" />
    <linearGradient
       gradientUnits="userSpaceOnUse"
       y2="545.22168"
       x2="400.55444"
       y1="517.83185"
       x1="400.55444"
       id="linearGradient865"
       xlink:href="#linearGradient863" />
    <linearGradient
       gradientTransform="matrix(0.34001978,0,0,0.34055744,-36.834059,-298.44484)"
       gradientUnits="userSpaceOnUse"
       y2="47.728813"
       x2="130.16949"
       y1="6.7796607"
       x1="130.16949"
       id="linearGradient1455"
       xlink:href="#linearGradient1497"
       inkscape:collect="always" />
    <linearGradient
       inkscape:collect="always"
       id="linearGradient1497">
      <stop
         style="stop-color:#a8a8a8;stop-opacity:1"
         offset="0"
         id="stop1493" />
      <stop
         style="stop-color:#d0d0d0;stop-opacity:1"
         offset="1"
         id="stop1495" />
    </linearGradient>
    <linearGradient
       gradientTransform="matrix(0.34001978,0,0,0.34055744,-35.214053,-297.09271)"
       y2="47.728813"
       x2="130.16949"
       y1="6.7796607"
       x1="130.16949"
       gradientUnits="userSpaceOnUse"
       id="linearGradient1468"
       xlink:href="#linearGradient1453"
       inkscape:collect="always" />
    <linearGradient
       id="linearGradient1453"
       inkscape:collect="always">
      <stop
         id="stop1449"
         offset="0"
         style="stop-color:#ff771d;stop-opacity:1" />
      <stop
         id="stop1451"
         offset="1"
         style="stop-color:#ff944d;stop-opacity:1" />
    </linearGradient>
  </defs>
  <sodipodi:namedview
     id="base"
     pagecolor="#ffffff"
     bordercolor="#666666"
     borderopacity="1.0"
     inkscape:pageopacity="0.0"
     inkscape:pageshadow="2"
     inkscape:zoom="7.640625"
     inkscape:cx="6.3476483"
     inkscape:cy="32"
     inkscape:document-units="px"
     inkscape:current-layer="layer1"
     showgrid="false"
     units="px"
     inkscape:showpageshadow="false"
     inkscape:window-width="1366"
     inkscape:window-height="701"
     inkscape:window-x="0"
     inkscape:window-y="0"
     inkscape:window-maximized="1" />
  <metadata
     id="metadata5">
    <rdf:RDF>
      <cc:Work
         rdf:about="">
        <dc:format>image/svg+xml</dc:format>
        <dc:type
           rdf:resource="http://purl.org/dc/dcmitype/StillImage" />
        <dc:title></dc:title>
      </cc:Work>
    </rdf:RDF>
  </metadata>
  <g
     inkscape:label="Layer 1"
     inkscape:groupmode="layer"
     id="layer1"
     transform="translate(0,-280.06665)">
    <rect
       style="opacity:1;vector-effect:none;fill:url(#linearGradient1455);fill-opacity:1;stroke:none;stroke-width:0.79374999;stroke-linecap:round;stroke-linejoin:miter;stroke-miterlimit:4;stroke-dasharray:none;stroke-dashoffset:0;stroke-opacity:1;paint-order:stroke fill markers"
       id="rect1243"
       width="11.079996"
       height="14.522863"
       x="2.116667"
       y="-296.47083"
       transform="scale(1,-1)" />
    <rect
       transform="scale(1,-1)"
       y="-295.11868"
       x="3.7366705"
       height="14.522863"
       width="11.079996"
       id="rect1466"
       style="opacity:1;vector-effect:none;fill:url(#linearGradient1468);fill-opacity:1;stroke:none;stroke-width:0.79374999;stroke-linecap:round;stroke-linejoin:miter;stroke-miterlimit:4;stroke-dasharray:none;stroke-dashoffset:0;stroke-opacity:1;paint-order:stroke fill markers" />
    <text
       xml:space="preserve"
       style="font-style:normal;font-weight:normal;font-size:10.58333302px;line-height:1.25;font-family:sans-serif;letter-spacing:0px;word-spacing:0px;fill:#000000;fill-opacity:1;stroke:none;stroke-width:0.26458335"
       x="-33.338737"
       y="286.29678"
       id="text879"><tspan
         sodipodi:role="line"
         id="tspan877"
         x="-33.338737"
         y="295.66055"
         style="stroke-width:0.26458335" /></text>
    <text
       xml:space="preserve"
       style="font-style:normal;font-weight:normal;font-size:10.58333302px;line-height:1.25;font-family:sans-serif;letter-spacing:0px;word-spacing:0px;fill:#000000;fill-opacity:1;stroke:none;stroke-width:0.26458335"
       x="-31.651335"
       y="284.46967"
       id="text879-5"><tspan
         sodipodi:role="line"
         id="tspan877-6"
         x="-31.651335"
         y="293.83344"
         style="stroke-width:0.26458335" /></text>
    <text
       xml:space="preserve"
       style="font-style:normal;font-weight:normal;font-size:10.58333302px;line-height:1.25;font-family:sans-serif;letter-spacing:0px;word-spacing:0px;fill:#000000;fill-opacity:1;stroke:none;stroke-width:0.26458335"
       x="-35.841381"
       y="294.33881"
       id="text879-8"><tspan
         sodipodi:role="line"
         id="tspan877-7"
         x="-35.841381"
         y="303.70258"
         style="stroke-width:0.26458335" /></text>
    <path
       style="fill:#ffffff;stroke-width:0.01040602"
       inkscape:connector-curvature="0"
       d="m 7.1345241,285.21144 c 0.440004,0 0.8636046,0.0569 1.2708014,0.1708 0.4071968,0.11386 0.7883408,0.275 1.1434224,0.48342 0.3551005,0.20842 0.6783491,0.45834 0.9697841,0.74975 0.291397,0.2914 0.541311,0.61465 0.749744,0.96974 0.208394,0.35512 0.369536,0.73626 0.483425,1.14346 0.113871,0.40719 0.170801,0.83076 0.170801,1.2708 0,0.13895 -0.0492,0.2576 -0.147624,0.35605 -0.09842,0.0985 -0.217097,0.14761 -0.356046,0.14761 -0.138958,0 -0.257634,-0.0492 -0.356085,-0.14761 -0.0984,-0.0984 -0.147614,-0.2171 -0.147614,-0.35605 0,-0.3474 -0.04536,-0.6822 -0.136063,-1.00452 -0.0907,-0.32225 -0.218101,-0.62333 -0.382137,-0.90316 -0.164037,-0.27983 -0.360852,-0.53457 -0.5905322,-0.76422 -0.2296607,-0.22966 -0.484381,-0.4265 -0.7642177,-0.59054 -0.2798273,-0.16404 -0.5808828,-0.2914 -0.9031664,-0.38211 -0.3222838,-0.0907 -0.6571114,-0.13605 -1.0044831,-0.13605 -0.1389487,0 -0.2576341,-0.0492 -0.356056,-0.14763 -0.098422,-0.0984 -0.147633,-0.21711 -0.147633,-0.35605 0,-0.13896 0.049211,-0.25764 0.147633,-0.35607 0.098413,-0.0984 0.2170978,-0.14762 0.3560465,-0.14762 z m 0,1.90476 c 0.3975476,0 0.7709721,0.0762 1.1202736,0.22868 0.3493016,0.15246 0.6542168,0.35895 0.9147455,0.61948 0.2605382,0.26054 0.4670314,0.56544 0.6194796,0.91472 0.152467,0.34934 0.2286862,0.72273 0.2286862,1.12032 0,0.13894 -0.049202,0.25759 -0.147614,0.35604 -0.098422,0.0984 -0.2170978,0.14761 -0.3560842,0.14761 -0.1389488,0 -0.2576247,-0.0492 -0.3560466,-0.14761 -0.098422,-0.0984 -0.147633,-0.2171 -0.147633,-0.35604 0,-0.25862 -0.049211,-0.50178 -0.147633,-0.72949 -0.098422,-0.22773 -0.232546,-0.4265 -0.4023722,-0.59632 -0.1698261,-0.16984 -0.3685999,-0.30396 -0.5963215,-0.40238 -0.2277214,-0.0984 -0.4708815,-0.14761 -0.7294804,-0.14761 -0.1389487,0 -0.257634,-0.0492 -0.356056,-0.14763 -0.098422,-0.0984 -0.147633,-0.21712 -0.147633,-0.35606 0,-0.13896 0.049211,-0.25764 0.147633,-0.35606 0.098422,-0.0984 0.2171073,-0.14765 0.356056,-0.14765 z m 0.9263244,2.64581 c 0,0.10035 -0.018334,0.19298 -0.055001,0.2779 -0.036667,0.0849 -0.086843,0.15921 -0.1505277,0.2229 -0.063684,0.0636 -0.1389487,0.11386 -0.2257916,0.15053 -0.086843,0.0366 -0.1785103,0.055 -0.2750025,0.055 -0.1003518,0 -0.1929843,-0.0184 -0.2778973,-0.055 -0.084913,-0.0366 -0.1592121,-0.0869 -0.2228969,-0.15053 -0.063684,-0.0636 -0.1138607,-0.13798 -0.1505277,-0.2229 -0.036667,-0.0849 -0.055001,-0.17755 -0.055001,-0.2779 0,-0.0965 0.018334,-0.18816 0.055001,-0.27497 0.036667,-0.0869 0.086843,-0.16213 0.1505277,-0.22581 0.063685,-0.0637 0.1379838,-0.11384 0.2228969,-0.15052 0.084913,-0.0366 0.1775455,-0.055 0.2778973,-0.055 0.096492,0 0.1881597,0.0184 0.2750025,0.055 0.086843,0.0366 0.1621068,0.0868 0.2257916,0.15052 0.063684,0.0636 0.1138608,0.13896 0.1505277,0.22581 0.036667,0.0868 0.055001,0.17848 0.055001,0.27497 z"
       id="path868" />
  </g>
</svg>
