<?xml version="1.0" encoding="UTF-8" standalone="no"?>
<svg
   xmlns:dc="http://purl.org/dc/elements/1.1/"
   xmlns:cc="http://creativecommons.org/ns#"
   xmlns:rdf="http://www.w3.org/1999/02/22-rdf-syntax-ns#"
   xmlns:svg="http://www.w3.org/2000/svg"
   xmlns="http://www.w3.org/2000/svg"
   xmlns:xlink="http://www.w3.org/1999/xlink"
   xmlns:sodipodi="http://sodipodi.sourceforge.net/DTD/sodipodi-0.dtd"
   xmlns:inkscape="http://www.inkscape.org/namespaces/inkscape"
   height="64"
   viewBox="0 0 64 64"
   width="64"
   version="1.1"
   id="svg35"
   sodipodi:docname="application-x-perl.svg"
   inkscape:version="0.92.2 2405546, 2018-03-11">
  <metadata
     id="metadata41">
    <rdf:RDF>
      <cc:Work
         rdf:about="">
        <dc:format>image/svg+xml</dc:format>
        <dc:type
           rdf:resource="http://purl.org/dc/dcmitype/StillImage" />
        <dc:title></dc:title>
      </cc:Work>
    </rdf:RDF>
  </metadata>
  <defs
     id="defs39">
    <linearGradient
       id="b-3"
       gradientUnits="userSpaceOnUse"
       x1="407.0036"
       x2="407.0036"
       xlink:href="#a-3"
       y1="544.31207"
       y2="503.15005"
       gradientTransform="translate(-384.57143,-510.98444)" />
    <linearGradient
       id="linearGradient953">
      <stop
         offset="0"
         stop-color="#3889e9"
         id="stop2-6" />
      <stop
         offset="1"
         stop-color="#5ea5fb"
         id="stop4-7" />
    </linearGradient>
    <linearGradient
       id="b-3-9"
       gradientUnits="userSpaceOnUse"
       x1="407.0036"
       x2="407.0036"
       xlink:href="#a-3"
       y1="544.31207"
       y2="503.15005"
       gradientTransform="matrix(1.231681,0,0,1.24749,-531.06084,-644.60351)" />
    <linearGradient
       y2="1037.2084"
       y1="1013.622"
       xlink:href="#a-3"
       x2="34.116894"
       x1="33.461716"
       gradientUnits="userSpaceOnUse"
       gradientTransform="matrix(0.75298225,0,0,1,8.617543,0)"
       id="linearGradient1068" />
    <linearGradient
       id="linearGradient1072">
      <stop
         id="stop2-7"
         stop-color="#f6fbff"
         offset="0" />
      <stop
         id="stop4-0"
         stop-color="#eaeff2"
         offset="1" />
    </linearGradient>
    <linearGradient
       y2="1012.3622"
       y1="1036.3622"
       x2="17"
       x1="17"
       gradientUnits="userSpaceOnUse"
       gradientTransform="matrix(1.8137796,0,0,1.7592729,-16.353379,-1778.7364)"
       id="b-9">
      <stop
         id="stop7-3"
         stop-color="#8e44ad"
         offset="0" />
      <stop
         id="stop9-6"
         stop-color="#c370e5"
         offset="1" />
    </linearGradient>
    <linearGradient
       y2="1019.6814"
       y1="1032.542"
       xlink:href="#a-3"
       x2="25.822527"
       x1="15.23138"
       gradientUnits="userSpaceOnUse"
       id="d-0" />
    <linearGradient
       gradientTransform="translate(-407.39845,-504.82635)"
       y2="503.15005"
       y1="544.31207"
       xlink:href="#a-3"
       x2="407.0036"
       x1="407.0036"
       gradientUnits="userSpaceOnUse"
       id="b-3-9-3" />
    <linearGradient
       id="b-3-9-1"
       gradientUnits="userSpaceOnUse"
       x1="407.0036"
       x2="407.0036"
       xlink:href="#a-3"
       y1="544.31207"
       y2="503.15005"
       gradientTransform="matrix(1.231681,0,0,1.24749,-532.41677,-644.60354)" />
    <linearGradient
       inkscape:collect="always"
       xlink:href="#linearGradient1497"
       id="linearGradient1455"
       x1="130.16949"
       y1="6.7796607"
       x2="130.16949"
       y2="47.728813"
       gradientUnits="userSpaceOnUse"
       gradientTransform="matrix(1.2851141,0,0,1.2871462,-139.21534,-69.460854)" />
    <linearGradient
       id="linearGradient1497"
       inkscape:collect="always">
      <stop
         id="stop1493"
         offset="0"
         style="stop-color:#a8a8a8;stop-opacity:1" />
      <stop
         id="stop1495"
         offset="1"
         style="stop-color:#d0d0d0;stop-opacity:1" />
    </linearGradient>
    <linearGradient
       gradientTransform="translate(-1.3559327,2.6744092e-5)"
       inkscape:collect="always"
       xlink:href="#linearGradient940"
       id="linearGradient942"
       x1="36.067795"
       y1="-56.949154"
       x2="36.067795"
       y2="-3.2542372"
       gradientUnits="userSpaceOnUse" />
    <linearGradient
       inkscape:collect="always"
       id="linearGradient940">
      <stop
         style="stop-color:#a159bf;stop-opacity:1"
         offset="0"
         id="stop936" />
      <stop
         style="stop-color:#ce8fe8;stop-opacity:1"
         offset="1"
         id="stop938" />
    </linearGradient>
    <linearGradient
       gradientTransform="translate(-408.75438,-504.82638)"
       y2="503.15005"
       y1="544.31207"
       xlink:href="#a-3"
       x2="407.0036"
       x1="407.0036"
       gradientUnits="userSpaceOnUse"
       id="b-3-9-3-2" />
  </defs>
  <sodipodi:namedview
     pagecolor="#ffffff"
     bordercolor="#666666"
     borderopacity="1"
     objecttolerance="10"
     gridtolerance="10"
     guidetolerance="10"
     inkscape:pageopacity="0"
     inkscape:pageshadow="2"
     inkscape:window-width="1366"
     inkscape:window-height="701"
     id="namedview37"
     showgrid="false"
     inkscape:zoom="7.640625"
     inkscape:cx="6.3476483"
     inkscape:cy="32"
     inkscape:window-x="0"
     inkscape:window-y="0"
     inkscape:window-maximized="1"
     inkscape:current-layer="svg35"
     inkscape:snap-bbox="true"
     inkscape:bbox-paths="true"
     inkscape:snap-smooth-nodes="true"
     showguides="false" />
  <linearGradient
     id="a"
     gradientTransform="matrix(1.0749904,0,0,1.0292896,56.688954,-0.015285)"
     gradientUnits="userSpaceOnUse"
     x1="-74.929466"
     x2="-75.259552"
     y1="52.199436"
     y2="2.356489">
    <stop
       offset="0"
       stop-color="#8549a0"
       id="stop2" />
    <stop
       offset="1"
       stop-color="#c16fe3"
       id="stop4" />
  </linearGradient>
  <circle
     style="fill:url(#b-3-9-1);stroke-width:1"
     id="circle22"
     r="0"
     cy="8.7455873"
     cx="-29.307634" />
  <text
     xml:space="preserve"
     style="font-style:normal;font-weight:normal;font-size:49.58241272px;line-height:1.25;font-family:sans-serif;letter-spacing:0px;word-spacing:0px;fill:#000000;fill-opacity:1;stroke:none;stroke-width:1"
     x="-168.25241"
     y="15.102559"
     id="text879"
     transform="scale(0.99364347,1.0063972)"><tspan
       style="stroke-width:1"
       sodipodi:role="line"
       id="tspan877"
       x="-168.25241"
       y="58.971371" /></text>
  <rect
     transform="scale(1,-1)"
     y="-62.000011"
     x="7.9999986"
     height="54.889561"
     width="41.877155"
     id="rect1243"
     style="opacity:1;vector-effect:none;fill:url(#linearGradient1455);fill-opacity:1;stroke:none;stroke-width:3.00000024;stroke-linecap:round;stroke-linejoin:miter;stroke-miterlimit:4;stroke-dasharray:none;stroke-dashoffset:0;stroke-opacity:1;paint-order:stroke fill markers" />
  <rect
     style="opacity:1;vector-effect:none;fill:url(#linearGradient942);fill-opacity:1;stroke:none;stroke-width:3.00000024;stroke-linecap:round;stroke-linejoin:miter;stroke-miterlimit:4;stroke-dasharray:none;stroke-dashoffset:0;stroke-opacity:1;paint-order:stroke fill markers"
     id="rect1466"
     width="41.877155"
     height="54.889561"
     x="14.122847"
     y="-56.889549"
     transform="scale(1,-1)" />
  <text
     xml:space="preserve"
     style="font-style:normal;font-weight:normal;font-size:40px;line-height:1.25;font-family:sans-serif;letter-spacing:0px;word-spacing:0px;fill:#000000;fill-opacity:1;stroke:none;stroke-width:1"
     x="-166.60846"
     y="8.3475399"
     id="text879-5"><tspan
       sodipodi:role="line"
       id="tspan877-6"
       x="-166.60846"
       y="43.738163"
       style="stroke-width:1" /></text>
  <circle
     style="fill:url(#b-3-9-3-2)"
     id="circle22-6"
     r="0"
     cy="18.904579"
     cx="-0.28081274" />
  <text
     xml:space="preserve"
     style="font-style:normal;font-weight:normal;font-size:40px;line-height:1.25;font-family:sans-serif;letter-spacing:0px;word-spacing:0px;fill:#000000;fill-opacity:1;stroke:none"
     x="-112.22154"
     y="24.077837"
     id="text879-7"><tspan
       sodipodi:role="line"
       id="tspan877-5"
       x="-112.22154"
       y="59.468464" /></text>
  <path
     style="fill:#ffffff"
     inkscape:connector-curvature="0"
     d="m 44.421617,19.714062 c -0.70555,-0.0366 -0.82862,-0.96977 -1.51873,-1.01349 -0.36266,-0.0226 -1.04924,-0.0543 -1.64604,0.16276 -0.66507,-0.45465 -1.51873,-1.01168 -0.27119,1.15829 -0.2711,1.46369 -1.17535,5.56907 -2.13402,5.58623 -0.95817,0.0177 -1.59072,-1.73489 -2.4047,-1.71692 -0.814,0.0174 -0.814,0.0174 -0.814,0.0174 -0.95816,0 -1.58869,-1.69482 -3.52582,-1.75308 -1.21159,-0.0363 -2.16996,2.09635 -4.86444,2.3313 -0.72291,0.0545 -1.83566,0.33602 -1.94834,2.00317 0,0 -1.5887,1.48541 -0.84074,4.91673 0.18668,-1.70824 0.27977,-3.14065 0.84074,-4.07549 -0.0418,0.93273 0.24929,1.83779 0,2.80414 -0.24918,0.96522 -1.04146,2.61642 -1.04146,2.61642 0,0 -0.17356,0.34288 0.26271,1.52682 0.43597,1.18331 1.30832,4.11526 1.30832,4.11526 0.0445,0.51462 0.11692,0.78582 0.47847,1.02127 -0.0907,0.34237 -0.39568,1.02974 0.6891,1.02974 0.46474,4.1e-4 0,0 1.05186,0 0.73493,0 0.49574,-0.63163 -0.69121,-1.21108 0.0361,-0.43365 -0.23485,-0.88618 -0.41588,-0.97684 -0.43355,-1.10296 -0.99421,-3.21586 -0.99421,-3.21586 0,0 -0.19941,-1.84536 0.48796,-2.46074 0.68718,-0.61397 1.51743,-1.19181 2.07828,-3.23515 0.0177,-0.1452 0.95827,0.72361 2.83917,1.2655 1.88049,0.5434 3.32289,-0.0366 3.53299,0.0541 0.21001,0.0911 0.66215,1.19312 0.66215,2.26094 0,1.0665 -0.37964,1.77165 -0.37964,2.18752 0,0.41589 0.30744,1.1391 0.30744,1.1391 0,0 0.18063,1.98882 -0.0542,3.11036 -0.16286,0.70443 -0.43396,1.06236 0.65113,1.06397 1.08487,0.002 2.56756,0.23667 0.63315,-1.0463 0.16225,-0.39802 0.0358,-0.94141 -0.14518,-1.1391 -0.0363,-0.97665 0.073,-1.93572 0.25291,-2.33272 0.18094,-0.39841 0.0548,-1.5367 0.0908,-2.11494 0.0364,-0.57853 0.56056,-2.65771 1.1391,-3.39871 0.57863,-0.7424 3.14619,-2.92922 3.58055,-5.06262 0.43405,-2.13412 0.90415,-4.30488 2.17006,-4.2858 0.75906,0 0.88557,0.43364 1.21108,0.41588 0.32562,-0.0192 0.90426,-0.55896 0.90426,-0.84852 0,-0.28897 -0.0719,-0.88174 -1.48239,-0.89952 z"
     id="path874" />
</svg>
