<?xml version="1.0" encoding="UTF-8" standalone="no"?>
<svg
   xmlns:dc="http://purl.org/dc/elements/1.1/"
   xmlns:cc="http://creativecommons.org/ns#"
   xmlns:rdf="http://www.w3.org/1999/02/22-rdf-syntax-ns#"
   xmlns:svg="http://www.w3.org/2000/svg"
   xmlns="http://www.w3.org/2000/svg"
   xmlns:xlink="http://www.w3.org/1999/xlink"
   xmlns:sodipodi="http://sodipodi.sourceforge.net/DTD/sodipodi-0.dtd"
   xmlns:inkscape="http://www.inkscape.org/namespaces/inkscape"
   height="64"
   viewBox="0 0 64 64"
   width="64"
   version="1.1"
   id="svg29"
   sodipodi:docname="application-ascii.svg"
   inkscape:version="0.92.2 2405546, 2018-03-11">
  <metadata
     id="metadata35">
    <rdf:RDF>
      <cc:Work
         rdf:about="">
        <dc:format>image/svg+xml</dc:format>
        <dc:type
           rdf:resource="http://purl.org/dc/dcmitype/StillImage" />
      </cc:Work>
    </rdf:RDF>
  </metadata>
  <defs
     id="defs33">
    <linearGradient
       inkscape:collect="always"
       xlink:href="#linearGradient1497"
       id="linearGradient1455"
       x1="130.16949"
       y1="6.7796607"
       x2="130.16949"
       y2="47.728813"
       gradientUnits="userSpaceOnUse"
       gradientTransform="matrix(1.2851141,0,0,1.2871462,-139.21535,-69.460851)" />
    <linearGradient
       id="linearGradient1497"
       inkscape:collect="always">
      <stop
         id="stop1493"
         offset="0"
         style="stop-color:#a8a8a8;stop-opacity:1" />
      <stop
         id="stop1495"
         offset="1"
         style="stop-color:#d0d0d0;stop-opacity:1" />
    </linearGradient>
    <linearGradient
       inkscape:collect="always"
       xlink:href="#linearGradient1453"
       id="linearGradient1468"
       gradientUnits="userSpaceOnUse"
       x1="130.16949"
       y1="6.7796607"
       x2="130.16949"
       y2="47.728813"
       gradientTransform="matrix(1.2851141,0,0,1.2871462,-133.09249,-64.350438)" />
    <linearGradient
       inkscape:collect="always"
       id="linearGradient1453">
      <stop
         style="stop-color:#d3d7da;stop-opacity:1"
         offset="0"
         id="stop1449" />
      <stop
         style="stop-color:#eeeeee;stop-opacity:1"
         offset="1"
         id="stop1451" />
    </linearGradient>
  </defs>
  <sodipodi:namedview
     pagecolor="#ffffff"
     bordercolor="#666666"
     borderopacity="1"
     objecttolerance="10"
     gridtolerance="10"
     guidetolerance="10"
     inkscape:pageopacity="0"
     inkscape:pageshadow="2"
     inkscape:window-width="1366"
     inkscape:window-height="701"
     id="namedview31"
     showgrid="false"
     inkscape:zoom="7.640625"
     inkscape:cx="32"
     inkscape:cy="32"
     inkscape:window-x="0"
     inkscape:window-y="0"
     inkscape:window-maximized="1"
     inkscape:current-layer="svg29" />
  <linearGradient
     id="a"
     gradientTransform="matrix(1.0749904,0,0,1.0292896,113.08072,-0.192062)"
     gradientUnits="userSpaceOnUse"
     x1="-74.929466"
     x2="-75.259552"
     y1="52.199436"
     y2="2.356489">
    <stop
       offset="0"
       stop-color="#d1d7df"
       id="stop2" />
    <stop
       offset="1"
       stop-color="#e0e5e7"
       id="stop4" />
  </linearGradient>
  <rect
     transform="scale(1,-1)"
     y="-62.000011"
     x="8"
     height="54.889561"
     width="41.877155"
     id="rect1243"
     style="opacity:1;vector-effect:none;fill:url(#linearGradient1455);fill-opacity:1;stroke:none;stroke-width:3.00000024;stroke-linecap:round;stroke-linejoin:miter;stroke-miterlimit:4;stroke-dasharray:none;stroke-dashoffset:0;stroke-opacity:1;paint-order:stroke fill markers" />
  <rect
     style="opacity:1;vector-effect:none;fill:url(#linearGradient1468);fill-opacity:1;stroke:none;stroke-width:3.00000024;stroke-linecap:round;stroke-linejoin:miter;stroke-miterlimit:4;stroke-dasharray:none;stroke-dashoffset:0;stroke-opacity:1;paint-order:stroke fill markers"
     id="rect1466"
     width="41.877155"
     height="54.889561"
     x="14.122845"
     y="-56.889549"
     transform="scale(1,-1)" />
  <path
     style="fill:#4d4d4d;stroke-width:0.27500001"
     inkscape:connector-curvature="0"
     id="path25"
     d="m 41.061422,31.444769 h -2 v -4 h 2 c 2.209,0 4,-1.791 4,-4 0,-2.209 -1.791,-4 -4,-4 -2.20925,0 -4,1.791 -4,4 v 2 h -4 v -2 c 0,-2.209 -1.791,-4 -4,-4 -2.209,0 -4,1.791 -4,4 0,2.209 1.791,4 4,4 h 2 v 4 h -2 c -2.209,0 -4,1.791 -4,4 0,2.209 1.791,4 4,4 2.20925,0 4,-1.791 4,-4 v -2 h 4 v 1.995 c 0,0.002 -2.5e-4,0.0035 -2.5e-4,0.005 0,2.209 1.791,4 4,4 2.209,0 4,-1.791 4,-4 0,-2.209 -1.79075,-3.9995 -3.99975,-4 z m 0,-10 c 1.1045,0 2,0.8955 2,2 0,1.1045 -0.8955,2 -2,2 h -2 v -2 c 0,-1.1045 0.8955,-2 2,-2 z m -14,2 c 0,-1.1045 0.8955,-2 2,-2 1.1045,0 2,0.8955 2,2 v 2 h -2 c -1.1045,0 -2,-0.89575 -2,-2 z m 2,14 c -1.1045,0 -2,-0.8955 -2,-2 0,-1.1045 0.8955,-2 2,-2 h 2 v 2 c 0,1.1045 -0.8955,2 -2,2 z m 4,-6 v -4 h 4 v 4 z m 8,6 c -1.1045,0 -2,-0.8955 -2,-2 v -2 h 1.99975 c 1.1045,0 2,0.8955 2,2 0,1.1045 -0.89525,2 -1.99975,2 z" />
</svg>
