<?xml version="1.0" encoding="UTF-8" standalone="no"?>
<svg
   xmlns:dc="http://purl.org/dc/elements/1.1/"
   xmlns:cc="http://creativecommons.org/ns#"
   xmlns:rdf="http://www.w3.org/1999/02/22-rdf-syntax-ns#"
   xmlns:svg="http://www.w3.org/2000/svg"
   xmlns="http://www.w3.org/2000/svg"
   xmlns:xlink="http://www.w3.org/1999/xlink"
   xmlns:sodipodi="http://sodipodi.sourceforge.net/DTD/sodipodi-0.dtd"
   xmlns:inkscape="http://www.inkscape.org/namespaces/inkscape"
   height="64"
   viewBox="0 0 64 64"
   width="64"
   version="1.1"
   id="svg29"
   sodipodi:docname="application-x-trash.svg"
   inkscape:version="0.92.2 2405546, 2018-03-11">
  <metadata
     id="metadata35">
    <rdf:RDF>
      <cc:Work
         rdf:about="">
        <dc:format>image/svg+xml</dc:format>
        <dc:type
           rdf:resource="http://purl.org/dc/dcmitype/StillImage" />
      </cc:Work>
    </rdf:RDF>
  </metadata>
  <defs
     id="defs33">
    <linearGradient
       id="linearGradient863">
      <stop
         id="stop859"
         offset="0"
         style="stop-color:#a5a5a5;stop-opacity:1" />
      <stop
         id="stop861"
         offset="1"
         style="stop-color:#dbdbdb;stop-opacity:1" />
    </linearGradient>
    <linearGradient
       id="linearGradient822">
      <stop
         id="stop818"
         offset="0"
         style="stop-color:#0652ff;stop-opacity:1" />
      <stop
         id="stop820"
         offset="1"
         style="stop-color:#1b99ff;stop-opacity:1" />
    </linearGradient>
    <linearGradient
       gradientTransform="matrix(2.4445151,0,0,2.4445151,-974.7584,-1256.4318)"
       gradientUnits="userSpaceOnUse"
       x2="406.56763"
       y2="514.79797"
       y1="532.612"
       id="c-3"
       x1="411.66486">
      <stop
         id="stop12"
         stop-color="#7cbaf8"
         style="stop-color:#2e89fc;stop-opacity:1" />
      <stop
         id="stop14"
         stop-color="#f4fcff"
         offset="1"
         style="stop-color:#42f2ff;stop-opacity:1" />
    </linearGradient>
    <linearGradient
       gradientTransform="matrix(0.3097139,0,0,0.3097139,393.13824,522.33096)"
       gradientUnits="userSpaceOnUse"
       y2="2.4374466"
       x2="26.10714"
       y1="45.762711"
       x1="26.10714"
       id="linearGradient824"
       xlink:href="#linearGradient822" />
    <linearGradient
       gradientUnits="userSpaceOnUse"
       y2="545.22168"
       x2="400.55444"
       y1="517.83185"
       x1="400.55444"
       id="linearGradient865"
       xlink:href="#linearGradient863" />
    <linearGradient
       y2="2.3564889"
       y1="52.199436"
       x2="-75.259552"
       x1="-74.929466"
       gradientUnits="userSpaceOnUse"
       gradientTransform="matrix(1.0749904,0,0,1.0292896,56.688954,-0.015285)"
       id="a-3">
      <stop
         id="stop2-6"
         stop-color="#ffa400"
         offset="0" />
      <stop
         id="stop4-7"
         stop-color="#fd0"
         offset="1" />
    </linearGradient>
    <linearGradient
       y2="2.3564889"
       y1="52.199436"
       x2="-75.259552"
       x1="-74.929466"
       gradientUnits="userSpaceOnUse"
       gradientTransform="matrix(1.0749904,0,0,1.1792904,56.688954,-0.257355)"
       id="a-6">
      <stop
         id="stop2-2"
         stop-color="#ffa400"
         offset="0" />
      <stop
         id="stop4-9"
         stop-color="#fd0"
         offset="1" />
    </linearGradient>
    <linearGradient
       y2="2.3564889"
       y1="52.199436"
       x2="-75.259552"
       x1="-74.929466"
       gradientUnits="userSpaceOnUse"
       gradientTransform="matrix(1.0749904,0,0,1.0292896,21.661498,-12.949054)"
       id="a-1">
      <stop
         id="stop2-27"
         stop-color="#e41c1b"
         offset="0" />
      <stop
         id="stop4-0"
         stop-color="#f6211b"
         offset="1" />
    </linearGradient>
    <linearGradient
       gradientTransform="matrix(1.2851141,0,0,1.2871462,-139.21535,-69.460854)"
       gradientUnits="userSpaceOnUse"
       y2="47.728813"
       x2="130.16949"
       y1="6.7796607"
       x1="130.16949"
       id="linearGradient1455"
       xlink:href="#linearGradient1497"
       inkscape:collect="always" />
    <linearGradient
       inkscape:collect="always"
       id="linearGradient1497">
      <stop
         style="stop-color:#a8a8a8;stop-opacity:1"
         offset="0"
         id="stop1493" />
      <stop
         style="stop-color:#d0d0d0;stop-opacity:1"
         offset="1"
         id="stop1495" />
    </linearGradient>
    <linearGradient
       gradientTransform="matrix(1.2851141,0,0,1.2871462,-133.09249,-64.350404)"
       y2="47.728813"
       x2="130.16949"
       y1="6.0678883"
       x1="130.16949"
       gradientUnits="userSpaceOnUse"
       id="linearGradient1468"
       xlink:href="#linearGradient1453"
       inkscape:collect="always" />
    <linearGradient
       id="linearGradient1453"
       inkscape:collect="always">
      <stop
         id="stop1449"
         offset="0"
         style="stop-color:#ed1e1b;stop-opacity:1" />
      <stop
         id="stop1451"
         offset="1"
         style="stop-color:#ec5452;stop-opacity:1" />
    </linearGradient>
  </defs>
  <sodipodi:namedview
     pagecolor="#ffffff"
     bordercolor="#666666"
     borderopacity="1"
     objecttolerance="10"
     gridtolerance="10"
     guidetolerance="10"
     inkscape:pageopacity="0"
     inkscape:pageshadow="2"
     inkscape:window-width="1366"
     inkscape:window-height="701"
     id="namedview31"
     showgrid="false"
     inkscape:zoom="7.640625"
     inkscape:cx="6.3476483"
     inkscape:cy="32"
     inkscape:window-x="0"
     inkscape:window-y="0"
     inkscape:window-maximized="1"
     inkscape:current-layer="svg29" />
  <linearGradient
     id="a"
     gradientTransform="matrix(1.0749904,0,0,1.0292896,113.08072,-0.192062)"
     gradientUnits="userSpaceOnUse"
     x1="-74.929466"
     x2="-75.259552"
     y1="52.199436"
     y2="2.356489">
    <stop
       offset="0"
       stop-color="#2aaa76"
       id="stop2" />
    <stop
       offset="1"
       stop-color="#44d48b"
       id="stop4" />
  </linearGradient>
  <rect
     style="opacity:1;vector-effect:none;fill:url(#linearGradient1455);fill-opacity:1;stroke:none;stroke-width:3;stroke-linecap:round;stroke-linejoin:miter;stroke-miterlimit:4;stroke-dasharray:none;stroke-dashoffset:0;stroke-opacity:1;paint-order:stroke fill markers"
     id="rect1243"
     width="41.877151"
     height="54.889561"
     x="7.9999995"
     y="-62.000011"
     transform="scale(1,-1)" />
  <rect
     transform="scale(1,-1)"
     y="-56.889549"
     x="14.122849"
     height="54.889561"
     width="41.877151"
     id="rect1466"
     style="opacity:1;vector-effect:none;fill:url(#linearGradient1468);fill-opacity:1;stroke:none;stroke-width:3;stroke-linecap:round;stroke-linejoin:miter;stroke-miterlimit:4;stroke-dasharray:none;stroke-dashoffset:0;stroke-opacity:1;paint-order:stroke fill markers" />
  <path
     style="fill:#ffffff;stroke-width:0.84198761"
     inkscape:connector-curvature="0"
     id="path25"
     d="m 25.026235,25.897564 1.269565,1.017972 -1.194896,2.349037 c -0.597429,1.083195 0.428924,2.138367 1.082849,2.505679 0.643761,0.361595 1.642948,0.404576 2.576445,0.391547 l 1.680278,-2.818897 1.269557,0.70472 -2.203053,-4.189149 -4.480745,0.03904 z m 0.186684,5.750302 2.725797,5.167935 c 0.547645,0.717749 1.580724,0.887425 2.651128,0.861323 h 2.875151 V 32.783256 L 28.0134,32.744066 c -0.846335,0.0522 -1.954115,-0.130492 -2.800481,-1.096244 z m 17.149351,-9.523906 -1.483031,0.645996 -1.42276,-2.211282 c -0.633489,-1.061364 -2.03043,-0.651737 -2.660481,-0.242844 -0.620233,0.402508 -1.141315,1.278497 -1.582762,2.122674 l 1.587843,2.874767 -1.216113,0.797838 4.63835,0.05365 2.138954,-4.040752 z m -4.991303,-2.620173 -5.72599,-0.05902 c -0.877221,0.143505 -1.522666,0.988516 -2.019362,1.961962 l -1.393887,2.580608 4.170915,2.372605 2.676358,-4.874143 c 0.365828,-0.785009 1.058585,-1.690689 2.291966,-1.982124 z m 0.249076,19.940983 0.168321,-1.644317 2.574415,-0.204903 c 1.211674,-0.05412 1.539804,-1.506453 1.496794,-2.27022 -0.04233,-0.751848 -0.536316,-1.644217 -1.041792,-2.449701 l -3.21986,0.03139 -0.09041,-1.47833 -2.294401,4.137182 2.406883,3.878838 z m 4.652969,-3.209649 2.826199,-5.11078 C 45.402166,30.267373 44.99492,29.27839 44.406095,28.360647 l -1.523599,-2.502211 -4.044205,2.593344 2.856567,4.765221 c 0.491681,0.7089 0.927702,1.769744 0.578154,3.01812 z" />
  <path
     id="path2-3"
     d="m 95.947548,22.653686 1.00157,0.81437 -0.94267,1.87925 c -0.47132,0.86655 0.33838,1.71069 0.85428,2.00455 0.50787,0.28926 1.29613,0.32365 2.03258,0.31323 l 1.325592,-2.25513 1.00156,0.56378 -1.738012,-3.35134 -3.5349,0.0313 z m 0.14727,4.60026 2.1504,4.13437 c 0.43205,0.5742 1.24706,0.70993 2.091512,0.68906 h 2.26823 v -3.91511 l -4.300812,-0.0313 c -0.66768,0.0417 -1.54162,-0.10445 -2.20933,-0.87701 z m 13.529312,-7.61917 -1.16999,0.51679 -1.12244,-1.76903 c -0.49976,-0.84909 -1.60182,-0.52138 -2.09887,-0.19428 -0.48931,0.32202 -0.90039,1.02281 -1.24865,1.69816 l 1.25265,2.29983 -0.9594,0.63827 3.65925,0.0429 1.68745,-3.23261 z m -3.9377,-2.09616 -4.51729,-0.0471 c -0.69204,0.11484 -1.201242,0.79082 -1.593092,1.56958 l -1.09966,2.06449 3.290482,1.8981 2.1114,-3.89934 c 0.2886,-0.62801 0.83513,-1.35255 1.80816,-1.58571 z m 0.1965,15.95288 0.13286,-1.31547 2.03098,-0.16392 c 0.95589,-0.0433 1.21477,-1.20517 1.18083,-1.81617 -0.0334,-0.60149 -0.42311,-1.31539 -0.82188,-1.95978 l -2.54018,0.0252 -0.0714,-1.18267 -1.81007,3.30977 1.8988,3.10308 z m 3.67077,-2.56773 2.22961,-4.08864 c 0.23901,-0.68558 -0.0822,-1.47678 -0.5468,-2.21098 l -1.20198,-2.00178 -3.19051,2.0747 2.25357,3.81219 c 0.3879,0.56712 0.73187,1.41581 0.45611,2.41451 z"
     style="fill:#da4453;fill-opacity:1"
     inkscape:connector-curvature="0" />
  <text
     xml:space="preserve"
     style="font-style:normal;font-weight:normal;font-size:40px;line-height:1.25;font-family:sans-serif;letter-spacing:0px;word-spacing:0px;fill:#000000;fill-opacity:1;stroke:none;stroke-width:1"
     x="-176.71657"
     y="12.157109"
     id="text879"><tspan
       sodipodi:role="line"
       id="tspan877"
       x="-176.71657"
       y="47.547733"
       style="stroke-width:1" /></text>
  <text
     xml:space="preserve"
     style="font-style:normal;font-weight:normal;font-size:49.58240891px;line-height:1.25;font-family:sans-serif;letter-spacing:0px;word-spacing:0px;fill:#000000;fill-opacity:1;stroke:none;stroke-width:1"
     x="-19.392147"
     y="16.846565"
     id="text879-5"
     transform="scale(0.99364346,1.0063972)"><tspan
       style="stroke-width:1"
       sodipodi:role="line"
       id="tspan877-3"
       x="-19.392147"
       y="60.715374" /></text>
  <text
     xml:space="preserve"
     style="font-style:normal;font-weight:normal;font-size:49.58240891px;line-height:1.25;font-family:sans-serif;letter-spacing:0px;word-spacing:0px;fill:#000000;fill-opacity:1;stroke:none;stroke-width:1"
     x="-142.74586"
     y="22.579725"
     id="text879-1"
     transform="scale(0.99364346,1.0063972)"><tspan
       style="stroke-width:1"
       sodipodi:role="line"
       id="tspan877-2"
       x="-142.74586"
       y="66.44854" /></text>
</svg>
