<?xml version="1.0" encoding="UTF-8" standalone="no"?>
<!-- Created with Inkscape (http://www.inkscape.org/) -->

<svg
   xmlns:dc="http://purl.org/dc/elements/1.1/"
   xmlns:cc="http://creativecommons.org/ns#"
   xmlns:rdf="http://www.w3.org/1999/02/22-rdf-syntax-ns#"
   xmlns:svg="http://www.w3.org/2000/svg"
   xmlns="http://www.w3.org/2000/svg"
   xmlns:xlink="http://www.w3.org/1999/xlink"
   xmlns:sodipodi="http://sodipodi.sourceforge.net/DTD/sodipodi-0.dtd"
   xmlns:inkscape="http://www.inkscape.org/namespaces/inkscape"
   width="64"
   height="64"
   viewBox="0 0 16.933333 16.933334"
   version="1.1"
   id="svg8"
   inkscape:version="0.92.2 2405546, 2018-03-11"
   sodipodi:docname="application-pdf.svg">
  <defs
     id="defs2">
    <linearGradient
       inkscape:collect="always"
       id="linearGradient1002">
      <stop
         style="stop-color:#e63a3a;stop-opacity:1"
         offset="0"
         id="stop998" />
      <stop
         style="stop-color:#fd7070;stop-opacity:1"
         offset="1"
         id="stop1000" />
    </linearGradient>
    <linearGradient
       gradientTransform="matrix(0.34001978,0,0,0.34055744,-36.834059,-298.44484)"
       gradientUnits="userSpaceOnUse"
       y2="47.728813"
       x2="130.16949"
       y1="6.7796607"
       x1="130.16949"
       id="linearGradient1455"
       xlink:href="#linearGradient1497"
       inkscape:collect="always" />
    <linearGradient
       inkscape:collect="always"
       id="linearGradient1497">
      <stop
         style="stop-color:#a8a8a8;stop-opacity:1"
         offset="0"
         id="stop1493" />
      <stop
         style="stop-color:#d0d0d0;stop-opacity:1"
         offset="1"
         id="stop1495" />
    </linearGradient>
    <linearGradient
       id="linearGradient863">
      <stop
         style="stop-color:#a5a5a5;stop-opacity:1"
         offset="0"
         id="stop859" />
      <stop
         style="stop-color:#dbdbdb;stop-opacity:1"
         offset="1"
         id="stop861" />
    </linearGradient>
    <linearGradient
       id="linearGradient822">
      <stop
         style="stop-color:#0652ff;stop-opacity:1"
         offset="0"
         id="stop818" />
      <stop
         style="stop-color:#1b99ff;stop-opacity:1"
         offset="1"
         id="stop820" />
    </linearGradient>
    <linearGradient
       x1="411.66486"
       id="c-3"
       y1="532.612"
       y2="514.79797"
       x2="406.56763"
       gradientUnits="userSpaceOnUse"
       gradientTransform="matrix(2.4445151,0,0,2.4445151,-974.7584,-1256.4318)">
      <stop
         style="stop-color:#2e89fc;stop-opacity:1"
         stop-color="#7cbaf8"
         id="stop12" />
      <stop
         style="stop-color:#42f2ff;stop-opacity:1"
         offset="1"
         stop-color="#f4fcff"
         id="stop14" />
    </linearGradient>
    <linearGradient
       xlink:href="#linearGradient822"
       id="linearGradient824"
       x1="26.10714"
       y1="45.762711"
       x2="26.10714"
       y2="2.4374466"
       gradientUnits="userSpaceOnUse"
       gradientTransform="matrix(0.3097139,0,0,0.3097139,393.13824,522.33096)" />
    <linearGradient
       xlink:href="#linearGradient863"
       id="linearGradient865"
       x1="400.55444"
       y1="517.83185"
       x2="400.55444"
       y2="545.22168"
       gradientUnits="userSpaceOnUse" />
    <linearGradient
       gradientTransform="matrix(1.3082617,0,0,1.336809,-4.784133,-1345.8364)"
       y2="1024.7061"
       y1="1024.7061"
       xlink:href="#a"
       x2="28.881227"
       x1="15.122512"
       gradientUnits="userSpaceOnUse"
       id="e-5" />
    <linearGradient
       id="linearGradient983">
      <stop
         id="stop2-6"
         stop-color="#f6fbff"
         offset="0" />
      <stop
         id="stop4-2"
         stop-color="#eaeff2"
         offset="1" />
    </linearGradient>
    <linearGradient
       inkscape:collect="always"
       xlink:href="#linearGradient1002"
       id="linearGradient1004"
       x1="9.3536682"
       y1="-294.99213"
       x2="9.3536682"
       y2="-280.74127"
       gradientUnits="userSpaceOnUse" />
    <linearGradient
       id="e-5-2"
       gradientUnits="userSpaceOnUse"
       x1="15.122512"
       x2="28.881227"
       xlink:href="#linearGradient983"
       y1="1024.7061"
       y2="1024.7061"
       gradientTransform="matrix(0.42306515,0,0,0.43229677,-0.03153526,-155.11935)" />
  </defs>
  <sodipodi:namedview
     id="base"
     pagecolor="#ffffff"
     bordercolor="#666666"
     borderopacity="1.0"
     inkscape:pageopacity="0.0"
     inkscape:pageshadow="2"
     inkscape:zoom="5.4027378"
     inkscape:cx="1.9263389"
     inkscape:cy="35.42012"
     inkscape:document-units="px"
     inkscape:current-layer="layer1"
     showgrid="false"
     units="px"
     inkscape:showpageshadow="false"
     inkscape:window-width="1366"
     inkscape:window-height="701"
     inkscape:window-x="0"
     inkscape:window-y="0"
     inkscape:window-maximized="1" />
  <metadata
     id="metadata5">
    <rdf:RDF>
      <cc:Work
         rdf:about="">
        <dc:format>image/svg+xml</dc:format>
        <dc:type
           rdf:resource="http://purl.org/dc/dcmitype/StillImage" />
        <dc:title></dc:title>
      </cc:Work>
    </rdf:RDF>
  </metadata>
  <g
     inkscape:label="Layer 1"
     inkscape:groupmode="layer"
     id="layer1"
     transform="translate(0,-280.06665)">
    <rect
       style="opacity:1;vector-effect:none;fill:url(#linearGradient1455);fill-opacity:1;stroke:none;stroke-width:0.79374999;stroke-linecap:round;stroke-linejoin:miter;stroke-miterlimit:4;stroke-dasharray:none;stroke-dashoffset:0;stroke-opacity:1;paint-order:stroke fill markers"
       id="rect1243"
       width="11.079996"
       height="14.522863"
       x="2.116667"
       y="-296.47083"
       transform="scale(1,-1)" />
    <rect
       transform="scale(1,-1)"
       y="-295.11868"
       x="3.7366705"
       height="14.522863"
       width="11.079996"
       id="rect1466"
       style="opacity:1;vector-effect:none;fill:url(#linearGradient1004);fill-opacity:1;stroke:none;stroke-width:0.79374999;stroke-linecap:round;stroke-linejoin:miter;stroke-miterlimit:4;stroke-dasharray:none;stroke-dashoffset:0;stroke-opacity:1;paint-order:stroke fill markers" />
    <text
       xml:space="preserve"
       style="font-style:normal;font-weight:normal;font-size:10.58333302px;line-height:1.25;font-family:sans-serif;letter-spacing:0px;word-spacing:0px;fill:#000000;fill-opacity:1;stroke:none;stroke-width:0.26458335"
       x="-33.338741"
       y="286.29678"
       id="text879"><tspan
         sodipodi:role="line"
         id="tspan877"
         x="-33.338741"
         y="295.66055"
         style="stroke-width:0.26458335" /></text>
    <path
       inkscape:connector-curvature="0"
       style="fill:url(#e-5-2);stroke-width:0.4654744"
       id="path27"
       d="m 12.092898,288.53398 c -0.116356,-0.11709 -0.374401,-0.17915 -0.767075,-0.18442 -0.265807,-0.005 -0.585734,0.0208 -0.922241,0.0691 -0.15068,-0.0889 -0.30596,-0.1855 -0.4278825,-0.30192 -0.32793,-0.31289 -0.601661,-0.74722 -0.772231,-1.22482 0.01111,-0.0446 0.020574,-0.0838 0.029382,-0.12381 0,0 0.184713,-1.0721 0.135817,-1.43454 -0.0067,-0.0497 -0.01087,-0.0642 -0.02395,-0.10279 l -0.01604,-0.0419 c -0.050235,-0.11843 -0.1487468,-0.24387 -0.3031932,-0.23704 l -0.090573,-0.005 -0.00252,-5e-5 c -0.1722235,0 -0.3125919,0.09 -0.3494394,0.22454 -0.1120007,0.42192 0.00357,1.05316 0.2129995,1.87072 l -0.05361,0.13319 c -0.1499612,0.37351 -0.3378826,0.74973 -0.503689,1.08161 l -0.02156,0.0433 c -0.1744336,0.34881 -0.3327098,0.64494 -0.4761884,0.89575 l -0.1481438,0.0801 c -0.010792,0.006 -0.2646787,0.143 -0.3242307,0.17983 -0.5051956,0.30823 -0.8399685,0.65813 -0.8955096,0.93579 -0.017679,0.0886 -0.00452,0.20197 0.085367,0.2545 l 0.1432823,0.0737 c 0.062155,0.032 0.1276981,0.0479 0.1948456,0.0479 0.3598183,0 0.7775513,-0.45801 1.3530047,-1.4842 0.6644054,-0.22103 1.420854,-0.40472 2.0838195,-0.50605 0.50523,0.29068 1.126613,0.49257 1.518811,0.49257 0.06964,0 0.129663,-0.007 0.178444,-0.0199 0.07522,-0.0203 0.138616,-0.0642 0.177267,-0.12363 0.07608,-0.11709 0.09152,-0.27819 0.07086,-0.44324 -0.0061,-0.0489 -0.04444,-0.10951 -0.08586,-0.15082 z m -5.3743515,1.9564 c 0.065609,-0.18333 0.3253431,-0.54573 0.7093717,-0.86731 0.024146,-0.0199 0.083616,-0.077 0.1380765,-0.12983 -0.4015925,0.6545 -0.670527,0.91535 -0.8474482,0.99714 z m 2.2745741,-5.35222 c 0.1156674,0 0.1814561,0.29794 0.1869231,0.57719 0.00545,0.27932 -0.058471,0.47531 -0.1377658,0.62035 -0.065674,-0.21472 -0.097415,-0.55316 -0.097415,-0.77449 0,0 -0.00483,-0.42305 0.048258,-0.42305 z m -0.678516,3.8141 c 0.080571,-0.14736 0.1643994,-0.30278 0.2500607,-0.46761 0.2088092,-0.4035 0.3406817,-0.71921 0.4388988,-0.97877 0.1953375,0.36318 0.4386044,0.67188 0.7245804,0.91925 0.03568,0.0307 0.07347,0.0618 0.113153,0.0928 -0.5815412,0.11757 -1.0841668,0.26059 -1.526699,0.43436 z m 3.6665554,-0.0332 c -0.03542,0.0225 -0.13688,0.0359 -0.202146,0.0359 -0.210627,0 -0.47123,-0.0984 -0.836566,-0.25843 0.14037,-0.011 0.269085,-0.016 0.384505,-0.016 0.211264,0 0.273847,0 0.480428,0.0529 0.206583,0.0539 0.209187,0.16322 0.173779,0.18583 z" />
  </g>
</svg>
