<?xml version="1.0" encoding="UTF-8" standalone="no"?>
<!-- Created with Inkscape (http://www.inkscape.org/) -->

<svg
   xmlns:dc="http://purl.org/dc/elements/1.1/"
   xmlns:cc="http://creativecommons.org/ns#"
   xmlns:rdf="http://www.w3.org/1999/02/22-rdf-syntax-ns#"
   xmlns:svg="http://www.w3.org/2000/svg"
   xmlns="http://www.w3.org/2000/svg"
   xmlns:xlink="http://www.w3.org/1999/xlink"
   xmlns:sodipodi="http://sodipodi.sourceforge.net/DTD/sodipodi-0.dtd"
   xmlns:inkscape="http://www.inkscape.org/namespaces/inkscape"
   width="64"
   height="64"
   viewBox="0 0 16.933332 16.933333"
   version="1.1"
   id="svg8"
   inkscape:version="0.92.4 (unknown)"
   sodipodi:docname="application-mbox.svg">
  <defs
     id="defs2">
    <style
       type="text/css"
       id="current-color-scheme">
      .ColorScheme-Text {
        color:#4d4d4d;
      }
      </style>
    <style
       id="current-color-scheme-5"
       type="text/css">
      .ColorScheme-Text {
        color:#4d4d4d;
      }
      </style>
    <linearGradient
       inkscape:collect="always"
       xlink:href="#linearGradient1497"
       id="linearGradient1455"
       x1="130.16949"
       y1="6.7796607"
       x2="130.16949"
       y2="47.728813"
       gradientUnits="userSpaceOnUse"
       gradientTransform="matrix(0.34001978,0,0,0.34055744,-36.83406,-298.44476)" />
    <linearGradient
       id="linearGradient1497"
       inkscape:collect="always">
      <stop
         id="stop1493"
         offset="0"
         style="stop-color:#a8a8a8;stop-opacity:1" />
      <stop
         id="stop1495"
         offset="1"
         style="stop-color:#d0d0d0;stop-opacity:1" />
    </linearGradient>
    <linearGradient
       inkscape:collect="always"
       xlink:href="#linearGradient1453"
       id="linearGradient1468"
       gradientUnits="userSpaceOnUse"
       x1="130.16949"
       y1="6.3482614"
       x2="130.16949"
       y2="47.728813"
       gradientTransform="matrix(0.34001978,0,0,0.34055744,-35.214053,-297.09263)" />
    <linearGradient
       inkscape:collect="always"
       id="linearGradient1453">
      <stop
         style="stop-color:#3bd450;stop-opacity:1"
         offset="0"
         id="stop1449" />
      <stop
         style="stop-color:#52ef84;stop-opacity:1"
         offset="1"
         id="stop1451" />
    </linearGradient>
  </defs>
  <sodipodi:namedview
     id="base"
     pagecolor="#ffffff"
     bordercolor="#666666"
     borderopacity="1.0"
     inkscape:pageopacity="0.0"
     inkscape:pageshadow="2"
     inkscape:zoom="7.640625"
     inkscape:cx="-10.535788"
     inkscape:cy="32"
     inkscape:document-units="px"
     inkscape:current-layer="layer1"
     showgrid="false"
     units="px"
     inkscape:showpageshadow="false"
     inkscape:window-width="1366"
     inkscape:window-height="709"
     inkscape:window-x="0"
     inkscape:window-y="0"
     inkscape:window-maximized="1" />
  <metadata
     id="metadata5">
    <rdf:RDF>
      <cc:Work
         rdf:about="">
        <dc:format>image/svg+xml</dc:format>
        <dc:type
           rdf:resource="http://purl.org/dc/dcmitype/StillImage" />
        <dc:title></dc:title>
      </cc:Work>
    </rdf:RDF>
  </metadata>
  <g
     inkscape:label="Layer 1"
     inkscape:groupmode="layer"
     id="layer1"
     transform="translate(0,-280.06659)">
    <rect
       transform="scale(1,-1)"
       y="-296.47076"
       x="2.1166661"
       height="14.522863"
       width="11.079997"
       id="rect1243"
       style="opacity:1;vector-effect:none;fill:url(#linearGradient1455);fill-opacity:1;stroke:none;stroke-width:0.79375005;stroke-linecap:round;stroke-linejoin:miter;stroke-miterlimit:4;stroke-dasharray:none;stroke-dashoffset:0;stroke-opacity:1;paint-order:stroke fill markers" />
    <rect
       style="opacity:1;vector-effect:none;fill:url(#linearGradient1468);fill-opacity:1;stroke:none;stroke-width:0.79375005;stroke-linecap:round;stroke-linejoin:miter;stroke-miterlimit:4;stroke-dasharray:none;stroke-dashoffset:0;stroke-opacity:1;paint-order:stroke fill markers"
       id="rect1466"
       width="11.079997"
       height="14.522863"
       x="3.7366695"
       y="-295.11862"
       transform="scale(1,-1)" />
    <text
       xml:space="preserve"
       style="font-style:normal;font-weight:normal;font-size:10.58333397px;line-height:1.25;font-family:sans-serif;letter-spacing:0px;word-spacing:0px;fill:#000000;fill-opacity:1;stroke:none;stroke-width:0.26458335"
       x="-17.955767"
       y="287.53424"
       id="text879"><tspan
         sodipodi:role="line"
         id="tspan877"
         x="-17.955767"
         y="296.89801"
         style="stroke-width:0.26458335" /></text>
    <path
       style="fill:#ffffff;stroke-width:0.26458332"
       inkscape:connector-curvature="0"
       d="m 12.187085,287.85719 q 0,0.71641 -0.298504,1.13432 -0.298504,0.4179 -0.820887,0.4179 -0.559695,0 -0.835812,-0.54477 -0.3656675,0.54477 -1.0447648,0.54477 -0.6268587,0 -1.0373021,-0.43283 -0.4104433,-0.43283 -0.4104433,-1.08954 0,-0.64925 0.4104433,-1.08208 0.4179059,-0.44029 1.0074518,-0.44029 0.5746208,0 0.9552141,0.44029 h 0.02985 v -0.33581 h 0.537307 v 1.85819 q 0,0.597 0.440294,0.597 0.529845,0 0.529845,-1.06715 0,-0.97014 -0.68656,-1.6567 -0.68656,-0.68656 -1.6716238,-0.68656 -0.9850641,0 -1.6716237,0.68656 -0.6865598,0.68656 -0.6865598,1.6567 0,0.9776 0.6865598,1.66416 0.679097,0.6791 1.6716237,0.6791 0.5373076,0 0.9477508,-0.20895 l 0.208953,0.50745 q -0.5373074,0.23881 -1.1567038,0.23881 -0.7984987,0 -1.477596,-0.3806 -0.6641719,-0.38059 -1.0596901,-1.05222 -0.1940277,-0.34328 -0.2910416,-0.70895 -0.097014,-0.36567 -0.097014,-0.74626 0,-0.37313 0.089551,-0.73134 0.097014,-0.36566 0.2910416,-0.70148 0.1940277,-0.33582 0.4626817,-0.60447 0.2761162,-0.26866 0.604471,-0.44776 0.3358173,-0.18656 0.7089475,-0.28358 0.3731303,-0.10448 0.7686485,-0.10448 0.7910362,0 1.4552082,0.3806 0.671635,0.38059 1.052228,1.05223 0.388055,0.66417 0.388055,1.44774 z m -3.8507048,0.0299 q 0,0.20895 0.067164,0.38806 0.067163,0.17164 0.1865651,0.2985 0.1268642,0.12687 0.2910416,0.20149 0.1641774,0.0672 0.3582051,0.0672 0.1940279,0 0.3582051,-0.0672 0.1641773,-0.0746 0.283579,-0.19403 0.1268649,-0.12686 0.1940279,-0.2985 0.06716,-0.1791 0.06716,-0.39552 0,-0.20895 -0.06716,-0.38805 -0.06716,-0.17911 -0.1940279,-0.29851 -0.1194017,-0.12686 -0.283579,-0.19403 -0.1641772,-0.0746 -0.3582051,-0.0746 -0.1940277,0 -0.3582051,0.0746 -0.1641774,0.0672 -0.2910416,0.19403 -0.1194017,0.12687 -0.1865651,0.30597 -0.067164,0.17164 -0.067164,0.38059 z"
       id="path851" />
  </g>
</svg>
