<?xml version="1.0" encoding="UTF-8" standalone="no"?>
<!-- Created with Inkscape (http://www.inkscape.org/) -->

<svg
   xmlns:dc="http://purl.org/dc/elements/1.1/"
   xmlns:cc="http://creativecommons.org/ns#"
   xmlns:rdf="http://www.w3.org/1999/02/22-rdf-syntax-ns#"
   xmlns:svg="http://www.w3.org/2000/svg"
   xmlns="http://www.w3.org/2000/svg"
   xmlns:xlink="http://www.w3.org/1999/xlink"
   xmlns:sodipodi="http://sodipodi.sourceforge.net/DTD/sodipodi-0.dtd"
   xmlns:inkscape="http://www.inkscape.org/namespaces/inkscape"
   width="64"
   height="64"
   viewBox="0 0 16.933333 16.933334"
   version="1.1"
   id="svg8"
   inkscape:version="0.92.2 2405546, 2018-03-11"
   sodipodi:docname="application-relaxng.svg">
  <defs
     id="defs2">
    <linearGradient
       gradientTransform="matrix(0.34001978,0,0,0.34055744,-36.83406,-298.44484)"
       gradientUnits="userSpaceOnUse"
       y2="47.728813"
       x2="130.16949"
       y1="6.7796607"
       x1="130.16949"
       id="linearGradient1455"
       xlink:href="#linearGradient1497"
       inkscape:collect="always" />
    <linearGradient
       inkscape:collect="always"
       id="linearGradient1497">
      <stop
         style="stop-color:#a8a8a8;stop-opacity:1"
         offset="0"
         id="stop1493" />
      <stop
         style="stop-color:#d0d0d0;stop-opacity:1"
         offset="1"
         id="stop1495" />
    </linearGradient>
    <linearGradient
       gradientTransform="matrix(0.34001978,0,0,0.34055744,-35.214053,-297.09271)"
       y2="47.728813"
       x2="130.16949"
       y1="6.16957"
       x1="130.16949"
       gradientUnits="userSpaceOnUse"
       id="linearGradient1468"
       xlink:href="#linearGradient1453"
       inkscape:collect="always" />
    <linearGradient
       id="linearGradient1453"
       inkscape:collect="always">
      <stop
         id="stop1449"
         offset="0"
         style="stop-color:#1e9ff4;stop-opacity:1" />
      <stop
         id="stop1451"
         offset="1"
         style="stop-color:#68bff8;stop-opacity:1" />
    </linearGradient>
  </defs>
  <sodipodi:namedview
     id="base"
     pagecolor="#ffffff"
     bordercolor="#666666"
     borderopacity="1.0"
     inkscape:pageopacity="0.0"
     inkscape:pageshadow="2"
     inkscape:zoom="2.7013689"
     inkscape:cx="0.17232454"
     inkscape:cy="55.05502"
     inkscape:document-units="px"
     inkscape:current-layer="layer1"
     showgrid="false"
     units="px"
     inkscape:showpageshadow="false"
     inkscape:window-width="1366"
     inkscape:window-height="701"
     inkscape:window-x="0"
     inkscape:window-y="0"
     inkscape:window-maximized="1" />
  <metadata
     id="metadata5">
    <rdf:RDF>
      <cc:Work
         rdf:about="">
        <dc:format>image/svg+xml</dc:format>
        <dc:type
           rdf:resource="http://purl.org/dc/dcmitype/StillImage" />
        <dc:title />
      </cc:Work>
    </rdf:RDF>
  </metadata>
  <g
     inkscape:label="Layer 1"
     inkscape:groupmode="layer"
     id="layer1"
     transform="translate(0,-280.06665)">
    <g
       id="g978">
      <rect
         style="opacity:1;vector-effect:none;fill:url(#linearGradient1455);fill-opacity:1;stroke:none;stroke-width:0.79375005;stroke-linecap:round;stroke-linejoin:miter;stroke-miterlimit:4;stroke-dasharray:none;stroke-dashoffset:0;stroke-opacity:1;paint-order:stroke fill markers"
         id="rect1243"
         width="11.079997"
         height="14.522863"
         x="2.1166668"
         y="-296.47083"
         transform="scale(1,-1)" />
      <rect
         transform="scale(1,-1)"
         y="-295.11868"
         x="3.7366703"
         height="14.522863"
         width="11.079997"
         id="rect1466"
         style="opacity:1;vector-effect:none;fill:url(#linearGradient1468);fill-opacity:1;stroke:none;stroke-width:0.79375005;stroke-linecap:round;stroke-linejoin:miter;stroke-miterlimit:4;stroke-dasharray:none;stroke-dashoffset:0;stroke-opacity:1;paint-order:stroke fill markers" />
      <path
         id="path847"
         d="m 9.2766687,284.94684 c -1.6123709,0 -2.9104166,1.29805 -2.9104166,2.91042 0,1.61237 1.2980457,2.91041 2.9104166,2.91041 1.6123703,0 2.9104163,-1.29804 2.9104163,-2.91041 0,-1.61237 -1.298046,-2.91042 -2.9104163,-2.91042 z m 0,0.26458 c 0.4396375,0 0.8523663,0.10793 1.2164633,0.29611 0.0011,0.0105 8.5e-4,0.0182 0,0.03 0.01534,0.007 0.0242,0.0353 0.05013,0.0496 0.0095,0.005 0.01581,0.008 0.02481,0.0124 0.01534,0.008 0.02798,0.0224 0.0248,0.0372 -0.0042,0.0217 -0.03479,0.0208 -0.04961,0.0367 0.0021,0.0307 -0.01687,0.0295 -0.02481,0.0501 0.0048,0.0132 0.02269,0.009 0.02481,0.0248 -0.0027,0.0169 -0.03116,0.0192 -0.02481,0.0367 0.02857,0.0222 0.05983,0.004 0.08682,0 0.05926,-0.007 0.111801,0.004 0.148311,-0.0248 -0.0048,-0.028 0.04038,-0.0366 0.03721,-0.062 -0.0027,-0.019 -0.03532,-0.0235 -0.04961,-0.0367 -0.0032,-0.003 -0.0073,-0.0104 -0.01085,-0.016 0.04366,0.0287 0.08533,0.0598 0.127124,0.0909 -0.0103,0.008 -0.01881,0.019 -0.02945,0.0238 -0.01111,0.005 -0.02715,0.006 -0.03721,0.0124 -0.01482,0.0101 -0.02027,0.0256 -0.03721,0.0367 -0.01217,0.008 -0.04931,0.0372 -0.06201,0.0372 -0.01534,0 -0.0385,-0.0156 -0.04961,-0.0119 -0.01587,0.005 -0.0068,0.0303 -0.0248,0.0367 -0.03492,0.0127 -0.09945,-0.0276 -0.111622,0.0248 0.01482,0.0301 0.06036,0.0208 0.08682,0.0372 0.0164,0.0106 0.04538,0.0564 0.04961,0.0744 0.0042,0.0148 0.0064,0.071 0,0.0868 -0.0164,0.0423 -0.06294,0.0383 -0.111621,0.0372 -0.01323,0 -0.02504,10e-4 -0.03721,0 -0.08201,-0.005 -0.160882,-0.0339 -0.19792,0.0248 0.0027,0.045 0.01006,0.0725 0,0.11162 -0.0074,0.0286 -0.03879,0.0495 -0.03721,0.0744 5.14e-4,0.0127 0.02163,0.0322 0.0248,0.0496 0.0021,0.01 -0.0042,0.0288 0,0.0372 0.01376,0.0259 0.05007,-0.004 0.07441,0 0.02328,0.004 0.05013,0.0361 0.05013,0.062 0,0.0185 -0.01368,0.0564 -0.02532,0.0744 -0.02328,0.0349 -0.06588,0.0306 -0.09922,0.0496 -0.02752,0.0159 -0.03321,0.0474 -0.04961,0.0749 -0.01746,0.0296 -0.03168,0.0445 -0.0248,0.0868 -0.02381,0.0471 -0.05053,0.0765 -0.09974,0.0992 -0.01429,0.006 -0.03638,0.0153 -0.04961,0.0248 -0.01058,0.007 -0.02239,0.0203 -0.03721,0.0372 -0.01852,0.0206 -0.039556,0.0337 -0.049609,0.0496 -0.00741,0.0122 -0.00447,0.0332 -0.012403,0.0496 -0.011644,0.0222 -0.034794,0.0398 -0.04961,0.062 -0.00688,0.0106 -0.017396,0.0235 -0.024805,0.0372 -0.016933,0.0307 -0.040381,0.0598 -0.037207,0.0868 0.00266,0.0259 0.03562,0.0269 0.037207,0.0496 0.00159,0.0127 -0.012931,0.0229 -0.012403,0.0367 5.146e-4,0.0201 0.010817,0.0342 0.012403,0.0501 0.0037,0.0392 -0.0174,0.0474 -0.024805,0.0744 -0.0037,0.0127 0.00318,0.0272 0,0.0372 -0.00635,0.0196 -0.036678,0.0382 -0.037207,0.0615 -5.145e-4,0.0164 0.023217,0.0268 0.024805,0.0501 0.00105,0.0159 -0.01506,0.0348 -0.011886,0.0496 0.00582,0.0286 0.064593,0.0646 0.086816,0.0868 0.03016,0.0301 0.061186,0.0551 0.074414,0.0868 0.011114,0.027 0.016575,0.0667 0.037207,0.0868 0.01534,0.0148 0.04243,0.0214 0.06201,0.0367 0.01852,0.0143 0.04192,0.0219 0.0615,0.0372 0.03228,0.0254 0.0727,0.0781 0.124023,0.0744 0.02698,-0.002 0.05666,-0.0195 0.08682,-0.0248 0.03122,-0.005 0.06747,-0.0151 0.09922,-0.0119 0.02434,0.003 0.04953,0.0135 0.07493,0.0119 0.02646,-0.002 0.05666,-0.0116 0.08682,-0.0248 0.05238,-0.0228 0.13413,-0.0607 0.210323,-0.0496 0.0582,0.008 0.05899,0.0733 0.09974,0.0992 0.04656,0.004 0.08647,-0.009 0.123507,0 0.02804,0.007 0.05937,0.0527 0.06201,0.0749 0.0027,0.0227 -0.02163,0.0472 -0.0248,0.0615 -0.0074,0.0307 -0.0071,0.0673 -0.0124,0.0868 -0.0042,0.0153 -0.01242,0.0343 -0.01188,0.0496 0,0.0138 0.02292,0.044 0.03721,0.062 0.01746,0.0222 0.04033,0.0377 0.06149,0.062 0.03863,0.0444 0.05983,0.10251 0.08682,0.16123 0.0069,0.0148 -0.0063,0.0187 0,0.0372 -0.01164,0.0889 -0.04101,0.14965 -0.09922,0.24804 -0.02751,0.0317 -0.06254,0.072 -0.06201,0.11163 -0.0021,0.0952 0.05384,0.14308 0.04961,0.23512 -0.0095,0.12379 -0.0024,0.14472 -0.01188,0.21084 0.0418,0.0212 0.02406,0.0796 0.01188,0.12351 -0.01799,0.0524 -0.03956,0.0648 -0.04961,0.0997 0.03277,0.0142 0.06877,0.0107 0.10542,0.002 -0.482053,0.5138 -1.166214,0.8356 -1.9296013,0.8356 -0.3248332,0 -0.6343575,-0.0607 -0.921391,-0.16691 -0.010541,-0.004 -0.022168,-0.007 -0.032556,-0.0124 -0.016405,-0.01 -0.026922,-0.0295 -0.024805,-0.0496 0.027516,-0.0116 0.079629,0.0262 0.099735,-0.0124 0.010056,-0.0185 -0.013228,-0.0559 0,-0.0744 0.00953,-0.0127 0.067239,-0.0216 0.086817,-0.0248 0.028044,-0.005 0.05854,-0.002 0.074414,-0.0124 0.017461,-0.0111 0.040382,-0.0416 0.037207,-0.0744 -0.00159,-0.0153 -0.012635,-0.0235 -0.024805,-0.0372 -0.010056,-0.0116 -0.00552,-0.0261 -0.012401,-0.0367 -0.0127,-0.0185 -0.031916,-0.0226 -0.037207,-0.0496 0.038097,-0.007 0.0938,0.0401 0.1488283,0.0248 0.025929,-0.007 0.062244,-0.0625 0.074414,-0.0868 0.0037,-0.007 -0.00423,-0.0282 0,-0.0372 0.00476,-0.0101 0.023732,-0.0195 0.025321,-0.0248 0.0037,-0.0143 -0.00318,-0.0158 0,-0.0248 0.00953,-0.027 0.033735,-0.0424 0.049609,-0.062 0.012168,-0.0148 0.026099,-0.0343 0.037207,-0.0496 0.012702,-0.0164 0.01634,-0.0229 0.024805,-0.0372 0.00794,-0.0481 -0.024045,-0.0812 -0.012403,-0.12351 0.012702,-0.0476 0.07799,-0.078 0.1240236,-0.0997 0.015872,-0.007 0.03638,-0.02 0.049609,-0.0248 0.031747,-0.0111 0.069587,-0.0142 0.099219,-0.0248 0.049737,-0.018 0.062477,-0.0661 0.086816,-0.11162 0.011644,-0.0212 0.023207,-0.0467 0.02532,-0.062 0.00213,-0.0138 -0.00266,-0.0208 0,-0.0367 0.00266,-0.0159 0.00765,-0.0327 0.011884,-0.0501 0.00582,-0.0227 0.012403,-0.0609 0.012403,-0.0863 0,-0.0212 -0.011875,-0.0311 -0.012403,-0.0501 -0.0037,-0.0688 0.024215,-0.0741 0.049609,-0.11162 0.012702,-0.0185 0.01581,-0.0483 0.024805,-0.0615 0.042859,-0.0635 0.1169124,-0.0903 0.1116209,-0.18656 -0.00213,-0.0317 -0.013405,-0.10157 -0.03669,-0.11162 -0.013228,-0.006 -0.042434,-0.004 -0.062012,-0.0119 -0.062436,-0.0233 -0.1085509,-0.0944 -0.173633,-0.0997 -0.013756,-5.1e-4 -0.021864,5.2e-4 -0.037207,0 -0.025397,-5.1e-4 -0.057727,-0.0216 -0.086299,-0.0248 -0.017993,-0.002 -0.051429,0.005 -0.062012,0 -0.016405,-0.008 -0.011579,-0.0406 -0.024805,-0.0496 -0.010579,-0.007 -0.033723,-0.007 -0.050126,-0.0124 -0.025929,-0.0101 -0.044254,-0.0227 -0.074414,-0.0248 -0.00953,-5.1e-4 -0.026624,0.002 -0.037207,0 -0.016405,-0.003 -0.034265,-0.0153 -0.04961,-0.0248 -0.019051,-0.0116 -0.02927,-0.0203 -0.037207,-0.0367 0.017461,-0.0571 -0.037968,-0.0664 -0.049609,-0.0997 -0.00529,-0.0153 0.00529,-0.0358 0,-0.0496 -0.00688,-0.0196 -0.027916,-0.0332 -0.049609,-0.0496 -0.038097,-0.0296 -0.069524,-0.0551 -0.1240234,-0.062 -0.024341,-0.003 -0.057715,0.002 -0.086817,0 -0.030689,-0.002 -0.063535,-0.0232 -0.086816,-0.0496 -0.022224,-0.0259 -0.030032,-0.0498 -0.049609,-0.062 -0.018517,-0.0116 -0.049312,-0.0126 -0.062012,-0.0248 -0.00582,-0.005 -0.00659,-0.0126 -0.011886,-0.0248 -0.00953,-0.019 -0.024045,-0.0269 -0.012403,-0.0501 -0.021168,-0.0106 -0.013937,0.0166 -0.03669,0.0124 -0.020637,-0.0291 -0.040254,-0.0462 -0.086816,-0.0372 -0.021168,0.004 -0.037143,0.0367 -0.062012,0.0372 -0.020635,5.1e-4 -0.035026,-0.0335 -0.062012,-0.0372 -0.020635,-0.003 -0.047725,0.0156 -0.062012,0.0124 -0.022753,-0.004 -0.028974,-0.0235 -0.049609,-0.0372 -0.015345,-0.01 -0.041144,-0.0372 -0.049609,-0.0367 -0.026456,5.2e-4 -0.050307,0.0563 -0.086816,0.0367 -0.017993,-0.0227 0.033052,-0.0285 0.011884,-0.0496 -0.015872,-0.0159 -0.023993,0.004 -0.03669,0.0124 -0.014817,0.01 -0.033207,0.019 -0.049609,0.0248 -0.03651,0.0138 -0.058244,0.01 -0.086816,0.0248 -0.026456,0.0138 -0.034782,0.035 -0.050126,0.062 -0.012168,0.0222 -0.03109,0.0604 -0.049609,0.0615 -0.022224,0.002 -0.041905,-0.0282 -0.062012,-0.0367 -0.060849,-0.0265 -0.098045,0.0114 -0.1483112,0.0119 -0.046563,5.1e-4 -0.1137377,-0.0677 -0.1116214,-0.11163 0.00159,-0.027 0.021629,-0.0659 0.024805,-0.0992 0.00266,-0.0264 0.02428,-0.0506 0.024805,-0.0749 5.145e-4,-0.0323 -0.053766,-0.0578 -0.074931,-0.0615 -0.049737,-0.009 -0.1164997,0.0222 -0.173116,0 -0.010579,-0.018 0.018454,-0.0327 0.024805,-0.0501 0.0037,-0.01 -0.0037,-0.0137 0,-0.0248 0.00635,-0.0169 0.028754,-0.0316 0.03669,-0.0496 0.00582,-0.0138 0.00659,-0.0327 0.012401,-0.0496 0.00688,-0.019 0.023217,-0.0359 0.024805,-0.0496 0.00213,-0.018 -0.010517,-0.0385 -0.024805,-0.0501 -0.043917,0.003 -0.074337,7.7e-4 -0.099736,0.0124 -0.057145,0.0259 -0.041544,0.10603 -0.099219,0.12402 -0.019579,0.006 -0.052191,0.008 -0.074414,0.0119 -0.00968,0.002 -0.020676,0.003 -0.031523,0.006 0.036954,-0.19208 0.094157,-0.37673 0.1700153,-0.55138 0.012725,-10e-6 0.025919,-0.002 0.034623,0 0.020105,0.004 0.032665,0.0232 0.050126,0.0248 0.048679,0.004 0.059005,-0.0409 0.099219,-0.062 0.041272,0.006 0.062168,-0.004 0.099735,0 0.025398,0.003 0.054308,0.0356 0.074414,0.0372 0.016933,5.1e-4 0.021336,-0.0151 0.037207,-0.0124 0.015875,0.003 0.046964,0.0306 0.049609,0.0496 0.00266,0.0238 -0.019282,0.0485 -0.012403,0.0749 0.024868,0.0254 0.07617,0.0348 0.1116212,0.0496 0.023281,-0.019 0.0037,-0.0593 0,-0.0868 -5.146e-4,-0.0122 0.00159,-0.0261 0,-0.0372 -0.00266,-0.019 -0.011886,-0.0332 -0.011886,-0.0496 0,-0.0756 0.060825,-0.1068 0.1116209,-0.13642 0.021694,-0.0127 0.042963,-0.0401 0.062012,-0.0496 0.026984,-0.0132 0.039789,-0.0121 0.062012,-0.0248 0.040213,-0.0227 0.080403,-0.049 0.1116211,-0.0749 0.014289,-0.0344 -0.00159,-0.0778 0,-0.11162 0.014289,-0.009 0.021344,0.002 0.036691,0 0.024341,-0.005 0.036369,-0.0359 0.050126,-0.0496 0.00794,-0.008 0.027167,-0.0169 0.03669,-0.0248 0.024341,-0.0191 0.028444,-0.0412 0.04961,-0.0496 0.00741,-0.003 0.025567,-0.009 0.037207,-0.0124 0.015877,-0.004 0.036614,-0.0158 0.062012,-0.0248 0.016405,-0.006 0.055662,-0.006 0.062012,-0.0119 0.00794,-0.008 -0.00213,-0.038 0,-0.0501 0.012702,-0.0598 0.1077894,-0.0662 0.1612307,-0.0863 0.037038,-0.0143 0.07035,-0.0451 0.1116212,-0.0372 -0.00794,0.0286 -0.044086,0.0276 -0.037207,0.062 0.00899,0.0481 0.069884,-0.0179 0.086816,-0.0248 0.032277,-0.0138 0.094096,-0.0219 0.136426,-0.0372 0.037039,-0.0132 0.096934,-0.0316 0.062012,-0.0744 -0.029102,-0.002 -0.036614,0.0261 -0.062012,0.0367 -0.017461,0.003 -0.021872,-0.0108 -0.03669,-0.0119 -0.014289,-5.2e-4 -0.022923,0.0145 -0.037207,0.0119 -0.014289,-0.003 -0.035091,-0.0327 -0.037207,-0.0496 -0.00582,-0.0444 0.044021,-0.054 0.062011,-0.0868 -0.012168,-0.0402 -0.065355,-0.009 -0.099219,-0.0248 0.0037,-0.0238 0.021568,-0.0448 0.049609,-0.0496 0.022753,-0.004 0.073059,7.6e-4 0.086816,0.0119 0.00794,0.007 -2.909e-4,0.0261 0.011884,0.0372 0.013756,0.0122 0.032136,0.003 0.050126,0 0.00635,-0.0301 -0.042499,-0.0176 -0.037207,-0.0372 0.03598,-0.0233 0.1049108,-0.006 0.148828,-0.0119 0.025397,-0.004 0.051662,-0.025 0.074414,-0.0372 0.021168,-0.0122 0.039789,-0.032 0.062012,-0.0119 0.00635,0.0217 -0.012638,0.0385 -0.024805,0.0496 -0.040743,0.036 -0.079874,0.0698 -0.1116211,0.11162 0.019579,0.019 0.054011,0.008 0.086817,0.0119 0.0127,0.002 0.023461,0.0103 0.03669,0.0124 0.015875,0.003 0.037427,-0.003 0.050126,0 0.022224,0.005 0.027385,0.0372 0.049609,0.0372 0.03598,0 0.032523,-0.0377 0.011886,-0.062 0.00635,-0.0249 0.021403,-0.0446 0.012403,-0.062 -0.016405,-0.0328 -0.083641,0.005 -0.086816,-0.0372 -0.00213,-0.0265 0.027684,-0.0295 0.037207,-0.0496 -0.00423,-0.0508 0.041982,-0.0532 0.03669,-0.0992 -0.00266,-0.019 -0.02346,-0.0192 -0.03669,-0.0372 -0.00688,-0.01 -0.00447,-0.0303 -0.012403,-0.0372 -0.027513,-0.0233 -0.083642,-0.0171 -0.086817,-0.0615 -0.00159,-0.0264 0.0037,-0.0464 0,-0.0749 -0.0037,-0.027 -0.026329,-0.10634 -0.049609,-0.11163 -0.02963,-0.006 -0.051365,0.0456 -0.086816,0.062 -0.019047,0.009 -0.054837,0.0161 -0.074414,0.0124 -0.012702,-0.003 -0.03562,-0.0129 -0.037207,-0.0372 -0.00266,-0.028 0.019517,-0.0324 0.024805,-0.062 0.2279548,-0.0636 0.467442,-0.10025 0.7162346,-0.10025 z m -1.0671182,0.22428 c -0.00762,0.10882 -0.1046912,0.16521 -0.2191083,0.16226 -0.024341,0.0233 -0.011579,0.067 -0.024805,0.0992 -0.011114,0.027 -0.047429,0.0522 -0.074414,0.0501 -0.019579,-0.002 -0.049609,-0.0316 -0.049609,-0.0501 0,-0.0227 0.031465,-0.0356 0.011886,-0.0615 8.277e-4,-0.005 0.00794,-0.0109 0.013436,-0.0165 0.109412,-0.0689 0.2230703,-0.13094 0.3426146,-0.18345 z m 2.2086505,0.12609 c -0.0097,0.002 -0.01515,0.007 -0.02377,0.0119 -0.02011,0.0122 -0.02186,0.0314 -0.03721,0.0372 -0.02169,0.008 -0.04643,0.005 -0.04961,0.0248 -0.0027,0.0164 0.01293,0.0219 0.0124,0.0367 -0.0079,0.0196 -0.02057,0.0258 -0.02481,0.0496 0.02698,0.0439 0.09017,-0.002 0.123506,-0.0119 0.01482,-0.004 0.02927,-7.6e-4 0.03721,-0.0124 0.009,-0.0143 0.005,-0.0414 0.01189,-0.0615 0.0074,-0.0222 0.02745,-0.0176 0.02481,-0.0372 -0.0021,-0.0196 -0.04161,-0.0404 -0.07441,-0.0372 z m -2.8964639,0.31574 c 0.025739,0.0132 0.069181,0.0728 0.019635,0.094 -0.00529,0.003 -0.074118,0.0145 -0.086816,0.0119 -0.010248,-10e-4 -0.018767,-0.0109 -0.027388,-0.0202 0.030416,-0.0297 0.062744,-0.0576 0.094568,-0.0858 z m 0.093534,0.11834 c 0.012702,5.2e-4 0.022391,0.0238 0.037207,0.0248 0.014289,10e-4 0.02874,-0.0151 0.037207,-0.0124 0.022224,0.006 0.033052,0.0456 0.011886,0.062 -0.017463,0.002 -0.023993,-0.0145 -0.03669,-0.0119 -0.03598,0.006 -0.047946,0.0765 -0.074931,0.0744 -0.025397,-0.003 -0.037814,-0.0559 -0.011884,-0.0744 5.145e-4,-0.0159 -0.013465,-0.0213 -0.012401,-0.0372 0.00794,-0.0101 0.028444,-0.0264 0.049609,-0.0248 v -5.1e-4 z m -0.1235068,0.0124 c 0.00741,0 0.00924,-0.003 0.011886,0 -0.0037,0.028 -0.014993,0.0369 -0.03669,0.0501 -0.037568,0.0227 -0.062761,0.0505 -0.074931,0.0992 -0.0037,0.0143 -0.043505,0.0533 -0.061495,0.0496 -0.041801,-0.009 0.01528,-0.0871 0.024804,-0.0992 0.010579,-0.0132 0.024519,-0.0224 0.036691,-0.0372 0.012168,-0.0148 0.013168,-0.0412 0.024805,-0.0496 0.012702,-0.009 0.052707,-0.0135 0.074931,-0.0124 v -5.1e-4 z m 3.7434407,0.0708 c 0.01671,0.0184 0.03394,0.0364 0.05013,0.0553 -0.01668,-0.0195 -0.04391,-0.027 -0.05013,-0.0553 z m -0.161747,0.005 c 0.0418,-0.003 0.06777,0.049 0.08682,0.0744 0.01587,0.0206 0.06089,0.0477 0.08682,0.062 0.01482,0.008 0.03321,0.0174 0.04961,0.0248 0.03439,0.0153 0.09763,0.0654 0.09922,0.0992 6.04e-4,0.0169 -0.01452,0.0342 -0.01188,0.0501 0.02593,0.004 0.04908,-0.0361 0.04961,-0.062 0,-0.006 -0.0021,-0.01 -0.0047,-0.014 0.07489,0.10477 0.142359,0.21472 0.201537,0.33021 -0.02332,0.007 -0.04327,0.0181 -0.04703,0.0408 -0.0053,0.0296 0.01964,0.0691 -0.02481,0.0744 -0.02804,0.004 -0.06111,-0.0287 -0.09973,-0.0372 -0.01588,-0.004 -0.03691,0.004 -0.04961,0 -0.0291,-0.0101 -0.02474,-0.044 -0.04961,-0.0615 -0.01428,-0.0101 -0.05218,-0.0222 -0.07493,-0.0248 -0.01429,-0.002 -0.02187,0.002 -0.03669,0 -0.01799,-0.002 -0.0472,-0.003 -0.06201,-0.0124 -0.01429,-0.009 -0.04591,-0.025 -0.04961,-0.0372 -0.0058,-0.0196 0.03563,-0.0451 0.03669,-0.0615 0.001,-0.0127 -0.0092,-0.0182 -0.01189,-0.0372 -0.0021,-0.0116 0.0027,-0.0298 0,-0.0372 -0.0037,-0.0137 -0.02843,-0.0243 -0.05013,-0.0248 -0.01905,0 -0.03321,0.0124 -0.04961,0.0124 -0.02328,5.1e-4 -0.07012,-0.0151 -0.09922,-0.0124 -0.01746,0.002 -0.03372,0.0113 -0.05013,0.0124 -0.04603,0.004 -0.07564,-0.003 -0.111621,0 -0.02593,0.002 -0.07488,0.0137 -0.09922,0.0248 -0.01217,0.006 -0.02134,0.0169 -0.03721,0.0248 -0.0074,0.004 -0.01528,0.008 -0.02481,0.0119 -0.01482,0.007 -0.03532,0.0216 -0.04961,0.0253 -0.02064,0.005 -0.04925,-0.002 -0.08682,0 -0.02698,0.002 -0.07389,-0.005 -0.07441,-0.0372 -5.15e-4,-0.0492 0.08986,-0.0288 0.136426,-0.0372 0.01746,-0.004 0.02844,-0.0245 0.04961,-0.0367 0.01006,-0.006 0.01528,-0.006 0.02481,-0.0124 0.01588,-0.0111 0.04696,-0.0369 0.04961,-0.0496 0.0021,-0.0116 -0.01347,-0.0287 -0.01188,-0.0372 0.0021,-0.0111 0.0224,-0.0224 0.03669,-0.0367 0.02222,-0.0222 0.0345,-0.0477 0.06201,-0.062 0.01852,-0.01 0.05355,-0.01 0.06201,-0.0248 0.0021,-0.0169 -5.15e-4,-0.0219 0,-0.0372 0.01164,-0.0106 0.01528,-0.0227 0.0248,-0.0248 0.02857,-0.006 0.05348,0.0135 0.08682,0.0119 0.01429,-5.1e-4 0.03426,-0.002 0.04961,-0.0119 0.0127,-0.008 0.02451,-0.0185 0.03721,-0.0248 0.01376,-0.007 0.02028,-0.0238 0.03721,-0.0248 z m -3.3109092,0.0253 h 5.145e-4 c 0.012168,-5.2e-4 0.023979,0 0.037207,0 0.013228,0 0.031399,-0.005 0.03669,0 -0.00847,0.0349 -0.084106,0.0246 -0.1116207,0.0119 0.00159,-0.0132 0.020275,-0.0103 0.037207,-0.0119 z m 3.5227822,0.0253 c 0.01511,0.0176 0.03082,0.0347 0.04547,0.0527 -0.0025,-10e-4 -0.0061,-0.002 -0.0083,-0.004 -0.01472,-0.0116 -0.02258,-0.0312 -0.03721,-0.0491 z m -3.6468056,0.0367 c 0.00899,0 0.015794,-0.004 0.025321,0 -0.024341,0.0206 -0.057406,0.0364 -0.099735,0.0496 -0.020105,0.006 -0.045906,0.01 -0.049609,-0.0124 -0.00423,-0.0275 0.019219,-0.0222 0.037207,-0.0248 0.023281,-0.003 0.059314,-0.0114 0.0863,-0.0119 l 5.145e-4,-5.1e-4 z m 3.4473346,5.1e-4 c -0.01746,0.006 -0.02593,0.0448 0,0.0496 0.01217,-0.007 0.01558,-0.0274 0.0124,-0.0496 -0.0069,-0.007 -0.0071,-0.002 -0.0124,0 z m -0.01189,0.0744 c -0.0085,0.003 -0.01581,0.002 -0.02481,0.0119 5.15e-4,0.0296 0.0058,0.049 0,0.0749 0.01693,0.0328 0.05303,0.01 0.0615,-0.0124 0.01006,-0.055 -0.01129,-0.0813 -0.03669,-0.0744 z m 0.235128,0.14882 c -0.02328,-0.001 -0.04774,7.7e-4 -0.06149,0.0119 0.01958,0.0317 0.0553,0.0417 0.09922,0.0496 0.01586,-0.0116 0.0174,-0.0414 0.02481,-0.0615 -0.01904,0 -0.03873,10e-4 -0.06201,0 h -5.15e-4 z m -4.649329,1.08985 c 0.029828,0.0271 0.050602,0.0723 0.0863,0.0899 0.013228,0.007 0.032677,0.009 0.04961,0.0124 0.013756,0.003 0.023979,0.008 0.037207,0.0119 0.028044,0.01 0.064593,0.0153 0.086816,0.0253 0.033864,0.0148 0.057714,0.0694 0.086817,0.0863 0.00159,0.0169 -0.00529,0.0374 0,0.0501 0.013756,0.0185 0.039788,0.0245 0.062012,0.0367 0.026985,0.0148 0.036097,0.0504 0.061495,0.062 0.00899,0.004 0.023451,-0.004 0.037207,0 0.034922,0.0106 0.044771,0.0586 0.074931,0.0496 0.019579,-0.006 0.021629,-0.0306 0.024805,-0.0496 0.013228,-0.0143 0.028974,-0.0372 0.049609,-0.0372 0.032806,-5.2e-4 0.037439,0.0427 0.04961,0.0749 0.00688,0.018 0.02004,0.0306 0.024805,0.0496 0.00794,0.0328 0.00688,0.12925 0,0.14882 -0.00847,0.0243 -0.041905,0.0351 -0.062012,0.0615 -0.00953,0.0127 -0.017396,0.0287 -0.024805,0.0372 -0.012702,0.0159 -0.027165,0.0229 -0.036691,0.0372 -0.00529,0.008 -0.00764,0.0256 -0.012403,0.0367 -0.015875,0.0339 -0.038033,0.059 -0.024805,0.0997 0.00529,0.0164 0.024805,0.03 0.024805,0.0496 0,0.0233 -0.045905,0.0366 -0.049609,0.062 -0.00266,0.0185 0.018982,0.0496 0.024805,0.0744 0.00423,0.0185 0.038498,0.0375 0.049609,0.0496 0.018521,0.0206 0.033194,0.0485 0.050126,0.0749 0.033335,0.0513 0.053494,0.11098 0.0863,0.16124 0.017461,0.0259 0.050371,0.0469 0.062012,0.0744 0.00582,0.0138 -0.00529,0.0369 0,0.0496 0.019047,0.0428 0.1059687,0.0905 0.1488282,0.11162 0.020105,0.01 0.043492,0.0147 0.062012,0.0253 0.028044,0.0159 0.084932,0.0496 0.099219,0.0744 0.012702,0.0222 0.018454,0.0762 0.024805,0.11163 0.00794,0.0466 -0.00213,0.0862 0,0.13642 0.00159,0.0275 0.012401,0.0469 0.012401,0.0744 0,0.01 5.145e-4,0.0277 0,0.0372 -5.146e-4,0.0328 0.00266,0.0659 0,0.0992 -0.00159,0.018 -0.00105,0.0348 0,0.0501 0.00159,0.0164 0.01083,0.0224 0.011886,0.0367 0.00105,0.0153 -0.013472,0.038 -0.011886,0.0501 0.0037,0.0333 0.030857,0.0556 0.037207,0.0863 0.00529,0.0243 0.01506,0.0825 0.011884,0.11162 -0.00213,0.0154 -0.00977,0.0332 -0.011884,0.0501 -0.00159,0.0132 0.00213,0.0245 0,0.0367 -0.0017,0.0118 -0.0046,0.0218 -0.00775,0.032 -0.736068,-0.46885 -1.224214,-1.28986 -1.224214,-2.23087 0,-0.12671 0.011879,-0.2502 0.028939,-0.37207 z m 1.0293945,0.28991 c 0.025397,-0.0116 0.020635,0.034 0,0.0372 -0.019579,0.003 -0.019051,-0.0282 0,-0.0372 z"
         inkscape:connector-curvature="0"
         style="fill:#ffffff;stroke-width:0.22371341" />
    </g>
  </g>
</svg>
