<?xml version="1.0" encoding="UTF-8" standalone="no"?>
<!-- Created with Inkscape (http://www.inkscape.org/) -->

<svg
   xmlns:dc="http://purl.org/dc/elements/1.1/"
   xmlns:cc="http://creativecommons.org/ns#"
   xmlns:rdf="http://www.w3.org/1999/02/22-rdf-syntax-ns#"
   xmlns:svg="http://www.w3.org/2000/svg"
   xmlns="http://www.w3.org/2000/svg"
   xmlns:xlink="http://www.w3.org/1999/xlink"
   xmlns:sodipodi="http://sodipodi.sourceforge.net/DTD/sodipodi-0.dtd"
   xmlns:inkscape="http://www.inkscape.org/namespaces/inkscape"
   width="64"
   height="64"
   viewBox="0 0 16.933333 16.933334"
   version="1.1"
   id="svg8"
   inkscape:version="0.92.2 2405546, 2018-03-11"
   sodipodi:docname="text-x-sass.svg">
  <defs
     id="defs2">
    <linearGradient
       inkscape:collect="always"
       id="linearGradient967">
      <stop
         style="stop-color:#a25abf;stop-opacity:1;"
         offset="0"
         id="stop963" />
      <stop
         style="stop-color:#ce8ee8;stop-opacity:1"
         offset="1"
         id="stop965" />
    </linearGradient>
    <linearGradient
       inkscape:collect="always"
       xlink:href="#linearGradient1497"
       id="linearGradient1455"
       x1="130.16949"
       y1="6.7796607"
       x2="130.16949"
       y2="47.728813"
       gradientUnits="userSpaceOnUse"
       gradientTransform="matrix(0.34001978,0,0,0.34055744,-36.83406,-298.44483)" />
    <linearGradient
       id="linearGradient1497"
       inkscape:collect="always">
      <stop
         id="stop1493"
         offset="0"
         style="stop-color:#a8a8a8;stop-opacity:1" />
      <stop
         id="stop1495"
         offset="1"
         style="stop-color:#d0d0d0;stop-opacity:1" />
    </linearGradient>
    <linearGradient
       id="b-3"
       gradientUnits="userSpaceOnUse"
       x1="407.0036"
       x2="407.0036"
       xlink:href="#a-3"
       y1="544.31207"
       y2="503.15005"
       gradientTransform="translate(-384.57143,-510.98444)" />
    <linearGradient
       id="linearGradient953">
      <stop
         offset="0"
         stop-color="#3889e9"
         id="stop2-6" />
      <stop
         offset="1"
         stop-color="#5ea5fb"
         id="stop4-7" />
    </linearGradient>
    <linearGradient
       id="b-3-9"
       gradientUnits="userSpaceOnUse"
       x1="407.0036"
       x2="407.0036"
       xlink:href="#a-3"
       y1="544.31207"
       y2="503.15005"
       gradientTransform="translate(-382.94817,-511.41555)" />
    <linearGradient
       y2="1037.2084"
       y1="1013.622"
       xlink:href="#a"
       x2="34.116894"
       x1="33.461716"
       gradientUnits="userSpaceOnUse"
       gradientTransform="matrix(0.75298225,0,0,1,8.617543,0)"
       id="linearGradient1068" />
    <linearGradient
       id="linearGradient1072">
      <stop
         id="stop2-7"
         stop-color="#f6fbff"
         offset="0" />
      <stop
         id="stop4-0"
         stop-color="#eaeff2"
         offset="1" />
    </linearGradient>
    <linearGradient
       y2="1012.3622"
       y1="1036.3622"
       x2="17"
       x1="17"
       gradientUnits="userSpaceOnUse"
       gradientTransform="matrix(1.8137796,0,0,1.7592729,-16.353379,-1778.7364)"
       id="b-9">
      <stop
         id="stop7-3"
         stop-color="#8e44ad"
         offset="0" />
      <stop
         id="stop9-6"
         stop-color="#c370e5"
         offset="1" />
    </linearGradient>
    <linearGradient
       y2="1019.6814"
       y1="1032.542"
       xlink:href="#a"
       x2="25.822527"
       x1="15.23138"
       gradientUnits="userSpaceOnUse"
       id="d-0" />
    <linearGradient
       inkscape:collect="always"
       xlink:href="#linearGradient967"
       id="linearGradient969"
       x1="9.2458076"
       y1="-295.13004"
       x2="9.2458076"
       y2="-280.68997"
       gradientUnits="userSpaceOnUse" />
  </defs>
  <sodipodi:namedview
     id="base"
     pagecolor="#ffffff"
     bordercolor="#666666"
     borderopacity="1.0"
     inkscape:pageopacity="0.0"
     inkscape:pageshadow="2"
     inkscape:zoom="7.640625"
     inkscape:cx="7.5255624"
     inkscape:cy="32"
     inkscape:document-units="px"
     inkscape:current-layer="layer1"
     showgrid="false"
     units="px"
     inkscape:showpageshadow="false"
     inkscape:window-width="1366"
     inkscape:window-height="701"
     inkscape:window-x="0"
     inkscape:window-y="0"
     inkscape:window-maximized="1" />
  <metadata
     id="metadata5">
    <rdf:RDF>
      <cc:Work
         rdf:about="">
        <dc:format>image/svg+xml</dc:format>
        <dc:type
           rdf:resource="http://purl.org/dc/dcmitype/StillImage" />
        <dc:title />
      </cc:Work>
    </rdf:RDF>
  </metadata>
  <g
     inkscape:label="Layer 1"
     inkscape:groupmode="layer"
     id="layer1"
     transform="translate(0,-280.06665)">
    <rect
       transform="scale(1,-1)"
       y="-296.47083"
       x="2.1166666"
       height="14.522863"
       width="11.079997"
       id="rect1243"
       style="opacity:1;vector-effect:none;fill:url(#linearGradient1455);fill-opacity:1;stroke:none;stroke-width:0.79375005;stroke-linecap:round;stroke-linejoin:miter;stroke-miterlimit:4;stroke-dasharray:none;stroke-dashoffset:0;stroke-opacity:1;paint-order:stroke fill markers" />
    <rect
       style="opacity:1;vector-effect:none;fill:url(#linearGradient969);fill-opacity:1;stroke:none;stroke-width:0.79375005;stroke-linecap:round;stroke-linejoin:miter;stroke-miterlimit:4;stroke-dasharray:none;stroke-dashoffset:0;stroke-opacity:1;paint-order:stroke fill markers"
       id="rect1466"
       width="11.079997"
       height="14.522863"
       x="3.73667"
       y="-295.11868"
       transform="scale(1,-1)" />
    <path
       style="fill:#ffffff;stroke-width:0.26458335"
       inkscape:connector-curvature="0"
       id="path21"
       d="m 8.5742025,289.02662 c 0.0515,0.18836 0.045851,0.36402 -0.00733,0.5231 -0.00592,0.0176 -0.01242,0.0352 -0.019487,0.0525 -0.00707,0.0173 -0.014716,0.0343 -0.022914,0.0511 -0.041025,0.0842 -0.096074,0.16294 -0.1634951,0.23565 -0.2056552,0.22186 -0.4929967,0.30576 -0.6162071,0.23506 -0.1330506,-0.0763 -0.066404,-0.38905 0.1720396,-0.63828 0.2565173,-0.26815 0.6255987,-0.44055 0.6255987,-0.44055 l -6.81e-4,-9.1e-4 c 0.010635,-0.005 0.021428,-0.0114 0.032376,-0.0174 z m 2.9237325,-3.16787 c -0.160289,-0.62162 -1.202661,-0.82597 -2.1892067,-0.4794 -0.5871071,0.20623 -1.2226995,0.52994 -1.6797036,0.95264 -0.543373,0.50256 -0.6300272,0.93999 -0.5943091,1.12275 0.12598,0.64494 1.0196464,1.0665 1.3870197,1.37927 v 0.002 c -0.1083227,0.0527 -0.9011895,0.44949 -1.0867347,0.85512 -0.1957818,0.42791 0.031161,0.735 0.1814111,0.77633 0.465533,0.12808 0.9432469,-0.10229 1.1999719,-0.48094 0.2477481,-0.36542 0.2271231,-0.83727 0.1194535,-1.07201 0.1485226,-0.0387 0.321666,-0.0561 0.5417074,-0.0306 0.6209117,0.0717 0.7427445,0.45509 0.7194475,0.61549 -0.02328,0.16046 -0.1535164,0.24867 -0.1970561,0.2753 -0.043555,0.0266 -0.05684,0.0358 -0.05317,0.0556 0.00526,0.0288 0.02543,0.0277 0.062562,0.0215 0.051102,-0.008 0.3260381,-0.1305 0.3377871,-0.42666 0.01496,-0.37602 -0.3494353,-0.79664 -0.9946761,-0.78565 -0.2657354,0.005 -0.4328317,0.0295 -0.5535248,0.0739 -0.00892,-0.0101 -0.018018,-0.02 -0.027397,-0.0299 -0.3989064,-0.42084 -1.1363264,-0.71853 -1.1050543,-1.28429 0.011372,-0.20567 0.083668,-0.74727 1.4169673,-1.40423 1.0921999,-0.53813 1.9665419,-0.39006 2.1176489,-0.0618 0.21584,0.4689 -0.46729,1.34038 -1.6015481,1.46608 -0.4321401,0.0479 -0.659678,-0.1177 -0.7162773,-0.17939 -0.059599,-0.0649 -0.068473,-0.0678 -0.090717,-0.0556 -0.036251,0.0198 -0.013288,0.0772 0,0.11136 0.033858,0.0872 0.1728335,0.24169 0.4097604,0.31856 0.2084135,0.0676 0.7157964,0.1048 1.329403,-0.12989 0.687213,-0.26287 1.223852,-0.99407 1.066235,-1.60528" />
  </g>
</svg>
