<?xml version="1.0" encoding="UTF-8" standalone="no"?>
<svg
   xmlns:dc="http://purl.org/dc/elements/1.1/"
   xmlns:cc="http://creativecommons.org/ns#"
   xmlns:rdf="http://www.w3.org/1999/02/22-rdf-syntax-ns#"
   xmlns:svg="http://www.w3.org/2000/svg"
   xmlns="http://www.w3.org/2000/svg"
   xmlns:xlink="http://www.w3.org/1999/xlink"
   xmlns:sodipodi="http://sodipodi.sourceforge.net/DTD/sodipodi-0.dtd"
   xmlns:inkscape="http://www.inkscape.org/namespaces/inkscape"
   height="64"
   viewBox="0 0 64 64"
   width="64"
   version="1.1"
   id="svg35"
   sodipodi:docname="application-sql.svg"
   inkscape:version="0.92.2 2405546, 2018-03-11">
  <metadata
     id="metadata41">
    <rdf:RDF>
      <cc:Work
         rdf:about="">
        <dc:format>image/svg+xml</dc:format>
        <dc:type
           rdf:resource="http://purl.org/dc/dcmitype/StillImage" />
        <dc:title></dc:title>
      </cc:Work>
    </rdf:RDF>
  </metadata>
  <defs
     id="defs39">
    <linearGradient
       id="b-3"
       gradientUnits="userSpaceOnUse"
       x1="407.0036"
       x2="407.0036"
       xlink:href="#a-3"
       y1="544.31207"
       y2="503.15005"
       gradientTransform="translate(-384.57143,-510.98444)" />
    <linearGradient
       id="linearGradient953">
      <stop
         offset="0"
         stop-color="#3889e9"
         id="stop2-6" />
      <stop
         offset="1"
         stop-color="#5ea5fb"
         id="stop4-7" />
    </linearGradient>
    <linearGradient
       id="b-3-9"
       gradientUnits="userSpaceOnUse"
       x1="407.0036"
       x2="407.0036"
       xlink:href="#a-3"
       y1="544.31207"
       y2="503.15005"
       gradientTransform="matrix(1.231681,0,0,1.24749,-531.06084,-644.60351)" />
    <linearGradient
       y2="1037.2084"
       y1="1013.622"
       xlink:href="#a-3"
       x2="34.116894"
       x1="33.461716"
       gradientUnits="userSpaceOnUse"
       gradientTransform="matrix(0.75298225,0,0,1,8.617543,0)"
       id="linearGradient1068" />
    <linearGradient
       id="linearGradient1072">
      <stop
         id="stop2-7"
         stop-color="#f6fbff"
         offset="0" />
      <stop
         id="stop4-0"
         stop-color="#eaeff2"
         offset="1" />
    </linearGradient>
    <linearGradient
       y2="1012.3622"
       y1="1036.3622"
       x2="17"
       x1="17"
       gradientUnits="userSpaceOnUse"
       gradientTransform="matrix(1.8137796,0,0,1.7592729,-16.353379,-1778.7364)"
       id="b-9">
      <stop
         id="stop7-3"
         stop-color="#8e44ad"
         offset="0" />
      <stop
         id="stop9-6"
         stop-color="#c370e5"
         offset="1" />
    </linearGradient>
    <linearGradient
       y2="1019.6814"
       y1="1032.542"
       xlink:href="#a-3"
       x2="25.822527"
       x1="15.23138"
       gradientUnits="userSpaceOnUse"
       id="d-0" />
    <linearGradient
       gradientTransform="translate(-407.39845,-504.82635)"
       y2="503.15005"
       y1="544.31207"
       xlink:href="#a-3"
       x2="407.0036"
       x1="407.0036"
       gradientUnits="userSpaceOnUse"
       id="b-3-9-3" />
    <linearGradient
       id="b-3-9-1"
       gradientUnits="userSpaceOnUse"
       x1="407.0036"
       x2="407.0036"
       xlink:href="#a-3"
       y1="544.31207"
       y2="503.15005"
       gradientTransform="matrix(1.231681,0,0,1.24749,-532.41677,-644.60354)" />
    <linearGradient
       inkscape:collect="always"
       xlink:href="#linearGradient1497"
       id="linearGradient1455"
       x1="130.16949"
       y1="6.7796607"
       x2="130.16949"
       y2="47.728813"
       gradientUnits="userSpaceOnUse"
       gradientTransform="matrix(1.2851141,0,0,1.2871462,-139.21534,-69.460854)" />
    <linearGradient
       id="linearGradient1497"
       inkscape:collect="always">
      <stop
         id="stop1493"
         offset="0"
         style="stop-color:#a8a8a8;stop-opacity:1" />
      <stop
         id="stop1495"
         offset="1"
         style="stop-color:#d0d0d0;stop-opacity:1" />
    </linearGradient>
    <linearGradient
       gradientTransform="translate(-1.3559327,2.6744092e-5)"
       inkscape:collect="always"
       xlink:href="#linearGradient940"
       id="linearGradient942"
       x1="36.067795"
       y1="-56.949154"
       x2="36.067795"
       y2="-3.2542372"
       gradientUnits="userSpaceOnUse" />
    <linearGradient
       inkscape:collect="always"
       id="linearGradient940">
      <stop
         style="stop-color:#a159bf;stop-opacity:1"
         offset="0"
         id="stop936" />
      <stop
         style="stop-color:#ce8fe8;stop-opacity:1"
         offset="1"
         id="stop938" />
    </linearGradient>
    <linearGradient
       gradientTransform="translate(-408.75438,-504.82638)"
       y2="503.15005"
       y1="544.31207"
       xlink:href="#a-3"
       x2="407.0036"
       x1="407.0036"
       gradientUnits="userSpaceOnUse"
       id="b-3-9-3-2" />
  </defs>
  <sodipodi:namedview
     pagecolor="#ffffff"
     bordercolor="#666666"
     borderopacity="1"
     objecttolerance="10"
     gridtolerance="10"
     guidetolerance="10"
     inkscape:pageopacity="0"
     inkscape:pageshadow="2"
     inkscape:window-width="1366"
     inkscape:window-height="701"
     id="namedview37"
     showgrid="false"
     inkscape:zoom="7.640625"
     inkscape:cx="6.3476483"
     inkscape:cy="32"
     inkscape:window-x="0"
     inkscape:window-y="0"
     inkscape:window-maximized="1"
     inkscape:current-layer="svg35"
     inkscape:snap-bbox="true"
     inkscape:bbox-paths="true"
     inkscape:snap-smooth-nodes="true"
     showguides="false" />
  <linearGradient
     id="a"
     gradientTransform="matrix(1.0749904,0,0,1.0292896,56.688954,-0.015285)"
     gradientUnits="userSpaceOnUse"
     x1="-74.929466"
     x2="-75.259552"
     y1="52.199436"
     y2="2.356489">
    <stop
       offset="0"
       stop-color="#8549a0"
       id="stop2" />
    <stop
       offset="1"
       stop-color="#c16fe3"
       id="stop4" />
  </linearGradient>
  <circle
     style="fill:url(#b-3-9-1);stroke-width:1"
     id="circle22"
     r="0"
     cy="8.7455873"
     cx="-29.307634" />
  <text
     xml:space="preserve"
     style="font-style:normal;font-weight:normal;font-size:49.58241272px;line-height:1.25;font-family:sans-serif;letter-spacing:0px;word-spacing:0px;fill:#000000;fill-opacity:1;stroke:none;stroke-width:1"
     x="-168.25241"
     y="15.102559"
     id="text879"
     transform="scale(0.99364347,1.0063972)"><tspan
       style="stroke-width:1"
       sodipodi:role="line"
       id="tspan877"
       x="-168.25241"
       y="58.971371" /></text>
  <rect
     transform="scale(1,-1)"
     y="-62.000011"
     x="7.9999986"
     height="54.889561"
     width="41.877155"
     id="rect1243"
     style="opacity:1;vector-effect:none;fill:url(#linearGradient1455);fill-opacity:1;stroke:none;stroke-width:3.00000024;stroke-linecap:round;stroke-linejoin:miter;stroke-miterlimit:4;stroke-dasharray:none;stroke-dashoffset:0;stroke-opacity:1;paint-order:stroke fill markers" />
  <rect
     style="opacity:1;vector-effect:none;fill:url(#linearGradient942);fill-opacity:1;stroke:none;stroke-width:3.00000024;stroke-linecap:round;stroke-linejoin:miter;stroke-miterlimit:4;stroke-dasharray:none;stroke-dashoffset:0;stroke-opacity:1;paint-order:stroke fill markers"
     id="rect1466"
     width="41.877155"
     height="54.889561"
     x="14.122847"
     y="-56.889549"
     transform="scale(1,-1)" />
  <text
     xml:space="preserve"
     style="font-style:normal;font-weight:normal;font-size:40px;line-height:1.25;font-family:sans-serif;letter-spacing:0px;word-spacing:0px;fill:#000000;fill-opacity:1;stroke:none;stroke-width:1"
     x="-166.60846"
     y="8.3475399"
     id="text879-5"><tspan
       sodipodi:role="line"
       id="tspan877-6"
       x="-166.60846"
       y="43.738163"
       style="stroke-width:1" /></text>
  <circle
     style="fill:url(#b-3-9-3-2)"
     id="circle22-6"
     r="0"
     cy="18.904579"
     cx="-0.28081274" />
  <text
     xml:space="preserve"
     style="font-style:normal;font-weight:normal;font-size:40px;line-height:1.25;font-family:sans-serif;letter-spacing:0px;word-spacing:0px;fill:#000000;fill-opacity:1;stroke:none"
     x="-112.22154"
     y="24.077837"
     id="text879-7"><tspan
       sodipodi:role="line"
       id="tspan877-5"
       x="-112.22154"
       y="59.468464" /></text>
  <path
     style="fill:#ffffff;stroke-width:0.0784661"
     inkscape:connector-curvature="0"
     d="m 24.842864,27.034587 c 0.287471,0.304781 0.71103,0.304781 0.850252,0.304781 0.25815,0 0.57733,-0.04275 1.034687,-0.1387 0.359245,-0.07535 0.668577,-0.150487 0.94135,-0.216666 0.536592,-0.130343 0.924413,-0.224575 1.289479,-0.224575 0.205773,0 0.581209,0.08916 0.978803,0.183614 0.619037,0.147056 1.389382,0.329999 2.134509,0.329999 0.752288,0 1.544121,-0.0585 2.043036,-0.103633 0.165708,0.6212 0.559945,1.64559 1.454813,2.378854 1.216659,0.996785 2.118691,1.441459 2.156518,1.459888 0.231065,0.11266 0.508912,0.05365 0.674023,-0.1434 0.165112,-0.196895 0.174959,-0.48086 0.0238,-0.688648 -0.005,-0.0071 -0.613068,-0.866665 -0.589715,-1.832711 0.0092,-0.384315 0.0232,-0.685439 0.03745,-0.914789 0.75781,0.223381 2.04811,0.722743 2.713703,1.662751 1.008275,1.423776 1.421911,3.615808 1.311115,4.334895 -0.115346,0.74923 -0.129149,0.74923 -0.484664,0.74923 -0.774597,0 -1.425344,0.03171 -2.158308,0.430722 -0.648359,0.352829 -1.00544,0.73886 -1.043939,0.78176 -0.145414,0.16153 -0.184136,0.392671 -0.09931,0.592699 0.08484,0.200178 0.277846,0.333058 0.495035,0.340818 0.209504,0.0078 0.843462,0.06065 1.250906,0.208533 0.216367,0.07857 0.402743,0.170483 0.582999,0.259418 0.288366,0.142281 0.560767,0.276652 0.878529,0.314182 0.103334,0.01224 0.209429,0.01821 0.309854,0.01633 0.117137,0.272101 0.316494,0.59643 0.651789,0.853758 0.256658,0.197044 0.517792,0.318583 0.748186,0.425723 0.28292,0.131686 0.506451,0.235692 0.678053,0.448478 0.449747,0.557707 0.600683,1.162419 0.602099,1.168463 0.05879,0.24151 0.270237,0.416545 0.518538,0.427811 0.0086,4.48e-4 0.01723,5.97e-4 0.02582,5.97e-4 0.238079,0 0.451687,-0.150115 0.529355,-0.377227 0.03499,-0.101991 0.329924,-1.036775 -0.06259,-2.405042 -0.140341,-0.489141 -0.357754,-0.912551 -0.567929,-1.322158 -0.34201,-0.666189 -0.63739,-1.241504 -0.513464,-1.94649 0.582553,-3.31349 0.542338,-6.007644 -0.11945,-8.007333 -1.029016,-3.110029 -3.520083,-4.842838 -4.009,-5.158511 -0.242556,-0.156755 -0.460864,-0.294634 -0.644852,-0.409234 0.170632,-0.135939 0.387523,-0.278742 0.645374,-0.388343 0.586879,-0.249495 0.833539,-0.317688 0.901881,-0.333954 0.0044,1.5e-4 0.0087,1.5e-4 0.01291,1.5e-4 0.243601,7.5e-5 0.43087,-0.160784 0.502123,-0.398341 0.07401,-0.24666 -0.06349,-0.511449 -0.285159,-0.642389 -0.04215,-0.025 -1.050354,-0.611128 -2.379077,-0.611128 -0.274191,0 -0.546591,0.02514 -0.80959,0.07476 -0.819438,0.154666 -1.398557,0.385732 -1.958578,0.609113 -0.546814,0.218159 -1.063337,0.42423 -1.834502,0.586656 -0.374615,0.07894 -0.719611,0.139818 -1.05319,0.19876 -1.14772,0.20264 -2.138909,0.377674 -3.620881,1.13444 -1.934181,0.987832 -3.021766,2.068627 -3.062503,3.043104 -0.0086,0.2054 -0.0041,0.38894 0.0135,0.550246 -0.181003,0.0905 -0.400952,0.204878 -0.62314,0.331267 -0.904493,0.514434 -1.283808,0.899717 -1.309101,1.329694 -0.01753,0.299184 0.06267,0.545321 0.238452,0.731771 z"
     id="path992" />
</svg>
