<?xml version="1.0" encoding="UTF-8" standalone="no"?>
<!-- Created with Inkscape (http://www.inkscape.org/) -->

<svg
   xmlns:dc="http://purl.org/dc/elements/1.1/"
   xmlns:cc="http://creativecommons.org/ns#"
   xmlns:rdf="http://www.w3.org/1999/02/22-rdf-syntax-ns#"
   xmlns:svg="http://www.w3.org/2000/svg"
   xmlns="http://www.w3.org/2000/svg"
   xmlns:xlink="http://www.w3.org/1999/xlink"
   xmlns:sodipodi="http://sodipodi.sourceforge.net/DTD/sodipodi-0.dtd"
   xmlns:inkscape="http://www.inkscape.org/namespaces/inkscape"
   width="64"
   height="64"
   viewBox="0 0 16.933333 16.933334"
   version="1.1"
   id="svg8"
   inkscape:version="0.92.2 2405546, 2018-03-11"
   sodipodi:docname="application-text.svg">
  <defs
     id="defs2">
    <linearGradient
       gradientTransform="matrix(0.34001978,0,0,0.34055744,-36.83406,-298.44484)"
       gradientUnits="userSpaceOnUse"
       y2="47.728813"
       x2="130.16949"
       y1="6.7796607"
       x1="130.16949"
       id="linearGradient1455"
       xlink:href="#linearGradient1497"
       inkscape:collect="always" />
    <linearGradient
       inkscape:collect="always"
       id="linearGradient1497">
      <stop
         style="stop-color:#a8a8a8;stop-opacity:1"
         offset="0"
         id="stop1493" />
      <stop
         style="stop-color:#d0d0d0;stop-opacity:1"
         offset="1"
         id="stop1495" />
    </linearGradient>
    <linearGradient
       gradientTransform="matrix(0.34001978,0,0,0.34055744,-35.214053,-297.09271)"
       y2="47.728813"
       x2="130.16949"
       y1="6.7796607"
       x1="130.16949"
       gradientUnits="userSpaceOnUse"
       id="linearGradient1468"
       xlink:href="#linearGradient1453"
       inkscape:collect="always" />
    <linearGradient
       id="linearGradient1453"
       inkscape:collect="always">
      <stop
         id="stop1449"
         offset="0"
         style="stop-color:#d3d7da;stop-opacity:1" />
      <stop
         id="stop1451"
         offset="1"
         style="stop-color:#eeeeee;stop-opacity:1" />
    </linearGradient>
  </defs>
  <sodipodi:namedview
     id="base"
     pagecolor="#ffffff"
     bordercolor="#666666"
     borderopacity="1.0"
     inkscape:pageopacity="0.0"
     inkscape:pageshadow="2"
     inkscape:zoom="7.640625"
     inkscape:cx="32"
     inkscape:cy="32"
     inkscape:document-units="px"
     inkscape:current-layer="layer1"
     showgrid="false"
     units="px"
     inkscape:showpageshadow="false"
     inkscape:window-width="1366"
     inkscape:window-height="701"
     inkscape:window-x="0"
     inkscape:window-y="0"
     inkscape:window-maximized="1" />
  <metadata
     id="metadata5">
    <rdf:RDF>
      <cc:Work
         rdf:about="">
        <dc:format>image/svg+xml</dc:format>
        <dc:type
           rdf:resource="http://purl.org/dc/dcmitype/StillImage" />
        <dc:title></dc:title>
      </cc:Work>
    </rdf:RDF>
  </metadata>
  <g
     inkscape:label="Layer 1"
     inkscape:groupmode="layer"
     id="layer1"
     transform="translate(0,-280.06665)">
    <rect
       transform="scale(1,-1)"
       y="-296.47083"
       x="2.1166668"
       height="14.522863"
       width="11.079997"
       id="rect1243"
       style="opacity:1;vector-effect:none;fill:url(#linearGradient1455);fill-opacity:1;stroke:none;stroke-width:0.79375005;stroke-linecap:round;stroke-linejoin:miter;stroke-miterlimit:4;stroke-dasharray:none;stroke-dashoffset:0;stroke-opacity:1;paint-order:stroke fill markers" />
    <rect
       style="opacity:1;vector-effect:none;fill:url(#linearGradient1468);fill-opacity:1;stroke:none;stroke-width:0.79375005;stroke-linecap:round;stroke-linejoin:miter;stroke-miterlimit:4;stroke-dasharray:none;stroke-dashoffset:0;stroke-opacity:1;paint-order:stroke fill markers"
       id="rect1466"
       width="11.079997"
       height="14.522863"
       x="3.7366703"
       y="-295.11868"
       transform="scale(1,-1)" />
    <g
       id="g1008"
       transform="matrix(0.2910417,0,0,0.30868057,-0.43129884,278.81657)"
       style="stroke-width:0.88273484">
      <path
         id="rect4596"
         d="m 23.355933,17.28812 v 1.412548 h 5.263036 V 17.28812 Z m 6.315182,0 v 1.412548 h 4.21089 V 17.28812 Z m 5.263036,0 v 1.412548 H 41.25164 V 17.28812 Z m -11.578218,2.822877 v 1.412548 h 7.369635 v -1.412548 z m 8.42178,0 v 1.412548 h 3.156438 v -1.412548 z m 4.210891,0 v 1.412548 h 7.367328 v -1.412548 z m -12.632671,2.825096 v 1.410329 h 8.42178 v -1.410329 z m 9.473926,0 v 1.410329 h 5.263037 v -1.410329 z m 6.315182,0 v 1.410329 h 4.210891 V 22.936093 Z M 23.355933,25.75897 v 1.410329 h 6.315182 V 25.75897 Z m 7.369635,0 v 1.410329 h 3.156437 V 25.75897 Z m 4.208583,0 v 1.410329 h 4.21089 V 25.75897 Z m 5.263036,0 v 1.410329 h 3.158745 V 25.75897 Z m -16.841254,2.822877 v 1.412548 h 4.243192 v -1.412548 z m 5.263036,0 v 1.412548 h 7.369635 v -1.412548 z"
         style="opacity:1;fill:#1e9ff4;fill-opacity:1;fill-rule:evenodd;stroke-width:0.79199606"
         inkscape:connector-curvature="0" />
      <path
         id="rect4628"
         d="m 23.355933,34.229818 v 1.410331 h 10.526072 v -1.410331 z m 11.578218,0 v 1.410331 h 5.263036 v -1.410331 z m 6.317489,0 v 1.410331 h 2.104292 v -1.410331 z m -17.895707,2.822879 v 1.412546 h 4.243192 v -1.412546 z m 5.263036,0 v 1.412546 h 8.421781 v -1.412546 z m 9.473927,0 v 1.412546 h 4.240886 v -1.412546 z m -14.736963,2.822877 v 1.412546 h 7.369635 v -1.412546 z m 8.42178,0 v 1.412546 h 3.156438 v -1.412546 z"
         style="fill:#4d4d4d;fill-opacity:1;fill-rule:evenodd;stroke-width:0.79199606"
         inkscape:connector-curvature="0" />
    </g>
  </g>
</svg>
