<?xml version="1.0" encoding="UTF-8" standalone="no"?>
<svg
   xmlns:dc="http://purl.org/dc/elements/1.1/"
   xmlns:cc="http://creativecommons.org/ns#"
   xmlns:rdf="http://www.w3.org/1999/02/22-rdf-syntax-ns#"
   xmlns:svg="http://www.w3.org/2000/svg"
   xmlns="http://www.w3.org/2000/svg"
   version="1.1"
   id="svg4359"
   height="22"
   width="22">
  <defs
     id="defs4361">
    <style
       type="text/css"
       id="current-color-scheme">
      .ColorScheme-Text {
        color:#4d4d4d;
      }
      </style>
  </defs>
  <metadata
     id="metadata4364">
    <rdf:RDF>
      <cc:Work
         rdf:about="">
        <dc:format>image/svg+xml</dc:format>
        <dc:type
           rdf:resource="http://purl.org/dc/dcmitype/StillImage" />
        <dc:title></dc:title>
      </cc:Work>
    </rdf:RDF>
  </metadata>
  <path
     style="color:#000000;clip-rule:nonzero;display:inline;overflow:visible;visibility:visible;opacity:1;isolation:auto;mix-blend-mode:normal;color-interpolation:sRGB;color-interpolation-filters:linearRGB;solid-color:#000000;solid-opacity:1;fill:#4d4d4d;fill-opacity:1;fill-rule:nonzero;stroke:none;stroke-width:1;stroke-linecap:butt;stroke-linejoin:miter;stroke-miterlimit:4;stroke-dasharray:none;stroke-dashoffset:0;stroke-opacity:1;color-rendering:auto;image-rendering:auto;shape-rendering:auto;text-rendering:auto;enable-background:accumulate"
     d="m 2.000002,3 v 3 1 12 h 1.9999999 5.089844 1.9101561 8.916016 0.08398 V 10 7 6 5 h -9 V 4.5 c 0,-0.831 -0.669,-1.5 -1.5000001,-1.5 h -3.5 -1.5 H 2.999998 Z M 4.0000019,7 H 18.000002 v 1 1 1 7 h -7 -1.9101561 -5.089844 V 9 8 Z"
     id="path829" />
  <g
     id="g860"
     transform="translate(37.533203,-11.482733)">
    <path
       style="opacity:1;fill:#4d4d4d;fill-opacity:1;stroke:none;stroke-width:0.30000001;stroke-miterlimit:4;stroke-dasharray:none;stroke-opacity:1"
       d="m -32.533203,22.513672 v 2 h 12 v -2 z m 5.068359,0.04297 h 1.861328 v 1.912109 h -1.861328 z"
       id="rect840" />
    <path
       style="opacity:1;fill:#4d4d4d;fill-opacity:1;stroke:none;stroke-width:0.26451653;stroke-miterlimit:4;stroke-dasharray:none;stroke-opacity:1"
       d="m -28.666016,21.324219 v 4.376953 h 4.263672 v -4.376953 z m 1.201172,1.232422 h 1.861328 v 1.912109 h -1.861328 z"
       id="rect842" />
  </g>
</svg>
