<?xml version="1.0" encoding="UTF-8" standalone="no"?>
<svg
   xmlns:dc="http://purl.org/dc/elements/1.1/"
   xmlns:cc="http://creativecommons.org/ns#"
   xmlns:rdf="http://www.w3.org/1999/02/22-rdf-syntax-ns#"
   xmlns:svg="http://www.w3.org/2000/svg"
   xmlns="http://www.w3.org/2000/svg"
   id="svg6"
   version="1.1"
   viewBox="0 0 22 22">
  <metadata
     id="metadata10">
    <rdf:RDF>
      <cc:Work
         rdf:about="">
        <dc:format>image/svg+xml</dc:format>
        <dc:type
           rdf:resource="http://purl.org/dc/dcmitype/StillImage" />
        <dc:title></dc:title>
      </cc:Work>
    </rdf:RDF>
  </metadata>
  <defs
     id="defs3051">
    <style
       id="current-color-scheme"
       type="text/css">
      .ColorScheme-Text {
        color:#4d4d4d;
      }
      </style>
  </defs>
  <path
     id="path4"
     d="m 7,2.501953 v 0.9960938 3 h 1 v -3 h 2 v 3 h 1 2 3 v -3 h 0.582031 L 18,4.9160156 v 8.5820314 h -2 v 1 h 2 1 v -1 V 5.2558593 4.501953 h -0.0039 l -1.9961,-2 z M 3,7.4980468 v 1 10.0000002 1 h 1 2 1 4 1 2 1 v -1 -8.242188 -0.7539062 -0.00391 H 14.9961 L 13,7.501953 v -0.00391 z m 1,1 h 2 v 3.0000002 1 h 6 v -1 -3.0000002 h 0.582031 L 14,9.9160158 V 18.498047 H 12 11 7 6 4 Z"
     style="fill:#4d4d4d;fill-opacity:1;stroke:none" />
</svg>
