<?xml version="1.0" encoding="UTF-8" standalone="no"?>
<svg
   xmlns:dc="http://purl.org/dc/elements/1.1/"
   xmlns:cc="http://creativecommons.org/ns#"
   xmlns:rdf="http://www.w3.org/1999/02/22-rdf-syntax-ns#"
   xmlns:svg="http://www.w3.org/2000/svg"
   xmlns="http://www.w3.org/2000/svg"
   version="1.1"
   id="svg4359"
   height="22"
   width="22">
  <defs
     id="defs4361" />
  <metadata
     id="metadata4364">
    <rdf:RDF>
      <cc:Work
         rdf:about="">
        <dc:format>image/svg+xml</dc:format>
        <dc:type
           rdf:resource="http://purl.org/dc/dcmitype/StillImage" />
        <dc:title></dc:title>
      </cc:Work>
    </rdf:RDF>
  </metadata>
  <g
     transform="translate(0,-26)"
     id="layer1">
    <path
       id="rect4147"
       d="m 8.6810313,29.580207 c -2.8260139,0 -5.101108,2.275094 -5.101108,5.101108 0,2.826013 2.2750941,5.101108 5.101108,5.101108 1.0743107,0 2.0689417,-0.33021 2.8892987,-0.893057 l 5.530428,5.530427 1.311507,-1.311506 -5.528616,-5.530427 c 0.565995,-0.821793 0.89849,-1.818957 0.89849,-2.896545 0,-2.826014 -2.275094,-5.101108 -5.1011077,-5.101108 z m 0,1.854948 c 1.7983727,0 3.2461597,1.447787 3.2461597,3.24616 0,1.798372 -1.447787,3.246159 -3.2461597,3.246159 -1.7983725,0 -3.2461597,-1.447787 -3.2461597,-3.246159 0,-1.798373 1.4477872,-3.24616 3.2461597,-3.24616 z"
       style="color:#000000;clip-rule:nonzero;display:inline;overflow:visible;visibility:visible;opacity:1;isolation:auto;mix-blend-mode:normal;color-interpolation:sRGB;color-interpolation-filters:linearRGB;solid-color:#000000;solid-opacity:1;fill:#4d4d4d;fill-opacity:1;fill-rule:nonzero;stroke:none;stroke-width:0.9274742;stroke-linecap:butt;stroke-linejoin:miter;stroke-miterlimit:4;stroke-dasharray:none;stroke-dashoffset:0;stroke-opacity:1;color-rendering:auto;image-rendering:auto;shape-rendering:auto;text-rendering:auto;enable-background:accumulate" />
  </g>
</svg>
