<?xml version="1.0" encoding="UTF-8" standalone="no"?>
<svg
   xmlns:dc="http://purl.org/dc/elements/1.1/"
   xmlns:cc="http://creativecommons.org/ns#"
   xmlns:rdf="http://www.w3.org/1999/02/22-rdf-syntax-ns#"
   xmlns:svg="http://www.w3.org/2000/svg"
   xmlns="http://www.w3.org/2000/svg"
   xmlns:sodipodi="http://sodipodi.sourceforge.net/DTD/sodipodi-0.dtd"
   xmlns:inkscape="http://www.inkscape.org/namespaces/inkscape"
   id="svg4"
   version="1.1"
   viewBox="0 0 22 22"
   sodipodi:docname="edit-delete.svg"
   inkscape:version="0.92.2 2405546, 2018-03-11">
  <sodipodi:namedview
     pagecolor="#ffffff"
     bordercolor="#666666"
     borderopacity="1"
     objecttolerance="10"
     gridtolerance="10"
     guidetolerance="10"
     inkscape:pageopacity="0"
     inkscape:pageshadow="2"
     inkscape:window-width="1366"
     inkscape:window-height="701"
     id="namedview6"
     showgrid="false"
     inkscape:zoom="10.727273"
     inkscape:cx="-20.135593"
     inkscape:cy="14.728814"
     inkscape:window-x="0"
     inkscape:window-y="0"
     inkscape:window-maximized="1"
     inkscape:current-layer="svg4" />
  <metadata
     id="metadata10">
    <rdf:RDF>
      <cc:Work
         rdf:about="">
        <dc:format>image/svg+xml</dc:format>
        <dc:type
           rdf:resource="http://purl.org/dc/dcmitype/StillImage" />
        <dc:title />
      </cc:Work>
    </rdf:RDF>
  </metadata>
  <defs
     id="defs8" />
  <path
     inkscape:connector-curvature="0"
     style="fill:#da4453;fill-opacity:1"
     d="m 3.0831415,8.1621603 1.00157,0.81437 -0.94267,1.8792497 c -0.47132,0.86655 0.33838,1.71069 0.85428,2.00455 0.50787,0.28926 1.29613,0.32365 2.03258,0.31323 l 1.32559,-2.25513 1.00156,0.56378 -1.73801,-3.3513397 -3.5349,0.0313 z m 0.14727,4.6002597 2.1504,4.13437 c 0.43205,0.5742 1.24706,0.70993 2.09151,0.68906 h 2.26823 v -3.91511 l -4.30081,-0.0313 c -0.66768,0.0417 -1.54162,-0.10445 -2.20933,-0.87701 z m 13.5293105,-7.6191702 -1.16999,0.51679 -1.12244,-1.76903 c -0.49976,-0.84909 -1.60182,-0.52138 -2.09887,-0.19428 -0.48931,0.32202 -0.90039,1.02281 -1.24865,1.69816 l 1.25265,2.2998305 -0.9594,0.63827 3.65925,0.0429 1.68745,-3.2326105 z m -3.9377,-2.09616 -4.5172905,-0.0471 c -0.69204,0.11484 -1.20124,0.79082 -1.59309,1.56958 l -1.09966,2.06449 3.29048,1.8981005 2.1114005,-3.8993405 c 0.2886,-0.62801 0.83513,-1.35255 1.80816,-1.58571 z m 0.1965,15.9528802 0.13286,-1.31547 2.03098,-0.16392 c 0.95589,-0.0433 1.21477,-1.20517 1.18083,-1.81617 -0.0334,-0.60149 -0.42311,-1.31539 -0.82188,-1.95978 l -2.54018,0.0252 -0.0714,-1.18267 -1.810071,3.30977 1.898801,3.10308 z m 3.67077,-2.56773 2.22961,-4.08864 c 0.23901,-0.68558 -0.0822,-1.47678 -0.5468,-2.21098 l -1.20198,-2.0017798 -3.19051,2.0746998 2.25357,3.81219 c 0.3879,0.56712 0.73187,1.41581 0.45611,2.41451 z"
     id="path2-3" />
</svg>
