<?xml version="1.0" encoding="UTF-8" standalone="no"?>
<svg
   xmlns:dc="http://purl.org/dc/elements/1.1/"
   xmlns:cc="http://creativecommons.org/ns#"
   xmlns:rdf="http://www.w3.org/1999/02/22-rdf-syntax-ns#"
   xmlns:svg="http://www.w3.org/2000/svg"
   xmlns="http://www.w3.org/2000/svg"
   id="svg4"
   version="1.1"
   viewBox="0 0 22 22">
  <metadata
     id="metadata10">
    <rdf:RDF>
      <cc:Work
         rdf:about="">
        <dc:format>image/svg+xml</dc:format>
        <dc:type
           rdf:resource="http://purl.org/dc/dcmitype/StillImage" />
        <dc:title></dc:title>
      </cc:Work>
    </rdf:RDF>
  </metadata>
  <defs
     id="defs8" />
  <path
     id="path823"
     d="M 3.7617188 3 C 3.3407295 3 3 3.36408 3 3.8125 L 3 18.1875 C 3 18.63632 3.3410203 19 3.7617188 19 L 18.238281 19 C 18.659289 19 19 18.63592 19 18.1875 L 19 3.8125 C 19 3.3636801 18.658989 3 18.238281 3 L 3.7617188 3 z M 4.7734375 4.1191406 L 17.226562 4.1191406 C 17.588443 4.1191406 17.880859 4.4322982 17.880859 4.8183594 L 17.880859 17.181641 C 17.880859 17.567358 17.588701 17.880859 17.226562 17.880859 L 4.7734375 17.880859 C 4.4115656 17.880859 4.1191406 17.567702 4.1191406 17.181641 L 4.1191406 4.8183594 C 4.1191406 4.4326422 4.4113154 4.1191406 4.7734375 4.1191406 z "
     style="fill:#4d4d4d;stroke-width:1" />
  <path
     id="path821"
     d="m 13.098502,5.6694864 c 1.342973,0 2.432211,1.0892201 2.432211,2.43221 0,1.3429638 -1.089238,2.4321966 -2.432211,2.4321966 -1.343389,0 -2.432196,-1.0892328 -2.432196,-2.4321966 0,-1.3429899 1.088807,-2.43221 2.432196,-2.43221 z"
     style="fill:#4d4d4d;stroke-width:0.99999994" />
  <path
     id="path2"
     d="m 6.0926101,16.283558 c -0.4827159,0 -0.6977087,-0.285275 -0.4800893,-0.636994 l 2.9997016,-4.850102 c 0.2173099,-0.35172 0.6315729,-0.383117 0.9249154,-0.07017 l 3.0283132,4.873465 c 0,0 0.495614,0.683833 -0.480455,0.683833 z"
     style="fill:#4d4d4d;stroke-width:1" />
</svg>
