<?xml version="1.0" encoding="UTF-8" standalone="no"?>
<svg
   xmlns:dc="http://purl.org/dc/elements/1.1/"
   xmlns:cc="http://creativecommons.org/ns#"
   xmlns:rdf="http://www.w3.org/1999/02/22-rdf-syntax-ns#"
   xmlns:svg="http://www.w3.org/2000/svg"
   xmlns="http://www.w3.org/2000/svg"
   width="22"
   height="22"
   id="svg4359"
   version="1.1">
  <defs
     id="defs4361" />
  <metadata
     id="metadata4364">
    <rdf:RDF>
      <cc:Work
         rdf:about="">
        <dc:format>image/svg+xml</dc:format>
        <dc:type
           rdf:resource="http://purl.org/dc/dcmitype/StillImage" />
        <dc:title></dc:title>
      </cc:Work>
    </rdf:RDF>
  </metadata>
  <path
     id="path823"
     d="M 8 3 L 8 5 L 4 5 L 4 7 L 4 17 L 4 19 L 11 19 L 11 17 L 6 17 L 6 7 L 8 7 L 14 7 L 16 7 L 16 11 L 18 11 L 18 5 L 14 5 L 14 3 L 8 3 z M 15.15625 10.949219 L 14.384766 13.113281 L 12.308594 12.128906 L 13.294922 14.203125 L 11.130859 14.974609 L 13.294922 15.744141 L 12.308594 17.820312 L 14.384766 16.835938 L 15.15625 19 L 15.925781 16.835938 L 18.001953 17.820312 L 17.015625 15.744141 L 19.181641 14.974609 L 17.015625 14.203125 L 18.001953 12.128906 L 15.925781 13.113281 L 15.15625 10.949219 z "
     style="opacity:1;fill:#4d4d4d;fill-opacity:1;stroke:none;stroke-width:0.1;stroke-linecap:round;stroke-linejoin:miter;stroke-miterlimit:4;stroke-dasharray:none;stroke-opacity:0.29943501" />
</svg>
