<?xml version="1.0" encoding="UTF-8" standalone="no"?>
<svg
   xmlns:dc="http://purl.org/dc/elements/1.1/"
   xmlns:cc="http://creativecommons.org/ns#"
   xmlns:rdf="http://www.w3.org/1999/02/22-rdf-syntax-ns#"
   xmlns:svg="http://www.w3.org/2000/svg"
   xmlns="http://www.w3.org/2000/svg"
   version="1.1"
   id="svg4359"
   height="22"
   width="22">
  <defs
     id="defs4361" />
  <metadata
     id="metadata4364">
    <rdf:RDF>
      <cc:Work
         rdf:about="">
        <dc:format>image/svg+xml</dc:format>
        <dc:type
           rdf:resource="http://purl.org/dc/dcmitype/StillImage" />
        <dc:title></dc:title>
      </cc:Work>
    </rdf:RDF>
  </metadata>
  <g
     transform="translate(0,-26)"
     id="layer1">
    <path
       id="rect4166"
       transform="translate(0,26)"
       d="M 5 3 L 5 5 L 5 9 L 3 9 L 3 15 L 3 17 L 5 17 L 7 17 L 7 19 L 15 19 L 15 17 L 17 17 L 19 17 L 19 9 L 17 9 L 17 5 L 17 3 L 15 3 L 7 3 L 5 3 z M 7 5 L 15 5 L 15 9 L 7 9 L 7 5 z M 5 11 L 16 11 L 17 11 L 17 15 L 15 15 L 15 14 L 15 12 L 7 12 L 7 14 L 7 15 L 5 15 L 5 11 z M 9 14 L 13 14 L 13 17 L 9 17 L 9 14 z "
       style="opacity:1;fill:#4d4d4d;fill-opacity:1;stroke:none;stroke-width:0.1;stroke-linecap:round;stroke-linejoin:miter;stroke-miterlimit:4;stroke-dasharray:none;stroke-opacity:0.29943501" />
  </g>
</svg>
