<?xml version="1.0" encoding="UTF-8" standalone="no"?>
<svg
   xmlns:dc="http://purl.org/dc/elements/1.1/"
   xmlns:cc="http://creativecommons.org/ns#"
   xmlns:rdf="http://www.w3.org/1999/02/22-rdf-syntax-ns#"
   xmlns:svg="http://www.w3.org/2000/svg"
   xmlns="http://www.w3.org/2000/svg"
   id="svg5"
   version="1.1"
   viewBox="0 0 22 22">
  <metadata
     id="metadata9">
    <rdf:RDF>
      <cc:Work
         rdf:about="">
        <dc:format>image/svg+xml</dc:format>
        <dc:type
           rdf:resource="http://purl.org/dc/dcmitype/StillImage" />
        <dc:title></dc:title>
      </cc:Work>
    </rdf:RDF>
  </metadata>
  <defs
     id="defs3051">
    <style
       id="current-color-scheme"
       type="text/css">
      .ColorScheme-Text {
        color:#4d4d4d;
      }
      </style>
  </defs>
  <circle
     r="7.7774076"
     cy="11"
     cx="11"
     id="path816"
     style="opacity:1;fill:#ffffff;fill-opacity:1;stroke:none;stroke-width:1.625;stroke-miterlimit:4;stroke-dasharray:none;stroke-opacity:1" />
  <path
     d="M 11,3 A 7.9999991,7.9999998 0 0 0 2.9999997,11 7.9999991,7.9999998 0 0 0 11,19 7.9999991,7.9999998 0 0 0 19,11 7.9999991,7.9999998 0 0 0 11,3 Z m -0.0176,3.67969 c 1.08254,0 2.01562,0.73596 2.01562,2.13672 0,0.91098 -0.428,1.83512 -0.98632,2.41015 h 0.004 c -0.21419,0.6511 0.12741,0.80649 0.18164,0.82422 1.29765,0.44582 2.9409,1.55764 2.90429,3.26953 H 6.8985102 c -0.0328,-1.79202 2.04341,-3.02272 2.80664,-3.26953 0.0819,-0.0297 0.4728698,-0.244 0.25391,-0.81836 -0.56174,-0.57367 -0.98633,-1.50128 -0.98633,-2.41601 0,-1.4011 0.92654,-2.13672 2.0097598,-2.13672 z"
     id="path2"
     style="fill:#11b5ff;fill-opacity:1" />
</svg>
