<?xml version="1.0" encoding="UTF-8" standalone="no"?>
<svg
   xmlns:dc="http://purl.org/dc/elements/1.1/"
   xmlns:cc="http://creativecommons.org/ns#"
   xmlns:rdf="http://www.w3.org/1999/02/22-rdf-syntax-ns#"
   xmlns:svg="http://www.w3.org/2000/svg"
   xmlns="http://www.w3.org/2000/svg"
   id="svg6"
   version="1.1"
   viewBox="0 0 22 22">
  <metadata
     id="metadata10">
    <rdf:RDF>
      <cc:Work
         rdf:about="">
        <dc:format>image/svg+xml</dc:format>
        <dc:type
           rdf:resource="http://purl.org/dc/dcmitype/StillImage" />
        <dc:title></dc:title>
      </cc:Work>
    </rdf:RDF>
  </metadata>
  <defs
     id="defs3051">
    <style
       id="current-color-scheme"
       type="text/css">
      .ColorScheme-Text {
        color:#4d4d4d;
      }
      </style>
  </defs>
  <circle
     r="7.5"
     cy="11"
     cx="11"
     id="path814"
     style="opacity:1;fill:#ffffff;fill-opacity:1;stroke:none;stroke-width:1.3340677;stroke-miterlimit:4;stroke-dasharray:none;stroke-opacity:1" />
  <path
     style="fill:#da4453;fill-opacity:1"
     id="path2"
     d="M 19,11 A 7.9999977,7.9999977 0 0 1 11.000006,19 7.9999977,7.9999977 0 0 1 3,11 7.9999977,7.9999977 0 0 1 11.000006,3 7.9999977,7.9999977 0 0 1 19,11 Z M 15.32788,9.243749 C 14.990006,8.568166 14.51484,8.001594 13.902143,7.5442 13.725914,7.409914 13.526571,7.357451 13.304131,7.386811 13.081686,7.416181 12.905446,7.521097 12.775337,7.701509 12.641051,7.877731 12.58968,8.076 12.62112,8.296349 c 0.03131,0.22044 0.135366,0.397668 0.3116,0.531948 0.41112,0.310532 0.729206,0.690354 0.953577,1.139406 0.224526,0.448977 0.33672,0.927463 0.33672,1.43516 0,0.436526 -0.08499,0.852977 -0.254897,1.249577 -0.169977,0.396583 -0.39976,0.739634 -0.689337,1.029217 -0.289583,0.289497 -0.632554,0.519274 -1.029143,0.689263 -0.396594,0.169977 -0.813114,0.25504 -1.249571,0.25504 -0.436383,0 -0.852903,-0.08506 -1.2494976,-0.25504 C 9.3539829,14.200937 9.0109371,13.97116 8.7213486,13.681657 8.4318457,13.392074 8.2020686,13.049017 8.0320914,12.65244 7.8621086,12.255851 7.77712,11.839394 7.77712,11.402863 c 0,-0.507697 0.1122629,-0.986109 0.3367943,-1.43516 C 8.33844,9.518731 8.6562971,9.138909 9.0675714,8.828297 9.2438057,8.693943 9.3476457,8.51672 9.3791714,8.296349 9.4106,8.076074 9.3592286,7.877731 9.2249543,7.701509 9.0948457,7.521091 8.9196914,7.416171 8.6993314,7.386811 8.4789771,7.35744 8.27856,7.409897 8.0981486,7.5442 7.4853771,8.001594 7.0102114,8.56816 6.6723429,9.243749 6.3344686,9.919417 6.1655714,10.639126 6.1655714,11.402863 c 0,0.65472 0.1280286,1.279931 0.3839943,1.875868 0.2560514,0.595938 0.6001086,1.109955 1.0323886,1.542252 0.4322114,0.432206 0.94632,0.776406 1.5422457,1.032234 0.5959371,0.256046 1.221223,0.384149 1.875869,0.384149 0.654645,0 1.279937,-0.128103 1.875868,-0.384149 0.595926,-0.255897 1.110034,-0.600028 1.54224,-1.032234 0.432206,-0.432212 0.776263,-0.94632 1.032309,-1.542252 0.255977,-0.595931 0.383925,-1.221217 0.383925,-1.875868 0,-0.763737 -0.168668,-1.483446 -0.506537,-2.159114 z m -4.327926,2.159194 c 0.218189,0 0.407177,-0.07966 0.566492,-0.239206 0.159463,-0.159394 0.23936,-0.348303 0.23936,-0.566486 v -4.0288 c 0,-0.218274 -0.07981,-0.407102 -0.23936,-0.566491 -0.15932,-0.159549 -0.348223,-0.23928 -0.566492,-0.23928 -0.218263,0 -0.407097,0.07981 -0.566565,0.23928 -0.159469,0.159394 -0.2392,0.348297 -0.2392,0.566491 v 4.0288 c 0,0.218178 0.07973,0.407098 0.2392,0.566486 0.159468,0.159554 0.348377,0.239206 0.566565,0.239206 z" />
</svg>
