<?xml version="1.0" encoding="UTF-8" standalone="no"?>
<svg
   xmlns:dc="http://purl.org/dc/elements/1.1/"
   xmlns:cc="http://creativecommons.org/ns#"
   xmlns:rdf="http://www.w3.org/1999/02/22-rdf-syntax-ns#"
   xmlns:svg="http://www.w3.org/2000/svg"
   xmlns="http://www.w3.org/2000/svg"
   id="svg6"
   version="1.1"
   viewBox="0 0 22 22">
  <metadata
     id="metadata10">
    <rdf:RDF>
      <cc:Work
         rdf:about="">
        <dc:format>image/svg+xml</dc:format>
        <dc:type
           rdf:resource="http://purl.org/dc/dcmitype/StillImage" />
        <dc:title></dc:title>
      </cc:Work>
    </rdf:RDF>
  </metadata>
  <defs
     id="defs3051">
    <style
       id="current-color-scheme"
       type="text/css">
      .ColorScheme-Text {
        color:#4d4d4d;
      }
      </style>
  </defs>
  <circle
     r="7.7356405"
     cy="11"
     cx="11"
     id="path816"
     style="opacity:1;fill:#ffffff;fill-opacity:1;stroke:none;stroke-width:1.625;stroke-miterlimit:4;stroke-dasharray:none;stroke-opacity:1" />
  <path
     d="m 10.34581,11.004 2.4745,-2.4745701 c 0.12568,-0.12561 0.18842,-0.27922 0.18842,-0.46084 0,-0.18161 -0.0627,-0.33516 -0.18842,-0.46077 l -0.38185,-0.38191 c -0.12555,-0.12556 -0.27916,-0.18836 -0.46071,-0.18836 -0.18161,0 -0.33517,0.0628 -0.46084,0.18836 L 8.1971599,10.5406 c -0.12562,0.12561 -0.18843,0.27922 -0.18843,0.46084 0,0.18161 0.0628,0.33516 0.18843,0.46077 L 11.51691,14.7769 c 0.12567,0.12562 0.27923,0.18843 0.46084,0.18843 0.18155,0 0.33516,-0.0628 0.46071,-0.18843 l 0.38185,-0.38184 c 0.12568,-0.12556 0.18842,-0.27836 0.18842,-0.45828 0,-0.17986 -0.0627,-0.33435 -0.18842,-0.46334 z M 19,11 A 8.0000003,8.0000003 0 0 1 11,19 8.0000003,8.0000003 0 0 1 3.0000001,11 8.0000003,8.0000003 0 0 1 11,2.9999999 8.0000003,8.0000003 0 0 1 19,11 Z"
     id="path2"
     style="fill:#11b5ff;fill-opacity:1" />
</svg>
