<?xml version="1.0" encoding="UTF-8" standalone="no"?>
<svg
   xmlns:dc="http://purl.org/dc/elements/1.1/"
   xmlns:cc="http://creativecommons.org/ns#"
   xmlns:rdf="http://www.w3.org/1999/02/22-rdf-syntax-ns#"
   xmlns:svg="http://www.w3.org/2000/svg"
   xmlns="http://www.w3.org/2000/svg"
   xmlns:sodipodi="http://sodipodi.sourceforge.net/DTD/sodipodi-0.dtd"
   xmlns:inkscape="http://www.inkscape.org/namespaces/inkscape"
   viewBox="0 0 22 22"
   version="1.1"
   id="svg4"
   sodipodi:docname="system-run2.svg"
   inkscape:version="0.92.2 5c3e80d, 2017-08-06">
  <sodipodi:namedview
     pagecolor="#ffffff"
     bordercolor="#666666"
     borderopacity="1"
     objecttolerance="10"
     gridtolerance="10"
     guidetolerance="10"
     inkscape:pageopacity="0"
     inkscape:pageshadow="2"
     inkscape:window-width="1600"
     inkscape:window-height="826"
     id="namedview14"
     showgrid="false"
     inkscape:zoom="10.727273"
     inkscape:cx="10.981086"
     inkscape:cy="6.5288774"
     inkscape:window-x="0"
     inkscape:window-y="0"
     inkscape:window-maximized="1"
     inkscape:current-layer="svg4" />
  <metadata
     id="metadata10">
    <rdf:RDF>
      <cc:Work
         rdf:about="">
        <dc:format>image/svg+xml</dc:format>
        <dc:type
           rdf:resource="http://purl.org/dc/dcmitype/StillImage" />
        <dc:title />
      </cc:Work>
    </rdf:RDF>
  </metadata>
  <defs
     id="defs8" />
  <g
     id="g849"
     transform="matrix(0.45454545,0,0,0.45454795,18.372881,5.3220028)">
    <path
       id="rect4148-2"
       d="m -37.461718,-7.9912336 c -0.420305,0 -0.758621,0.3383449 -0.758621,0.7586207 v 38.6896549 0.758621 c 0,0.420276 0.338316,0.758621 0.758621,0.758621 h 0.75862 41.724138 c 0.420305,0 0.758621,-0.338345 0.758621,-0.758621 V -7.2326129 c 0,-0.4202758 -0.338316,-0.7586207 -0.758621,-0.7586207 h -41.724138 z"
       style="fill:#34495e;fill-opacity:1;stroke:none;stroke-width:0.75862068"
       inkscape:connector-curvature="0" />
    <g
       style="fill:#ff5555"
       transform="matrix(0.98892453,0,0,0.98892453,22.518358,-4.7624839)"
       id="g873">
      <circle
         style="opacity:1;fill:#ff5555;fill-opacity:1;stroke:none;stroke-opacity:1"
         id="path4155-0"
         cx="-20.3729"
         cy="-0.7965467"
         r="1" />
      <circle
         style="opacity:1;fill:#ff5555;fill-opacity:1;stroke:none;stroke-opacity:1"
         id="circle858"
         cx="-23.75263"
         cy="-0.7965467"
         r="1" />
      <circle
         style="opacity:1;fill:#ff5555;fill-opacity:1;stroke:none;stroke-opacity:1"
         id="circle860"
         cx="-27.204269"
         cy="-0.86845589"
         r="1" />
      <circle
         r="1"
         cy="-0.7965467"
         cx="-27.13236"
         id="circle856"
         style="opacity:1;fill:#ff5555;fill-opacity:1;stroke:none;stroke-opacity:1" />
    </g>
    <rect
       y="1.5330508"
       x="-30.527763"
       height="23.432631"
       width="28.614845"
       id="rect889"
       style="opacity:1;fill:#ffffff;fill-opacity:1;stroke:none;stroke-width:4.75021458;stroke-miterlimit:4;stroke-dasharray:none;stroke-opacity:1" />
    <path
       id="path2-3"
       d="m -35.258135,-2.8563227 c -0.806331,0 -1.457819,0.7229981 -1.457819,1.6184698 V 29.87218 c 0,0.895493 0.651488,1.618467 1.457819,1.618467 H 2.817452 c 0.806323,0 1.457824,-0.722974 1.457824,-1.618467 V -1.2378529 c 0,-0.8954717 -0.651501,-1.6184698 -1.457824,-1.6184698 z m 12.996704,8.0715381 13.878915,9.1591916 -13.878915,9.044705 z"
       style="fill:#00d4aa;stroke-width:2.69953847"
       inkscape:connector-curvature="0" />
  </g>
</svg>
